<svg xmlns="http://www.w3.org/2000/svg" xmlns:xlink="http://www.w3.org/1999/xlink" xmlns:inkscape="http://www.inkscape.org/namespaces/inkscape" version="1.1" width="405" height="247" viewBox="0 0 405 247">
<defs>
<clipPath id="clip_1">
<path transform="matrix(1,0,0,-1,0,247)" d="M0 0H405V247H0Z"/>
</clipPath>
<clipPath id="clip_2">
<path transform="matrix(1,0,0,-1,0,247)" d="M0 .00000679493H405V247H0Z"/>
</clipPath>
<path id="font_3_1" d="M.5629883 .40234376H.4033203L.40234376 .3984375C.42089845 .3763021 .43424479 .3540039 .4423828 .33154298 .45052085 .30908204 .45458985 .28450523 .45458985 .2578125 .45458985 .20930989 .4441732 .16430664 .42333985 .122802738 .4025065 .08129883 .3733724 .049153646 .3359375 .026367188 .2985026 .0035807293 .2561849-.0078125 .20898438-.0078125 .15527344-.0078125 .114339198 .006591797 .08618164 .03540039 .05802409 .064208988 .043945314 .10498047 .043945314 .15771485 .043945314 .19384766 .049397787 .22810872 .060302736 .26049806 .07120768 .29288737 .08732096 .32267253 .10864258 .34985353 .12996419 .37703453 .15413411 .39908854 .18115235 .41601563 .20817058 .43294273 .24039714 .44563804 .27783204 .45410157 .31526695 .4625651 .363444 .46679688 .42236329 .46679688H.5776367L.5629883 .40234376M.34716798 .4008789C.3035482 .3995768 .2644857 .3869629 .22998047 .3630371 .19547527 .33911134 .16870117 .30696617 .1496582 .26660157 .13061524 .22623699 .12109375 .18147786 .12109375 .13232422 .12109375 .106933597 .12524414 .086507167 .13354492 .07104492 .1418457 .055582685 .15218099 .044921876 .16455078 .0390625 .17692058 .033203126 .19026692 .030273438 .20458985 .030273438 .23746746 .030273438 .26595054 .041015626 .29003907 .0625 .3141276 .083984378 .33357749 .11669922 .34838868 .16064453 .36319987 .20458985 .37060548 .24723308 .37060548 .28857423 .37060548 .33317057 .36279298 .37060548 .34716798 .4008789Z"/>
<path id="font_4_1" d="M.3569336 .12890625C.3569336 .1188151 .35725913 .11010742 .35791017 .1027832 .3585612 .095458988 .35961915 .089274089 .36108399 .084228519 .36254884 .079182948 .36450196 .07486979 .36694337 .07128906 .36938478 .067708339 .37223307 .06461588 .37548829 .06201172 .37939454 .05810547 .38460288 .055094404 .39111329 .052978517 .3976237 .05086263 .40592448 .049072267 .41601563 .047607423 .42610679 .046142579 .43823243 .045003255 .45239259 .044189454 .46655274 .043375654 .4835612 .04280599 .50341799 .04248047V0H.11621094V.04248047C.13541667 .04313151 .1516927 .043863935 .16503906 .044677736 .17838542 .045491537 .18977864 .04663086 .19921875 .048095704 .20865886 .049560548 .21622722 .051188154 .22192383 .052978517 .22762044 .05476888 .23258464 .056966146 .2368164 .059570314 .2413737 .0625 .24527996 .06567383 .24853516 .0690918 .25179038 .072509769 .25439454 .076822917 .25634767 .08203125 .25830079 .087239589 .25984703 .09358724 .26098634 .10107422 .26212565 .108561199 .2626953 .11783854 .2626953 .12890625V.4790039C.2626953 .49169923 .2602539 .50065109 .2553711 .5058594 .25048829 .5110677 .24348958 .5136719 .234375 .5136719 .22428386 .5136719 .20930989 .50846359 .18945313 .49804688 .16959636 .48763023 .1438802 .47216798 .11230469 .45166017 .108072917 .45914714 .104166667 .46663413 .10058594 .4741211 .09700521 .48160807 .09326172 .4892578 .08935547 .4970703 .12972005 .51920577 .16967774 .54125979 .20922852 .5632324 .2487793 .5852051 .28889976 .6070964 .32958985 .62890627H.359375C.35872398 .6110026 .3582357 .5949707 .35791017 .58081057 .35758464 .5666504 .35734049 .55289718 .35717774 .5395508 .35701499 .5262044 .3569336 .5130208 .3569336 .5V.12890625Z"/>
<path id="font_4_2" d="M.3544922 .079589847C.36979167 .079589847 .3819987 .08015951 .39111329 .08129883 .40022788 .08243815 .40779624 .08496094 .41381837 .08886719 .41984049 .09277344 .42496745 .098714198 .42919923 .10668945 .433431 .11466471 .4383138 .12565105 .44384767 .13964844H.4892578C.48763023 .11653646 .48608399 .09326172 .48461915 .06982422 .4831543 .04638672 .48160807 .023111979 .47998048 0H.06640625V.025390625C.07421875 .04296875 .083333339 .060302736 .09375 .07739258 .104166667 .09448242 .115885417 .111816409 .12890625 .12939453 .14192708 .14697266 .15673828 .16512044 .17333985 .18383789 .1899414 .20255535 .20833333 .2220052 .22851563 .2421875 .2591146 .27278648 .28401695 .29890953 .30322267 .32055665 .32242839 .34220378 .3375651 .36149089 .3486328 .37841798 .35970054 .39534507 .3672689 .41097007 .3713379 .42529298 .3754069 .43961589 .3774414 .45491538 .3774414 .4711914 .3774414 .48779298 .3750814 .50309249 .37036134 .51708987 .36564128 .5310872 .35888673 .54296877 .35009767 .5527344 .3413086 .5625 .33015953 .5701497 .3166504 .5756836 .30314128 .58121749 .28759767 .5839844 .27001954 .5839844 .2397461 .5839844 .21435547 .57576498 .19384766 .5593262 .17333985 .5428874 .15738933 .51904299 .1459961 .48779298H.08203125V.5830078C.123697917 .60026046 .162028 .61279299 .19702149 .62060549 .23201497 .62841799 .26350913 .6323242 .2915039 .6323242 .32535807 .6323242 .35424806 .6284993 .37817384 .6208496 .4020996 .6131999 .42154948 .60286459 .43652345 .58984377 .4514974 .57682296 .46232096 .56119796 .46899415 .54296877 .47566734 .52473959 .4790039 .5050456 .4790039 .48388673 .4790039 .4711914 .47810874 .45939128 .47631837 .44848634 .47452799 .4375814 .47143556 .4268392 .46704103 .41625978 .46264649 .40568034 .4568685 .39501954 .44970704 .38427735 .44254557 .37353517 .43359376 .36214195 .42285157 .35009767 .41471354 .339681 .40413413 .32763673 .39111329 .31396485 .37809245 .30029298 .36385093 .28564454 .34838868 .27001954 .33292643 .25439454 .31673179 .23811849 .2998047 .2211914 .2828776 .20426433 .2664388 .1875 .25048829 .17089844 .23453777 .15429688 .21988933 .1381836 .20654297 .122558597 .19319661 .106933597 .18229167 .09261068 .17382813 .079589847H.3544922Z"/>
<path id="font_4_3" d="M.083984378 .4868164V.5830078C.122395839 .5992839 .15861003 .61157229 .19262696 .61987307 .22664388 .6281738 .25927735 .6323242 .29052735 .6323242 .316569 .6323242 .3409017 .6295573 .3635254 .62402346 .38614909 .61848959 .40576173 .6101074 .42236329 .59887698 .43896485 .5876465 .4519043 .5736491 .46118165 .55688479 .47045899 .5401204 .47509767 .5206706 .47509767 .49853517 .47509767 .4777018 .47216798 .4593099 .4663086 .44335938 .46044923 .42740885 .45141603 .4129232 .43920899 .39990235 .42700196 .3868815 .41202799 .3750814 .3942871 .36450196 .37654624 .35392253 .35611979 .34375 .3330078 .33398438V.328125C.35481773 .32421876 .37516276 .31795249 .39404298 .30932618 .4129232 .30069987 .42944337 .28979493 .44360353 .27661134 .45776368 .26342774 .46891276 .24820964 .47705079 .23095703 .4851888 .21370442 .4892578 .19466146 .4892578 .17382813 .4892578 .14778646 .484375 .12361654 .47460938 .10131836 .46484376 .07902018 .4501953 .059733076 .43066407 .04345703 .4111328 .02718099 .38704429 .014485677 .35839845 .0053710939 .3297526-.0037434896 .29622398-.008300781 .2578125-.008300781 .22753906-.008300781 .19677735-.0052897136 .16552735 .0007324219 .13427735 .006754557 .104654949 .0146484379 .076660159 .024414063V.12988281H.13964844C.14485677 .11360677 .15104167 .09969076 .15820313 .088134769 .16536458 .07657877 .17374675 .06713867 .18334961 .059814454 .19295247 .052490236 .20402019 .04720052 .21655274 .043945314 .22908528 .040690107 .24332683 .0390625 .25927735 .0390625 .30126954 .0390625 .3330892 .049072267 .35473634 .0690918 .37638346 .08911133 .38720704 .11946615 .38720704 .16015625 .38720704 .20345052 .37296549 .23624675 .34448243 .25854493 .31599937 .2808431 .27376304 .2919922 .21777344 .2919922H.17480469V.3388672C.20898438 .34049479 .23852539 .34529624 .26342774 .35327149 .28833009 .36124674 .30908204 .37158204 .3256836 .38427735 .34228517 .39697267 .35465495 .41178385 .36279298 .42871095 .370931 .44563804 .375 .46370445 .375 .48291017 .375 .51416018 .36572267 .53881838 .34716798 .55688479 .32861329 .5749512 .3017578 .5839844 .26660157 .5839844 .23697917 .5839844 .2121582 .5758464 .19213867 .5595703 .17211914 .54329428 .15673828 .51904299 .1459961 .4868164H.083984378Z"/>
<path id="font_5_1" d="M.3330078 .21875C.33854167 .24479167 .34643556 .27620445 .35668946 .31298829 .36694337 .34977214 .3758138 .37809245 .38330079 .39794923L.38085938 .40234376H.23730469L.1772461 .12451172C.17236328 .10270182 .16666667 .079182948 .16015625 .053955079 .15364583 .028727213 .14860027 .0107421879 .14501953 0H.041503908L.04638672 .023925782C.08089193 .05810547 .11279297 .1381836 .14208985 .26416017L.1743164 .40234376H.1586914C.13557942 .40234376 .11604818 .3984375 .100097659 .390625 .08414713 .3828125 .06673177 .3671875 .047851564 .34375L.017089844 .3696289C.034016927 .39013673 .047851564 .40576173 .05859375 .4165039 .06933594 .4272461 .08064779 .4363607 .0925293 .44384767 .104410808 .45133464 .117757167 .45703126 .13256836 .4609375 .14737956 .46484376 .16471355 .46679688 .18457031 .46679688H.5854492L.57128909 .40234376H.45507813L.39990235 .15771485C.39274089 .1258138 .38916017 .10172526 .38916017 .08544922 .38916017 .07242838 .39127604 .06298828 .3955078 .057128908 .3997396 .05126953 .40641276 .048339845 .41552735 .048339845 .4350586 .048339845 .4580078 .063964847 .484375 .095214847L.5126953 .068847659C.48795573 .041829427 .46541343 .022298178 .44506837 .010253906 .4247233-.0017903646 .40299479-.0078125 .3798828-.0078125 .3577474-.0078125 .34033204-.00024414063 .32763673 .014892578 .3149414 .030029297 .30859376 .04996745 .30859376 .07470703 .30859376 .09651693 .31315104 .12809246 .32226563 .1694336L.3330078 .21875Z"/>
<path id="font_6_5" d="M.06591797-.19873047V.5185547H.1459961V.45117188C.1648763 .47753907 .18619792 .49731446 .20996094 .51049807 .23372396 .52368167 .26253257 .53027346 .29638673 .53027346 .34065757 .53027346 .37972007 .5188802 .41357423 .49609376 .44742839 .47330729 .47298179 .4411621 .49023438 .3996582 .507487 .3581543 .5161133 .31266276 .5161133 .2631836 .5161133 .2101237 .5065918 .16235352 .48754884 .11987305 .46850587 .07739258 .44083659 .044840497 .40454103 .022216797 .36824546-.00040690104 .33007813-.01171875 .29003907-.01171875 .2607422-.01171875 .23445638-.005533854 .21118164 .0068359377 .1879069 .019205729 .16878255 .03483073 .1538086 .053710939V-.19873047H.06591797M.14550781 .25634767C.14550781 .18961589 .15901692 .14029949 .18603516 .10839844 .21305339 .0764974 .24576824 .060546876 .2841797 .060546876 .3232422 .060546876 .35668946 .077067058 .38452149 .11010742 .41235353 .14314778 .42626954 .19433594 .42626954 .26367188 .42626954 .3297526 .41267906 .37923179 .38549806 .41210938 .35831706 .44498698 .32584635 .46142579 .28808595 .46142579 .25065104 .46142579 .2175293 .44392906 .1887207 .40893556 .15991211 .37394206 .14550781 .32307945 .14550781 .25634767Z"/>
<path id="font_6_3" d="M.063964847 0V.7158203H.15185547V0H.063964847Z"/>
<path id="font_6_1" d="M.40429688 .063964847C.37174479 .036295576 .34041343 .016764323 .31030274 .0053710939 .28019206-.0060221354 .24788411-.01171875 .2133789-.01171875 .15641277-.01171875 .11263021 .0021972657 .08203125 .030029297 .051432294 .057861329 .036132814 .09342448 .036132814 .13671875 .036132814 .16210938 .04191081 .18530274 .053466798 .20629883 .06502279 .22729492 .08015951 .24414063 .09887695 .25683595 .1175944 .26953126 .13867188 .27913413 .16210938 .28564454 .17936199 .2902018 .20540364 .29459635 .24023438 .29882813 .3111979 .30729167 .363444 .3173828 .39697267 .32910157 .3972982 .34114585 .39746095 .34879557 .39746095 .35205079 .39746095 .38785807 .38916017 .41308595 .3725586 .42773438 .35009767 .44759117 .31673179 .45751954 .27246095 .45751954 .2311198 .45751954 .20060222 .4502767 .1809082 .43579103 .16121419 .42130534 .14664714 .39567057 .13720703 .35888673L.05126953 .37060548C.05908203 .4073893 .0719401 .4370931 .08984375 .4597168 .1077474 .48234049 .1336263 .49975587 .16748047 .5119629 .20133464 .5241699 .24055989 .53027346 .28515626 .53027346 .3294271 .53027346 .36539714 .5250651 .3930664 .51464846 .4207357 .50423178 .44108073 .49112956 .45410157 .4753418 .4671224 .45955406 .47623698 .43961589 .4814453 .41552735 .484375 .40055339 .48583985 .37353517 .48583985 .33447267V.21728516C.48583985 .13557942 .48771159 .08390299 .49145509 .06225586 .49519859 .040608724 .5026042 .019856772 .5136719 0H.421875C.4127604 .018229166 .40690104 .03955078 .40429688 .063964847M.39697267 .2602539C.36507163 .24723308 .31722007 .23616536 .25341798 .22705078 .21728516 .22184246 .19173177 .21598308 .17675781 .20947266 .16178386 .20296224 .15022786 .19344075 .14208985 .1809082 .13395183 .16837566 .12988281 .15445964 .12988281 .13916016 .12988281 .115722659 .13875325 .096191409 .15649414 .080566409 .17423503 .064941409 .20019531 .057128908 .234375 .057128908 .26822917 .057128908 .29833985 .06453451 .32470704 .0793457 .35107423 .0941569 .37044273 .11442057 .3828125 .14013672 .3922526 .15999349 .39697267 .18929036 .39697267 .22802735V.2602539Z"/>
<path id="font_6_4" d="M.06591797 0V.5185547H.14501953V.44482423C.18310547 .50179037 .23811849 .53027346 .3100586 .53027346 .3413086 .53027346 .3700358 .5246582 .39624024 .51342776 .42244468 .50219729 .44205729 .48746745 .45507813 .46923829 .46809898 .45100913 .47721354 .42936198 .48242188 .40429688 .4856771 .38802085 .4873047 .35953776 .4873047 .31884767V0H.39941407V.3154297C.39941407 .35123698 .3959961 .37801109 .38916017 .39575196 .38232423 .41349284 .37019859 .42765299 .3527832 .43823243 .33536784 .44881187 .3149414 .45410157 .2915039 .45410157 .254069 .45410157 .22176107 .44222007 .19458008 .41845704 .1673991 .394694 .1538086 .34960938 .1538086 .28320313V0H.06591797Z"/>
<path id="font_6_2" d="M.42089845 .16699219 .51171877 .15576172C.49739585 .10270182 .47086589 .061523439 .4321289 .032226564 .39339195 .0029296876 .34391276-.01171875 .2836914-.01171875 .20784505-.01171875 .14770508 .01163737 .103271488 .05834961 .05883789 .10506185 .036621095 .17057292 .036621095 .2548828 .036621095 .3421224 .05908203 .40983073 .104003909 .4580078 .14892578 .5061849 .20719402 .53027346 .2788086 .53027346 .34814454 .53027346 .40478517 .50667318 .44873048 .45947267 .49267579 .41227214 .51464846 .34586589 .51464846 .2602539 .51464846 .25504557 .51448568 .24723308 .51416018 .2368164H.1274414C.13069661 .17985027 .14680989 .13623047 .17578125 .10595703 .20475261 .075683597 .24088542 .060546876 .2841797 .060546876 .31640626 .060546876 .34391276 .069010417 .36669923 .0859375 .3894857 .102864589 .4075521 .12988281 .42089845 .16699219M.13232422 .30908204H.421875C.41796876 .3527018 .40690104 .38541667 .38867188 .40722657 .3606771 .44108073 .3243815 .4580078 .27978517 .4580078 .23942058 .4580078 .20548503 .4444987 .17797852 .41748048 .150472 .39046226 .1352539 .35432945 .13232422 .30908204Z"/>
<path id="font_7_7" d="M.080078128 0V.7158203H.17480469V.421875H.546875V.7158203H.64160159V0H.546875V.33740235H.17480469V0H.080078128Z"/>
<path id="font_7_26" d="M.06201172-.19970703 .052246095-.1171875C.07145182-.122395839 .08821615-.125 .10253906-.125 .12207031-.125 .13769531-.12174479 .14941406-.115234378 .16113281-.10872396 .17073567-.099609378 .17822266-.087890628 .18375652-.07910156 .19270833-.057291669 .20507813-.022460938 .20670574-.017578125 .20930989-.010416667 .21289063-.0009765625L.016113282 .5185547H.110839847L.21875 .21826172C.23274739 .18017578 .24527996 .14013672 .25634767 .09814453 .2664388 .13850911 .27848307 .17789714 .29248048 .2163086L.4033203 .5185547H.49121095L.2939453-.0087890629C.27278648-.06575521 .25634767-.10498047 .2446289-.12646485 .2290039-.1554362 .21110027-.17667644 .19091797-.19018555 .17073567-.20369466 .14664714-.21044922 .118652347-.21044922 .10172526-.21044922 .082845058-.20686849 .06201172-.19970703Z"/>
<path id="font_7_11" d="M.40234376 0V.06542969C.36946617 .0139973959 .3211263-.01171875 .25732423-.01171875 .21598308-.01171875 .17797852-.00032552085 .14331055 .022460938 .10864258 .045247396 .08178711 .077067058 .06274414 .11791992 .043701173 .15877278 .034179689 .20572917 .034179689 .25878907 .034179689 .31054688 .04280599 .35750328 .060058595 .3996582 .077311199 .44181315 .1031901 .4741211 .13769531 .49658204 .17220052 .51904299 .21077474 .53027346 .25341798 .53027346 .28466798 .53027346 .3125 .52368167 .33691407 .51049807 .36132813 .49731446 .3811849 .48014323 .39648438 .45898438V.7158203H.48388673V0H.40234376M.12451172 .25878907C.12451172 .19238281 .13850911 .14274089 .1665039 .10986328 .1944987 .07698568 .22753906 .060546876 .265625 .060546876 .30403648 .060546876 .33666993 .07625326 .3635254 .107666019 .39038087 .13907878 .4038086 .18701172 .4038086 .25146485 .4038086 .32242839 .39013673 .37451173 .36279298 .40771485 .33544923 .44091798 .3017578 .45751954 .26171876 .45751954 .22265625 .45751954 .19002278 .441569 .16381836 .40966798 .13761394 .37776695 .12451172 .32747398 .12451172 .25878907Z"/>
<path id="font_7_20" d="M.064941409 0V.5185547H.14404297V.4399414C.16422527 .47672526 .18286133 .50097659 .19995117 .5126953 .21704102 .52441409 .23583985 .53027346 .25634767 .53027346 .28597007 .53027346 .31608073 .5208333 .3466797 .5019531L.31640626 .42041017C.29492188 .43310548 .2734375 .43945313 .25195313 .43945313 .23274739 .43945313 .2154948 .43367515 .20019531 .42211915 .18489583 .41056315 .17399089 .39453126 .16748047 .37402345 .15771485 .34277345 .15283203 .30859376 .15283203 .27148438V0H.064941409Z"/>
<path id="font_7_18" d="M.033203126 .25927735C.033203126 .355306 .059895833 .42643229 .11328125 .47265626 .15787761 .5110677 .21223958 .53027346 .2763672 .53027346 .34765626 .53027346 .40592448 .5069173 .45117188 .46020509 .49641929 .41349284 .51904299 .34895835 .51904299 .26660157 .51904299 .1998698 .5090332 .14737956 .48901368 .10913086 .46899415 .070882167 .43986003 .041178388 .40161134 .020019532 .36336265-.0011393229 .3216146-.01171875 .2763672-.01171875 .20377605-.01171875 .1451009 .011555989 .1003418 .05810547 .055582685 .104654949 .033203126 .17171224 .033203126 .25927735M.123535159 .25927735C.123535159 .1928711 .13802083 .14314778 .16699219 .11010742 .19596355 .077067058 .23242188 .060546876 .2763672 .060546876 .31998698 .060546876 .35628257 .07714844 .3852539 .11035156 .41422526 .14355469 .42871095 .19417317 .42871095 .26220704 .42871095 .32633464 .4141439 .3749186 .38500978 .40795899 .35587565 .44099937 .31966148 .45751954 .2763672 .45751954 .23242188 .45751954 .19596355 .44108073 .16699219 .40820313 .13802083 .37532554 .123535159 .3256836 .123535159 .25927735Z"/>
<path id="font_7_21" d="M.030761719 .15478516 .11767578 .16845703C.122558597 .1336263 .1361491 .106933597 .15844727 .088378909 .18074544 .06982422 .21191406 .060546876 .25195313 .060546876 .29231773 .060546876 .32226563 .06876627 .34179688 .08520508 .36132813 .10164388 .37109376 .12093099 .37109376 .1430664 .37109376 .16292317 .36246745 .17854817 .34521485 .1899414 .33317057 .1977539 .30322267 .2076823 .2553711 .21972656 .19091797 .23600261 .14624024 .2500814 .12133789 .2619629 .09643555 .2738444 .077555339 .2902832 .064697269 .3112793 .05183919 .3322754 .045410158 .35546876 .045410158 .38085938 .045410158 .40397135 .05069987 .42537437 .061279298 .44506837 .07185873 .46476237 .08626302 .48111979 .10449219 .49414063 .11816406 .50423178 .13680013 .5127767 .16040039 .5197754 .18400066 .5267741 .20930989 .53027346 .23632813 .53027346 .27701823 .53027346 .31274415 .52441409 .34350587 .5126953 .37426759 .50097659 .39697267 .48510743 .4116211 .4650879 .42626954 .44506837 .4363607 .41829429 .44189454 .38476563L.35595704 .37304688C.35205079 .3997396 .34073893 .4205729 .32202149 .43554688 .30330406 .45052085 .27685548 .4580078 .24267578 .4580078 .2023112 .4580078 .17350261 .45133464 .15625 .43798829 .13899739 .42464195 .1303711 .40901695 .1303711 .39111329 .1303711 .37972007 .13395183 .36946617 .14111328 .36035157 .14827474 .35091148 .1595052 .34309898 .17480469 .33691407 .18359375 .33365885 .20947266 .32617188 .2524414 .31445313 .31461589 .29785157 .35799156 .28426109 .38256837 .27368165 .40714518 .2631022 .42643229 .24772136 .4404297 .22753906 .4544271 .20735677 .46142579 .18229167 .46142579 .15234375 .46142579 .123046878 .45288087 .095458988 .43579103 .06958008 .41870118 .043701173 .39404298 .02368164 .3618164 .009521484 .32958985-.004638672 .2931315-.01171875 .2524414-.01171875 .1850586-.01171875 .13370769 .0022786458 .09838867 .030273438 .063069667 .05826823 .040527345 .09977213 .030761719 .15478516Z"/>
<path id="font_7_22" d="M.2578125 .07861328 .2705078 .0009765625C.24576824-.004231771 .22363281-.0068359377 .20410156-.0068359377 .17220052-.0068359377 .14746094-.0017903646 .12988281 .008300781 .11230469 .018391928 .0999349 .031656904 .09277344 .048095704 .08561198 .06453451 .08203125 .099121097 .08203125 .15185547V.4501953H.017578125V.5185547H.08203125V.64697268L.1694336 .69970706V.5185547H.2578125V.4501953H.1694336V.14697266C.1694336 .121907558 .17097982 .10579427 .17407227 .09863281 .17716472 .09147135 .18221028 .08577474 .18920899 .08154297 .19620769 .077311199 .20621746 .07519531 .21923828 .07519531 .2290039 .07519531 .24186199 .07633463 .2578125 .07861328Z"/>
<path id="font_7_9" d="M.40429688 .063964847C.37174479 .036295576 .34041343 .016764323 .31030274 .0053710939 .28019206-.0060221354 .24788411-.01171875 .2133789-.01171875 .15641277-.01171875 .11263021 .0021972657 .08203125 .030029297 .051432294 .057861329 .036132814 .09342448 .036132814 .13671875 .036132814 .16210938 .04191081 .18530274 .053466798 .20629883 .06502279 .22729492 .08015951 .24414063 .09887695 .25683595 .1175944 .26953126 .13867188 .27913413 .16210938 .28564454 .17936199 .2902018 .20540364 .29459635 .24023438 .29882813 .3111979 .30729167 .363444 .3173828 .39697267 .32910157 .3972982 .34114585 .39746095 .34879557 .39746095 .35205079 .39746095 .38785807 .38916017 .41308595 .3725586 .42773438 .35009767 .44759117 .31673179 .45751954 .27246095 .45751954 .2311198 .45751954 .20060222 .4502767 .1809082 .43579103 .16121419 .42130534 .14664714 .39567057 .13720703 .35888673L.05126953 .37060548C.05908203 .4073893 .0719401 .4370931 .08984375 .4597168 .1077474 .48234049 .1336263 .49975587 .16748047 .5119629 .20133464 .5241699 .24055989 .53027346 .28515626 .53027346 .3294271 .53027346 .36539714 .5250651 .3930664 .51464846 .4207357 .50423178 .44108073 .49112956 .45410157 .4753418 .4671224 .45955406 .47623698 .43961589 .4814453 .41552735 .484375 .40055339 .48583985 .37353517 .48583985 .33447267V.21728516C.48583985 .13557942 .48771159 .08390299 .49145509 .06225586 .49519859 .040608724 .5026042 .019856772 .5136719 0H.421875C.4127604 .018229166 .40690104 .03955078 .40429688 .063964847M.39697267 .2602539C.36507163 .24723308 .31722007 .23616536 .25341798 .22705078 .21728516 .22184246 .19173177 .21598308 .17675781 .20947266 .16178386 .20296224 .15022786 .19344075 .14208985 .1809082 .13395183 .16837566 .12988281 .15445964 .12988281 .13916016 .12988281 .115722659 .13875325 .096191409 .15649414 .080566409 .17423503 .064941409 .20019531 .057128908 .234375 .057128908 .26822917 .057128908 .29833985 .06453451 .32470704 .0793457 .35107423 .0941569 .37044273 .11442057 .3828125 .14013672 .3922526 .15999349 .39697267 .18929036 .39697267 .22802735V.2602539Z"/>
<path id="font_7_14" d="M.06640625 .6147461V.7158203H.15429688V.6147461H.06640625M.06640625 0V.5185547H.15429688V0H.06640625Z"/>
<path id="font_7_10" d="M.40429688 .1899414 .49072267 .17871094C.48128257 .119140628 .45711265 .072509769 .4182129 .03881836 .37931315 .005126953 .33154298-.01171875 .27490235-.01171875 .2039388-.01171875 .14689128 .011474609 .103759769 .057861329 .060628255 .10424805 .0390625 .17073567 .0390625 .25732423 .0390625 .3133138 .048339845 .3623047 .06689453 .40429688 .08544922 .44628907 .11368815 .4777832 .15161133 .4987793 .1895345 .5197754 .23079427 .53027346 .27539063 .53027346 .33170573 .53027346 .37776695 .5160319 .41357423 .48754884 .4493815 .45906578 .47233073 .41861979 .48242188 .36621095L.39697267 .35302735C.38883464 .38785807 .37443034 .4140625 .35375978 .43164063 .3330892 .44921876 .30810548 .4580078 .2788086 .4580078 .23453777 .4580078 .1985677 .44213868 .17089844 .4104004 .14322917 .3786621 .12939453 .32845054 .12939453 .25976563 .12939453 .19010417 .14274089 .13948567 .1694336 .107910159 .1961263 .07633463 .23095703 .060546876 .27392579 .060546876 .308431 .060546876 .3372396 .071126308 .36035157 .092285159 .38346354 .11344401 .39811198 .1459961 .40429688 .1899414Z"/>
<path id="font_7_1" d="M0 0Z"/>
<path id="font_7_2" d="M.23388672-.21044922C.18538411-.1492513 .14436849-.07763672 .110839847 .0043945314 .077311199 .08642578 .060546876 .17138672 .060546876 .25927735 .060546876 .3367513 .07307943 .41097007 .09814453 .4819336 .1274414 .56429037 .1726888 .6463216 .23388672 .72802737H.296875C.25748698 .66031906 .23144531 .6119792 .21875 .5830078 .19889324 .53808596 .18326824 .49121095 .171875 .4423828 .15787761 .3815104 .1508789 .3203125 .1508789 .25878907 .1508789 .10221354 .19954427-.05419922 .296875-.21044922H.23388672Z"/>
<path id="font_7_19" d="M.06591797-.19873047V.5185547H.1459961V.45117188C.1648763 .47753907 .18619792 .49731446 .20996094 .51049807 .23372396 .52368167 .26253257 .53027346 .29638673 .53027346 .34065757 .53027346 .37972007 .5188802 .41357423 .49609376 .44742839 .47330729 .47298179 .4411621 .49023438 .3996582 .507487 .3581543 .5161133 .31266276 .5161133 .2631836 .5161133 .2101237 .5065918 .16235352 .48754884 .11987305 .46850587 .07739258 .44083659 .044840497 .40454103 .022216797 .36824546-.00040690104 .33007813-.01171875 .29003907-.01171875 .2607422-.01171875 .23445638-.005533854 .21118164 .0068359377 .1879069 .019205729 .16878255 .03483073 .1538086 .053710939V-.19873047H.06591797M.14550781 .25634767C.14550781 .18961589 .15901692 .14029949 .18603516 .10839844 .21305339 .0764974 .24576824 .060546876 .2841797 .060546876 .3232422 .060546876 .35668946 .077067058 .38452149 .11010742 .41235353 .14314778 .42626954 .19433594 .42626954 .26367188 .42626954 .3297526 .41267906 .37923179 .38549806 .41210938 .35831706 .44498698 .32584635 .46142579 .28808595 .46142579 .25065104 .46142579 .2175293 .44392906 .1887207 .40893556 .15991211 .37394206 .14550781 .32307945 .14550781 .25634767Z"/>
<path id="font_7_3" d="M.123535159-.21044922H.060546876C.15787761-.05419922 .20654297 .10221354 .20654297 .25878907 .20654297 .31998698 .19954427 .38069663 .18554688 .44091798 .17447917 .4897461 .15901692 .5366211 .13916016 .58154299 .12646485 .61083987 .100260417 .65966799 .060546876 .72802737H.123535159C.18473308 .6463216 .22998047 .56429037 .25927735 .4819336 .28434245 .41097007 .296875 .3367513 .296875 .25927735 .296875 .17138672 .2800293 .08642578 .24633789 .0043945314 .21264649-.07763672 .17171224-.1492513 .123535159-.21044922Z"/>
<path id="font_7_25" d="M.0073242189 0 .19677735 .26953126 .021484375 .5185547H.13134766L.2109375 .39697267C.22591146 .3738607 .23795574 .3544922 .24707031 .3388672 .26139323 .36035157 .2745768 .37939454 .2866211 .3959961L.37402345 .5185547H.4790039L.2998047 .27441407 .49267579 0H.38476563L.2783203 .16113281 .25 .20458985 .11376953 0H.0073242189Z"/>
<path id="font_7_8" d="M.09326172 0V.7158203H.18798828V0H.09326172Z"/>
<path id="font_7_16" d="M.06591797 0V.5185547H.14453125V.44580079C.1608073 .4711914 .18245442 .49161784 .20947266 .5070801 .23649089 .5225423 .2672526 .53027346 .3017578 .53027346 .34016929 .53027346 .37166343 .52229818 .39624024 .50634768 .42081706 .49039714 .43815104 .46809898 .4482422 .43945313 .4892578 .5 .54264327 .53027346 .60839846 .53027346 .65983077 .53027346 .69938156 .5160319 .7270508 .48754884 .75472006 .45906578 .7685547 .4152018 .7685547 .35595704V0H.68115237V.32666017C.68115237 .3618164 .678304 .38712565 .6726074 .4025879 .6669108 .41805015 .6565755 .4305013 .64160159 .4399414 .6266276 .4493815 .6090495 .45410157 .5888672 .45410157 .5524089 .45410157 .52213546 .44197593 .49804688 .4177246 .47395835 .3934733 .46191407 .35465495 .46191407 .30126954V0H.37402345V.33691407C.37402345 .37597657 .36686198 .40527345 .35253907 .4248047 .33821617 .44433595 .31477867 .45410157 .28222657 .45410157 .25748698 .45410157 .23461914 .44759117 .21362305 .4345703 .19262696 .42154948 .17740886 .4025065 .16796875 .3774414 .15852864 .3523763 .1538086 .3162435 .1538086 .26904298V0H.06591797Z"/>
<path id="font_7_12" d="M.42089845 .16699219 .51171877 .15576172C.49739585 .10270182 .47086589 .061523439 .4321289 .032226564 .39339195 .0029296876 .34391276-.01171875 .2836914-.01171875 .20784505-.01171875 .14770508 .01163737 .103271488 .05834961 .05883789 .10506185 .036621095 .17057292 .036621095 .2548828 .036621095 .3421224 .05908203 .40983073 .104003909 .4580078 .14892578 .5061849 .20719402 .53027346 .2788086 .53027346 .34814454 .53027346 .40478517 .50667318 .44873048 .45947267 .49267579 .41227214 .51464846 .34586589 .51464846 .2602539 .51464846 .25504557 .51448568 .24723308 .51416018 .2368164H.1274414C.13069661 .17985027 .14680989 .13623047 .17578125 .10595703 .20475261 .075683597 .24088542 .060546876 .2841797 .060546876 .31640626 .060546876 .34391276 .069010417 .36669923 .0859375 .3894857 .102864589 .4075521 .12988281 .42089845 .16699219M.13232422 .30908204H.421875C.41796876 .3527018 .40690104 .38541667 .38867188 .40722657 .3606771 .44108073 .3243815 .4580078 .27978517 .4580078 .23942058 .4580078 .20548503 .4444987 .17797852 .41748048 .150472 .39046226 .1352539 .35432945 .13232422 .30908204Z"/>
<path id="font_7_17" d="M.06591797 0V.5185547H.14501953V.44482423C.18310547 .50179037 .23811849 .53027346 .3100586 .53027346 .3413086 .53027346 .3700358 .5246582 .39624024 .51342776 .42244468 .50219729 .44205729 .48746745 .45507813 .46923829 .46809898 .45100913 .47721354 .42936198 .48242188 .40429688 .4856771 .38802085 .4873047 .35953776 .4873047 .31884767V0H.39941407V.3154297C.39941407 .35123698 .3959961 .37801109 .38916017 .39575196 .38232423 .41349284 .37019859 .42765299 .3527832 .43823243 .33536784 .44881187 .3149414 .45410157 .2915039 .45410157 .254069 .45410157 .22176107 .44222007 .19458008 .41845704 .1673991 .394694 .1538086 .34960938 .1538086 .28320313V0H.06591797Z"/>
<path id="font_7_13" d="M.06591797 0V.7158203H.1538086V.45898438C.19482422 .50651046 .24658203 .53027346 .30908204 .53027346 .3474935 .53027346 .38085938 .5227051 .4091797 .50756838 .4375 .49243165 .45776368 .47151695 .4699707 .44482423 .48217774 .4181315 .48828126 .37939454 .48828126 .32861329V0H.40039063V.32861329C.40039063 .3725586 .39086915 .40454103 .37182618 .42456056 .3527832 .44458009 .32584635 .45458985 .29101563 .45458985 .26497398 .45458985 .24047852 .4478353 .2175293 .43432618 .19458008 .42081706 .17822266 .4025065 .16845703 .37939454 .1586914 .35628257 .1538086 .3243815 .1538086 .2836914V0H.06591797Z"/>
<path id="font_7_5" d="M.5878906 .25097657 .6826172 .22705078C.66276046 .1492513 .6270345 .08992513 .57543948 .049072267 .5238444 .008219401 .46077476-.012207031 .38623048-.012207031 .30908204-.012207031 .24633789 .0034993489 .19799805 .03491211 .1496582 .06632487 .11287435 .111816409 .087646488 .17138672 .06241862 .23095703 .049804689 .29492188 .049804689 .36328126 .049804689 .43782554 .06404623 .5028483 .0925293 .5583496 .12101237 .6138509 .16153972 .65600588 .21411133 .68481448 .26668296 .71362307 .32454429 .72802737 .3876953 .72802737 .4593099 .72802737 .51953127 .70979818 .5683594 .67333987 .6171875 .63688156 .6512044 .585612 .67041018 .51953127L.57714846 .4975586C.5605469 .5496419 .5364583 .5875651 .5048828 .6113281 .47330729 .6350911 .43359376 .64697268 .3857422 .64697268 .33072917 .64697268 .28474937 .63378909 .24780274 .6074219 .21085613 .5810547 .18489583 .5456543 .16992188 .5012207 .15494792 .4567871 .14746094 .41097007 .14746094 .36376954 .14746094 .30289714 .15633138 .24975586 .17407227 .2043457 .19181316 .15893555 .21940105 .125 .25683595 .10253906 .29427085 .080078128 .3347982 .068847659 .37841798 .068847659 .43147788 .068847659 .47639976 .08414713 .5131836 .114746097 .54996749 .14534505 .5748698 .1907552 .5878906 .25097657Z"/>
<path id="font_7_24" d="M.20996094 0 .0126953129 .5185547H.10546875L.21679688 .20800781C.22884114 .17447917 .23990886 .13964844 .25 .103515628 .2578125 .13085938 .26871745 .16373699 .28271485 .20214844L.39794923 .5185547H.48828126L.2919922 0H.20996094Z"/>
<path id="font_7_15" d="M.063964847 0V.7158203H.15185547V0H.063964847Z"/>
<path id="font_7_23" d="M.40576173 0V.076171878C.36539714 .017578125 .31054688-.01171875 .24121094-.01171875 .21061199-.01171875 .18204753-.005859375 .15551758 .005859375 .12898763 .017578125 .10929362 .03230794 .09643555 .050048829 .08357748 .06778971 .07454427 .08951823 .06933594 .115234378 .06575521 .13248699 .063964847 .15983074 .063964847 .19726563V.5185547H.15185547V.23095703C.15185547 .1850586 .15364583 .15413411 .15722656 .1381836 .16276042 .11507162 .17447917 .09692383 .19238281 .083740238 .21028646 .07055664 .23242188 .063964847 .25878907 .063964847 .28515626 .063964847 .30989585 .0707194 .3330078 .084228519 .35611979 .09773763 .3724772 .116129558 .38208009 .1394043 .39168296 .16267903 .39648438 .19645183 .39648438 .24072266V.5185547H.484375V0H.40576173Z"/>
<path id="font_7_4" d="M.09033203 .41845704V.5185547H.19042969V.41845704H.09033203M.09033203 0V.100097659H.19042969V0H.09033203Z"/>
<path id="font_8_2" d="M.36816407 .05859375C.31770835 .01171875 .2693685-.01171875 .22314453-.01171875 .17496746-.01171875 .13427735 .006591797 .10107422 .04321289 .067871097 .079833988 .05126953 .13183594 .05126953 .19921875 .05126953 .26367188 .06388346 .3219401 .08911133 .37402345 .114339198 .42610679 .14656575 .46516929 .18579102 .49121095 .22501628 .5172526 .26546226 .53027346 .3071289 .53027346 .33870445 .53027346 .36743165 .521403 .39331056 .5036621 .41918946 .48592124 .44010417 .45914714 .4560547 .42333985L.47607423 .5185547H.5522461L.40283204-.19873047H.31445313L.36816407 .05859375M.13867188 .2109375C.13867188 .15983074 .1492513 .12198893 .17041016 .09741211 .19156902 .07283529 .2179362 .060546876 .24951172 .060546876 .27620445 .060546876 .30314128 .071614589 .33032228 .09375 .35750328 .115885417 .37980143 .14908855 .3972168 .19335938 .41463218 .2376302 .42333985 .2804362 .42333985 .32177735 .42333985 .36409507 .4124349 .3972982 .390625 .42138673 .3688151 .44547526 .3421224 .45751954 .31054688 .45751954 .2796224 .45751954 .25260417 .44742839 .22949219 .4272461 .19921875 .40120445 .17545574 .36360679 .15820313 .31445313 .1451823 .27669273 .13867188 .2421875 .13867188 .2109375Z"/>
<path id="font_8_1" d="M-.010253906-.19873047 .13964844 .5185547H.2211914L.20605469 .44628907C.23632813 .4778646 .26342774 .49975587 .28735353 .5119629 .3112793 .5241699 .33658854 .53027346 .36328126 .53027346 .4127604 .53027346 .45377604 .5122884 .48632813 .47631837 .5188802 .4403483 .53515627 .38883464 .53515627 .32177735 .53515627 .26774089 .5262044 .21850586 .5083008 .17407227 .49039714 .12963867 .46842448 .09391276 .4423828 .06689453 .41634117 .0398763 .38997398 .020019532 .36328126 .0073242189 .33658854-.0053710939 .30924479-.01171875 .28125-.01171875 .21907552-.01171875 .17089844 .019856772 .13671875 .08300781L.078125-.19873047H-.010253906M.16455078 .21191406C.16455078 .17317708 .1673177 .14632161 .17285156 .13134766 .18098958 .110188808 .19433594 .09309896 .21289063 .080078128 .23144531 .06705729 .2529297 .060546876 .27734376 .060546876 .328125 .060546876 .36914063 .08911133 .40039063 .14624024 .43164063 .20336914 .44726563 .26171876 .44726563 .32128907 .44726563 .36523438 .43676759 .39916993 .41577149 .4230957 .3947754 .44702149 .36865235 .45898438 .33740235 .45898438 .3149414 .45898438 .29410807 .4530436 .27490235 .4411621 .25569663 .4292806 .23787435 .4115397 .22143555 .38793946 .20499675 .3643392 .19140625 .33544923 .18066406 .30126954 .16992188 .26708985 .16455078 .23730469 .16455078 .21191406Z"/>
<path id="font_7_6" d="M.07714844 0V.7158203H.32373048C.37939454 .7158203 .421875 .71240237 .45117188 .7055664 .4921875 .6961263 .52718099 .67903646 .55615237 .6542969 .5939128 .6223958 .6221517 .5816243 .64086917 .5319824 .6595866 .48234049 .6689453 .4256185 .6689453 .3618164 .6689453 .30745445 .66259768 .25927735 .64990237 .21728516 .63720706 .17529297 .62093099 .14054363 .6010742 .11303711 .58121749 .0855306 .55948898 .06388346 .5358887 .048095704 .5122884 .03230794 .48380534 .020345053 .45043946 .012207031 .41707359 .0040690104 .3787435 0 .33544923 0H.07714844M.171875 .084472659H.32470704C.37190757 .084472659 .40893556 .08886719 .43579103 .09765625 .46264649 .10644531 .48404948 .1188151 .5 .13476563 .52246096 .15722656 .5399577 .18741863 .55249026 .2253418 .56502279 .26326499 .57128909 .30924479 .57128909 .36328126 .57128909 .43815104 .5590007 .49568687 .5344238 .5358887 .509847 .5760905 .47998048 .60302737 .44482423 .6166992 .4194336 .62646487 .37858073 .63134768 .32226563 .63134768H.171875V.084472659Z"/>
<path id="font_9_3" d="M.17236328 .24707031C.17236328 .13313802 .19067383 .03922526 .22729492-.03466797 .26391603-.108561199 .31982423-.15804036 .39501954-.18310547L.38330079-.22070313C.2879232-.19563802 .21484375-.14168294 .1640625-.05883789 .11328125 .024007163 .087890628 .12434896 .087890628 .2421875 .087890628 .35970054 .11336263 .46004234 .16430664 .5432129 .21525066 .6263835 .2882487 .6805013 .38330079 .7055664L.39648438 .66796877C.3203125 .6429036 .26391603 .59399417 .22729492 .52124026 .19067383 .44848634 .17236328 .35709635 .17236328 .24707031Z"/>
<path id="font_9_2" d="M.36816407 .34814454C.36458335 .37711589 .35506187 .39908854 .3395996 .4140625 .32413737 .42903648 .2998047 .43652345 .26660157 .43652345 .24088542 .43652345 .22005208 .42993165 .20410156 .41674806 .18815105 .40356446 .18017578 .38623048 .18017578 .3647461 .18017578 .35302735 .18221028 .34269206 .1862793 .33374024 .19034831 .32478843 .1985677 .3149414 .2109375 .30419923 .2233073 .29345704 .24251302 .28027345 .2685547 .26464845 .2890625 .25227867 .3055013 .2409668 .3178711 .23071289 .33024089 .22045899 .3400065 .21028646 .34716798 .20019531 .35432945 .19010417 .35953776 .17944336 .36279298 .16821289 .3660482 .15698242 .36767579 .14339192 .36767579 .1274414 .36767579 .098470058 .35994468 .073649089 .34448243 .052978517 .32902018 .03230794 .30802409 .016927084 .28149415 .0068359377 .2549642-.0032552083 .22477214-.008300781 .19091797-.008300781 .16389974-.008300781 .1373698-.006266276 .111328128-.0021972657 .08528646 .0018717448 .056315107 .0087890629 .024414063 .018554688L.047851564 .125H.0859375C.087239589 .09375 .09602865 .07014974 .11230469 .05419922 .12858074 .0382487 .15445964 .030273438 .1899414 .030273438 .22086589 .030273438 .24503581 .037190755 .26245118 .05102539 .27986656 .06486002 .28857423 .084472659 .28857423 .10986328 .28857423 .12451172 .2861328 .13712566 .28125 .14770508 .2763672 .1582845 .26839195 .16845703 .25732423 .17822266 .24625652 .18798828 .22867839 .20019531 .20458985 .21484375 .17919922 .23014324 .15942383 .24397786 .14526367 .25634767 .13110352 .26871745 .12044271 .28214518 .11328125 .29663087 .10611979 .31111656 .10253906 .32779948 .10253906 .3466797 .10253906 .37239585 .10945638 .39493815 .123291019 .41430665 .13712566 .43367515 .15690105 .44856773 .18261719 .45898438 .20833333 .46940104 .23828125 .47460938 .27246095 .47460938 .30273438 .47460938 .33032228 .472819 .3552246 .46923829 .38012696 .46565757 .4049479 .45947267 .4296875 .4506836L.40771485 .34814454H.36816407Z"/>
<path id="font_10_1" d="M.33935548 .1274414C.33935548 .108561199 .34041343 .094319667 .3425293 .0847168 .34464518 .07511393 .34838868 .06730143 .35375978 .061279298 .35913087 .05525716 .36686198 .05053711 .37695313 .04711914 .38704429 .043701173 .3997396 .041097005 .41503907 .03930664 .43033854 .037516279 .45052085 .036295576 .47558595 .03564453V0H.114746097V.03564453C.1508789 .037272138 .17667644 .039469404 .19213867 .042236329 .2076009 .045003255 .21940105 .049153646 .22753906 .0546875 .23567708 .060221357 .24161785 .06803385 .24536133 .078125 .24910482 .08821615 .25097657 .104654949 .25097657 .1274414V.5234375C.25097657 .5364583 .24869792 .5459798 .24414063 .55200198 .23958333 .5580241 .23291016 .56103518 .2241211 .56103518 .21370442 .56103518 .19889324 .55566409 .1796875 .5449219 .16048177 .5341797 .13671875 .51936849 .10839844 .5004883L.08691406 .53808596 .3154297 .6743164H.34228517C.34033204 .6430664 .33935548 .59977218 .33935548 .5444336V.1274414Z"/>
<path id="font_9_1" d="M.1508789 .11328125C.1554362 .09049479 .15771485 .06803385 .15771485 .045898439 .15771485 .023111979 .1538086 .0022786458 .1459961-.016601563 .1381836-.03548177 .12573242-.054280599 .10864258-.07299805 .091552738-.09171549 .06803385-.11230469 .038085939-.13476563L.01171875-.10498047C.028320313-.08935547 .040364583-.075276698 .047851564-.06274414 .055338544-.05021159 .060709638-.03597005 .063964847-.020019532 .067220058-.0040690104 .068847659 .015950522 .068847659 .040039064 .068847659 .06477865 .067708339 .08919271 .06542969 .11328125H.1508789Z"/>
<path id="font_10_2" d="M.3544922 .079589847C.36979167 .079589847 .3819987 .08015951 .39111329 .08129883 .40022788 .08243815 .40779624 .08496094 .41381837 .08886719 .41984049 .09277344 .42496745 .098714198 .42919923 .10668945 .433431 .11466471 .4383138 .12565105 .44384767 .13964844H.4892578C.48763023 .11653646 .48608399 .09326172 .48461915 .06982422 .4831543 .04638672 .48160807 .023111979 .47998048 0H.06640625V.025390625C.07421875 .04296875 .083333339 .060302736 .09375 .07739258 .104166667 .09448242 .115885417 .111816409 .12890625 .12939453 .14192708 .14697266 .15673828 .16512044 .17333985 .18383789 .1899414 .20255535 .20833333 .2220052 .22851563 .2421875 .2591146 .27278648 .28401695 .29890953 .30322267 .32055665 .32242839 .34220378 .3375651 .36149089 .3486328 .37841798 .35970054 .39534507 .3672689 .41097007 .3713379 .42529298 .3754069 .43961589 .3774414 .45491538 .3774414 .4711914 .3774414 .48779298 .3750814 .50309249 .37036134 .51708987 .36564128 .5310872 .35888673 .54296877 .35009767 .5527344 .3413086 .5625 .33015953 .5701497 .3166504 .5756836 .30314128 .58121749 .28759767 .5839844 .27001954 .5839844 .2397461 .5839844 .21435547 .57576498 .19384766 .5593262 .17333985 .5428874 .15738933 .51904299 .1459961 .48779298H.08203125V.5830078C.123697917 .60026046 .162028 .61279299 .19702149 .62060549 .23201497 .62841799 .26350913 .6323242 .2915039 .6323242 .32535807 .6323242 .35424806 .6284993 .37817384 .6208496 .4020996 .6131999 .42154948 .60286459 .43652345 .58984377 .4514974 .57682296 .46232096 .56119796 .46899415 .54296877 .47566734 .52473959 .4790039 .5050456 .4790039 .48388673 .4790039 .4711914 .47810874 .45939128 .47631837 .44848634 .47452799 .4375814 .47143556 .4268392 .46704103 .41625978 .46264649 .40568034 .4568685 .39501954 .44970704 .38427735 .44254557 .37353517 .43359376 .36214195 .42285157 .35009767 .41471354 .339681 .40413413 .32763673 .39111329 .31396485 .37809245 .30029298 .36385093 .28564454 .34838868 .27001954 .33292643 .25439454 .31673179 .23811849 .2998047 .2211914 .2828776 .20426433 .2664388 .1875 .25048829 .17089844 .23453777 .15429688 .21988933 .1381836 .20654297 .122558597 .19319661 .106933597 .18229167 .09261068 .17382813 .079589847H.3544922Z"/>
<path id="font_10_3" d="M.083984378 .4868164V.5830078C.122395839 .5992839 .15861003 .61157229 .19262696 .61987307 .22664388 .6281738 .25927735 .6323242 .29052735 .6323242 .316569 .6323242 .3409017 .6295573 .3635254 .62402346 .38614909 .61848959 .40576173 .6101074 .42236329 .59887698 .43896485 .5876465 .4519043 .5736491 .46118165 .55688479 .47045899 .5401204 .47509767 .5206706 .47509767 .49853517 .47509767 .4777018 .47216798 .4593099 .4663086 .44335938 .46044923 .42740885 .45141603 .4129232 .43920899 .39990235 .42700196 .3868815 .41202799 .3750814 .3942871 .36450196 .37654624 .35392253 .35611979 .34375 .3330078 .33398438V.328125C.35481773 .32421876 .37516276 .31795249 .39404298 .30932618 .4129232 .30069987 .42944337 .28979493 .44360353 .27661134 .45776368 .26342774 .46891276 .24820964 .47705079 .23095703 .4851888 .21370442 .4892578 .19466146 .4892578 .17382813 .4892578 .14778646 .484375 .12361654 .47460938 .10131836 .46484376 .07902018 .4501953 .059733076 .43066407 .04345703 .4111328 .02718099 .38704429 .014485677 .35839845 .0053710939 .3297526-.0037434896 .29622398-.008300781 .2578125-.008300781 .22753906-.008300781 .19677735-.0052897136 .16552735 .0007324219 .13427735 .006754557 .104654949 .0146484379 .076660159 .024414063V.12988281H.13964844C.14485677 .11360677 .15104167 .09969076 .15820313 .088134769 .16536458 .07657877 .17374675 .06713867 .18334961 .059814454 .19295247 .052490236 .20402019 .04720052 .21655274 .043945314 .22908528 .040690107 .24332683 .0390625 .25927735 .0390625 .30126954 .0390625 .3330892 .049072267 .35473634 .0690918 .37638346 .08911133 .38720704 .11946615 .38720704 .16015625 .38720704 .20345052 .37296549 .23624675 .34448243 .25854493 .31599937 .2808431 .27376304 .2919922 .21777344 .2919922H.17480469V.3388672C.20898438 .34049479 .23852539 .34529624 .26342774 .35327149 .28833009 .36124674 .30908204 .37158204 .3256836 .38427735 .34228517 .39697267 .35465495 .41178385 .36279298 .42871095 .370931 .44563804 .375 .46370445 .375 .48291017 .375 .51416018 .36572267 .53881838 .34716798 .55688479 .32861329 .5749512 .3017578 .5839844 .26660157 .5839844 .23697917 .5839844 .2121582 .5758464 .19213867 .5595703 .17211914 .54329428 .15673828 .51904299 .1459961 .4868164H.083984378Z"/>
<path id="font_9_4" d="M.24267578 .24707031C.24267578 .35709635 .22444661 .44848634 .18798828 .52124026 .15152996 .59399417 .095052089 .6429036 .018554688 .66796877L.03173828 .7055664C.12679036 .6805013 .1997884 .6263835 .25073243 .5432129 .30167643 .46004234 .32714845 .35970054 .32714845 .2421875 .32714845 .12434896 .3017578 .024007163 .25097657-.05883789 .20019531-.14168294 .12711589-.19563802 .03173828-.22070313L.020019532-.18310547C.095214847-.15804036 .15112305-.108561199 .18774414-.03466797 .22436524 .03922526 .24267578 .13313802 .24267578 .24707031Z"/>
</defs>
<g clip-path="url(#clip_1)">
<path transform="matrix(1,0,0,-1,0,247)" d="M0 247H405V0H0Z" fill="#ffffff"/>
</g>
<g clip-path="url(#clip_2)">
<path transform="matrix(1,0,0,-1,0,247)" d="M144.0814 66.12054 203.4538 120.9986 202.9331 121.5619 143.5607 66.68386ZM204.1921 119.0697 206.01 123.8835 201.0683 122.4496Z"/>
<path transform="matrix(.00006039728,0,0,-.00006040006,143.054,184.00714)" stroke-width="12700" stroke-linecap="butt" stroke-dasharray="38100,12700" stroke-miterlimit="8" stroke-linejoin="miter" fill="none" stroke="#595959" d="M0 0 1088284 982723"/>
<path transform="matrix(1,0,0,-1,0,247)" d="M192.7286 110.5448C169.0643 138.2459 156.8871 166.6881 165.53 174.0722 174.1729 181.4563 200.3631 164.986 224.0274 137.2848 247.6916 109.5836 259.8689 81.14142 251.2259 73.75736 242.5831 66.37329 216.3929 82.84357 192.7286 110.5448Z" fill="#d1d1d1" fill-opacity=".5216" fill-rule="evenodd"/>
<path transform="matrix(.00004592126,-.00003923278,.00003923098,.00004592337,149.8806,86.297809)" stroke-width="12700" stroke-linecap="butt" stroke-miterlimit="8" stroke-linejoin="miter" fill="none" stroke="#747474" d="M0 1092198C0 488993.7 152575.5 0 340787 0 528998.4 0 681574 488993.7 681574 1092198 681574 1695402 528998.4 2184396 340787 2184396 152575.5 2184396 0 1695402 0 1092198Z"/>
<path transform="matrix(1,0,0,-1,0,247)" d="M143.4375 63.51798 143.4376 220.5362H142.6705V63.51798ZM145.3552 219.7686 143.0541 224.3711 140.7529 219.7686Z"/>
<path transform="matrix(1,0,0,-1,0,247)" d="M143.1813 62.78895 305.5756 119.9473 305.321 120.6709 142.9266 63.51253ZM305.4885 117.8836 309.0658 121.5823 303.9606 122.225Z"/>
<path transform="matrix(1,0,0,-1,0,247)" d="M210.1705 125.0154V190.6196H209.4035L209.4034 125.0154ZM212.0881 189.8525 209.787 194.455 207.4859 189.8525Z"/>
<use data-text="!" xlink:href="#font_3_1" transform="matrix(13.806817,0,0,-13.807453,135.7353,16.108704)"/>
<use data-text="!" xlink:href="#font_4_1" transform="matrix(9.97159,0,0,-9.97205,142.5275,18.409943)"/>
<use data-text="!" xlink:href="#font_3_1" transform="matrix(13.806817,0,0,-13.807453,280.7791,240.86328)"/>
<use data-text="&quot;" xlink:href="#font_4_2" transform="matrix(9.97159,0,0,-9.97205,287.8896,243.16461)"/>
<use data-text="!" xlink:href="#font_3_1" transform="matrix(13.806817,0,0,-13.807453,316.01,128.10248)"/>
<use data-text="#" xlink:href="#font_4_3" transform="matrix(9.97159,0,0,-9.97205,323.1205,130.40369)"/>
<path transform="matrix(.00006039728,0,0,-.00006040006,209.7869,123.1822)" stroke-width="12700" stroke-linecap="butt" stroke-dasharray="38100,12700" stroke-miterlimit="8" stroke-linejoin="miter" fill="none" stroke="#595959" d="M0 0 556994 509088"/>
<path transform="matrix(1,0,0,-1,0,247)" d="M208.1031 123.0909C207.3231 124.004 206.9476 124.9635 207.2643 125.2341 207.5811 125.5048 208.4701 124.9839 209.2501 124.0709 210.0302 123.1578 210.4057 122.1983 210.089 121.9276 209.7722 121.657 208.8831 122.1779 208.1031 123.0909Z" fill="#ffffff" fill-rule="evenodd"/>
<path transform="matrix(.00004592126,-.00003923278,.00003923098,.00004592337,206.6908,122.2559)" stroke-width="12700" stroke-linecap="butt" stroke-miterlimit="8" stroke-linejoin="miter" fill="none" stroke="#000000" d="M0 36000C0 16117.75 5591.515 0 12489 0 19386.48 0 24978 16117.75 24978 36000 24978 55882.25 19386.48 72000 12489 72000 5591.515 72000 0 55882.25 0 36000Z"/>
<path transform="matrix(1,0,0,-1,0,247)" d="M228.5854 141.6995C204.9212 169.4007 192.7439 197.8429 201.3869 205.2269 210.0298 212.6109 236.2199 196.1407 259.8842 168.4395 283.5485 140.7383 295.7257 112.2961 287.0828 104.9121 278.4399 97.52803 252.2497 113.9983 228.5854 141.6995Z" fill="#d1d1d1" fill-opacity=".5216" fill-rule="evenodd"/>
<path transform="matrix(.00004592126,-.00003923278,.00003923098,.00004592337,185.7374,55.143098)" stroke-width="12700" stroke-linecap="butt" stroke-miterlimit="8" stroke-linejoin="miter" fill="none" stroke="#747474" d="M0 1092198C0 488993.7 152575.5 0 340787 0 528998.4 0 681574 488993.7 681574 1092198 681574 1695402 528998.4 2184396 340787 2184396 152575.5 2184396 0 1695402 0 1092198Z"/>
<path transform="matrix(.00006039728,0,0,-.00006040006,245.071,90.51311)" stroke-width="12700" stroke-linecap="butt" stroke-dasharray="38100,12700" stroke-miterlimit="8" stroke-linejoin="miter" fill="none" stroke="#595959" d="M0 0 659972 603209"/>
<use data-text="!" xlink:href="#font_5_1" transform="matrix(8.437499,0,0,-8.437888,272.3981,160.31989)"/>
<use data-text="p" xlink:href="#font_6_5" transform="matrix(8.437499,0,0,-8.437888,279.8653,160.31989)"/>
<use data-text="l" xlink:href="#font_6_3" transform="matrix(8.437499,0,0,-8.437888,284.5633,160.31989)"/>
<use data-text="a" xlink:href="#font_6_1" transform="matrix(8.437499,0,0,-8.437888,286.48536,160.31989)"/>
<use data-text="n" xlink:href="#font_6_4" transform="matrix(8.437499,0,0,-8.437888,291.18336,160.31989)"/>
<use data-text="e" xlink:href="#font_6_2" transform="matrix(8.437499,0,0,-8.437888,295.88136,160.31989)"/>
<path transform="matrix(.00006039728,0,0,.00006040006,251.9744,173.74378)" stroke-width="12700" stroke-linecap="butt" stroke-miterlimit="8" stroke-linejoin="miter" fill="none" stroke="#000000" d="M0 0 183477 1"/>
<path transform="matrix(.00006039728,0,0,-.00006040006,262.7131,173.47097)" stroke-width="12700" stroke-linecap="butt" stroke-miterlimit="8" stroke-linejoin="miter" fill="none" stroke="#000000" d="M0 0 221187 147883"/>
<path transform="matrix(.00006039728,0,0,.00006040006,287.2585,143.06061)" stroke-width="12700" stroke-linecap="butt" stroke-miterlimit="8" stroke-linejoin="miter" fill="none" stroke="#000000" d="M0 0 1 149524"/>
<use data-text="H" xlink:href="#font_7_7" transform="matrix(9.204544,0,0,-9.204968,274.034,90.5155)" fill="#7f7f7f"/>
<use data-text="y" xlink:href="#font_7_26" transform="matrix(9.204544,0,0,-9.204968,280.6493,90.5155)" fill="#7f7f7f"/>
<use data-text="d" xlink:href="#font_7_11" transform="matrix(9.204544,0,0,-9.204968,285.2516,90.5155)" fill="#7f7f7f"/>
<use data-text="r" xlink:href="#font_7_20" transform="matrix(9.204544,0,0,-9.204968,290.3334,90.5155)" fill="#7f7f7f"/>
<use data-text="o" xlink:href="#font_7_18" transform="matrix(9.204544,0,0,-9.204968,293.40129,90.5155)" fill="#7f7f7f"/>
<use data-text="s" xlink:href="#font_7_21" transform="matrix(9.204544,0,0,-9.204968,298.4831,90.5155)" fill="#7f7f7f"/>
<use data-text="t" xlink:href="#font_7_22" transform="matrix(9.204544,0,0,-9.204968,303.0854,90.5155)" fill="#7f7f7f"/>
<use data-text="a" xlink:href="#font_7_9" transform="matrix(9.204544,0,0,-9.204968,305.67463,90.5155)" fill="#7f7f7f"/>
<use data-text="t" xlink:href="#font_7_22" transform="matrix(9.204544,0,0,-9.204968,310.75645,90.5155)" fill="#7f7f7f"/>
<use data-text="i" xlink:href="#font_7_14" transform="matrix(9.204544,0,0,-9.204968,313.3457,90.5155)" fill="#7f7f7f"/>
<use data-text="c" xlink:href="#font_7_10" transform="matrix(9.204544,0,0,-9.204968,315.35874,90.5155)" fill="#7f7f7f"/>
<use data-text=" " xlink:href="#font_7_1" transform="matrix(9.204544,0,0,-9.204968,319.961,90.5155)" fill="#7f7f7f"/>
<use data-text="(" xlink:href="#font_7_2" transform="matrix(9.204544,0,0,-9.204968,322.55024,90.5155)" fill="#7f7f7f"/>
<use data-text="i" xlink:href="#font_7_14" transform="matrix(9.204544,0,0,-9.204968,325.6181,90.5155)" fill="#7f7f7f"/>
<use data-text="s" xlink:href="#font_7_21" transform="matrix(9.204544,0,0,-9.204968,327.63114,90.5155)" fill="#7f7f7f"/>
<use data-text="o" xlink:href="#font_7_18" transform="matrix(9.204544,0,0,-9.204968,332.23344,90.5155)" fill="#7f7f7f"/>
<use data-text="t" xlink:href="#font_7_22" transform="matrix(9.204544,0,0,-9.204968,337.31526,90.5155)" fill="#7f7f7f"/>
<use data-text="r" xlink:href="#font_7_20" transform="matrix(9.204544,0,0,-9.204968,339.90449,90.5155)" fill="#7f7f7f"/>
<use data-text="o" xlink:href="#font_7_18" transform="matrix(9.204544,0,0,-9.204968,342.97236,90.5155)" fill="#7f7f7f"/>
<use data-text="p" xlink:href="#font_7_19" transform="matrix(9.204544,0,0,-9.204968,348.0542,90.5155)" fill="#7f7f7f"/>
<use data-text="i" xlink:href="#font_7_14" transform="matrix(9.204544,0,0,-9.204968,353.13603,90.5155)" fill="#7f7f7f"/>
<use data-text="c" xlink:href="#font_7_10" transform="matrix(9.204544,0,0,-9.204968,355.14906,90.5155)" fill="#7f7f7f"/>
<use data-text=")" xlink:href="#font_7_3" transform="matrix(9.204544,0,0,-9.204968,359.75135,90.5155)" fill="#7f7f7f"/>
<use data-text=" " xlink:href="#font_7_1" transform="matrix(9.204544,0,0,-9.204968,362.8192,90.5155)" fill="#7f7f7f"/>
<use data-text="a" xlink:href="#font_7_9" transform="matrix(9.204544,0,0,-9.204968,365.40846,90.5155)" fill="#7f7f7f"/>
<use data-text="x" xlink:href="#font_7_25" transform="matrix(9.204544,0,0,-9.204968,370.49028,90.5155)" fill="#7f7f7f"/>
<use data-text="i" xlink:href="#font_7_14" transform="matrix(9.204544,0,0,-9.204968,375.09254,90.5155)" fill="#7f7f7f"/>
<use data-text="s" xlink:href="#font_7_21" transform="matrix(9.204544,0,0,-9.204968,377.1056,90.5155)" fill="#7f7f7f"/>
<use data-text=" " xlink:href="#font_7_1" transform="matrix(9.204544,0,0,-9.204968,381.70787,90.5155)" fill="#7f7f7f"/>
<path transform="matrix(.00006039728,0,0,.00006040006,276.5199,60.982896)" stroke-width="12700" stroke-linecap="butt" stroke-miterlimit="8" stroke-linejoin="miter" fill="none" stroke="#7f7f7f" d="M0 0 1 328215"/>
<path transform="matrix(1,0,0,-1,0,247)" d="M55.22727 98.95342H177.18747V115.8292H55.22727Z" fill="#ffffff"/>
<use data-text="I" xlink:href="#font_7_8" transform="matrix(9.204544,0,0,-9.204968,60.55697,142.677)" fill="#7f7f7f"/>
<use data-text="s" xlink:href="#font_7_21" transform="matrix(9.204544,0,0,-9.204968,63.146207,142.677)" fill="#7f7f7f"/>
<use data-text="o" xlink:href="#font_7_18" transform="matrix(9.204544,0,0,-9.204968,67.74848,142.677)" fill="#7f7f7f"/>
<use data-text="t" xlink:href="#font_7_22" transform="matrix(9.204544,0,0,-9.204968,72.83031,142.677)" fill="#7f7f7f"/>
<use data-text="r" xlink:href="#font_7_20" transform="matrix(9.204544,0,0,-9.204968,75.41955,142.677)" fill="#7f7f7f"/>
<use data-text="o" xlink:href="#font_7_18" transform="matrix(9.204544,0,0,-9.204968,78.48743,142.677)" fill="#7f7f7f"/>
<use data-text="p" xlink:href="#font_7_19" transform="matrix(9.204544,0,0,-9.204968,83.56925,142.677)" fill="#7f7f7f"/>
<use data-text="i" xlink:href="#font_7_14" transform="matrix(9.204544,0,0,-9.204968,88.651088,142.677)" fill="#7f7f7f"/>
<use data-text="c" xlink:href="#font_7_10" transform="matrix(9.204544,0,0,-9.204968,90.664119,142.677)" fill="#7f7f7f"/>
<use data-text=" " xlink:href="#font_7_1" transform="matrix(9.204544,0,0,-9.204968,95.26639,142.677)" fill="#7f7f7f"/>
<use data-text="c" xlink:href="#font_7_10" transform="matrix(9.204544,0,0,-9.204968,97.85563,142.677)" fill="#7f7f7f"/>
<use data-text="o" xlink:href="#font_7_18" transform="matrix(9.204544,0,0,-9.204968,102.4579,142.677)" fill="#7f7f7f"/>
<use data-text="m" xlink:href="#font_7_16" transform="matrix(9.204544,0,0,-9.204968,107.539737,142.677)" fill="#7f7f7f"/>
<use data-text="p" xlink:href="#font_7_19" transform="matrix(9.204544,0,0,-9.204968,115.209888,142.677)" fill="#7f7f7f"/>
<use data-text="r" xlink:href="#font_7_20" transform="matrix(9.204544,0,0,-9.204968,120.29172,142.677)" fill="#7f7f7f"/>
<use data-text="e" xlink:href="#font_7_12" transform="matrix(9.204544,0,0,-9.204968,123.35959,142.677)" fill="#7f7f7f"/>
<use data-text="s" xlink:href="#font_7_21" transform="matrix(9.204544,0,0,-9.204968,128.44142,142.677)" fill="#7f7f7f"/>
<use data-text="s" xlink:href="#font_7_21" transform="matrix(9.204544,0,0,-9.204968,133.0437,142.677)" fill="#7f7f7f"/>
<use data-text="i" xlink:href="#font_7_14" transform="matrix(9.204544,0,0,-9.204968,137.64597,142.677)" fill="#7f7f7f"/>
<use data-text="o" xlink:href="#font_7_18" transform="matrix(9.204544,0,0,-9.204968,139.659,142.677)" fill="#7f7f7f"/>
<use data-text="n" xlink:href="#font_7_17" transform="matrix(9.204544,0,0,-9.204968,144.74083,142.677)" fill="#7f7f7f"/>
<use data-text=" " xlink:href="#font_7_1" transform="matrix(9.204544,0,0,-9.204968,149.82266,142.677)" fill="#7f7f7f"/>
<use data-text="p" xlink:href="#font_7_19" transform="matrix(9.204544,0,0,-9.204968,152.4119,142.677)" fill="#7f7f7f"/>
<use data-text="a" xlink:href="#font_7_9" transform="matrix(9.204544,0,0,-9.204968,157.49372,142.677)" fill="#7f7f7f"/>
<use data-text="t" xlink:href="#font_7_22" transform="matrix(9.204544,0,0,-9.204968,162.57555,142.677)" fill="#7f7f7f"/>
<use data-text="h" xlink:href="#font_7_13" transform="matrix(9.204544,0,0,-9.204968,165.1648,142.677)" fill="#7f7f7f"/>
<path transform="matrix(.00006039728,0,0,.00006040006,156.8608,149.1972)" stroke-width="12700" stroke-linecap="butt" stroke-miterlimit="8" stroke-linejoin="miter" fill="none" stroke="#7f7f7f" d="M0 0 1 328215"/>
<path transform="matrix(1,0,0,-1,0,247)" d="M210.3511 196.5732C209.5711 197.4862 208.682 198.007 208.3653 197.7364 208.0485 197.4658 208.424 196.5062 209.204 195.5932 209.9841 194.6801 210.8731 194.1593 211.1899 194.43 211.5066 194.7005 211.1311 195.6601 210.3511 196.5732Z" fill="#ffffff" fill-rule="evenodd"/>
<path transform="matrix(-.00004592126,.00003923278,.00003923098,.00004592337,208.9388,48.773607)" stroke-width="12700" stroke-linecap="butt" stroke-miterlimit="8" stroke-linejoin="miter" fill="none" stroke="#e97132" d="M0 36000C0 16117.75 5591.515 0 12489 0 19386.48 0 24978 16117.75 24978 36000 24978 55882.25 19386.48 72000 12489 72000 5591.515 72000 0 55882.25 0 36000Z"/>
<path transform="matrix(1,0,0,-1,0,247)" d="M143.1976 63.63982 270.4223 12.27604 270.1352 11.56475 142.9104 62.92852ZM270.4288 14.34152 273.835 10.48467 268.7059 10.0737Z"/>
<path transform="matrix(1,0,0,-1,0,247)" d="M244.6758 155.5596C243.8958 156.4727 243.0067 156.9934 242.69 156.7229 242.3732 156.4523 242.7488 155.4927 243.5288 154.5797 244.3088 153.6666 245.1979 153.1458 245.5146 153.4164 245.8314 153.687 245.4558 154.6465 244.6758 155.5596Z" fill="#ffffff" fill-rule="evenodd"/>
<path transform="matrix(-.00004592126,.00003923278,.00003923098,.00004592337,243.2635,89.7872)" stroke-width="12700" stroke-linecap="butt" stroke-miterlimit="8" stroke-linejoin="miter" fill="none" stroke="#000000" d="M0 36000C0 16117.75 5591.515 0 12489 0 19386.48 0 24978 16117.75 24978 36000 24978 55882.25 19386.48 72000 12489 72000 5591.515 72000 0 55882.25 0 36000Z"/>
<path transform="matrix(1,0,0,-1,0,247)" d="M214.0743 190.9904 215.5496 189.2244 214.9609 188.7325 213.4855 190.4986ZM216.0413 188.6357 217.5167 186.8696 216.928 186.3778 215.4527 188.1439ZM218.0084 186.281 219.4838 184.5149 218.8951 184.0231 217.4198 185.7892ZM219.9755 183.9263 221.4509 182.1602 220.8622 181.6684 219.3869 183.4345ZM221.9427 181.5715 223.418 179.8055 222.8293 179.3136 221.354 181.0797ZM223.9098 179.2168 225.3851 177.4508 224.7965 176.9589 223.3211 178.725ZM225.8769 176.8621 227.3522 175.096 226.7636 174.6042 225.2882 176.3703ZM227.844 174.5073 229.3194 172.7413 228.7306 172.2495 227.2553 174.0156ZM229.8111 172.1526 231.2864 170.3866 230.6978 169.8948 229.2225 171.6609ZM231.7782 169.7979 233.2535 168.0319 232.6649 167.54 231.1896 169.3061ZM233.7454 167.4431 235.2207 165.6772 234.632 165.1853 233.1567 166.9514ZM235.7124 165.0884 237.1878 163.3224 236.5992 162.8306 235.1238 164.5967ZM237.6795 162.7337 239.1549 160.9677 238.5662 160.4759 237.0909 162.242ZM239.6467 160.379 241.122 158.613 240.5333 158.1212 239.058 159.8872ZM241.6138 158.0243 243.0891 156.2583 242.5005 155.7664 241.0252 157.5325ZM212.5057 188.6804 211.321 193.6879 216.0377 191.6312Z" fill="#ff0000"/>
<path transform="matrix(.00006039728,0,0,.00006040006,192.1449,76.32449)" stroke-width="12700" stroke-linecap="butt" stroke-miterlimit="8" stroke-linejoin="miter" fill="none" stroke="#7f7f7f" d="M0 0 296012 138499"/>
<path transform="matrix(.00006039728,0,0,.00006040006,192.1449,21.094696)" stroke-width="12700" stroke-linecap="butt" stroke-miterlimit="8" stroke-linejoin="miter" fill="none" stroke="#7f7f7f" d="M0 0 1 937911"/>
<path transform="matrix(1,0,0,-1,0,247)" d="M157.2443 226.2888H327.52839V243.16458H157.2443Z" fill="#ffffff"/>
<use data-text="C" xlink:href="#font_7_5" transform="matrix(9.204544,0,0,-9.204968,163.132,16.108704)" fill="#7f7f7f"/>
<use data-text="o" xlink:href="#font_7_18" transform="matrix(9.204544,0,0,-9.204968,169.74732,16.108704)" fill="#7f7f7f"/>
<use data-text="n" xlink:href="#font_7_17" transform="matrix(9.204544,0,0,-9.204968,174.82913,16.108704)" fill="#7f7f7f"/>
<use data-text="v" xlink:href="#font_7_24" transform="matrix(9.204544,0,0,-9.204968,179.91097,16.108704)" fill="#7f7f7f"/>
<use data-text="e" xlink:href="#font_7_12" transform="matrix(9.204544,0,0,-9.204968,184.51325,16.108704)" fill="#7f7f7f"/>
<use data-text="n" xlink:href="#font_7_17" transform="matrix(9.204544,0,0,-9.204968,189.59508,16.108704)" fill="#7f7f7f"/>
<use data-text="t" xlink:href="#font_7_22" transform="matrix(9.204544,0,0,-9.204968,194.67691,16.108704)" fill="#7f7f7f"/>
<use data-text="i" xlink:href="#font_7_14" transform="matrix(9.204544,0,0,-9.204968,197.26615,16.108704)" fill="#7f7f7f"/>
<use data-text="o" xlink:href="#font_7_18" transform="matrix(9.204544,0,0,-9.204968,199.27918,16.108704)" fill="#7f7f7f"/>
<use data-text="n" xlink:href="#font_7_17" transform="matrix(9.204544,0,0,-9.204968,204.36101,16.108704)" fill="#7f7f7f"/>
<use data-text="a" xlink:href="#font_7_9" transform="matrix(9.204544,0,0,-9.204968,209.44284,16.108704)" fill="#7f7f7f"/>
<use data-text="l" xlink:href="#font_7_15" transform="matrix(9.204544,0,0,-9.204968,214.52466,16.108704)" fill="#7f7f7f"/>
<use data-text=" " xlink:href="#font_7_1" transform="matrix(9.204544,0,0,-9.204968,216.5377,16.108704)" fill="#7f7f7f"/>
<use data-text="t" xlink:href="#font_7_22" transform="matrix(9.204544,0,0,-9.204968,219.12694,16.108704)" fill="#7f7f7f"/>
<use data-text="r" xlink:href="#font_7_20" transform="matrix(9.204544,0,0,-9.204968,221.71617,16.108704)" fill="#7f7f7f"/>
<use data-text="i" xlink:href="#font_7_14" transform="matrix(9.204544,0,0,-9.204968,224.78406,16.108704)" fill="#7f7f7f"/>
<use data-text="a" xlink:href="#font_7_9" transform="matrix(9.204544,0,0,-9.204968,226.79709,16.108704)" fill="#7f7f7f"/>
<use data-text="x" xlink:href="#font_7_25" transform="matrix(9.204544,0,0,-9.204968,231.8789,16.108704)" fill="#7f7f7f"/>
<use data-text="i" xlink:href="#font_7_14" transform="matrix(9.204544,0,0,-9.204968,236.48119,16.108704)" fill="#7f7f7f"/>
<use data-text="a" xlink:href="#font_7_9" transform="matrix(9.204544,0,0,-9.204968,238.49423,16.108704)" fill="#7f7f7f"/>
<use data-text="l" xlink:href="#font_7_15" transform="matrix(9.204544,0,0,-9.204968,243.57605,16.108704)" fill="#7f7f7f"/>
<use data-text=" " xlink:href="#font_7_1" transform="matrix(9.204544,0,0,-9.204968,245.58908,16.108704)" fill="#7f7f7f"/>
<use data-text="c" xlink:href="#font_7_10" transform="matrix(9.204544,0,0,-9.204968,248.17832,16.108704)" fill="#7f7f7f"/>
<use data-text="o" xlink:href="#font_7_18" transform="matrix(9.204544,0,0,-9.204968,252.7806,16.108704)" fill="#7f7f7f"/>
<use data-text="m" xlink:href="#font_7_16" transform="matrix(9.204544,0,0,-9.204968,257.86244,16.108704)" fill="#7f7f7f"/>
<use data-text="p" xlink:href="#font_7_19" transform="matrix(9.204544,0,0,-9.204968,265.53257,16.108704)" fill="#7f7f7f"/>
<use data-text="r" xlink:href="#font_7_20" transform="matrix(9.204544,0,0,-9.204968,270.6144,16.108704)" fill="#7f7f7f"/>
<use data-text="e" xlink:href="#font_7_12" transform="matrix(9.204544,0,0,-9.204968,273.68229,16.108704)" fill="#7f7f7f"/>
<use data-text="s" xlink:href="#font_7_21" transform="matrix(9.204544,0,0,-9.204968,278.7641,16.108704)" fill="#7f7f7f"/>
<use data-text="s" xlink:href="#font_7_21" transform="matrix(9.204544,0,0,-9.204968,283.3664,16.108704)" fill="#7f7f7f"/>
<use data-text="i" xlink:href="#font_7_14" transform="matrix(9.204544,0,0,-9.204968,287.96867,16.108704)" fill="#7f7f7f"/>
<use data-text="o" xlink:href="#font_7_18" transform="matrix(9.204544,0,0,-9.204968,289.9817,16.108704)" fill="#7f7f7f"/>
<use data-text="n" xlink:href="#font_7_17" transform="matrix(9.204544,0,0,-9.204968,295.06355,16.108704)" fill="#7f7f7f"/>
<use data-text=" " xlink:href="#font_7_1" transform="matrix(9.204544,0,0,-9.204968,300.14533,16.108704)" fill="#7f7f7f"/>
<use data-text="p" xlink:href="#font_7_19" transform="matrix(9.204544,0,0,-9.204968,302.73457,16.108704)" fill="#7f7f7f"/>
<use data-text="a" xlink:href="#font_7_9" transform="matrix(9.204544,0,0,-9.204968,307.8164,16.108704)" fill="#7f7f7f"/>
<use data-text="t" xlink:href="#font_7_22" transform="matrix(9.204544,0,0,-9.204968,312.89826,16.108704)" fill="#7f7f7f"/>
<use data-text="h" xlink:href="#font_7_13" transform="matrix(9.204544,0,0,-9.204968,315.4875,16.108704)" fill="#7f7f7f"/>
<path transform="matrix(-.00006039728,-0,0,.00006040006,209.7869,31.833893)" stroke-width="12700" stroke-linecap="butt" stroke-miterlimit="8" stroke-linejoin="miter" fill="none" stroke="#7f7f7f" d="M0 0 1 302506"/>
<path transform="matrix(1,0,0,-1,0,247)" d="M198.6648 212.4814H317.5568V229.35718H198.6648Z" fill="#ffffff"/>
<use data-text="C" xlink:href="#font_7_5" transform="matrix(9.204544,0,0,-9.204968,204.3477,29.916138)" fill="#e97132"/>
<use data-text="u" xlink:href="#font_7_23" transform="matrix(9.204544,0,0,-9.204968,210.96302,29.916138)" fill="#e97132"/>
<use data-text="r" xlink:href="#font_7_20" transform="matrix(9.204544,0,0,-9.204968,216.04483,29.916138)" fill="#e97132"/>
<use data-text="r" xlink:href="#font_7_20" transform="matrix(9.204544,0,0,-9.204968,219.11272,29.916138)" fill="#e97132"/>
<use data-text="e" xlink:href="#font_7_12" transform="matrix(9.204544,0,0,-9.204968,222.18059,29.916138)" fill="#e97132"/>
<use data-text="n" xlink:href="#font_7_17" transform="matrix(9.204544,0,0,-9.204968,227.26242,29.916138)" fill="#e97132"/>
<use data-text="t" xlink:href="#font_7_22" transform="matrix(9.204544,0,0,-9.204968,232.34424,29.916138)" fill="#e97132"/>
<use data-text=" " xlink:href="#font_7_1" transform="matrix(9.204544,0,0,-9.204968,234.93349,29.916138)" fill="#e97132"/>
<use data-text="(" xlink:href="#font_7_2" transform="matrix(9.204544,0,0,-9.204968,237.52274,29.916138)" fill="#e97132"/>
<use data-text="t" xlink:href="#font_7_22" transform="matrix(9.204544,0,0,-9.204968,240.5906,29.916138)" fill="#e97132"/>
<use data-text="o" xlink:href="#font_7_18" transform="matrix(9.204544,0,0,-9.204968,243.17984,29.916138)" fill="#e97132"/>
<use data-text="t" xlink:href="#font_7_22" transform="matrix(9.204544,0,0,-9.204968,248.26168,29.916138)" fill="#e97132"/>
<use data-text="a" xlink:href="#font_7_9" transform="matrix(9.204544,0,0,-9.204968,250.8509,29.916138)" fill="#e97132"/>
<use data-text="l" xlink:href="#font_7_15" transform="matrix(9.204544,0,0,-9.204968,255.93274,29.916138)" fill="#e97132"/>
<use data-text=")" xlink:href="#font_7_3" transform="matrix(9.204544,0,0,-9.204968,257.94578,29.916138)" fill="#e97132"/>
<use data-text=" " xlink:href="#font_7_1" transform="matrix(9.204544,0,0,-9.204968,261.01365,29.916138)" fill="#e97132"/>
<use data-text="s" xlink:href="#font_7_21" transform="matrix(9.204544,0,0,-9.204968,263.60289,29.916138)" fill="#e97132"/>
<use data-text="t" xlink:href="#font_7_22" transform="matrix(9.204544,0,0,-9.204968,268.20518,29.916138)" fill="#e97132"/>
<use data-text="r" xlink:href="#font_7_20" transform="matrix(9.204544,0,0,-9.204968,270.7944,29.916138)" fill="#e97132"/>
<use data-text="e" xlink:href="#font_7_12" transform="matrix(9.204544,0,0,-9.204968,273.86228,29.916138)" fill="#e97132"/>
<use data-text="s" xlink:href="#font_7_21" transform="matrix(9.204544,0,0,-9.204968,278.9441,29.916138)" fill="#e97132"/>
<use data-text="s" xlink:href="#font_7_21" transform="matrix(9.204544,0,0,-9.204968,283.5464,29.916138)" fill="#e97132"/>
<use data-text=" " xlink:href="#font_7_1" transform="matrix(9.204544,0,0,-9.204968,288.14866,29.916138)" fill="#e97132"/>
<use data-text="s" xlink:href="#font_7_21" transform="matrix(9.204544,0,0,-9.204968,290.73789,29.916138)" fill="#e97132"/>
<use data-text="t" xlink:href="#font_7_22" transform="matrix(9.204544,0,0,-9.204968,295.34016,29.916138)" fill="#e97132"/>
<use data-text="a" xlink:href="#font_7_9" transform="matrix(9.204544,0,0,-9.204968,297.92939,29.916138)" fill="#e97132"/>
<use data-text="t" xlink:href="#font_7_22" transform="matrix(9.204544,0,0,-9.204968,303.01124,29.916138)" fill="#e97132"/>
<use data-text="e" xlink:href="#font_7_12" transform="matrix(9.204544,0,0,-9.204968,305.60047,29.916138)" fill="#e97132"/>
<use data-text="C" xlink:href="#font_7_5" transform="matrix(9.204544,0,0,-9.204968,5.841806,95.88507)" fill="#e97132"/>
<use data-text="u" xlink:href="#font_7_23" transform="matrix(9.204544,0,0,-9.204968,12.457113,95.88507)" fill="#e97132"/>
<use data-text="r" xlink:href="#font_7_20" transform="matrix(9.204544,0,0,-9.204968,17.535262,95.88507)" fill="#e97132"/>
<use data-text="r" xlink:href="#font_7_20" transform="matrix(9.204544,0,0,-9.204968,20.606818,95.88507)" fill="#e97132"/>
<use data-text="e" xlink:href="#font_7_12" transform="matrix(9.204544,0,0,-9.204968,23.678376,95.88507)" fill="#e97132"/>
<use data-text="n" xlink:href="#font_7_17" transform="matrix(9.204544,0,0,-9.204968,28.756524,95.88507)" fill="#e97132"/>
<use data-text="t" xlink:href="#font_7_22" transform="matrix(9.204544,0,0,-9.204968,33.83467,95.88507)" fill="#e97132"/>
<use data-text=" " xlink:href="#font_7_1" transform="matrix(9.204544,0,0,-9.204968,36.42759,95.88507)" fill="#e97132"/>
<use data-text="d" xlink:href="#font_7_11" transform="matrix(9.204544,0,0,-9.204968,39.01652,95.88507)" fill="#e97132"/>
<use data-text="e" xlink:href="#font_7_12" transform="matrix(9.204544,0,0,-9.204968,44.09835,95.88507)" fill="#e97132"/>
<use data-text="v" xlink:href="#font_7_24" transform="matrix(9.204544,0,0,-9.204968,49.18018,95.88507)" fill="#e97132"/>
<use data-text="i" xlink:href="#font_7_14" transform="matrix(9.204544,0,0,-9.204968,53.78245,95.88507)" fill="#e97132"/>
<use data-text="a" xlink:href="#font_7_9" transform="matrix(9.204544,0,0,-9.204968,55.795488,95.88507)" fill="#e97132"/>
<use data-text="t" xlink:href="#font_7_22" transform="matrix(9.204544,0,0,-9.204968,60.877317,95.88507)" fill="#e97132"/>
<use data-text="o" xlink:href="#font_7_18" transform="matrix(9.204544,0,0,-9.204968,63.466554,95.88507)" fill="#e97132"/>
<use data-text="r" xlink:href="#font_7_20" transform="matrix(9.204544,0,0,-9.204968,68.548389,95.88507)" fill="#e97132"/>
<use data-text="i" xlink:href="#font_7_14" transform="matrix(9.204544,0,0,-9.204968,71.61626,95.88507)" fill="#e97132"/>
<use data-text="c" xlink:href="#font_7_10" transform="matrix(9.204544,0,0,-9.204968,73.62929,95.88507)" fill="#e97132"/>
<use data-text=" " xlink:href="#font_7_1" transform="matrix(9.204544,0,0,-9.204968,78.23157,95.88507)" fill="#e97132"/>
<use data-text="s" xlink:href="#font_7_21" transform="matrix(9.204544,0,0,-9.204968,80.82051,95.88507)" fill="#e97132"/>
<use data-text="t" xlink:href="#font_7_22" transform="matrix(9.204544,0,0,-9.204968,85.42278,95.88507)" fill="#e97132"/>
<use data-text="r" xlink:href="#font_7_20" transform="matrix(9.204544,0,0,-9.204968,88.012027,95.88507)" fill="#e97132"/>
<use data-text="e" xlink:href="#font_7_12" transform="matrix(9.204544,0,0,-9.204968,91.079898,95.88507)" fill="#e97132"/>
<use data-text="s" xlink:href="#font_7_21" transform="matrix(9.204544,0,0,-9.204968,96.16173,95.88507)" fill="#e97132"/>
<use data-text="s" xlink:href="#font_7_21" transform="matrix(9.204544,0,0,-9.204968,100.764,95.88507)" fill="#e97132"/>
<use data-text=":" xlink:href="#font_7_4" transform="matrix(9.204544,0,0,-9.204968,105.36627,95.88507)" fill="#e97132"/>
<use data-text=" " xlink:href="#font_7_1" transform="matrix(9.204544,0,0,-9.204968,107.95551,95.88507)" fill="#e97132"/>
<use data-text="q" xlink:href="#font_8_2" transform="matrix(9.204544,0,0,-9.204968,110.5435,95.88507)" fill="#e97132"/>
<path transform="matrix(-.00006039728,-0,0,.00006040006,210.8325,93.2003)" stroke-width="12700" stroke-linecap="butt" stroke-miterlimit="8" stroke-linejoin="miter" fill="none" stroke="#e97132" d="M0 0 1427011 1"/>
<path transform="matrix(1,0,0,-1,0,247)" d="M287.642 128.8696H405V145.74538H287.642Z" fill="#ffffff"/>
<use data-text="C" xlink:href="#font_7_5" transform="matrix(9.204544,0,0,-9.204968,293.5422,112.760898)" fill="#e97132"/>
<use data-text="u" xlink:href="#font_7_23" transform="matrix(9.204544,0,0,-9.204968,300.1575,112.760898)" fill="#e97132"/>
<use data-text="r" xlink:href="#font_7_20" transform="matrix(9.204544,0,0,-9.204968,305.23567,112.760898)" fill="#e97132"/>
<use data-text="r" xlink:href="#font_7_20" transform="matrix(9.204544,0,0,-9.204968,308.30723,112.760898)" fill="#e97132"/>
<use data-text="e" xlink:href="#font_7_12" transform="matrix(9.204544,0,0,-9.204968,311.37879,112.760898)" fill="#e97132"/>
<use data-text="n" xlink:href="#font_7_17" transform="matrix(9.204544,0,0,-9.204968,316.4569,112.760898)" fill="#e97132"/>
<use data-text="t" xlink:href="#font_7_22" transform="matrix(9.204544,0,0,-9.204968,321.53507,112.760898)" fill="#e97132"/>
<use data-text=" " xlink:href="#font_7_1" transform="matrix(9.204544,0,0,-9.204968,324.128,112.760898)" fill="#e97132"/>
<use data-text="i" xlink:href="#font_7_14" transform="matrix(9.204544,0,0,-9.204968,326.7169,112.760898)" fill="#e97132"/>
<use data-text="s" xlink:href="#font_7_21" transform="matrix(9.204544,0,0,-9.204968,328.72993,112.760898)" fill="#e97132"/>
<use data-text="o" xlink:href="#font_7_18" transform="matrix(9.204544,0,0,-9.204968,333.33219,112.760898)" fill="#e97132"/>
<use data-text="t" xlink:href="#font_7_22" transform="matrix(9.204544,0,0,-9.204968,338.41404,112.760898)" fill="#e97132"/>
<use data-text="r" xlink:href="#font_7_20" transform="matrix(9.204544,0,0,-9.204968,341.00328,112.760898)" fill="#e97132"/>
<use data-text="o" xlink:href="#font_7_18" transform="matrix(9.204544,0,0,-9.204968,344.07115,112.760898)" fill="#e97132"/>
<use data-text="p" xlink:href="#font_7_19" transform="matrix(9.204544,0,0,-9.204968,349.15296,112.760898)" fill="#e97132"/>
<use data-text="i" xlink:href="#font_7_14" transform="matrix(9.204544,0,0,-9.204968,354.2348,112.760898)" fill="#e97132"/>
<use data-text="c" xlink:href="#font_7_10" transform="matrix(9.204544,0,0,-9.204968,356.24784,112.760898)" fill="#e97132"/>
<use data-text=" " xlink:href="#font_7_1" transform="matrix(9.204544,0,0,-9.204968,360.8501,112.760898)" fill="#e97132"/>
<use data-text="s" xlink:href="#font_7_21" transform="matrix(9.204544,0,0,-9.204968,363.4392,112.760898)" fill="#e97132"/>
<use data-text="t" xlink:href="#font_7_22" transform="matrix(9.204544,0,0,-9.204968,368.04148,112.760898)" fill="#e97132"/>
<use data-text="r" xlink:href="#font_7_20" transform="matrix(9.204544,0,0,-9.204968,370.6307,112.760898)" fill="#e97132"/>
<use data-text="e" xlink:href="#font_7_12" transform="matrix(9.204544,0,0,-9.204968,373.6986,112.760898)" fill="#e97132"/>
<use data-text="s" xlink:href="#font_7_21" transform="matrix(9.204544,0,0,-9.204968,378.78044,112.760898)" fill="#e97132"/>
<use data-text="s" xlink:href="#font_7_21" transform="matrix(9.204544,0,0,-9.204968,383.3827,112.760898)" fill="#e97132"/>
<use data-text=":" xlink:href="#font_7_4" transform="matrix(9.204544,0,0,-9.204968,387.985,112.760898)" fill="#e97132"/>
<use data-text=" " xlink:href="#font_7_1" transform="matrix(9.204544,0,0,-9.204968,390.57423,112.760898)" fill="#e97132"/>
<use data-text="p" xlink:href="#font_8_1" transform="matrix(9.204544,0,0,-9.204968,393.1622,112.760898)" fill="#e97132"/>
<path transform="matrix(.00006039728,0,0,.00006040006,238.9347,100.104007)" stroke-width="12700" stroke-linecap="butt" stroke-miterlimit="8" stroke-linejoin="miter" fill="none" stroke="#e97132" d="M0 0 233694 160023"/>
<path transform="matrix(1,0,0,-1,0,247)" d="M212.4716 131.7661 212.4717 185.25H211.7046L211.7045 131.7661ZM209.7869 132.5332 212.0881 127.9307 214.3892 132.5332ZM214.3893 184.4829 212.0881 189.0854 209.787 184.4829Z" fill="#e97132"/>
<path transform="matrix(.00006039728,0,0,.00006040006,252.7415,110.076099)" stroke-width="12700" stroke-linecap="butt" stroke-miterlimit="8" stroke-linejoin="miter" fill="none" stroke="#e97132" d="M0 0 586567 1"/>
<path transform="matrix(1,0,0,-1,0,247)" d="M240.0852 194.8385H392.7272V210.9472H240.0852Z" fill="#ffffff"/>
<use data-text="D" xlink:href="#font_7_6" transform="matrix(9.204544,0,0,-9.204968,245.942,47.55899)" fill="#ff0000"/>
<use data-text="e" xlink:href="#font_7_12" transform="matrix(9.204544,0,0,-9.204968,252.55731,47.55899)" fill="#ff0000"/>
<use data-text="v" xlink:href="#font_7_24" transform="matrix(9.204544,0,0,-9.204968,257.63914,47.55899)" fill="#ff0000"/>
<use data-text="i" xlink:href="#font_7_14" transform="matrix(9.204544,0,0,-9.204968,262.2414,47.55899)" fill="#ff0000"/>
<use data-text="a" xlink:href="#font_7_9" transform="matrix(9.204544,0,0,-9.204968,264.25447,47.55899)" fill="#ff0000"/>
<use data-text="t" xlink:href="#font_7_22" transform="matrix(9.204544,0,0,-9.204968,269.33628,47.55899)" fill="#ff0000"/>
<use data-text="o" xlink:href="#font_7_18" transform="matrix(9.204544,0,0,-9.204968,271.9255,47.55899)" fill="#ff0000"/>
<use data-text="r" xlink:href="#font_7_20" transform="matrix(9.204544,0,0,-9.204968,277.00736,47.55899)" fill="#ff0000"/>
<use data-text="i" xlink:href="#font_7_14" transform="matrix(9.204544,0,0,-9.204968,280.07524,47.55899)" fill="#ff0000"/>
<use data-text="c" xlink:href="#font_7_10" transform="matrix(9.204544,0,0,-9.204968,282.08827,47.55899)" fill="#ff0000"/>
<use data-text=" " xlink:href="#font_7_1" transform="matrix(9.204544,0,0,-9.204968,286.69053,47.55899)" fill="#ff0000"/>
<use data-text="s" xlink:href="#font_7_21" transform="matrix(9.204544,0,0,-9.204968,289.27976,47.55899)" fill="#ff0000"/>
<use data-text="t" xlink:href="#font_7_22" transform="matrix(9.204544,0,0,-9.204968,293.88203,47.55899)" fill="#ff0000"/>
<use data-text="r" xlink:href="#font_7_20" transform="matrix(9.204544,0,0,-9.204968,296.47129,47.55899)" fill="#ff0000"/>
<use data-text="e" xlink:href="#font_7_12" transform="matrix(9.204544,0,0,-9.204968,299.53916,47.55899)" fill="#ff0000"/>
<use data-text="s" xlink:href="#font_7_21" transform="matrix(9.204544,0,0,-9.204968,304.62098,47.55899)" fill="#ff0000"/>
<use data-text="s" xlink:href="#font_7_21" transform="matrix(9.204544,0,0,-9.204968,309.22328,47.55899)" fill="#ff0000"/>
<use data-text=" " xlink:href="#font_7_1" transform="matrix(9.204544,0,0,-9.204968,313.82554,47.55899)" fill="#ff0000"/>
<use data-text="v" xlink:href="#font_7_24" transform="matrix(9.204544,0,0,-9.204968,316.41477,47.55899)" fill="#ff0000"/>
<use data-text="e" xlink:href="#font_7_12" transform="matrix(9.204544,0,0,-9.204968,321.01704,47.55899)" fill="#ff0000"/>
<use data-text="c" xlink:href="#font_7_10" transform="matrix(9.204544,0,0,-9.204968,326.09889,47.55899)" fill="#ff0000"/>
<use data-text="t" xlink:href="#font_7_22" transform="matrix(9.204544,0,0,-9.204968,330.70115,47.55899)" fill="#ff0000"/>
<use data-text="o" xlink:href="#font_7_18" transform="matrix(9.204544,0,0,-9.204968,333.29039,47.55899)" fill="#ff0000"/>
<use data-text="r" xlink:href="#font_7_20" transform="matrix(9.204544,0,0,-9.204968,338.3722,47.55899)" fill="#ff0000"/>
<use data-text=":" xlink:href="#font_7_4" transform="matrix(9.204544,0,0,-9.204968,341.44007,47.55899)" fill="#ff0000"/>
<use data-text=" " xlink:href="#font_7_1" transform="matrix(9.204544,0,0,-9.204968,344.0293,47.55899)" fill="#ff0000"/>
<use data-text="(" xlink:href="#font_9_3" transform="matrix(9.204544,0,0,-9.204968,346.6167,47.55899)" fill="#ff0000"/>
<use data-text="&quot;" xlink:href="#font_9_2" transform="matrix(9.204544,0,0,-9.204968,350.4519,47.55899)" fill="#ff0000"/>
<use data-text="1" xlink:href="#font_10_1" transform="matrix(6.9034087,0,0,-6.9037268,354.4444,49.86023)" fill="#ff0000"/>
<use data-text="," xlink:href="#font_9_1" transform="matrix(9.204544,0,0,-9.204968,358.5673,47.55899)" fill="#ff0000"/>
<use data-text="&quot;" xlink:href="#font_9_2" transform="matrix(9.204544,0,0,-9.204968,362.019,47.55899)" fill="#ff0000"/>
<use data-text="&quot;" xlink:href="#font_10_2" transform="matrix(6.9034087,0,0,-6.9037268,366.0115,49.86023)" fill="#ff0000"/>
<use data-text="," xlink:href="#font_9_1" transform="matrix(9.204544,0,0,-9.204968,370.3261,47.55899)" fill="#ff0000"/>
<use data-text="&quot;" xlink:href="#font_9_2" transform="matrix(9.204544,0,0,-9.204968,373.7778,47.55899)" fill="#ff0000"/>
<use data-text="#" xlink:href="#font_10_3" transform="matrix(6.9034087,0,0,-6.9037268,377.7703,49.86023)" fill="#ff0000"/>
<use data-text=")" xlink:href="#font_9_4" transform="matrix(9.204544,0,0,-9.204968,382.0849,47.55899)" fill="#ff0000"/>
<path transform="matrix(-.00006039728,-0,0,.00006040006,251.2686,51.777894)" stroke-width="12700" stroke-linecap="butt" stroke-miterlimit="8" stroke-linejoin="miter" fill="none" stroke="#ff0000" d="M0 0 318514 437914"/>
<path transform="matrix(1,0,0,-1,0,247)" d="M147.7135 65.38011 242.6171 149.4354 242.1085 150.0096 147.2049 65.95435ZM146.5077 67.89852 144.5881 63.12429 149.5591 64.45304ZM243.3144 147.4913 245.234 152.2655 240.263 150.9368Z" fill="#e97132"/>
</g>
</svg>
