<svg xmlns="http://www.w3.org/2000/svg" xmlns:xlink="http://www.w3.org/1999/xlink" xmlns:inkscape="http://www.inkscape.org/namespaces/inkscape" version="1.1" width="141" height="137" viewBox="0 0 141 137">
<defs>
<clipPath id="clip_1">
<path transform="matrix(1,0,0,-1,0,137)" d="M0 0H141V137H0Z"/>
</clipPath>
<clipPath id="clip_2">
<path transform="matrix(1,0,0,-1,0,137)" d="M0 .000001192093H141V137H0Z"/>
</clipPath>
<path id="font_3_3" d="M.01953125 0 .033691408 .068359378 .3125 .38232423C.33235679 .40445964 .3544922 .42740885 .37890626 .45117188 .33691407 .4469401 .30680339 .44482423 .28857423 .44482423H.095703128L.111328128 .5185547H.51220706L.5004883 .46289063 .21923828 .14697266C.20328777 .12906902 .17952474 .10449219 .14794922 .07324219 .19710286 .076171878 .23079427 .07763672 .24902344 .07763672H.453125L.43701173 0H.01953125Z"/>
<path id="font_3_1" d="M-.0014648438 0 .2241211 .2631836 .09472656 .5185547H.19238281L.23632813 .42626954C.25260417 .3917643 .2672526 .35872398 .28027345 .32714845L.4296875 .5185547H.53759768L.31982423 .25634767 .4506836 0H.35302735L.30126954 .10546875C.2902018 .12792969 .27766929 .15576172 .26367188 .18896485L.109375 0H-.0014648438Z"/>
<path id="font_3_2" d="M0-.20019531 .0053710939-.1171875C.02360026-.122395839 .041341146-.125 .05859375-.125 .0764974-.125 .09098307-.12093099 .10205078-.11279297 .116373699-.10205078 .1319987-.08186849 .14892578-.052246095L.1772461-.0014648438 .09082031 .5185547H.17773438L.21679688 .25634767C.22460938 .20458985 .23128255 .15283203 .2368164 .10107422L.46875 .5185547H.56103518L.23046875-.068847659C.1985677-.12613933 .17024739-.1640625 .14550781-.18261719 .12076823-.20117188 .092285159-.21044922 .060058595-.21044922 .03955078-.21044922 .01953125-.20703125 0-.20019531Z"/>
<path id="font_4_2" d="M.15625 .20019531C.16145833 .22395833 .16918946 .25520835 .17944336 .2939453 .18969727 .33268229 .20003255 .36735026 .21044922 .39794923L.20800781 .40234376H.16601563C.14453125 .40234376 .12801107 .40063478 .11645508 .3972168 .104899089 .39379884 .09358724 .38793946 .08251953 .37963868 .07145182 .3713379 .059895833 .359375 .047851564 .34375L.017089844 .3696289C.03466797 .3914388 .050048829 .40852867 .06323242 .42089845 .076416019 .43326823 .089029949 .44262696 .10107422 .4489746 .11311849 .45532228 .12613933 .45987956 .14013672 .46264649 .15413411 .46541343 .17252605 .46679688 .1953125 .46679688H.45117188L.43652345 .40234376H.2836914L.22851563 .15771485C.22135417 .1258138 .21777344 .10172526 .21777344 .08544922 .21777344 .07242838 .21988933 .06298828 .2241211 .057128908 .22835286 .05126953 .23502605 .048339845 .24414063 .048339845 .25520835 .048339845 .2672526 .052897138 .28027345 .06201172 .29329429 .071126308 .30810548 .08561198 .32470704 .10546875L.35302735 .07910156C.32503257 .047851564 .30004884 .025553385 .27807618 .012207031 .25610353-.0011393229 .2335612-.0078125 .21044922-.0078125 .18733724-.0078125 .16910808-.00016276042 .15576172 .015136719 .14241536 .030436198 .13574219 .05029297 .13574219 .07470703 .13574219 .09651693 .14029949 .12809246 .14941406 .1694336L.15625 .20019531Z"/>
<path id="font_5_3" d="M.44628907 .14697266 .41503907 0H.02734375L.014160156 .029296875C.045410158 .063802089 .07788086 .099609378 .111572269 .13671875 .14526367 .17382813 .1784668 .21028646 .21118164 .24609375 .24389649 .28190104 .27539063 .3161621 .30566407 .34887696 .3359375 .3815918 .36328126 .41097007 .3876953 .43701173 .38639323 .4383138 .38541667 .4391276 .38476563 .43945313H.25927735C.24495442 .43945313 .23274739 .4383138 .22265625 .43603517 .21256511 .4337565 .20328777 .42936198 .19482422 .42285157 .18636067 .41634117 .17805989 .40722657 .16992188 .3955078 .16178386 .38378907 .15234375 .3683268 .14160156 .3491211H.091796878L.12207031 .48828126H.5019531L.5136719 .45898438C.4921875 .43522135 .47176109 .41259767 .45239259 .39111329 .43302409 .3696289 .41381837 .34847007 .3947754 .32763673 .37573243 .30680339 .35668946 .28605143 .33764649 .26538087 .31860353 .24471028 .29882813 .2232259 .2783203 .20092774 .2578125 .17862956 .23632813 .15519206 .21386719 .13061524 .19140625 .106038417 .1673177 .079589847 .14160156 .05126953 .14290364 .04996745 .1438802 .049153646 .14453125 .048828126H.26464845C.27701823 .048828126 .2877604 .048909505 .296875 .049072267 .3059896 .049235029 .31396485 .050130208 .32080079 .051757814 .32763673 .053385419 .33390299 .056070966 .3395996 .059814454 .34529624 .063557948 .35091148 .0690918 .3564453 .076416019 .36197917 .083740238 .36783854 .09309896 .37402345 .10449219 .38020835 .115885417 .38753257 .13004558 .3959961 .14697266H.44628907Z"/>
<path id="font_5_2" d="M.2685547 .0029296876C.2578125 .06477865 .24837239 .118245448 .24023438 .16333008 .23209636 .20841472 .22469075 .24682617 .21801758 .27856446 .2113444 .31030274 .20524089 .33610026 .19970703 .35595704 .19417317 .3758138 .18880208 .39127604 .18359375 .40234376 .17838542 .41341148 .1730957 .42097984 .16772461 .42504884 .16235352 .42911784 .15657552 .43115235 .15039063 .43115235 .14453125 .43115235 .13916016 .43041993 .13427735 .42895509 .12939453 .42749024 .12434896 .42447917 .119140628 .41992188 .11393229 .4153646 .108317058 .40893556 .10229492 .40063478 .09627279 .39233399 .08886719 .3815104 .080078128 .36816407L.04248047 .39257813C.056477865 .41308595 .06933594 .43017579 .08105469 .44384767 .09277344 .45751954 .104410808 .4683431 .1159668 .47631837 .12752278 .4842936 .13932292 .48999024 .15136719 .4934082 .16341146 .49682618 .17659505 .49853517 .19091797 .49853517 .20263672 .49853517 .21272786 .49731446 .2211914 .49487306 .22965496 .49243165 .23730469 .48860679 .24414063 .48339845 .25097657 .4781901 .25708009 .47143556 .26245118 .46313478 .26782228 .45483399 .27327476 .44482423 .2788086 .43310548 .28173829 .425944 .28483073 .4156901 .28808595 .40234376 .29134117 .3889974 .29475913 .37353517 .29833985 .35595704 .30192057 .3383789 .3055013 .3190104 .30908204 .29785157 .31266276 .27669273 .3162435 .25455729 .31982423 .23144531 .32340495 .20833333 .3268229 .18465169 .33007813 .16040039 .33333335 .1361491 .33642579 .11230469 .33935548 .08886719 .36376954 .12076823 .3857422 .15307617 .40527345 .18579102 .4248047 .21850586 .44132487 .24943035 .45483399 .27856446 .4683431 .30769859 .47867839 .33422853 .48583985 .3581543 .4930013 .38208009 .49641929 .40120445 .49609376 .41552735 .49609376 .42985026 .49235026 .44010417 .48486329 .44628907 .4773763 .45247398 .46484376 .4560547 .44726563 .45703126L.45361329 .48828126H.59277346L.6098633 .45996095C.5773112 .37955729 .53930667 .30200196 .4958496 .22729492 .45239259 .15258789 .4033203 .080078128 .3486328 .009765625 .32486979-.018554688 .3034668-.04296875 .28442384-.06347656 .26538087-.083984378 .24780274-.10164388 .23168946-.11645508 .21557617-.13126628 .20060222-.14339192 .18676758-.15283203 .17293294-.16227214 .1595052-.1698405 .14648438-.17553711 .13346355-.18123372 .120524089-.18530274 .107666019-.18774414 .094807948-.19018555 .08138021-.19173177 .06738281-.19238281 .059895833-.19238281 .05086263-.19156902 .040283204-.1899414 .029703776-.1883138 .020345053-.18619792 .012207031-.18359375L.036621095-.076660159H.08105469V-.079589847C.08105469-.10172526 .09000651-.11279297 .107910159-.11279297 .13167317-.11279297 .15576172-.10359701 .18017578-.08520508 .20458985-.06681315 .23404949-.037434896 .2685547 .0029296876Z"/>
<path id="font_5_1" d="M.25830079 .23535156C.2524414 .2626953 .24731446 .28645835 .24291992 .30664063 .23852539 .3268229 .23445638 .3441569 .23071289 .35864259 .2269694 .37312828 .2233073 .38492839 .21972656 .39404298 .21614583 .40315757 .21248372 .4104004 .20874024 .41577149 .20499675 .42114259 .20092774 .42496745 .1965332 .4272461 .19213867 .42952476 .18701172 .4308268 .18115235 .43115235 .17561849 .43115235 .17049153 .43025718 .16577149 .4284668 .16105144 .42667643 .15616863 .4235026 .15112305 .4189453 .14607747 .41438804 .14054363 .40804038 .13452149 .39990235 .12849935 .3917643 .12158203 .3811849 .11376953 .36816407L.076171878 .39257813C.08951823 .4124349 .1015625 .42919923 .11230469 .4428711 .123046878 .45654298 .1336263 .4674479 .14404297 .47558595 .15445964 .48372398 .16544597 .48958335 .17700196 .49316407 .18855794 .49674479 .20182292 .49853517 .21679688 .49853517 .23470052 .49853517 .24934896 .4946289 .2607422 .4868164 .2721354 .4790039 .28157554 .4676107 .2890625 .45263673 .29654948 .43766276 .30273438 .41918946 .3076172 .3972168 .3125 .37524415 .31770835 .35009767 .3232422 .32177735H.32958985C.3491211 .3474935 .3660482 .36979167 .3803711 .38867188 .394694 .4075521 .4074707 .4235026 .41870118 .43652345 .42993165 .44954429 .4400228 .4601237 .4489746 .46826173 .45792643 .47639976 .46663413 .48266603 .47509767 .48706056 .4835612 .49145509 .4922689 .49446617 .5012207 .49609376 .51017257 .49772135 .5201823 .49853517 .53125 .49853517 .54752609 .49853517 .5623372 .49560548 .5756836 .4897461L.55126956 .3935547H.5107422C.5097656 .4075521 .5045573 .41455079 .4951172 .41455079 .49153648 .41455079 .48763023 .41389976 .48339845 .41259767 .47916667 .41129557 .4741211 .4086914 .46826173 .40478517 .46240235 .4008789 .4556478 .39542643 .44799806 .38842774 .4403483 .38142906 .4313151 .37231446 .42089845 .36108399 .41048179 .34985353 .39860026 .33610026 .3852539 .31982423 .37190757 .3035482 .35660807 .28434245 .33935548 .26220704 .34814454 .21728516 .3557129 .18131511 .36206056 .15429688 .3684082 .12727864 .37451173 .10660807 .3803711 .092285159 .38623048 .07796224 .39208985 .068603519 .39794923 .064208988 .4038086 .059814454 .41048179 .057617189 .41796876 .057617189 .4235026 .057617189 .42862956 .05826823 .4333496 .059570314 .43806968 .060872396 .44295249 .0637207 .44799806 .068115238 .4530436 .072509769 .45865885 .07885742 .46484376 .0871582 .47102867 .095458988 .47835288 .10644531 .4868164 .12011719L.5234375 .096191409C.50911459 .07470703 .49641929 .057128908 .48535157 .04345703 .47428385 .029785157 .46354167 .019042969 .453125 .011230469 .44270835 .0034179688 .43196617-.0018717448 .42089845-.004638672 .40983073-.007405599 .3971354-.0087890629 .3828125-.0087890629 .37044273-.0087890629 .359375-.007080078 .34960938-.0036621094 .33984376-.00024414063 .33138023 .0060221354 .32421876 .015136719 .31933595 .020670573 .31477867 .028076172 .31054688 .037353517 .3063151 .04663086 .30240885 .056640626 .29882813 .06738281 .2952474 .078125 .2919922 .089274089 .2890625 .10083008 .2861328 .11238607 .2836914 .12320963 .28173829 .13330078 .27978517 .14339192 .27823893 .15242513 .2770996 .16040039 .2759603 .16837566 .27522788 .1743164 .27490235 .17822266H.26953126C.25 .15218099 .23299153 .1294759 .21850586 .11010742 .20402019 .09073893 .19091797 .07413737 .17919922 .060302736 .16748047 .046468099 .15690105 .03507487 .14746094 .026123047 .13802083 .017171225 .12874349 .0100911459 .119628909 .0048828127 .11051432-.00032552085 .1011556-.00390625 .091552738-.005859375 .08194987-.0078125 .07128906-.0087890629 .059570314-.0087890629 .04264323-.0087890629 .028157553-.005859375 .016113282 0L.03857422 .095214847H.080078128C.08105469 .08089193 .08642578 .07373047 .096191409 .07373047 .09977213 .07405599 .103271488 .07470703 .10668945 .075683597 .11010742 .076660159 .114095058 .078694667 .118652347 .08178711 .12320963 .084879558 .12898763 .08976237 .13598633 .09643555 .14298503 .10310873 .15185547 .11238607 .16259766 .12426758 .17333985 .1361491 .18652344 .15104167 .20214844 .16894531 .21777344 .18684896 .23649089 .20898438 .25830079 .23535156Z"/>
<path id="font_4_1" d="M.5629883 .40234376H.4033203L.40234376 .3984375C.42089845 .3763021 .43424479 .3540039 .4423828 .33154298 .45052085 .30908204 .45458985 .28450523 .45458985 .2578125 .45458985 .20930989 .4441732 .16430664 .42333985 .122802738 .4025065 .08129883 .3733724 .049153646 .3359375 .026367188 .2985026 .0035807293 .2561849-.0078125 .20898438-.0078125 .15527344-.0078125 .114339198 .006591797 .08618164 .03540039 .05802409 .064208988 .043945314 .10498047 .043945314 .15771485 .043945314 .19384766 .049397787 .22810872 .060302736 .26049806 .07120768 .29288737 .08732096 .32267253 .10864258 .34985353 .12996419 .37703453 .15413411 .39908854 .18115235 .41601563 .20817058 .43294273 .24039714 .44563804 .27783204 .45410157 .31526695 .4625651 .363444 .46679688 .42236329 .46679688H.5776367L.5629883 .40234376M.34716798 .4008789C.3035482 .3995768 .2644857 .3869629 .22998047 .3630371 .19547527 .33911134 .16870117 .30696617 .1496582 .26660157 .13061524 .22623699 .12109375 .18147786 .12109375 .13232422 .12109375 .106933597 .12524414 .086507167 .13354492 .07104492 .1418457 .055582685 .15218099 .044921876 .16455078 .0390625 .17692058 .033203126 .19026692 .030273438 .20458985 .030273438 .23746746 .030273438 .26595054 .041015626 .29003907 .0625 .3141276 .083984378 .33357749 .11669922 .34838868 .16064453 .36319987 .20458985 .37060548 .24723308 .37060548 .28857423 .37060548 .33317057 .36279298 .37060548 .34716798 .4008789Z"/>
<path id="font_6_2" d="M.5629883 .40234376H.4033203L.40234376 .3984375C.42089845 .3763021 .43424479 .3540039 .4423828 .33154298 .45052085 .30908204 .45458985 .28450523 .45458985 .2578125 .45458985 .20930989 .4441732 .16430664 .42333985 .122802738 .4025065 .08129883 .3733724 .049153646 .3359375 .026367188 .2985026 .0035807293 .2561849-.0078125 .20898438-.0078125 .15527344-.0078125 .114339198 .006591797 .08618164 .03540039 .05802409 .064208988 .043945314 .10498047 .043945314 .15771485 .043945314 .19384766 .049397787 .22810872 .060302736 .26049806 .07120768 .29288737 .08732096 .32267253 .10864258 .34985353 .12996419 .37703453 .15413411 .39908854 .18115235 .41601563 .20817058 .43294273 .24039714 .44563804 .27783204 .45410157 .31526695 .4625651 .363444 .46679688 .42236329 .46679688H.5776367L.5629883 .40234376M.34716798 .4008789C.3035482 .3995768 .2644857 .3869629 .22998047 .3630371 .19547527 .33911134 .16870117 .30696617 .1496582 .26660157 .13061524 .22623699 .12109375 .18147786 .12109375 .13232422 .12109375 .106933597 .12524414 .086507167 .13354492 .07104492 .1418457 .055582685 .15218099 .044921876 .16455078 .0390625 .17692058 .033203126 .19026692 .030273438 .20458985 .030273438 .23746746 .030273438 .26595054 .041015626 .29003907 .0625 .3141276 .083984378 .33357749 .11669922 .34838868 .16064453 .36319987 .20458985 .37060548 .24723308 .37060548 .28857423 .37060548 .33317057 .36279298 .37060548 .34716798 .4008789Z"/>
<path id="font_7_1" d="M.30371095 .6904297 .27978517 .5854492H.18310547L.20605469 .6904297H.30371095M.18603516 .16845703C.18147786 .1492513 .17830403 .13395183 .17651367 .122558597 .17472331 .11116537 .17382813 .10091146 .17382813 .091796878 .17382813 .079427089 .1763509 .07047526 .18139649 .064941409 .18644206 .05940755 .19401042 .056640626 .20410156 .056640626 .20996094 .056640626 .21582031 .05777995 .22167969 .060058595 .22753906 .06233724 .23380535 .06591797 .24047852 .07080078 .24715169 .075683597 .25447593 .08194987 .26245118 .08959961 .27042643 .09724935 .27929688 .10644531 .2890625 .1171875L.32226563 .08496094C.30533854 .067708339 .28995768 .053141279 .27612306 .041259767 .26228843 .029378256 .2491862 .01969401 .2368164 .012207031 .22444661 .0047200524 .21232097-.0006510417 .20043946-.00390625 .18855794-.0071614587 .17594402-.0087890629 .16259766-.0087890629 .15022786-.0087890629 .13907878-.0065104167 .12915039-.001953125 .11922201 .0026041668 .110677089 .008870442 .103515628 .016845704 .096354167 .024820963 .09082031 .03434245 .08691406 .045410158 .08300781 .056477865 .08105469 .0686849 .08105469 .08203125 .08105469 .09277344 .08235677 .10611979 .08496094 .12207031 .0875651 .13802083 .090901698 .15535482 .0949707 .17407227 .09903971 .19278972 .103515628 .21240235 .10839844 .23291016 .11328125 .25341798 .11808268 .27376304 .122802738 .2939453 .12752278 .3141276 .13175456 .33357749 .13549805 .35229493 .13924153 .37101237 .14192708 .38802085 .14355469 .4033203 .14420574 .40592448 .14453125 .40844728 .14453125 .41088868 .14453125 .41333009 .14453125 .41552735 .14453125 .41748048 .1438802 .43017579 .1394043 .43945313 .13110352 .4453125 .122802738 .45117188 .108072917 .4544271 .08691406 .45507813L.09277344 .48828126 .234375 .49365235H.25830079L.18603516 .16845703Z"/>
<path id="font_7_2" d="M.43408204 .6904297 .41015626 .5854492H.31201173L.3359375 .6904297H.43408204M.2861328 .015136719C.27799479-.021972657 .26749674-.053792318 .25463868-.080322269 .2417806-.10685221 .22607422-.12858074 .20751953-.14550781 .18896485-.16243489 .1673177-.17488607 .14257813-.18286133 .11783854-.1908366 .08951823-.19482422 .057617189-.19482422 .049153646-.19482422 .041015626-.19441732 .033203126-.19360352 .025390625-.19278972 .018391928-.19156902 .012207031-.1899414L.024414063-.13867188C.028320313-.14029949 .033528646-.14135742 .040039064-.1418457 .04654948-.14233399 .054036458-.14257813 .0625-.14257813 .07845052-.14257813 .092692058-.14046224 .10522461-.13623047 .117757167-.1319987 .12898763-.12434896 .13891602-.11328125 .1488444-.10221354 .15779622-.086995448 .16577149-.06762695 .17374675-.048258466 .18115235-.0234375 .18798828 .0068359377 .19938152 .059570314 .21028646 .10904948 .22070313 .15527344 .2311198 .20149739 .23966472 .24023438 .24633789 .27148438 .25301109 .30273438 .25830079 .32763673 .26220704 .3461914 .26611329 .3647461 .26896159 .379069 .27075196 .38916017 .27254234 .3992513 .27360026 .40641276 .27392579 .41064454 .2742513 .4148763 .27441407 .41829429 .27441407 .42089845 .27441407 .43229167 .27010093 .44067384 .2614746 .44604493 .2528483 .45141603 .2376302 .4544271 .21582031 .45507813L.22314453 .48828126 .3540039 .49365235H.3876953L.2861328 .015136719Z"/>
<path id="font_6_1" d="M.1508789 .11328125C.1554362 .09049479 .15771485 .06803385 .15771485 .045898439 .15771485 .023111979 .1538086 .0022786458 .1459961-.016601563 .1381836-.03548177 .12573242-.054280599 .10864258-.07299805 .091552738-.09171549 .06803385-.11230469 .038085939-.13476563L.01171875-.10498047C.028320313-.08935547 .040364583-.075276698 .047851564-.06274414 .055338544-.05021159 .060709638-.03597005 .063964847-.020019532 .067220058-.0040690104 .068847659 .015950522 .068847659 .040039064 .068847659 .06477865 .067708339 .08919271 .06542969 .11328125H.1508789Z"/>
<path id="font_6_3" d="M.15625 .20019531C.16145833 .22395833 .16918946 .25520835 .17944336 .2939453 .18969727 .33268229 .20003255 .36735026 .21044922 .39794923L.20800781 .40234376H.16601563C.14453125 .40234376 .12801107 .40063478 .11645508 .3972168 .104899089 .39379884 .09358724 .38793946 .08251953 .37963868 .07145182 .3713379 .059895833 .359375 .047851564 .34375L.017089844 .3696289C.03466797 .3914388 .050048829 .40852867 .06323242 .42089845 .076416019 .43326823 .089029949 .44262696 .10107422 .4489746 .11311849 .45532228 .12613933 .45987956 .14013672 .46264649 .15413411 .46541343 .17252605 .46679688 .1953125 .46679688H.45117188L.43652345 .40234376H.2836914L.22851563 .15771485C.22135417 .1258138 .21777344 .10172526 .21777344 .08544922 .21777344 .07242838 .21988933 .06298828 .2241211 .057128908 .22835286 .05126953 .23502605 .048339845 .24414063 .048339845 .25520835 .048339845 .2672526 .052897138 .28027345 .06201172 .29329429 .071126308 .30810548 .08561198 .32470704 .10546875L.35302735 .07910156C.32503257 .047851564 .30004884 .025553385 .27807618 .012207031 .25610353-.0011393229 .2335612-.0078125 .21044922-.0078125 .18733724-.0078125 .16910808-.00016276042 .15576172 .015136719 .14241536 .030436198 .13574219 .05029297 .13574219 .07470703 .13574219 .09651693 .14029949 .12809246 .14941406 .1694336L.15625 .20019531Z"/>
<path id="font_8_3" d="M.09033203 .41845704V.5185547H.19042969V.41845704H.09033203M.09033203 0V.100097659H.19042969V0H.09033203Z"/>
<path id="font_8_1" d="M0 0Z"/>
<path id="font_9_2" d="M.1586914 .61572268 .1796875 .7158203H.26708985L.24609375 .61572268H.1586914M-.12109375-.19482422-.10546875-.119628909C-.08528646-.12516277-.06738281-.12792969-.051757814-.12792969-.032877607-.12792969-.017822266-.121663417-.006591797-.10913086 .004638672-.096598308 .016276041-.061848958 .028320313-.0048828127L.13720703 .5185547H.22558594L.11328125-.020996094C.09928385-.088378909 .08317057-.13427735 .064941409-.1586914 .040527345-.19124349 .0065104167-.20751953-.037109376-.20751953-.060221357-.20751953-.08821615-.20328777-.12109375-.19482422Z"/>
<path id="font_8_2" d="M.03173828 .21484375V.30322267H.3017578V.21484375H.03173828Z"/>
<path id="font_8_6" d="M.40234376 0V.06542969C.36946617 .0139973959 .3211263-.01171875 .25732423-.01171875 .21598308-.01171875 .17797852-.00032552085 .14331055 .022460938 .10864258 .045247396 .08178711 .077067058 .06274414 .11791992 .043701173 .15877278 .034179689 .20572917 .034179689 .25878907 .034179689 .31054688 .04280599 .35750328 .060058595 .3996582 .077311199 .44181315 .1031901 .4741211 .13769531 .49658204 .17220052 .51904299 .21077474 .53027346 .25341798 .53027346 .28466798 .53027346 .3125 .52368167 .33691407 .51049807 .36132813 .49731446 .3811849 .48014323 .39648438 .45898438V.7158203H.48388673V0H.40234376M.12451172 .25878907C.12451172 .19238281 .13850911 .14274089 .1665039 .10986328 .1944987 .07698568 .22753906 .060546876 .265625 .060546876 .30403648 .060546876 .33666993 .07625326 .3635254 .107666019 .39038087 .13907878 .4038086 .18701172 .4038086 .25146485 .4038086 .32242839 .39013673 .37451173 .36279298 .40771485 .33544923 .44091798 .3017578 .45751954 .26171876 .45751954 .22265625 .45751954 .19002278 .441569 .16381836 .40966798 .13761394 .37776695 .12451172 .32747398 .12451172 .25878907Z"/>
<path id="font_8_9" d="M.06640625 .6147461V.7158203H.15429688V.6147461H.06640625M.06640625 0V.5185547H.15429688V0H.06640625Z"/>
<path id="font_8_14" d="M.064941409 0V.5185547H.14404297V.4399414C.16422527 .47672526 .18286133 .50097659 .19995117 .5126953 .21704102 .52441409 .23583985 .53027346 .25634767 .53027346 .28597007 .53027346 .31608073 .5208333 .3466797 .5019531L.31640626 .42041017C.29492188 .43310548 .2734375 .43945313 .25195313 .43945313 .23274739 .43945313 .2154948 .43367515 .20019531 .42211915 .18489583 .41056315 .17399089 .39453126 .16748047 .37402345 .15771485 .34277345 .15283203 .30859376 .15283203 .27148438V0H.064941409Z"/>
<path id="font_8_7" d="M.42089845 .16699219 .51171877 .15576172C.49739585 .10270182 .47086589 .061523439 .4321289 .032226564 .39339195 .0029296876 .34391276-.01171875 .2836914-.01171875 .20784505-.01171875 .14770508 .01163737 .103271488 .05834961 .05883789 .10506185 .036621095 .17057292 .036621095 .2548828 .036621095 .3421224 .05908203 .40983073 .104003909 .4580078 .14892578 .5061849 .20719402 .53027346 .2788086 .53027346 .34814454 .53027346 .40478517 .50667318 .44873048 .45947267 .49267579 .41227214 .51464846 .34586589 .51464846 .2602539 .51464846 .25504557 .51448568 .24723308 .51416018 .2368164H.1274414C.13069661 .17985027 .14680989 .13623047 .17578125 .10595703 .20475261 .075683597 .24088542 .060546876 .2841797 .060546876 .31640626 .060546876 .34391276 .069010417 .36669923 .0859375 .3894857 .102864589 .4075521 .12988281 .42089845 .16699219M.13232422 .30908204H.421875C.41796876 .3527018 .40690104 .38541667 .38867188 .40722657 .3606771 .44108073 .3243815 .4580078 .27978517 .4580078 .23942058 .4580078 .20548503 .4444987 .17797852 .41748048 .150472 .39046226 .1352539 .35432945 .13232422 .30908204Z"/>
<path id="font_8_5" d="M.40429688 .1899414 .49072267 .17871094C.48128257 .119140628 .45711265 .072509769 .4182129 .03881836 .37931315 .005126953 .33154298-.01171875 .27490235-.01171875 .2039388-.01171875 .14689128 .011474609 .103759769 .057861329 .060628255 .10424805 .0390625 .17073567 .0390625 .25732423 .0390625 .3133138 .048339845 .3623047 .06689453 .40429688 .08544922 .44628907 .11368815 .4777832 .15161133 .4987793 .1895345 .5197754 .23079427 .53027346 .27539063 .53027346 .33170573 .53027346 .37776695 .5160319 .41357423 .48754884 .4493815 .45906578 .47233073 .41861979 .48242188 .36621095L.39697267 .35302735C.38883464 .38785807 .37443034 .4140625 .35375978 .43164063 .3330892 .44921876 .30810548 .4580078 .2788086 .4580078 .23453777 .4580078 .1985677 .44213868 .17089844 .4104004 .14322917 .3786621 .12939453 .32845054 .12939453 .25976563 .12939453 .19010417 .14274089 .13948567 .1694336 .107910159 .1961263 .07633463 .23095703 .060546876 .27392579 .060546876 .308431 .060546876 .3372396 .071126308 .36035157 .092285159 .38346354 .11344401 .39811198 .1459961 .40429688 .1899414Z"/>
<path id="font_8_15" d="M.2578125 .07861328 .2705078 .0009765625C.24576824-.004231771 .22363281-.0068359377 .20410156-.0068359377 .17220052-.0068359377 .14746094-.0017903646 .12988281 .008300781 .11230469 .018391928 .0999349 .031656904 .09277344 .048095704 .08561198 .06453451 .08203125 .099121097 .08203125 .15185547V.4501953H.017578125V.5185547H.08203125V.64697268L.1694336 .69970706V.5185547H.2578125V.4501953H.1694336V.14697266C.1694336 .121907558 .17097982 .10579427 .17407227 .09863281 .17716472 .09147135 .18221028 .08577474 .18920899 .08154297 .19620769 .077311199 .20621746 .07519531 .21923828 .07519531 .2290039 .07519531 .24186199 .07633463 .2578125 .07861328Z"/>
<path id="font_8_12" d="M.033203126 .25927735C.033203126 .355306 .059895833 .42643229 .11328125 .47265626 .15787761 .5110677 .21223958 .53027346 .2763672 .53027346 .34765626 .53027346 .40592448 .5069173 .45117188 .46020509 .49641929 .41349284 .51904299 .34895835 .51904299 .26660157 .51904299 .1998698 .5090332 .14737956 .48901368 .10913086 .46899415 .070882167 .43986003 .041178388 .40161134 .020019532 .36336265-.0011393229 .3216146-.01171875 .2763672-.01171875 .20377605-.01171875 .1451009 .011555989 .1003418 .05810547 .055582685 .104654949 .033203126 .17171224 .033203126 .25927735M.123535159 .25927735C.123535159 .1928711 .13802083 .14314778 .16699219 .11010742 .19596355 .077067058 .23242188 .060546876 .2763672 .060546876 .31998698 .060546876 .35628257 .07714844 .3852539 .11035156 .41422526 .14355469 .42871095 .19417317 .42871095 .26220704 .42871095 .32633464 .4141439 .3749186 .38500978 .40795899 .35587565 .44099937 .31966148 .45751954 .2763672 .45751954 .23242188 .45751954 .19596355 .44108073 .16699219 .40820313 .13802083 .37532554 .123535159 .3256836 .123535159 .25927735Z"/>
<path id="font_8_11" d="M.06591797 0V.5185547H.14501953V.44482423C.18310547 .50179037 .23811849 .53027346 .3100586 .53027346 .3413086 .53027346 .3700358 .5246582 .39624024 .51342776 .42244468 .50219729 .44205729 .48746745 .45507813 .46923829 .46809898 .45100913 .47721354 .42936198 .48242188 .40429688 .4856771 .38802085 .4873047 .35953776 .4873047 .31884767V0H.39941407V.3154297C.39941407 .35123698 .3959961 .37801109 .38916017 .39575196 .38232423 .41349284 .37019859 .42765299 .3527832 .43823243 .33536784 .44881187 .3149414 .45410157 .2915039 .45410157 .254069 .45410157 .22176107 .44222007 .19458008 .41845704 .1673991 .394694 .1538086 .34960938 .1538086 .28320313V0H.06591797Z"/>
<path id="font_8_8" d="M.08691406 0V.4501953H.009277344V.5185547H.08691406V.57373049C.08691406 .6085612 .09000651 .6344401 .096191409 .6513672 .104654949 .6741536 .11954752 .69262698 .14086914 .7067871 .16219075 .72094729 .1920573 .72802737 .23046875 .72802737 .25520835 .72802737 .2825521 .72509768 .3125 .7192383L.2993164 .6425781C.28108726 .6458333 .26383464 .64746096 .2475586 .64746096 .22086589 .64746096 .20198567 .64176437 .19091797 .6303711 .17985027 .61897787 .1743164 .59765627 .1743164 .56640627V.5185547H.27539063V.4501953H.1743164V0H.08691406Z"/>
<path id="font_9_1" d="M.1586914 .61572268 .1796875 .7158203H.26757813L.24658203 .61572268H.1586914M.029785157 0 .1381836 .5185547H.2265625L.11816406 0H.029785157Z"/>
<path id="font_8_13" d="M.06591797-.19873047V.5185547H.1459961V.45117188C.1648763 .47753907 .18619792 .49731446 .20996094 .51049807 .23372396 .52368167 .26253257 .53027346 .29638673 .53027346 .34065757 .53027346 .37972007 .5188802 .41357423 .49609376 .44742839 .47330729 .47298179 .4411621 .49023438 .3996582 .507487 .3581543 .5161133 .31266276 .5161133 .2631836 .5161133 .2101237 .5065918 .16235352 .48754884 .11987305 .46850587 .07739258 .44083659 .044840497 .40454103 .022216797 .36824546-.00040690104 .33007813-.01171875 .29003907-.01171875 .2607422-.01171875 .23445638-.005533854 .21118164 .0068359377 .1879069 .019205729 .16878255 .03483073 .1538086 .053710939V-.19873047H.06591797M.14550781 .25634767C.14550781 .18961589 .15901692 .14029949 .18603516 .10839844 .21305339 .0764974 .24576824 .060546876 .2841797 .060546876 .3232422 .060546876 .35668946 .077067058 .38452149 .11010742 .41235353 .14314778 .42626954 .19433594 .42626954 .26367188 .42626954 .3297526 .41267906 .37923179 .38549806 .41210938 .35831706 .44498698 .32584635 .46142579 .28808595 .46142579 .25065104 .46142579 .2175293 .44392906 .1887207 .40893556 .15991211 .37394206 .14550781 .32307945 .14550781 .25634767Z"/>
<path id="font_8_10" d="M.063964847 0V.7158203H.15185547V0H.063964847Z"/>
<path id="font_8_4" d="M.40429688 .063964847C.37174479 .036295576 .34041343 .016764323 .31030274 .0053710939 .28019206-.0060221354 .24788411-.01171875 .2133789-.01171875 .15641277-.01171875 .11263021 .0021972657 .08203125 .030029297 .051432294 .057861329 .036132814 .09342448 .036132814 .13671875 .036132814 .16210938 .04191081 .18530274 .053466798 .20629883 .06502279 .22729492 .08015951 .24414063 .09887695 .25683595 .1175944 .26953126 .13867188 .27913413 .16210938 .28564454 .17936199 .2902018 .20540364 .29459635 .24023438 .29882813 .3111979 .30729167 .363444 .3173828 .39697267 .32910157 .3972982 .34114585 .39746095 .34879557 .39746095 .35205079 .39746095 .38785807 .38916017 .41308595 .3725586 .42773438 .35009767 .44759117 .31673179 .45751954 .27246095 .45751954 .2311198 .45751954 .20060222 .4502767 .1809082 .43579103 .16121419 .42130534 .14664714 .39567057 .13720703 .35888673L.05126953 .37060548C.05908203 .4073893 .0719401 .4370931 .08984375 .4597168 .1077474 .48234049 .1336263 .49975587 .16748047 .5119629 .20133464 .5241699 .24055989 .53027346 .28515626 .53027346 .3294271 .53027346 .36539714 .5250651 .3930664 .51464846 .4207357 .50423178 .44108073 .49112956 .45410157 .4753418 .4671224 .45955406 .47623698 .43961589 .4814453 .41552735 .484375 .40055339 .48583985 .37353517 .48583985 .33447267V.21728516C.48583985 .13557942 .48771159 .08390299 .49145509 .06225586 .49519859 .040608724 .5026042 .019856772 .5136719 0H.421875C.4127604 .018229166 .40690104 .03955078 .40429688 .063964847M.39697267 .2602539C.36507163 .24723308 .31722007 .23616536 .25341798 .22705078 .21728516 .22184246 .19173177 .21598308 .17675781 .20947266 .16178386 .20296224 .15022786 .19344075 .14208985 .1809082 .13395183 .16837566 .12988281 .15445964 .12988281 .13916016 .12988281 .115722659 .13875325 .096191409 .15649414 .080566409 .17423503 .064941409 .20019531 .057128908 .234375 .057128908 .26822917 .057128908 .29833985 .06453451 .32470704 .0793457 .35107423 .0941569 .37044273 .11442057 .3828125 .14013672 .3922526 .15999349 .39697267 .18929036 .39697267 .22802735V.2602539Z"/>
</defs>
<g clip-path="url(#clip_1)">
<path transform="matrix(1,0,0,-1,0,137)" d="M0 137H141V0H0Z" fill="#ffffff"/>
</g>
<g clip-path="url(#clip_2)">
<path transform="matrix(1,0,0,-1,0,137)" d="M44.75726 41.14444 44.75731 113.8739H44.17225L44.1722 41.14444ZM46.21997 113.2885 44.46478 116.8013 42.70959 113.2885Z"/>
<path transform="matrix(1,0,0,-1,0,137)" d="M44.19091 41.19336 17.9889 15.84161 18.39557 15.4207 44.59758 40.77245ZM17.39283 17.30084 16.08921 13.59637 19.8329 14.77542Z"/>
<path transform="matrix(1,0,0,-1,0,137)" d="M44.46473 41.27564 109.1956 41.2756V40.69012L44.46473 40.69017ZM108.6106 42.73928 112.121 40.98286 108.6106 39.22646Z"/>
<path transform="matrix(1,0,0,-1,0,137)" d="M24.57262 21.36966H84.24897V81.08761H24.57262Z" fill="#aeaeae" fill-opacity=".4314"/>
<path transform="matrix(1,0,0,-1,0,137)" d="M84.24897 81.08761 104.1411 100.9936V41.27564L84.24897 21.36966Z" fill="#8c8c8c" fill-opacity=".4314" fill-rule="evenodd"/>
<path transform="matrix(1,0,0,-1,0,137)" d="M24.57262 81.08761 44.46473 100.9936H104.1411L84.24897 81.08761Z" fill="#bebebe" fill-opacity=".4314" fill-rule="evenodd"/>
<path transform="matrix(.0000460679,0,0,.00004610001,24.57262,36.0064)" stroke-width="12700" stroke-linecap="butt" stroke-dasharray="38100,12700" stroke-miterlimit="8" stroke-linejoin="miter" fill="none" stroke="#aeaeae" d="M0 431800 431800 0H1727200V1295400L1295400 1727200H0ZM0 431800H1295400L1727200 0M1295400 431800V1727200"/>
<use data-text="z" xlink:href="#font_3_3" transform="matrix(10.531119,0,0,-10.538461,41.81597,13.75856)"/>
<use data-text="x" xlink:href="#font_3_1" transform="matrix(10.531119,0,0,-10.538461,117.9482,100.11542)"/>
<use data-text="y" xlink:href="#font_3_2" transform="matrix(10.531119,0,0,-10.538461,6.598812,128.21791)"/>
<path transform="matrix(1,0,0,-1,0,137)" d="M63.47926 91.0406V90.45513H62.89419V91.0406ZM63.47926 89.86966V89.28419H62.89419V89.86966ZM63.47926 88.69872V88.11325H62.89419V88.69872ZM63.47926 87.52778V86.94231H62.89419V87.52778ZM63.47926 86.35684V85.77137H62.89419V86.35684ZM63.47926 85.1859V84.60043H62.89419V85.1859ZM63.47926 84.01496V83.42949H62.89419V84.01496ZM63.47926 82.84402V82.25855H62.89419V82.84402ZM63.47926 81.67308V81.08761H62.89419V81.67308ZM63.47926 80.50214V79.91667H62.89419V80.50214ZM63.47926 79.3312 63.47931 78.74573H62.89425L62.89419 79.3312ZM63.47931 78.16026V77.57479H62.89425V78.16026ZM63.47931 76.98932V76.95419H62.89425V76.98932ZM64.35691 77.53966 63.18678 71.68496 62.01666 77.53966Z" fill="#7f7f7f"/>
<path transform="matrix(1,0,0,-1,0,137)" d="M62.69984 90.94757 59.83642 87.8759 60.26422 87.47655 63.12763 90.54816ZM59.5938 88.90311 56.45851 83.82322 61.30505 87.30559Z"/>
<path transform="matrix(1,0,0,-1,0,137)" d="M63.19094 90.61321 67.30954 90.67234 67.30112 91.25775 63.18251 91.19862ZM66.73712 89.78582 72.57036 91.0406 66.70353 92.12747Z"/>
<use data-text="!" xlink:href="#font_4_2" transform="matrix(8.190871,0,0,-8.19658,47.47294,46.25215)"/>
<use data-text="!" xlink:href="#font_5_3" transform="matrix(5.850622,0,0,-5.8547,51.20271,48.00856)"/>
<use data-text="&quot;" xlink:href="#font_5_2" transform="matrix(5.850622,0,0,-5.8547,54.34742,48.00856)"/>
<use data-text="!" xlink:href="#font_4_2" transform="matrix(8.190871,0,0,-8.19658,66.84056,42.153856)"/>
<use data-text="!" xlink:href="#font_5_3" transform="matrix(5.850622,0,0,-5.8547,70.57033,43.61754)"/>
<use data-text="#" xlink:href="#font_5_1" transform="matrix(5.850622,0,0,-5.8547,73.715038,43.61754)"/>
<use data-text="&quot;" xlink:href="#font_4_1" transform="matrix(8.190871,0,0,-8.19658,53.51926,61.767107)" fill="#7f7f7f"/>
<use data-text="!" xlink:href="#font_5_3" transform="matrix(5.850622,0,0,-5.8547,57.78729,63.523515)" fill="#7f7f7f"/>
<path transform="matrix(1,0,0,-1,0,137)" d="M54.99585 52.45208 54.99588 57.6688 54.41081 57.66881 54.41079 52.45208ZM55.87346 57.08333 54.70337 62.93803 53.53321 57.08334Z"/>
<path transform="matrix(1,0,0,-1,0,137)" d="M54.70752 51.97217 58.82614 52.03129 58.81771 52.6167 54.69913 52.55758ZM58.2537 51.14478 64.08696 52.39958 58.22013 53.48642Z"/>
<path transform="matrix(1,0,0,-1,0,137)" d="M54.90718 52.29012 55.32678 52.69812 54.91906 53.11802 54.49946 52.71001ZM55.74638 53.10612 56.16598 53.51412 55.75827 53.93401 55.33866 53.52601ZM56.58558 53.92212 57.00518 54.33012 56.59747 54.75001 56.17787 54.34202ZM57.42479 54.73812 57.84439 55.14612 57.43667 55.56602 57.01707 55.15802ZM58.26399 55.55412 58.68362 55.96212 58.27588 56.38202 57.85628 55.97401ZM59.10317 56.37013 59.52277 56.77812 59.1151 57.19802 58.69549 56.79002ZM59.94238 57.18613 60.36199 57.59413 59.95426 58.01402 59.53471 57.60602ZM60.78159 58.00212 60.96238 58.17788 60.55465 58.59777 60.37386 58.42202ZM61.15434 57.14003 64.53488 62.05983 59.52347 58.8196Z" fill="#7f7f7f"/>
<path transform="matrix(1,0,0,-1,0,137)" d="M94.65769 61.11383 90.74017 57.84803 91.11467 57.39819 95.03213 60.66395ZM90.62796 58.89753 86.88175 54.25049 92.12589 57.09818Z"/>
<path transform="matrix(1,0,0,-1,0,137)" d="M94.78009 60.35594V65.57265H94.19502V60.35594ZM95.65768 64.98718 94.48761 70.84188 93.31743 64.98718Z"/>
<path transform="matrix(1,0,0,-1,0,137)" d="M94.92963 60.88889H94.34457V60.30342H94.92963ZM93.7595 60.88889H93.17444V60.30342H93.7595ZM92.58938 60.88889H92.00432V60.30342H92.58938ZM91.41926 60.88889H90.83419V60.30342H91.41926ZM90.24913 60.88889H89.66407V60.30342H90.24913ZM89.07901 60.88889H88.49394V60.30342H89.07901ZM87.90888 60.88889H87.32382V60.30342H87.90888ZM86.73876 60.88889H86.15369V60.30342H86.73876ZM85.56863 60.88889H84.98357V60.30342H85.56863ZM84.39851 60.88889 83.81345 60.88883V60.30336L84.39851 60.30342ZM83.95644 61.76704 78.10581 60.5961 83.95644 59.42516Z" fill="#7f7f7f"/>
<use data-text="&quot;" xlink:href="#font_4_1" transform="matrix(8.190871,0,0,-8.19658,63.26103,81.087619)" fill="#7f7f7f"/>
<use data-text="&quot;" xlink:href="#font_5_2" transform="matrix(5.850622,0,0,-5.8547,67.52912,82.551288)" fill="#7f7f7f"/>
<use data-text="&quot;" xlink:href="#font_4_1" transform="matrix(8.190871,0,0,-8.19658,75.02253,71.72009)" fill="#7f7f7f"/>
<use data-text="#" xlink:href="#font_5_1" transform="matrix(5.850622,0,0,-5.8547,79.29056,73.18378)" fill="#7f7f7f"/>
<use data-text="!" xlink:href="#font_4_2" transform="matrix(8.190871,0,0,-8.19658,91.89942,64.9872)"/>
<use data-text="#" xlink:href="#font_5_1" transform="matrix(5.850622,0,0,-5.8547,95.62919,66.74361)"/>
<use data-text="!" xlink:href="#font_5_3" transform="matrix(5.850622,0,0,-5.8547,99.139568,66.74361)"/>
<use data-text="!" xlink:href="#font_4_2" transform="matrix(8.190871,0,0,-8.19658,87.36594,87.820529)"/>
<use data-text="#" xlink:href="#font_5_1" transform="matrix(5.850622,0,0,-5.8547,91.09572,89.576938)"/>
<use data-text="&quot;" xlink:href="#font_5_2" transform="matrix(5.850622,0,0,-5.8547,94.606098,89.576938)"/>
<use data-text="!" xlink:href="#font_4_2" transform="matrix(8.190871,0,0,-8.19658,55.53764,91.91881)"/>
<use data-text="&quot;" xlink:href="#font_5_2" transform="matrix(5.850622,0,0,-5.8547,59.26739,93.67522)"/>
<use data-text="#" xlink:href="#font_5_1" transform="matrix(5.850622,0,0,-5.8547,63.070299,93.67522)"/>
<use data-text="!" xlink:href="#font_4_2" transform="matrix(8.190871,0,0,-8.19658,47.39889,69.963687)"/>
<use data-text="&quot;" xlink:href="#font_5_2" transform="matrix(5.850622,0,0,-5.8547,51.12866,71.72009)"/>
<use data-text="!" xlink:href="#font_5_3" transform="matrix(5.850622,0,0,-5.8547,54.931566,71.72009)"/>
<use data-text="!" xlink:href="#font_6_2" transform="matrix(7.020746,0,0,-7.0256407,32.07265,127.04701)"/>
<use data-text="!" xlink:href="#font_7_1" transform="matrix(5.2655599,0,0,-5.2692306,35.68834,128.5107)"/>
<use data-text="&quot;" xlink:href="#font_7_2" transform="matrix(5.2655599,0,0,-5.2692306,37.51654,128.5107)"/>
<use data-text="," xlink:href="#font_6_1" transform="matrix(7.020746,0,0,-7.0256407,40.39809,127.04701)"/>
<use data-text="#" xlink:href="#font_6_3" transform="matrix(7.020746,0,0,-7.0256407,43.03087,127.04701)"/>
<use data-text="!" xlink:href="#font_7_1" transform="matrix(5.2655599,0,0,-5.2692306,46.24871,128.5107)"/>
<use data-text="&quot;" xlink:href="#font_7_2" transform="matrix(5.2655599,0,0,-5.2692306,48.076913,128.5107)"/>
<use data-text=":" xlink:href="#font_8_3" transform="matrix(7.020746,0,0,-7.0256407,50.95846,127.04701)"/>
<use data-text=" " xlink:href="#font_8_1" transform="matrix(7.020746,0,0,-7.0256407,52.9334,127.04701)"/>
<use data-text="j" xlink:href="#font_9_2" transform="matrix(7.020746,0,0,-7.0256407,54.90763,127.04701)"/>
<use data-text="-" xlink:href="#font_8_2" transform="matrix(7.020746,0,0,-7.0256407,56.44342,127.04701)"/>
<use data-text="d" xlink:href="#font_8_6" transform="matrix(7.020746,0,0,-7.0256407,58.78366,127.04701)"/>
<use data-text="i" xlink:href="#font_8_9" transform="matrix(7.020746,0,0,-7.0256407,62.659818,127.04701)"/>
<use data-text="r" xlink:href="#font_8_14" transform="matrix(7.020746,0,0,-7.0256407,64.19525,127.04701)"/>
<use data-text="e" xlink:href="#font_8_7" transform="matrix(7.020746,0,0,-7.0256407,66.53527,127.04701)"/>
<use data-text="c" xlink:href="#font_8_5" transform="matrix(7.020746,0,0,-7.0256407,70.41142,127.04701)"/>
<use data-text="t" xlink:href="#font_8_15" transform="matrix(7.020746,0,0,-7.0256407,73.9218,127.04701)"/>
<use data-text="i" xlink:href="#font_8_9" transform="matrix(7.020746,0,0,-7.0256407,75.89673,127.04701)"/>
<use data-text="o" xlink:href="#font_8_12" transform="matrix(7.020746,0,0,-7.0256407,77.43217,127.04701)"/>
<use data-text="n" xlink:href="#font_8_11" transform="matrix(7.020746,0,0,-7.0256407,81.30832,127.04701)"/>
<use data-text=" " xlink:href="#font_8_1" transform="matrix(7.020746,0,0,-7.0256407,85.18448,127.04701)"/>
<use data-text="f" xlink:href="#font_8_8" transform="matrix(7.020746,0,0,-7.0256407,87.15942,127.04701)"/>
<use data-text="o" xlink:href="#font_8_12" transform="matrix(7.020746,0,0,-7.0256407,89.13435,127.04701)"/>
<use data-text="r" xlink:href="#font_8_14" transform="matrix(7.020746,0,0,-7.0256407,93.01051,127.04701)"/>
<use data-text="c" xlink:href="#font_8_5" transform="matrix(7.020746,0,0,-7.0256407,95.350528,127.04701)"/>
<use data-text="e" xlink:href="#font_8_7" transform="matrix(7.020746,0,0,-7.0256407,98.86089,127.04701)"/>
<use data-text=" " xlink:href="#font_8_1" transform="matrix(7.020746,0,0,-7.0256407,102.737049,127.04701)"/>
<use data-text="o" xlink:href="#font_8_12" transform="matrix(7.020746,0,0,-7.0256407,104.71198,127.04701)"/>
<use data-text="n" xlink:href="#font_8_11" transform="matrix(7.020746,0,0,-7.0256407,108.588138,127.04701)"/>
<use data-text=" " xlink:href="#font_8_1" transform="matrix(7.020746,0,0,-7.0256407,112.46429,127.04701)"/>
<use data-text="i" xlink:href="#font_9_1" transform="matrix(7.020746,0,0,-7.0256407,114.4377,127.04701)"/>
<use data-text="-" xlink:href="#font_8_2" transform="matrix(7.020746,0,0,-7.0256407,115.9735,127.04701)"/>
<use data-text="p" xlink:href="#font_8_13" transform="matrix(7.020746,0,0,-7.0256407,118.3137,127.04701)"/>
<use data-text="l" xlink:href="#font_8_10" transform="matrix(7.020746,0,0,-7.0256407,122.18985,127.04701)"/>
<use data-text="a" xlink:href="#font_8_4" transform="matrix(7.020746,0,0,-7.0256407,123.728099,127.04701)"/>
<use data-text="n" xlink:href="#font_8_11" transform="matrix(7.020746,0,0,-7.0256407,127.604259,127.04701)"/>
<use data-text="e" xlink:href="#font_8_7" transform="matrix(7.020746,0,0,-7.0256407,131.48041,127.04701)"/>
</g>
</svg>
