<svg xmlns="http://www.w3.org/2000/svg" xmlns:xlink="http://www.w3.org/1999/xlink" xmlns:inkscape="http://www.inkscape.org/namespaces/inkscape" version="1.1" width="357" height="187" viewBox="0 0 357 187">
<defs>
<clipPath id="clip_1">
<path transform="matrix(1,0,0,-1,0,187)" d="M0 0H357V187H0Z"/>
</clipPath>
<clipPath id="clip_2">
<path transform="matrix(1,0,0,-1,0,187)" d="M0 0H357V187H0Z"/>
</clipPath>
<path id="font_3_3" d="M.01953125 0 .033691408 .068359378 .3125 .38232423C.33235679 .40445964 .3544922 .42740885 .37890626 .45117188 .33691407 .4469401 .30680339 .44482423 .28857423 .44482423H.095703128L.111328128 .5185547H.51220706L.5004883 .46289063 .21923828 .14697266C.20328777 .12906902 .17952474 .10449219 .14794922 .07324219 .19710286 .076171878 .23079427 .07763672 .24902344 .07763672H.453125L.43701173 0H.01953125Z"/>
<path id="font_3_1" d="M-.0014648438 0 .2241211 .2631836 .09472656 .5185547H.19238281L.23632813 .42626954C.25260417 .3917643 .2672526 .35872398 .28027345 .32714845L.4296875 .5185547H.53759768L.31982423 .25634767 .4506836 0H.35302735L.30126954 .10546875C.2902018 .12792969 .27766929 .15576172 .26367188 .18896485L.109375 0H-.0014648438Z"/>
<path id="font_3_2" d="M0-.20019531 .0053710939-.1171875C.02360026-.122395839 .041341146-.125 .05859375-.125 .0764974-.125 .09098307-.12093099 .10205078-.11279297 .116373699-.10205078 .1319987-.08186849 .14892578-.052246095L.1772461-.0014648438 .09082031 .5185547H.17773438L.21679688 .25634767C.22460938 .20458985 .23128255 .15283203 .2368164 .10107422L.46875 .5185547H.56103518L.23046875-.068847659C.1985677-.12613933 .17024739-.1640625 .14550781-.18261719 .12076823-.20117188 .092285159-.21044922 .060058595-.21044922 .03955078-.21044922 .01953125-.20703125 0-.20019531Z"/>
<path id="font_4_2" d="M.15625 .20019531C.16145833 .22395833 .16918946 .25520835 .17944336 .2939453 .18969727 .33268229 .20003255 .36735026 .21044922 .39794923L.20800781 .40234376H.16601563C.14453125 .40234376 .12801107 .40063478 .11645508 .3972168 .104899089 .39379884 .09358724 .38793946 .08251953 .37963868 .07145182 .3713379 .059895833 .359375 .047851564 .34375L.017089844 .3696289C.03466797 .3914388 .050048829 .40852867 .06323242 .42089845 .076416019 .43326823 .089029949 .44262696 .10107422 .4489746 .11311849 .45532228 .12613933 .45987956 .14013672 .46264649 .15413411 .46541343 .17252605 .46679688 .1953125 .46679688H.45117188L.43652345 .40234376H.2836914L.22851563 .15771485C.22135417 .1258138 .21777344 .10172526 .21777344 .08544922 .21777344 .07242838 .21988933 .06298828 .2241211 .057128908 .22835286 .05126953 .23502605 .048339845 .24414063 .048339845 .25520835 .048339845 .2672526 .052897138 .28027345 .06201172 .29329429 .071126308 .30810548 .08561198 .32470704 .10546875L.35302735 .07910156C.32503257 .047851564 .30004884 .025553385 .27807618 .012207031 .25610353-.0011393229 .2335612-.0078125 .21044922-.0078125 .18733724-.0078125 .16910808-.00016276042 .15576172 .015136719 .14241536 .030436198 .13574219 .05029297 .13574219 .07470703 .13574219 .09651693 .14029949 .12809246 .14941406 .1694336L.15625 .20019531Z"/>
<path id="font_5_6" d="M.44628907 .14697266 .41503907 0H.02734375L.014160156 .029296875C.045410158 .063802089 .07788086 .099609378 .111572269 .13671875 .14526367 .17382813 .1784668 .21028646 .21118164 .24609375 .24389649 .28190104 .27539063 .3161621 .30566407 .34887696 .3359375 .3815918 .36328126 .41097007 .3876953 .43701173 .38639323 .4383138 .38541667 .4391276 .38476563 .43945313H.25927735C.24495442 .43945313 .23274739 .4383138 .22265625 .43603517 .21256511 .4337565 .20328777 .42936198 .19482422 .42285157 .18636067 .41634117 .17805989 .40722657 .16992188 .3955078 .16178386 .38378907 .15234375 .3683268 .14160156 .3491211H.091796878L.12207031 .48828126H.5019531L.5136719 .45898438C.4921875 .43522135 .47176109 .41259767 .45239259 .39111329 .43302409 .3696289 .41381837 .34847007 .3947754 .32763673 .37573243 .30680339 .35668946 .28605143 .33764649 .26538087 .31860353 .24471028 .29882813 .2232259 .2783203 .20092774 .2578125 .17862956 .23632813 .15519206 .21386719 .13061524 .19140625 .106038417 .1673177 .079589847 .14160156 .05126953 .14290364 .04996745 .1438802 .049153646 .14453125 .048828126H.26464845C.27701823 .048828126 .2877604 .048909505 .296875 .049072267 .3059896 .049235029 .31396485 .050130208 .32080079 .051757814 .32763673 .053385419 .33390299 .056070966 .3395996 .059814454 .34529624 .063557948 .35091148 .0690918 .3564453 .076416019 .36197917 .083740238 .36783854 .09309896 .37402345 .10449219 .38020835 .115885417 .38753257 .13004558 .3959961 .14697266H.44628907Z"/>
<path id="font_5_5" d="M.2685547 .0029296876C.2578125 .06477865 .24837239 .118245448 .24023438 .16333008 .23209636 .20841472 .22469075 .24682617 .21801758 .27856446 .2113444 .31030274 .20524089 .33610026 .19970703 .35595704 .19417317 .3758138 .18880208 .39127604 .18359375 .40234376 .17838542 .41341148 .1730957 .42097984 .16772461 .42504884 .16235352 .42911784 .15657552 .43115235 .15039063 .43115235 .14453125 .43115235 .13916016 .43041993 .13427735 .42895509 .12939453 .42749024 .12434896 .42447917 .119140628 .41992188 .11393229 .4153646 .108317058 .40893556 .10229492 .40063478 .09627279 .39233399 .08886719 .3815104 .080078128 .36816407L.04248047 .39257813C.056477865 .41308595 .06933594 .43017579 .08105469 .44384767 .09277344 .45751954 .104410808 .4683431 .1159668 .47631837 .12752278 .4842936 .13932292 .48999024 .15136719 .4934082 .16341146 .49682618 .17659505 .49853517 .19091797 .49853517 .20263672 .49853517 .21272786 .49731446 .2211914 .49487306 .22965496 .49243165 .23730469 .48860679 .24414063 .48339845 .25097657 .4781901 .25708009 .47143556 .26245118 .46313478 .26782228 .45483399 .27327476 .44482423 .2788086 .43310548 .28173829 .425944 .28483073 .4156901 .28808595 .40234376 .29134117 .3889974 .29475913 .37353517 .29833985 .35595704 .30192057 .3383789 .3055013 .3190104 .30908204 .29785157 .31266276 .27669273 .3162435 .25455729 .31982423 .23144531 .32340495 .20833333 .3268229 .18465169 .33007813 .16040039 .33333335 .1361491 .33642579 .11230469 .33935548 .08886719 .36376954 .12076823 .3857422 .15307617 .40527345 .18579102 .4248047 .21850586 .44132487 .24943035 .45483399 .27856446 .4683431 .30769859 .47867839 .33422853 .48583985 .3581543 .4930013 .38208009 .49641929 .40120445 .49609376 .41552735 .49609376 .42985026 .49235026 .44010417 .48486329 .44628907 .4773763 .45247398 .46484376 .4560547 .44726563 .45703126L.45361329 .48828126H.59277346L.6098633 .45996095C.5773112 .37955729 .53930667 .30200196 .4958496 .22729492 .45239259 .15258789 .4033203 .080078128 .3486328 .009765625 .32486979-.018554688 .3034668-.04296875 .28442384-.06347656 .26538087-.083984378 .24780274-.10164388 .23168946-.11645508 .21557617-.13126628 .20060222-.14339192 .18676758-.15283203 .17293294-.16227214 .1595052-.1698405 .14648438-.17553711 .13346355-.18123372 .120524089-.18530274 .107666019-.18774414 .094807948-.19018555 .08138021-.19173177 .06738281-.19238281 .059895833-.19238281 .05086263-.19156902 .040283204-.1899414 .029703776-.1883138 .020345053-.18619792 .012207031-.18359375L.036621095-.076660159H.08105469V-.079589847C.08105469-.10172526 .09000651-.11279297 .107910159-.11279297 .13167317-.11279297 .15576172-.10359701 .18017578-.08520508 .20458985-.06681315 .23404949-.037434896 .2685547 .0029296876Z"/>
<path id="font_5_4" d="M.25830079 .23535156C.2524414 .2626953 .24731446 .28645835 .24291992 .30664063 .23852539 .3268229 .23445638 .3441569 .23071289 .35864259 .2269694 .37312828 .2233073 .38492839 .21972656 .39404298 .21614583 .40315757 .21248372 .4104004 .20874024 .41577149 .20499675 .42114259 .20092774 .42496745 .1965332 .4272461 .19213867 .42952476 .18701172 .4308268 .18115235 .43115235 .17561849 .43115235 .17049153 .43025718 .16577149 .4284668 .16105144 .42667643 .15616863 .4235026 .15112305 .4189453 .14607747 .41438804 .14054363 .40804038 .13452149 .39990235 .12849935 .3917643 .12158203 .3811849 .11376953 .36816407L.076171878 .39257813C.08951823 .4124349 .1015625 .42919923 .11230469 .4428711 .123046878 .45654298 .1336263 .4674479 .14404297 .47558595 .15445964 .48372398 .16544597 .48958335 .17700196 .49316407 .18855794 .49674479 .20182292 .49853517 .21679688 .49853517 .23470052 .49853517 .24934896 .4946289 .2607422 .4868164 .2721354 .4790039 .28157554 .4676107 .2890625 .45263673 .29654948 .43766276 .30273438 .41918946 .3076172 .3972168 .3125 .37524415 .31770835 .35009767 .3232422 .32177735H.32958985C.3491211 .3474935 .3660482 .36979167 .3803711 .38867188 .394694 .4075521 .4074707 .4235026 .41870118 .43652345 .42993165 .44954429 .4400228 .4601237 .4489746 .46826173 .45792643 .47639976 .46663413 .48266603 .47509767 .48706056 .4835612 .49145509 .4922689 .49446617 .5012207 .49609376 .51017257 .49772135 .5201823 .49853517 .53125 .49853517 .54752609 .49853517 .5623372 .49560548 .5756836 .4897461L.55126956 .3935547H.5107422C.5097656 .4075521 .5045573 .41455079 .4951172 .41455079 .49153648 .41455079 .48763023 .41389976 .48339845 .41259767 .47916667 .41129557 .4741211 .4086914 .46826173 .40478517 .46240235 .4008789 .4556478 .39542643 .44799806 .38842774 .4403483 .38142906 .4313151 .37231446 .42089845 .36108399 .41048179 .34985353 .39860026 .33610026 .3852539 .31982423 .37190757 .3035482 .35660807 .28434245 .33935548 .26220704 .34814454 .21728516 .3557129 .18131511 .36206056 .15429688 .3684082 .12727864 .37451173 .10660807 .3803711 .092285159 .38623048 .07796224 .39208985 .068603519 .39794923 .064208988 .4038086 .059814454 .41048179 .057617189 .41796876 .057617189 .4235026 .057617189 .42862956 .05826823 .4333496 .059570314 .43806968 .060872396 .44295249 .0637207 .44799806 .068115238 .4530436 .072509769 .45865885 .07885742 .46484376 .0871582 .47102867 .095458988 .47835288 .10644531 .4868164 .12011719L.5234375 .096191409C.50911459 .07470703 .49641929 .057128908 .48535157 .04345703 .47428385 .029785157 .46354167 .019042969 .453125 .011230469 .44270835 .0034179688 .43196617-.0018717448 .42089845-.004638672 .40983073-.007405599 .3971354-.0087890629 .3828125-.0087890629 .37044273-.0087890629 .359375-.007080078 .34960938-.0036621094 .33984376-.00024414063 .33138023 .0060221354 .32421876 .015136719 .31933595 .020670573 .31477867 .028076172 .31054688 .037353517 .3063151 .04663086 .30240885 .056640626 .29882813 .06738281 .2952474 .078125 .2919922 .089274089 .2890625 .10083008 .2861328 .11238607 .2836914 .12320963 .28173829 .13330078 .27978517 .14339192 .27823893 .15242513 .2770996 .16040039 .2759603 .16837566 .27522788 .1743164 .27490235 .17822266H.26953126C.25 .15218099 .23299153 .1294759 .21850586 .11010742 .20402019 .09073893 .19091797 .07413737 .17919922 .060302736 .16748047 .046468099 .15690105 .03507487 .14746094 .026123047 .13802083 .017171225 .12874349 .0100911459 .119628909 .0048828127 .11051432-.00032552085 .1011556-.00390625 .091552738-.005859375 .08194987-.0078125 .07128906-.0087890629 .059570314-.0087890629 .04264323-.0087890629 .028157553-.005859375 .016113282 0L.03857422 .095214847H.080078128C.08105469 .08089193 .08642578 .07373047 .096191409 .07373047 .09977213 .07405599 .103271488 .07470703 .10668945 .075683597 .11010742 .076660159 .114095058 .078694667 .118652347 .08178711 .12320963 .084879558 .12898763 .08976237 .13598633 .09643555 .14298503 .10310873 .15185547 .11238607 .16259766 .12426758 .17333985 .1361491 .18652344 .15104167 .20214844 .16894531 .21777344 .18684896 .23649089 .20898438 .25830079 .23535156Z"/>
<path id="font_4_1" d="M.5629883 .40234376H.4033203L.40234376 .3984375C.42089845 .3763021 .43424479 .3540039 .4423828 .33154298 .45052085 .30908204 .45458985 .28450523 .45458985 .2578125 .45458985 .20930989 .4441732 .16430664 .42333985 .122802738 .4025065 .08129883 .3733724 .049153646 .3359375 .026367188 .2985026 .0035807293 .2561849-.0078125 .20898438-.0078125 .15527344-.0078125 .114339198 .006591797 .08618164 .03540039 .05802409 .064208988 .043945314 .10498047 .043945314 .15771485 .043945314 .19384766 .049397787 .22810872 .060302736 .26049806 .07120768 .29288737 .08732096 .32267253 .10864258 .34985353 .12996419 .37703453 .15413411 .39908854 .18115235 .41601563 .20817058 .43294273 .24039714 .44563804 .27783204 .45410157 .31526695 .4625651 .363444 .46679688 .42236329 .46679688H.5776367L.5629883 .40234376M.34716798 .4008789C.3035482 .3995768 .2644857 .3869629 .22998047 .3630371 .19547527 .33911134 .16870117 .30696617 .1496582 .26660157 .13061524 .22623699 .12109375 .18147786 .12109375 .13232422 .12109375 .106933597 .12524414 .086507167 .13354492 .07104492 .1418457 .055582685 .15218099 .044921876 .16455078 .0390625 .17692058 .033203126 .19026692 .030273438 .20458985 .030273438 .23746746 .030273438 .26595054 .041015626 .29003907 .0625 .3141276 .083984378 .33357749 .11669922 .34838868 .16064453 .36319987 .20458985 .37060548 .24723308 .37060548 .28857423 .37060548 .33317057 .36279298 .37060548 .34716798 .4008789Z"/>
<path id="font_6_2" d="M.5629883 .40234376H.4033203L.40234376 .3984375C.42089845 .3763021 .43424479 .3540039 .4423828 .33154298 .45052085 .30908204 .45458985 .28450523 .45458985 .2578125 .45458985 .20930989 .4441732 .16430664 .42333985 .122802738 .4025065 .08129883 .3733724 .049153646 .3359375 .026367188 .2985026 .0035807293 .2561849-.0078125 .20898438-.0078125 .15527344-.0078125 .114339198 .006591797 .08618164 .03540039 .05802409 .064208988 .043945314 .10498047 .043945314 .15771485 .043945314 .19384766 .049397787 .22810872 .060302736 .26049806 .07120768 .29288737 .08732096 .32267253 .10864258 .34985353 .12996419 .37703453 .15413411 .39908854 .18115235 .41601563 .20817058 .43294273 .24039714 .44563804 .27783204 .45410157 .31526695 .4625651 .363444 .46679688 .42236329 .46679688H.5776367L.5629883 .40234376M.34716798 .4008789C.3035482 .3995768 .2644857 .3869629 .22998047 .3630371 .19547527 .33911134 .16870117 .30696617 .1496582 .26660157 .13061524 .22623699 .12109375 .18147786 .12109375 .13232422 .12109375 .106933597 .12524414 .086507167 .13354492 .07104492 .1418457 .055582685 .15218099 .044921876 .16455078 .0390625 .17692058 .033203126 .19026692 .030273438 .20458985 .030273438 .23746746 .030273438 .26595054 .041015626 .29003907 .0625 .3141276 .083984378 .33357749 .11669922 .34838868 .16064453 .36319987 .20458985 .37060548 .24723308 .37060548 .28857423 .37060548 .33317057 .36279298 .37060548 .34716798 .4008789Z"/>
<path id="font_7_1" d="M.30371095 .6904297 .27978517 .5854492H.18310547L.20605469 .6904297H.30371095M.18603516 .16845703C.18147786 .1492513 .17830403 .13395183 .17651367 .122558597 .17472331 .11116537 .17382813 .10091146 .17382813 .091796878 .17382813 .079427089 .1763509 .07047526 .18139649 .064941409 .18644206 .05940755 .19401042 .056640626 .20410156 .056640626 .20996094 .056640626 .21582031 .05777995 .22167969 .060058595 .22753906 .06233724 .23380535 .06591797 .24047852 .07080078 .24715169 .075683597 .25447593 .08194987 .26245118 .08959961 .27042643 .09724935 .27929688 .10644531 .2890625 .1171875L.32226563 .08496094C.30533854 .067708339 .28995768 .053141279 .27612306 .041259767 .26228843 .029378256 .2491862 .01969401 .2368164 .012207031 .22444661 .0047200524 .21232097-.0006510417 .20043946-.00390625 .18855794-.0071614587 .17594402-.0087890629 .16259766-.0087890629 .15022786-.0087890629 .13907878-.0065104167 .12915039-.001953125 .11922201 .0026041668 .110677089 .008870442 .103515628 .016845704 .096354167 .024820963 .09082031 .03434245 .08691406 .045410158 .08300781 .056477865 .08105469 .0686849 .08105469 .08203125 .08105469 .09277344 .08235677 .10611979 .08496094 .12207031 .0875651 .13802083 .090901698 .15535482 .0949707 .17407227 .09903971 .19278972 .103515628 .21240235 .10839844 .23291016 .11328125 .25341798 .11808268 .27376304 .122802738 .2939453 .12752278 .3141276 .13175456 .33357749 .13549805 .35229493 .13924153 .37101237 .14192708 .38802085 .14355469 .4033203 .14420574 .40592448 .14453125 .40844728 .14453125 .41088868 .14453125 .41333009 .14453125 .41552735 .14453125 .41748048 .1438802 .43017579 .1394043 .43945313 .13110352 .4453125 .122802738 .45117188 .108072917 .4544271 .08691406 .45507813L.09277344 .48828126 .234375 .49365235H.25830079L.18603516 .16845703Z"/>
<path id="font_7_2" d="M.43408204 .6904297 .41015626 .5854492H.31201173L.3359375 .6904297H.43408204M.2861328 .015136719C.27799479-.021972657 .26749674-.053792318 .25463868-.080322269 .2417806-.10685221 .22607422-.12858074 .20751953-.14550781 .18896485-.16243489 .1673177-.17488607 .14257813-.18286133 .11783854-.1908366 .08951823-.19482422 .057617189-.19482422 .049153646-.19482422 .041015626-.19441732 .033203126-.19360352 .025390625-.19278972 .018391928-.19156902 .012207031-.1899414L.024414063-.13867188C.028320313-.14029949 .033528646-.14135742 .040039064-.1418457 .04654948-.14233399 .054036458-.14257813 .0625-.14257813 .07845052-.14257813 .092692058-.14046224 .10522461-.13623047 .117757167-.1319987 .12898763-.12434896 .13891602-.11328125 .1488444-.10221354 .15779622-.086995448 .16577149-.06762695 .17374675-.048258466 .18115235-.0234375 .18798828 .0068359377 .19938152 .059570314 .21028646 .10904948 .22070313 .15527344 .2311198 .20149739 .23966472 .24023438 .24633789 .27148438 .25301109 .30273438 .25830079 .32763673 .26220704 .3461914 .26611329 .3647461 .26896159 .379069 .27075196 .38916017 .27254234 .3992513 .27360026 .40641276 .27392579 .41064454 .2742513 .4148763 .27441407 .41829429 .27441407 .42089845 .27441407 .43229167 .27010093 .44067384 .2614746 .44604493 .2528483 .45141603 .2376302 .4544271 .21582031 .45507813L.22314453 .48828126 .3540039 .49365235H.3876953L.2861328 .015136719Z"/>
<path id="font_6_1" d="M.1508789 .11328125C.1554362 .09049479 .15771485 .06803385 .15771485 .045898439 .15771485 .023111979 .1538086 .0022786458 .1459961-.016601563 .1381836-.03548177 .12573242-.054280599 .10864258-.07299805 .091552738-.09171549 .06803385-.11230469 .038085939-.13476563L.01171875-.10498047C.028320313-.08935547 .040364583-.075276698 .047851564-.06274414 .055338544-.05021159 .060709638-.03597005 .063964847-.020019532 .067220058-.0040690104 .068847659 .015950522 .068847659 .040039064 .068847659 .06477865 .067708339 .08919271 .06542969 .11328125H.1508789Z"/>
<path id="font_6_3" d="M.15625 .20019531C.16145833 .22395833 .16918946 .25520835 .17944336 .2939453 .18969727 .33268229 .20003255 .36735026 .21044922 .39794923L.20800781 .40234376H.16601563C.14453125 .40234376 .12801107 .40063478 .11645508 .3972168 .104899089 .39379884 .09358724 .38793946 .08251953 .37963868 .07145182 .3713379 .059895833 .359375 .047851564 .34375L.017089844 .3696289C.03466797 .3914388 .050048829 .40852867 .06323242 .42089845 .076416019 .43326823 .089029949 .44262696 .10107422 .4489746 .11311849 .45532228 .12613933 .45987956 .14013672 .46264649 .15413411 .46541343 .17252605 .46679688 .1953125 .46679688H.45117188L.43652345 .40234376H.2836914L.22851563 .15771485C.22135417 .1258138 .21777344 .10172526 .21777344 .08544922 .21777344 .07242838 .21988933 .06298828 .2241211 .057128908 .22835286 .05126953 .23502605 .048339845 .24414063 .048339845 .25520835 .048339845 .2672526 .052897138 .28027345 .06201172 .29329429 .071126308 .30810548 .08561198 .32470704 .10546875L.35302735 .07910156C.32503257 .047851564 .30004884 .025553385 .27807618 .012207031 .25610353-.0011393229 .2335612-.0078125 .21044922-.0078125 .18733724-.0078125 .16910808-.00016276042 .15576172 .015136719 .14241536 .030436198 .13574219 .05029297 .13574219 .07470703 .13574219 .09651693 .14029949 .12809246 .14941406 .1694336L.15625 .20019531Z"/>
<path id="font_8_3" d="M.09033203 .41845704V.5185547H.19042969V.41845704H.09033203M.09033203 0V.100097659H.19042969V0H.09033203Z"/>
<path id="font_8_1" d="M0 0Z"/>
<path id="font_9_2" d="M.1586914 .61572268 .1796875 .7158203H.26708985L.24609375 .61572268H.1586914M-.12109375-.19482422-.10546875-.119628909C-.08528646-.12516277-.06738281-.12792969-.051757814-.12792969-.032877607-.12792969-.017822266-.121663417-.006591797-.10913086 .004638672-.096598308 .016276041-.061848958 .028320313-.0048828127L.13720703 .5185547H.22558594L.11328125-.020996094C.09928385-.088378909 .08317057-.13427735 .064941409-.1586914 .040527345-.19124349 .0065104167-.20751953-.037109376-.20751953-.060221357-.20751953-.08821615-.20328777-.12109375-.19482422Z"/>
<path id="font_8_2" d="M.03173828 .21484375V.30322267H.3017578V.21484375H.03173828Z"/>
<path id="font_8_7" d="M.40234376 0V.06542969C.36946617 .0139973959 .3211263-.01171875 .25732423-.01171875 .21598308-.01171875 .17797852-.00032552085 .14331055 .022460938 .10864258 .045247396 .08178711 .077067058 .06274414 .11791992 .043701173 .15877278 .034179689 .20572917 .034179689 .25878907 .034179689 .31054688 .04280599 .35750328 .060058595 .3996582 .077311199 .44181315 .1031901 .4741211 .13769531 .49658204 .17220052 .51904299 .21077474 .53027346 .25341798 .53027346 .28466798 .53027346 .3125 .52368167 .33691407 .51049807 .36132813 .49731446 .3811849 .48014323 .39648438 .45898438V.7158203H.48388673V0H.40234376M.12451172 .25878907C.12451172 .19238281 .13850911 .14274089 .1665039 .10986328 .1944987 .07698568 .22753906 .060546876 .265625 .060546876 .30403648 .060546876 .33666993 .07625326 .3635254 .107666019 .39038087 .13907878 .4038086 .18701172 .4038086 .25146485 .4038086 .32242839 .39013673 .37451173 .36279298 .40771485 .33544923 .44091798 .3017578 .45751954 .26171876 .45751954 .22265625 .45751954 .19002278 .441569 .16381836 .40966798 .13761394 .37776695 .12451172 .32747398 .12451172 .25878907Z"/>
<path id="font_8_10" d="M.06640625 .6147461V.7158203H.15429688V.6147461H.06640625M.06640625 0V.5185547H.15429688V0H.06640625Z"/>
<path id="font_8_15" d="M.064941409 0V.5185547H.14404297V.4399414C.16422527 .47672526 .18286133 .50097659 .19995117 .5126953 .21704102 .52441409 .23583985 .53027346 .25634767 .53027346 .28597007 .53027346 .31608073 .5208333 .3466797 .5019531L.31640626 .42041017C.29492188 .43310548 .2734375 .43945313 .25195313 .43945313 .23274739 .43945313 .2154948 .43367515 .20019531 .42211915 .18489583 .41056315 .17399089 .39453126 .16748047 .37402345 .15771485 .34277345 .15283203 .30859376 .15283203 .27148438V0H.064941409Z"/>
<path id="font_8_8" d="M.42089845 .16699219 .51171877 .15576172C.49739585 .10270182 .47086589 .061523439 .4321289 .032226564 .39339195 .0029296876 .34391276-.01171875 .2836914-.01171875 .20784505-.01171875 .14770508 .01163737 .103271488 .05834961 .05883789 .10506185 .036621095 .17057292 .036621095 .2548828 .036621095 .3421224 .05908203 .40983073 .104003909 .4580078 .14892578 .5061849 .20719402 .53027346 .2788086 .53027346 .34814454 .53027346 .40478517 .50667318 .44873048 .45947267 .49267579 .41227214 .51464846 .34586589 .51464846 .2602539 .51464846 .25504557 .51448568 .24723308 .51416018 .2368164H.1274414C.13069661 .17985027 .14680989 .13623047 .17578125 .10595703 .20475261 .075683597 .24088542 .060546876 .2841797 .060546876 .31640626 .060546876 .34391276 .069010417 .36669923 .0859375 .3894857 .102864589 .4075521 .12988281 .42089845 .16699219M.13232422 .30908204H.421875C.41796876 .3527018 .40690104 .38541667 .38867188 .40722657 .3606771 .44108073 .3243815 .4580078 .27978517 .4580078 .23942058 .4580078 .20548503 .4444987 .17797852 .41748048 .150472 .39046226 .1352539 .35432945 .13232422 .30908204Z"/>
<path id="font_8_6" d="M.40429688 .1899414 .49072267 .17871094C.48128257 .119140628 .45711265 .072509769 .4182129 .03881836 .37931315 .005126953 .33154298-.01171875 .27490235-.01171875 .2039388-.01171875 .14689128 .011474609 .103759769 .057861329 .060628255 .10424805 .0390625 .17073567 .0390625 .25732423 .0390625 .3133138 .048339845 .3623047 .06689453 .40429688 .08544922 .44628907 .11368815 .4777832 .15161133 .4987793 .1895345 .5197754 .23079427 .53027346 .27539063 .53027346 .33170573 .53027346 .37776695 .5160319 .41357423 .48754884 .4493815 .45906578 .47233073 .41861979 .48242188 .36621095L.39697267 .35302735C.38883464 .38785807 .37443034 .4140625 .35375978 .43164063 .3330892 .44921876 .30810548 .4580078 .2788086 .4580078 .23453777 .4580078 .1985677 .44213868 .17089844 .4104004 .14322917 .3786621 .12939453 .32845054 .12939453 .25976563 .12939453 .19010417 .14274089 .13948567 .1694336 .107910159 .1961263 .07633463 .23095703 .060546876 .27392579 .060546876 .308431 .060546876 .3372396 .071126308 .36035157 .092285159 .38346354 .11344401 .39811198 .1459961 .40429688 .1899414Z"/>
<path id="font_8_16" d="M.2578125 .07861328 .2705078 .0009765625C.24576824-.004231771 .22363281-.0068359377 .20410156-.0068359377 .17220052-.0068359377 .14746094-.0017903646 .12988281 .008300781 .11230469 .018391928 .0999349 .031656904 .09277344 .048095704 .08561198 .06453451 .08203125 .099121097 .08203125 .15185547V.4501953H.017578125V.5185547H.08203125V.64697268L.1694336 .69970706V.5185547H.2578125V.4501953H.1694336V.14697266C.1694336 .121907558 .17097982 .10579427 .17407227 .09863281 .17716472 .09147135 .18221028 .08577474 .18920899 .08154297 .19620769 .077311199 .20621746 .07519531 .21923828 .07519531 .2290039 .07519531 .24186199 .07633463 .2578125 .07861328Z"/>
<path id="font_8_13" d="M.033203126 .25927735C.033203126 .355306 .059895833 .42643229 .11328125 .47265626 .15787761 .5110677 .21223958 .53027346 .2763672 .53027346 .34765626 .53027346 .40592448 .5069173 .45117188 .46020509 .49641929 .41349284 .51904299 .34895835 .51904299 .26660157 .51904299 .1998698 .5090332 .14737956 .48901368 .10913086 .46899415 .070882167 .43986003 .041178388 .40161134 .020019532 .36336265-.0011393229 .3216146-.01171875 .2763672-.01171875 .20377605-.01171875 .1451009 .011555989 .1003418 .05810547 .055582685 .104654949 .033203126 .17171224 .033203126 .25927735M.123535159 .25927735C.123535159 .1928711 .13802083 .14314778 .16699219 .11010742 .19596355 .077067058 .23242188 .060546876 .2763672 .060546876 .31998698 .060546876 .35628257 .07714844 .3852539 .11035156 .41422526 .14355469 .42871095 .19417317 .42871095 .26220704 .42871095 .32633464 .4141439 .3749186 .38500978 .40795899 .35587565 .44099937 .31966148 .45751954 .2763672 .45751954 .23242188 .45751954 .19596355 .44108073 .16699219 .40820313 .13802083 .37532554 .123535159 .3256836 .123535159 .25927735Z"/>
<path id="font_8_12" d="M.06591797 0V.5185547H.14501953V.44482423C.18310547 .50179037 .23811849 .53027346 .3100586 .53027346 .3413086 .53027346 .3700358 .5246582 .39624024 .51342776 .42244468 .50219729 .44205729 .48746745 .45507813 .46923829 .46809898 .45100913 .47721354 .42936198 .48242188 .40429688 .4856771 .38802085 .4873047 .35953776 .4873047 .31884767V0H.39941407V.3154297C.39941407 .35123698 .3959961 .37801109 .38916017 .39575196 .38232423 .41349284 .37019859 .42765299 .3527832 .43823243 .33536784 .44881187 .3149414 .45410157 .2915039 .45410157 .254069 .45410157 .22176107 .44222007 .19458008 .41845704 .1673991 .394694 .1538086 .34960938 .1538086 .28320313V0H.06591797Z"/>
<path id="font_8_9" d="M.08691406 0V.4501953H.009277344V.5185547H.08691406V.57373049C.08691406 .6085612 .09000651 .6344401 .096191409 .6513672 .104654949 .6741536 .11954752 .69262698 .14086914 .7067871 .16219075 .72094729 .1920573 .72802737 .23046875 .72802737 .25520835 .72802737 .2825521 .72509768 .3125 .7192383L.2993164 .6425781C.28108726 .6458333 .26383464 .64746096 .2475586 .64746096 .22086589 .64746096 .20198567 .64176437 .19091797 .6303711 .17985027 .61897787 .1743164 .59765627 .1743164 .56640627V.5185547H.27539063V.4501953H.1743164V0H.08691406Z"/>
<path id="font_9_1" d="M.1586914 .61572268 .1796875 .7158203H.26757813L.24658203 .61572268H.1586914M.029785157 0 .1381836 .5185547H.2265625L.11816406 0H.029785157Z"/>
<path id="font_8_14" d="M.06591797-.19873047V.5185547H.1459961V.45117188C.1648763 .47753907 .18619792 .49731446 .20996094 .51049807 .23372396 .52368167 .26253257 .53027346 .29638673 .53027346 .34065757 .53027346 .37972007 .5188802 .41357423 .49609376 .44742839 .47330729 .47298179 .4411621 .49023438 .3996582 .507487 .3581543 .5161133 .31266276 .5161133 .2631836 .5161133 .2101237 .5065918 .16235352 .48754884 .11987305 .46850587 .07739258 .44083659 .044840497 .40454103 .022216797 .36824546-.00040690104 .33007813-.01171875 .29003907-.01171875 .2607422-.01171875 .23445638-.005533854 .21118164 .0068359377 .1879069 .019205729 .16878255 .03483073 .1538086 .053710939V-.19873047H.06591797M.14550781 .25634767C.14550781 .18961589 .15901692 .14029949 .18603516 .10839844 .21305339 .0764974 .24576824 .060546876 .2841797 .060546876 .3232422 .060546876 .35668946 .077067058 .38452149 .11010742 .41235353 .14314778 .42626954 .19433594 .42626954 .26367188 .42626954 .3297526 .41267906 .37923179 .38549806 .41210938 .35831706 .44498698 .32584635 .46142579 .28808595 .46142579 .25065104 .46142579 .2175293 .44392906 .1887207 .40893556 .15991211 .37394206 .14550781 .32307945 .14550781 .25634767Z"/>
<path id="font_8_11" d="M.063964847 0V.7158203H.15185547V0H.063964847Z"/>
<path id="font_8_5" d="M.40429688 .063964847C.37174479 .036295576 .34041343 .016764323 .31030274 .0053710939 .28019206-.0060221354 .24788411-.01171875 .2133789-.01171875 .15641277-.01171875 .11263021 .0021972657 .08203125 .030029297 .051432294 .057861329 .036132814 .09342448 .036132814 .13671875 .036132814 .16210938 .04191081 .18530274 .053466798 .20629883 .06502279 .22729492 .08015951 .24414063 .09887695 .25683595 .1175944 .26953126 .13867188 .27913413 .16210938 .28564454 .17936199 .2902018 .20540364 .29459635 .24023438 .29882813 .3111979 .30729167 .363444 .3173828 .39697267 .32910157 .3972982 .34114585 .39746095 .34879557 .39746095 .35205079 .39746095 .38785807 .38916017 .41308595 .3725586 .42773438 .35009767 .44759117 .31673179 .45751954 .27246095 .45751954 .2311198 .45751954 .20060222 .4502767 .1809082 .43579103 .16121419 .42130534 .14664714 .39567057 .13720703 .35888673L.05126953 .37060548C.05908203 .4073893 .0719401 .4370931 .08984375 .4597168 .1077474 .48234049 .1336263 .49975587 .16748047 .5119629 .20133464 .5241699 .24055989 .53027346 .28515626 .53027346 .3294271 .53027346 .36539714 .5250651 .3930664 .51464846 .4207357 .50423178 .44108073 .49112956 .45410157 .4753418 .4671224 .45955406 .47623698 .43961589 .4814453 .41552735 .484375 .40055339 .48583985 .37353517 .48583985 .33447267V.21728516C.48583985 .13557942 .48771159 .08390299 .49145509 .06225586 .49519859 .040608724 .5026042 .019856772 .5136719 0H.421875C.4127604 .018229166 .40690104 .03955078 .40429688 .063964847M.39697267 .2602539C.36507163 .24723308 .31722007 .23616536 .25341798 .22705078 .21728516 .22184246 .19173177 .21598308 .17675781 .20947266 .16178386 .20296224 .15022786 .19344075 .14208985 .1809082 .13395183 .16837566 .12988281 .15445964 .12988281 .13916016 .12988281 .115722659 .13875325 .096191409 .15649414 .080566409 .17423503 .064941409 .20019531 .057128908 .234375 .057128908 .26822917 .057128908 .29833985 .06453451 .32470704 .0793457 .35107423 .0941569 .37044273 .11442057 .3828125 .14013672 .3922526 .15999349 .39697267 .18929036 .39697267 .22802735V.2602539Z"/>
<path id="font_10_1" d="M.3725586 0H.28466798V.5600586C.26350913 .5398763 .23575847 .51969406 .20141602 .49951173 .16707357 .47932945 .13623047 .46419273 .10888672 .45410157V.5390625C.15804036 .5621745 .20100911 .59016928 .23779297 .6230469 .2745768 .6559245 .3006185 .6878255 .31591798 .71875H.3725586V0Z"/>
<path id="font_5_1" d="M.3569336 .12890625C.3569336 .1188151 .35725913 .11010742 .35791017 .1027832 .3585612 .095458988 .35961915 .089274089 .36108399 .084228519 .36254884 .079182948 .36450196 .07486979 .36694337 .07128906 .36938478 .067708339 .37223307 .06461588 .37548829 .06201172 .37939454 .05810547 .38460288 .055094404 .39111329 .052978517 .3976237 .05086263 .40592448 .049072267 .41601563 .047607423 .42610679 .046142579 .43823243 .045003255 .45239259 .044189454 .46655274 .043375654 .4835612 .04280599 .50341799 .04248047V0H.11621094V.04248047C.13541667 .04313151 .1516927 .043863935 .16503906 .044677736 .17838542 .045491537 .18977864 .04663086 .19921875 .048095704 .20865886 .049560548 .21622722 .051188154 .22192383 .052978517 .22762044 .05476888 .23258464 .056966146 .2368164 .059570314 .2413737 .0625 .24527996 .06567383 .24853516 .0690918 .25179038 .072509769 .25439454 .076822917 .25634767 .08203125 .25830079 .087239589 .25984703 .09358724 .26098634 .10107422 .26212565 .108561199 .2626953 .11783854 .2626953 .12890625V.4790039C.2626953 .49169923 .2602539 .50065109 .2553711 .5058594 .25048829 .5110677 .24348958 .5136719 .234375 .5136719 .22428386 .5136719 .20930989 .50846359 .18945313 .49804688 .16959636 .48763023 .1438802 .47216798 .11230469 .45166017 .108072917 .45914714 .104166667 .46663413 .10058594 .4741211 .09700521 .48160807 .09326172 .4892578 .08935547 .4970703 .12972005 .51920577 .16967774 .54125979 .20922852 .5632324 .2487793 .5852051 .28889976 .6070964 .32958985 .62890627H.359375C.35872398 .6110026 .3582357 .5949707 .35791017 .58081057 .35758464 .5666504 .35734049 .55289718 .35717774 .5395508 .35701499 .5262044 .3569336 .5130208 .3569336 .5V.12890625Z"/>
<path id="font_5_2" d="M.3544922 .079589847C.36979167 .079589847 .3819987 .08015951 .39111329 .08129883 .40022788 .08243815 .40779624 .08496094 .41381837 .08886719 .41984049 .09277344 .42496745 .098714198 .42919923 .10668945 .433431 .11466471 .4383138 .12565105 .44384767 .13964844H.4892578C.48763023 .11653646 .48608399 .09326172 .48461915 .06982422 .4831543 .04638672 .48160807 .023111979 .47998048 0H.06640625V.025390625C.07421875 .04296875 .083333339 .060302736 .09375 .07739258 .104166667 .09448242 .115885417 .111816409 .12890625 .12939453 .14192708 .14697266 .15673828 .16512044 .17333985 .18383789 .1899414 .20255535 .20833333 .2220052 .22851563 .2421875 .2591146 .27278648 .28401695 .29890953 .30322267 .32055665 .32242839 .34220378 .3375651 .36149089 .3486328 .37841798 .35970054 .39534507 .3672689 .41097007 .3713379 .42529298 .3754069 .43961589 .3774414 .45491538 .3774414 .4711914 .3774414 .48779298 .3750814 .50309249 .37036134 .51708987 .36564128 .5310872 .35888673 .54296877 .35009767 .5527344 .3413086 .5625 .33015953 .5701497 .3166504 .5756836 .30314128 .58121749 .28759767 .5839844 .27001954 .5839844 .2397461 .5839844 .21435547 .57576498 .19384766 .5593262 .17333985 .5428874 .15738933 .51904299 .1459961 .48779298H.08203125V.5830078C.123697917 .60026046 .162028 .61279299 .19702149 .62060549 .23201497 .62841799 .26350913 .6323242 .2915039 .6323242 .32535807 .6323242 .35424806 .6284993 .37817384 .6208496 .4020996 .6131999 .42154948 .60286459 .43652345 .58984377 .4514974 .57682296 .46232096 .56119796 .46899415 .54296877 .47566734 .52473959 .4790039 .5050456 .4790039 .48388673 .4790039 .4711914 .47810874 .45939128 .47631837 .44848634 .47452799 .4375814 .47143556 .4268392 .46704103 .41625978 .46264649 .40568034 .4568685 .39501954 .44970704 .38427735 .44254557 .37353517 .43359376 .36214195 .42285157 .35009767 .41471354 .339681 .40413413 .32763673 .39111329 .31396485 .37809245 .30029298 .36385093 .28564454 .34838868 .27001954 .33292643 .25439454 .31673179 .23811849 .2998047 .2211914 .2828776 .20426433 .2664388 .1875 .25048829 .17089844 .23453777 .15429688 .21988933 .1381836 .20654297 .122558597 .19319661 .106933597 .18229167 .09261068 .17382813 .079589847H.3544922Z"/>
<path id="font_5_3" d="M.083984378 .4868164V.5830078C.122395839 .5992839 .15861003 .61157229 .19262696 .61987307 .22664388 .6281738 .25927735 .6323242 .29052735 .6323242 .316569 .6323242 .3409017 .6295573 .3635254 .62402346 .38614909 .61848959 .40576173 .6101074 .42236329 .59887698 .43896485 .5876465 .4519043 .5736491 .46118165 .55688479 .47045899 .5401204 .47509767 .5206706 .47509767 .49853517 .47509767 .4777018 .47216798 .4593099 .4663086 .44335938 .46044923 .42740885 .45141603 .4129232 .43920899 .39990235 .42700196 .3868815 .41202799 .3750814 .3942871 .36450196 .37654624 .35392253 .35611979 .34375 .3330078 .33398438V.328125C.35481773 .32421876 .37516276 .31795249 .39404298 .30932618 .4129232 .30069987 .42944337 .28979493 .44360353 .27661134 .45776368 .26342774 .46891276 .24820964 .47705079 .23095703 .4851888 .21370442 .4892578 .19466146 .4892578 .17382813 .4892578 .14778646 .484375 .12361654 .47460938 .10131836 .46484376 .07902018 .4501953 .059733076 .43066407 .04345703 .4111328 .02718099 .38704429 .014485677 .35839845 .0053710939 .3297526-.0037434896 .29622398-.008300781 .2578125-.008300781 .22753906-.008300781 .19677735-.0052897136 .16552735 .0007324219 .13427735 .006754557 .104654949 .0146484379 .076660159 .024414063V.12988281H.13964844C.14485677 .11360677 .15104167 .09969076 .15820313 .088134769 .16536458 .07657877 .17374675 .06713867 .18334961 .059814454 .19295247 .052490236 .20402019 .04720052 .21655274 .043945314 .22908528 .040690107 .24332683 .0390625 .25927735 .0390625 .30126954 .0390625 .3330892 .049072267 .35473634 .0690918 .37638346 .08911133 .38720704 .11946615 .38720704 .16015625 .38720704 .20345052 .37296549 .23624675 .34448243 .25854493 .31599937 .2808431 .27376304 .2919922 .21777344 .2919922H.17480469V.3388672C.20898438 .34049479 .23852539 .34529624 .26342774 .35327149 .28833009 .36124674 .30908204 .37158204 .3256836 .38427735 .34228517 .39697267 .35465495 .41178385 .36279298 .42871095 .370931 .44563804 .375 .46370445 .375 .48291017 .375 .51416018 .36572267 .53881838 .34716798 .55688479 .32861329 .5749512 .3017578 .5839844 .26660157 .5839844 .23697917 .5839844 .2121582 .5758464 .19213867 .5595703 .17211914 .54329428 .15673828 .51904299 .1459961 .4868164H.083984378Z"/>
<path id="font_8_4" d="M.07861328 0V.7158203H.3959961C.4597982 .7158203 .5083008 .7093913 .5415039 .6965332 .57470706 .6836751 .601237 .66097006 .62109377 .62841799 .6409505 .5958659 .6508789 .5598958 .6508789 .5205078 .6508789 .46972657 .6344401 .42692057 .6015625 .39208985 .5686849 .35725913 .5179036 .3351237 .44921876 .3256836 .47428385 .3136393 .4933268 .3017578 .50634768 .29003907 .5340169 .26464845 .5602214 .23291016 .58496096 .19482422L.70947268 0H.59033206L.49560548 .14892578C.4679362 .19189453 .44514976 .22477214 .4272461 .2475586 .40934245 .27034507 .39331056 .28629557 .3791504 .29541017 .36499024 .30452476 .35058595 .3108724 .3359375 .31445313 .3251953 .31673179 .3076172 .3178711 .28320313 .3178711H.17333985V0H.07861328M.17333985 .39990235H.37695313C.4202474 .39990235 .45410157 .40437828 .47851563 .41333009 .5029297 .4222819 .5214844 .43660484 .5341797 .45629884 .546875 .47599284 .55322268 .49739585 .55322268 .5205078 .55322268 .554362 .54093429 .58219406 .5163574 .6040039 .4917806 .6258138 .45296226 .63671877 .39990235 .63671877H.17333985V.39990235Z"/>
<path id="font_10_2" d="M.50341799 .084472659V0H.030273438C.029622397 .021158854 .033040365 .041503908 .040527345 .061035158 .052571615 .09326172 .07185873 .125 .09838867 .15625 .12491862 .1875 .1632487 .22363281 .2133789 .26464845 .29117839 .32845054 .34375 .37898765 .37109376 .41625978 .3984375 .4535319 .41210938 .48876954 .41210938 .52197268 .41210938 .5568034 .3996582 .58618167 .37475587 .6101074 .34985353 .6340332 .3173828 .6459961 .27734376 .6459961 .23502605 .6459961 .20117188 .6333008 .17578125 .60791018 .15039063 .58251956 .13753255 .5473633 .13720703 .5024414L.046875 .51171877C.053059896 .57910159 .07633463 .63045248 .11669922 .6657715 .1570638 .7010905 .21126302 .71875 .27929688 .71875 .34798179 .71875 .40234376 .69970706 .4423828 .6616211 .48242188 .62353518 .5024414 .57633468 .5024414 .52001956 .5024414 .4913737 .49658204 .46321617 .48486329 .43554688 .47314454 .4078776 .45369468 .3787435 .42651368 .34814454 .39933268 .31754557 .35416667 .27555339 .29101563 .22216797 .23828125 .17789714 .20442708 .14786785 .18945313 .13208008 .17447917 .11629232 .16210938 .10042318 .15234375 .084472659H.50341799Z"/>
<path id="font_10_3" d="M.041992189 .18896485 .12988281 .2006836C.13997396 .1508789 .15714519 .114990238 .18139649 .09301758 .20564778 .07104492 .2351888 .060058595 .27001954 .060058595 .3113607 .060058595 .3462728 .07438151 .37475587 .103027347 .40323893 .13167317 .41748048 .16715496 .41748048 .20947266 .41748048 .24983724 .40429688 .28312174 .3779297 .30932618 .3515625 .3355306 .31803385 .3486328 .27734376 .3486328 .2607422 .3486328 .24007161 .3453776 .21533203 .3388672L.22509766 .41601563C.23095703 .4153646 .23567708 .41503907 .23925781 .41503907 .27669273 .41503907 .31038413 .4248047 .34033204 .44433595 .37027995 .4638672 .3852539 .49397788 .3852539 .53466799 .3852539 .56689456 .37434898 .5935872 .35253907 .6147461 .33072917 .63590499 .30257163 .6464844 .2680664 .6464844 .23388672 .6464844 .20540364 .6357422 .18261719 .6142578 .15983074 .59277346 .1451823 .5605469 .13867188 .5175781L.05078125 .5332031C.061523439 .5921224 .0859375 .6377767 .12402344 .670166 .16210938 .70255538 .20947266 .71875 .26611329 .71875 .30517579 .71875 .34114585 .71036788 .37402345 .6936035 .40690104 .6768392 .43204753 .6539714 .4494629 .625 .46687828 .5960286 .47558595 .5652669 .47558595 .53271487 .47558595 .50179037 .46728517 .4736328 .4506836 .4482422 .43408204 .42285157 .40950523 .40266929 .37695313 .3876953 .41927085 .3779297 .45214845 .35766603 .47558595 .3269043 .49902345 .29614259 .5107422 .25764976 .5107422 .21142578 .5107422 .14892578 .48795573 .095947269 .4423828 .052490236 .3968099 .009033203 .33919273-.0126953129 .26953126-.0126953129 .20670574-.0126953129 .15454102 .0060221354 .11303711 .04345703 .0715332 .08089193 .047851564 .12939453 .041992189 .18896485Z"/>
</defs>
<g clip-path="url(#clip_1)">
<path transform="matrix(1,0,0,-1,0,187)" d="M0 187H357V0H0Z" fill="#ffffff"/>
</g>
<g clip-path="url(#clip_2)">
<path transform="matrix(1,0,0,-1,0,187)" d="M56.32992 67.40467 56.32998 158.1465H55.59842L55.59836 67.40467ZM58.15887 157.416 55.9642 161.7988 53.76953 157.416Z"/>
<path transform="matrix(1,0,0,-1,0,187)" d="M55.98753 67.4657 23.22474 35.83528 23.73324 35.31014 56.49603 66.94055ZM22.47942 37.65591 20.84939 33.03398 25.53046 34.50504Z"/>
<path transform="matrix(1,0,0,-1,0,187)" d="M55.96414 67.56836 136.9031 67.5683V66.83783L55.96414 66.83789ZM136.1716 69.39448 140.561 67.20307 136.1716 65.01167Z"/>
<path transform="matrix(1,0,0,-1,0,187)" d="M31.09119 42.73242H105.71004V117.240238H31.09119Z" fill="#aeaeae" fill-opacity=".4314"/>
<path transform="matrix(1,0,0,-1,0,187)" d="M105.71 117.2402 130.583 142.0762V67.56836L105.71 42.73242Z" fill="#8c8c8c" fill-opacity=".4314" fill-rule="evenodd"/>
<path transform="matrix(1,0,0,-1,0,187)" d="M31.09119 117.2402 55.96414 142.0762H130.583L105.71 117.2402Z" fill="#bebebe" fill-opacity=".4314" fill-rule="evenodd"/>
<path transform="matrix(.00005760294,0,0,.00005751723,31.09119,44.923799)" stroke-width="12700" stroke-linecap="butt" stroke-dasharray="38100,12700" stroke-miterlimit="8" stroke-linejoin="miter" fill="none" stroke="#aeaeae" d="M0 431800 431800 0H1727200V1295400L1295400 1727200H0ZM0 431800H1295400L1727200 0M1295400 431800V1727200"/>
<use data-text="z" xlink:href="#font_3_3" transform="matrix(13.168034,0,0,-13.148438,52.73503,17.166)"/>
<use data-text="x" xlink:href="#font_3_1" transform="matrix(13.168034,0,0,-13.148438,147.9302,124.9102)"/>
<use data-text="y" xlink:href="#font_3_2" transform="matrix(13.168034,0,0,-13.148438,8.699775,159.9727)"/>
<path transform="matrix(1,0,0,-1,0,187)" d="M79.73975 129.6582V128.9277H79.0082V129.6582ZM79.73975 128.1973V127.4668H79.0082V128.1973ZM79.73975 126.7363V126.0059H79.0082V126.7363ZM79.73975 125.2754V124.5449H79.0082V125.2754ZM79.73975 123.8145V123.084H79.0082V123.8145ZM79.73975 122.3535V121.623H79.0082V122.3535ZM79.73975 120.8926V120.1621H79.0082V120.8926ZM79.73975 119.4316V118.7012H79.0082V119.4316ZM79.73975 117.9707V117.2402H79.0082V117.9707ZM79.73975 116.5098V115.7793H79.0082V116.5098ZM79.73975 115.0488 79.73983 114.3184H79.00827L79.0082 115.0488ZM79.73983 113.5879V112.8574H79.00827V113.5879ZM79.73983 112.127V112.0831H79.00827V112.127ZM80.83716 112.8136 79.37405 105.5089 77.91093 112.8136Z" fill="#7f7f7f"/>
<path transform="matrix(1,0,0,-1,0,187)" d="M78.76517 129.5421 75.18478 125.7097 75.7197 125.2115 79.30009 129.0438ZM74.88141 126.9913 70.96106 120.6533 77.02114 124.9982Z"/>
<path transform="matrix(1,0,0,-1,0,187)" d="M79.37924 129.125 84.52911 129.1987 84.51858 129.9291 79.36871 129.8554ZM83.81336 128.0927 91.1072 129.6582 83.77137 131.0142Z"/>
<use data-text="!" xlink:href="#font_4_2" transform="matrix(10.241804,0,0,-10.226563,59.80847,57.707017)"/>
<use data-text="!" xlink:href="#font_5_6" transform="matrix(7.315574,0,0,-7.304688,64.47215,59.898424)"/>
<use data-text="&quot;" xlink:href="#font_5_5" transform="matrix(7.315574,0,0,-7.304688,68.404277,59.898424)"/>
<use data-text="!" xlink:href="#font_4_2" transform="matrix(10.241804,0,0,-10.226563,84.02558,52.593736)"/>
<use data-text="!" xlink:href="#font_5_6" transform="matrix(7.315574,0,0,-7.304688,88.68926,54.419908)"/>
<use data-text="#" xlink:href="#font_5_4" transform="matrix(7.315574,0,0,-7.304688,92.62138,54.419908)"/>
<use data-text="&quot;" xlink:href="#font_4_1" transform="matrix(10.241804,0,0,-10.226563,67.36875,77.06444)" fill="#7f7f7f"/>
<use data-text="!" xlink:href="#font_5_6" transform="matrix(7.315574,0,0,-7.304688,72.70546,79.255847)" fill="#7f7f7f"/>
<path transform="matrix(1,0,0,-1,0,187)" d="M69.13217 81.51279 69.1322 88.02148H68.40064L68.40061 81.51279ZM70.22953 87.29102 68.76645 94.5957 67.3033 87.29102Z"/>
<path transform="matrix(1,0,0,-1,0,187)" d="M68.77164 80.91402 73.92153 80.9878 73.911 81.7182 68.76115 81.64442ZM73.20578 79.88173 80.49962 81.44727 73.16378 82.80331Z"/>
<path transform="matrix(1,0,0,-1,0,187)" d="M69.0213 81.31074 69.54596 81.81973 69.03615 82.34362 68.51149 81.83456ZM70.07063 82.3288 70.59529 82.83786 70.08549 83.36175 69.56082 82.85269ZM71.11996 83.34692 71.64462 83.85591 71.13482 84.37981 70.61016 83.87074ZM72.16929 84.36498 72.69396 84.87404 72.18416 85.39793 71.65949 84.88887ZM73.21865 85.3831 73.74332 85.89209 73.2335 86.41599 72.70882 85.907ZM74.26792 86.40116 74.7926 86.91022 74.28285 87.43411 73.75817 86.92505ZM75.31727 87.41929 75.84194 87.92828 75.33212 88.45217 74.80752 87.94318ZM76.36662 88.43734 76.59267 88.65663 76.08284 89.18052 75.85679 88.96123ZM76.83269 87.36173 81.0597 93.5 74.79347 89.45729Z" fill="#7f7f7f"/>
<path transform="matrix(1,0,0,-1,0,187)" d="M118.725 92.31971 113.8266 88.24508 114.2949 87.68386 119.1932 91.75842ZM113.6863 89.55452 109.002 83.75657 115.5593 87.30957Z"/>
<path transform="matrix(1,0,0,-1,0,187)" d="M118.8781 91.37412V97.88281H118.1465V91.37412ZM119.9754 97.15234 118.5124 104.457 117.0492 97.15234Z"/>
<path transform="matrix(1,0,0,-1,0,187)" d="M119.0651 92.03906H118.3335V91.30859H119.0651ZM117.6019 92.03906H116.8704V91.30859H117.6019ZM116.1388 92.03906H115.4073V91.30859H116.1388ZM114.6757 92.03906H113.9442V91.30859H114.6757ZM113.2126 92.03906H112.481V91.30859H113.2126ZM111.7495 92.03906H111.0179V91.30859H111.7495ZM110.2864 92.03906H109.5548V91.30859H110.2864ZM108.8233 92.03906H108.0917V91.30859H108.8233ZM107.3601 92.03906H106.6286V91.30859H107.3601ZM105.897 92.03906 105.1655 92.03899V91.30852L105.897 91.30859ZM105.3443 93.13469 98.02869 91.67376 105.3443 90.21282Z" fill="#7f7f7f"/>
<use data-text="&quot;" xlink:href="#font_4_1" transform="matrix(10.241804,0,0,-10.226563,79.54984,101.169879)" fill="#7f7f7f"/>
<use data-text="&quot;" xlink:href="#font_5_5" transform="matrix(7.315574,0,0,-7.304688,84.88655,102.99608)" fill="#7f7f7f"/>
<use data-text="&quot;" xlink:href="#font_4_1" transform="matrix(10.241804,0,0,-10.226563,94.25627,89.48241)" fill="#7f7f7f"/>
<use data-text="#" xlink:href="#font_5_4" transform="matrix(7.315574,0,0,-7.304688,99.59298,91.30858)" fill="#7f7f7f"/>
<use data-text="!" xlink:href="#font_4_2" transform="matrix(10.241804,0,0,-10.226563,115.359,81.082019)"/>
<use data-text="#" xlink:href="#font_5_4" transform="matrix(7.315574,0,0,-7.304688,120.0227,83.27342)"/>
<use data-text="!" xlink:href="#font_5_6" transform="matrix(7.315574,0,0,-7.304688,124.41204,83.27342)"/>
<use data-text="!" xlink:href="#font_4_2" transform="matrix(10.241804,0,0,-10.226563,109.6904,109.5703)"/>
<use data-text="#" xlink:href="#font_5_4" transform="matrix(7.315574,0,0,-7.304688,114.354,111.7617)"/>
<use data-text="&quot;" xlink:href="#font_5_5" transform="matrix(7.315574,0,0,-7.304688,118.74334,111.7617)"/>
<use data-text="!" xlink:href="#font_4_2" transform="matrix(10.241804,0,0,-10.226563,69.8925,114.68358)"/>
<use data-text="&quot;" xlink:href="#font_5_5" transform="matrix(7.315574,0,0,-7.304688,74.55616,116.874988)"/>
<use data-text="#" xlink:href="#font_5_4" transform="matrix(7.315574,0,0,-7.304688,79.31129,116.874988)"/>
<use data-text="!" xlink:href="#font_4_2" transform="matrix(10.241804,0,0,-10.226563,59.71588,87.291)"/>
<use data-text="&quot;" xlink:href="#font_5_5" transform="matrix(7.315574,0,0,-7.304688,64.37956,89.48241)"/>
<use data-text="!" xlink:href="#font_5_6" transform="matrix(7.315574,0,0,-7.304688,69.13469,89.48241)"/>
<use data-text="!" xlink:href="#font_6_2" transform="matrix(8.778689,0,0,-8.765626,40.55207,158.5117)"/>
<use data-text="!" xlink:href="#font_7_1" transform="matrix(6.584017,0,0,-6.574219,45.07309,160.33788)"/>
<use data-text="&quot;" xlink:href="#font_7_2" transform="matrix(6.584017,0,0,-6.574219,47.359064,160.33788)"/>
<use data-text="," xlink:href="#font_6_1" transform="matrix(8.778689,0,0,-8.765626,50.96213,158.5117)"/>
<use data-text="#" xlink:href="#font_6_3" transform="matrix(8.778689,0,0,-8.765626,54.25414,158.5117)"/>
<use data-text="!" xlink:href="#font_7_1" transform="matrix(6.584017,0,0,-6.574219,58.2777,160.33788)"/>
<use data-text="&quot;" xlink:href="#font_7_2" transform="matrix(6.584017,0,0,-6.574219,60.563669,160.33788)"/>
<use data-text=":" xlink:href="#font_8_3" transform="matrix(8.778689,0,0,-8.765626,64.16674,158.5117)"/>
<use data-text=" " xlink:href="#font_8_1" transform="matrix(8.778689,0,0,-8.765626,66.636188,158.5117)"/>
<use data-text="j" xlink:href="#font_9_2" transform="matrix(8.778689,0,0,-8.765626,69.10475,158.5117)"/>
<use data-text="-" xlink:href="#font_8_2" transform="matrix(8.778689,0,0,-8.765626,71.02509,158.5117)"/>
<use data-text="d" xlink:href="#font_8_7" transform="matrix(8.778689,0,0,-8.765626,73.95131,158.5117)"/>
<use data-text="i" xlink:href="#font_8_10" transform="matrix(8.778689,0,0,-8.765626,78.79803,158.5117)"/>
<use data-text="r" xlink:href="#font_8_15" transform="matrix(8.778689,0,0,-8.765626,80.717929,158.5117)"/>
<use data-text="e" xlink:href="#font_8_8" transform="matrix(8.778689,0,0,-8.765626,83.64386,158.5117)"/>
<use data-text="c" xlink:href="#font_8_6" transform="matrix(8.778689,0,0,-8.765626,88.49058,158.5117)"/>
<use data-text="t" xlink:href="#font_8_16" transform="matrix(8.778689,0,0,-8.765626,92.87992,158.5117)"/>
<use data-text="i" xlink:href="#font_8_10" transform="matrix(8.778689,0,0,-8.765626,95.349369,158.5117)"/>
<use data-text="o" xlink:href="#font_8_13" transform="matrix(8.778689,0,0,-8.765626,97.269268,158.5117)"/>
<use data-text="n" xlink:href="#font_8_12" transform="matrix(8.778689,0,0,-8.765626,102.11598,158.5117)"/>
<use data-text=" " xlink:href="#font_8_1" transform="matrix(8.778689,0,0,-8.765626,106.96269,158.5117)"/>
<use data-text="f" xlink:href="#font_8_9" transform="matrix(8.778689,0,0,-8.765626,109.432147,158.5117)"/>
<use data-text="o" xlink:href="#font_8_13" transform="matrix(8.778689,0,0,-8.765626,111.901599,158.5117)"/>
<use data-text="r" xlink:href="#font_8_15" transform="matrix(8.778689,0,0,-8.765626,116.74831,158.5117)"/>
<use data-text="c" xlink:href="#font_8_6" transform="matrix(8.778689,0,0,-8.765626,119.67424,158.5117)"/>
<use data-text="e" xlink:href="#font_8_8" transform="matrix(8.778689,0,0,-8.765626,124.06358,158.5117)"/>
<use data-text=" " xlink:href="#font_8_1" transform="matrix(8.778689,0,0,-8.765626,128.9103,158.5117)"/>
<use data-text="o" xlink:href="#font_8_13" transform="matrix(8.778689,0,0,-8.765626,131.37973,158.5117)"/>
<use data-text="n" xlink:href="#font_8_12" transform="matrix(8.778689,0,0,-8.765626,136.22646,158.5117)"/>
<use data-text=" " xlink:href="#font_8_1" transform="matrix(8.778689,0,0,-8.765626,141.07317,158.5117)"/>
<use data-text="i" xlink:href="#font_9_1" transform="matrix(8.778689,0,0,-8.765626,143.5407,158.5117)"/>
<use data-text="-" xlink:href="#font_8_2" transform="matrix(8.778689,0,0,-8.765626,145.461,158.5117)"/>
<use data-text="p" xlink:href="#font_8_14" transform="matrix(8.778689,0,0,-8.765626,148.3873,158.5117)"/>
<use data-text="l" xlink:href="#font_8_11" transform="matrix(8.778689,0,0,-8.765626,153.23401,158.5117)"/>
<use data-text="a" xlink:href="#font_8_5" transform="matrix(8.778689,0,0,-8.765626,155.15743,158.5117)"/>
<use data-text="n" xlink:href="#font_8_12" transform="matrix(8.778689,0,0,-8.765626,160.00414,158.5117)"/>
<use data-text="e" xlink:href="#font_8_8" transform="matrix(8.778689,0,0,-8.765626,164.85086,158.5117)"/>
<path transform="matrix(1,0,0,-1,0,187)" d="M252.8319 65.71333 303.7085 140.9021 303.1024 141.311 252.2258 66.12228ZM304.8144 139.2745 305.4532 144.1329 301.1773 141.7281Z"/>
<path transform="matrix(1,0,0,-1,0,187)" d="M252.4653 66.2775 207.5836 58.38312 207.7106 57.66372 252.5922 65.55811ZM207.9869 60.30833 204.0448 57.3898 208.7484 55.99197Z"/>
<path transform="matrix(1,0,0,-1,0,187)" d="M252.7335 66.22046 319.7996 20.97498 319.3901 20.36971 252.324 65.6152ZM320.2174 22.89708 322.6258 18.6276 317.7601 19.26548Z"/>
<path transform="matrix(1,0,0,-1,0,187)" d="M259.8315 121.4593 321.6895 79.7276 279.8955 17.96177 218.0377 59.6935Z" fill="#aeaeae" fill-opacity=".4314"/>
<path transform="matrix(1,0,0,-1,0,187)" d="M321.6895 79.7276 356.2401 86.40569 314.4462 24.6398 279.8955 17.96176Z" fill="#8c8c8c" fill-opacity=".4314" fill-rule="evenodd"/>
<path transform="matrix(1,0,0,-1,0,187)" d="M259.8315 121.4593 294.3822 128.1374 356.2401 86.40569 321.6895 79.7276Z" fill="#bebebe" fill-opacity=".4314" fill-rule="evenodd"/>
<path transform="matrix(.00004772986,.00003220041,-.0000322484,.00004765883,273.7629,44.951997)" stroke-width="12700" stroke-linecap="butt" stroke-dasharray="38100,12700" stroke-miterlimit="8" stroke-linejoin="miter" fill="none" stroke="#aeaeae" d="M0 432000 432000 0H1728000V1296000L1296000 1728000H0ZM0 432000H1296000L1728000 0M1296000 432000V1728000"/>
<use data-text="1" xlink:href="#font_10_1" transform="matrix(13.168034,0,0,-13.148438,309.1377,36.888658)"/>
<path transform="matrix(1,0,0,-1,0,187)" d="M307.066 104.4033 306.6564 103.798 306.0502 104.2069 306.4598 104.8122ZM306.2469 103.1927 305.8373 102.5875 305.2311 102.9964 305.6407 103.6017ZM305.4278 101.9822 305.0182 101.3769 304.4121 101.7859 304.8216 102.3911ZM304.6086 100.7717 304.1991 100.1664 303.5929 100.5753 304.0025 101.1806ZM303.7896 99.56114 303.38 98.95587 302.7738 99.36479 303.1834 99.97005ZM302.9705 98.3506 302.5609 97.74534 301.9547 98.15425 302.3643 98.75952ZM302.1513 97.14007 301.7418 96.53481 301.1356 96.94372 301.5452 97.54899ZM301.3322 95.92954 300.9227 95.32427 300.3165 95.73319 300.726 96.33846ZM300.5132 94.71893 300.1036 94.11367 299.4974 94.52266 299.907 95.12792ZM299.694 93.5084 299.2844 92.90313 298.6783 93.31212 299.0879 93.91739ZM298.8749 92.29787 298.4654 91.6926 297.8592 92.10159 298.2687 92.70686ZM298.0558 91.08733 297.6463 90.48207 297.0401 90.89106 297.4496 91.49632ZM297.2367 89.8768 297.2122 89.8405 296.606 90.24941 296.6306 90.28579ZM298.5309 89.83239 293.223 84.59756 296.1063 91.46813Z" fill="#7f7f7f"/>
<use data-text="&quot;" xlink:href="#font_4_1" transform="matrix(10.241804,0,0,-10.226563,283.0685,100.4395)" fill="#7f7f7f"/>
<use data-text="$" xlink:href="#font_5_1" transform="matrix(7.315574,0,0,-7.304688,288.1675,102.26558)" fill="#7f7f7f"/>
<path transform="matrix(1,0,0,-1,0,187)" d="M271.2103 70.24899 271.9305 70.37749 271.8018 71.09657 271.0817 70.96806ZM272.6507 70.506 273.3708 70.6345 273.2421 71.35358 272.5219 71.22508ZM274.091 70.76301 274.8111 70.89151 274.6824 71.61059 273.9622 71.48209ZM275.5313 71.02001 276.2514 71.14852 276.1227 71.8676 275.4025 71.73909ZM276.9716 71.27703 277.6917 71.40553 277.563 72.12461 276.8429 71.9961ZM278.4119 71.53404 279.132 71.66254 279.0033 72.38162 278.2832 72.25311ZM279.8522 71.79105 280.5723 71.91955 280.4436 72.63862 279.7235 72.51012ZM281.2924 72.04805 281.6026 72.10341 281.4739 72.82248 281.1638 72.76713ZM281.0755 70.89629 288.0196 73.61949 280.5607 73.7726Z" fill="#7f7f7f"/>
<path transform="matrix(1,0,0,-1,0,187)" d="M318.5483 51.31249 317.9421 51.72144 317.5326 51.11617 318.1388 50.70723ZM317.336 52.13038 316.7298 52.53932 316.3203 51.93406 316.9265 51.52511ZM316.1236 52.94827 315.5175 53.35721 315.1079 52.75195 315.7141 52.343ZM314.9113 53.76615 314.3051 54.1751 313.8956 53.56983 314.5018 53.16089ZM313.699 54.58404 313.0928 54.99299 312.6833 54.38772 313.2894 53.97878ZM312.4866 55.40193 311.8805 55.81087 311.4709 55.20561 312.0771 54.79666ZM311.2743 56.21982 310.6681 56.62876 310.2586 56.02349 310.8648 55.61455ZM310.062 57.0377 309.4558 57.44665 309.0463 56.84138 309.6524 56.43244ZM308.8496 57.85559 308.2435 58.26453 307.8339 57.65927 308.4401 57.25032ZM307.6373 58.67348 307.0311 59.08242 306.6216 58.47716 307.2278 58.06821ZM307.7936 59.89037 300.9128 62.76927 306.1554 57.4693Z" fill="#7f7f7f"/>
<use data-text="&quot;" xlink:href="#font_4_1" transform="matrix(10.241804,0,0,-10.226563,275.6863,123.8145)" fill="#7f7f7f"/>
<use data-text="%" xlink:href="#font_5_2" transform="matrix(7.315574,0,0,-7.304688,281.0231,126.005878)" fill="#7f7f7f"/>
<use data-text="&quot;" xlink:href="#font_4_1" transform="matrix(10.241804,0,0,-10.226563,297.9733,120.89259)" fill="#7f7f7f"/>
<use data-text="&amp;" xlink:href="#font_5_3" transform="matrix(7.315574,0,0,-7.304688,303.31,123.08397)" fill="#7f7f7f"/>
<path transform="matrix(1,0,0,-1,0,187)" d="M148.3233 101.1699 211.3213 101.1698V100.0741L148.3233 100.0742ZM210.5898 102.8134 214.9791 100.622 210.5898 98.43059Z"/>
<use data-text="R" xlink:href="#font_8_4" transform="matrix(8.778689,0,0,-8.765626,177.982,98.24803)"/>
<use data-text="o" xlink:href="#font_8_13" transform="matrix(8.778689,0,0,-8.765626,184.29125,98.24803)"/>
<use data-text="t" xlink:href="#font_8_16" transform="matrix(8.778689,0,0,-8.765626,189.13445,98.24803)"/>
<use data-text="a" xlink:href="#font_8_5" transform="matrix(8.778689,0,0,-8.765626,191.6074,98.24803)"/>
<use data-text="t" xlink:href="#font_8_16" transform="matrix(8.778689,0,0,-8.765626,196.4506,98.24803)"/>
<use data-text="i" xlink:href="#font_8_10" transform="matrix(8.778689,0,0,-8.765626,198.92356,98.24803)"/>
<use data-text="o" xlink:href="#font_8_13" transform="matrix(8.778689,0,0,-8.765626,200.84346,98.24803)"/>
<use data-text="n" xlink:href="#font_8_12" transform="matrix(8.778689,0,0,-8.765626,205.68666,98.24803)"/>
<use data-text="2" xlink:href="#font_10_2" transform="matrix(13.168034,0,0,-13.148438,190.8444,138.05858)"/>
<use data-text="3" xlink:href="#font_10_3" transform="matrix(13.168034,0,0,-13.148438,333.069,175.67769)"/>
</g>
</svg>
