<svg width="452" height="674" xmlns="http://www.w3.org/2000/svg" xmlns:xlink="http://www.w3.org/1999/xlink" xml:space="preserve" overflow="hidden"><defs><clipPath id="clip0"><rect x="0" y="0" width="451" height="674"/></clipPath><clipPath id="clip1"><rect x="0" y="0" width="451" height="675"/></clipPath><clipPath id="clip2"><rect x="0" y="0" width="451" height="675"/></clipPath></defs><g><g><g clip-path="url(#clip0)"><g clip-path="url(#clip1)"><g clip-path="url(#clip2)"><path d="M113.588 485.732 317.71 606.068" stroke="#000000" stroke-width="1.25512" stroke-linecap="butt" stroke-linejoin="miter" stroke-miterlimit="8" stroke-dasharray="5.02048 3.76536" stroke-opacity="1" fill="none" fill-rule="evenodd" transform="matrix(1.00091 0 0 1 -45.2256 -5.02048)"/><path d="M292.786 119.62 244.121 65.2663" stroke="#7F7F7F" stroke-width="1.25512" stroke-linecap="butt" stroke-linejoin="miter" stroke-miterlimit="8" stroke-opacity="1" fill="none" fill-rule="evenodd" transform="matrix(1.00091 0 0 1 -45.2256 -5.02048)"/><path d="M0.62756-4.02367e-07 0.627655 147.865-0.627466 147.865-0.62756 4.02367e-07ZM2.51034 146.609 9.88282e-05 154.14-2.51015 146.609Z" fill="#000000" fill-rule="nonzero" fill-opacity="1" transform="matrix(1.00091 0 0 -1 25.1253 179.87)"/><path d="M47.6946 168.186 382.978 168.186 382.978 169.441 47.6946 169.441ZM381.722 166.304 389.253 168.814 381.722 171.324Z" fill="#000000" fill-rule="nonzero" fill-opacity="1" transform="matrix(1.00091 0 0 1 -45.2256 -5.02048)"/><text fill="#000000" fill-opacity="1" font-family="Cambria Math,Cambria Math_MSFontService,sans-serif" font-style="normal" font-variant="normal" font-weight="400" font-stretch="normal" font-size="22" text-anchor="start" direction="ltr" writing-mode="lr-tb" unicode-bidi="normal" text-decoration="none" transform="matrix(0.628134 0 0 0.62756 21.116 18)">𝑞</text><text fill="#000000" fill-opacity="1" font-family="Cambria Math,Cambria Math_MSFontService,sans-serif" font-style="normal" font-variant="normal" font-weight="400" font-stretch="normal" font-size="22" text-anchor="start" direction="ltr" writing-mode="lr-tb" unicode-bidi="normal" text-decoration="none" transform="matrix(0.628134 0 0 0.62756 352.492 169)">𝑝</text><text fill="#000000" fill-opacity="1" font-family="Cambria Math,Cambria Math_MSFontService,sans-serif" font-style="normal" font-variant="normal" font-weight="400" font-stretch="normal" font-size="16" text-anchor="start" direction="ltr" writing-mode="lr-tb" unicode-bidi="normal" text-decoration="none" transform="matrix(0.628134 0 0 0.62756 360.488 164)">′</text><text fill="#000000" fill-opacity="1" font-family="Cambria Math,Cambria Math_MSFontService,sans-serif" font-style="normal" font-variant="normal" font-weight="400" font-stretch="normal" font-size="22" text-anchor="start" direction="ltr" writing-mode="lr-tb" unicode-bidi="normal" text-decoration="none" transform="matrix(0.628134 0 0 0.62756 16.4074 409)">𝜀</text><text fill="#000000" fill-opacity="1" font-family="Cambria Math,Cambria Math_MSFontService,sans-serif" font-style="normal" font-variant="normal" font-weight="400" font-stretch="normal" font-size="16" text-anchor="start" direction="ltr" writing-mode="lr-tb" unicode-bidi="normal" text-decoration="none" transform="matrix(0.628134 0 0 0.62756 22.4438 413)">nv</text><text fill="#000000" fill-opacity="1" font-family="Cambria Math,Cambria Math_MSFontService,sans-serif" font-style="normal" font-variant="normal" font-weight="400" font-stretch="normal" font-size="16" text-anchor="start" direction="ltr" writing-mode="lr-tb" unicode-bidi="normal" text-decoration="none" transform="matrix(0.628134 0 0 0.62756 23.4677 402)">vp</text><path d="M47.6946 265.458 382.978 265.458 382.978 266.713 47.6946 266.713ZM381.722 263.575 389.253 266.086 381.722 268.596Z" fill="#000000" fill-rule="nonzero" fill-opacity="1" transform="matrix(1.00091 0 0 1 -45.2256 -5.02048)"/><path d="M70.9143 252.279 70.9143 385.679 69.6592 385.679 69.6592 252.279ZM72.797 384.423 70.2868 391.954 67.7765 384.423Z" fill="#000000" fill-rule="nonzero" fill-opacity="1" transform="matrix(1.00091 0 0 1 -45.2256 -5.02048)"/><text fill="#000000" fill-opacity="1" font-family="Cambria Math,Cambria Math_MSFontService,sans-serif" font-style="normal" font-variant="normal" font-weight="400" font-stretch="normal" font-size="22" text-anchor="start" direction="ltr" writing-mode="lr-tb" unicode-bidi="normal" text-decoration="none" transform="matrix(0.628134 0 0 0.62756 350.975 265)">ln</text><text fill="#000000" fill-opacity="1" font-family="Cambria Math,Cambria Math_MSFontService,sans-serif" font-style="normal" font-variant="normal" font-weight="400" font-stretch="normal" font-size="22" text-anchor="start" direction="ltr" writing-mode="lr-tb" unicode-bidi="normal" text-decoration="none" transform="matrix(0.628134 0 0 0.62756 361.967 265)"> </text><text fill="#000000" fill-opacity="1" font-family="Cambria Math,Cambria Math_MSFontService,sans-serif" font-style="normal" font-variant="normal" font-weight="400" font-stretch="normal" font-size="22" text-anchor="start" direction="ltr" writing-mode="lr-tb" unicode-bidi="normal" text-decoration="none" transform="matrix(0.628134 0 0 0.62756 364.794 265)">𝑝</text><text fill="#000000" fill-opacity="1" font-family="Cambria Math,Cambria Math_MSFontService,sans-serif" font-style="normal" font-variant="normal" font-weight="400" font-stretch="normal" font-size="16" text-anchor="start" direction="ltr" writing-mode="lr-tb" unicode-bidi="normal" text-decoration="none" transform="matrix(0.628134 0 0 0.62756 371.753 268)">𝐸</text><text fill="#000000" fill-opacity="1" font-family="Cambria Math,Cambria Math_MSFontService,sans-serif" font-style="normal" font-variant="normal" font-weight="400" font-stretch="normal" font-size="16" text-anchor="start" direction="ltr" writing-mode="lr-tb" unicode-bidi="normal" text-decoration="none" transform="matrix(0.628134 0 0 0.62756 372.469 260)">′</text><path d="M221.529 266.086 221.529 300.337" stroke="#00B050" stroke-width="1.25512" stroke-linecap="square" stroke-linejoin="miter" stroke-miterlimit="8" stroke-dasharray="3.76536 1.25512" stroke-opacity="1" fill="none" fill-rule="evenodd" transform="matrix(1.00091 0 0 1 -45.2256 -5.02048)"/><path d="M244.749 266.086 244.749 314.144" stroke="#00B050" stroke-width="1.25512" stroke-linecap="square" stroke-linejoin="miter" stroke-miterlimit="8" stroke-dasharray="3.76536 1.25512" stroke-opacity="1" fill="none" fill-rule="evenodd" transform="matrix(1.00091 0 0 1 -45.2256 -5.02048)"/><path d="M282.402 306.877 302.945 306.877" stroke="#000000" stroke-width="1.25512" stroke-linecap="butt" stroke-linejoin="miter" stroke-miterlimit="8" stroke-opacity="1" fill="none" fill-rule="evenodd" transform="matrix(1.00091 0 0 1 -45.2256 -5.02048)"/><path d="M0 0 13.6738 18.1993" stroke="#000000" stroke-width="1.25512" stroke-linecap="butt" stroke-linejoin="miter" stroke-miterlimit="8" stroke-opacity="1" fill="none" fill-rule="evenodd" transform="matrix(-1.00091 0 0 1 237.302 301.857)"/><text fill="#000000" fill-opacity="1" font-family="Arial,Arial_MSFontService,sans-serif" font-style="normal" font-variant="normal" font-weight="400" font-stretch="normal" font-size="18" text-anchor="start" direction="ltr" writing-mode="lr-tb" unicode-bidi="normal" text-decoration="none" transform="matrix(0.628134 0 0 0.62756 264.174 307)">Volumetric hardening path:</text><text fill="#000000" fill-opacity="1" font-family="Arial,Arial_MSFontService,sans-serif" font-style="normal" font-variant="normal" font-weight="400" font-stretch="normal" font-size="18" text-anchor="start" direction="ltr" writing-mode="lr-tb" unicode-bidi="normal" text-decoration="none" transform="matrix(0.628134 0 0 0.62756 264.174 321)">Slope: </text><text fill="#000000" fill-opacity="1" font-family="Cambria Math,Cambria Math_MSFontService,sans-serif" font-style="normal" font-variant="normal" font-weight="400" font-stretch="normal" font-size="18" text-anchor="start" direction="ltr" writing-mode="lr-tb" unicode-bidi="normal" text-decoration="none" transform="matrix(0.628134 0 0 0.62756 299.35 321)">𝜆</text><text fill="#000000" fill-opacity="1" font-family="Cambria Math,Cambria Math_MSFontService,sans-serif" font-style="normal" font-variant="normal" font-weight="400" font-stretch="normal" font-size="14" text-anchor="start" direction="ltr" writing-mode="lr-tb" unicode-bidi="normal" text-decoration="none" transform="matrix(0.628134 0 0 0.62756 304.997 316)">∗</text><text fill="#000000" fill-opacity="1" font-family="Cambria Math,Cambria Math_MSFontService,sans-serif" font-style="normal" font-variant="normal" font-weight="400" font-stretch="normal" font-size="18" text-anchor="start" direction="ltr" writing-mode="lr-tb" unicode-bidi="normal" text-decoration="none" transform="matrix(0.628134 0 0 0.62756 311.906 321)">−</text><text fill="#000000" fill-opacity="1" font-family="Cambria Math,Cambria Math_MSFontService,sans-serif" font-style="normal" font-variant="normal" font-weight="400" font-stretch="normal" font-size="18" text-anchor="start" direction="ltr" writing-mode="lr-tb" unicode-bidi="normal" text-decoration="none" transform="matrix(0.628134 0 0 0.62756 322.898 321)">𝜅</text><path d="M220.901 276.127 237.931 276.127 237.931 277.382 220.901 277.382ZM236.676 272.989 244.207 276.754 236.676 280.52Z" fill="#00B050" fill-rule="nonzero" fill-opacity="1" transform="matrix(1.00091 0 0 1 -45.2256 -5.02048)"/><path d="M163.793 266.086 367.915 386.422" stroke="#000000" stroke-width="1.25512" stroke-linecap="butt" stroke-linejoin="miter" stroke-miterlimit="8" stroke-opacity="1" fill="none" fill-rule="evenodd" transform="matrix(1.00091 0 0 1 -45.2256 -5.02048)"/><text fill="#A02B93" fill-opacity="1" font-family="Cambria Math,Cambria Math_MSFontService,sans-serif" font-style="normal" font-variant="normal" font-weight="400" font-stretch="normal" font-size="18" text-anchor="start" direction="ltr" writing-mode="lr-tb" unicode-bidi="normal" text-decoration="none" transform="matrix(0.628134 0 0 0.62756 172.042 323)">𝑑</text><text fill="#A02B93" fill-opacity="1" font-family="Cambria Math,Cambria Math_MSFontService,sans-serif" font-style="normal" font-variant="normal" font-weight="400" font-stretch="normal" font-size="18" text-anchor="start" direction="ltr" writing-mode="lr-tb" unicode-bidi="normal" text-decoration="none" transform="matrix(0.628134 0 0 0.62756 178.637 323)">𝜀</text><text fill="#A02B93" fill-opacity="1" font-family="Cambria Math,Cambria Math_MSFontService,sans-serif" font-style="normal" font-variant="normal" font-weight="400" font-stretch="normal" font-size="14" text-anchor="start" direction="ltr" writing-mode="lr-tb" unicode-bidi="normal" text-decoration="none" transform="matrix(0.628134 0 0 0.62756 183.619 325)">𝑣</text><text fill="#A02B93" fill-opacity="1" font-family="Cambria Math,Cambria Math_MSFontService,sans-serif" font-style="normal" font-variant="normal" font-weight="400" font-stretch="normal" font-size="14" text-anchor="start" direction="ltr" writing-mode="lr-tb" unicode-bidi="normal" text-decoration="none" transform="matrix(0.628134 0 0 0.62756 184.454 316)">p</text><path d="M245.376 314.408 245.376 323.398 244.121 323.398 244.121 314.408ZM248.514 322.142 244.749 329.673 240.983 322.142Z" fill="#A02B93" fill-rule="nonzero" fill-opacity="1" transform="matrix(1.00091 0 0 1 -45.2256 -5.02048)"/><path d="M70.2868 168.5C70.2868 120.844 109.061 82.2104 156.89 82.2104 204.72 82.2104 243.493 120.844 243.493 168.5 243.493 168.704 243.493 168.908 243.492 169.111L156.89 168.5Z" stroke="#7F7F7F" stroke-width="1.25512" stroke-linecap="butt" stroke-linejoin="miter" stroke-miterlimit="8" stroke-opacity="1" fill="none" fill-rule="evenodd" transform="matrix(1.00091 0 0 1 -45.2256 -5.02048)"/><path d="M70.2868 168.186C70.2868 105.8 121.002 55.2256 183.561 55.2256 246.121 55.2256 296.836 105.8 296.836 168.186 296.836 168.202 296.836 168.217 296.836 168.233L183.561 168.186Z" stroke="#000000" stroke-width="1.25512" stroke-linecap="butt" stroke-linejoin="miter" stroke-miterlimit="8" stroke-opacity="1" fill="none" fill-rule="evenodd" transform="matrix(1.00091 0 0 1 -45.2256 -5.02048)"/><path d="M1.25404e-06-0.62756 43.1814-0.627475 43.1814 0.627648-1.25404e-06 0.62756ZM41.9263-3.76528 49.457 9.88282e-05 41.9262 3.76544Z" fill="#00B050" fill-rule="nonzero" fill-opacity="1" transform="matrix(1.00091 0 0 -1 200.375 163.793)"/><text fill="#00B050" fill-opacity="1" font-family="Cambria Math,Cambria Math_MSFontService,sans-serif" font-style="normal" font-variant="normal" font-weight="400" font-stretch="normal" font-size="18" text-anchor="start" direction="ltr" writing-mode="lr-tb" unicode-bidi="normal" text-decoration="none" transform="matrix(0.628134 0 0 0.62756 242.048 179)">𝑝</text><text fill="#00B050" fill-opacity="1" font-family="Cambria Math,Cambria Math_MSFontService,sans-serif" font-style="normal" font-variant="normal" font-weight="400" font-stretch="normal" font-size="14" text-anchor="start" direction="ltr" writing-mode="lr-tb" unicode-bidi="normal" text-decoration="none" transform="matrix(0.628134 0 0 0.62756 247.971 182)">𝑦𝑙𝑑</text><text fill="#00B050" fill-opacity="1" font-family="Cambria Math,Cambria Math_MSFontService,sans-serif" font-style="normal" font-variant="normal" font-weight="400" font-stretch="normal" font-size="14" text-anchor="start" direction="ltr" writing-mode="lr-tb" unicode-bidi="normal" text-decoration="none" transform="matrix(0.628134 0 0 0.62756 248.581 175)">′</text><path d="M241.611 167.872C241.611 166.659 242.594 165.676 243.807 165.676 245.02 165.676 246.004 166.659 246.004 167.872 246.004 169.086 245.02 170.069 243.807 170.069 242.594 170.069 241.611 169.086 241.611 167.872Z" stroke="#7F7F7F" stroke-width="1.25512" stroke-linecap="butt" stroke-linejoin="miter" stroke-miterlimit="8" stroke-opacity="1" fill="#FFFFFF" fill-rule="evenodd" fill-opacity="1" transform="matrix(1.00091 0 0 1 -45.2256 -5.02048)"/><path d="M198.937 133.67 365.24 133.67 365.24 156.263 198.937 156.263Z" fill="#FFFFFF" fill-rule="nonzero" fill-opacity="1" transform="matrix(1.00091 0 0 1 -45.2256 -5.02048)"/><text fill="#E97132" fill-opacity="1" font-family="Arial,Arial_MSFontService,sans-serif" font-style="normal" font-variant="normal" font-weight="400" font-stretch="normal" font-size="18" text-anchor="start" direction="ltr" writing-mode="lr-tb" unicode-bidi="normal" text-decoration="none" transform="matrix(0.628134 0 0 0.62756 162.974 144)">Effective stress path: K0 path</text><text fill="#7F7F7F" fill-opacity="1" font-family="Arial,Arial_MSFontService,sans-serif" font-style="normal" font-variant="normal" font-weight="400" font-stretch="normal" font-size="16" text-anchor="start" direction="ltr" writing-mode="lr-tb" unicode-bidi="normal" text-decoration="none" transform="matrix(0.628134 0 0 0.62756 104.043 72)">Initial Y3 surface</text><text fill="#000000" fill-opacity="1" font-family="Arial,Arial_MSFontService,sans-serif" font-style="normal" font-variant="normal" font-weight="400" font-stretch="normal" font-size="16" text-anchor="start" direction="ltr" writing-mode="lr-tb" unicode-bidi="normal" text-decoration="none" transform="matrix(0.628134 0 0 0.62756 68.5005 32)">Current Y3 surface</text><path d="M198.309 82.2104 198.309 93.5278" stroke="#7F7F7F" stroke-width="1.25512" stroke-linecap="butt" stroke-linejoin="miter" stroke-miterlimit="8" stroke-opacity="1" fill="none" fill-rule="evenodd" transform="matrix(1.00091 0 0 1 -45.2256 -5.02048)"/><path d="M0 0 9.88282e-05 13.3503" stroke="#7F7F7F" stroke-width="1.25512" stroke-linecap="butt" stroke-linejoin="miter" stroke-miterlimit="8" stroke-opacity="1" fill="none" fill-rule="evenodd" transform="matrix(1.00091 0 0 -1 127.511 51.004)"/><path d="M267.968 89.1136 271.734 89.1136 271.734 90.3687 267.968 90.3687ZM272.989 89.1136 276.754 89.1136 276.754 90.3687 272.989 90.3687ZM278.009 89.1136 281.775 89.1136 281.775 90.3687 278.009 90.3687ZM283.03 89.1136 286.795 89.1136 286.795 90.3687 283.03 90.3687ZM288.05 89.1136 291.816 89.1136 291.816 90.3687 288.05 90.3687ZM293.071 89.1136 296.836 89.1136 296.836 90.3687 293.071 90.3687ZM298.091 89.1136 301.857 89.1136 301.857 90.3687 298.091 90.3687ZM303.112 89.1136 303.484 89.1136 303.484 90.3687 303.112 90.3687ZM302.229 85.9758 309.76 89.7411 302.229 93.5065Z" fill="#A02B93" fill-rule="nonzero" fill-opacity="1" transform="matrix(1.00091 0 0 1 -45.2256 -5.02048)"/><path d="M0.62756-1.91846e-06 0.627573 3.76536-0.627549 3.76536-0.62756 1.91846e-06ZM0.627573 5.02048 0.627586 8.78585-0.627534 8.78585-0.627545 5.02048ZM0.627592 10.041 0.627604 13.8063-0.627518 13.8063-0.62753 10.041ZM0.627604 15.0615 0.627617 18.8268-0.627503 18.8268-0.627515 15.0615ZM0.627623 20.0819 0.627636 23.8473-0.627488 23.8473-0.627499 20.0819ZM0.627636 25.1024 0.627642 26.0527-0.627481 26.0527-0.627484 25.1024ZM3.76544 24.7976 9.88282e-05 32.3283-3.76529 24.7977Z" fill="#E59EDD" fill-rule="nonzero" fill-opacity="1" transform="matrix(1.00091 0 0 -1 221.103 82.533)"/><text fill="#000000" fill-opacity="1" font-family="Cambria Math,Cambria Math_MSFontService,sans-serif" font-style="normal" font-variant="normal" font-weight="400" font-stretch="normal" font-size="18" text-anchor="start" direction="ltr" writing-mode="lr-tb" unicode-bidi="normal" text-decoration="none" transform="matrix(0.628134 0 0 0.62756 310.466 92)">𝑂</text><text fill="#000000" fill-opacity="1" font-family="Cambria Math,Cambria Math_MSFontService,sans-serif" font-style="normal" font-variant="normal" font-weight="400" font-stretch="normal" font-size="18" text-anchor="start" direction="ltr" writing-mode="lr-tb" unicode-bidi="normal" text-decoration="none" transform="matrix(0.628134 0 0 0.62756 318.437 92)">~</text><text fill="#000000" fill-opacity="1" font-family="Cambria Math,Cambria Math_MSFontService,sans-serif" font-style="normal" font-variant="normal" font-weight="400" font-stretch="normal" font-size="18" text-anchor="start" direction="ltr" writing-mode="lr-tb" unicode-bidi="normal" text-decoration="none" transform="matrix(0.628134 0 0 0.62756 326.446 92)">𝐴</text><text fill="#000000" fill-opacity="1" font-family="Arial,Arial_MSFontService,sans-serif" font-style="normal" font-variant="normal" font-weight="400" font-stretch="normal" font-size="18" text-anchor="start" direction="ltr" writing-mode="lr-tb" unicode-bidi="normal" text-decoration="none" transform="matrix(0.628134 0 0 0.62756 333.783 92)">:</text><text fill="#000000" fill-opacity="1" font-family="Arial,Arial_MSFontService,sans-serif" font-style="normal" font-variant="normal" font-weight="400" font-stretch="normal" font-size="18" text-anchor="start" direction="ltr" writing-mode="lr-tb" unicode-bidi="normal" text-decoration="none" transform="matrix(0.628134 0 0 0.62756 310.466 105)">Elastic deformation</text><path d="M346.413 45.1844 495.773 45.1844 495.773 81.5829 346.413 81.5829Z" fill="#FFFFFF" fill-rule="nonzero" fill-opacity="1" transform="matrix(1.00091 0 0 1 -45.2256 -5.02048)"/><text fill="#A02B93" fill-opacity="1" font-family="Cambria Math,Cambria Math_MSFontService,sans-serif" font-style="normal" font-variant="normal" font-weight="400" font-stretch="normal" font-size="18" text-anchor="start" direction="ltr" writing-mode="lr-tb" unicode-bidi="normal" text-decoration="none" transform="matrix(0.628134 0 0 0.62756 310.466 56)">𝐴</text><text fill="#A02B93" fill-opacity="1" font-family="Cambria Math,Cambria Math_MSFontService,sans-serif" font-style="normal" font-variant="normal" font-weight="400" font-stretch="normal" font-size="18" text-anchor="start" direction="ltr" writing-mode="lr-tb" unicode-bidi="normal" text-decoration="none" transform="matrix(0.628134 0 0 0.62756 317.803 56)">~</text><text fill="#A02B93" fill-opacity="1" font-family="Cambria Math,Cambria Math_MSFontService,sans-serif" font-style="normal" font-variant="normal" font-weight="400" font-stretch="normal" font-size="18" text-anchor="start" direction="ltr" writing-mode="lr-tb" unicode-bidi="normal" text-decoration="none" transform="matrix(0.628134 0 0 0.62756 325.812 56)">𝐵</text><text fill="#A02B93" fill-opacity="1" font-family="Arial,Arial_MSFontService,sans-serif" font-style="normal" font-variant="normal" font-weight="400" font-stretch="normal" font-size="18" text-anchor="start" direction="ltr" writing-mode="lr-tb" unicode-bidi="normal" text-decoration="none" transform="matrix(0.628134 0 0 0.62756 333.494 56)">:</text><text fill="#A02B93" fill-opacity="1" font-family="Arial,Arial_MSFontService,sans-serif" font-style="normal" font-variant="normal" font-weight="400" font-stretch="normal" font-size="18" text-anchor="start" direction="ltr" writing-mode="lr-tb" unicode-bidi="normal" text-decoration="none" transform="matrix(0.628134 0 0 0.62756 310.466 70)">Elasto</text><text fill="#A02B93" fill-opacity="1" font-family="Arial,Arial_MSFontService,sans-serif" font-style="normal" font-variant="normal" font-weight="400" font-stretch="normal" font-size="18" text-anchor="start" direction="ltr" writing-mode="lr-tb" unicode-bidi="normal" text-decoration="none" transform="matrix(0.628134 0 0 0.62756 341.873 70)">-</text><text fill="#A02B93" fill-opacity="1" font-family="Arial,Arial_MSFontService,sans-serif" font-style="normal" font-variant="normal" font-weight="400" font-stretch="normal" font-size="18" text-anchor="start" direction="ltr" writing-mode="lr-tb" unicode-bidi="normal" text-decoration="none" transform="matrix(0.628134 0 0 0.62756 345.642 70)">plastic </text><text fill="#A02B93" fill-opacity="1" font-family="Arial,Arial_MSFontService,sans-serif" font-style="normal" font-variant="normal" font-weight="400" font-stretch="normal" font-size="18" text-anchor="start" direction="ltr" writing-mode="lr-tb" unicode-bidi="normal" text-decoration="none" transform="matrix(0.628134 0 0 0.62756 380.817 70)">deformation</text><text fill="#A02B93" fill-opacity="1" font-family="Cambria Math,Cambria Math_MSFontService,sans-serif" font-style="normal" font-variant="normal" font-weight="400" font-stretch="normal" font-size="18" text-anchor="start" direction="ltr" writing-mode="lr-tb" unicode-bidi="normal" text-decoration="none" transform="matrix(0.628134 0 0 0.62756 271.797 87)">𝑑</text><text fill="#A02B93" fill-opacity="1" font-family="Cambria Math,Cambria Math_MSFontService,sans-serif" font-style="normal" font-variant="normal" font-weight="400" font-stretch="normal" font-size="18" text-anchor="start" direction="ltr" writing-mode="lr-tb" unicode-bidi="normal" text-decoration="none" transform="matrix(0.628134 0 0 0.62756 278.392 87)">𝜀</text><text fill="#A02B93" fill-opacity="1" font-family="Cambria Math,Cambria Math_MSFontService,sans-serif" font-style="normal" font-variant="normal" font-weight="400" font-stretch="normal" font-size="14" text-anchor="start" direction="ltr" writing-mode="lr-tb" unicode-bidi="normal" text-decoration="none" transform="matrix(0.628134 0 0 0.62756 283.373 89)">𝑣</text><text fill="#A02B93" fill-opacity="1" font-family="Cambria Math,Cambria Math_MSFontService,sans-serif" font-style="normal" font-variant="normal" font-weight="400" font-stretch="normal" font-size="14" text-anchor="start" direction="ltr" writing-mode="lr-tb" unicode-bidi="normal" text-decoration="none" transform="matrix(0.628134 0 0 0.62756 284.209 80)">p</text><text fill="#D86ECC" fill-opacity="1" font-family="Cambria Math,Cambria Math_MSFontService,sans-serif" font-style="normal" font-variant="normal" font-weight="400" font-stretch="normal" font-size="18" text-anchor="start" direction="ltr" writing-mode="lr-tb" unicode-bidi="normal" text-decoration="none" transform="matrix(0.628134 0 0 0.62756 214.57 43)">𝑑</text><text fill="#D86ECC" fill-opacity="1" font-family="Cambria Math,Cambria Math_MSFontService,sans-serif" font-style="normal" font-variant="normal" font-weight="400" font-stretch="normal" font-size="18" text-anchor="start" direction="ltr" writing-mode="lr-tb" unicode-bidi="normal" text-decoration="none" transform="matrix(0.628134 0 0 0.62756 221.165 43)">𝜀</text><text fill="#D86ECC" fill-opacity="1" font-family="Cambria Math,Cambria Math_MSFontService,sans-serif" font-style="normal" font-variant="normal" font-weight="400" font-stretch="normal" font-size="14" text-anchor="start" direction="ltr" writing-mode="lr-tb" unicode-bidi="normal" text-decoration="none" transform="matrix(0.628134 0 0 0.62756 226.146 46)">𝑑</text><text fill="#D86ECC" fill-opacity="1" font-family="Cambria Math,Cambria Math_MSFontService,sans-serif" font-style="normal" font-variant="normal" font-weight="400" font-stretch="normal" font-size="14" text-anchor="start" direction="ltr" writing-mode="lr-tb" unicode-bidi="normal" text-decoration="none" transform="matrix(0.628134 0 0 0.62756 226.982 36)">p</text><text fill="#D86ECC" fill-opacity="1" font-family="Cambria Math,Cambria Math_MSFontService,sans-serif" font-style="normal" font-variant="normal" font-weight="400" font-stretch="normal" font-size="18" text-anchor="start" direction="ltr" writing-mode="lr-tb" unicode-bidi="normal" text-decoration="none" transform="matrix(0.628134 0 0 0.62756 235.776 43)">=</text><text fill="#D86ECC" fill-opacity="1" font-family="Cambria Math,Cambria Math_MSFontService,sans-serif" font-style="normal" font-variant="normal" font-weight="400" font-stretch="normal" font-size="18" text-anchor="start" direction="ltr" writing-mode="lr-tb" unicode-bidi="normal" text-decoration="none" transform="matrix(0.628134 0 0 0.62756 247.396 43)">𝑆</text><text fill="#D86ECC" fill-opacity="1" font-family="Cambria Math,Cambria Math_MSFontService,sans-serif" font-style="normal" font-variant="normal" font-weight="400" font-stretch="normal" font-size="18" text-anchor="start" direction="ltr" writing-mode="lr-tb" unicode-bidi="normal" text-decoration="none" transform="matrix(0.628134 0 0 0.62756 255.468 34)">𝜕</text><text fill="#D86ECC" fill-opacity="1" font-family="Cambria Math,Cambria Math_MSFontService,sans-serif" font-style="normal" font-variant="normal" font-weight="400" font-stretch="normal" font-size="18" text-anchor="start" direction="ltr" writing-mode="lr-tb" unicode-bidi="normal" text-decoration="none" transform="matrix(0.628134 0 0 0.62756 261.749 34)">𝑔</text><text fill="#D86ECC" fill-opacity="1" font-family="Cambria Math,Cambria Math_MSFontService,sans-serif" font-style="normal" font-variant="normal" font-weight="400" font-stretch="normal" font-size="18" text-anchor="start" direction="ltr" writing-mode="lr-tb" unicode-bidi="normal" text-decoration="none" transform="matrix(0.628134 0 0 0.62756 255.788 50)">𝜕</text><text fill="#D86ECC" fill-opacity="1" font-family="Cambria Math,Cambria Math_MSFontService,sans-serif" font-style="normal" font-variant="normal" font-weight="400" font-stretch="normal" font-size="18" text-anchor="start" direction="ltr" writing-mode="lr-tb" unicode-bidi="normal" text-decoration="none" transform="matrix(0.628134 0 0 0.62756 262.069 50)">𝑞</text><path d="M300.563 43.9026 314.37 43.9026 314.37 45.1577 300.563 45.1577Z" fill="#D86ECC" fill-rule="evenodd" fill-opacity="1" transform="matrix(1.00091 0 0 1 -45.2256 -5.02048)"/><text fill="#00B050" fill-opacity="1" font-family="Cambria Math,Cambria Math_MSFontService,sans-serif" font-style="normal" font-variant="normal" font-weight="400" font-stretch="normal" font-size="18" text-anchor="start" direction="ltr" writing-mode="lr-tb" unicode-bidi="normal" text-decoration="none" transform="matrix(0.628134 0 0 0.62756 166.558 253)">𝑝</text><text fill="#00B050" fill-opacity="1" font-family="Cambria Math,Cambria Math_MSFontService,sans-serif" font-style="normal" font-variant="normal" font-weight="400" font-stretch="normal" font-size="14" text-anchor="start" direction="ltr" writing-mode="lr-tb" unicode-bidi="normal" text-decoration="none" transform="matrix(0.628134 0 0 0.62756 172.482 255)">𝑦𝑙𝑑0</text><text fill="#00B050" fill-opacity="1" font-family="Cambria Math,Cambria Math_MSFontService,sans-serif" font-style="normal" font-variant="normal" font-weight="400" font-stretch="normal" font-size="14" text-anchor="start" direction="ltr" writing-mode="lr-tb" unicode-bidi="normal" text-decoration="none" transform="matrix(0.628134 0 0 0.62756 173.091 249)">′</text><text fill="#00B050" fill-opacity="1" font-family="Cambria Math,Cambria Math_MSFontService,sans-serif" font-style="normal" font-variant="normal" font-weight="400" font-stretch="normal" font-size="18" text-anchor="start" direction="ltr" writing-mode="lr-tb" unicode-bidi="normal" text-decoration="none" transform="matrix(0.628134 0 0 0.62756 187.757 179)">𝑝</text><text fill="#00B050" fill-opacity="1" font-family="Cambria Math,Cambria Math_MSFontService,sans-serif" font-style="normal" font-variant="normal" font-weight="400" font-stretch="normal" font-size="14" text-anchor="start" direction="ltr" writing-mode="lr-tb" unicode-bidi="normal" text-decoration="none" transform="matrix(0.628134 0 0 0.62756 193.68 182)">𝑦𝑙𝑑0</text><text fill="#00B050" fill-opacity="1" font-family="Cambria Math,Cambria Math_MSFontService,sans-serif" font-style="normal" font-variant="normal" font-weight="400" font-stretch="normal" font-size="14" text-anchor="start" direction="ltr" writing-mode="lr-tb" unicode-bidi="normal" text-decoration="none" transform="matrix(0.628134 0 0 0.62756 194.289 175)">′</text><text fill="#00B050" fill-opacity="1" font-family="Cambria Math,Cambria Math_MSFontService,sans-serif" font-style="normal" font-variant="normal" font-weight="400" font-stretch="normal" font-size="18" text-anchor="start" direction="ltr" writing-mode="lr-tb" unicode-bidi="normal" text-decoration="none" transform="matrix(0.628134 0 0 0.62756 204.275 253)">𝑝</text><text fill="#00B050" fill-opacity="1" font-family="Cambria Math,Cambria Math_MSFontService,sans-serif" font-style="normal" font-variant="normal" font-weight="400" font-stretch="normal" font-size="14" text-anchor="start" direction="ltr" writing-mode="lr-tb" unicode-bidi="normal" text-decoration="none" transform="matrix(0.628134 0 0 0.62756 210.199 255)">𝑦𝑙𝑑</text><text fill="#00B050" fill-opacity="1" font-family="Cambria Math,Cambria Math_MSFontService,sans-serif" font-style="normal" font-variant="normal" font-weight="400" font-stretch="normal" font-size="14" text-anchor="start" direction="ltr" writing-mode="lr-tb" unicode-bidi="normal" text-decoration="none" transform="matrix(0.628134 0 0 0.62756 210.808 249)">′</text><path d="M101.037 299.974 220.584 299.974" stroke="#7F7F7F" stroke-width="1.25512" stroke-linecap="square" stroke-linejoin="miter" stroke-miterlimit="8" stroke-dasharray="3.76536 1.25512" stroke-opacity="1" fill="none" fill-rule="evenodd" transform="matrix(1.00091 0 0 1 -45.2256 -5.02048)"/><path d="M222.156 189.523 374.026 189.523 374.026 212.115 222.156 212.115Z" fill="#FFFFFF" fill-rule="nonzero" fill-opacity="1" transform="matrix(1.00091 0 0 1 -45.2256 -5.02048)"/><text fill="#00B050" fill-opacity="1" font-family="Arial,Arial_MSFontService,sans-serif" font-style="normal" font-variant="normal" font-weight="400" font-stretch="normal" font-size="18" text-anchor="start" direction="ltr" writing-mode="lr-tb" unicode-bidi="normal" text-decoration="none" transform="matrix(0.628134 0 0 0.62756 186.486 200)">Expansion of yield surface</text><text fill="#000000" fill-opacity="1" font-family="Arial,Arial_MSFontService,sans-serif" font-style="normal" font-variant="normal" font-weight="400" font-stretch="normal" font-size="22" text-anchor="start" direction="ltr" writing-mode="lr-tb" unicode-bidi="normal" text-decoration="none" transform="matrix(0.628134 0 0 0.62756 29.489 447)">(b) Hypothetical equivalent isotropic compression plane</text><text fill="#000000" fill-opacity="1" font-family="Arial,Arial_MSFontService,sans-serif" font-style="normal" font-variant="normal" font-weight="400" font-stretch="normal" font-size="22" text-anchor="start" direction="ltr" writing-mode="lr-tb" unicode-bidi="normal" text-decoration="none" transform="matrix(0.628134 0 0 0.62756 108.3 225)">(a) Effective stress plane</text><path d="M0 0 230.464 92.9474" stroke="#F6C6AD" stroke-width="1.88268" stroke-linecap="butt" stroke-linejoin="miter" stroke-miterlimit="8" stroke-opacity="1" fill="none" fill-rule="evenodd" transform="matrix(1.00091 0 0 -1 25.4394 163.548)"/><path d="M0 0 29.6742 46.6955" stroke="#E97132" stroke-width="1.88268" stroke-linecap="butt" stroke-linejoin="miter" stroke-miterlimit="8" stroke-opacity="1" fill="none" fill-rule="evenodd" transform="matrix(1.00091 0 0 -1 142.272 151.812)"/><text fill="#000000" fill-opacity="1" font-family="Cambria Math,Cambria Math_MSFontService,sans-serif" font-style="normal" font-variant="normal" font-weight="400" font-stretch="normal" font-size="22" text-anchor="start" direction="ltr" writing-mode="lr-tb" unicode-bidi="normal" text-decoration="none" transform="matrix(0.628134 0 0 0.62756 123.147 156)">𝑂</text><text fill="#000000" fill-opacity="1" font-family="Cambria Math,Cambria Math_MSFontService,sans-serif" font-style="normal" font-variant="normal" font-weight="400" font-stretch="normal" font-size="22" text-anchor="start" direction="ltr" writing-mode="lr-tb" unicode-bidi="normal" text-decoration="none" transform="matrix(0.628134 0 0 0.62756 172.207 95)">𝐴</text><text fill="#000000" fill-opacity="1" font-family="Cambria Math,Cambria Math_MSFontService,sans-serif" font-style="normal" font-variant="normal" font-weight="400" font-stretch="normal" font-size="22" text-anchor="start" direction="ltr" writing-mode="lr-tb" unicode-bidi="normal" text-decoration="none" transform="matrix(0.628134 0 0 0.62756 212.699 103)">𝐵</text><path d="M182.62 157.518C182.62 156.131 183.885 155.007 185.444 155.007 187.004 155.007 188.268 156.131 188.268 157.518 188.268 158.904 187.004 160.028 185.444 160.028 183.885 160.028 182.62 158.904 182.62 157.518Z" stroke="#000000" stroke-width="1.25512" stroke-linecap="butt" stroke-linejoin="miter" stroke-miterlimit="8" stroke-opacity="1" fill="#AEAEAE" fill-rule="evenodd" fill-opacity="1" transform="matrix(1.00091 0 0 1 -45.2256 -5.02048)"/><path d="M215.881 107.94C215.881 106.554 217.145 105.43 218.705 105.43 220.264 105.43 221.529 106.554 221.529 107.94 221.529 109.327 220.264 110.451 218.705 110.451 217.145 110.451 215.881 109.327 215.881 107.94Z" stroke="#000000" stroke-width="1.25512" stroke-linecap="butt" stroke-linejoin="miter" stroke-miterlimit="8" stroke-opacity="1" fill="#AEAEAE" fill-rule="evenodd" fill-opacity="1" transform="matrix(1.00091 0 0 1 -45.2256 -5.02048)"/><path d="M262.948 90.6825C262.948 89.123 264.072 87.8585 265.458 87.8585 266.844 87.8585 267.968 89.123 267.968 90.6825 267.968 92.242 266.844 93.5065 265.458 93.5065 264.072 93.5065 262.948 92.242 262.948 90.6825Z" stroke="#000000" stroke-width="1.25512" stroke-linecap="butt" stroke-linejoin="miter" stroke-miterlimit="8" stroke-opacity="1" fill="#AEAEAE" fill-rule="evenodd" fill-opacity="1" transform="matrix(1.00091 0 0 1 -45.2256 -5.02048)"/><path d="M99.7821 299.66C99.7821 298.101 100.906 296.836 102.292 296.836 103.679 296.836 104.803 298.101 104.803 299.66 104.803 301.22 103.679 302.484 102.292 302.484 100.906 302.484 99.7821 301.22 99.7821 299.66Z" stroke="#000000" stroke-width="1.25512" stroke-linecap="butt" stroke-linejoin="miter" stroke-miterlimit="8" stroke-opacity="1" fill="#AEAEAE" fill-rule="evenodd" fill-opacity="1" transform="matrix(1.00091 0 0 1 -45.2256 -5.02048)"/><path d="M217.763 299.974C217.763 298.588 218.887 297.464 220.274 297.464 221.66 297.464 222.784 298.588 222.784 299.974 222.784 301.36 221.66 302.484 220.274 302.484 218.887 302.484 217.763 301.36 217.763 299.974Z" stroke="#000000" stroke-width="1.25512" stroke-linecap="butt" stroke-linejoin="miter" stroke-miterlimit="8" stroke-opacity="1" fill="#AEAEAE" fill-rule="evenodd" fill-opacity="1" transform="matrix(1.00091 0 0 1 -45.2256 -5.02048)"/><path d="M242.238 314.408C242.238 313.022 243.503 311.898 245.062 311.898 246.622 311.898 247.886 313.022 247.886 314.408 247.886 315.794 246.622 316.918 245.062 316.918 243.503 316.918 242.238 315.794 242.238 314.408Z" stroke="#000000" stroke-width="1.25512" stroke-linecap="butt" stroke-linejoin="miter" stroke-miterlimit="8" stroke-opacity="1" fill="#AEAEAE" fill-rule="evenodd" fill-opacity="1" transform="matrix(1.00091 0 0 1 -45.2256 -5.02048)"/><text fill="#000000" fill-opacity="1" font-family="Cambria Math,Cambria Math_MSFontService,sans-serif" font-style="normal" font-variant="normal" font-weight="400" font-stretch="normal" font-size="22" text-anchor="start" direction="ltr" writing-mode="lr-tb" unicode-bidi="normal" text-decoration="none" transform="matrix(0.628134 0 0 0.62756 54.9837 283)">𝑂</text><text fill="#000000" fill-opacity="1" font-family="Cambria Math,Cambria Math_MSFontService,sans-serif" font-style="normal" font-variant="normal" font-weight="400" font-stretch="normal" font-size="22" text-anchor="start" direction="ltr" writing-mode="lr-tb" unicode-bidi="normal" text-decoration="none" transform="matrix(0.628134 0 0 0.62756 161.192 280)">𝐴</text><text fill="#000000" fill-opacity="1" font-family="Cambria Math,Cambria Math_MSFontService,sans-serif" font-style="normal" font-variant="normal" font-weight="400" font-stretch="normal" font-size="22" text-anchor="start" direction="ltr" writing-mode="lr-tb" unicode-bidi="normal" text-decoration="none" transform="matrix(0.628134 0 0 0.62756 205.533 308)">𝐵</text><text fill="#000000" fill-opacity="1" font-family="Cambria Math,Cambria Math_MSFontService,sans-serif" font-style="normal" font-variant="normal" font-weight="400" font-stretch="normal" font-size="22" text-anchor="start" direction="ltr" writing-mode="lr-tb" unicode-bidi="normal" text-decoration="none" transform="matrix(0.628134 0 0 0.62756 14.4625 631)">𝜀</text><text fill="#000000" fill-opacity="1" font-family="Cambria Math,Cambria Math_MSFontService,sans-serif" font-style="normal" font-variant="normal" font-weight="400" font-stretch="normal" font-size="16" text-anchor="start" direction="ltr" writing-mode="lr-tb" unicode-bidi="normal" text-decoration="none" transform="matrix(0.628134 0 0 0.62756 20.4991 633)">nv</text><path d="M45.8119 485.104 381.096 485.104 381.096 486.359 45.8119 486.359ZM379.84 483.222 387.37 485.732 379.84 488.242Z" fill="#000000" fill-rule="nonzero" fill-opacity="1" transform="matrix(1.00091 0 0 1 -45.2256 -5.02048)"/><path d="M69.0317 471.926 69.0317 605.325 67.7765 605.325 67.7765 471.926ZM70.9143 604.07 68.4041 611.6 65.8939 604.07Z" fill="#000000" fill-rule="nonzero" fill-opacity="1" transform="matrix(1.00091 0 0 1 -45.2256 -5.02048)"/><path d="M161.911 485.732 366.032 606.068" stroke="#000000" stroke-width="1.25512" stroke-linecap="butt" stroke-linejoin="miter" stroke-miterlimit="8" stroke-opacity="1" fill="none" fill-rule="evenodd" transform="matrix(1.00091 0 0 1 -45.2256 -5.02048)"/><text fill="#000000" fill-opacity="1" font-family="Arial,Arial_MSFontService,sans-serif" font-style="normal" font-variant="normal" font-weight="400" font-stretch="normal" font-size="18" text-anchor="start" direction="ltr" writing-mode="lr-tb" unicode-bidi="normal" text-decoration="none" transform="matrix(0.628134 0 0 0.62756 329.973 613)">ICL</text><text fill="#000000" fill-opacity="1" font-family="Arial,Arial_MSFontService,sans-serif" font-style="normal" font-variant="normal" font-weight="400" font-stretch="normal" font-size="22" text-anchor="start" direction="ltr" writing-mode="lr-tb" unicode-bidi="normal" text-decoration="none" transform="matrix(0.628134 0 0 0.62756 94.5448 662)">(c) Observed compressive state</text><text fill="#000000" fill-opacity="1" font-family="Cambria Math,Cambria Math_MSFontService,sans-serif" font-style="normal" font-variant="normal" font-weight="400" font-stretch="normal" font-size="22" text-anchor="start" direction="ltr" writing-mode="lr-tb" unicode-bidi="normal" text-decoration="none" transform="matrix(0.628134 0 0 0.62756 349.832 485)">ln</text><text fill="#000000" fill-opacity="1" font-family="Cambria Math,Cambria Math_MSFontService,sans-serif" font-style="normal" font-variant="normal" font-weight="400" font-stretch="normal" font-size="22" text-anchor="start" direction="ltr" writing-mode="lr-tb" unicode-bidi="normal" text-decoration="none" transform="matrix(0.628134 0 0 0.62756 360.824 485)"> </text><text fill="#000000" fill-opacity="1" font-family="Cambria Math,Cambria Math_MSFontService,sans-serif" font-style="normal" font-variant="normal" font-weight="400" font-stretch="normal" font-size="22" text-anchor="start" direction="ltr" writing-mode="lr-tb" unicode-bidi="normal" text-decoration="none" transform="matrix(0.628134 0 0 0.62756 363.65 485)">𝑝</text><text fill="#000000" fill-opacity="1" font-family="Cambria Math,Cambria Math_MSFontService,sans-serif" font-style="normal" font-variant="normal" font-weight="400" font-stretch="normal" font-size="16" text-anchor="start" direction="ltr" writing-mode="lr-tb" unicode-bidi="normal" text-decoration="none" transform="matrix(0.628134 0 0 0.62756 371.326 479)">′</text><path d="M102.292 518.993C102.292 517.606 103.416 516.482 104.803 516.482 106.189 516.482 107.313 517.606 107.313 518.993 107.313 520.379 106.189 521.503 104.803 521.503 103.416 521.503 102.292 520.379 102.292 518.993Z" stroke="#000000" stroke-width="1.25512" stroke-linecap="butt" stroke-linejoin="miter" stroke-miterlimit="8" stroke-opacity="1" fill="#AEAEAE" fill-rule="evenodd" fill-opacity="1" transform="matrix(1.00091 0 0 1 -45.2256 -5.02048)"/><path d="M187.013 530.916C187.013 529.53 188.278 528.406 189.837 528.406 191.397 528.406 192.661 529.53 192.661 530.916 192.661 532.302 191.397 533.426 189.837 533.426 188.278 533.426 187.013 532.302 187.013 530.916Z" stroke="#000000" stroke-width="1.25512" stroke-linecap="butt" stroke-linejoin="miter" stroke-miterlimit="8" stroke-opacity="1" fill="#AEAEAE" fill-rule="evenodd" fill-opacity="1" transform="matrix(1.00091 0 0 1 -45.2256 -5.02048)"/><text fill="#000000" fill-opacity="1" font-family="Cambria Math,Cambria Math_MSFontService,sans-serif" font-style="normal" font-variant="normal" font-weight="400" font-stretch="normal" font-size="22" text-anchor="start" direction="ltr" writing-mode="lr-tb" unicode-bidi="normal" text-decoration="none" transform="matrix(0.628134 0 0 0.62756 57.4824 503)">𝑂</text><text fill="#000000" fill-opacity="1" font-family="Cambria Math,Cambria Math_MSFontService,sans-serif" font-style="normal" font-variant="normal" font-weight="400" font-stretch="normal" font-size="22" text-anchor="start" direction="ltr" writing-mode="lr-tb" unicode-bidi="normal" text-decoration="none" transform="matrix(0.628134 0 0 0.62756 130.82 511)">𝐴</text><text fill="#000000" fill-opacity="1" font-family="Cambria Math,Cambria Math_MSFontService,sans-serif" font-style="normal" font-variant="normal" font-weight="400" font-stretch="normal" font-size="22" text-anchor="start" direction="ltr" writing-mode="lr-tb" unicode-bidi="normal" text-decoration="none" transform="matrix(0.628134 0 0 0.62756 178.697 536)">𝐵</text><path d="M221.529 550.998C221.529 549.612 222.793 548.488 224.353 548.488 225.912 548.488 227.177 549.612 227.177 550.998 227.177 552.384 225.912 553.508 224.353 553.508 222.793 553.508 221.529 552.384 221.529 550.998Z" stroke="#000000" stroke-width="1.25512" stroke-linecap="butt" stroke-linejoin="miter" stroke-miterlimit="8" stroke-opacity="1" fill="#AEAEAE" fill-rule="evenodd" fill-opacity="1" transform="matrix(1.00091 0 0 1 -45.2256 -5.02048)"/><text fill="#000000" fill-opacity="1" font-family="Arial,Arial_MSFontService,sans-serif" font-style="normal" font-variant="normal" font-weight="400" font-stretch="normal" font-size="18" text-anchor="start" direction="ltr" writing-mode="lr-tb" unicode-bidi="normal" text-decoration="none" transform="matrix(0.628134 0 0 0.62756 211.326 613)">1D compression line</text><path d="M108.882 519.934 187.646 531.197" stroke="#E97132" stroke-width="1.88268" stroke-linecap="butt" stroke-linejoin="miter" stroke-miterlimit="8" stroke-opacity="1" fill="none" fill-rule="evenodd" transform="matrix(1.00091 0 0 1 -45.2256 -5.02048)"/><path d="M191.72 533.113 221.822 551.206" stroke="#E97132" stroke-width="1.88268" stroke-linecap="butt" stroke-linejoin="miter" stroke-miterlimit="8" stroke-opacity="1" fill="none" fill-rule="evenodd" transform="matrix(1.00091 0 0 1 -45.2256 -5.02048)"/><path d="M0 0 41.349 16.8227" stroke="#E97132" stroke-width="1.88268" stroke-linecap="butt" stroke-linejoin="miter" stroke-miterlimit="8" stroke-opacity="1" fill="none" fill-rule="evenodd" transform="matrix(1.00091 0 0 -1 176.82 103.112)"/><path d="M113.588 133.67 113.588 151.443" stroke="#000000" stroke-width="1.25512" stroke-linecap="butt" stroke-linejoin="miter" stroke-miterlimit="8" stroke-opacity="1" fill="none" fill-rule="evenodd" transform="matrix(1.00091 0 0 1 -45.2256 -5.02048)"/><text fill="#000000" fill-opacity="1" font-family="Arial,Arial_MSFontService,sans-serif" font-style="normal" font-variant="normal" font-weight="400" font-stretch="normal" font-size="16" text-anchor="start" direction="ltr" writing-mode="lr-tb" unicode-bidi="normal" text-decoration="none" transform="matrix(0.628134 0 0 0.62756 53.2883 109)">1</text><text fill="#000000" fill-opacity="1" font-family="Arial,Arial_MSFontService,sans-serif" font-style="normal" font-variant="normal" font-weight="400" font-stretch="normal" font-size="16" text-anchor="start" direction="ltr" writing-mode="lr-tb" unicode-bidi="normal" text-decoration="none" transform="matrix(0.628134 0 0 0.62756 58.9416 109)">-</text><text fill="#000000" fill-opacity="1" font-family="Arial,Arial_MSFontService,sans-serif" font-style="normal" font-variant="normal" font-weight="400" font-stretch="normal" font-size="16" text-anchor="start" direction="ltr" writing-mode="lr-tb" unicode-bidi="normal" text-decoration="none" transform="matrix(0.628134 0 0 0.62756 62.2393 109)">D compression path</text><text fill="#000000" fill-opacity="1" font-family="Arial,Arial_MSFontService,sans-serif" font-style="normal" font-variant="normal" font-weight="400" font-stretch="normal" font-size="16" text-anchor="start" direction="ltr" writing-mode="lr-tb" unicode-bidi="normal" text-decoration="none" transform="matrix(0.628134 0 0 0.62756 152.062 109)">:</text><text fill="#000000" fill-opacity="1" font-family="Arial,Arial_MSFontService,sans-serif" font-style="normal" font-variant="normal" font-weight="400" font-stretch="normal" font-size="16" text-anchor="start" direction="ltr" writing-mode="lr-tb" unicode-bidi="normal" text-decoration="none" transform="matrix(0.628134 0 0 0.62756 53.2883 120)">Slope: </text><text fill="#000000" fill-opacity="1" font-family="Cambria Math,Cambria Math_MSFontService,sans-serif" font-style="normal" font-variant="normal" font-weight="400" font-stretch="normal" font-size="16" text-anchor="start" direction="ltr" writing-mode="lr-tb" unicode-bidi="normal" text-decoration="none" transform="matrix(0.628134 0 0 0.62756 84.8521 120)">𝜂</text><text fill="#000000" fill-opacity="1" font-family="Cambria Math,Cambria Math_MSFontService,sans-serif" font-style="normal" font-variant="normal" font-weight="400" font-stretch="normal" font-size="12" text-anchor="start" direction="ltr" writing-mode="lr-tb" unicode-bidi="normal" text-decoration="none" transform="matrix(0.628134 0 0 0.62756 90.1912 122)">𝐾𝑛𝑐</text></g></g></g></g></g></svg>