<svg width="382" height="284" xmlns="http://www.w3.org/2000/svg" xmlns:xlink="http://www.w3.org/1999/xlink" xml:space="preserve" overflow="hidden"><g><g><path d="M0 0 202.992 156.945" stroke="#404040" stroke-width="1.43355" stroke-linecap="butt" stroke-linejoin="miter" stroke-miterlimit="8" stroke-dasharray="5.7342 4.30066" stroke-opacity="1" fill="none" fill-rule="evenodd" transform="matrix(1.00109 0 0 -1 36.4779 234.669)"/><path d="M549.077 289.695 873.506 289.695 873.506 291.129 549.077 291.129ZM872.071 287.545 886.408 290.412 872.071 293.279Z" fill="#000000" fill-rule="nonzero" fill-opacity="1" transform="matrix(1.00109 0 0 1 -547.951 -55.674)"/><path d="M0.885986-0.609105 50.5132 71.5768 48.7413 72.795-0.885986 0.609105ZM52.3589 68.5685 53.6879 78.0928 45.2711 73.4412Z" fill="#E97132" fill-rule="nonzero" fill-opacity="1" transform="matrix(1.00109 0 0 -1 85.95 232.76)"/><path d="M0.716778-3.61415e-07 0.716884 210.965-0.716672 210.965-0.716778 3.61415e-07ZM2.86721 209.531 0.000112878 223.867-2.867 209.531Z" fill="#000000" fill-rule="nonzero" fill-opacity="1" transform="matrix(1.00109 0 0 -1 36.4779 258.115)"/><text fill="#000000" fill-opacity="1" font-family="Cambria Math,Cambria Math_MSFontService,sans-serif" font-style="normal" font-variant="normal" font-weight="400" font-stretch="normal" font-size="48" text-anchor="start" direction="ltr" writing-mode="lr-tb" unicode-bidi="normal" text-decoration="none" transform="matrix(0.313115 0 0 0.312775 31.969 21)">𝑞</text><text fill="#000000" fill-opacity="1" font-family="Arial,Arial_MSFontService,sans-serif" font-style="normal" font-variant="normal" font-weight="400" font-stretch="normal" font-size="37" text-anchor="start" direction="ltr" writing-mode="lr-tb" unicode-bidi="normal" text-decoration="none" transform="matrix(0.313115 0 0 0.312775 249.815 75)">K0 line</text><text fill="#000000" fill-opacity="1" font-family="Cambria Math,Cambria Math_MSFontService,sans-serif" font-style="normal" font-variant="normal" font-weight="400" font-stretch="normal" font-size="48" text-anchor="start" direction="ltr" writing-mode="lr-tb" unicode-bidi="normal" text-decoration="none" transform="matrix(0.313115 0 0 0.312775 356.982 239)">𝑝′</text><text fill="#000000" fill-opacity="1" font-family="Arial,Arial_MSFontService,sans-serif" font-style="normal" font-variant="normal" font-weight="400" font-stretch="normal" font-size="37" text-anchor="start" direction="ltr" writing-mode="lr-tb" unicode-bidi="normal" text-decoration="none" transform="matrix(0.313115 0 0 0.312775 148.432 162)">Yield point</text><path d="M629.46 290.568C629.46 288.927 630.862 287.597 632.588 287.597 634.315 287.597 635.716 288.927 635.716 290.568 635.716 292.209 634.315 293.54 632.588 293.54 630.862 293.54 629.46 292.209 629.46 290.568Z" stroke="#000000" stroke-width="1.43355" stroke-linecap="butt" stroke-linejoin="miter" stroke-miterlimit="8" stroke-opacity="1" fill="#AEAEAE" fill-rule="evenodd" fill-opacity="1" transform="matrix(1.00109 0 0 1 -547.951 -55.674)"/><path d="M0.655624-0.852138 73.1597 54.9318 71.8486 56.6358-0.655624 0.852138ZM73.9904 51.501 78.1851 60.1545 68.7455 58.3182Z" fill="#F6C6AD" fill-rule="nonzero" fill-opacity="1" transform="matrix(1.00109 0 0 -1 147.007 149.139)"/><path d="M0 0 0.000112878 78.201" stroke="#404040" stroke-width="1.43355" stroke-linecap="square" stroke-linejoin="miter" stroke-miterlimit="8" stroke-dasharray="4.30066 1.43355" stroke-opacity="1" fill="none" fill-rule="evenodd" transform="matrix(1.00109 0 0 -1 142.624 232.556)"/><path d="M687.011 206.901C687.011 205.173 688.34 203.773 689.982 203.773 691.624 203.773 692.954 205.173 692.954 206.901 692.954 208.628 691.624 210.029 689.982 210.029 688.34 210.029 687.011 208.628 687.011 206.901Z" stroke="#000000" stroke-width="1.43355" stroke-linecap="butt" stroke-linejoin="miter" stroke-miterlimit="8" stroke-opacity="1" fill="#AEAEAE" fill-rule="evenodd" fill-opacity="1" transform="matrix(1.00109 0 0 1 -547.951 -55.674)"/><text fill="#000000" fill-opacity="1" font-family="Arial,Arial_MSFontService,sans-serif" font-style="normal" font-variant="normal" font-weight="400" font-stretch="normal" font-size="41" text-anchor="start" direction="ltr" writing-mode="lr-tb" unicode-bidi="normal" text-decoration="none" transform="matrix(0.313115 0 0 0.312775 59.2726 42)">Effective stress path during monotonic loading</text><text fill="#000000" fill-opacity="1" font-family="Arial,Arial_MSFontService,sans-serif" font-style="normal" font-variant="normal" font-weight="400" font-stretch="normal" font-size="41" text-anchor="start" direction="ltr" writing-mode="lr-tb" unicode-bidi="normal" text-decoration="none" transform="matrix(0.313115 0 0 0.312775 59.2726 58)">under 1</text><text fill="#000000" fill-opacity="1" font-family="Arial,Arial_MSFontService,sans-serif" font-style="normal" font-variant="normal" font-weight="400" font-stretch="normal" font-size="41" text-anchor="start" direction="ltr" writing-mode="lr-tb" unicode-bidi="normal" text-decoration="none" transform="matrix(0.313115 0 0 0.312775 103.043 58)">-</text><text fill="#000000" fill-opacity="1" font-family="Arial,Arial_MSFontService,sans-serif" font-style="normal" font-variant="normal" font-weight="400" font-stretch="normal" font-size="41" text-anchor="start" direction="ltr" writing-mode="lr-tb" unicode-bidi="normal" text-decoration="none" transform="matrix(0.313115 0 0 0.312775 107.348 58)">D compression</text><path d="M635.716 289.337 679.867 289.337 679.867 291.487 635.716 291.487ZM678.432 286.111 687.033 290.412 678.432 294.713Z" fill="#F2AA84" fill-rule="nonzero" fill-opacity="1" transform="matrix(1.00109 0 0 1 -547.951 -55.674)"/><path d="M687.011 291.35C687.011 289.623 688.34 288.222 689.982 288.222 691.624 288.222 692.954 289.623 692.954 291.35 692.954 293.078 691.624 294.478 689.982 294.478 688.34 294.478 687.011 293.078 687.011 291.35Z" stroke="#000000" stroke-width="1.43355" stroke-linecap="butt" stroke-linejoin="miter" stroke-miterlimit="8" stroke-opacity="1" fill="#AEAEAE" fill-rule="evenodd" fill-opacity="1" transform="matrix(1.00109 0 0 1 -547.951 -55.674)"/><text fill="#000000" fill-opacity="1" font-family="Arial,Arial_MSFontService,sans-serif" font-style="normal" font-variant="normal" font-weight="400" font-stretch="normal" font-size="41" text-anchor="start" direction="ltr" writing-mode="lr-tb" unicode-bidi="normal" text-decoration="none" transform="matrix(0.313115 0 0 0.312775 86.9144 257)">Corresponding</text><text fill="#000000" fill-opacity="1" font-family="Arial,Arial_MSFontService,sans-serif" font-style="normal" font-variant="normal" font-weight="400" font-stretch="normal" font-size="41" text-anchor="start" direction="ltr" writing-mode="lr-tb" unicode-bidi="normal" text-decoration="none" transform="matrix(0.313115 0 0 0.312775 175.172 257)">increase</text><text fill="#000000" fill-opacity="1" font-family="Arial,Arial_MSFontService,sans-serif" font-style="normal" font-variant="normal" font-weight="400" font-stretch="normal" font-size="41" text-anchor="start" direction="ltr" writing-mode="lr-tb" unicode-bidi="normal" text-decoration="none" transform="matrix(0.313115 0 0 0.312775 97.6761 273)">in the confining</text><text fill="#000000" fill-opacity="1" font-family="Arial,Arial_MSFontService,sans-serif" font-style="normal" font-variant="normal" font-weight="400" font-stretch="normal" font-size="41" text-anchor="start" direction="ltr" writing-mode="lr-tb" unicode-bidi="normal" text-decoration="none" transform="matrix(0.313115 0 0 0.312775 188.088 273)">pressur</text><text fill="#000000" fill-opacity="1" font-family="Arial,Arial_MSFontService,sans-serif" font-style="normal" font-variant="normal" font-weight="400" font-stretch="normal" font-size="41" text-anchor="start" direction="ltr" writing-mode="lr-tb" unicode-bidi="normal" text-decoration="none" transform="matrix(0.313115 0 0 0.312775 231.141 273)">e</text></g></g></svg>