<svg width="1925" height="1875" xmlns="http://www.w3.org/2000/svg" xmlns:xlink="http://www.w3.org/1999/xlink" xml:space="preserve" overflow="hidden"><g transform="translate(-1242 -100)"><g><g><g><g><text fill="#000000" fill-opacity="1" font-family="Arial,Arial_MSFontService,sans-serif" font-style="normal" font-variant="normal" font-weight="400" font-stretch="normal" font-size="55" text-anchor="start" direction="ltr" writing-mode="lr-tb" unicode-bidi="normal" text-decoration="none" transform="matrix(0.616811 0 0 0.617207 1719.24 954)">EPWP measurement</text><path d="M230.379 299.462 432.693 299.462 432.693 781.807 230.379 781.807Z" stroke="#042433" stroke-width="2.82705" stroke-linecap="butt" stroke-linejoin="miter" stroke-miterlimit="8" stroke-dasharray="11.3082 8.48115" stroke-opacity="1" fill="none" fill-rule="nonzero" transform="matrix(1 0 0 1.00064 1229.43 29.0834)"/><path d="M230.379 224.211 432.693 224.211 432.693 273.556 230.379 273.556Z" stroke="#042433" stroke-width="2.82705" stroke-linecap="butt" stroke-linejoin="miter" stroke-miterlimit="8" stroke-opacity="1" fill="#595959" fill-rule="nonzero" fill-opacity="1" transform="matrix(1 0 0 1.00064 1229.43 29.0834)"/><path d="M230.379 810.181 432.693 810.181 432.693 859.526 230.379 859.526Z" stroke="#042433" stroke-width="2.82705" stroke-linecap="butt" stroke-linejoin="miter" stroke-miterlimit="8" stroke-opacity="1" fill="#595959" fill-rule="nonzero" fill-opacity="1" transform="matrix(1 0 0 1.00064 1229.43 29.0834)"/><text fill="#000000" fill-opacity="1" font-family="Arial,Arial_MSFontService,sans-serif" font-style="normal" font-variant="normal" font-weight="400" font-stretch="normal" font-size="46" text-anchor="start" direction="ltr" writing-mode="lr-tb" unicode-bidi="normal" text-decoration="none" transform="matrix(0.616811 0 0 0.617207 1334.7 288)">Pedestal</text><path d="M332.949 144.642 332.949 210.162 330.123 210.162 330.122 144.642ZM340.017 207.335 331.536 224.297 323.055 207.335Z" fill="#000000" fill-rule="nonzero" fill-opacity="1" transform="matrix(1 0 0 1.00064 1229.43 29.0834)"/><text fill="#000000" fill-opacity="1" font-family="Cambria Math,Cambria Math_MSFontService,sans-serif" font-style="normal" font-variant="normal" font-weight="400" font-stretch="normal" font-size="55" text-anchor="start" direction="ltr" writing-mode="lr-tb" unicode-bidi="normal" text-decoration="none" transform="matrix(0.616811 0 0 0.617207 1536.03 149)">Δ</text><text fill="#000000" fill-opacity="1" font-family="Cambria Math,Cambria Math_MSFontService,sans-serif" font-style="normal" font-variant="normal" font-weight="400" font-stretch="normal" font-size="55" text-anchor="start" direction="ltr" writing-mode="lr-tb" unicode-bidi="normal" text-decoration="none" transform="matrix(0.616811 0 0 0.617207 1556.17 149)">𝜎</text><text fill="#000000" fill-opacity="1" font-family="Cambria Math,Cambria Math_MSFontService,sans-serif" font-style="normal" font-variant="normal" font-weight="400" font-stretch="normal" font-size="40" text-anchor="start" direction="ltr" writing-mode="lr-tb" unicode-bidi="normal" text-decoration="none" transform="matrix(0.616811 0 0 0.617207 1573.64 157)">𝑎</text><text fill="#000000" fill-opacity="1" font-family="Cambria Math,Cambria Math_MSFontService,sans-serif" font-style="normal" font-variant="normal" font-weight="400" font-stretch="normal" font-size="55" text-anchor="start" direction="ltr" writing-mode="lr-tb" unicode-bidi="normal" text-decoration="none" transform="matrix(0.616811 0 0 0.617207 1265.21 536)">Δ</text><text fill="#000000" fill-opacity="1" font-family="Cambria Math,Cambria Math_MSFontService,sans-serif" font-style="normal" font-variant="normal" font-weight="400" font-stretch="normal" font-size="55" text-anchor="start" direction="ltr" writing-mode="lr-tb" unicode-bidi="normal" text-decoration="none" transform="matrix(0.616811 0 0 0.617207 1285.35 536)">𝜎</text><text fill="#000000" fill-opacity="1" font-family="Cambria Math,Cambria Math_MSFontService,sans-serif" font-style="normal" font-variant="normal" font-weight="400" font-stretch="normal" font-size="40" text-anchor="start" direction="ltr" writing-mode="lr-tb" unicode-bidi="normal" text-decoration="none" transform="matrix(0.616811 0 0 0.617207 1302.83 543)">𝑟</text><text fill="#000000" fill-opacity="1" font-family="Cambria Math,Cambria Math_MSFontService,sans-serif" font-style="normal" font-variant="normal" font-weight="400" font-stretch="normal" font-size="55" text-anchor="start" direction="ltr" writing-mode="lr-tb" unicode-bidi="normal" text-decoration="none" transform="matrix(0.616811 0 0 0.617207 1327.53 536)">=</text><text fill="#000000" fill-opacity="1" font-family="Arial,Arial_MSFontService,sans-serif" font-style="normal" font-variant="normal" font-weight="400" font-stretch="normal" font-size="55" text-anchor="start" direction="ltr" writing-mode="lr-tb" unicode-bidi="normal" text-decoration="none" transform="matrix(0.616811 0 0 0.617207 1362.52 536)">0</text><path d="M4.41044e-06-1.41353 57.2076-1.41335 57.2076 1.41371-4.41044e-06 1.41353ZM54.3807-8.48096 71.3428 0.000222602 54.3806 8.48133Z" fill="#E97132" fill-rule="nonzero" fill-opacity="1" transform="matrix(-1 0 0 1.00064 1661.92 316.393)"/><path d="M226.061 285.712 284.657 285.712 284.657 288.539 226.061 288.539ZM281.831 278.644 298.793 287.125 281.831 295.606Z" fill="#E97132" fill-rule="nonzero" fill-opacity="1" transform="matrix(1 0 0 1.00064 1229.43 29.0834)"/><path d="M4.41044e-06-1.41353 57.2076-1.41335 57.2076 1.41371-4.41044e-06 1.41353ZM54.3807-8.48096 71.3428 0.000222602 54.3806 8.48133Z" fill="#E97132" fill-rule="nonzero" fill-opacity="1" transform="matrix(-1 0 0 1.00064 1661.92 825.589)"/><path d="M226.061 794.582 284.657 794.582 284.657 797.407 226.061 797.407ZM281.831 787.513 298.793 795.994 281.831 804.475Z" fill="#E97132" fill-rule="nonzero" fill-opacity="1" transform="matrix(1 0 0 1.00064 1229.43 29.0834)"/><path d="M435.777 382.731 472.498 579.718" stroke="#404040" stroke-width="2.82705" stroke-linecap="butt" stroke-linejoin="miter" stroke-miterlimit="8" stroke-opacity="1" fill="none" fill-rule="evenodd" transform="matrix(1 0 0 1.00064 1229.43 29.0834)"/><path d="M0 0 39.6179 201.906" stroke="#404040" stroke-width="2.82705" stroke-linecap="butt" stroke-linejoin="miter" stroke-miterlimit="8" stroke-opacity="1" fill="none" fill-rule="evenodd" transform="matrix(1 0 0 -1.00064 1662.12 811.603)"/><text fill="#000000" fill-opacity="1" font-family="Arial,Arial_MSFontService,sans-serif" font-style="normal" font-variant="normal" font-weight="400" font-stretch="normal" font-size="46" text-anchor="start" direction="ltr" writing-mode="lr-tb" unicode-bidi="normal" text-decoration="none" transform="matrix(0.616811 0 0 0.617207 1372.68 875)">Cap</text><path d="M0 0 39.9809 189.204" stroke="#404040" stroke-width="2.82705" stroke-linecap="butt" stroke-linejoin="miter" stroke-miterlimit="8" stroke-opacity="1" fill="none" fill-rule="evenodd" transform="matrix(-1 0 0 1.00064 1459.7 411.443)"/><path d="M230.52 781.881 190.903 572.709" stroke="#404040" stroke-width="2.82705" stroke-linecap="butt" stroke-linejoin="miter" stroke-miterlimit="8" stroke-opacity="1" fill="none" fill-rule="evenodd" transform="matrix(1 0 0 1.00064 1229.43 29.0834)"/><path d="M452.431 441.328 520.694 441.328" stroke="#404040" stroke-width="2.82705" stroke-linecap="butt" stroke-linejoin="miter" stroke-miterlimit="8" stroke-opacity="1" fill="none" fill-rule="evenodd" transform="matrix(1 0 0 1.00064 1229.43 29.0834)"/><text fill="#404040" fill-opacity="1" font-family="Arial,Arial_MSFontService,sans-serif" font-style="normal" font-variant="normal" font-weight="400" font-stretch="normal" font-size="46" text-anchor="start" direction="ltr" writing-mode="lr-tb" unicode-bidi="normal" text-decoration="none" transform="matrix(0.616811 0 0 0.617207 1767.63 483)">Non</text><text fill="#404040" fill-opacity="1" font-family="Arial,Arial_MSFontService,sans-serif" font-style="normal" font-variant="normal" font-weight="400" font-stretch="normal" font-size="46" text-anchor="start" direction="ltr" writing-mode="lr-tb" unicode-bidi="normal" text-decoration="none" transform="matrix(0.616811 0 0 0.617207 1819.22 483)">-</text><text fill="#404040" fill-opacity="1" font-family="Arial,Arial_MSFontService,sans-serif" font-style="normal" font-variant="normal" font-weight="400" font-stretch="normal" font-size="46" text-anchor="start" direction="ltr" writing-mode="lr-tb" unicode-bidi="normal" text-decoration="none" transform="matrix(0.616811 0 0 0.617207 1828.76 483)">uniform</text><text fill="#404040" fill-opacity="1" font-family="Arial,Arial_MSFontService,sans-serif" font-style="normal" font-variant="normal" font-weight="400" font-stretch="normal" font-size="46" text-anchor="start" direction="ltr" writing-mode="lr-tb" unicode-bidi="normal" text-decoration="none" transform="matrix(0.616811 0 0 0.617207 1767.63 517)">deformation</text><text fill="#E97132" fill-opacity="1" font-family="Arial,Arial_MSFontService,sans-serif" font-style="normal" font-variant="normal" font-weight="400" font-stretch="normal" font-size="50" text-anchor="start" direction="ltr" writing-mode="lr-tb" unicode-bidi="normal" text-decoration="none" transform="matrix(0.616811 0 0 0.617207 1685.15 828)">Frictional stress</text><path d="M65.6903 525.034 76.9983 525.034 76.9983 527.862 65.6903 527.862ZM85.4795 525.034 96.7881 525.034 96.7881 527.862 85.4795 527.862ZM105.269 525.035 116.577 525.035 116.577 527.862 105.269 527.862ZM125.058 525.035 136.366 525.035 136.366 527.862 125.058 527.862ZM144.847 525.035 150.383 525.035 150.383 527.862 144.847 527.862ZM147.557 517.967 164.519 526.448 147.557 534.929Z" fill="#7F7F7F" fill-rule="nonzero" fill-opacity="1" transform="matrix(1 0 0 1.00064 1229.43 29.0834)"/><path d="M230.379 383.348 432.761 383.348" stroke="#404040" stroke-width="2.82705" stroke-linecap="butt" stroke-linejoin="miter" stroke-miterlimit="8" stroke-opacity="1" fill="none" fill-rule="evenodd" transform="matrix(1 0 0 1.00064 1229.43 29.0834)"/><path d="M237.78 781.807 432.588 781.807" stroke="#404040" stroke-width="2.82705" stroke-linecap="butt" stroke-linejoin="miter" stroke-miterlimit="8" stroke-opacity="1" fill="none" fill-rule="evenodd" transform="matrix(1 0 0 1.00064 1229.43 29.0834)"/><path d="M435.777 338.321 606.128 338.321" stroke="#404040" stroke-width="2.82705" stroke-linecap="butt" stroke-linejoin="miter" stroke-miterlimit="8" stroke-opacity="1" fill="none" fill-rule="evenodd" transform="matrix(1 0 0 1.00064 1229.43 29.0834)"/><text fill="#404040" fill-opacity="1" font-family="Arial,Arial_MSFontService,sans-serif" font-style="normal" font-variant="normal" font-weight="400" font-stretch="normal" font-size="46" text-anchor="start" direction="ltr" writing-mode="lr-tb" unicode-bidi="normal" text-decoration="none" transform="matrix(0.616811 0 0 0.617207 1846.46 378)">Initial shape</text><path d="M317.966 727.528 351.89 727.528 351.89 763.303 317.966 763.303Z" stroke="#000000" stroke-width="2.82705" stroke-linecap="butt" stroke-linejoin="miter" stroke-miterlimit="8" stroke-opacity="1" fill="#D1D1D1" fill-rule="nonzero" fill-opacity="1" transform="matrix(1 0 0 1.00064 1229.43 29.0834)"/><path d="M214.958 553.588 248.883 553.588 248.883 588.746 214.958 588.746Z" stroke="#000000" stroke-width="2.82705" stroke-linecap="butt" stroke-linejoin="miter" stroke-miterlimit="8" stroke-opacity="1" fill="#D1D1D1" fill-rule="nonzero" fill-opacity="1" transform="matrix(1 0 0 1.00064 1229.43 29.0834)"/><text fill="#000000" fill-opacity="1" font-family="Arial,Arial_MSFontService,sans-serif" font-style="italic" font-variant="normal" font-weight="400" font-stretch="normal" font-size="55" text-anchor="start" direction="ltr" writing-mode="lr-tb" unicode-bidi="normal" text-decoration="none" transform="matrix(0.616811 0 0 0.617207 1556.75 739)">a</text><text fill="#000000" fill-opacity="1" font-family="Arial,Arial_MSFontService,sans-serif" font-style="italic" font-variant="normal" font-weight="400" font-stretch="normal" font-size="55" text-anchor="start" direction="ltr" writing-mode="lr-tb" unicode-bidi="normal" text-decoration="none" transform="matrix(0.616811 0 0 0.617207 1493.15 611)">b</text><text fill="#000000" fill-opacity="1" font-family="Arial,Arial_MSFontService,sans-serif" font-style="normal" font-variant="normal" font-weight="400" font-stretch="normal" font-size="55" text-anchor="start" direction="ltr" writing-mode="lr-tb" unicode-bidi="normal" text-decoration="none" transform="matrix(0.616811 0 0 0.617207 1767.63 646)">Loca</text><text fill="#000000" fill-opacity="1" font-family="Arial,Arial_MSFontService,sans-serif" font-style="normal" font-variant="normal" font-weight="400" font-stretch="normal" font-size="55" text-anchor="start" direction="ltr" writing-mode="lr-tb" unicode-bidi="normal" text-decoration="none" transform="matrix(0.616811 0 0 0.617207 1840.78 646)">l</text><text fill="#000000" fill-opacity="1" font-family="Arial,Arial_MSFontService,sans-serif" font-style="normal" font-variant="normal" font-weight="400" font-stretch="normal" font-size="55" text-anchor="start" direction="ltr" writing-mode="lr-tb" unicode-bidi="normal" text-decoration="none" transform="matrix(0.616811 0 0 0.617207 1857.74 646)">elements</text><path d="M0.912658-1.0794 156.215 130.232 154.39 132.391-0.912658 1.0794ZM156.794 125.169 166.096 140.439 149.493 133.804Z" fill="#404040" fill-rule="nonzero" fill-opacity="1" transform="matrix(-1 0 0 1.00064 1747.42 634.255)"/><path d="M518.062 606.6 315.658 573.892 316.109 571.101 518.513 603.81ZM317.772 578.529 301.929 570.241 319.576 567.366Z" fill="#404040" fill-rule="nonzero" fill-opacity="1" transform="matrix(1 0 0 1.00064 1229.43 29.0834)"/><text fill="#000000" fill-opacity="1" font-family="Arial,Arial_MSFontService,sans-serif" font-style="normal" font-variant="normal" font-weight="400" font-stretch="normal" font-size="64" text-anchor="start" direction="ltr" writing-mode="lr-tb" unicode-bidi="normal" text-decoration="none" transform="matrix(0.616811 0 0 0.617207 2067.4 1060)">(a) Global response</text><path d="M0 0 0.000222602 50.2306" stroke="#404040" stroke-width="2.82705" stroke-linecap="butt" stroke-linejoin="miter" stroke-miterlimit="8" stroke-opacity="1" fill="none" fill-rule="evenodd" transform="matrix(1 0 0 -1.00064 1560.97 936.958)"/><path d="M0 0 128.458 0.000222602" stroke="#404040" stroke-width="2.82705" stroke-linecap="butt" stroke-linejoin="miter" stroke-miterlimit="8" stroke-opacity="1" fill="none" fill-rule="evenodd" transform="matrix(-1 0 0 1.00064 1689.42 936.686)"/><path d="M920.59 769.292 1682.92 769.292 1682.92 772.117 920.59 772.117ZM1680.1 765.049 1708.37 770.705 1680.1 776.361Z" fill="#000000" fill-rule="nonzero" fill-opacity="1" transform="matrix(1 0 0 1.00064 1229.43 29.0834)"/><path d="M1.41353-4.66113e-07 1.41374 649.613-1.41331 649.613-1.41353 4.66113e-07ZM5.65431 646.788 0.000222602 675.056-5.65388 646.788Z" fill="#000000" fill-rule="nonzero" fill-opacity="1" transform="matrix(1 0 0 -1.00064 2218.49 909.177)"/><text fill="#000000" fill-opacity="1" font-family="Cambria Math,Cambria Math_MSFontService,sans-serif" font-style="normal" font-variant="normal" font-weight="400" font-stretch="normal" font-size="50" text-anchor="start" direction="ltr" writing-mode="lr-tb" unicode-bidi="normal" text-decoration="none" transform="matrix(0.616811 0 0 0.617207 2209.31 214)">𝑞</text><text fill="#000000" fill-opacity="1" font-family="Cambria Math,Cambria Math_MSFontService,sans-serif" font-style="normal" font-variant="normal" font-weight="400" font-stretch="normal" font-size="48" text-anchor="start" direction="ltr" writing-mode="lr-tb" unicode-bidi="normal" text-decoration="none" transform="matrix(0.616811 0 0 0.617207 2230.09 786)">𝑂</text><path d="M982.271 770.396C982.271 767.158 984.892 764.537 988.131 764.537 991.369 764.537 993.99 767.158 993.99 770.396 993.99 773.635 991.369 776.256 988.131 776.256 984.892 776.256 982.271 773.635 982.271 770.396Z" stroke="#000000" stroke-width="2.82705" stroke-linecap="butt" stroke-linejoin="miter" stroke-miterlimit="8" stroke-opacity="1" fill="#AEAEAE" fill-rule="evenodd" fill-opacity="1" transform="matrix(1 0 0 1.00064 1229.43 29.0834)"/><path d="M1.37444-0.330095 4.0152 10.6655 1.26632 11.3256-1.37444 0.330095ZM5.99578 18.9121 8.63652 29.9076 5.88765 30.5678 3.24689 19.5723ZM10.6171 38.1542 13.2579 49.1498 10.509 49.81 7.86822 38.8145ZM15.2384 57.3964 17.8792 68.392 15.1303 69.0519 12.4896 58.0566ZM19.8598 76.6387 20.6928 80.107 17.9438 80.767 17.1109 77.2987ZM24.1558 76.3679 25.26 105.177 13.1603 79.0085Z" fill="#E97132" fill-rule="nonzero" fill-opacity="1" transform="matrix(1 0 0 -1.00064 2261.05 706.789)"/><text fill="#000000" fill-opacity="1" font-family="Cambria Math,Cambria Math_MSFontService,sans-serif" font-style="normal" font-variant="normal" font-weight="400" font-stretch="normal" font-size="50" text-anchor="start" direction="ltr" writing-mode="lr-tb" unicode-bidi="normal" text-decoration="none" transform="matrix(0.616811 0 0 0.617207 2949.52 809)">𝜀</text><text fill="#000000" fill-opacity="1" font-family="Cambria Math,Cambria Math_MSFontService,sans-serif" font-style="normal" font-variant="normal" font-weight="400" font-stretch="normal" font-size="37" text-anchor="start" direction="ltr" writing-mode="lr-tb" unicode-bidi="normal" text-decoration="none" transform="matrix(0.616811 0 0 0.617207 2963.11 815)">𝑛𝑑</text><path d="M990.906 763.92C1015.31 626.124 1039.71 488.334 1146.83 402.391 1253.95 316.449 1443.79 282.358 1633.62 248.266" stroke="#E97132" stroke-width="4.24057" stroke-linecap="butt" stroke-linejoin="miter" stroke-miterlimit="8" stroke-opacity="1" fill="none" fill-rule="evenodd" transform="matrix(1 0 0 1.00064 1229.43 29.0834)"/><path d="M1124.75 415.73C1124.75 412.494 1127.38 409.871 1130.61 409.871 1133.85 409.871 1136.47 412.494 1136.47 415.73 1136.47 418.967 1133.85 421.59 1130.61 421.59 1127.38 421.59 1124.75 418.967 1124.75 415.73Z" stroke="#000000" stroke-width="2.82705" stroke-linecap="butt" stroke-linejoin="miter" stroke-miterlimit="8" stroke-opacity="1" fill="#AEAEAE" fill-rule="evenodd" fill-opacity="1" transform="matrix(1 0 0 1.00064 1229.43 29.0834)"/><path d="M1483.12 273.556C1483.12 270.149 1485.88 267.387 1489.29 267.387 1492.69 267.387 1495.46 270.149 1495.46 273.556 1495.46 276.962 1492.69 279.724 1489.29 279.724 1485.88 279.724 1483.12 276.962 1483.12 273.556Z" stroke="#000000" stroke-width="2.82705" stroke-linecap="butt" stroke-linejoin="miter" stroke-miterlimit="8" stroke-opacity="1" fill="#AEAEAE" fill-rule="evenodd" fill-opacity="1" transform="matrix(1 0 0 1.00064 1229.43 29.0834)"/><text fill="#000000" fill-opacity="1" font-family="Cambria Math,Cambria Math_MSFontService,sans-serif" font-style="normal" font-variant="normal" font-weight="400" font-stretch="normal" font-size="48" text-anchor="start" direction="ltr" writing-mode="lr-tb" unicode-bidi="normal" text-decoration="none" transform="matrix(0.616811 0 0 0.617207 2342.54 420)">𝑃</text><text fill="#000000" fill-opacity="1" font-family="Cambria Math,Cambria Math_MSFontService,sans-serif" font-style="normal" font-variant="normal" font-weight="400" font-stretch="normal" font-size="48" text-anchor="start" direction="ltr" writing-mode="lr-tb" unicode-bidi="normal" text-decoration="none" transform="matrix(0.616811 0 0 0.617207 2701.89 276)">𝑄</text><text fill="#000000" fill-opacity="1" font-family="Arial,Arial_MSFontService,sans-serif" font-style="normal" font-variant="normal" font-weight="400" font-stretch="normal" font-size="55" text-anchor="start" direction="ltr" writing-mode="lr-tb" unicode-bidi="normal" text-decoration="none" transform="matrix(0.616811 0 0 0.617207 2548.28 396)">Divergent response</text><text fill="#000000" fill-opacity="1" font-family="Arial,Arial_MSFontService,sans-serif" font-style="italic" font-variant="normal" font-weight="400" font-stretch="normal" font-size="55" text-anchor="start" direction="ltr" writing-mode="lr-tb" unicode-bidi="normal" text-decoration="none" transform="matrix(0.616811 0 0 0.617207 1773.23 694)">a</text><text fill="#000000" fill-opacity="1" font-family="Arial,Arial_MSFontService,sans-serif" font-style="normal" font-variant="normal" font-weight="400" font-stretch="normal" font-size="55" text-anchor="start" direction="ltr" writing-mode="lr-tb" unicode-bidi="normal" text-decoration="none" transform="matrix(0.616811 0 0 0.617207 1791.96 694)">: constrained zone</text><text fill="#000000" fill-opacity="1" font-family="Arial,Arial_MSFontService,sans-serif" font-style="italic" font-variant="normal" font-weight="400" font-stretch="normal" font-size="55" text-anchor="start" direction="ltr" writing-mode="lr-tb" unicode-bidi="normal" text-decoration="none" transform="matrix(0.616811 0 0 0.617207 1773.23 755)">b</text><text fill="#000000" fill-opacity="1" font-family="Arial,Arial_MSFontService,sans-serif" font-style="normal" font-variant="normal" font-weight="400" font-stretch="normal" font-size="55" text-anchor="start" direction="ltr" writing-mode="lr-tb" unicode-bidi="normal" text-decoration="none" transform="matrix(0.616811 0 0 0.617207 1791.96 755)">: unconstrained zone</text></g></g></g><g><g><g><path d="M1477.32 580.626 1461 581.331 1461.02 581.325 1453.03 581.794 1453.07 581.788 1445.28 582.386 1445.33 582.386 1437.81 583.165 1437.88 583.159 1430.69 584.169 1430.78 584.153 1424.01 585.433 1424.12 585.411 1417.81 587.008 1417.96 586.963 1412.19 588.927 1412.38 588.853 1407.21 591.229 1407.43 591.105 1402.95 593.932 1403.2 593.74 1399.45 597.069 1399.65 596.872 1398.07 598.734 1398.19 598.576 1396.83 600.579 1396.94 600.399 1395.79 602.554 1395.88 602.362 1394.96 604.67 1395.03 604.473 1394.35 606.939 1394.39 606.741 1393.95 609.371 1393.97 609.179 1393.79 611.984 1393.79 611.803 1393.87 614.783 1393.86 614.625 1394.2 617.785 1394.18 617.644 1394.78 620.979 1394.76 620.866 1395.62 624.37 1395.59 624.274 1396.69 627.942 1396.66 627.863 1398 631.689 1397.97 631.621 1399.53 635.6 1399.51 635.543 1401.29 639.674 1401.27 639.618 1403.26 643.889 1403.23 643.827 1407.82 652.771 1407.78 652.704 1413.1 662.15 1413.07 662.099 1419.07 672.003 1419.05 671.958 1425.65 682.267 1425.63 682.239 1432.77 692.91 1432.75 692.888 1440.37 703.874 1440.35 703.858 1448.37 715.121 1448.36 715.104 1456.72 726.599 1456.71 726.582 1465.34 738.257 1465.33 738.252 1474.16 750.057 1474.16 750.051 1484.36 763.577 1481.26 765.914 1471.05 752.387 1462.22 740.565 1453.59 728.884 1445.22 717.378 1437.19 706.098 1429.55 695.083 1422.39 684.378 1415.76 674.034 1409.74 664.086 1404.38 654.577 1399.76 645.565 1397.74 641.237 1395.93 637.05 1394.35 633.004 1392.98 629.099 1391.86 625.341 1390.98 621.729 1390.35 618.27 1389.99 614.963 1389.91 611.815 1390.11 608.829 1390.58 606.002 1391.32 603.333 1392.32 600.828 1393.56 598.486 1395.04 596.307 1396.77 594.259 1400.75 590.732 1405.47 587.753 1410.85 585.287 1416.78 583.267 1423.22 581.636 1430.11 580.332 1437.37 579.311 1444.95 578.521 1452.79 577.917 1460.82 577.454 1477.15 576.755ZM1487.45 758.008 1490.6 775.067 1475.06 767.353Z" fill="#E97132" fill-rule="nonzero" fill-opacity="1" transform="matrix(1 0 0 1.00009 1062.14 857.408)"/><path d="M1261.49 352.406 1719.61 854.791" stroke="#AEAEAE" stroke-width="2.58638" stroke-linecap="butt" stroke-linejoin="miter" stroke-miterlimit="8" stroke-opacity="1" fill="none" fill-rule="evenodd" transform="matrix(1 0 0 1.00009 1062.14 857.408)"/><path d="M560.632 327.012 745.723 327.012 745.723 512.103 560.632 512.103Z" stroke="#000000" stroke-width="2.58638" stroke-linecap="butt" stroke-linejoin="miter" stroke-miterlimit="8" stroke-dasharray="10.3455 7.75913" stroke-opacity="1" fill="none" fill-rule="nonzero" transform="matrix(1 0 0 1.00009 1062.14 857.408)"/><text fill="#000000" fill-opacity="1" font-family="Arial,Arial_MSFontService,sans-serif" font-style="normal" font-variant="normal" font-weight="400" font-stretch="normal" font-size="73" text-anchor="start" direction="ltr" writing-mode="lr-tb" unicode-bidi="normal" text-decoration="none" transform="matrix(0.5643 0 0 0.56435 2060.28 1936)">(b) Local responses</text><text fill="#000000" fill-opacity="1" font-family="Arial,Arial_MSFontService,sans-serif" font-style="italic" font-variant="normal" font-weight="400" font-stretch="normal" font-size="55" text-anchor="start" direction="ltr" writing-mode="lr-tb" unicode-bidi="normal" text-decoration="none" transform="matrix(0.5643 0 0 0.56435 1575.3 1145)">a: </text><text fill="#000000" fill-opacity="1" font-family="Arial,Arial_MSFontService,sans-serif" font-style="normal" font-variant="normal" font-weight="400" font-stretch="normal" font-size="55" text-anchor="start" direction="ltr" writing-mode="lr-tb" unicode-bidi="normal" text-decoration="none" transform="matrix(0.5643 0 0 0.56435 1609.89 1145)">Constrained zone</text><path d="M560.632 698.322 745.723 698.322 745.723 883.412 560.632 883.412Z" stroke="#000000" stroke-width="2.58638" stroke-linecap="butt" stroke-linejoin="miter" stroke-miterlimit="8" stroke-dasharray="10.3455 7.75913" stroke-opacity="1" fill="none" fill-rule="nonzero" transform="matrix(1 0 0 1.00009 1062.14 857.408)"/><path d="M496.302 721.458 811.746 721.458 811.746 883.412 496.302 883.412Z" stroke="#000000" stroke-width="2.58638" stroke-linecap="butt" stroke-linejoin="miter" stroke-miterlimit="8" stroke-opacity="1" fill="none" fill-rule="nonzero" transform="matrix(1 0 0 1.00009 1062.14 857.408)"/><path d="M553.297 426.329 757.009 426.329 757.009 512.667 553.297 512.667Z" stroke="#000000" stroke-width="2.58638" stroke-linecap="butt" stroke-linejoin="miter" stroke-miterlimit="8" stroke-opacity="1" fill="none" fill-rule="nonzero" transform="matrix(1 0 0 1.00009 1062.14 857.408)"/><text fill="#000000" fill-opacity="1" font-family="Arial,Arial_MSFontService,sans-serif" font-style="italic" font-variant="normal" font-weight="400" font-stretch="normal" font-size="55" text-anchor="start" direction="ltr" writing-mode="lr-tb" unicode-bidi="normal" text-decoration="none" transform="matrix(0.5643 0 0 0.56435 1542.72 1532)">b</text><text fill="#000000" fill-opacity="1" font-family="Arial,Arial_MSFontService,sans-serif" font-style="normal" font-variant="normal" font-weight="400" font-stretch="normal" font-size="55" text-anchor="start" direction="ltr" writing-mode="lr-tb" unicode-bidi="normal" text-decoration="none" transform="matrix(0.5643 0 0 0.56435 1559.86 1532)">: Unconstrained zone</text><text fill="#000000" fill-opacity="1" font-family="Cambria Math,Cambria Math_MSFontService,sans-serif" font-style="normal" font-variant="normal" font-weight="400" font-stretch="normal" font-size="48" text-anchor="start" direction="ltr" writing-mode="lr-tb" unicode-bidi="normal" text-decoration="none" transform="matrix(0.5643 0 0 0.56435 2786.64 1221)">l</text><text fill="#000000" fill-opacity="1" font-family="Cambria Math,Cambria Math_MSFontService,sans-serif" font-style="normal" font-variant="normal" font-weight="400" font-stretch="normal" font-size="48" text-anchor="start" direction="ltr" writing-mode="lr-tb" unicode-bidi="normal" text-decoration="none" transform="matrix(0.5643 0 0 0.56435 2794.08 1221)">n</text><text fill="#000000" fill-opacity="1" font-family="Cambria Math,Cambria Math_MSFontService,sans-serif" font-style="normal" font-variant="normal" font-weight="400" font-stretch="normal" font-size="48" text-anchor="start" direction="ltr" writing-mode="lr-tb" unicode-bidi="normal" text-decoration="none" transform="matrix(0.5643 0 0 0.56435 2809.27 1221)"> </text><text fill="#000000" fill-opacity="1" font-family="Cambria Math,Cambria Math_MSFontService,sans-serif" font-style="normal" font-variant="normal" font-weight="400" font-stretch="normal" font-size="48" text-anchor="start" direction="ltr" writing-mode="lr-tb" unicode-bidi="normal" text-decoration="none" transform="matrix(0.5643 0 0 0.56435 2815.09 1221)">𝑝′</text><path d="M1.11145-0.661078 59.6279 97.7199 57.4052 99.0421-1.11145 0.661078ZM61.6397 93.5136 62.4827 105.05 52.7484 98.8022Z" fill="#7F7F7F" fill-rule="nonzero" fill-opacity="1" transform="matrix(1 0 0 -1.00009 2311.22 1543.47)"/><text fill="#000000" fill-opacity="1" font-family="Arial,Arial_MSFontService,sans-serif" font-style="normal" font-variant="normal" font-weight="400" font-stretch="normal" font-size="50" text-anchor="start" direction="ltr" writing-mode="lr-tb" unicode-bidi="normal" text-decoration="none" transform="matrix(0.5643 0 0 0.56435 2775.46 1683)">Isotropic Compression Line</text><text fill="#E97132" fill-opacity="1" font-family="Arial,Arial_MSFontService,sans-serif" font-style="normal" font-variant="normal" font-weight="400" font-stretch="normal" font-size="50" text-anchor="start" direction="ltr" writing-mode="lr-tb" unicode-bidi="normal" text-decoration="none" transform="matrix(0.5643 0 0 0.56435 2374.21 1680)">Volumetric</text><text fill="#E97132" fill-opacity="1" font-family="Arial,Arial_MSFontService,sans-serif" font-style="normal" font-variant="normal" font-weight="400" font-stretch="normal" font-size="50" text-anchor="start" direction="ltr" writing-mode="lr-tb" unicode-bidi="normal" text-decoration="none" transform="matrix(0.5643 0 0 0.56435 2405.24 1714)">hardening</text><text fill="#000000" fill-opacity="1" font-family="Arial,Arial_MSFontService,sans-serif" font-style="normal" font-variant="normal" font-weight="400" font-stretch="normal" font-size="50" text-anchor="start" direction="ltr" writing-mode="lr-tb" unicode-bidi="normal" text-decoration="none" transform="matrix(0.5643 0 0 0.56435 1397.46 1410)">Local volumetric compression due to end restraint</text><text fill="#000000" fill-opacity="1" font-family="Arial,Arial_MSFontService,sans-serif" font-style="normal" font-variant="normal" font-weight="400" font-stretch="normal" font-size="50" text-anchor="start" direction="ltr" writing-mode="lr-tb" unicode-bidi="normal" text-decoration="none" transform="matrix(0.5643 0 0 0.56435 1567.84 1445)">(</text><text fill="#000000" fill-opacity="1" font-family="Arial,Arial_MSFontService,sans-serif" font-style="normal" font-variant="normal" font-weight="400" font-stretch="normal" font-size="50" text-anchor="start" direction="ltr" writing-mode="lr-tb" unicode-bidi="normal" text-decoration="none" transform="matrix(0.5643 0 0 0.56435 1577.22 1445)">i.e</text><text fill="#000000" fill-opacity="1" font-family="Arial,Arial_MSFontService,sans-serif" font-style="normal" font-variant="normal" font-weight="400" font-stretch="normal" font-size="50" text-anchor="start" direction="ltr" writing-mode="lr-tb" unicode-bidi="normal" text-decoration="none" transform="matrix(0.5643 0 0 0.56435 1607.28 1445)">, Drained condition)</text><path d="M984.986 353.934 1682.42 353.934 1682.42 356.52 984.986 356.52ZM1679.84 350.055 1705.7 355.227 1679.84 360.4Z" fill="#000000" fill-rule="nonzero" fill-opacity="1" transform="matrix(1 0 0 1.00009 1062.14 857.408)"/><path d="M1.29319-4.26432e-07 1.29338 594.31-1.29299 594.31-1.29319 4.26432e-07ZM5.17295 591.725 0.000203652 617.587-5.17256 591.725Z" fill="#000000" fill-rule="nonzero" fill-opacity="1" transform="matrix(1 0 0 -1.00009 2109.77 1767.67)"/><text fill="#000000" fill-opacity="1" font-family="Cambria Math,Cambria Math_MSFontService,sans-serif" font-style="normal" font-variant="normal" font-weight="400" font-stretch="normal" font-size="50" text-anchor="start" direction="ltr" writing-mode="lr-tb" unicode-bidi="normal" text-decoration="none" transform="matrix(0.5643 0 0 0.56435 2101.85 1132)">𝑒</text><text fill="#000000" fill-opacity="1" font-family="Cambria Math,Cambria Math_MSFontService,sans-serif" font-style="normal" font-variant="normal" font-weight="400" font-stretch="normal" font-size="48" text-anchor="start" direction="ltr" writing-mode="lr-tb" unicode-bidi="normal" text-decoration="none" transform="matrix(0.5643 0 0 0.56435 2549.21 1431)">𝑂</text><path d="M1461.26 578.972C1461.26 576.01 1463.78 573.611 1466.9 573.611 1470.01 573.611 1472.54 576.01 1472.54 578.972 1472.54 581.935 1470.01 584.333 1466.9 584.333 1463.78 584.333 1461.26 581.935 1461.26 578.972Z" stroke="#000000" stroke-width="2.58638" stroke-linecap="butt" stroke-linejoin="miter" stroke-miterlimit="8" stroke-opacity="1" fill="#AEAEAE" fill-rule="evenodd" fill-opacity="1" transform="matrix(1 0 0 1.00009 1062.14 857.408)"/><path d="M1.31747e-06-1.29319 10.3455-1.29318 10.3455 1.2932-1.31747e-06 1.29319ZM18.1046-1.29317 28.4502-1.29316 28.4502 1.29322 18.1046 1.29321ZM36.2093-1.29315 46.5548-1.29314 46.5548 1.29324 36.2093 1.29322ZM54.3139-1.29313 64.6592-1.29312 64.6592 1.29325 54.3139 1.29324ZM72.4184-1.29312 82.7643-1.29311 82.7643 1.29327 72.4184 1.29326ZM90.5234-1.29309 100.869-1.29308 100.869 1.29329 90.5234 1.29328ZM108.628-1.29308 118.973-1.29307 118.973 1.29331 108.628 1.2933ZM126.732-1.29306 137.078-1.29305 137.078 1.29333 126.732 1.29332ZM144.837-1.29304 155.183-1.29303 155.183 1.29335 144.837 1.29334ZM162.942-1.29302 173.287-1.29301 173.287 1.29337 162.942 1.29335ZM174.034-5.17258 199.898 0.000203652 174.034 5.17293Z" fill="#7F7F7F" fill-rule="nonzero" fill-opacity="1" transform="matrix(-1 0 0 1.00009 2523.53 1436.71)"/><path d="M1389.59 601.544C1389.59 598.582 1392.12 596.183 1395.23 596.183 1398.35 596.183 1400.88 598.582 1400.88 601.544 1400.88 604.507 1398.35 606.905 1395.23 606.905 1392.12 606.905 1389.59 604.507 1389.59 601.544Z" stroke="#000000" stroke-width="2.58638" stroke-linecap="butt" stroke-linejoin="miter" stroke-miterlimit="8" stroke-opacity="1" fill="#AEAEAE" fill-rule="evenodd" fill-opacity="1" transform="matrix(1 0 0 1.00009 1062.14 857.408)"/><path d="M1424.58 695.782C1424.58 692.82 1426.97 690.422 1429.94 690.422 1432.9 690.422 1435.3 692.82 1435.3 695.782 1435.3 698.745 1432.9 701.143 1429.94 701.143 1426.97 701.143 1424.58 698.745 1424.58 695.782Z" stroke="#000000" stroke-width="2.58638" stroke-linecap="butt" stroke-linejoin="miter" stroke-miterlimit="8" stroke-opacity="1" fill="#AEAEAE" fill-rule="evenodd" fill-opacity="1" transform="matrix(1 0 0 1.00009 1062.14 857.408)"/><text fill="#000000" fill-opacity="1" font-family="Cambria Math,Cambria Math_MSFontService,sans-serif" font-style="normal" font-variant="normal" font-weight="400" font-stretch="normal" font-size="48" text-anchor="start" direction="ltr" writing-mode="lr-tb" unicode-bidi="normal" text-decoration="none" transform="matrix(0.5643 0 0 0.56435 2418.18 1484)">𝑃</text><text fill="#000000" fill-opacity="1" font-family="Cambria Math,Cambria Math_MSFontService,sans-serif" font-style="normal" font-variant="normal" font-weight="400" font-stretch="normal" font-size="48" text-anchor="start" direction="ltr" writing-mode="lr-tb" unicode-bidi="normal" text-decoration="none" transform="matrix(0.5643 0 0 0.56435 2438.99 1563)">𝑄</text><path d="M1049.32 354.663 1507.43 857.048" stroke="#000000" stroke-width="2.58638" stroke-linecap="butt" stroke-linejoin="miter" stroke-miterlimit="8" stroke-opacity="1" fill="none" fill-rule="evenodd" transform="matrix(1 0 0 1.00009 1062.14 857.408)"/><path d="M1149.76 352.406 1607.88 854.791" stroke="#AEAEAE" stroke-width="2.58638" stroke-linecap="butt" stroke-linejoin="miter" stroke-miterlimit="8" stroke-dasharray="10.3455 7.75913" stroke-opacity="1" fill="none" fill-rule="evenodd" transform="matrix(1 0 0 1.00009 1062.14 857.408)"/><text fill="#7F7F7F" fill-opacity="1" font-family="Arial,Arial_MSFontService,sans-serif" font-style="normal" font-variant="normal" font-weight="400" font-stretch="normal" font-size="50" text-anchor="start" direction="ltr" writing-mode="lr-tb" unicode-bidi="normal" text-decoration="none" transform="matrix(0.5643 0 0 0.56435 2662.75 1759)">1D Compression Line</text><text fill="#000000" fill-opacity="1" font-family="Arial,Arial_MSFontService,sans-serif" font-style="normal" font-variant="normal" font-weight="400" font-stretch="normal" font-size="50" text-anchor="start" direction="ltr" writing-mode="lr-tb" unicode-bidi="normal" text-decoration="none" transform="matrix(0.5643 0 0 0.56435 2555.45 1759)">CSL</text><text fill="#7F7F7F" fill-opacity="1" font-family="Arial,Arial_MSFontService,sans-serif" font-style="normal" font-variant="normal" font-weight="400" font-stretch="normal" font-size="48" text-anchor="start" direction="ltr" writing-mode="lr-tb" unicode-bidi="normal" text-decoration="none" transform="matrix(0.5643 0 0 0.56435 2220.57 1583)">Ideal path</text><path d="M1464.44 576.67 1437.9 573.882 1411.5 570.875 1385.43 567.444 1372.54 565.497 1359.79 563.361 1347.21 561.012 1334.8 558.42 1322.59 555.558 1310.6 552.399 1298.84 548.917 1287.34 545.083 1276.13 540.87 1265.21 536.25 1254.6 531.209 1244.31 525.764 1234.3 519.945 1224.57 513.779 1215.07 507.294 1205.82 500.515 1196.77 493.472 1187.9 486.191 1179.21 478.699 1170.65 471.018 1153.92 455.229 1137.52 439.021 1130.39 431.81 1133.15 429.082 1140.27 436.285 1140.25 436.269 1156.63 452.454 1156.6 452.423 1173.3 468.18 1173.26 468.147 1181.79 475.798 1181.75 475.772 1190.42 483.237 1190.38 483.208 1199.21 490.458 1199.17 490.426 1208.18 497.436 1208.13 497.402 1217.34 504.145 1217.29 504.108 1226.73 510.558 1226.67 510.52 1236.35 516.648 1236.28 516.61 1246.22 522.391 1246.16 522.353 1256.38 527.76 1256.31 527.722 1266.83 532.728 1266.75 532.694 1277.6 537.281 1277.53 537.252 1288.68 541.438 1288.61 541.414 1300.04 545.226 1299.98 545.206 1311.67 548.671 1311.61 548.655 1323.56 551.799 1323.5 551.786 1335.67 554.637 1335.62 554.627 1347.98 557.21 1347.94 557.202 1360.49 559.544 1360.45 559.538 1373.16 561.667 1373.13 561.662 1385.98 563.604 1385.95 563.598 1411.99 567.026 1411.96 567.026 1438.33 570.022 1438.31 570.022 1464.84 572.81ZM1129.91 435.922 1122.68 421.25 1137.26 428.648Z" fill="#F2AA84" fill-rule="nonzero" fill-opacity="1" transform="matrix(1 0 0 1.00009 1062.14 857.408)"/><text fill="#000000" fill-opacity="1" font-family="Arial,Arial_MSFontService,sans-serif" font-style="normal" font-variant="normal" font-weight="400" font-stretch="normal" font-size="50" text-anchor="start" direction="ltr" writing-mode="lr-tb" unicode-bidi="normal" text-decoration="none" transform="matrix(0.5643 0 0 0.56435 1421.71 1796)">Local swelling due to pore fluid migration from</text><text fill="#000000" fill-opacity="1" font-family="Arial,Arial_MSFontService,sans-serif" font-style="normal" font-variant="normal" font-weight="400" font-stretch="normal" font-size="50" text-anchor="start" direction="ltr" writing-mode="lr-tb" unicode-bidi="normal" text-decoration="none" transform="matrix(0.5643 0 0 0.56435 1571.88 1831)">the constrained zones</text><path d="M1431.07 615.652 1868.4 615.652 1868.4 672.082 1431.07 672.082Z" fill="#FFFFFF" fill-rule="nonzero" fill-opacity="1" transform="matrix(1 0 0 1.00009 1062.14 857.408)"/><text fill="#E97132" fill-opacity="1" font-family="Arial,Arial_MSFontService,sans-serif" font-style="normal" font-variant="normal" font-weight="400" font-stretch="normal" font-size="55" text-anchor="start" direction="ltr" writing-mode="lr-tb" unicode-bidi="normal" text-decoration="none" transform="matrix(0.5643 0 0 0.56435 2511.71 1512)">Path at </text><text fill="#E97132" fill-opacity="1" font-family="Arial,Arial_MSFontService,sans-serif" font-style="italic" font-variant="normal" font-weight="400" font-stretch="normal" font-size="55" text-anchor="start" direction="ltr" writing-mode="lr-tb" unicode-bidi="normal" text-decoration="none" transform="matrix(0.5643 0 0 0.56435 2618.72 1512)">a </text><text fill="#E97132" fill-opacity="1" font-family="Arial,Arial_MSFontService,sans-serif" font-style="normal" font-variant="normal" font-weight="400" font-stretch="normal" font-size="55" text-anchor="start" direction="ltr" writing-mode="lr-tb" unicode-bidi="normal" text-decoration="none" transform="matrix(0.5643 0 0 0.56435 2644.59 1512)">(Constrained zone)</text><path d="M1203.65 430.561 1673.72 430.561 1673.72 486.991 1203.65 486.991Z" fill="#FFFFFF" fill-rule="nonzero" fill-opacity="1" transform="matrix(1 0 0 1.00009 1062.14 857.408)"/><text fill="#F2AA84" fill-opacity="1" font-family="Arial,Arial_MSFontService,sans-serif" font-style="normal" font-variant="normal" font-weight="400" font-stretch="normal" font-size="55" text-anchor="start" direction="ltr" writing-mode="lr-tb" unicode-bidi="normal" text-decoration="none" transform="matrix(0.5643 0 0 0.56435 2284.24 1328)">Path at </text><text fill="#F2AA84" fill-opacity="1" font-family="Arial,Arial_MSFontService,sans-serif" font-style="italic" font-variant="normal" font-weight="400" font-stretch="normal" font-size="55" text-anchor="start" direction="ltr" writing-mode="lr-tb" unicode-bidi="normal" text-decoration="none" transform="matrix(0.5643 0 0 0.56435 2391.25 1328)">b </text><text fill="#F2AA84" fill-opacity="1" font-family="Arial,Arial_MSFontService,sans-serif" font-style="normal" font-variant="normal" font-weight="400" font-stretch="normal" font-size="55" text-anchor="start" direction="ltr" writing-mode="lr-tb" unicode-bidi="normal" text-decoration="none" transform="matrix(0.5643 0 0 0.56435 2417.11 1328)">(Unconstrained zone)</text></g></g></g></g></g></svg>