<svg width="374" height="186" xmlns="http://www.w3.org/2000/svg" xmlns:xlink="http://www.w3.org/1999/xlink" xml:space="preserve" overflow="hidden"><g><g><path d="M536.591 221.569C536.591 228.889 531.013 234.822 524.13 234.822" stroke="#A02B93" stroke-width="1.03837" stroke-linecap="butt" stroke-linejoin="miter" stroke-miterlimit="8" stroke-opacity="1" fill="none" fill-rule="evenodd" transform="matrix(1.0005 0 0 1 -443.587 -79.7467)"/><path d="M629.024 221.229C629.024 225.984 625.97 230.078 621.732 231.005" stroke="#A02B93" stroke-width="1.03837" stroke-linecap="butt" stroke-linejoin="miter" stroke-miterlimit="8" stroke-opacity="1" fill="none" fill-rule="evenodd" transform="matrix(1.0005 0 0 1 -443.587 -79.7467)"/><path d="M675.921 210.581 675.921 235.133" stroke="#000000" stroke-width="1.03837" stroke-linecap="butt" stroke-linejoin="miter" stroke-miterlimit="8" stroke-opacity="1" fill="none" fill-rule="evenodd" transform="matrix(1.0005 0 0 1 -443.587 -79.7467)"/><path d="M0 0 44.0616 46.6751" stroke="#7F7F7F" stroke-width="1.03837" stroke-linecap="butt" stroke-linejoin="miter" stroke-miterlimit="8" stroke-opacity="1" fill="none" fill-rule="evenodd" transform="matrix(-1.0005 0 0 1 194.024 119.96)"/><path d="M0 0 176.8 108.07" stroke="#AEAEAE" stroke-width="1.03837" stroke-linecap="square" stroke-linejoin="miter" stroke-miterlimit="8" stroke-dasharray="3.1151 1.03837" stroke-opacity="1" fill="none" fill-rule="evenodd" transform="matrix(-1.0005 0 0 1 195.135 34.3228)"/><path d="M461.518 223.234C459.905 205.459 494.37 187.805 538.501 183.801 582.629 179.798 619.711 190.962 621.322 208.736 622.935 226.51 588.469 244.165 544.339 248.168 500.211 252.172 463.131 241.007 461.518 223.234Z" stroke="#7F7F7F" stroke-width="1.03837" stroke-linecap="butt" stroke-linejoin="miter" stroke-miterlimit="8" stroke-dasharray="4.15346 3.1151" stroke-opacity="1" fill="none" fill-rule="evenodd" transform="matrix(1.0005 0 0 1 -443.587 -79.7467)"/><path d="M461.149 221.456C461.149 197.557 509.228 178.184 568.535 178.184 627.842 178.184 675.921 197.557 675.921 221.456 675.921 245.355 627.842 264.727 568.535 264.727 509.228 264.727 461.149 245.355 461.149 221.456Z" stroke="#000000" stroke-width="1.03837" stroke-linecap="butt" stroke-linejoin="miter" stroke-miterlimit="8" stroke-opacity="1" fill="none" fill-rule="evenodd" transform="matrix(1.0005 0 0 1 -443.587 -79.7467)"/><path d="M0.519185-3.32881e-07 0.519262 122.329-0.519105 122.329-0.519185 3.32881e-07ZM2.07681 121.29 8.17612e-05 127.521-2.07666 121.29Z" fill="#000000" fill-rule="nonzero" fill-opacity="1" transform="matrix(1.0005 0 0 -1 18.9267 156.179)"/><path d="M443.704 221.616 721.086 221.616 721.086 222.654 443.704 222.654ZM720.047 220.059 726.277 222.135 720.047 224.212Z" fill="#000000" fill-rule="nonzero" fill-opacity="1" transform="matrix(1.0005 0 0 1 -443.587 -79.7467)"/><text fill="#000000" fill-opacity="1" font-family="Cambria Math,Cambria Math_MSFontService,sans-serif" font-style="normal" font-variant="normal" font-weight="400" font-stretch="normal" font-size="50" text-anchor="start" direction="ltr" writing-mode="lr-tb" unicode-bidi="normal" text-decoration="none" transform="matrix(0.226667 0 0 0.226553 15.5879 22)">𝑞</text><text fill="#000000" fill-opacity="1" font-family="Cambria Math,Cambria Math_MSFontService,sans-serif" font-style="normal" font-variant="normal" font-weight="400" font-stretch="normal" font-size="50" text-anchor="start" direction="ltr" writing-mode="lr-tb" unicode-bidi="normal" text-decoration="none" transform="matrix(0.226667 0 0 0.226553 289.623 147)">𝑝</text><text fill="#000000" fill-opacity="1" font-family="Cambria Math,Cambria Math_MSFontService,sans-serif" font-style="normal" font-variant="normal" font-weight="400" font-stretch="normal" font-size="37" text-anchor="start" direction="ltr" writing-mode="lr-tb" unicode-bidi="normal" text-decoration="none" transform="matrix(0.226667 0 0 0.226553 296.235 142)">′</text><path d="M463.253 224.761C454.631 211.037 477.585 181.102 514.52 157.901 551.455 134.699 588.385 127.017 597.008 140.741 605.628 154.466 582.676 184.4 545.739 207.602 508.804 230.803 471.874 238.486 463.253 224.761Z" stroke="#AEAEAE" stroke-width="1.03837" stroke-linecap="square" stroke-linejoin="miter" stroke-miterlimit="8" stroke-dasharray="3.1151 1.03837" stroke-opacity="1" fill="none" fill-rule="evenodd" transform="matrix(1.0005 0 0 1 -443.587 -79.7467)"/><path d="M668.671 175.012 668.807 175.012" stroke="#000000" stroke-width="1.03837" stroke-linecap="butt" stroke-linejoin="miter" stroke-miterlimit="8" stroke-dasharray="1.03837 1.03837" stroke-opacity="1" fill="none" fill-rule="evenodd" transform="matrix(1.0005 0 0 1 -443.587 -79.7467)"/><text fill="#747474" fill-opacity="1" font-family="Arial,Arial_MSFontService,sans-serif" font-style="normal" font-variant="normal" font-weight="400" font-stretch="normal" font-size="46" text-anchor="start" direction="ltr" writing-mode="lr-tb" unicode-bidi="normal" text-decoration="none" transform="matrix(0.226667 0 0 0.226553 131.229 15)">“Initial” anisotropy formed during</text><text fill="#747474" fill-opacity="1" font-family="Arial,Arial_MSFontService,sans-serif" font-style="normal" font-variant="normal" font-weight="400" font-stretch="normal" font-size="46" text-anchor="start" direction="ltr" writing-mode="lr-tb" unicode-bidi="normal" text-decoration="none" transform="matrix(0.226667 0 0 0.226553 131.229 28)">natural consolidation</text><path d="M0 0 239.82 63.6748" stroke="#595959" stroke-width="1.03837" stroke-linecap="butt" stroke-linejoin="miter" stroke-miterlimit="8" stroke-dasharray="4.15346 3.1151" stroke-opacity="1" fill="none" fill-rule="evenodd" transform="matrix(-1.0005 0 0 1 258.187 77.3678)"/><path d="M0 0 48.5034 19.8012" stroke="#AEAEAE" stroke-width="1.03837" stroke-linecap="butt" stroke-linejoin="miter" stroke-miterlimit="8" stroke-opacity="1" fill="none" fill-rule="evenodd" transform="matrix(-1.0005 0 0 1 100.094 132.42)"/><path d="M693.884 143.748 693.884 207.339 692.847 207.339 692.847 143.748ZM695.443 206.301 693.365 212.531 691.288 206.301Z" fill="#000000" fill-rule="nonzero" fill-opacity="1" transform="matrix(1.0005 0 0 1 -443.587 -79.7467)"/><text fill="#000000" fill-opacity="1" font-family="Arial,Arial_MSFontService,sans-serif" font-style="normal" font-variant="normal" font-weight="400" font-stretch="normal" font-size="41" text-anchor="start" direction="ltr" writing-mode="lr-tb" unicode-bidi="normal" text-decoration="none" transform="matrix(0.226667 0 0 0.226553 260.268 93)">Evolution of fabric </text><text fill="#000000" fill-opacity="1" font-family="Arial,Arial_MSFontService,sans-serif" font-style="normal" font-variant="normal" font-weight="400" font-stretch="normal" font-size="41" text-anchor="start" direction="ltr" writing-mode="lr-tb" unicode-bidi="normal" text-decoration="none" transform="matrix(0.226667 0 0 0.226553 260.268 105)">orientation toward </text><text fill="#000000" fill-opacity="1" font-family="Arial,Arial_MSFontService,sans-serif" font-style="normal" font-variant="normal" font-weight="400" font-stretch="normal" font-size="41" text-anchor="start" direction="ltr" writing-mode="lr-tb" unicode-bidi="normal" text-decoration="none" transform="matrix(0.226667 0 0 0.226553 260.268 116)">isotropic state</text><path d="M0.00100273-0.90857 199.501-0.688395 199.499 1.12875-0.00100273 0.90857ZM198.464-1.8577 204.692 0.225906 198.46 2.29577Z" fill="#E97132" fill-rule="nonzero" fill-opacity="1" transform="matrix(1.0005 0 0 -1 25.6133 142.275)"/><path d="M516.881 222.702C516.881 221.513 517.843 220.549 519.033 220.549 520.222 220.549 521.185 221.513 521.185 222.702 521.185 223.89 520.222 224.854 519.033 224.854 517.843 224.854 516.881 223.89 516.881 222.702Z" stroke="#000000" stroke-width="1.03837" stroke-linecap="butt" stroke-linejoin="miter" stroke-miterlimit="8" stroke-opacity="1" fill="#AEAEAE" fill-rule="evenodd" fill-opacity="1" transform="matrix(1.0005 0 0 1 -443.587 -79.7467)"/><path d="M611.806 223.041C611.806 221.79 612.769 220.776 613.959 220.776 615.148 220.776 616.111 221.79 616.111 223.041 616.111 224.293 615.148 225.307 613.959 225.307 612.769 225.307 611.806 224.293 611.806 223.041Z" stroke="#000000" stroke-width="1.03837" stroke-linecap="butt" stroke-linejoin="miter" stroke-miterlimit="8" stroke-opacity="1" fill="#AEAEAE" fill-rule="evenodd" fill-opacity="1" transform="matrix(1.0005 0 0 1 -443.587 -79.7467)"/><path d="M673.655 221.909C673.655 220.657 674.618 219.643 675.808 219.643 676.997 219.643 677.96 220.657 677.96 221.909 677.96 223.16 676.997 224.174 675.808 224.174 674.618 224.174 673.655 223.16 673.655 221.909Z" stroke="#000000" stroke-width="1.03837" stroke-linecap="butt" stroke-linejoin="miter" stroke-miterlimit="8" stroke-opacity="1" fill="#AEAEAE" fill-rule="evenodd" fill-opacity="1" transform="matrix(1.0005 0 0 1 -443.587 -79.7467)"/><path d="M520.755 224.42 529.631 244.775 528.68 245.189 519.803 224.835ZM530.644 243.2 531.231 249.741 526.838 244.861Z" fill="#A02B93" fill-rule="nonzero" fill-opacity="1" transform="matrix(1.0005 0 0 1 -443.587 -79.7467)"/><path d="M616.02 224.256 629.731 237.647 629.006 238.39 615.295 224.999ZM630.076 235.808 633.082 241.646 627.173 238.78Z" fill="#A02B93" fill-rule="nonzero" fill-opacity="1" transform="matrix(1.0005 0 0 1 -443.587 -79.7467)"/><path d="M677.96 221.616 696.236 221.616 696.236 222.654 677.96 222.654ZM695.196 220.058 701.426 222.135 695.196 224.212Z" fill="#A02B93" fill-rule="nonzero" fill-opacity="1" transform="matrix(1.0005 0 0 1 -443.587 -79.7467)"/><path d="M609.767 116.108 609.767 131.578" stroke="#7F7F7F" stroke-width="1.03837" stroke-linecap="butt" stroke-linejoin="miter" stroke-miterlimit="8" stroke-opacity="1" fill="none" fill-rule="evenodd" transform="matrix(1.0005 0 0 1 -443.587 -79.7467)"/><text fill="#A02B93" fill-opacity="1" font-family="Cambria Math,Cambria Math_MSFontService,sans-serif" font-style="normal" font-variant="normal" font-weight="400" font-stretch="normal" font-size="50" text-anchor="start" direction="ltr" writing-mode="lr-tb" unicode-bidi="normal" text-decoration="none" transform="matrix(0.226667 0 0 0.226553 90.6667 159)">𝜃</text><text fill="#A02B93" fill-opacity="1" font-family="Cambria Math,Cambria Math_MSFontService,sans-serif" font-style="normal" font-variant="normal" font-weight="400" font-stretch="normal" font-size="50" text-anchor="start" direction="ltr" writing-mode="lr-tb" unicode-bidi="normal" text-decoration="none" transform="matrix(0.226667 0 0 0.226553 186.578 154)">𝜃</text></g></g></svg>