<svg width="316" height="192" xmlns="http://www.w3.org/2000/svg" xmlns:xlink="http://www.w3.org/1999/xlink" xml:space="preserve" overflow="hidden"><g><g><g><g><g><path d="M276.705 83.1569 531.479 83.1571 531.479 84.0368 276.705 84.0368ZM530.599 81.8374 539.397 83.5969 530.599 85.3566Z" fill="#000000" fill-rule="nonzero" fill-opacity="1" transform="matrix(1 0 0 1.00123 -273.537 -63.4234)"/><text fill="#000000" fill-opacity="1" font-family="Cambria Math,Cambria Math_MSFontService,sans-serif" font-style="normal" font-variant="normal" font-weight="400" font-stretch="normal" font-size="73" text-anchor="start" direction="ltr" writing-mode="lr-tb" unicode-bidi="normal" text-decoration="none" transform="matrix(0.191956 0 0 0.192192 271.564 29)">ln</text><text fill="#000000" fill-opacity="1" font-family="Cambria Math,Cambria Math_MSFontService,sans-serif" font-style="normal" font-variant="normal" font-weight="400" font-stretch="normal" font-size="73" text-anchor="start" direction="ltr" writing-mode="lr-tb" unicode-bidi="normal" text-decoration="none" transform="matrix(0.191956 0 0 0.192192 283.222 29)">𝜎</text><text fill="#000000" fill-opacity="1" font-family="Cambria Math,Cambria Math_MSFontService,sans-serif" font-style="normal" font-variant="normal" font-weight="400" font-stretch="normal" font-size="54" text-anchor="start" direction="ltr" writing-mode="lr-tb" unicode-bidi="normal" text-decoration="none" transform="matrix(0.191956 0 0 0.192192 290.506 32)">𝑧</text><text fill="#000000" fill-opacity="1" font-family="Cambria Math,Cambria Math_MSFontService,sans-serif" font-style="normal" font-variant="normal" font-weight="400" font-stretch="normal" font-size="54" text-anchor="start" direction="ltr" writing-mode="lr-tb" unicode-bidi="normal" text-decoration="none" transform="matrix(0.191956 0 0 0.192192 292.294 24)">′</text><path d="M297.3 63.6335 297.3 223.368 296.421 223.368 296.421 63.6335ZM298.62 222.489 296.86 231.286 295.1 222.489Z" fill="#000000" fill-rule="nonzero" fill-opacity="1" transform="matrix(1 0 0 1.00123 -273.537 -63.4234)"/><text fill="#000000" fill-opacity="1" font-family="Cambria Math,Cambria Math_MSFontService,sans-serif" font-style="normal" font-variant="normal" font-weight="400" font-stretch="normal" font-size="73" text-anchor="start" direction="ltr" writing-mode="lr-tb" unicode-bidi="normal" text-decoration="none" transform="matrix(0.191956 0 0 0.192192 13.4984 185)">𝜀</text><text fill="#000000" fill-opacity="1" font-family="Cambria Math,Cambria Math_MSFontService,sans-serif" font-style="normal" font-variant="normal" font-weight="400" font-stretch="normal" font-size="54" text-anchor="start" direction="ltr" writing-mode="lr-tb" unicode-bidi="normal" text-decoration="none" transform="matrix(0.191956 0 0 0.192192 19.6314 188)">𝑛𝑣</text><path d="M354.255 84.9406 485.971 167.928" stroke="#7F7F7F" stroke-width="0.879798" stroke-linecap="square" stroke-linejoin="miter" stroke-miterlimit="8" stroke-dasharray="2.6394 0.879798" stroke-opacity="1" fill="none" fill-rule="evenodd" transform="matrix(1 0 0 1.00123 -273.537 -63.4234)"/><path d="M325.27 88.7797 485.849 189.953" stroke="#7F7F7F" stroke-width="0.879798" stroke-linecap="square" stroke-linejoin="miter" stroke-miterlimit="8" stroke-dasharray="2.6394 0.879798" stroke-opacity="1" fill="none" fill-rule="evenodd" transform="matrix(1 0 0 1.00123 -273.537 -63.4234)"/><path d="M298.396 94.1545 485.902 212.292" stroke="#7F7F7F" stroke-width="0.879798" stroke-linecap="square" stroke-linejoin="miter" stroke-miterlimit="8" stroke-dasharray="2.6394 0.879798" stroke-opacity="1" fill="none" fill-rule="evenodd" transform="matrix(1 0 0 1.00123 -273.537 -63.4234)"/><text fill="#000000" fill-opacity="1" font-family="Cambria Math,Cambria Math_MSFontService,sans-serif" font-style="normal" font-variant="normal" font-weight="400" font-stretch="normal" font-size="55" text-anchor="start" direction="ltr" writing-mode="lr-tb" unicode-bidi="normal" text-decoration="none" transform="matrix(0.191956 0 0 0.192192 222.243 110)">𝜀</text><path d="M-1.48466-5.95411C-1.64962-5.95411-1.78709-6.01168-1.89707-6.1268-2.00704-6.24193-2.06203-6.38713-2.06203-6.5624-2.06203-6.73768-2.00704-6.88287-1.89707-6.99801-1.78709-7.11314-1.64962-7.17069-1.48466-7.17071-1.32313-7.17069-1.18738-7.11314-1.07741-6.99801-0.967436-6.88287-0.912448-6.73768-0.912448-6.5624-0.912448-6.38713-0.967436-6.24193-1.07741-6.1268-1.18738-6.01168-1.32313-5.95411-1.48466-5.95411Z" fill="#000000" fill-rule="nonzero" fill-opacity="1" transform="matrix(1 0 0 1.00123 227.314 109.55)"/><text fill="#000000" fill-opacity="1" font-family="Cambria Math,Cambria Math_MSFontService,sans-serif" font-style="normal" font-variant="normal" font-weight="400" font-stretch="normal" font-size="40" text-anchor="start" direction="ltr" writing-mode="lr-tb" unicode-bidi="normal" text-decoration="none" transform="matrix(0.191956 0 0 0.192192 226.896 112)">𝑣</text><text fill="#000000" fill-opacity="1" font-family="Cambria Math,Cambria Math_MSFontService,sans-serif" font-style="normal" font-variant="normal" font-weight="400" font-stretch="normal" font-size="40" text-anchor="start" direction="ltr" writing-mode="lr-tb" unicode-bidi="normal" text-decoration="none" transform="matrix(0.191956 0 0 0.192192 231.929 113)">𝑟𝑒𝑓</text><text fill="#000000" fill-opacity="1" font-family="Arial,Arial_MSFontService,sans-serif" font-style="normal" font-variant="normal" font-weight="400" font-stretch="normal" font-size="55" text-anchor="start" direction="ltr" writing-mode="lr-tb" unicode-bidi="normal" text-decoration="none" transform="matrix(0.191956 0 0 0.192192 222.861 133)">0.1</text><text fill="#000000" fill-opacity="1" font-family="Cambria Math,Cambria Math_MSFontService,sans-serif" font-style="normal" font-variant="normal" font-weight="400" font-stretch="normal" font-size="55" text-anchor="start" direction="ltr" writing-mode="lr-tb" unicode-bidi="normal" text-decoration="none" transform="matrix(0.191956 0 0 0.192192 237.488 133)">𝜀</text><path d="M-1.48466-5.95411C-1.64962-5.95411-1.78709-6.01168-1.89707-6.1268-2.00704-6.24193-2.06203-6.38713-2.06203-6.5624-2.06203-6.73768-2.00704-6.88287-1.89707-6.99801-1.78709-7.11314-1.64962-7.17069-1.48466-7.17071-1.32313-7.17069-1.18738-7.11314-1.07741-6.99801-0.967436-6.88287-0.912448-6.73768-0.912448-6.5624-0.912448-6.38713-0.967436-6.24193-1.07741-6.1268-1.18738-6.01168-1.32313-5.95411-1.48466-5.95411Z" fill="#000000" fill-rule="nonzero" fill-opacity="1" transform="matrix(1 0 0 1.00123 242.56 132.805)"/><text fill="#000000" fill-opacity="1" font-family="Cambria Math,Cambria Math_MSFontService,sans-serif" font-style="normal" font-variant="normal" font-weight="400" font-stretch="normal" font-size="40" text-anchor="start" direction="ltr" writing-mode="lr-tb" unicode-bidi="normal" text-decoration="none" transform="matrix(0.191956 0 0 0.192192 242.141 135)">𝑣</text><text fill="#000000" fill-opacity="1" font-family="Cambria Math,Cambria Math_MSFontService,sans-serif" font-style="normal" font-variant="normal" font-weight="400" font-stretch="normal" font-size="40" text-anchor="start" direction="ltr" writing-mode="lr-tb" unicode-bidi="normal" text-decoration="none" transform="matrix(0.191956 0 0 0.192192 247.174 137)">𝑟𝑒𝑓</text><text fill="#000000" fill-opacity="1" font-family="Arial,Arial_MSFontService,sans-serif" font-style="normal" font-variant="normal" font-weight="400" font-stretch="normal" font-size="55" text-anchor="start" direction="ltr" writing-mode="lr-tb" unicode-bidi="normal" text-decoration="none" transform="matrix(0.191956 0 0 0.192192 222.861 155)">0.01</text><text fill="#000000" fill-opacity="1" font-family="Cambria Math,Cambria Math_MSFontService,sans-serif" font-style="normal" font-variant="normal" font-weight="400" font-stretch="normal" font-size="55" text-anchor="start" direction="ltr" writing-mode="lr-tb" unicode-bidi="normal" text-decoration="none" transform="matrix(0.191956 0 0 0.192192 243.316 155)">𝜀</text><path d="M-1.48466-5.95411C-1.64962-5.95411-1.78709-6.01168-1.89707-6.1268-2.00704-6.24193-2.06203-6.38713-2.06203-6.5624-2.06203-6.73768-2.00704-6.88287-1.89707-6.99801-1.78709-7.11314-1.64962-7.17069-1.48466-7.17071-1.32313-7.17069-1.18738-7.11314-1.07741-6.99801-0.967436-6.88287-0.912448-6.73768-0.912448-6.5624-0.912448-6.38713-0.967436-6.24193-1.07741-6.1268-1.18738-6.01168-1.32313-5.95411-1.48466-5.95411Z" fill="#000000" fill-rule="nonzero" fill-opacity="1" transform="matrix(1 0 0 1.00123 248.389 154.715)"/><text fill="#000000" fill-opacity="1" font-family="Cambria Math,Cambria Math_MSFontService,sans-serif" font-style="normal" font-variant="normal" font-weight="400" font-stretch="normal" font-size="40" text-anchor="start" direction="ltr" writing-mode="lr-tb" unicode-bidi="normal" text-decoration="none" transform="matrix(0.191956 0 0 0.192192 247.971 157)">𝑣</text><text fill="#000000" fill-opacity="1" font-family="Cambria Math,Cambria Math_MSFontService,sans-serif" font-style="normal" font-variant="normal" font-weight="400" font-stretch="normal" font-size="40" text-anchor="start" direction="ltr" writing-mode="lr-tb" unicode-bidi="normal" text-decoration="none" transform="matrix(0.191956 0 0 0.192192 253.004 159)">𝑟𝑒𝑓</text><path d="M0.439917 4.399 0.439952 13.3081-0.439848 13.3081-0.439883 4.399ZM-2.63938 5.27881 0 0 2.63942 5.27877ZM2.63945 12.4283 6.92754e-05 17.7071-2.63934 12.4283Z" fill="#595959" fill-rule="nonzero" fill-opacity="1" transform="matrix(1 0 0 -1.00123 174.584 100.66)"/><text fill="#000000" fill-opacity="1" font-family="Arial,Arial_MSFontService,sans-serif" font-style="normal" font-variant="normal" font-weight="400" font-stretch="normal" font-size="64" text-anchor="start" direction="ltr" writing-mode="lr-tb" unicode-bidi="normal" text-decoration="none" transform="matrix(0.191956 0 0 0.192192 200.203 84)">2.303</text><text fill="#000000" fill-opacity="1" font-family="Cambria Math,Cambria Math_MSFontService,sans-serif" font-style="normal" font-variant="normal" font-weight="400" font-stretch="normal" font-size="64" text-anchor="start" direction="ltr" writing-mode="lr-tb" unicode-bidi="normal" text-decoration="none" transform="matrix(0.191956 0 0 0.192192 230.887 84)">𝜆</text><text fill="#000000" fill-opacity="1" font-family="Cambria Math,Cambria Math_MSFontService,sans-serif" font-style="normal" font-variant="normal" font-weight="400" font-stretch="normal" font-size="47" text-anchor="start" direction="ltr" writing-mode="lr-tb" unicode-bidi="normal" text-decoration="none" transform="matrix(0.191956 0 0 0.192192 237.265 86)">𝛼</text><text fill="#000000" fill-opacity="1" font-family="Cambria Math,Cambria Math_MSFontService,sans-serif" font-style="normal" font-variant="normal" font-weight="400" font-stretch="normal" font-size="47" text-anchor="start" direction="ltr" writing-mode="lr-tb" unicode-bidi="normal" text-decoration="none" transform="matrix(0.191956 0 0 0.192192 237.085 79)">∗</text><path d="M0 0 18.789 13.5222" stroke="#7F7F7F" stroke-width="0.879798" stroke-linecap="butt" stroke-linejoin="miter" stroke-miterlimit="8" stroke-opacity="1" fill="none" fill-rule="evenodd" transform="matrix(1 0 0 -1.00123 175.16 92.8181)"/><path d="M0.4399-7.68855e-07 0.439962 35.2368-0.439839 35.2368-0.4399 7.68855e-07ZM2.63945 34.3571 6.92754e-05 39.6359-2.63934 34.3571Z" fill="#7F7F7F" fill-rule="nonzero" fill-opacity="1" transform="matrix(1 0 0 -1.00123 63.6335 99.3603)"/><text fill="#000000" fill-opacity="1" font-family="Arial,Arial_MSFontService,sans-serif" font-style="normal" font-variant="normal" font-weight="400" font-stretch="normal" font-size="64" text-anchor="start" direction="ltr" writing-mode="lr-tb" unicode-bidi="normal" text-decoration="none" transform="matrix(0.191956 0 0 0.192192 36.4793 118)">Isotach,</text><text fill="#000000" fill-opacity="1" font-family="Arial,Arial_MSFontService,sans-serif" font-style="normal" font-variant="normal" font-weight="400" font-stretch="normal" font-size="64" text-anchor="start" direction="ltr" writing-mode="lr-tb" unicode-bidi="normal" text-decoration="none" transform="matrix(0.191956 0 0 0.192192 36.4793 133)">i.e., Equi</text><text fill="#000000" fill-opacity="1" font-family="Arial,Arial_MSFontService,sans-serif" font-style="normal" font-variant="normal" font-weight="400" font-stretch="normal" font-size="64" text-anchor="start" direction="ltr" writing-mode="lr-tb" unicode-bidi="normal" text-decoration="none" transform="matrix(0.191956 0 0 0.192192 84.3186 133)">-</text><text fill="#000000" fill-opacity="1" font-family="Arial,Arial_MSFontService,sans-serif" font-style="normal" font-variant="normal" font-weight="400" font-stretch="normal" font-size="64" text-anchor="start" direction="ltr" writing-mode="lr-tb" unicode-bidi="normal" text-decoration="none" transform="matrix(0.191956 0 0 0.192192 88.3881 133)">strain rate line</text><path d="M325.27 88.5877 377.249 121.311" stroke="#E97132" stroke-width="1.3197" stroke-linecap="butt" stroke-linejoin="miter" stroke-miterlimit="8" stroke-opacity="1" fill="none" fill-rule="evenodd" transform="matrix(1 0 0 1.00123 -273.537 -63.4234)"/><path d="M377.29 121.22 411.834 121.22" stroke="#E97132" stroke-width="1.3197" stroke-linecap="butt" stroke-linejoin="miter" stroke-miterlimit="8" stroke-opacity="1" fill="none" fill-rule="evenodd" transform="matrix(1 0 0 1.00123 -273.537 -63.4234)"/><path d="M411.842 121.028 441.207 139.514" stroke="#E97132" stroke-width="1.3197" stroke-linecap="butt" stroke-linejoin="miter" stroke-miterlimit="8" stroke-opacity="1" fill="none" fill-rule="evenodd" transform="matrix(1 0 0 1.00123 -273.537 -63.4234)"/><path d="M405.699 139.264 441.299 139.264" stroke="#E97132" stroke-width="1.3197" stroke-linecap="butt" stroke-linejoin="miter" stroke-miterlimit="8" stroke-opacity="1" fill="none" fill-rule="evenodd" transform="matrix(1 0 0 1.00123 -273.537 -63.4234)"/><path d="M405.891 139.456 435.257 157.942" stroke="#E97132" stroke-width="1.3197" stroke-linecap="butt" stroke-linejoin="miter" stroke-miterlimit="8" stroke-opacity="1" fill="none" fill-rule="evenodd" transform="matrix(1 0 0 1.00123 -273.537 -63.4234)"/><path d="M398.789 157.308 434.389 157.308" stroke="#E97132" stroke-width="1.3197" stroke-linecap="butt" stroke-linejoin="miter" stroke-miterlimit="8" stroke-opacity="1" fill="none" fill-rule="evenodd" transform="matrix(1 0 0 1.00123 -273.537 -63.4234)"/><path d="M399.173 157.692 428.538 176.178" stroke="#E97132" stroke-width="1.3197" stroke-linecap="butt" stroke-linejoin="miter" stroke-miterlimit="8" stroke-opacity="1" fill="none" fill-rule="evenodd" transform="matrix(1 0 0 1.00123 -273.537 -63.4234)"/><path d="M427.966 175.544 462.511 175.544" stroke="#E97132" stroke-width="1.3197" stroke-linecap="butt" stroke-linejoin="miter" stroke-miterlimit="8" stroke-opacity="1" fill="none" fill-rule="evenodd" transform="matrix(1 0 0 1.00123 -273.537 -63.4234)"/><path d="M462.518 175.352 491.884 193.837" stroke="#E97132" stroke-width="1.3197" stroke-linecap="butt" stroke-linejoin="miter" stroke-miterlimit="8" stroke-opacity="1" fill="none" fill-rule="evenodd" transform="matrix(1 0 0 1.00123 -273.537 -63.4234)"/><path d="M380.553 114.638 392.042 114.638 392.042 115.518 380.553 115.518ZM391.16 112.438 396.439 115.078 391.16 117.717Z" fill="#7F7F7F" fill-rule="nonzero" fill-opacity="1" transform="matrix(1 0 0 1.00123 -273.537 -63.4234)"/><path d="M2.00139e-06-0.4399 10.8275-0.43985 10.8275 0.439948-2.00139e-06 0.4399ZM9.9477-2.63936 15.2265 6.92754e-05 9.94767 2.63944Z" fill="#7F7F7F" fill-rule="nonzero" fill-opacity="1" transform="matrix(-1 0 0 1.00123 148.923 68.5165)"/><path d="M2.00139e-06-0.4399 10.8275-0.43985 10.8275 0.439948-2.00139e-06 0.4399ZM9.9477-2.63936 15.2265 6.92754e-05 9.94767 2.63944Z" fill="#7F7F7F" fill-rule="nonzero" fill-opacity="1" transform="matrix(-1 0 0 1.00123 145.276 88.6967)"/><path d="M428.542 167.618 440.031 167.618 440.031 168.498 428.542 168.498ZM439.15 165.418 444.428 168.058 439.15 170.697Z" fill="#7F7F7F" fill-rule="nonzero" fill-opacity="1" transform="matrix(1 0 0 1.00123 -273.537 -63.4234)"/><path d="M0 0 18.789 13.5222" stroke="#7F7F7F" stroke-width="0.879798" stroke-linecap="butt" stroke-linejoin="miter" stroke-miterlimit="8" stroke-opacity="1" fill="none" fill-rule="evenodd" transform="matrix(1 0 0 -1.00123 139.84 68.0253)"/><text fill="#000000" fill-opacity="1" font-family="Arial,Arial_MSFontService,sans-serif" font-style="normal" font-variant="normal" font-weight="400" font-stretch="normal" font-size="64" text-anchor="start" direction="ltr" writing-mode="lr-tb" unicode-bidi="normal" text-decoration="none" transform="matrix(0.191956 0 0 0.192192 163.637 47)">Step</text><text fill="#000000" fill-opacity="1" font-family="Arial,Arial_MSFontService,sans-serif" font-style="normal" font-variant="normal" font-weight="400" font-stretch="normal" font-size="64" text-anchor="start" direction="ltr" writing-mode="lr-tb" unicode-bidi="normal" text-decoration="none" transform="matrix(0.191956 0 0 0.192192 188.931 47)">-</text><text fill="#000000" fill-opacity="1" font-family="Arial,Arial_MSFontService,sans-serif" font-style="normal" font-variant="normal" font-weight="400" font-stretch="normal" font-size="64" text-anchor="start" direction="ltr" writing-mode="lr-tb" unicode-bidi="normal" text-decoration="none" transform="matrix(0.191956 0 0 0.192192 193 47)">wise strain rate </text><text fill="#000000" fill-opacity="1" font-family="Arial,Arial_MSFontService,sans-serif" font-style="normal" font-variant="normal" font-weight="400" font-stretch="normal" font-size="64" text-anchor="start" direction="ltr" writing-mode="lr-tb" unicode-bidi="normal" text-decoration="none" transform="matrix(0.191956 0 0 0.192192 163.637 61)">changes</text><path d="M318.21 93.2062 338.303 105.848 337.835 106.593 317.741 93.951ZM338.732 103.518 341.793 108.563 335.919 107.986Z" fill="#7F7F7F" fill-rule="nonzero" fill-opacity="1" transform="matrix(1 0 0 1.00123 -273.537 -63.4234)"/><path d="M461.409 180.546 481.503 193.188 481.034 193.933 460.94 181.291ZM481.931 190.858 484.992 195.903 479.119 195.327Z" fill="#7F7F7F" fill-rule="nonzero" fill-opacity="1" transform="matrix(1 0 0 1.00123 -273.537 -63.4234)"/></g></g></g></g></g></svg>