<svg width="248" height="240" xmlns="http://www.w3.org/2000/svg" xmlns:xlink="http://www.w3.org/1999/xlink" xml:space="preserve" overflow="hidden"><defs><clipPath id="clip0"><rect x="2" y="-91" width="9" height="385"/></clipPath><clipPath id="clip1"><rect x="2" y="-91" width="9" height="385"/></clipPath></defs><g><g><g><g><g><g><g><path d="M300.501 24.1783 548.501 24.1783 548.501 262.162 300.501 262.162Z" fill="#FFFFFF" fill-rule="nonzero" fill-opacity="1" transform="matrix(1 0 0 1.00282 -300.501 -24.2464)"/><path d="M0 0 5.43942e-05 206.552" stroke="#000000" stroke-width="0.690808" stroke-linecap="butt" stroke-linejoin="round" stroke-miterlimit="10" stroke-opacity="1" fill="none" fill-rule="evenodd" transform="matrix(1 0 0 -1.00282 24.8691 211.636)"/><path d="M325.37 235.22 326.752 235.22M325.37 229.348 326.752 229.348M325.37 223.476 326.752 223.476M325.37 217.604 326.752 217.604M325.37 211.733 326.752 211.733M325.37 205.861 326.752 205.861M325.37 199.989 326.752 199.989M325.37 194.117 326.752 194.117M325.37 188.245 326.752 188.245M325.37 182.028 326.752 182.028M325.37 176.156 326.752 176.156M325.37 170.284 326.752 170.284M325.37 164.412 326.752 164.412M325.37 158.54 326.752 158.54M325.37 152.669 326.752 152.669M325.37 146.797 326.752 146.797M325.37 140.925 326.752 140.925M325.37 135.053 326.752 135.053M325.37 129.181 326.752 129.181M325.37 123.309 326.752 123.309M325.37 117.437 326.752 117.437M325.37 111.565 326.752 111.565M325.37 105.348 326.752 105.348M325.37 99.4763 326.752 99.4763M325.37 93.6045 326.752 93.6045M325.37 87.7326 326.752 87.7326M325.37 81.8607 326.752 81.8607M325.37 75.9889 326.752 75.9889M325.37 70.117 326.752 70.117M325.37 64.2451 326.752 64.2451M325.37 58.3733 326.752 58.3733M325.37 52.5014 326.752 52.5014M325.37 46.6295 326.752 46.6295M325.37 40.7577 326.752 40.7577M325.37 34.8858 326.752 34.8858M325.37 28.6685 326.752 28.6685M325.37 235.22 327.443 235.22M325.37 205.861 327.443 205.861M325.37 176.156 327.443 176.156M325.37 146.797 327.443 146.797M325.37 117.437 327.443 117.437M325.37 87.7326 327.443 87.7326M325.37 58.3733 327.443 58.3733M325.37 28.6685 327.443 28.6685" stroke="#000000" stroke-width="0.690808" stroke-linecap="butt" stroke-linejoin="round" stroke-miterlimit="10" stroke-opacity="1" fill="none" fill-rule="nonzero" transform="matrix(1 0 0 1.00282 -300.501 -24.2464)"/><path d="M325.37 235.22 532.958 235.22" stroke="#000000" stroke-width="0.690808" stroke-linecap="butt" stroke-linejoin="round" stroke-miterlimit="10" stroke-opacity="1" fill="none" fill-rule="evenodd" transform="matrix(1 0 0 1.00282 -300.501 -24.2464)"/><path d="M325.37 233.493 325.37 235.22M332.279 233.493 332.279 235.22M339.187 233.493 339.187 235.22M346.095 233.493 346.095 235.22M353.003 233.493 353.003 235.22M359.911 233.493 359.911 235.22M366.819 233.493 366.819 235.22M373.727 233.493 373.727 235.22M380.635 233.493 380.635 235.22M387.543 233.493 387.543 235.22M394.451 233.493 394.451 235.22M401.359 233.493 401.359 235.22M408.267 233.493 408.267 235.22M415.176 233.493 415.176 235.22M422.084 233.493 422.084 235.22M428.992 233.493 428.992 235.22M436.245 233.493 436.245 235.22M443.153 233.493 443.153 235.22M450.061 233.493 450.061 235.22M456.969 233.493 456.969 235.22M463.877 233.493 463.877 235.22M470.786 233.493 470.786 235.22M477.694 233.493 477.694 235.22M484.602 233.493 484.602 235.22M491.51 233.493 491.51 235.22M498.418 233.493 498.418 235.22M505.326 233.493 505.326 235.22M512.234 233.493 512.234 235.22M519.142 233.493 519.142 235.22M526.05 233.493 526.05 235.22M532.958 233.493 532.958 235.22M325.37 233.148 325.37 235.22M359.911 233.148 359.911 235.22M394.451 233.148 394.451 235.22M428.992 233.148 428.992 235.22M463.877 233.148 463.877 235.22M498.418 233.148 498.418 235.22M532.958 233.148 532.958 235.22" stroke="#000000" stroke-width="0.690808" stroke-linecap="butt" stroke-linejoin="round" stroke-miterlimit="10" stroke-opacity="1" fill="none" fill-rule="nonzero" transform="matrix(1 0 0 1.00282 -300.501 -24.2464)"/><path d="M428.992 235.22 415.521 205.861 406.886 176.156 397.215 146.797 386.162 117.437 370.618 87.7326 355.421 58.3733 367.855 87.7326 378.217 117.437 393.07 146.797 417.593 176.156 445.916 205.861 473.549 235.22" stroke="#000000" stroke-width="0.690808" stroke-linecap="round" stroke-linejoin="round" stroke-miterlimit="10" stroke-opacity="1" fill="none" fill-rule="nonzero" transform="matrix(1 0 0 1.00282 -300.501 -24.2464)"/><path d="M431.409 235.22C431.409 236.555 430.328 237.638 428.992 237.638 427.655 237.638 426.574 236.555 426.574 235.22 426.574 233.885 427.655 232.802 428.992 232.802 430.328 232.802 431.409 233.885 431.409 235.22Z" stroke="#000000" stroke-width="0.518106" stroke-linecap="butt" stroke-linejoin="round" stroke-miterlimit="10" stroke-opacity="1" fill="#595959" fill-rule="nonzero" fill-opacity="1" transform="matrix(1 0 0 1.00282 -300.501 -24.2464)"/><path d="M417.939 205.861C417.939 207.196 416.858 208.279 415.521 208.279 414.184 208.279 413.103 207.196 413.103 205.861 413.103 204.525 414.184 203.443 415.521 203.443 416.858 203.443 417.939 204.525 417.939 205.861Z" stroke="#000000" stroke-width="0.518106" stroke-linecap="butt" stroke-linejoin="round" stroke-miterlimit="10" stroke-opacity="1" fill="#595959" fill-rule="nonzero" fill-opacity="1" transform="matrix(1 0 0 1.00282 -300.501 -24.2464)"/><path d="M409.304 176.156C409.304 177.491 408.223 178.574 406.886 178.574 405.549 178.574 404.468 177.491 404.468 176.156 404.468 174.821 405.549 173.738 406.886 173.738 408.223 173.738 409.304 174.821 409.304 176.156Z" stroke="#000000" stroke-width="0.518106" stroke-linecap="butt" stroke-linejoin="round" stroke-miterlimit="10" stroke-opacity="1" fill="#595959" fill-rule="nonzero" fill-opacity="1" transform="matrix(1 0 0 1.00282 -300.501 -24.2464)"/><path d="M399.632 146.797C399.632 148.132 398.551 149.214 397.215 149.214 395.878 149.214 394.797 148.132 394.797 146.797 394.797 145.461 395.878 144.379 397.215 144.379 398.551 144.379 399.632 145.461 399.632 146.797Z" stroke="#000000" stroke-width="0.518106" stroke-linecap="butt" stroke-linejoin="round" stroke-miterlimit="10" stroke-opacity="1" fill="#595959" fill-rule="nonzero" fill-opacity="1" transform="matrix(1 0 0 1.00282 -300.501 -24.2464)"/><path d="M388.579 117.437C388.579 118.773 387.498 119.855 386.162 119.855 384.825 119.855 383.744 118.773 383.744 117.437 383.744 116.102 384.825 115.02 386.162 115.02 387.498 115.02 388.579 116.102 388.579 117.437Z" stroke="#000000" stroke-width="0.518106" stroke-linecap="butt" stroke-linejoin="round" stroke-miterlimit="10" stroke-opacity="1" fill="#595959" fill-rule="nonzero" fill-opacity="1" transform="matrix(1 0 0 1.00282 -300.501 -24.2464)"/><path d="M373.036 87.7326C373.036 89.0679 371.955 90.1504 370.618 90.1504 369.282 90.1504 368.201 89.0679 368.201 87.7326 368.201 86.3973 369.282 85.3148 370.618 85.3148 371.955 85.3148 373.036 86.3973 373.036 87.7326Z" stroke="#000000" stroke-width="0.518106" stroke-linecap="butt" stroke-linejoin="round" stroke-miterlimit="10" stroke-opacity="1" fill="#595959" fill-rule="nonzero" fill-opacity="1" transform="matrix(1 0 0 1.00282 -300.501 -24.2464)"/><path d="M357.838 58.3733C357.838 59.7086 356.757 60.7911 355.421 60.7911 354.084 60.7911 353.003 59.7086 353.003 58.3733 353.003 57.0379 354.084 55.9554 355.421 55.9554 356.757 55.9554 357.838 57.0379 357.838 58.3733Z" stroke="#000000" stroke-width="0.518106" stroke-linecap="butt" stroke-linejoin="round" stroke-miterlimit="10" stroke-opacity="1" fill="#595959" fill-rule="nonzero" fill-opacity="1" transform="matrix(1 0 0 1.00282 -300.501 -24.2464)"/><path d="M370.273 87.7326C370.273 89.0679 369.192 90.1504 367.855 90.1504 366.518 90.1504 365.437 89.0679 365.437 87.7326 365.437 86.3973 366.518 85.3148 367.855 85.3148 369.192 85.3148 370.273 86.3973 370.273 87.7326Z" stroke="#000000" stroke-width="0.518106" stroke-linecap="butt" stroke-linejoin="round" stroke-miterlimit="10" stroke-opacity="1" fill="#595959" fill-rule="nonzero" fill-opacity="1" transform="matrix(1 0 0 1.00282 -300.501 -24.2464)"/><path d="M380.635 117.437C380.635 118.773 379.554 119.855 378.217 119.855 376.881 119.855 375.799 118.773 375.799 117.437 375.799 116.102 376.881 115.02 378.217 115.02 379.554 115.02 380.635 116.102 380.635 117.437Z" stroke="#000000" stroke-width="0.518106" stroke-linecap="butt" stroke-linejoin="round" stroke-miterlimit="10" stroke-opacity="1" fill="#595959" fill-rule="nonzero" fill-opacity="1" transform="matrix(1 0 0 1.00282 -300.501 -24.2464)"/><path d="M395.487 146.797C395.487 148.132 394.406 149.214 393.07 149.214 391.733 149.214 390.652 148.132 390.652 146.797 390.652 145.461 391.733 144.379 393.07 144.379 394.406 144.379 395.487 145.461 395.487 146.797Z" stroke="#000000" stroke-width="0.518106" stroke-linecap="butt" stroke-linejoin="round" stroke-miterlimit="10" stroke-opacity="1" fill="#595959" fill-rule="nonzero" fill-opacity="1" transform="matrix(1 0 0 1.00282 -300.501 -24.2464)"/><path d="M420.011 176.156C420.011 177.491 418.93 178.574 417.593 178.574 416.257 178.574 415.176 177.491 415.176 176.156 415.176 174.821 416.257 173.738 417.593 173.738 418.93 173.738 420.011 174.821 420.011 176.156Z" stroke="#000000" stroke-width="0.518106" stroke-linecap="butt" stroke-linejoin="round" stroke-miterlimit="10" stroke-opacity="1" fill="#595959" fill-rule="nonzero" fill-opacity="1" transform="matrix(1 0 0 1.00282 -300.501 -24.2464)"/><path d="M448.334 205.861C448.334 207.196 447.253 208.279 445.916 208.279 444.58 208.279 443.499 207.196 443.499 205.861 443.499 204.525 444.58 203.443 445.916 203.443 447.253 203.443 448.334 204.525 448.334 205.861Z" stroke="#000000" stroke-width="0.518106" stroke-linecap="butt" stroke-linejoin="round" stroke-miterlimit="10" stroke-opacity="1" fill="#595959" fill-rule="nonzero" fill-opacity="1" transform="matrix(1 0 0 1.00282 -300.501 -24.2464)"/><path d="M475.967 235.22C475.967 236.555 474.885 237.638 473.549 237.638 472.212 237.638 471.131 236.555 471.131 235.22 471.131 233.885 472.212 232.802 473.549 232.802 474.885 232.802 475.967 233.885 475.967 235.22Z" stroke="#000000" stroke-width="0.518106" stroke-linecap="butt" stroke-linejoin="round" stroke-miterlimit="10" stroke-opacity="1" fill="#595959" fill-rule="nonzero" fill-opacity="1" transform="matrix(1 0 0 1.00282 -300.501 -24.2464)"/><text fill="#000000" fill-opacity="1" font-family="Arial,Arial_MSFontService,sans-serif" font-style="normal" font-variant="normal" font-weight="400" font-stretch="normal" font-size="22" text-anchor="start" direction="ltr" writing-mode="lr-tb" unicode-bidi="normal" text-decoration="none" transform="matrix(0.345404 0 0 0.346377 14.4393 214)">0</text><text fill="#000000" fill-opacity="1" font-family="Arial,Arial_MSFontService,sans-serif" font-style="normal" font-variant="normal" font-weight="400" font-stretch="normal" font-size="22" text-anchor="start" direction="ltr" writing-mode="lr-tb" unicode-bidi="normal" text-decoration="none" transform="matrix(0.345404 0 0 0.346377 10.4049 185)">10</text><text fill="#000000" fill-opacity="1" font-family="Arial,Arial_MSFontService,sans-serif" font-style="normal" font-variant="normal" font-weight="400" font-stretch="normal" font-size="22" text-anchor="start" direction="ltr" writing-mode="lr-tb" unicode-bidi="normal" text-decoration="none" transform="matrix(0.345404 0 0 0.346377 10.4049 155)">20</text><text fill="#000000" fill-opacity="1" font-family="Arial,Arial_MSFontService,sans-serif" font-style="normal" font-variant="normal" font-weight="400" font-stretch="normal" font-size="22" text-anchor="start" direction="ltr" writing-mode="lr-tb" unicode-bidi="normal" text-decoration="none" transform="matrix(0.345404 0 0 0.346377 10.4049 125)">30</text><text fill="#000000" fill-opacity="1" font-family="Arial,Arial_MSFontService,sans-serif" font-style="normal" font-variant="normal" font-weight="400" font-stretch="normal" font-size="22" text-anchor="start" direction="ltr" writing-mode="lr-tb" unicode-bidi="normal" text-decoration="none" transform="matrix(0.345404 0 0 0.346377 10.4049 96)">40</text><text fill="#000000" fill-opacity="1" font-family="Arial,Arial_MSFontService,sans-serif" font-style="normal" font-variant="normal" font-weight="400" font-stretch="normal" font-size="22" text-anchor="start" direction="ltr" writing-mode="lr-tb" unicode-bidi="normal" text-decoration="none" transform="matrix(0.345404 0 0 0.346377 10.4049 67)">50</text><text fill="#000000" fill-opacity="1" font-family="Arial,Arial_MSFontService,sans-serif" font-style="normal" font-variant="normal" font-weight="400" font-stretch="normal" font-size="22" text-anchor="start" direction="ltr" writing-mode="lr-tb" unicode-bidi="normal" text-decoration="none" transform="matrix(0.345404 0 0 0.346377 10.4049 37)">60</text><text fill="#000000" fill-opacity="1" font-family="Arial,Arial_MSFontService,sans-serif" font-style="normal" font-variant="normal" font-weight="400" font-stretch="normal" font-size="22" text-anchor="start" direction="ltr" writing-mode="lr-tb" unicode-bidi="normal" text-decoration="none" transform="matrix(0.345404 0 0 0.346377 10.4049 7)">70</text><text fill="#000000" fill-opacity="1" font-family="Arial,Arial_MSFontService,sans-serif" font-style="normal" font-variant="normal" font-weight="400" font-stretch="normal" font-size="22" text-anchor="start" direction="ltr" writing-mode="lr-tb" unicode-bidi="normal" text-decoration="none" transform="matrix(0.345404 0 0 0.346377 12.4138 223)">-0.0015</text><text fill="#000000" fill-opacity="1" font-family="Arial,Arial_MSFontService,sans-serif" font-style="normal" font-variant="normal" font-weight="400" font-stretch="normal" font-size="22" text-anchor="start" direction="ltr" writing-mode="lr-tb" unicode-bidi="normal" text-decoration="none" transform="matrix(0.345404 0 0 0.346377 49.0784 223)">-0.001</text><text fill="#000000" fill-opacity="1" font-family="Arial,Arial_MSFontService,sans-serif" font-style="normal" font-variant="normal" font-weight="400" font-stretch="normal" font-size="22" text-anchor="start" direction="ltr" writing-mode="lr-tb" unicode-bidi="normal" text-decoration="none" transform="matrix(0.345404 0 0 0.346377 81.7122 223)">-0.0005</text><text fill="#000000" fill-opacity="1" font-family="Arial,Arial_MSFontService,sans-serif" font-style="normal" font-variant="normal" font-weight="400" font-stretch="normal" font-size="22" text-anchor="start" direction="ltr" writing-mode="lr-tb" unicode-bidi="normal" text-decoration="none" transform="matrix(0.345404 0 0 0.346377 126.642 223)">0</text><text fill="#000000" fill-opacity="1" font-family="Arial,Arial_MSFontService,sans-serif" font-style="normal" font-variant="normal" font-weight="400" font-stretch="normal" font-size="22" text-anchor="start" direction="ltr" writing-mode="lr-tb" unicode-bidi="normal" text-decoration="none" transform="matrix(0.345404 0 0 0.346377 152.216 223)">0.0005</text><text fill="#000000" fill-opacity="1" font-family="Arial,Arial_MSFontService,sans-serif" font-style="normal" font-variant="normal" font-weight="400" font-stretch="normal" font-size="22" text-anchor="start" direction="ltr" writing-mode="lr-tb" unicode-bidi="normal" text-decoration="none" transform="matrix(0.345404 0 0 0.346377 188.881 223)">0.001</text><text fill="#000000" fill-opacity="1" font-family="Arial,Arial_MSFontService,sans-serif" font-style="normal" font-variant="normal" font-weight="400" font-stretch="normal" font-size="22" text-anchor="start" direction="ltr" writing-mode="lr-tb" unicode-bidi="normal" text-decoration="none" transform="matrix(0.345404 0 0 0.346377 221.511 223)">0.0015</text><text fill="#000000" fill-opacity="1" font-family="Arial,Arial_MSFontService,sans-serif" font-style="normal" font-variant="normal" font-weight="400" font-stretch="normal" font-size="22" text-anchor="start" direction="ltr" writing-mode="lr-tb" unicode-bidi="normal" text-decoration="none" transform="matrix(0.345404 0 0 0.346377 86.427 233)">Thermal volumetric strain</text><text fill="#000000" fill-opacity="1" font-family="Arial,Arial_MSFontService,sans-serif" font-style="normal" font-variant="normal" font-weight="400" font-stretch="normal" font-size="22" text-anchor="start" direction="ltr" writing-mode="lr-tb" unicode-bidi="normal" text-decoration="none" transform="matrix(0.345404 0 0 0.346377 171.745 233)">:</text><text fill="#000000" fill-opacity="1" font-family="Arial,Arial_MSFontService,sans-serif" font-style="normal" font-variant="normal" font-weight="400" font-stretch="normal" font-size="22" text-anchor="start" direction="ltr" writing-mode="lr-tb" unicode-bidi="normal" text-decoration="none" transform="matrix(0.345404 0 0 0.346377 175.966 233)">-</text><g clip-path="url(#clip0)"><text fill="#000000" fill-opacity="1" font-family="Arial,Arial_MSFontService,sans-serif" font-style="normal" font-variant="normal" font-weight="400" font-stretch="normal" font-size="22" text-anchor="start" direction="ltr" writing-mode="lr-tb" unicode-bidi="normal" text-decoration="none" transform="matrix(-6.34497e-17 -0.346377 0.345404 -6.36284e-17 8.58881 129)">Temperature</text></g><g clip-path="url(#clip1)"><text fill="#000000" fill-opacity="1" font-family="Arial,Arial_MSFontService,sans-serif" font-style="normal" font-variant="normal" font-weight="400" font-stretch="normal" font-size="22" text-anchor="start" direction="ltr" writing-mode="lr-tb" unicode-bidi="normal" text-decoration="none" transform="matrix(-6.34497e-17 -0.346377 0.345404 -6.36284e-17 8.58881 86)">: </text></g><g><text fill="#000000" fill-opacity="1" font-family="Cambria Math,Cambria Math_MSFontService,sans-serif" font-style="normal" font-variant="normal" font-weight="400" font-stretch="normal" font-size="22" text-anchor="start" direction="ltr" writing-mode="lr-tb" unicode-bidi="normal" text-decoration="none" transform="matrix(-6.34497e-17 -0.346377 0.345404 -6.36284e-17 8.58881 81)">℃</text></g><path d="M336.769 205.17 399.287 205.17 399.287 231.421 336.769 231.421Z" stroke="#000000" stroke-width="0.690808" stroke-linecap="butt" stroke-linejoin="miter" stroke-miterlimit="8" stroke-opacity="1" fill="none" fill-rule="nonzero" transform="matrix(1 0 0 1.00282 -300.501 -24.2464)"/><text fill="#000000" fill-opacity="1" font-family="Arial,Arial_MSFontService,sans-serif" font-style="normal" font-variant="normal" font-weight="400" font-stretch="normal" font-size="22" text-anchor="start" direction="ltr" writing-mode="lr-tb" unicode-bidi="normal" text-decoration="none" transform="matrix(0.345404 0 0 0.346377 48.8954 192)">Loose sand</text><text fill="#000000" fill-opacity="1" font-family="Arial,Arial_MSFontService,sans-serif" font-style="normal" font-variant="normal" font-weight="400" font-stretch="normal" font-size="22" text-anchor="start" direction="ltr" writing-mode="lr-tb" unicode-bidi="normal" text-decoration="none" transform="matrix(0.345404 0 0 0.346377 137.032 142)">Plastic straining:</text><text fill="#000000" fill-opacity="1" font-family="Arial,Arial_MSFontService,sans-serif" font-style="italic" font-variant="normal" font-weight="400" font-stretch="normal" font-size="22" text-anchor="start" direction="ltr" writing-mode="lr-tb" unicode-bidi="normal" text-decoration="none" transform="matrix(0.345404 0 0 0.346377 141.059 150)">thermal collapse</text><path d="M0 0 5.43942e-05 209.456" stroke="#000000" stroke-width="0.690808" stroke-linecap="butt" stroke-linejoin="miter" stroke-miterlimit="8" stroke-dasharray="2.76323 2.07242" stroke-opacity="1" fill="none" fill-rule="evenodd" transform="matrix(1 0 0 -1.00282 131.599 212.471)"/><text fill="#000000" fill-opacity="1" font-family="Arial,Arial_MSFontService,sans-serif" font-style="normal" font-variant="normal" font-weight="400" font-stretch="normal" font-size="22" text-anchor="start" direction="ltr" writing-mode="lr-tb" unicode-bidi="normal" text-decoration="none" transform="matrix(0.345404 0 0 0.346377 42.0187 203)">(angular</text><text fill="#000000" fill-opacity="1" font-family="Arial,Arial_MSFontService,sans-serif" font-style="normal" font-variant="normal" font-weight="400" font-stretch="normal" font-size="22" text-anchor="start" direction="ltr" writing-mode="lr-tb" unicode-bidi="normal" text-decoration="none" transform="matrix(0.345404 0 0 0.346377 70.6455 203)">shape</text><text fill="#000000" fill-opacity="1" font-family="Arial,Arial_MSFontService,sans-serif" font-style="normal" font-variant="normal" font-weight="400" font-stretch="normal" font-size="22" text-anchor="start" direction="ltr" writing-mode="lr-tb" unicode-bidi="normal" text-decoration="none" transform="matrix(0.345404 0 0 0.346377 90.4095 203)">)</text><path d="M416.315 157.861 377.979 70.4234 378.611 70.146 416.947 157.584ZM377.309 71.472 375.799 64.5905 379.837 70.3626Z" fill="#595959" fill-rule="nonzero" fill-opacity="1" transform="matrix(1 0 0 1.00282 -300.501 -24.2464)"/><path d="M355.393 85.8667 383.979 151.072 383.343 151.349 354.757 86.1444ZM384.649 150.023 386.158 156.905 382.117 151.133Z" fill="#595959" fill-rule="nonzero" fill-opacity="1" transform="matrix(1 0 0 1.00282 -300.501 -24.2464)"/><text fill="#000000" fill-opacity="1" font-family="Arial,Arial_MSFontService,sans-serif" font-style="normal" font-variant="normal" font-weight="400" font-stretch="normal" font-size="22" text-anchor="start" direction="ltr" writing-mode="lr-tb" unicode-bidi="normal" text-decoration="none" transform="matrix(0.345404 0 0 0.346377 83.947 35)">Heating</text><text fill="#000000" fill-opacity="1" font-family="Arial,Arial_MSFontService,sans-serif" font-style="normal" font-variant="normal" font-weight="400" font-stretch="normal" font-size="22" text-anchor="start" direction="ltr" writing-mode="lr-tb" unicode-bidi="normal" text-decoration="none" transform="matrix(0.345404 0 0 0.346377 82.5377 44)">(dilation)</text><text fill="#000000" fill-opacity="1" font-family="Arial,Arial_MSFontService,sans-serif" font-style="normal" font-variant="normal" font-weight="400" font-stretch="normal" font-size="22" text-anchor="start" direction="ltr" writing-mode="lr-tb" unicode-bidi="normal" text-decoration="none" transform="matrix(0.345404 0 0 0.346377 62.8186 140)">Cooling</text><text fill="#000000" fill-opacity="1" font-family="Arial,Arial_MSFontService,sans-serif" font-style="normal" font-variant="normal" font-weight="400" font-stretch="normal" font-size="22" text-anchor="start" direction="ltr" writing-mode="lr-tb" unicode-bidi="normal" text-decoration="none" transform="matrix(0.345404 0 0 0.346377 56.7775 149)">(contration)</text><path d="M3.45403-0.345399 39.2096-0.345354 39.2096 0.345452 3.45403 0.345407ZM4.14485 2.07243 0 0 4.14485-2.07242ZM38.5188-2.07238 42.6636 5.43942e-05 38.5188 2.07247Z" fill="#595959" fill-rule="nonzero" fill-opacity="1" transform="matrix(-1 0 0 1.00282 174.954 161.065)"/><path d="M0 0 5.43942e-05 56.2832" stroke="#000000" stroke-width="0.690808" stroke-linecap="butt" stroke-linejoin="miter" stroke-miterlimit="8" stroke-dasharray="2.76323 2.07242" stroke-opacity="1" fill="none" fill-rule="evenodd" transform="matrix(1 0 0 -1.00282 174.774 211.272)"/></g></g></g></g></g></g></g></svg>