<svg width="360" height="348" xmlns="http://www.w3.org/2000/svg" xmlns:xlink="http://www.w3.org/1999/xlink" xml:space="preserve" overflow="hidden"><defs><clipPath id="clip0"><rect x="0" y="0" width="360" height="348"/></clipPath><clipPath id="clip1"><rect x="0" y="0" width="360" height="348"/></clipPath><clipPath id="clip2"><rect x="47" y="42" width="296" height="301"/></clipPath><clipPath id="clip3"><rect x="47" y="42" width="296" height="301"/></clipPath></defs><g clip-path="url(#clip0)"><g clip-path="url(#clip1)"><path d="M1566.5 52.8481 1925.47 52.8481 1925.47 400.848 1566.5 400.848Z" fill="#FFFFFF" fill-rule="nonzero" fill-opacity="1" transform="matrix(1.00287 0 0 1 -1571 -52.8481)"/><path d="M1613.86 96.2235 1613.86 394.367" stroke="#000000" stroke-width="0.747851" stroke-linecap="butt" stroke-linejoin="round" stroke-miterlimit="10" stroke-opacity="1" fill="none" fill-rule="evenodd" transform="matrix(1.00287 0 0 1 -1571 -52.8481)"/><path d="M1613.86 96.2235 1615.86 96.2235M1613.86 111.181 1615.86 111.181M1613.86 126.138 1615.86 126.138M1613.86 141.095 1615.86 141.095M1613.86 156.052 1615.86 156.052M1613.86 171.009 1615.86 171.009M1613.86 185.966 1615.86 185.966M1613.86 200.923 1615.86 200.923M1613.86 215.88 1615.86 215.88M1613.86 230.837 1615.86 230.837M1613.86 245.794 1615.86 245.794M1613.86 260.751 1615.86 260.751M1613.86 274.711 1615.86 274.711M1613.86 289.668 1615.86 289.668M1613.86 304.625 1615.86 304.625M1613.86 319.582 1615.86 319.582M1613.86 334.539 1615.86 334.539M1613.86 349.496 1615.86 349.496M1613.86 364.453 1615.86 364.453M1613.86 379.41 1615.86 379.41M1613.86 394.367 1615.86 394.367M1613.86 96.2235 1616.85 96.2235M1613.86 156.052 1616.85 156.052M1613.86 215.88 1616.85 215.88M1613.86 274.711 1616.85 274.711M1613.86 334.539 1616.85 334.539M1613.86 394.367 1616.85 394.367" stroke="#000000" stroke-width="0.747851" stroke-linecap="butt" stroke-linejoin="round" stroke-miterlimit="10" stroke-opacity="1" fill="none" fill-rule="nonzero" transform="matrix(1.00287 0 0 1 -1571 -52.8481)"/><path d="M1613.86 96.2235 1908.02 96.2236" stroke="#000000" stroke-width="0.747851" stroke-linecap="butt" stroke-linejoin="round" stroke-miterlimit="10" stroke-opacity="1" fill="none" fill-rule="evenodd" transform="matrix(1.00287 0 0 1 -1571 -52.8481)"/><path d="M1613.86 96.2235 1613.86 99.2149M1635.8 96.2235 1635.8 99.2149M1648.76 96.2235 1648.76 99.2149M1657.74 96.2235 1657.74 99.2149M1664.72 96.2235 1664.72 99.2149M1670.7 96.2235 1670.7 99.2149M1675.68 96.2235 1675.68 99.2149M1679.67 96.2235 1679.67 99.2149M1683.66 96.2235 1683.66 99.2149M1687.65 96.2235 1687.65 99.2149M1709.59 96.2235 1709.59 99.2149M1722.55 96.2235 1722.55 99.2149M1731.52 96.2235 1731.52 99.2149M1738.5 96.2235 1738.5 99.2149M1744.49 96.2235 1744.49 99.2149M1749.47 96.2235 1749.47 99.2149M1753.46 96.2235 1753.46 99.2149M1757.45 96.2235 1757.45 99.2149M1760.44 96.2235 1760.44 99.2149M1783.38 96.2235 1783.38 99.2149M1796.34 96.2235 1796.34 99.2149M1805.31 96.2235 1805.31 99.2149M1812.29 96.2235 1812.29 99.2149M1818.28 96.2235 1818.28 99.2149M1823.26 96.2235 1823.26 99.2149M1827.25 96.2235 1827.25 99.2149M1831.24 96.2235 1831.24 99.2149M1834.23 96.2235 1834.23 99.2149M1856.17 96.2235 1856.17 99.2149M1869.13 96.2235 1869.13 99.2149M1879.1 96.2235 1879.1 99.2149M1886.08 96.2235 1886.08 99.2149M1892.06 96.2235 1892.06 99.2149M1896.05 96.2235 1896.05 99.2149M1901.04 96.2235 1901.04 99.2149M1905.03 96.2235 1905.03 99.2149M1908.02 96.2235 1908.02 99.2149M1613.86 96.2235 1613.86 100.212M1687.65 96.2235 1687.65 100.212M1760.44 96.2235 1760.44 100.212M1834.23 96.2235 1834.23 100.212M1908.02 96.2235 1908.02 100.212" stroke="#000000" stroke-width="0.747851" stroke-linecap="butt" stroke-linejoin="round" stroke-miterlimit="10" stroke-opacity="1" fill="none" fill-rule="nonzero" transform="matrix(1.00287 0 0 1 -1571 -52.8481)"/><g clip-path="url(#clip2)"><path d="M1645.77 122.149 1665.71 126.138 1678.68 130.126 1687.65 134.115 1693.63 138.103 1699.62 142.092 1704.6 145.083 1709.59 148.074 1715.57 153.06 1737.51 173.003 1749.47 187.96 1759.44 204.911 1766.42 218.871 1774.4 231.834 1785.37 258.756 1809.3 331.547 1823.26 364.453 1832.23 379.41 1843.2 391.375 1854.17 392.372 1862.15 393.37 1883.09 394.367 1897.05 394.367 1906.02 394.367 1921.98 394.367 1931.95 394.367" stroke="#000000" stroke-width="0.997135" stroke-linecap="round" stroke-linejoin="round" stroke-miterlimit="10" stroke-opacity="1" fill="none" fill-rule="nonzero" transform="matrix(1.00287 0 0 1 -1571 -52.8481)"/></g><path d="M1645.97 117.495 1650.96 127.467 1640.98 127.467Z" stroke="#000000" stroke-width="0.747851" stroke-linecap="butt" stroke-linejoin="round" stroke-miterlimit="10" stroke-opacity="1" fill="#FFFFFF" fill-rule="nonzero" fill-opacity="1" transform="matrix(1.00287 0 0 1 -1571 -52.8481)"/><path d="M1665.91 121.484 1670.9 131.455 1660.93 131.455Z" stroke="#000000" stroke-width="0.747851" stroke-linecap="butt" stroke-linejoin="round" stroke-miterlimit="10" stroke-opacity="1" fill="#FFFFFF" fill-rule="nonzero" fill-opacity="1" transform="matrix(1.00287 0 0 1 -1571 -52.8481)"/><path d="M1678.88 125.472 1683.86 135.444 1673.89 135.444Z" stroke="#000000" stroke-width="0.747851" stroke-linecap="butt" stroke-linejoin="round" stroke-miterlimit="10" stroke-opacity="1" fill="#FFFFFF" fill-rule="nonzero" fill-opacity="1" transform="matrix(1.00287 0 0 1 -1571 -52.8481)"/><path d="M1687.85 129.461 1692.84 139.432 1682.86 139.432Z" stroke="#000000" stroke-width="0.747851" stroke-linecap="butt" stroke-linejoin="round" stroke-miterlimit="10" stroke-opacity="1" fill="#FFFFFF" fill-rule="nonzero" fill-opacity="1" transform="matrix(1.00287 0 0 1 -1571 -52.8481)"/><path d="M1693.83 133.45 1698.82 143.421 1688.85 143.421Z" stroke="#000000" stroke-width="0.747851" stroke-linecap="butt" stroke-linejoin="round" stroke-miterlimit="10" stroke-opacity="1" fill="#FFFFFF" fill-rule="nonzero" fill-opacity="1" transform="matrix(1.00287 0 0 1 -1571 -52.8481)"/><path d="M1699.82 137.438 1704.8 147.409 1694.83 147.409Z" stroke="#000000" stroke-width="0.747851" stroke-linecap="butt" stroke-linejoin="round" stroke-miterlimit="10" stroke-opacity="1" fill="#FFFFFF" fill-rule="nonzero" fill-opacity="1" transform="matrix(1.00287 0 0 1 -1571 -52.8481)"/><path d="M1704.8 140.429 1709.79 150.401 1699.82 150.401Z" stroke="#000000" stroke-width="0.747851" stroke-linecap="butt" stroke-linejoin="round" stroke-miterlimit="10" stroke-opacity="1" fill="#FFFFFF" fill-rule="nonzero" fill-opacity="1" transform="matrix(1.00287 0 0 1 -1571 -52.8481)"/><path d="M1709.79 143.421 1714.77 153.392 1704.8 153.392Z" stroke="#000000" stroke-width="0.747851" stroke-linecap="butt" stroke-linejoin="round" stroke-miterlimit="10" stroke-opacity="1" fill="#FFFFFF" fill-rule="nonzero" fill-opacity="1" transform="matrix(1.00287 0 0 1 -1571 -52.8481)"/><path d="M1715.77 148.407 1720.76 158.378 1710.78 158.378Z" stroke="#000000" stroke-width="0.747851" stroke-linecap="butt" stroke-linejoin="round" stroke-miterlimit="10" stroke-opacity="1" fill="#FFFFFF" fill-rule="nonzero" fill-opacity="1" transform="matrix(1.00287 0 0 1 -1571 -52.8481)"/><path d="M1737.71 168.349 1742.69 178.321 1732.72 178.321Z" stroke="#000000" stroke-width="0.747851" stroke-linecap="butt" stroke-linejoin="round" stroke-miterlimit="10" stroke-opacity="1" fill="#FFFFFF" fill-rule="nonzero" fill-opacity="1" transform="matrix(1.00287 0 0 1 -1571 -52.8481)"/><path d="M1749.67 183.306 1754.66 193.278 1744.69 193.278Z" stroke="#000000" stroke-width="0.747851" stroke-linecap="butt" stroke-linejoin="round" stroke-miterlimit="10" stroke-opacity="1" fill="#FFFFFF" fill-rule="nonzero" fill-opacity="1" transform="matrix(1.00287 0 0 1 -1571 -52.8481)"/><path d="M1759.64 200.258 1764.63 210.229 1754.66 210.229Z" stroke="#000000" stroke-width="0.747851" stroke-linecap="butt" stroke-linejoin="round" stroke-miterlimit="10" stroke-opacity="1" fill="#FFFFFF" fill-rule="nonzero" fill-opacity="1" transform="matrix(1.00287 0 0 1 -1571 -52.8481)"/><path d="M1766.62 214.217 1771.61 224.189 1761.64 224.189Z" stroke="#000000" stroke-width="0.747851" stroke-linecap="butt" stroke-linejoin="round" stroke-miterlimit="10" stroke-opacity="1" fill="#FFFFFF" fill-rule="nonzero" fill-opacity="1" transform="matrix(1.00287 0 0 1 -1571 -52.8481)"/><path d="M1774.6 227.18 1779.59 237.152 1769.61 237.152Z" stroke="#000000" stroke-width="0.747851" stroke-linecap="butt" stroke-linejoin="round" stroke-miterlimit="10" stroke-opacity="1" fill="#FFFFFF" fill-rule="nonzero" fill-opacity="1" transform="matrix(1.00287 0 0 1 -1571 -52.8481)"/><path d="M1785.57 254.103 1790.55 264.074 1780.58 264.074Z" stroke="#000000" stroke-width="0.747851" stroke-linecap="butt" stroke-linejoin="round" stroke-miterlimit="10" stroke-opacity="1" fill="#FFFFFF" fill-rule="nonzero" fill-opacity="1" transform="matrix(1.00287 0 0 1 -1571 -52.8481)"/><path d="M1809.5 326.894 1814.49 336.865 1804.51 336.865Z" stroke="#000000" stroke-width="0.747851" stroke-linecap="butt" stroke-linejoin="round" stroke-miterlimit="10" stroke-opacity="1" fill="#FFFFFF" fill-rule="nonzero" fill-opacity="1" transform="matrix(1.00287 0 0 1 -1571 -52.8481)"/><path d="M1823.46 359.799 1828.45 369.77 1818.47 369.77Z" stroke="#000000" stroke-width="0.747851" stroke-linecap="butt" stroke-linejoin="round" stroke-miterlimit="10" stroke-opacity="1" fill="#FFFFFF" fill-rule="nonzero" fill-opacity="1" transform="matrix(1.00287 0 0 1 -1571 -52.8481)"/><path d="M1832.43 374.756 1837.42 384.727 1827.45 384.727Z" stroke="#000000" stroke-width="0.747851" stroke-linecap="butt" stroke-linejoin="round" stroke-miterlimit="10" stroke-opacity="1" fill="#FFFFFF" fill-rule="nonzero" fill-opacity="1" transform="matrix(1.00287 0 0 1 -1571 -52.8481)"/><path d="M1843.4 386.722 1848.39 396.693 1838.42 396.693Z" stroke="#000000" stroke-width="0.747851" stroke-linecap="butt" stroke-linejoin="round" stroke-miterlimit="10" stroke-opacity="1" fill="#FFFFFF" fill-rule="nonzero" fill-opacity="1" transform="matrix(1.00287 0 0 1 -1571 -52.8481)"/><path d="M1854.37 387.719 1859.36 397.69 1849.39 397.69Z" stroke="#000000" stroke-width="0.747851" stroke-linecap="butt" stroke-linejoin="round" stroke-miterlimit="10" stroke-opacity="1" fill="#FFFFFF" fill-rule="nonzero" fill-opacity="1" transform="matrix(1.00287 0 0 1 -1571 -52.8481)"/><path d="M1862.35 388.716 1867.33 398.687 1857.36 398.687Z" stroke="#000000" stroke-width="0.747851" stroke-linecap="butt" stroke-linejoin="round" stroke-miterlimit="10" stroke-opacity="1" fill="#FFFFFF" fill-rule="nonzero" fill-opacity="1" transform="matrix(1.00287 0 0 1 -1571 -52.8481)"/><path d="M1883.29 389.713 1888.27 399.685 1878.3 399.685Z" stroke="#000000" stroke-width="0.747851" stroke-linecap="butt" stroke-linejoin="round" stroke-miterlimit="10" stroke-opacity="1" fill="#FFFFFF" fill-rule="nonzero" fill-opacity="1" transform="matrix(1.00287 0 0 1 -1571 -52.8481)"/><path d="M1897.25 389.713 1902.23 399.685 1892.26 399.685Z" stroke="#000000" stroke-width="0.747851" stroke-linecap="butt" stroke-linejoin="round" stroke-miterlimit="10" stroke-opacity="1" fill="#FFFFFF" fill-rule="nonzero" fill-opacity="1" transform="matrix(1.00287 0 0 1 -1571 -52.8481)"/><path d="M1906.22 389.713 1911.21 399.685 1901.24 399.685Z" stroke="#000000" stroke-width="0.747851" stroke-linecap="butt" stroke-linejoin="round" stroke-miterlimit="10" stroke-opacity="1" fill="#FFFFFF" fill-rule="nonzero" fill-opacity="1" transform="matrix(1.00287 0 0 1 -1571 -52.8481)"/><g clip-path="url(#clip3)"><path d="M1595.91 122.149 1616.85 126.138 1634.8 130.126 1645.77 133.117 1658.73 138.103 1673.69 146.08 1687.65 156.052 1705.6 172.006 1724.54 194.94 1745.48 227.845 1767.42 270.722 1788.36 306.619 1820.27 361.461 1841.21 382.401 1856.17 390.378 1870.13 394.367 1887.08 394.367" stroke="#000000" stroke-width="0.997135" stroke-linecap="round" stroke-linejoin="round" stroke-miterlimit="10" stroke-opacity="1" fill="none" fill-rule="nonzero" transform="matrix(1.00287 0 0 1 -1571 -52.8481)"/></g><path d="M1617.05 121.484 1622.04 126.47 1617.05 131.455 1612.07 126.47Z" stroke="#000000" stroke-width="0.747851" stroke-linecap="butt" stroke-linejoin="round" stroke-miterlimit="10" stroke-opacity="1" fill="#000000" fill-rule="nonzero" fill-opacity="1" transform="matrix(1.00287 0 0 1 -1571 -52.8481)"/><path d="M1635 125.472 1639.99 130.458 1635 135.444 1630.02 130.458Z" stroke="#000000" stroke-width="0.747851" stroke-linecap="butt" stroke-linejoin="round" stroke-miterlimit="10" stroke-opacity="1" fill="#000000" fill-rule="nonzero" fill-opacity="1" transform="matrix(1.00287 0 0 1 -1571 -52.8481)"/><path d="M1645.97 128.464 1650.96 133.45 1645.97 138.435 1640.98 133.45Z" stroke="#000000" stroke-width="0.747851" stroke-linecap="butt" stroke-linejoin="round" stroke-miterlimit="10" stroke-opacity="1" fill="#000000" fill-rule="nonzero" fill-opacity="1" transform="matrix(1.00287 0 0 1 -1571 -52.8481)"/><path d="M1658.93 133.45 1663.92 138.435 1658.93 143.421 1653.95 138.435Z" stroke="#000000" stroke-width="0.747851" stroke-linecap="butt" stroke-linejoin="round" stroke-miterlimit="10" stroke-opacity="1" fill="#000000" fill-rule="nonzero" fill-opacity="1" transform="matrix(1.00287 0 0 1 -1571 -52.8481)"/><path d="M1673.89 141.427 1678.88 146.412 1673.89 151.398 1668.9 146.412Z" stroke="#000000" stroke-width="0.747851" stroke-linecap="butt" stroke-linejoin="round" stroke-miterlimit="10" stroke-opacity="1" fill="#000000" fill-rule="nonzero" fill-opacity="1" transform="matrix(1.00287 0 0 1 -1571 -52.8481)"/><path d="M1687.85 151.398 1692.84 156.384 1687.85 161.369 1682.86 156.384Z" stroke="#000000" stroke-width="0.747851" stroke-linecap="butt" stroke-linejoin="round" stroke-miterlimit="10" stroke-opacity="1" fill="#000000" fill-rule="nonzero" fill-opacity="1" transform="matrix(1.00287 0 0 1 -1571 -52.8481)"/><path d="M1705.8 167.352 1710.78 172.338 1705.8 177.323 1700.81 172.338Z" stroke="#000000" stroke-width="0.747851" stroke-linecap="butt" stroke-linejoin="round" stroke-miterlimit="10" stroke-opacity="1" fill="#000000" fill-rule="nonzero" fill-opacity="1" transform="matrix(1.00287 0 0 1 -1571 -52.8481)"/><path d="M1724.74 190.286 1729.73 195.272 1724.74 200.258 1719.76 195.272Z" stroke="#000000" stroke-width="0.747851" stroke-linecap="butt" stroke-linejoin="round" stroke-miterlimit="10" stroke-opacity="1" fill="#000000" fill-rule="nonzero" fill-opacity="1" transform="matrix(1.00287 0 0 1 -1571 -52.8481)"/><path d="M1745.68 223.192 1750.67 228.177 1745.68 233.163 1740.7 228.177Z" stroke="#000000" stroke-width="0.747851" stroke-linecap="butt" stroke-linejoin="round" stroke-miterlimit="10" stroke-opacity="1" fill="#000000" fill-rule="nonzero" fill-opacity="1" transform="matrix(1.00287 0 0 1 -1571 -52.8481)"/><path d="M1767.62 266.068 1772.61 271.054 1767.62 276.04 1762.63 271.054Z" stroke="#000000" stroke-width="0.747851" stroke-linecap="butt" stroke-linejoin="round" stroke-miterlimit="10" stroke-opacity="1" fill="#000000" fill-rule="nonzero" fill-opacity="1" transform="matrix(1.00287 0 0 1 -1571 -52.8481)"/><path d="M1788.56 301.965 1793.55 306.951 1788.56 311.937 1783.57 306.951Z" stroke="#000000" stroke-width="0.747851" stroke-linecap="butt" stroke-linejoin="round" stroke-miterlimit="10" stroke-opacity="1" fill="#000000" fill-rule="nonzero" fill-opacity="1" transform="matrix(1.00287 0 0 1 -1571 -52.8481)"/><path d="M1820.47 356.808 1825.45 361.793 1820.47 366.779 1815.48 361.793Z" stroke="#000000" stroke-width="0.747851" stroke-linecap="butt" stroke-linejoin="round" stroke-miterlimit="10" stroke-opacity="1" fill="#000000" fill-rule="nonzero" fill-opacity="1" transform="matrix(1.00287 0 0 1 -1571 -52.8481)"/><path d="M1841.41 377.748 1846.39 382.733 1841.41 387.719 1836.42 382.733Z" stroke="#000000" stroke-width="0.747851" stroke-linecap="butt" stroke-linejoin="round" stroke-miterlimit="10" stroke-opacity="1" fill="#000000" fill-rule="nonzero" fill-opacity="1" transform="matrix(1.00287 0 0 1 -1571 -52.8481)"/><path d="M1856.37 385.725 1861.35 390.71 1856.37 395.696 1851.38 390.71Z" stroke="#000000" stroke-width="0.747851" stroke-linecap="butt" stroke-linejoin="round" stroke-miterlimit="10" stroke-opacity="1" fill="#000000" fill-rule="nonzero" fill-opacity="1" transform="matrix(1.00287 0 0 1 -1571 -52.8481)"/><path d="M1870.33 389.713 1875.31 394.699 1870.33 399.685 1865.34 394.699Z" stroke="#000000" stroke-width="0.747851" stroke-linecap="butt" stroke-linejoin="round" stroke-miterlimit="10" stroke-opacity="1" fill="#000000" fill-rule="nonzero" fill-opacity="1" transform="matrix(1.00287 0 0 1 -1571 -52.8481)"/><path d="M1887.28 389.713 1892.26 394.699 1887.28 399.685 1882.29 394.699Z" stroke="#000000" stroke-width="0.747851" stroke-linecap="butt" stroke-linejoin="round" stroke-miterlimit="10" stroke-opacity="1" fill="#000000" fill-rule="nonzero" fill-opacity="1" transform="matrix(1.00287 0 0 1 -1571 -52.8481)"/><text fill="#000000" fill-opacity="1" font-family="Arial,Arial_MSFontService,sans-serif" font-style="normal" font-variant="normal" font-weight="400" font-stretch="normal" font-size="11" text-anchor="start" direction="ltr" writing-mode="lr-tb" unicode-bidi="normal" text-decoration="none" transform="matrix(1 0 0 0.997135 19.42 47)">0.0</text><text fill="#000000" fill-opacity="1" font-family="Arial,Arial_MSFontService,sans-serif" font-style="normal" font-variant="normal" font-weight="400" font-stretch="normal" font-size="11" text-anchor="start" direction="ltr" writing-mode="lr-tb" unicode-bidi="normal" text-decoration="none" transform="matrix(1 0 0 0.997135 19.42 107)">0.2</text><text fill="#000000" fill-opacity="1" font-family="Arial,Arial_MSFontService,sans-serif" font-style="normal" font-variant="normal" font-weight="400" font-stretch="normal" font-size="11" text-anchor="start" direction="ltr" writing-mode="lr-tb" unicode-bidi="normal" text-decoration="none" transform="matrix(1 0 0 0.997135 19.42 167)">0.4</text><text fill="#000000" fill-opacity="1" font-family="Arial,Arial_MSFontService,sans-serif" font-style="normal" font-variant="normal" font-weight="400" font-stretch="normal" font-size="11" text-anchor="start" direction="ltr" writing-mode="lr-tb" unicode-bidi="normal" text-decoration="none" transform="matrix(1 0 0 0.997135 19.42 225)">0.6</text><text fill="#000000" fill-opacity="1" font-family="Arial,Arial_MSFontService,sans-serif" font-style="normal" font-variant="normal" font-weight="400" font-stretch="normal" font-size="11" text-anchor="start" direction="ltr" writing-mode="lr-tb" unicode-bidi="normal" text-decoration="none" transform="matrix(1 0 0 0.997135 19.42 285)">0.8</text><g><text fill="#000000" fill-opacity="1" font-family="Arial,Arial_MSFontService,sans-serif" font-style="normal" font-variant="normal" font-weight="400" font-stretch="normal" font-size="11" text-anchor="start" direction="ltr" writing-mode="lr-tb" unicode-bidi="normal" text-decoration="none" transform="matrix(1 0 0 0.997135 19.42 345)">1.0</text></g><text fill="#000000" fill-opacity="1" font-family="Arial,Arial_MSFontService,sans-serif" font-style="normal" font-variant="normal" font-weight="400" font-stretch="normal" font-size="11" text-anchor="start" direction="ltr" writing-mode="lr-tb" unicode-bidi="normal" text-decoration="none" transform="matrix(1 0 0 0.997135 33.47 34)">0.001</text><text fill="#000000" fill-opacity="1" font-family="Arial,Arial_MSFontService,sans-serif" font-style="normal" font-variant="normal" font-weight="400" font-stretch="normal" font-size="11" text-anchor="start" direction="ltr" writing-mode="lr-tb" unicode-bidi="normal" text-decoration="none" transform="matrix(1 0 0 0.997135 110.32 34)">0.01</text><text fill="#000000" fill-opacity="1" font-family="Arial,Arial_MSFontService,sans-serif" font-style="normal" font-variant="normal" font-weight="400" font-stretch="normal" font-size="11" text-anchor="start" direction="ltr" writing-mode="lr-tb" unicode-bidi="normal" text-decoration="none" transform="matrix(1 0 0 0.997135 187.16 34)">0.1</text><text fill="#000000" fill-opacity="1" font-family="Arial,Arial_MSFontService,sans-serif" font-style="normal" font-variant="normal" font-weight="400" font-stretch="normal" font-size="11" text-anchor="start" direction="ltr" writing-mode="lr-tb" unicode-bidi="normal" text-decoration="none" transform="matrix(1 0 0 0.997135 265.54 34)">1</text><text fill="#000000" fill-opacity="1" font-family="Arial,Arial_MSFontService,sans-serif" font-style="normal" font-variant="normal" font-weight="400" font-stretch="normal" font-size="11" text-anchor="start" direction="ltr" writing-mode="lr-tb" unicode-bidi="normal" text-decoration="none" transform="matrix(1 0 0 0.997135 336.26 34)">10</text><text fill="#000000" fill-opacity="1" font-family="Arial,Arial_MSFontService,sans-serif" font-style="normal" font-variant="normal" font-weight="400" font-stretch="normal" font-size="11" text-anchor="start" direction="ltr" writing-mode="lr-tb" unicode-bidi="normal" text-decoration="none" transform="matrix(1 0 0 0.997135 151.19 16)">Time factor</text><text fill="#000000" fill-opacity="1" font-family="Cambria Math,Cambria Math_MSFontService,sans-serif" font-style="normal" font-variant="normal" font-weight="400" font-stretch="normal" font-size="11" text-anchor="start" direction="ltr" writing-mode="lr-tb" unicode-bidi="normal" text-decoration="none" transform="matrix(1 0 0 0.997135 209.27 16)">𝑇</text><text fill="#000000" fill-opacity="1" font-family="Cambria Math,Cambria Math_MSFontService,sans-serif" font-style="normal" font-variant="normal" font-weight="400" font-stretch="normal" font-size="8" text-anchor="start" direction="ltr" writing-mode="lr-tb" unicode-bidi="normal" text-decoration="none" transform="matrix(1 0 0 0.997135 214.31 19)">𝑣</text><text fill="#000000" fill-opacity="1" font-family="Arial,Arial_MSFontService,sans-serif" font-style="normal" font-variant="normal" font-weight="400" font-stretch="normal" font-size="11" text-anchor="start" direction="ltr" writing-mode="lr-tb" unicode-bidi="normal" text-decoration="none" transform="matrix(-1.83697e-16 -0.997135 1 -1.83171e-16 14.2 256)">Degree of consolidation</text><text fill="#000000" fill-opacity="1" font-family="Arial,Arial_MSFontService,sans-serif" font-style="italic" font-variant="normal" font-weight="400" font-stretch="normal" font-size="11" text-anchor="start" direction="ltr" writing-mode="lr-tb" unicode-bidi="normal" text-decoration="none" transform="matrix(-1.83697e-16 -0.997135 1 -1.83171e-16 14.2 139)">U</text><text fill="#E97132" fill-opacity="1" font-family="Arial,Arial_MSFontService,sans-serif" font-style="normal" font-variant="normal" font-weight="400" font-stretch="normal" font-size="11" text-anchor="start" direction="ltr" writing-mode="lr-tb" unicode-bidi="normal" text-decoration="none" transform="matrix(1 0 0 0.997135 103.15 307)">90%</text><text fill="#E97132" fill-opacity="1" font-family="Arial,Arial_MSFontService,sans-serif" font-style="normal" font-variant="normal" font-weight="400" font-stretch="normal" font-size="11" text-anchor="start" direction="ltr" writing-mode="lr-tb" unicode-bidi="normal" text-decoration="none" transform="matrix(1 0 0 0.997135 128.23 307)">degree of consolidation</text><text fill="#000000" fill-opacity="1" font-family="Cambria Math,Cambria Math_MSFontService,sans-serif" font-style="normal" font-variant="normal" font-weight="400" font-stretch="normal" font-size="11" text-anchor="start" direction="ltr" writing-mode="lr-tb" unicode-bidi="normal" text-decoration="none" transform="matrix(1 0 0 0.997135 70.6 232)">𝜆</text><text fill="#000000" fill-opacity="1" font-family="Cambria Math,Cambria Math_MSFontService,sans-serif" font-style="normal" font-variant="normal" font-weight="400" font-stretch="normal" font-size="11" text-anchor="start" direction="ltr" writing-mode="lr-tb" unicode-bidi="normal" text-decoration="none" transform="matrix(1 0 0 0.997135 76.49 232)">/</text><text fill="#000000" fill-opacity="1" font-family="Cambria Math,Cambria Math_MSFontService,sans-serif" font-style="normal" font-variant="normal" font-weight="400" font-stretch="normal" font-size="11" text-anchor="start" direction="ltr" writing-mode="lr-tb" unicode-bidi="normal" text-decoration="none" transform="matrix(1 0 0 0.997135 81.88 232)">𝜆</text><text fill="#000000" fill-opacity="1" font-family="Cambria Math,Cambria Math_MSFontService,sans-serif" font-style="normal" font-variant="normal" font-weight="400" font-stretch="normal" font-size="8" text-anchor="start" direction="ltr" writing-mode="lr-tb" unicode-bidi="normal" text-decoration="none" transform="matrix(1 0 0 0.997135 87.58 235)">𝑘</text><text fill="#000000" fill-opacity="1" font-family="Arial,Arial_MSFontService,sans-serif" font-style="normal" font-variant="normal" font-weight="400" font-stretch="normal" font-size="11" text-anchor="start" direction="ltr" writing-mode="lr-tb" unicode-bidi="normal" text-decoration="none" transform="matrix(1 0 0 0.997135 96.18 232)">=</text><text fill="#000000" fill-opacity="1" font-family="Arial,Arial_MSFontService,sans-serif" font-style="normal" font-variant="normal" font-weight="400" font-stretch="normal" font-size="11" text-anchor="start" direction="ltr" writing-mode="lr-tb" unicode-bidi="normal" text-decoration="none" transform="matrix(1 0 0 0.997135 105.66 232)">4: Fibrous peat</text><text fill="#000000" fill-opacity="1" font-family="Cambria Math,Cambria Math_MSFontService,sans-serif" font-style="normal" font-variant="normal" font-weight="400" font-stretch="normal" font-size="11" text-anchor="start" direction="ltr" writing-mode="lr-tb" unicode-bidi="normal" text-decoration="none" transform="matrix(1 0 0 0.997135 199.83 84)">𝜆</text><text fill="#000000" fill-opacity="1" font-family="Cambria Math,Cambria Math_MSFontService,sans-serif" font-style="normal" font-variant="normal" font-weight="400" font-stretch="normal" font-size="11" text-anchor="start" direction="ltr" writing-mode="lr-tb" unicode-bidi="normal" text-decoration="none" transform="matrix(1 0 0 0.997135 205.71 84)">/</text><text fill="#000000" fill-opacity="1" font-family="Cambria Math,Cambria Math_MSFontService,sans-serif" font-style="normal" font-variant="normal" font-weight="400" font-stretch="normal" font-size="11" text-anchor="start" direction="ltr" writing-mode="lr-tb" unicode-bidi="normal" text-decoration="none" transform="matrix(1 0 0 0.997135 211.11 84)">𝜆</text><text fill="#000000" fill-opacity="1" font-family="Cambria Math,Cambria Math_MSFontService,sans-serif" font-style="normal" font-variant="normal" font-weight="400" font-stretch="normal" font-size="8" text-anchor="start" direction="ltr" writing-mode="lr-tb" unicode-bidi="normal" text-decoration="none" transform="matrix(1 0 0 0.997135 216.8 86)">𝑘</text><text fill="#000000" fill-opacity="1" font-family="Arial,Arial_MSFontService,sans-serif" font-style="normal" font-variant="normal" font-weight="400" font-stretch="normal" font-size="11" text-anchor="start" direction="ltr" writing-mode="lr-tb" unicode-bidi="normal" text-decoration="none" transform="matrix(1 0 0 0.997135 225.41 84)">=</text><text fill="#000000" fill-opacity="1" font-family="Arial,Arial_MSFontService,sans-serif" font-style="normal" font-variant="normal" font-weight="400" font-stretch="normal" font-size="11" text-anchor="start" direction="ltr" writing-mode="lr-tb" unicode-bidi="normal" text-decoration="none" transform="matrix(1 0 0 0.997135 234.89 84)">1: Terzaghi's theory</text><path d="M1613.86 365.45 1909 365.45" stroke="#E97132" stroke-width="0.997135" stroke-linecap="butt" stroke-linejoin="miter" stroke-miterlimit="8" stroke-opacity="1" fill="none" fill-rule="evenodd" transform="matrix(1.00287 0 0 1 -1571 -52.8481)"/><path d="M1723.55 243.799 1754.75 243.799" stroke="#000000" stroke-width="0.997135" stroke-linecap="butt" stroke-linejoin="miter" stroke-miterlimit="8" stroke-dasharray="3.98854 2.9914" stroke-opacity="1" fill="none" fill-rule="evenodd" transform="matrix(1.00287 0 0 1 -1571 -52.8481)"/><path d="M0 0 12.9747 26.5391" stroke="#000000" stroke-width="0.997135" stroke-linecap="butt" stroke-linejoin="miter" stroke-miterlimit="8" stroke-dasharray="3.98854 2.9914" stroke-opacity="1" fill="none" fill-rule="evenodd" transform="matrix(1.00287 0 0 -1 144.5 217.49)"/><path d="M1736.51 134.115 1758.86 134.115" stroke="#000000" stroke-width="0.997135" stroke-linecap="butt" stroke-linejoin="miter" stroke-miterlimit="8" stroke-dasharray="3.98854 2.9914" stroke-opacity="1" fill="none" fill-rule="evenodd" transform="matrix(1.00287 0 0 1 -1571 -52.8481)"/><path d="M0 0 12.9747 26.0109" stroke="#000000" stroke-width="0.997135" stroke-linecap="butt" stroke-linejoin="miter" stroke-miterlimit="8" stroke-dasharray="3.98854 2.9914" stroke-opacity="1" fill="none" fill-rule="evenodd" transform="matrix(1.00287 0 0 -1 157.5 107.278)"/></g></g></svg>