<svg width="269" height="268" xmlns="http://www.w3.org/2000/svg" xmlns:xlink="http://www.w3.org/1999/xlink" xml:space="preserve" overflow="hidden"><defs><clipPath id="clip0"><rect x="0" y="0" width="269" height="268"/></clipPath><clipPath id="clip1"><rect x="0" y="0" width="269" height="268"/></clipPath><clipPath id="clip2"><rect x="0" y="0" width="269" height="267"/></clipPath><clipPath id="clip3"><rect x="0" y="0" width="269" height="267"/></clipPath><clipPath id="clip4"><rect x="0" y="0" width="269" height="267"/></clipPath></defs><g clip-path="url(#clip0)"><g clip-path="url(#clip1)"><g clip-path="url(#clip2)"><g clip-path="url(#clip3)"><g clip-path="url(#clip4)"><path d="M928.143 706.017 1196.64 706.017 1196.64 973.017 928.143 973.017Z" fill="#FFFFFF" fill-rule="nonzero" fill-opacity="1" transform="matrix(1.00188 0 0 1 -929.886 -706.017)"/><path d="M959.181 731.819 959.181 964.416" stroke="#000000" stroke-width="0.560924" stroke-linecap="butt" stroke-linejoin="round" stroke-miterlimit="10" stroke-opacity="1" fill="none" fill-rule="evenodd" transform="matrix(1.00188 0 0 1 -929.886 -706.017)"/><path d="M959.181 731.819 961.424 731.819M959.181 736.307 961.424 736.307M959.181 740.794 961.424 740.794M959.181 745.282 961.424 745.282M959.181 750.517 961.424 750.517M959.181 755.004 961.424 755.004M959.181 759.492 961.424 759.492M959.181 763.979 961.424 763.979M959.181 769.214 961.424 769.214M959.181 773.702 961.424 773.702M959.181 778.189 961.424 778.189M959.181 782.677 961.424 782.677M959.181 787.912 961.424 787.912M959.181 792.399 961.424 792.399M959.181 796.887 961.424 796.887M959.181 801.374 961.424 801.374M959.181 805.861 961.424 805.861M959.181 811.097 961.424 811.097M959.181 815.584 961.424 815.584M959.181 820.071 961.424 820.071M959.181 824.559 961.424 824.559M959.181 829.794 961.424 829.794M959.181 834.282 961.424 834.282M959.181 838.769 961.424 838.769M959.181 843.256 961.424 843.256M959.181 848.492 961.424 848.492M959.181 852.979 961.424 852.979M959.181 857.466 961.424 857.466M959.181 861.954 961.424 861.954M959.181 867.189 961.424 867.189M959.181 871.677 961.424 871.677M959.181 876.164 961.424 876.164M959.181 880.651 961.424 880.651M959.181 885.139 961.424 885.139M959.181 890.374 961.424 890.374M959.181 894.861 961.424 894.861M959.181 899.349 961.424 899.349M959.181 903.836 961.424 903.836M959.181 909.071 961.424 909.071M959.181 913.559 961.424 913.559M959.181 918.046 961.424 918.046M959.181 922.534 961.424 922.534M959.181 927.769 961.424 927.769M959.181 932.256 961.424 932.256M959.181 936.744 961.424 936.744M959.181 941.231 961.424 941.231M959.181 945.719 961.424 945.719M959.181 950.954 961.424 950.954M959.181 955.441 961.424 955.441M959.181 959.929 961.424 959.929M959.181 964.416 961.424 964.416M959.181 731.819 962.172 731.819M959.181 755.004 962.172 755.004M959.181 778.189 962.172 778.189M959.181 801.374 962.172 801.374M959.181 824.559 962.172 824.559M959.181 848.492 962.172 848.492M959.181 871.677 962.172 871.677M959.181 894.861 962.172 894.861M959.181 918.046 962.172 918.046M959.181 941.231 962.172 941.231M959.181 964.416 962.172 964.416" stroke="#000000" stroke-width="0.560924" stroke-linecap="butt" stroke-linejoin="round" stroke-miterlimit="10" stroke-opacity="1" fill="none" fill-rule="nonzero" transform="matrix(1.00188 0 0 1 -929.886 -706.017)"/><path d="M959.181 731.819 1179.06 731.819" stroke="#000000" stroke-width="0.560924" stroke-linecap="butt" stroke-linejoin="round" stroke-miterlimit="10" stroke-opacity="1" fill="none" fill-rule="evenodd" transform="matrix(1.00188 0 0 1 -929.886 -706.017)"/><path d="M959.181 731.819 959.181 733.315M976.382 731.819 976.382 733.315M985.357 731.819 985.357 733.315M992.836 731.819 992.836 733.315M998.071 731.819 998.071 733.315M1002.56 731.819 1002.56 733.315M1006.3 731.819 1006.3 733.315M1009.29 731.819 1009.29 733.315M1012.28 731.819 1012.28 733.315M1014.53 731.819 1014.53 733.315M1030.98 731.819 1030.98 733.315M1040.7 731.819 1040.7 733.315M1047.43 731.819 1047.43 733.315M1052.67 731.819 1052.67 733.315M1057.16 731.819 1057.16 733.315M1060.9 731.819 1060.9 733.315M1063.89 731.819 1063.89 733.315M1066.88 731.819 1066.88 733.315M1069.12 731.819 1069.12 733.315M1085.58 731.819 1085.58 733.315M1095.3 731.819 1095.3 733.315M1102.78 731.819 1102.78 733.315M1108.01 731.819 1108.01 733.315M1112.5 731.819 1112.5 733.315M1115.49 731.819 1115.49 733.315M1119.23 731.819 1119.23 733.315M1121.47 731.819 1121.47 733.315M1124.47 731.819 1124.47 733.315M1140.92 731.819 1140.92 733.315M1150.64 731.819 1150.64 733.315M1157.37 731.819 1157.37 733.315M1162.61 731.819 1162.61 733.315M1167.1 731.819 1167.1 733.315M1170.84 731.819 1170.84 733.315M1173.83 731.819 1173.83 733.315M1176.82 731.819 1176.82 733.315M1179.06 731.819 1179.06 733.315M959.181 731.819 959.181 734.063M1014.53 731.819 1014.53 734.063M1069.12 731.819 1069.12 734.063M1124.47 731.819 1124.47 734.063M1179.06 731.819 1179.06 734.063" stroke="#000000" stroke-width="0.560924" stroke-linecap="butt" stroke-linejoin="round" stroke-miterlimit="10" stroke-opacity="1" fill="none" fill-rule="nonzero" transform="matrix(1.00188 0 0 1 -929.886 -706.017)"/><path d="M996.075 729.647 999.814 729.647 999.814 733.386 996.075 733.386Z" stroke="#000000" stroke-width="0.560924" stroke-linecap="butt" stroke-linejoin="round" stroke-miterlimit="10" stroke-opacity="1" fill="#D1D1D1" fill-rule="nonzero" fill-opacity="1" transform="matrix(1.00188 0 0 1 -929.886 -706.017)"/><path d="M1012.53 731.89 1016.27 731.89 1016.27 735.63 1012.53 735.63Z" stroke="#000000" stroke-width="0.560924" stroke-linecap="butt" stroke-linejoin="round" stroke-miterlimit="10" stroke-opacity="1" fill="#D1D1D1" fill-rule="nonzero" fill-opacity="1" transform="matrix(1.00188 0 0 1 -929.886 -706.017)"/><path d="M1028.98 731.89 1032.72 731.89 1032.72 735.63 1028.98 735.63Z" stroke="#000000" stroke-width="0.560924" stroke-linecap="butt" stroke-linejoin="round" stroke-miterlimit="10" stroke-opacity="1" fill="#D1D1D1" fill-rule="nonzero" fill-opacity="1" transform="matrix(1.00188 0 0 1 -929.886 -706.017)"/><path d="M1045.44 733.386 1049.18 733.386 1049.18 737.126 1045.44 737.126Z" stroke="#000000" stroke-width="0.560924" stroke-linecap="butt" stroke-linejoin="round" stroke-miterlimit="10" stroke-opacity="1" fill="#D1D1D1" fill-rule="nonzero" fill-opacity="1" transform="matrix(1.00188 0 0 1 -929.886 -706.017)"/><path d="M1061.89 737.126 1065.63 737.126 1065.63 740.865 1061.89 740.865Z" stroke="#000000" stroke-width="0.560924" stroke-linecap="butt" stroke-linejoin="round" stroke-miterlimit="10" stroke-opacity="1" fill="#D1D1D1" fill-rule="nonzero" fill-opacity="1" transform="matrix(1.00188 0 0 1 -929.886 -706.017)"/><path d="M1078.34 744.605 1082.08 744.605 1082.08 748.34 1078.34 748.34Z" stroke="#000000" stroke-width="0.560924" stroke-linecap="butt" stroke-linejoin="round" stroke-miterlimit="10" stroke-opacity="1" fill="#D1D1D1" fill-rule="nonzero" fill-opacity="1" transform="matrix(1.00188 0 0 1 -929.886 -706.017)"/><path d="M1094.8 751.332 1098.54 751.332 1098.54 755.072 1094.8 755.072Z" stroke="#000000" stroke-width="0.560924" stroke-linecap="butt" stroke-linejoin="round" stroke-miterlimit="10" stroke-opacity="1" fill="#D1D1D1" fill-rule="nonzero" fill-opacity="1" transform="matrix(1.00188 0 0 1 -929.886 -706.017)"/><path d="M1112 758.811 1115.74 758.811 1115.74 762.551 1112 762.551Z" stroke="#000000" stroke-width="0.560924" stroke-linecap="butt" stroke-linejoin="round" stroke-miterlimit="10" stroke-opacity="1" fill="#D1D1D1" fill-rule="nonzero" fill-opacity="1" transform="matrix(1.00188 0 0 1 -929.886 -706.017)"/><path d="M1126.96 767.038 1130.7 767.038 1130.7 770.777 1126.96 770.777Z" stroke="#000000" stroke-width="0.560924" stroke-linecap="butt" stroke-linejoin="round" stroke-miterlimit="10" stroke-opacity="1" fill="#D1D1D1" fill-rule="nonzero" fill-opacity="1" transform="matrix(1.00188 0 0 1 -929.886 -706.017)"/><path d="M996.075 729.647 999.814 729.647 999.814 733.386 996.075 733.386Z" stroke="#000000" stroke-width="0.560924" stroke-linecap="butt" stroke-linejoin="round" stroke-miterlimit="10" stroke-opacity="1" fill="#D1D1D1" fill-rule="nonzero" fill-opacity="1" transform="matrix(1.00188 0 0 1 -929.886 -706.017)"/><path d="M1012.53 732.638 1016.27 732.638 1016.27 736.378 1012.53 736.378Z" stroke="#000000" stroke-width="0.560924" stroke-linecap="butt" stroke-linejoin="round" stroke-miterlimit="10" stroke-opacity="1" fill="#D1D1D1" fill-rule="nonzero" fill-opacity="1" transform="matrix(1.00188 0 0 1 -929.886 -706.017)"/><path d="M1028.98 734.882 1032.72 734.882 1032.72 738.621 1028.98 738.621Z" stroke="#000000" stroke-width="0.560924" stroke-linecap="butt" stroke-linejoin="round" stroke-miterlimit="10" stroke-opacity="1" fill="#D1D1D1" fill-rule="nonzero" fill-opacity="1" transform="matrix(1.00188 0 0 1 -929.886 -706.017)"/><path d="M1045.44 737.126 1049.18 737.126 1049.18 740.865 1045.44 740.865Z" stroke="#000000" stroke-width="0.560924" stroke-linecap="butt" stroke-linejoin="round" stroke-miterlimit="10" stroke-opacity="1" fill="#D1D1D1" fill-rule="nonzero" fill-opacity="1" transform="matrix(1.00188 0 0 1 -929.886 -706.017)"/><path d="M1061.89 744.605 1065.63 744.605 1065.63 748.34 1061.89 748.34Z" stroke="#000000" stroke-width="0.560924" stroke-linecap="butt" stroke-linejoin="round" stroke-miterlimit="10" stroke-opacity="1" fill="#D1D1D1" fill-rule="nonzero" fill-opacity="1" transform="matrix(1.00188 0 0 1 -929.886 -706.017)"/><path d="M1078.34 756.567 1082.08 756.567 1082.08 760.307 1078.34 760.307Z" stroke="#000000" stroke-width="0.560924" stroke-linecap="butt" stroke-linejoin="round" stroke-miterlimit="10" stroke-opacity="1" fill="#D1D1D1" fill-rule="nonzero" fill-opacity="1" transform="matrix(1.00188 0 0 1 -929.886 -706.017)"/><path d="M1094.8 767.786 1098.54 767.786 1098.54 771.525 1094.8 771.525Z" stroke="#000000" stroke-width="0.560924" stroke-linecap="butt" stroke-linejoin="round" stroke-miterlimit="10" stroke-opacity="1" fill="#D1D1D1" fill-rule="nonzero" fill-opacity="1" transform="matrix(1.00188 0 0 1 -929.886 -706.017)"/><path d="M1112 785.735 1115.74 785.735 1115.74 789.475 1112 789.475Z" stroke="#000000" stroke-width="0.560924" stroke-linecap="butt" stroke-linejoin="round" stroke-miterlimit="10" stroke-opacity="1" fill="#D1D1D1" fill-rule="nonzero" fill-opacity="1" transform="matrix(1.00188 0 0 1 -929.886 -706.017)"/><path d="M1126.96 795.458 1130.7 795.458 1130.7 799.198 1126.96 799.198Z" stroke="#000000" stroke-width="0.560924" stroke-linecap="butt" stroke-linejoin="round" stroke-miterlimit="10" stroke-opacity="1" fill="#D1D1D1" fill-rule="nonzero" fill-opacity="1" transform="matrix(1.00188 0 0 1 -929.886 -706.017)"/><path d="M996.075 729.647 999.814 729.647 999.814 733.386 996.075 733.386Z" stroke="#000000" stroke-width="0.560924" stroke-linecap="butt" stroke-linejoin="round" stroke-miterlimit="10" stroke-opacity="1" fill="#D1D1D1" fill-rule="nonzero" fill-opacity="1" transform="matrix(1.00188 0 0 1 -929.886 -706.017)"/><path d="M1012.53 731.89 1016.27 731.89 1016.27 735.63 1012.53 735.63Z" stroke="#000000" stroke-width="0.560924" stroke-linecap="butt" stroke-linejoin="round" stroke-miterlimit="10" stroke-opacity="1" fill="#D1D1D1" fill-rule="nonzero" fill-opacity="1" transform="matrix(1.00188 0 0 1 -929.886 -706.017)"/><path d="M1028.98 739.369 1032.72 739.369 1032.72 743.109 1028.98 743.109Z" stroke="#000000" stroke-width="0.560924" stroke-linecap="butt" stroke-linejoin="round" stroke-miterlimit="10" stroke-opacity="1" fill="#D1D1D1" fill-rule="nonzero" fill-opacity="1" transform="matrix(1.00188 0 0 1 -929.886 -706.017)"/><path d="M1045.44 755.072 1049.18 755.072 1049.18 758.811 1045.44 758.811Z" stroke="#000000" stroke-width="0.560924" stroke-linecap="butt" stroke-linejoin="round" stroke-miterlimit="10" stroke-opacity="1" fill="#D1D1D1" fill-rule="nonzero" fill-opacity="1" transform="matrix(1.00188 0 0 1 -929.886 -706.017)"/><path d="M1061.89 771.525 1065.63 771.525 1065.63 775.265 1061.89 775.265Z" stroke="#000000" stroke-width="0.560924" stroke-linecap="butt" stroke-linejoin="round" stroke-miterlimit="10" stroke-opacity="1" fill="#D1D1D1" fill-rule="nonzero" fill-opacity="1" transform="matrix(1.00188 0 0 1 -929.886 -706.017)"/><path d="M1078.34 791.719 1082.08 791.719 1082.08 795.458 1078.34 795.458Z" stroke="#000000" stroke-width="0.560924" stroke-linecap="butt" stroke-linejoin="round" stroke-miterlimit="10" stroke-opacity="1" fill="#D1D1D1" fill-rule="nonzero" fill-opacity="1" transform="matrix(1.00188 0 0 1 -929.886 -706.017)"/><path d="M1094.8 809.668 1098.54 809.668 1098.54 813.408 1094.8 813.408Z" stroke="#000000" stroke-width="0.560924" stroke-linecap="butt" stroke-linejoin="round" stroke-miterlimit="10" stroke-opacity="1" fill="#D1D1D1" fill-rule="nonzero" fill-opacity="1" transform="matrix(1.00188 0 0 1 -929.886 -706.017)"/><path d="M1112 831.357 1115.74 831.357 1115.74 835.097 1112 835.097Z" stroke="#000000" stroke-width="0.560924" stroke-linecap="butt" stroke-linejoin="round" stroke-miterlimit="10" stroke-opacity="1" fill="#D1D1D1" fill-rule="nonzero" fill-opacity="1" transform="matrix(1.00188 0 0 1 -929.886 -706.017)"/><path d="M1126.96 850.803 1130.7 850.803 1130.7 854.542 1126.96 854.542Z" stroke="#000000" stroke-width="0.560924" stroke-linecap="butt" stroke-linejoin="round" stroke-miterlimit="10" stroke-opacity="1" fill="#D1D1D1" fill-rule="nonzero" fill-opacity="1" transform="matrix(1.00188 0 0 1 -929.886 -706.017)"/><path d="M996.075 729.647 999.814 729.647 999.814 733.386 996.075 733.386Z" stroke="#000000" stroke-width="0.560924" stroke-linecap="butt" stroke-linejoin="round" stroke-miterlimit="10" stroke-opacity="1" fill="#D1D1D1" fill-rule="nonzero" fill-opacity="1" transform="matrix(1.00188 0 0 1 -929.886 -706.017)"/><path d="M1012.53 731.89 1016.27 731.89 1016.27 735.63 1012.53 735.63Z" stroke="#000000" stroke-width="0.560924" stroke-linecap="butt" stroke-linejoin="round" stroke-miterlimit="10" stroke-opacity="1" fill="#D1D1D1" fill-rule="nonzero" fill-opacity="1" transform="matrix(1.00188 0 0 1 -929.886 -706.017)"/><path d="M1028.98 743.109 1032.72 743.109 1032.72 746.848 1028.98 746.848Z" stroke="#000000" stroke-width="0.560924" stroke-linecap="butt" stroke-linejoin="round" stroke-miterlimit="10" stroke-opacity="1" fill="#D1D1D1" fill-rule="nonzero" fill-opacity="1" transform="matrix(1.00188 0 0 1 -929.886 -706.017)"/><path d="M1045.44 764.794 1049.18 764.794 1049.18 768.534 1045.44 768.534Z" stroke="#000000" stroke-width="0.560924" stroke-linecap="butt" stroke-linejoin="round" stroke-miterlimit="10" stroke-opacity="1" fill="#D1D1D1" fill-rule="nonzero" fill-opacity="1" transform="matrix(1.00188 0 0 1 -929.886 -706.017)"/><path d="M1061.89 787.231 1065.63 787.231 1065.63 790.971 1061.89 790.971Z" stroke="#000000" stroke-width="0.560924" stroke-linecap="butt" stroke-linejoin="round" stroke-miterlimit="10" stroke-opacity="1" fill="#D1D1D1" fill-rule="nonzero" fill-opacity="1" transform="matrix(1.00188 0 0 1 -929.886 -706.017)"/><path d="M1078.34 814.156 1082.08 814.156 1082.08 817.895 1078.34 817.895Z" stroke="#000000" stroke-width="0.560924" stroke-linecap="butt" stroke-linejoin="round" stroke-miterlimit="10" stroke-opacity="1" fill="#D1D1D1" fill-rule="nonzero" fill-opacity="1" transform="matrix(1.00188 0 0 1 -929.886 -706.017)"/><path d="M1094.8 836.593 1098.54 836.593 1098.54 840.332 1094.8 840.332Z" stroke="#000000" stroke-width="0.560924" stroke-linecap="butt" stroke-linejoin="round" stroke-miterlimit="10" stroke-opacity="1" fill="#D1D1D1" fill-rule="nonzero" fill-opacity="1" transform="matrix(1.00188 0 0 1 -929.886 -706.017)"/><path d="M1112 864.265 1115.74 864.265 1115.74 868.004 1112 868.004Z" stroke="#000000" stroke-width="0.560924" stroke-linecap="butt" stroke-linejoin="round" stroke-miterlimit="10" stroke-opacity="1" fill="#D1D1D1" fill-rule="nonzero" fill-opacity="1" transform="matrix(1.00188 0 0 1 -929.886 -706.017)"/><path d="M1126.96 886.702 1130.7 886.702 1130.7 890.441 1126.96 890.441Z" stroke="#000000" stroke-width="0.560924" stroke-linecap="butt" stroke-linejoin="round" stroke-miterlimit="10" stroke-opacity="1" fill="#D1D1D1" fill-rule="nonzero" fill-opacity="1" transform="matrix(1.00188 0 0 1 -929.886 -706.017)"/><path d="M996.075 729.647 999.814 729.647 999.814 733.386 996.075 733.386Z" stroke="#000000" stroke-width="0.560924" stroke-linecap="butt" stroke-linejoin="round" stroke-miterlimit="10" stroke-opacity="1" fill="#D1D1D1" fill-rule="nonzero" fill-opacity="1" transform="matrix(1.00188 0 0 1 -929.886 -706.017)"/><path d="M1012.53 734.882 1016.27 734.882 1016.27 738.621 1012.53 738.621Z" stroke="#000000" stroke-width="0.560924" stroke-linecap="butt" stroke-linejoin="round" stroke-miterlimit="10" stroke-opacity="1" fill="#D1D1D1" fill-rule="nonzero" fill-opacity="1" transform="matrix(1.00188 0 0 1 -929.886 -706.017)"/><path d="M1028.98 746.848 1032.72 746.848 1032.72 750.584 1028.98 750.584Z" stroke="#000000" stroke-width="0.560924" stroke-linecap="butt" stroke-linejoin="round" stroke-miterlimit="10" stroke-opacity="1" fill="#D1D1D1" fill-rule="nonzero" fill-opacity="1" transform="matrix(1.00188 0 0 1 -929.886 -706.017)"/><path d="M1045.44 769.282 1049.18 769.282 1049.18 773.021 1045.44 773.021Z" stroke="#000000" stroke-width="0.560924" stroke-linecap="butt" stroke-linejoin="round" stroke-miterlimit="10" stroke-opacity="1" fill="#D1D1D1" fill-rule="nonzero" fill-opacity="1" transform="matrix(1.00188 0 0 1 -929.886 -706.017)"/><path d="M1061.89 799.945 1065.63 799.945 1065.63 803.685 1061.89 803.685Z" stroke="#000000" stroke-width="0.560924" stroke-linecap="butt" stroke-linejoin="round" stroke-miterlimit="10" stroke-opacity="1" fill="#D1D1D1" fill-rule="nonzero" fill-opacity="1" transform="matrix(1.00188 0 0 1 -929.886 -706.017)"/><path d="M1078.34 832.853 1082.08 832.853 1082.08 836.593 1078.34 836.593Z" stroke="#000000" stroke-width="0.560924" stroke-linecap="butt" stroke-linejoin="round" stroke-miterlimit="10" stroke-opacity="1" fill="#D1D1D1" fill-rule="nonzero" fill-opacity="1" transform="matrix(1.00188 0 0 1 -929.886 -706.017)"/><path d="M1094.8 862.769 1098.54 862.769 1098.54 866.508 1094.8 866.508Z" stroke="#000000" stroke-width="0.560924" stroke-linecap="butt" stroke-linejoin="round" stroke-miterlimit="10" stroke-opacity="1" fill="#D1D1D1" fill-rule="nonzero" fill-opacity="1" transform="matrix(1.00188 0 0 1 -929.886 -706.017)"/><path d="M1112 896.424 1115.74 896.424 1115.74 900.164 1112 900.164Z" stroke="#000000" stroke-width="0.560924" stroke-linecap="butt" stroke-linejoin="round" stroke-miterlimit="10" stroke-opacity="1" fill="#D1D1D1" fill-rule="nonzero" fill-opacity="1" transform="matrix(1.00188 0 0 1 -929.886 -706.017)"/><path d="M1126.96 925.593 1130.7 925.593 1130.7 929.332 1126.96 929.332Z" stroke="#000000" stroke-width="0.560924" stroke-linecap="butt" stroke-linejoin="round" stroke-miterlimit="10" stroke-opacity="1" fill="#D1D1D1" fill-rule="nonzero" fill-opacity="1" transform="matrix(1.00188 0 0 1 -929.886 -706.017)"/><path d="M996.075 729.647 999.814 729.647 999.814 733.386 996.075 733.386Z" stroke="#000000" stroke-width="0.560924" stroke-linecap="butt" stroke-linejoin="round" stroke-miterlimit="10" stroke-opacity="1" fill="#D1D1D1" fill-rule="nonzero" fill-opacity="1" transform="matrix(1.00188 0 0 1 -929.886 -706.017)"/><path d="M1012.53 734.882 1016.27 734.882 1016.27 738.621 1012.53 738.621Z" stroke="#000000" stroke-width="0.560924" stroke-linecap="butt" stroke-linejoin="round" stroke-miterlimit="10" stroke-opacity="1" fill="#D1D1D1" fill-rule="nonzero" fill-opacity="1" transform="matrix(1.00188 0 0 1 -929.886 -706.017)"/><path d="M1028.98 749.836 1032.72 749.836 1032.72 753.576 1028.98 753.576Z" stroke="#000000" stroke-width="0.560924" stroke-linecap="butt" stroke-linejoin="round" stroke-miterlimit="10" stroke-opacity="1" fill="#D1D1D1" fill-rule="nonzero" fill-opacity="1" transform="matrix(1.00188 0 0 1 -929.886 -706.017)"/><path d="M1045.44 773.021 1049.18 773.021 1049.18 776.761 1045.44 776.761Z" stroke="#000000" stroke-width="0.560924" stroke-linecap="butt" stroke-linejoin="round" stroke-miterlimit="10" stroke-opacity="1" fill="#D1D1D1" fill-rule="nonzero" fill-opacity="1" transform="matrix(1.00188 0 0 1 -929.886 -706.017)"/><path d="M1061.89 805.181 1065.63 805.181 1065.63 808.92 1061.89 808.92Z" stroke="#000000" stroke-width="0.560924" stroke-linecap="butt" stroke-linejoin="round" stroke-miterlimit="10" stroke-opacity="1" fill="#D1D1D1" fill-rule="nonzero" fill-opacity="1" transform="matrix(1.00188 0 0 1 -929.886 -706.017)"/><path d="M1078.34 842.576 1082.08 842.576 1082.08 846.315 1078.34 846.315Z" stroke="#000000" stroke-width="0.560924" stroke-linecap="butt" stroke-linejoin="round" stroke-miterlimit="10" stroke-opacity="1" fill="#D1D1D1" fill-rule="nonzero" fill-opacity="1" transform="matrix(1.00188 0 0 1 -929.886 -706.017)"/><path d="M1094.8 874.735 1098.54 874.735 1098.54 878.475 1094.8 878.475Z" stroke="#000000" stroke-width="0.560924" stroke-linecap="butt" stroke-linejoin="round" stroke-miterlimit="10" stroke-opacity="1" fill="#D1D1D1" fill-rule="nonzero" fill-opacity="1" transform="matrix(1.00188 0 0 1 -929.886 -706.017)"/><path d="M1112 909.139 1115.74 909.139 1115.74 912.878 1112 912.878Z" stroke="#000000" stroke-width="0.560924" stroke-linecap="butt" stroke-linejoin="round" stroke-miterlimit="10" stroke-opacity="1" fill="#D1D1D1" fill-rule="nonzero" fill-opacity="1" transform="matrix(1.00188 0 0 1 -929.886 -706.017)"/><path d="M1126.96 945.038 1130.7 945.038 1130.7 948.777 1126.96 948.777Z" stroke="#000000" stroke-width="0.560924" stroke-linecap="butt" stroke-linejoin="round" stroke-miterlimit="10" stroke-opacity="1" fill="#D1D1D1" fill-rule="nonzero" fill-opacity="1" transform="matrix(1.00188 0 0 1 -929.886 -706.017)"/><path d="M996.075 729.647 999.814 729.647 999.814 733.386 996.075 733.386Z" stroke="#000000" stroke-width="0.560924" stroke-linecap="butt" stroke-linejoin="round" stroke-miterlimit="10" stroke-opacity="1" fill="#D1D1D1" fill-rule="nonzero" fill-opacity="1" transform="matrix(1.00188 0 0 1 -929.886 -706.017)"/><path d="M1012.53 738.621 1016.27 738.621 1016.27 742.361 1012.53 742.361Z" stroke="#000000" stroke-width="0.560924" stroke-linecap="butt" stroke-linejoin="round" stroke-miterlimit="10" stroke-opacity="1" fill="#D1D1D1" fill-rule="nonzero" fill-opacity="1" transform="matrix(1.00188 0 0 1 -929.886 -706.017)"/><path d="M1028.98 745.353 1032.72 745.353 1032.72 749.088 1028.98 749.088Z" stroke="#000000" stroke-width="0.560924" stroke-linecap="butt" stroke-linejoin="round" stroke-miterlimit="10" stroke-opacity="1" fill="#D1D1D1" fill-rule="nonzero" fill-opacity="1" transform="matrix(1.00188 0 0 1 -929.886 -706.017)"/><path d="M1045.44 766.29 1049.18 766.29 1049.18 770.029 1045.44 770.029Z" stroke="#000000" stroke-width="0.560924" stroke-linecap="butt" stroke-linejoin="round" stroke-miterlimit="10" stroke-opacity="1" fill="#D1D1D1" fill-rule="nonzero" fill-opacity="1" transform="matrix(1.00188 0 0 1 -929.886 -706.017)"/><path d="M1061.89 806.677 1065.63 806.677 1065.63 810.416 1061.89 810.416Z" stroke="#000000" stroke-width="0.560924" stroke-linecap="butt" stroke-linejoin="round" stroke-miterlimit="10" stroke-opacity="1" fill="#D1D1D1" fill-rule="nonzero" fill-opacity="1" transform="matrix(1.00188 0 0 1 -929.886 -706.017)"/><path d="M1078.34 846.315 1082.08 846.315 1082.08 850.055 1078.34 850.055Z" stroke="#000000" stroke-width="0.560924" stroke-linecap="butt" stroke-linejoin="round" stroke-miterlimit="10" stroke-opacity="1" fill="#D1D1D1" fill-rule="nonzero" fill-opacity="1" transform="matrix(1.00188 0 0 1 -929.886 -706.017)"/><path d="M1094.8 882.214 1098.54 882.214 1098.54 885.954 1094.8 885.954Z" stroke="#000000" stroke-width="0.560924" stroke-linecap="butt" stroke-linejoin="round" stroke-miterlimit="10" stroke-opacity="1" fill="#D1D1D1" fill-rule="nonzero" fill-opacity="1" transform="matrix(1.00188 0 0 1 -929.886 -706.017)"/><path d="M1112 918.114 1115.74 918.114 1115.74 921.853 1112 921.853Z" stroke="#000000" stroke-width="0.560924" stroke-linecap="butt" stroke-linejoin="round" stroke-miterlimit="10" stroke-opacity="1" fill="#D1D1D1" fill-rule="nonzero" fill-opacity="1" transform="matrix(1.00188 0 0 1 -929.886 -706.017)"/><path d="M1126.96 959.248 1130.7 959.248 1130.7 962.987 1126.96 962.987Z" stroke="#000000" stroke-width="0.560924" stroke-linecap="butt" stroke-linejoin="round" stroke-miterlimit="10" stroke-opacity="1" fill="#D1D1D1" fill-rule="nonzero" fill-opacity="1" transform="matrix(1.00188 0 0 1 -929.886 -706.017)"/><text fill="#000000" fill-opacity="1" font-family="Arial,Arial_MSFontService,sans-serif" font-style="normal" font-variant="normal" font-weight="400" font-stretch="normal" font-size="11" text-anchor="start" direction="ltr" writing-mode="lr-tb" unicode-bidi="normal" text-decoration="none" transform="matrix(0.749304 0 0 0.747899 10.5877 28)">0.0</text><text fill="#000000" fill-opacity="1" font-family="Arial,Arial_MSFontService,sans-serif" font-style="normal" font-variant="normal" font-weight="400" font-stretch="normal" font-size="11" text-anchor="start" direction="ltr" writing-mode="lr-tb" unicode-bidi="normal" text-decoration="none" transform="matrix(0.749304 0 0 0.747899 10.5877 52)">0.2</text><text fill="#000000" fill-opacity="1" font-family="Arial,Arial_MSFontService,sans-serif" font-style="normal" font-variant="normal" font-weight="400" font-stretch="normal" font-size="11" text-anchor="start" direction="ltr" writing-mode="lr-tb" unicode-bidi="normal" text-decoration="none" transform="matrix(0.749304 0 0 0.747899 10.5877 75)">0.4</text><text fill="#000000" fill-opacity="1" font-family="Arial,Arial_MSFontService,sans-serif" font-style="normal" font-variant="normal" font-weight="400" font-stretch="normal" font-size="11" text-anchor="start" direction="ltr" writing-mode="lr-tb" unicode-bidi="normal" text-decoration="none" transform="matrix(0.749304 0 0 0.747899 10.5877 98)">0.6</text><text fill="#000000" fill-opacity="1" font-family="Arial,Arial_MSFontService,sans-serif" font-style="normal" font-variant="normal" font-weight="400" font-stretch="normal" font-size="11" text-anchor="start" direction="ltr" writing-mode="lr-tb" unicode-bidi="normal" text-decoration="none" transform="matrix(0.749304 0 0 0.747899 10.5877 121)">0.8</text><text fill="#000000" fill-opacity="1" font-family="Arial,Arial_MSFontService,sans-serif" font-style="normal" font-variant="normal" font-weight="400" font-stretch="normal" font-size="11" text-anchor="start" direction="ltr" writing-mode="lr-tb" unicode-bidi="normal" text-decoration="none" transform="matrix(0.749304 0 0 0.747899 10.5877 144)">1.0</text><text fill="#000000" fill-opacity="1" font-family="Arial,Arial_MSFontService,sans-serif" font-style="normal" font-variant="normal" font-weight="400" font-stretch="normal" font-size="11" text-anchor="start" direction="ltr" writing-mode="lr-tb" unicode-bidi="normal" text-decoration="none" transform="matrix(0.749304 0 0 0.747899 10.5877 168)">1.2</text><text fill="#000000" fill-opacity="1" font-family="Arial,Arial_MSFontService,sans-serif" font-style="normal" font-variant="normal" font-weight="400" font-stretch="normal" font-size="11" text-anchor="start" direction="ltr" writing-mode="lr-tb" unicode-bidi="normal" text-decoration="none" transform="matrix(0.749304 0 0 0.747899 10.5877 191)">1.4</text><text fill="#000000" fill-opacity="1" font-family="Arial,Arial_MSFontService,sans-serif" font-style="normal" font-variant="normal" font-weight="400" font-stretch="normal" font-size="11" text-anchor="start" direction="ltr" writing-mode="lr-tb" unicode-bidi="normal" text-decoration="none" transform="matrix(0.749304 0 0 0.747899 10.5877 215)">1.6</text><text fill="#000000" fill-opacity="1" font-family="Arial,Arial_MSFontService,sans-serif" font-style="normal" font-variant="normal" font-weight="400" font-stretch="normal" font-size="11" text-anchor="start" direction="ltr" writing-mode="lr-tb" unicode-bidi="normal" text-decoration="none" transform="matrix(0.749304 0 0 0.747899 10.5877 238)">1.8</text><text fill="#000000" fill-opacity="1" font-family="Arial,Arial_MSFontService,sans-serif" font-style="normal" font-variant="normal" font-weight="400" font-stretch="normal" font-size="11" text-anchor="start" direction="ltr" writing-mode="lr-tb" unicode-bidi="normal" text-decoration="none" transform="matrix(0.749304 0 0 0.747899 10.5877 261)">2.0</text><text fill="#000000" fill-opacity="1" font-family="Arial,Arial_MSFontService,sans-serif" font-style="normal" font-variant="normal" font-weight="400" font-stretch="normal" font-size="11" text-anchor="start" direction="ltr" writing-mode="lr-tb" unicode-bidi="normal" text-decoration="none" transform="matrix(0.749304 0 0 0.747899 29.1329 18)">1</text><text fill="#000000" fill-opacity="1" font-family="Arial,Arial_MSFontService,sans-serif" font-style="normal" font-variant="normal" font-weight="400" font-stretch="normal" font-size="11" text-anchor="start" direction="ltr" writing-mode="lr-tb" unicode-bidi="normal" text-decoration="none" transform="matrix(0.749304 0 0 0.747899 81.8764 18)">10</text><text fill="#000000" fill-opacity="1" font-family="Arial,Arial_MSFontService,sans-serif" font-style="normal" font-variant="normal" font-weight="400" font-stretch="normal" font-size="11" text-anchor="start" direction="ltr" writing-mode="lr-tb" unicode-bidi="normal" text-decoration="none" transform="matrix(0.749304 0 0 0.747899 134.62 18)">100</text><text fill="#000000" fill-opacity="1" font-family="Arial,Arial_MSFontService,sans-serif" font-style="normal" font-variant="normal" font-weight="400" font-stretch="normal" font-size="11" text-anchor="start" direction="ltr" writing-mode="lr-tb" unicode-bidi="normal" text-decoration="none" transform="matrix(0.749304 0 0 0.747899 187.371 18)">1000</text><text fill="#000000" fill-opacity="1" font-family="Arial,Arial_MSFontService,sans-serif" font-style="normal" font-variant="normal" font-weight="400" font-stretch="normal" font-size="11" text-anchor="start" direction="ltr" writing-mode="lr-tb" unicode-bidi="normal" text-decoration="none" transform="matrix(0.749304 0 0 0.747899 240.114 18)">10000</text><text fill="#000000" fill-opacity="1" font-family="Arial,Arial_MSFontService,sans-serif" font-style="normal" font-variant="normal" font-weight="400" font-stretch="normal" font-size="11" text-anchor="start" direction="ltr" writing-mode="lr-tb" unicode-bidi="normal" text-decoration="none" transform="matrix(4.58816e-17 -0.747899 0.749304 4.57956e-17 8.86426 190)">Natural volumetric strain: </text><text fill="#000000" fill-opacity="1" font-family="Arial,Arial_MSFontService,sans-serif" font-style="normal" font-variant="normal" font-weight="400" font-stretch="normal" font-size="11" text-anchor="start" direction="ltr" writing-mode="lr-tb" unicode-bidi="normal" text-decoration="none" transform="matrix(4.58816e-17 -0.747899 0.749304 4.57956e-17 8.86426 97)">-</text><text fill="#000000" fill-opacity="1" font-family="Arial,Arial_MSFontService,sans-serif" font-style="normal" font-variant="normal" font-weight="400" font-stretch="normal" font-size="11" text-anchor="start" direction="ltr" writing-mode="lr-tb" unicode-bidi="normal" text-decoration="none" transform="matrix(0.749304 0 0 0.747899 89.9689 9)">Effective vertical stress: kPa</text><path d="M1128.36 959.532 1040.7 759.492" stroke="#000000" stroke-width="0.747899" stroke-linecap="butt" stroke-linejoin="miter" stroke-miterlimit="8" stroke-dasharray="2.9916 2.2437" stroke-opacity="1" fill="none" fill-rule="evenodd" transform="matrix(1.00188 0 0 1 -929.886 -706.017)"/><path d="M1128.02 942.704 1047.43 770.71" stroke="#000000" stroke-width="0.747899" stroke-linecap="butt" stroke-linejoin="miter" stroke-miterlimit="8" stroke-dasharray="2.9916 2.2437" stroke-opacity="1" fill="none" fill-rule="evenodd" transform="matrix(1.00188 0 0 1 -929.886 -706.017)"/><path d="M1128.45 928.921 1049.68 772.206" stroke="#000000" stroke-width="0.747899" stroke-linecap="butt" stroke-linejoin="miter" stroke-miterlimit="8" stroke-dasharray="2.9916 2.2437" stroke-opacity="1" fill="none" fill-rule="evenodd" transform="matrix(1.00188 0 0 1 -929.886 -706.017)"/><path d="M1128.53 892.087 1051.17 769.962" stroke="#000000" stroke-width="0.747899" stroke-linecap="butt" stroke-linejoin="miter" stroke-miterlimit="8" stroke-dasharray="2.9916 2.2437" stroke-opacity="1" fill="none" fill-rule="evenodd" transform="matrix(1.00188 0 0 1 -929.886 -706.017)"/><path d="M1128.95 852.77 1045.94 753.508" stroke="#000000" stroke-width="0.747899" stroke-linecap="butt" stroke-linejoin="miter" stroke-miterlimit="8" stroke-dasharray="2.9916 2.2437" stroke-opacity="1" fill="none" fill-rule="evenodd" transform="matrix(1.00188 0 0 1 -929.886 -706.017)"/><path d="M1130.84 798.749 1060.15 744.534" stroke="#000000" stroke-width="0.747899" stroke-linecap="butt" stroke-linejoin="miter" stroke-miterlimit="8" stroke-dasharray="2.9916 2.2437" stroke-opacity="1" fill="none" fill-rule="evenodd" transform="matrix(1.00188 0 0 1 -929.886 -706.017)"/><path d="M1129.73 769.027 1057.16 736.307" stroke="#000000" stroke-width="0.747899" stroke-linecap="butt" stroke-linejoin="miter" stroke-miterlimit="8" stroke-dasharray="2.9916 2.2437" stroke-opacity="1" fill="none" fill-rule="evenodd" transform="matrix(1.00188 0 0 1 -929.886 -706.017)"/><text fill="#000000" fill-opacity="1" font-family="Cambria Math,Cambria Math_MSFontService,sans-serif" font-style="normal" font-variant="normal" font-weight="400" font-stretch="normal" font-size="11" text-anchor="start" direction="ltr" writing-mode="lr-tb" unicode-bidi="normal" text-decoration="none" transform="matrix(0.749304 0 0 0.747899 227.998 44)">𝑤</text><text fill="#000000" fill-opacity="1" font-family="Cambria Math,Cambria Math_MSFontService,sans-serif" font-style="normal" font-variant="normal" font-weight="400" font-stretch="normal" font-size="8" text-anchor="start" direction="ltr" writing-mode="lr-tb" unicode-bidi="normal" text-decoration="none" transform="matrix(0.749304 0 0 0.747899 233.558 46)">𝑛</text><text fill="#000000" fill-opacity="1" font-family="Arial,Arial_MSFontService,sans-serif" font-style="normal" font-variant="normal" font-weight="400" font-stretch="normal" font-size="11" text-anchor="start" direction="ltr" writing-mode="lr-tb" unicode-bidi="normal" text-decoration="none" transform="matrix(0.749304 0 0 0.747899 223.562 64)">58</text><text fill="#000000" fill-opacity="1" font-family="Arial,Arial_MSFontService,sans-serif" font-style="normal" font-variant="normal" font-weight="400" font-stretch="normal" font-size="11" text-anchor="start" direction="ltr" writing-mode="lr-tb" unicode-bidi="normal" text-decoration="none" transform="matrix(0.749304 0 0 0.747899 235.019 64)">%</text><text fill="#000000" fill-opacity="1" font-family="Arial,Arial_MSFontService,sans-serif" font-style="normal" font-variant="normal" font-weight="400" font-stretch="normal" font-size="11" text-anchor="start" direction="ltr" writing-mode="lr-tb" unicode-bidi="normal" text-decoration="none" transform="matrix(0.749304 0 0 0.747899 223.562 97)">96 %</text><text fill="#000000" fill-opacity="1" font-family="Arial,Arial_MSFontService,sans-serif" font-style="normal" font-variant="normal" font-weight="400" font-stretch="normal" font-size="11" text-anchor="start" direction="ltr" writing-mode="lr-tb" unicode-bidi="normal" text-decoration="none" transform="matrix(0.749304 0 0 0.747899 221.269 153)">212 %</text><text fill="#000000" fill-opacity="1" font-family="Arial,Arial_MSFontService,sans-serif" font-style="normal" font-variant="normal" font-weight="400" font-stretch="normal" font-size="11" text-anchor="start" direction="ltr" writing-mode="lr-tb" unicode-bidi="normal" text-decoration="none" transform="matrix(0.749304 0 0 0.747899 221.269 194)">330 %</text><text fill="#000000" fill-opacity="1" font-family="Arial,Arial_MSFontService,sans-serif" font-style="normal" font-variant="normal" font-weight="400" font-stretch="normal" font-size="11" text-anchor="start" direction="ltr" writing-mode="lr-tb" unicode-bidi="normal" text-decoration="none" transform="matrix(0.749304 0 0 0.747899 221.269 229)">602 %</text><text fill="#000000" fill-opacity="1" font-family="Arial,Arial_MSFontService,sans-serif" font-style="normal" font-variant="normal" font-weight="400" font-stretch="normal" font-size="11" text-anchor="start" direction="ltr" writing-mode="lr-tb" unicode-bidi="normal" text-decoration="none" transform="matrix(0.749304 0 0 0.747899 221.269 245)">707 %</text><text fill="#000000" fill-opacity="1" font-family="Arial,Arial_MSFontService,sans-serif" font-style="normal" font-variant="normal" font-weight="400" font-stretch="normal" font-size="11" text-anchor="start" direction="ltr" writing-mode="lr-tb" unicode-bidi="normal" text-decoration="none" transform="matrix(0.749304 0 0 0.747899 221.269 260)">941 %</text><text fill="#000000" fill-opacity="1" font-family="Arial,Arial_MSFontService,sans-serif" font-style="normal" font-variant="normal" font-weight="400" font-stretch="normal" font-size="11" text-anchor="start" direction="ltr" writing-mode="lr-tb" unicode-bidi="normal" text-decoration="none" transform="matrix(0.749304 0 0 0.747899 45.198 248)">Data after Oikawa (1987)</text></g></g></g></g></g></svg>