<svg width="588" height="297" xmlns="http://www.w3.org/2000/svg" xmlns:xlink="http://www.w3.org/1999/xlink" xml:space="preserve" overflow="hidden"><defs><clipPath id="clip0"><rect x="0" y="0" width="588" height="297"/></clipPath><clipPath id="clip1"><rect x="0" y="0" width="588" height="297"/></clipPath><clipPath id="clip2"><rect x="0" y="0" width="587" height="297"/></clipPath><clipPath id="clip3"><rect x="0" y="0" width="587" height="297"/></clipPath><clipPath id="clip4"><rect x="0" y="0" width="587" height="297"/></clipPath><clipPath id="clip5"><rect x="0" y="0" width="587" height="298"/></clipPath><clipPath id="clip6"><rect x="0" y="0" width="587" height="298"/></clipPath></defs><g clip-path="url(#clip0)"><g clip-path="url(#clip1)"><g clip-path="url(#clip2)"><g clip-path="url(#clip3)"><g clip-path="url(#clip4)"><g clip-path="url(#clip5)"><g clip-path="url(#clip6)"><path d="M1531.94 305.902 1824.08 305.902 1824.08 602.093 1531.94 602.093Z" fill="#FFFFFF" fill-rule="nonzero" fill-opacity="1" transform="matrix(1.00186 0 0 1 -1240.48 -305.902)"/><path d="M0 0 6.37216e-05 250.063" stroke="#000000" stroke-width="0.606948" stroke-linecap="butt" stroke-linejoin="round" stroke-miterlimit="10" stroke-opacity="1" fill="none" fill-rule="evenodd" transform="matrix(1.00186 0 0 -1 336.066 260.178)"/><path d="M1573.61 566.08 1575.23 566.08M1573.61 549.086 1575.23 549.086M1573.61 532.901 1575.23 532.901M1573.61 515.906 1575.23 515.906M1573.61 498.911 1575.23 498.911M1573.61 482.726 1575.23 482.726M1573.61 465.732 1575.23 465.732M1573.61 449.546 1575.23 449.546M1573.61 432.552 1575.23 432.552M1573.61 415.557 1575.23 415.557M1573.61 399.372 1575.23 399.372M1573.61 382.377 1575.23 382.377M1573.61 365.383 1575.23 365.383M1573.61 349.198 1575.23 349.198M1573.61 332.203 1575.23 332.203M1573.61 316.018 1575.23 316.018M1573.61 566.08 1576.04 566.08M1573.61 482.726 1576.04 482.726M1573.61 399.372 1576.04 399.372M1573.61 316.018 1576.04 316.018" stroke="#000000" stroke-width="0.606948" stroke-linecap="butt" stroke-linejoin="round" stroke-miterlimit="10" stroke-opacity="1" fill="none" fill-rule="nonzero" transform="matrix(1.00186 0 0 1 -1240.48 -305.902)"/><path d="M1573.61 566.08 1810.73 566.08" stroke="#000000" stroke-width="0.606948" stroke-linecap="butt" stroke-linejoin="round" stroke-miterlimit="10" stroke-opacity="1" fill="none" fill-rule="evenodd" transform="matrix(1.00186 0 0 1 -1240.48 -305.902)"/><path d="M1573.61 563.653 1573.61 566.08M1588.99 563.653 1588.99 566.08M1605.18 563.653 1605.18 566.08M1620.55 563.653 1620.55 566.08M1636.74 563.653 1636.74 566.08M1652.92 563.653 1652.92 566.08M1668.3 563.653 1668.3 566.08M1684.48 563.653 1684.48 566.08M1699.86 563.653 1699.86 566.08M1716.04 563.653 1716.04 566.08M1731.42 563.653 1731.42 566.08M1747.61 563.653 1747.61 566.08M1763.79 563.653 1763.79 566.08M1779.17 563.653 1779.17 566.08M1795.35 563.653 1795.35 566.08M1810.73 563.653 1810.73 566.08M1573.61 563.653 1573.61 566.08M1652.92 563.653 1652.92 566.08M1731.42 563.653 1731.42 566.08M1810.73 563.653 1810.73 566.08" stroke="#000000" stroke-width="0.606948" stroke-linecap="butt" stroke-linejoin="round" stroke-miterlimit="10" stroke-opacity="1" fill="none" fill-rule="nonzero" transform="matrix(1.00186 0 0 1 -1240.48 -305.902)"/><path d="M1604.42 487.802 1606.84 492.657 1601.99 492.657Z" stroke="#000000" stroke-width="0.606948" stroke-linecap="butt" stroke-linejoin="round" stroke-miterlimit="10" stroke-opacity="1" fill="#D1D1D1" fill-rule="nonzero" fill-opacity="1" transform="matrix(1.00186 0 0 1 -1240.48 -305.902)"/><path d="M1604.42 497.513 1606.84 502.369 1601.99 502.369Z" stroke="#000000" stroke-width="0.606948" stroke-linecap="butt" stroke-linejoin="round" stroke-miterlimit="10" stroke-opacity="1" fill="#D1D1D1" fill-rule="nonzero" fill-opacity="1" transform="matrix(1.00186 0 0 1 -1240.48 -305.902)"/><path d="M1604.42 506.415 1606.84 511.271 1601.99 511.271Z" stroke="#000000" stroke-width="0.606948" stroke-linecap="butt" stroke-linejoin="round" stroke-miterlimit="10" stroke-opacity="1" fill="#D1D1D1" fill-rule="nonzero" fill-opacity="1" transform="matrix(1.00186 0 0 1 -1240.48 -305.902)"/><path d="M1606.84 516.935 1609.27 521.791 1604.42 521.791Z" stroke="#000000" stroke-width="0.606948" stroke-linecap="butt" stroke-linejoin="round" stroke-miterlimit="10" stroke-opacity="1" fill="#D1D1D1" fill-rule="nonzero" fill-opacity="1" transform="matrix(1.00186 0 0 1 -1240.48 -305.902)"/><path d="M1607.65 472.426 1610.08 477.281 1605.22 477.281Z" stroke="#000000" stroke-width="0.606948" stroke-linecap="butt" stroke-linejoin="round" stroke-miterlimit="10" stroke-opacity="1" fill="#D1D1D1" fill-rule="nonzero" fill-opacity="1" transform="matrix(1.00186 0 0 1 -1240.48 -305.902)"/><path d="M1609.27 529.884 1611.7 534.739 1606.84 534.739Z" stroke="#000000" stroke-width="0.606948" stroke-linecap="butt" stroke-linejoin="round" stroke-miterlimit="10" stroke-opacity="1" fill="#D1D1D1" fill-rule="nonzero" fill-opacity="1" transform="matrix(1.00186 0 0 1 -1240.48 -305.902)"/><path d="M1610.89 460.287 1613.32 465.142 1608.46 465.142Z" stroke="#000000" stroke-width="0.606948" stroke-linecap="butt" stroke-linejoin="round" stroke-miterlimit="10" stroke-opacity="1" fill="#D1D1D1" fill-rule="nonzero" fill-opacity="1" transform="matrix(1.00186 0 0 1 -1240.48 -305.902)"/><path d="M1612.51 537.167 1614.94 542.023 1610.08 542.023Z" stroke="#000000" stroke-width="0.606948" stroke-linecap="butt" stroke-linejoin="round" stroke-miterlimit="10" stroke-opacity="1" fill="#D1D1D1" fill-rule="nonzero" fill-opacity="1" transform="matrix(1.00186 0 0 1 -1240.48 -305.902)"/><path d="M1614.13 546.878 1616.55 551.734 1611.7 551.734Z" stroke="#000000" stroke-width="0.606948" stroke-linecap="butt" stroke-linejoin="round" stroke-miterlimit="10" stroke-opacity="1" fill="#D1D1D1" fill-rule="nonzero" fill-opacity="1" transform="matrix(1.00186 0 0 1 -1240.48 -305.902)"/><path d="M1615.74 555.78 1618.17 560.636 1613.32 560.636Z" stroke="#000000" stroke-width="0.606948" stroke-linecap="butt" stroke-linejoin="round" stroke-miterlimit="10" stroke-opacity="1" fill="#D1D1D1" fill-rule="nonzero" fill-opacity="1" transform="matrix(1.00186 0 0 1 -1240.48 -305.902)"/><path d="M1618.98 563.063 1621.41 567.919 1616.55 567.919Z" stroke="#000000" stroke-width="0.606948" stroke-linecap="butt" stroke-linejoin="round" stroke-miterlimit="10" stroke-opacity="1" fill="#D1D1D1" fill-rule="nonzero" fill-opacity="1" transform="matrix(1.00186 0 0 1 -1240.48 -305.902)"/><path d="M1623.84 459.478 1626.27 464.333 1621.41 464.333Z" stroke="#000000" stroke-width="0.606948" stroke-linecap="butt" stroke-linejoin="round" stroke-miterlimit="10" stroke-opacity="1" fill="#D1D1D1" fill-rule="nonzero" fill-opacity="1" transform="matrix(1.00186 0 0 1 -1240.48 -305.902)"/><path d="M1623.84 448.148 1626.27 453.003 1621.41 453.003Z" stroke="#000000" stroke-width="0.606948" stroke-linecap="butt" stroke-linejoin="round" stroke-miterlimit="10" stroke-opacity="1" fill="#D1D1D1" fill-rule="nonzero" fill-opacity="1" transform="matrix(1.00186 0 0 1 -1240.48 -305.902)"/><path d="M1626.27 470.807 1628.69 475.663 1623.84 475.663Z" stroke="#000000" stroke-width="0.606948" stroke-linecap="butt" stroke-linejoin="round" stroke-miterlimit="10" stroke-opacity="1" fill="#D1D1D1" fill-rule="nonzero" fill-opacity="1" transform="matrix(1.00186 0 0 1 -1240.48 -305.902)"/><path d="M1629.5 480.518 1631.93 485.374 1627.07 485.374Z" stroke="#000000" stroke-width="0.606948" stroke-linecap="butt" stroke-linejoin="round" stroke-miterlimit="10" stroke-opacity="1" fill="#D1D1D1" fill-rule="nonzero" fill-opacity="1" transform="matrix(1.00186 0 0 1 -1240.48 -305.902)"/><path d="M1632.74 491.848 1635.17 496.704 1630.31 496.704Z" stroke="#000000" stroke-width="0.606948" stroke-linecap="butt" stroke-linejoin="round" stroke-miterlimit="10" stroke-opacity="1" fill="#D1D1D1" fill-rule="nonzero" fill-opacity="1" transform="matrix(1.00186 0 0 1 -1240.48 -305.902)"/><path d="M1635.98 499.941 1638.4 504.796 1633.55 504.796Z" stroke="#000000" stroke-width="0.606948" stroke-linecap="butt" stroke-linejoin="round" stroke-miterlimit="10" stroke-opacity="1" fill="#D1D1D1" fill-rule="nonzero" fill-opacity="1" transform="matrix(1.00186 0 0 1 -1240.48 -305.902)"/><path d="M1640.02 510.461 1642.45 515.317 1637.59 515.317Z" stroke="#000000" stroke-width="0.606948" stroke-linecap="butt" stroke-linejoin="round" stroke-miterlimit="10" stroke-opacity="1" fill="#D1D1D1" fill-rule="nonzero" fill-opacity="1" transform="matrix(1.00186 0 0 1 -1240.48 -305.902)"/><path d="M1642.45 408.494 1644.88 413.35 1640.02 413.35Z" stroke="#000000" stroke-width="0.606948" stroke-linecap="butt" stroke-linejoin="round" stroke-miterlimit="10" stroke-opacity="1" fill="#D1D1D1" fill-rule="nonzero" fill-opacity="1" transform="matrix(1.00186 0 0 1 -1240.48 -305.902)"/><path d="M1642.45 513.698 1644.88 518.554 1640.02 518.554Z" stroke="#000000" stroke-width="0.606948" stroke-linecap="butt" stroke-linejoin="round" stroke-miterlimit="10" stroke-opacity="1" fill="#D1D1D1" fill-rule="nonzero" fill-opacity="1" transform="matrix(1.00186 0 0 1 -1240.48 -305.902)"/><path d="M1644.88 524.219 1647.31 529.074 1642.45 529.074Z" stroke="#000000" stroke-width="0.606948" stroke-linecap="butt" stroke-linejoin="round" stroke-miterlimit="10" stroke-opacity="1" fill="#D1D1D1" fill-rule="nonzero" fill-opacity="1" transform="matrix(1.00186 0 0 1 -1240.48 -305.902)"/><path d="M1644.88 419.014 1647.31 423.87 1642.45 423.87Z" stroke="#000000" stroke-width="0.606948" stroke-linecap="butt" stroke-linejoin="round" stroke-miterlimit="10" stroke-opacity="1" fill="#D1D1D1" fill-rule="nonzero" fill-opacity="1" transform="matrix(1.00186 0 0 1 -1240.48 -305.902)"/><path d="M1647.31 533.93 1649.73 538.785 1644.88 538.785Z" stroke="#000000" stroke-width="0.606948" stroke-linecap="butt" stroke-linejoin="round" stroke-miterlimit="10" stroke-opacity="1" fill="#D1D1D1" fill-rule="nonzero" fill-opacity="1" transform="matrix(1.00186 0 0 1 -1240.48 -305.902)"/><path d="M1648.92 429.535 1651.35 434.39 1646.5 434.39Z" stroke="#000000" stroke-width="0.606948" stroke-linecap="butt" stroke-linejoin="round" stroke-miterlimit="10" stroke-opacity="1" fill="#D1D1D1" fill-rule="nonzero" fill-opacity="1" transform="matrix(1.00186 0 0 1 -1240.48 -305.902)"/><path d="M1650.54 435.2 1652.97 440.055 1648.12 440.055Z" stroke="#000000" stroke-width="0.606948" stroke-linecap="butt" stroke-linejoin="round" stroke-miterlimit="10" stroke-opacity="1" fill="#D1D1D1" fill-rule="nonzero" fill-opacity="1" transform="matrix(1.00186 0 0 1 -1240.48 -305.902)"/><path d="M1649.73 542.832 1652.16 547.687 1647.31 547.687Z" stroke="#000000" stroke-width="0.606948" stroke-linecap="butt" stroke-linejoin="round" stroke-miterlimit="10" stroke-opacity="1" fill="#D1D1D1" fill-rule="nonzero" fill-opacity="1" transform="matrix(1.00186 0 0 1 -1240.48 -305.902)"/><path d="M1652.16 550.924 1654.59 555.78 1649.73 555.78Z" stroke="#000000" stroke-width="0.606948" stroke-linecap="butt" stroke-linejoin="round" stroke-miterlimit="10" stroke-opacity="1" fill="#D1D1D1" fill-rule="nonzero" fill-opacity="1" transform="matrix(1.00186 0 0 1 -1240.48 -305.902)"/><path d="M1653.78 440.865 1656.21 445.72 1651.35 445.72Z" stroke="#000000" stroke-width="0.606948" stroke-linecap="butt" stroke-linejoin="round" stroke-miterlimit="10" stroke-opacity="1" fill="#D1D1D1" fill-rule="nonzero" fill-opacity="1" transform="matrix(1.00186 0 0 1 -1240.48 -305.902)"/><path d="M1655.4 563.873 1657.83 568.728 1652.97 568.728Z" stroke="#000000" stroke-width="0.606948" stroke-linecap="butt" stroke-linejoin="round" stroke-miterlimit="10" stroke-opacity="1" fill="#D1D1D1" fill-rule="nonzero" fill-opacity="1" transform="matrix(1.00186 0 0 1 -1240.48 -305.902)"/><path d="M1657.02 448.148 1659.45 453.003 1654.59 453.003Z" stroke="#000000" stroke-width="0.606948" stroke-linecap="butt" stroke-linejoin="round" stroke-miterlimit="10" stroke-opacity="1" fill="#D1D1D1" fill-rule="nonzero" fill-opacity="1" transform="matrix(1.00186 0 0 1 -1240.48 -305.902)"/><path d="M1660.25 455.431 1662.67 460.287 1657.82 460.287Z" stroke="#000000" stroke-width="0.606948" stroke-linecap="butt" stroke-linejoin="round" stroke-miterlimit="10" stroke-opacity="1" fill="#D1D1D1" fill-rule="nonzero" fill-opacity="1" transform="matrix(1.00186 0 0 1 -1240.48 -305.902)"/><path d="M1663.48 372.077 1665.91 376.933 1661.06 376.933Z" stroke="#000000" stroke-width="0.606948" stroke-linecap="butt" stroke-linejoin="round" stroke-miterlimit="10" stroke-opacity="1" fill="#D1D1D1" fill-rule="nonzero" fill-opacity="1" transform="matrix(1.00186 0 0 1 -1240.48 -305.902)"/><path d="M1664.29 462.715 1666.72 467.57 1661.86 467.57Z" stroke="#000000" stroke-width="0.606948" stroke-linecap="butt" stroke-linejoin="round" stroke-miterlimit="10" stroke-opacity="1" fill="#D1D1D1" fill-rule="nonzero" fill-opacity="1" transform="matrix(1.00186 0 0 1 -1240.48 -305.902)"/><path d="M1666.72 377.742 1669.15 382.598 1664.29 382.598Z" stroke="#000000" stroke-width="0.606948" stroke-linecap="butt" stroke-linejoin="round" stroke-miterlimit="10" stroke-opacity="1" fill="#D1D1D1" fill-rule="nonzero" fill-opacity="1" transform="matrix(1.00186 0 0 1 -1240.48 -305.902)"/><path d="M1667.53 470.807 1669.96 475.663 1665.1 475.663Z" stroke="#000000" stroke-width="0.606948" stroke-linecap="butt" stroke-linejoin="round" stroke-miterlimit="10" stroke-opacity="1" fill="#D1D1D1" fill-rule="nonzero" fill-opacity="1" transform="matrix(1.00186 0 0 1 -1240.48 -305.902)"/><path d="M1670.77 385.835 1673.19 390.69 1668.34 390.69Z" stroke="#000000" stroke-width="0.606948" stroke-linecap="butt" stroke-linejoin="round" stroke-miterlimit="10" stroke-opacity="1" fill="#D1D1D1" fill-rule="nonzero" fill-opacity="1" transform="matrix(1.00186 0 0 1 -1240.48 -305.902)"/><path d="M1670.77 478.091 1673.19 482.946 1668.34 482.946Z" stroke="#000000" stroke-width="0.606948" stroke-linecap="butt" stroke-linejoin="round" stroke-miterlimit="10" stroke-opacity="1" fill="#D1D1D1" fill-rule="nonzero" fill-opacity="1" transform="matrix(1.00186 0 0 1 -1240.48 -305.902)"/><path d="M1674 395.546 1676.43 400.401 1671.58 400.401Z" stroke="#000000" stroke-width="0.606948" stroke-linecap="butt" stroke-linejoin="round" stroke-miterlimit="10" stroke-opacity="1" fill="#D1D1D1" fill-rule="nonzero" fill-opacity="1" transform="matrix(1.00186 0 0 1 -1240.48 -305.902)"/><path d="M1674.81 487.802 1677.24 492.657 1672.39 492.657Z" stroke="#000000" stroke-width="0.606948" stroke-linecap="butt" stroke-linejoin="round" stroke-miterlimit="10" stroke-opacity="1" fill="#D1D1D1" fill-rule="nonzero" fill-opacity="1" transform="matrix(1.00186 0 0 1 -1240.48 -305.902)"/><path d="M1677.24 403.638 1679.67 408.494 1674.81 408.494Z" stroke="#000000" stroke-width="0.606948" stroke-linecap="butt" stroke-linejoin="round" stroke-miterlimit="10" stroke-opacity="1" fill="#D1D1D1" fill-rule="nonzero" fill-opacity="1" transform="matrix(1.00186 0 0 1 -1240.48 -305.902)"/><path d="M1678.05 495.894 1680.48 500.75 1675.62 500.75Z" stroke="#000000" stroke-width="0.606948" stroke-linecap="butt" stroke-linejoin="round" stroke-miterlimit="10" stroke-opacity="1" fill="#D1D1D1" fill-rule="nonzero" fill-opacity="1" transform="matrix(1.00186 0 0 1 -1240.48 -305.902)"/><path d="M1681.29 410.112 1683.71 414.968 1678.86 414.968Z" stroke="#000000" stroke-width="0.606948" stroke-linecap="butt" stroke-linejoin="round" stroke-miterlimit="10" stroke-opacity="1" fill="#D1D1D1" fill-rule="nonzero" fill-opacity="1" transform="matrix(1.00186 0 0 1 -1240.48 -305.902)"/><path d="M1681.29 507.224 1683.71 512.08 1678.86 512.08Z" stroke="#000000" stroke-width="0.606948" stroke-linecap="butt" stroke-linejoin="round" stroke-miterlimit="10" stroke-opacity="1" fill="#D1D1D1" fill-rule="nonzero" fill-opacity="1" transform="matrix(1.00186 0 0 1 -1240.48 -305.902)"/><path d="M1684.52 416.587 1686.95 421.442 1682.1 421.442Z" stroke="#000000" stroke-width="0.606948" stroke-linecap="butt" stroke-linejoin="round" stroke-miterlimit="10" stroke-opacity="1" fill="#D1D1D1" fill-rule="nonzero" fill-opacity="1" transform="matrix(1.00186 0 0 1 -1240.48 -305.902)"/><path d="M1684.52 519.363 1686.95 524.219 1682.1 524.219Z" stroke="#000000" stroke-width="0.606948" stroke-linecap="butt" stroke-linejoin="round" stroke-miterlimit="10" stroke-opacity="1" fill="#D1D1D1" fill-rule="nonzero" fill-opacity="1" transform="matrix(1.00186 0 0 1 -1240.48 -305.902)"/><path d="M1686.95 529.884 1689.38 534.739 1684.52 534.739Z" stroke="#000000" stroke-width="0.606948" stroke-linecap="butt" stroke-linejoin="round" stroke-miterlimit="10" stroke-opacity="1" fill="#D1D1D1" fill-rule="nonzero" fill-opacity="1" transform="matrix(1.00186 0 0 1 -1240.48 -305.902)"/><path d="M1687.76 423.061 1690.19 427.916 1685.33 427.916Z" stroke="#000000" stroke-width="0.606948" stroke-linecap="butt" stroke-linejoin="round" stroke-miterlimit="10" stroke-opacity="1" fill="#D1D1D1" fill-rule="nonzero" fill-opacity="1" transform="matrix(1.00186 0 0 1 -1240.48 -305.902)"/><path d="M1690.19 542.832 1692.62 547.687 1687.76 547.687Z" stroke="#000000" stroke-width="0.606948" stroke-linecap="butt" stroke-linejoin="round" stroke-miterlimit="10" stroke-opacity="1" fill="#D1D1D1" fill-rule="nonzero" fill-opacity="1" transform="matrix(1.00186 0 0 1 -1240.48 -305.902)"/><path d="M1691.81 431.153 1694.24 436.009 1689.38 436.009Z" stroke="#000000" stroke-width="0.606948" stroke-linecap="butt" stroke-linejoin="round" stroke-miterlimit="10" stroke-opacity="1" fill="#D1D1D1" fill-rule="nonzero" fill-opacity="1" transform="matrix(1.00186 0 0 1 -1240.48 -305.902)"/><path d="M1692.62 551.734 1695.04 556.589 1690.19 556.589Z" stroke="#000000" stroke-width="0.606948" stroke-linecap="butt" stroke-linejoin="round" stroke-miterlimit="10" stroke-opacity="1" fill="#D1D1D1" fill-rule="nonzero" fill-opacity="1" transform="matrix(1.00186 0 0 1 -1240.48 -305.902)"/><path d="M1695.04 439.246 1697.47 444.102 1692.62 444.102Z" stroke="#000000" stroke-width="0.606948" stroke-linecap="butt" stroke-linejoin="round" stroke-miterlimit="10" stroke-opacity="1" fill="#D1D1D1" fill-rule="nonzero" fill-opacity="1" transform="matrix(1.00186 0 0 1 -1240.48 -305.902)"/><path d="M1695.85 563.063 1698.28 567.919 1693.43 567.919Z" stroke="#000000" stroke-width="0.606948" stroke-linecap="butt" stroke-linejoin="round" stroke-miterlimit="10" stroke-opacity="1" fill="#D1D1D1" fill-rule="nonzero" fill-opacity="1" transform="matrix(1.00186 0 0 1 -1240.48 -305.902)"/><path d="M1699.09 446.529 1701.52 451.385 1696.66 451.385Z" stroke="#000000" stroke-width="0.606948" stroke-linecap="butt" stroke-linejoin="round" stroke-miterlimit="10" stroke-opacity="1" fill="#D1D1D1" fill-rule="nonzero" fill-opacity="1" transform="matrix(1.00186 0 0 1 -1240.48 -305.902)"/><path d="M1702.33 454.622 1704.76 459.478 1699.9 459.478Z" stroke="#000000" stroke-width="0.606948" stroke-linecap="butt" stroke-linejoin="round" stroke-miterlimit="10" stroke-opacity="1" fill="#D1D1D1" fill-rule="nonzero" fill-opacity="1" transform="matrix(1.00186 0 0 1 -1240.48 -305.902)"/><path d="M1705.57 460.287 1707.99 465.142 1703.14 465.142Z" stroke="#000000" stroke-width="0.606948" stroke-linecap="butt" stroke-linejoin="round" stroke-miterlimit="10" stroke-opacity="1" fill="#D1D1D1" fill-rule="nonzero" fill-opacity="1" transform="matrix(1.00186 0 0 1 -1240.48 -305.902)"/><path d="M1710.42 471.617 1712.85 476.472 1707.99 476.472Z" stroke="#000000" stroke-width="0.606948" stroke-linecap="butt" stroke-linejoin="round" stroke-miterlimit="10" stroke-opacity="1" fill="#D1D1D1" fill-rule="nonzero" fill-opacity="1" transform="matrix(1.00186 0 0 1 -1240.48 -305.902)"/><path d="M1712.85 482.137 1715.28 486.993 1710.42 486.993Z" stroke="#000000" stroke-width="0.606948" stroke-linecap="butt" stroke-linejoin="round" stroke-miterlimit="10" stroke-opacity="1" fill="#D1D1D1" fill-rule="nonzero" fill-opacity="1" transform="matrix(1.00186 0 0 1 -1240.48 -305.902)"/><path d="M1716.09 493.467 1718.51 498.322 1713.66 498.322Z" stroke="#000000" stroke-width="0.606948" stroke-linecap="butt" stroke-linejoin="round" stroke-miterlimit="10" stroke-opacity="1" fill="#D1D1D1" fill-rule="nonzero" fill-opacity="1" transform="matrix(1.00186 0 0 1 -1240.48 -305.902)"/><path d="M1719.32 503.178 1721.75 508.033 1716.89 508.033Z" stroke="#000000" stroke-width="0.606948" stroke-linecap="butt" stroke-linejoin="round" stroke-miterlimit="10" stroke-opacity="1" fill="#D1D1D1" fill-rule="nonzero" fill-opacity="1" transform="matrix(1.00186 0 0 1 -1240.48 -305.902)"/><path d="M1721.75 512.08 1724.18 516.935 1719.32 516.935Z" stroke="#000000" stroke-width="0.606948" stroke-linecap="butt" stroke-linejoin="round" stroke-miterlimit="10" stroke-opacity="1" fill="#D1D1D1" fill-rule="nonzero" fill-opacity="1" transform="matrix(1.00186 0 0 1 -1240.48 -305.902)"/><path d="M1724.99 522.6 1727.42 527.456 1722.56 527.456Z" stroke="#000000" stroke-width="0.606948" stroke-linecap="butt" stroke-linejoin="round" stroke-miterlimit="10" stroke-opacity="1" fill="#D1D1D1" fill-rule="nonzero" fill-opacity="1" transform="matrix(1.00186 0 0 1 -1240.48 -305.902)"/><path d="M1728.22 533.93 1730.65 538.785 1725.8 538.785Z" stroke="#000000" stroke-width="0.606948" stroke-linecap="butt" stroke-linejoin="round" stroke-miterlimit="10" stroke-opacity="1" fill="#D1D1D1" fill-rule="nonzero" fill-opacity="1" transform="matrix(1.00186 0 0 1 -1240.48 -305.902)"/><path d="M1730.65 542.832 1733.08 547.687 1728.22 547.687Z" stroke="#000000" stroke-width="0.606948" stroke-linecap="butt" stroke-linejoin="round" stroke-miterlimit="10" stroke-opacity="1" fill="#D1D1D1" fill-rule="nonzero" fill-opacity="1" transform="matrix(1.00186 0 0 1 -1240.48 -305.902)"/><path d="M1732.27 557.399 1734.7 562.254 1729.84 562.254Z" stroke="#000000" stroke-width="0.606948" stroke-linecap="butt" stroke-linejoin="round" stroke-miterlimit="10" stroke-opacity="1" fill="#D1D1D1" fill-rule="nonzero" fill-opacity="1" transform="matrix(1.00186 0 0 1 -1240.48 -305.902)"/><path d="M1733.89 561.445 1736.32 566.3 1731.46 566.3Z" stroke="#000000" stroke-width="0.606948" stroke-linecap="butt" stroke-linejoin="round" stroke-miterlimit="10" stroke-opacity="1" fill="#D1D1D1" fill-rule="nonzero" fill-opacity="1" transform="matrix(1.00186 0 0 1 -1240.48 -305.902)"/><path d="M1622.22 442.483 1624.65 447.339 1619.79 447.339Z" stroke="#000000" stroke-width="0.606948" stroke-linecap="butt" stroke-linejoin="round" stroke-miterlimit="10" stroke-opacity="1" fill="#D1D1D1" fill-rule="nonzero" fill-opacity="1" transform="matrix(1.00186 0 0 1 -1240.48 -305.902)"/><path d="M1640.83 405.257 1643.26 410.112 1638.4 410.112Z" stroke="#000000" stroke-width="0.606948" stroke-linecap="butt" stroke-linejoin="round" stroke-miterlimit="10" stroke-opacity="1" fill="#D1D1D1" fill-rule="nonzero" fill-opacity="1" transform="matrix(1.00186 0 0 1 -1240.48 -305.902)"/><path d="M1660.25 370.459 1662.67 375.314 1657.82 375.314Z" stroke="#000000" stroke-width="0.606948" stroke-linecap="butt" stroke-linejoin="round" stroke-miterlimit="10" stroke-opacity="1" fill="#D1D1D1" fill-rule="nonzero" fill-opacity="1" transform="matrix(1.00186 0 0 1 -1240.48 -305.902)"/><text fill="#000000" fill-opacity="1" font-family="Arial,Arial_MSFontService,sans-serif" font-style="normal" font-variant="normal" font-weight="400" font-stretch="normal" font-size="11" text-anchor="start" direction="ltr" writing-mode="lr-tb" unicode-bidi="normal" text-decoration="none" transform="matrix(0.810773 0 0 0.809264 323.069 263)">0</text><text fill="#000000" fill-opacity="1" font-family="Arial,Arial_MSFontService,sans-serif" font-style="normal" font-variant="normal" font-weight="400" font-stretch="normal" font-size="11" text-anchor="start" direction="ltr" writing-mode="lr-tb" unicode-bidi="normal" text-decoration="none" transform="matrix(0.810773 0 0 0.809264 318.107 180)">50</text><text fill="#000000" fill-opacity="1" font-family="Arial,Arial_MSFontService,sans-serif" font-style="normal" font-variant="normal" font-weight="400" font-stretch="normal" font-size="11" text-anchor="start" direction="ltr" writing-mode="lr-tb" unicode-bidi="normal" text-decoration="none" transform="matrix(0.810773 0 0 0.809264 313.145 96)">100</text><text fill="#000000" fill-opacity="1" font-family="Arial,Arial_MSFontService,sans-serif" font-style="normal" font-variant="normal" font-weight="400" font-stretch="normal" font-size="11" text-anchor="start" direction="ltr" writing-mode="lr-tb" unicode-bidi="normal" text-decoration="none" transform="matrix(0.810773 0 0 0.809264 313.145 12)">150</text><text fill="#000000" fill-opacity="1" font-family="Arial,Arial_MSFontService,sans-serif" font-style="normal" font-variant="normal" font-weight="400" font-stretch="normal" font-size="11" text-anchor="start" direction="ltr" writing-mode="lr-tb" unicode-bidi="normal" text-decoration="none" transform="matrix(0.810773 0 0 0.809264 333.22 274)">0</text><text fill="#000000" fill-opacity="1" font-family="Arial,Arial_MSFontService,sans-serif" font-style="normal" font-variant="normal" font-weight="400" font-stretch="normal" font-size="11" text-anchor="start" direction="ltr" writing-mode="lr-tb" unicode-bidi="normal" text-decoration="none" transform="matrix(0.810773 0 0 0.809264 410.154 274)">50</text><text fill="#000000" fill-opacity="1" font-family="Arial,Arial_MSFontService,sans-serif" font-style="normal" font-variant="normal" font-weight="400" font-stretch="normal" font-size="11" text-anchor="start" direction="ltr" writing-mode="lr-tb" unicode-bidi="normal" text-decoration="none" transform="matrix(0.810773 0 0 0.809264 487.096 274)">100</text><text fill="#000000" fill-opacity="1" font-family="Arial,Arial_MSFontService,sans-serif" font-style="normal" font-variant="normal" font-weight="400" font-stretch="normal" font-size="11" text-anchor="start" direction="ltr" writing-mode="lr-tb" unicode-bidi="normal" text-decoration="none" transform="matrix(0.810773 0 0 0.809264 566.52 274)">150</text><path d="M1727.37 320.064 1807.49 320.064 1807.49 335.44 1727.37 335.44Z" stroke="#000000" stroke-width="0.606948" stroke-linecap="butt" stroke-linejoin="round" stroke-miterlimit="10" stroke-opacity="1" fill="none" fill-rule="nonzero" transform="matrix(1.00186 0 0 1 -1240.48 -305.902)"/><path d="M1742.75 325.729 1745.18 330.584 1740.32 330.584Z" stroke="#000000" stroke-width="0.606948" stroke-linecap="butt" stroke-linejoin="round" stroke-miterlimit="10" stroke-opacity="1" fill="#D1D1D1" fill-rule="nonzero" fill-opacity="1" transform="matrix(1.00186 0 0 1 -1240.48 -305.902)"/><text fill="#000000" fill-opacity="1" font-family="Arial,Arial_MSFontService,sans-serif" font-style="normal" font-variant="normal" font-weight="400" font-stretch="normal" font-size="11" text-anchor="start" direction="ltr" writing-mode="lr-tb" unicode-bidi="normal" text-decoration="none" transform="matrix(0.810773 0 0 0.809264 509.231 25)">Li et al., 2022</text><text fill="#000000" fill-opacity="1" font-family="Arial,Arial_MSFontService,sans-serif" font-style="normal" font-variant="normal" font-weight="400" font-stretch="normal" font-size="11" text-anchor="start" direction="ltr" writing-mode="lr-tb" unicode-bidi="normal" text-decoration="none" transform="matrix(0.810773 0 0 0.809264 378.623 291)">Mean effective principals stress </text><text fill="#000000" fill-opacity="1" font-family="Cambria Math,Cambria Math_MSFontService,sans-serif" font-style="normal" font-variant="normal" font-weight="400" font-stretch="normal" font-size="11" text-anchor="start" direction="ltr" writing-mode="lr-tb" unicode-bidi="normal" text-decoration="none" transform="matrix(0.810773 0 0 0.809264 505.542 291)">𝑝</text><text fill="#000000" fill-opacity="1" font-family="Cambria Math,Cambria Math_MSFontService,sans-serif" font-style="normal" font-variant="normal" font-weight="400" font-stretch="normal" font-size="11" text-anchor="start" direction="ltr" writing-mode="lr-tb" unicode-bidi="normal" text-decoration="none" transform="matrix(0.810773 0 0 0.809264 510.512 291)">′</text><text fill="#000000" fill-opacity="1" font-family="Arial,Arial_MSFontService,sans-serif" font-style="normal" font-variant="normal" font-weight="400" font-stretch="normal" font-size="11" text-anchor="start" direction="ltr" writing-mode="lr-tb" unicode-bidi="normal" text-decoration="none" transform="matrix(0.810773 0 0 0.809264 512.814 291)">: kPa</text><text fill="#000000" fill-opacity="1" font-family="Arial,Arial_MSFontService,sans-serif" font-style="normal" font-variant="normal" font-weight="400" font-stretch="normal" font-size="11" text-anchor="start" direction="ltr" writing-mode="lr-tb" unicode-bidi="normal" text-decoration="none" transform="matrix(-1.48937e-16 -0.809264 0.810773 -1.48659e-16 308.094 178)">Deviator stress </text><text fill="#000000" fill-opacity="1" font-family="Cambria Math,Cambria Math_MSFontService,sans-serif" font-style="normal" font-variant="normal" font-weight="400" font-stretch="normal" font-size="11" text-anchor="start" direction="ltr" writing-mode="lr-tb" unicode-bidi="normal" text-decoration="none" transform="matrix(-1.48937e-16 -0.809264 0.810773 -1.48659e-16 308.094 117)">𝑞</text><text fill="#000000" fill-opacity="1" font-family="Arial,Arial_MSFontService,sans-serif" font-style="normal" font-variant="normal" font-weight="400" font-stretch="normal" font-size="11" text-anchor="start" direction="ltr" writing-mode="lr-tb" unicode-bidi="normal" text-decoration="none" transform="matrix(-1.48937e-16 -0.809264 0.810773 -1.48659e-16 308.094 111)">: kPa</text><text fill="#000000" fill-opacity="1" font-family="Arial,Arial_MSFontService,sans-serif" font-style="normal" font-variant="normal" font-weight="400" font-stretch="normal" font-size="11" text-anchor="start" direction="ltr" writing-mode="lr-tb" unicode-bidi="normal" text-decoration="none" transform="matrix(0.810773 0 0 0.809264 349.208 23)">(b)</text><path d="M1734.43 565.499 1665.06 315.208" stroke="#000000" stroke-width="0.809264" stroke-linecap="butt" stroke-linejoin="miter" stroke-miterlimit="8" stroke-dasharray="3.23706 2.42779" stroke-opacity="1" fill="none" fill-rule="evenodd" transform="matrix(1.00186 0 0 1 -1240.48 -305.902)"/><path d="M1696.4 565.499 1627.03 315.208" stroke="#000000" stroke-width="0.809264" stroke-linecap="butt" stroke-linejoin="miter" stroke-miterlimit="8" stroke-dasharray="3.23706 2.42779" stroke-opacity="1" fill="none" fill-rule="evenodd" transform="matrix(1.00186 0 0 1 -1240.48 -305.902)"/><path d="M1654.43 565.354 1593.85 346.77" stroke="#000000" stroke-width="0.809264" stroke-linecap="butt" stroke-linejoin="miter" stroke-miterlimit="8" stroke-dasharray="3.23706 2.42779" stroke-opacity="1" fill="none" fill-rule="evenodd" transform="matrix(1.00186 0 0 1 -1240.48 -305.902)"/><path d="M1618.52 565.595 1572 397.753" stroke="#000000" stroke-width="0.809264" stroke-linecap="butt" stroke-linejoin="miter" stroke-miterlimit="8" stroke-dasharray="3.23706 2.42779" stroke-opacity="1" fill="none" fill-rule="evenodd" transform="matrix(1.00186 0 0 1 -1240.48 -305.902)"/><text fill="#000000" fill-opacity="1" font-family="Cambria Math,Cambria Math_MSFontService,sans-serif" font-style="normal" font-variant="normal" font-weight="400" font-stretch="normal" font-size="11" text-anchor="start" direction="ltr" writing-mode="lr-tb" unicode-bidi="normal" text-decoration="none" transform="matrix(0.810773 0 0 0.809264 521.733 48)">𝐿</text><text fill="#000000" fill-opacity="1" font-family="Cambria Math,Cambria Math_MSFontService,sans-serif" font-style="normal" font-variant="normal" font-weight="400" font-stretch="normal" font-size="8" text-anchor="start" direction="ltr" writing-mode="lr-tb" unicode-bidi="normal" text-decoration="none" transform="matrix(0.810773 0 0 0.809264 526.265 49)">𝑖𝑔</text><text fill="#000000" fill-opacity="1" font-family="Cambria Math,Cambria Math_MSFontService,sans-serif" font-style="normal" font-variant="normal" font-weight="400" font-stretch="normal" font-size="11" text-anchor="start" direction="ltr" writing-mode="lr-tb" unicode-bidi="normal" text-decoration="none" transform="matrix(0.810773 0 0 0.809264 535.362 48)">=</text><text fill="#000000" fill-opacity="1" font-family="Arial,Arial_MSFontService,sans-serif" font-style="normal" font-variant="normal" font-weight="400" font-stretch="normal" font-size="11" text-anchor="start" direction="ltr" writing-mode="lr-tb" unicode-bidi="normal" text-decoration="none" transform="matrix(0.810773 0 0 0.809264 544.086 48)">30%</text><path d="M1238.17 305.902 1529.51 305.902 1529.51 602.093 1238.17 602.093Z" fill="#FFFFFF" fill-rule="nonzero" fill-opacity="1" transform="matrix(1.00186 0 0 1 -1240.48 -305.902)"/><path d="M1283.09 342.723 1283.09 593.595" stroke="#000000" stroke-width="0.606948" stroke-linecap="butt" stroke-linejoin="round" stroke-miterlimit="10" stroke-opacity="1" fill="none" fill-rule="evenodd" transform="matrix(1.00186 0 0 1 -1240.48 -305.902)"/><path d="M1283.09 342.723 1285.52 342.723M1283.09 349.198 1285.52 349.198M1283.09 355.672 1285.52 355.672M1283.09 362.146 1285.52 362.146M1283.09 367.811 1285.52 367.811M1283.09 374.285 1285.52 374.285M1283.09 380.759 1285.52 380.759M1283.09 387.233 1285.52 387.233M1283.09 392.898 1285.52 392.898M1283.09 399.372 1285.52 399.372M1283.09 405.846 1285.52 405.846M1283.09 411.511 1285.52 411.511M1283.09 417.985 1285.52 417.985M1283.09 424.459 1285.52 424.459M1283.09 430.933 1285.52 430.933M1283.09 436.598 1285.52 436.598M1283.09 443.072 1285.52 443.072M1283.09 449.546 1285.52 449.546M1283.09 456.02 1285.52 456.02M1283.09 461.685 1285.52 461.685M1283.09 468.159 1285.52 468.159M1283.09 474.634 1285.52 474.634M1283.09 480.298 1285.52 480.298M1283.09 486.772 1285.52 486.772M1283.09 493.247 1285.52 493.247M1283.09 499.721 1285.52 499.721M1283.09 505.386 1285.52 505.386M1283.09 511.86 1285.52 511.86M1283.09 518.334 1285.52 518.334M1283.09 524.808 1285.52 524.808M1283.09 530.473 1285.52 530.473M1283.09 536.947 1285.52 536.947M1283.09 543.421 1285.52 543.421M1283.09 549.895 1285.52 549.895M1283.09 555.56 1285.52 555.56M1283.09 562.034 1285.52 562.034M1283.09 568.508 1285.52 568.508M1283.09 574.173 1285.52 574.173M1283.09 580.647 1285.52 580.647M1283.09 587.121 1285.52 587.121M1283.09 593.595 1285.52 593.595M1283.09 342.723 1285.52 342.723M1283.09 374.285 1285.52 374.285M1283.09 405.846 1285.52 405.846M1283.09 436.598 1285.52 436.598M1283.09 468.159 1285.52 468.159M1283.09 499.721 1285.52 499.721M1283.09 530.473 1285.52 530.473M1283.09 562.034 1285.52 562.034M1283.09 593.595 1285.52 593.595" stroke="#000000" stroke-width="0.606948" stroke-linecap="butt" stroke-linejoin="round" stroke-miterlimit="10" stroke-opacity="1" fill="none" fill-rule="nonzero" transform="matrix(1.00186 0 0 1 -1240.48 -305.902)"/><path d="M1283.09 342.723 1512.92 342.723" stroke="#000000" stroke-width="0.606948" stroke-linecap="butt" stroke-linejoin="round" stroke-miterlimit="10" stroke-opacity="1" fill="none" fill-rule="evenodd" transform="matrix(1.00186 0 0 1 -1240.48 -305.902)"/><path d="M1283.09 342.723 1283.09 345.151M1352.69 342.723 1352.69 345.151M1392.34 342.723 1392.34 345.151M1421.47 342.723 1421.47 345.151M1443.32 342.723 1443.32 345.151M1461.94 342.723 1461.94 345.151M1477.31 342.723 1477.31 345.151M1490.26 342.723 1490.26 345.151M1502.4 342.723 1502.4 345.151M1512.92 342.723 1512.92 345.151M1283.09 342.723 1283.09 345.96M1512.92 342.723 1512.92 345.96" stroke="#000000" stroke-width="0.606948" stroke-linecap="butt" stroke-linejoin="round" stroke-miterlimit="10" stroke-opacity="1" fill="none" fill-rule="nonzero" transform="matrix(1.00186 0 0 1 -1240.48 -305.902)"/><path d="M1299.85 541.051 1302.28 545.907 1297.42 545.907Z" stroke="#000000" stroke-width="0.606948" stroke-linecap="butt" stroke-linejoin="round" stroke-miterlimit="10" stroke-opacity="1" fill="#E8E8E8" fill-rule="nonzero" fill-opacity="1" transform="matrix(1.00186 0 0 1 -1240.48 -305.902)"/><path d="M1439.85 465.79 1442.28 470.645 1437.42 470.645Z" stroke="#000000" stroke-width="0.606948" stroke-linecap="butt" stroke-linejoin="round" stroke-miterlimit="10" stroke-opacity="1" fill="#E8E8E8" fill-rule="nonzero" fill-opacity="1" transform="matrix(1.00186 0 0 1 -1240.48 -305.902)"/><path d="M1497.31 465.79 1499.74 470.645 1494.88 470.645Z" stroke="#000000" stroke-width="0.606948" stroke-linecap="butt" stroke-linejoin="round" stroke-miterlimit="10" stroke-opacity="1" fill="#E8E8E8" fill-rule="nonzero" fill-opacity="1" transform="matrix(1.00186 0 0 1 -1240.48 -305.902)"/><path d="M1342.74 504.635C1342.74 505.976 1341.65 507.062 1340.31 507.062 1338.97 507.062 1337.88 505.976 1337.88 504.635 1337.88 503.294 1338.97 502.207 1340.31 502.207 1341.65 502.207 1342.74 503.294 1342.74 504.635Z" stroke="#000000" stroke-width="0.606948" stroke-linecap="butt" stroke-linejoin="round" stroke-miterlimit="10" stroke-opacity="1" fill="#AEAEAE" fill-rule="nonzero" fill-opacity="1" transform="matrix(1.00186 0 0 1 -1240.48 -305.902)"/><path d="M1431.76 455.269C1431.76 456.61 1430.67 457.697 1429.33 457.697 1427.99 457.697 1426.9 456.61 1426.9 455.269 1426.9 453.928 1427.99 452.842 1429.33 452.842 1430.67 452.842 1431.76 453.928 1431.76 455.269Z" stroke="#000000" stroke-width="0.606948" stroke-linecap="butt" stroke-linejoin="round" stroke-miterlimit="10" stroke-opacity="1" fill="#AEAEAE" fill-rule="nonzero" fill-opacity="1" transform="matrix(1.00186 0 0 1 -1240.48 -305.902)"/><path d="M1342.74 498.97C1342.74 500.311 1341.65 501.398 1340.31 501.398 1338.97 501.398 1337.88 500.311 1337.88 498.97 1337.88 497.629 1338.97 496.542 1340.31 496.542 1341.65 496.542 1342.74 497.629 1342.74 498.97Z" stroke="#000000" stroke-width="0.606948" stroke-linecap="butt" stroke-linejoin="round" stroke-miterlimit="10" stroke-opacity="1" fill="#AEAEAE" fill-rule="nonzero" fill-opacity="1" transform="matrix(1.00186 0 0 1 -1240.48 -305.902)"/><path d="M1342.74 498.97C1342.74 500.311 1341.65 501.398 1340.31 501.398 1338.97 501.398 1337.88 500.311 1337.88 498.97 1337.88 497.629 1338.97 496.542 1340.31 496.542 1341.65 496.542 1342.74 497.629 1342.74 498.97Z" stroke="#000000" stroke-width="0.606948" stroke-linecap="butt" stroke-linejoin="round" stroke-miterlimit="10" stroke-opacity="1" fill="#AEAEAE" fill-rule="nonzero" fill-opacity="1" transform="matrix(1.00186 0 0 1 -1240.48 -305.902)"/><path d="M1342.74 498.97C1342.74 500.311 1341.65 501.398 1340.31 501.398 1338.97 501.398 1337.88 500.311 1337.88 498.97 1337.88 497.629 1338.97 496.542 1340.31 496.542 1341.65 496.542 1342.74 497.629 1342.74 498.97Z" stroke="#000000" stroke-width="0.606948" stroke-linecap="butt" stroke-linejoin="round" stroke-miterlimit="10" stroke-opacity="1" fill="#AEAEAE" fill-rule="nonzero" fill-opacity="1" transform="matrix(1.00186 0 0 1 -1240.48 -305.902)"/><path d="M1342.74 498.97C1342.74 500.311 1341.65 501.398 1340.31 501.398 1338.97 501.398 1337.88 500.311 1337.88 498.97 1337.88 497.629 1338.97 496.542 1340.31 496.542 1341.65 496.542 1342.74 497.629 1342.74 498.97Z" stroke="#000000" stroke-width="0.606948" stroke-linecap="butt" stroke-linejoin="round" stroke-miterlimit="10" stroke-opacity="1" fill="#AEAEAE" fill-rule="nonzero" fill-opacity="1" transform="matrix(1.00186 0 0 1 -1240.48 -305.902)"/><path d="M1469.79 371.915 1472.22 374.343 1469.79 376.771 1467.37 374.343Z" stroke="#000000" stroke-width="0.606948" stroke-linecap="butt" stroke-linejoin="round" stroke-miterlimit="10" stroke-opacity="1" fill="#7F7F7F" fill-rule="nonzero" fill-opacity="1" transform="matrix(1.00186 0 0 1 -1240.48 -305.902)"/><path d="M1299.8 518.047 1300.61 517.238C1300.68 517.163 1300.79 517.12 1300.89 517.12L1301.7 517.12 1302.18 517.12C1302.4 517.12 1302.58 517.301 1302.58 517.525 1302.58 517.748 1302.4 517.929 1302.18 517.929L1301.7 517.929 1300.89 517.929 1301.18 517.811 1300.37 518.62C1300.21 518.778 1299.95 518.778 1299.8 518.62 1299.64 518.462 1299.64 518.206 1299.8 518.047ZM1305.08 516.311 1305.75 516.311 1305.46 516.429 1306.27 515.62C1306.35 515.544 1306.45 515.501 1306.56 515.501L1307.17 515.501C1307.39 515.501 1307.58 515.683 1307.58 515.906 1307.58 516.129 1307.39 516.311 1307.17 516.311L1306.56 516.311 1306.84 516.193 1306.03 517.002C1305.96 517.077 1305.85 517.12 1305.75 517.12L1305.08 517.12C1304.86 517.12 1304.67 516.939 1304.67 516.715 1304.67 516.492 1304.86 516.311 1305.08 516.311ZM1309.6 514.692 1309.79 514.692 1310.6 514.692 1311.41 514.692 1311.01 515.097 1311.01 514.484C1311.01 514.26 1311.19 514.079 1311.41 514.079 1311.64 514.079 1311.82 514.26 1311.82 514.484L1311.82 515.097C1311.82 515.32 1311.64 515.501 1311.41 515.501L1310.6 515.501 1309.79 515.501 1309.6 515.501C1309.37 515.501 1309.2 515.32 1309.2 515.097 1309.2 514.873 1309.37 514.692 1309.6 514.692ZM1313.99 513.568 1314.37 513.192C1314.44 513.116 1314.54 513.074 1314.65 513.074L1315.46 513.074 1316.27 513.074 1315.99 513.192 1316.18 512.996C1316.33 512.838 1316.59 512.838 1316.75 512.996 1316.91 513.154 1316.91 513.41 1316.75 513.568L1316.55 513.765C1316.48 513.84 1316.37 513.883 1316.27 513.883L1315.46 513.883 1314.65 513.883 1314.93 513.765 1314.56 514.14C1314.4 514.298 1314.15 514.298 1313.99 514.14 1313.83 513.982 1313.83 513.726 1313.99 513.568ZM1319.45 512.264 1319.51 512.264 1319.22 512.382 1320.03 511.573C1320.1 511.498 1320.21 511.455 1320.31 511.455L1321.12 511.455 1321.54 511.455C1321.76 511.455 1321.94 511.636 1321.94 511.86 1321.94 512.083 1321.76 512.264 1321.54 512.264L1321.12 512.264 1320.31 512.264 1320.6 512.146 1319.79 512.955C1319.72 513.031 1319.61 513.074 1319.51 513.074L1319.45 513.074C1319.22 513.074 1319.04 512.892 1319.04 512.669 1319.04 512.446 1319.22 512.264 1319.45 512.264ZM1324.44 510.646 1325.17 510.646 1324.77 511.05 1324.77 510.241C1324.77 510.018 1324.94 509.837 1325.17 509.837L1325.98 509.837 1326.06 509.837C1326.29 509.837 1326.47 510.018 1326.47 510.241 1326.47 510.465 1326.29 510.646 1326.06 510.646L1325.98 510.646 1325.17 510.646 1325.57 510.241 1325.57 511.05C1325.57 511.274 1325.4 511.455 1325.17 511.455L1324.44 511.455C1324.22 511.455 1324.04 511.274 1324.04 511.05 1324.04 510.827 1324.22 510.646 1324.44 510.646ZM1328.49 509.027 1329.22 509.027 1330.03 509.027 1330.84 509.027 1330.43 509.432 1330.43 509.35C1330.43 509.127 1330.61 508.945 1330.84 508.945 1331.06 508.945 1331.24 509.127 1331.24 509.35L1331.24 509.432C1331.24 509.655 1331.06 509.837 1330.84 509.837L1330.03 509.837 1329.22 509.837 1328.49 509.837C1328.26 509.837 1328.08 509.655 1328.08 509.432 1328.08 509.209 1328.26 509.027 1328.49 509.027ZM1333.04 508.279 1333.79 507.527C1333.86 507.452 1333.97 507.409 1334.07 507.409L1334.88 507.409 1335.44 507.409C1335.66 507.409 1335.84 507.59 1335.84 507.813 1335.84 508.037 1335.66 508.218 1335.44 508.218L1334.88 508.218 1334.07 508.218 1334.36 508.1 1333.6 508.851C1333.45 509.009 1333.19 509.009 1333.04 508.851 1332.87 508.693 1332.87 508.437 1333.04 508.279ZM1337.99 506.562 1338.64 505.908C1338.72 505.833 1338.82 505.79 1338.93 505.79L1339.74 505.79 1340.43 505.79C1340.65 505.79 1340.84 505.971 1340.84 506.195 1340.84 506.418 1340.65 506.599 1340.43 506.599L1339.74 506.599 1338.93 506.599 1339.21 506.481 1338.56 507.134C1338.4 507.292 1338.14 507.292 1337.99 507.134 1337.83 506.977 1337.83 506.72 1337.99 506.562ZM1343.33 504.981 1343.78 504.981 1344.59 504.981 1344.19 505.386 1344.19 504.576C1344.19 504.353 1344.37 504.172 1344.59 504.172L1344.95 504.172C1345.18 504.172 1345.35 504.353 1345.35 504.576 1345.35 504.8 1345.18 504.981 1344.95 504.981L1344.59 504.981 1345 504.576 1345 505.386C1345 505.609 1344.82 505.79 1344.59 505.79L1343.78 505.79 1343.33 505.79C1343.11 505.79 1342.93 505.609 1342.93 505.386 1342.93 505.162 1343.11 504.981 1343.33 504.981ZM1347.38 503.362 1347.83 503.362 1348.64 503.362 1349.45 503.362 1349.17 503.481 1349.42 503.227C1349.58 503.069 1349.83 503.069 1349.99 503.227 1350.14 503.385 1350.14 503.642 1349.99 503.799L1349.73 504.053C1349.66 504.129 1349.55 504.172 1349.45 504.172L1348.64 504.172 1347.83 504.172 1347.38 504.172C1347.16 504.172 1346.97 503.99 1346.97 503.767 1346.97 503.544 1347.16 503.362 1347.38 503.362ZM1352.42 502.655 1353.21 501.862C1353.28 501.787 1353.39 501.744 1353.49 501.744L1354.3 501.744 1354.81 501.744C1355.02 501.744 1355.21 501.925 1355.21 502.148 1355.21 502.372 1355.02 502.553 1354.81 502.553L1354.3 502.553 1353.49 502.553 1353.78 502.435 1352.98 503.227C1352.83 503.385 1352.57 503.385 1352.42 503.227 1352.26 503.069 1352.26 502.813 1352.42 502.655ZM1357.37 500.938 1358.07 500.243C1358.14 500.168 1358.24 500.125 1358.35 500.125L1359.16 500.125 1359.8 500.125C1360.02 500.125 1360.2 500.307 1360.2 500.53 1360.2 500.753 1360.02 500.935 1359.8 500.935L1359.16 500.935 1358.35 500.935 1358.63 500.816 1357.95 501.51C1357.78 501.669 1357.52 501.669 1357.37 501.51 1357.21 501.352 1357.21 501.096 1357.37 500.938ZM1362.23 499.316 1362.4 499.316 1363.21 499.316 1362.92 499.434 1363.73 498.625C1363.8 498.55 1363.91 498.507 1364.02 498.507L1364.31 498.507C1364.54 498.507 1364.72 498.688 1364.72 498.911 1364.72 499.135 1364.54 499.316 1364.31 499.316L1364.02 499.316 1364.3 499.198 1363.49 500.007C1363.42 500.082 1363.31 500.125 1363.21 500.125L1362.4 500.125 1362.23 500.125C1362 500.125 1361.82 499.944 1361.82 499.721 1361.82 499.497 1362 499.316 1362.23 499.316ZM1366.74 497.698 1367.25 497.698 1368.06 497.698 1368.87 497.698 1368.59 497.816 1368.8 497.603C1368.96 497.445 1369.21 497.445 1369.37 497.603 1369.53 497.761 1369.53 498.017 1369.37 498.175L1369.15 498.389C1369.08 498.464 1368.98 498.507 1368.87 498.507L1368.06 498.507 1367.25 498.507 1366.74 498.507C1366.52 498.507 1366.34 498.326 1366.34 498.102 1366.34 497.879 1366.52 497.698 1366.74 497.698ZM1371.56 496.459 1371.82 496.197C1371.9 496.122 1372 496.079 1372.11 496.079L1372.92 496.079 1373.73 496.079 1374.16 496.079C1374.39 496.079 1374.57 496.26 1374.57 496.484 1374.57 496.707 1374.39 496.888 1374.16 496.888L1373.73 496.888 1372.92 496.888 1372.11 496.888 1372.39 496.77 1372.13 497.031C1371.98 497.189 1371.72 497.189 1371.56 497.031 1371.4 496.873 1371.4 496.616 1371.56 496.459ZM1376.75 495.314 1377.49 494.579C1377.56 494.503 1377.67 494.46 1377.77 494.46L1378.58 494.46 1379.16 494.46C1379.38 494.46 1379.57 494.642 1379.57 494.865 1379.57 495.088 1379.38 495.27 1379.16 495.27L1378.58 495.27 1377.77 495.27 1378.06 495.152 1377.33 495.886C1377.17 496.044 1376.91 496.044 1376.75 495.886 1376.59 495.728 1376.59 495.472 1376.75 495.314ZM1381.59 493.651 1381.82 493.651 1382.63 493.651 1382.22 494.056 1382.22 493.247C1382.22 493.023 1382.4 492.842 1382.63 492.842L1383.21 492.842C1383.43 492.842 1383.62 493.023 1383.62 493.247 1383.62 493.47 1383.43 493.651 1383.21 493.651L1382.63 493.651 1383.03 493.247 1383.03 494.056C1383.03 494.279 1382.85 494.46 1382.63 494.46L1381.82 494.46 1381.59 494.46C1381.37 494.46 1381.19 494.279 1381.19 494.056 1381.19 493.832 1381.37 493.651 1381.59 493.651ZM1385.46 492.667 1385.46 492.437C1385.46 492.214 1385.64 492.033 1385.87 492.033L1386.67 492.033 1387.48 492.033 1388.07 492.033C1388.28 492.033 1388.47 492.214 1388.47 492.437 1388.47 492.661 1388.28 492.842 1388.07 492.842L1387.48 492.842 1386.67 492.842 1385.87 492.842 1386.27 492.437 1386.27 492.667C1386.27 492.891 1386.09 493.072 1385.87 493.072 1385.64 493.072 1385.46 492.891 1385.46 492.667ZM1390.61 491.169 1391.25 490.532C1391.32 490.457 1391.42 490.414 1391.53 490.414L1392.34 490.414 1393.06 490.414C1393.28 490.414 1393.46 490.595 1393.46 490.819 1393.46 491.042 1393.28 491.223 1393.06 491.223L1392.34 491.223 1391.53 491.223 1391.81 491.105 1391.18 491.741C1391.02 491.9 1390.76 491.9 1390.61 491.741 1390.45 491.584 1390.45 491.327 1390.61 491.169ZM1395.96 489.605 1396.39 489.605 1396.1 489.723 1396.91 488.914C1396.98 488.839 1397.09 488.796 1397.19 488.796L1398 488.796 1398.05 488.796C1398.27 488.796 1398.46 488.977 1398.46 489.2 1398.46 489.424 1398.27 489.605 1398.05 489.605L1398 489.605 1397.19 489.605 1397.48 489.487 1396.67 490.296C1396.6 490.371 1396.49 490.414 1396.39 490.414L1395.96 490.414C1395.74 490.414 1395.55 490.233 1395.55 490.01 1395.55 489.786 1395.74 489.605 1395.96 489.605ZM1400.95 487.986 1401.24 487.986 1402.05 487.986 1401.65 488.391 1401.65 487.582C1401.65 487.358 1401.82 487.177 1402.05 487.177L1402.57 487.177C1402.79 487.177 1402.97 487.358 1402.97 487.582 1402.97 487.805 1402.79 487.986 1402.57 487.986L1402.05 487.986 1402.46 487.582 1402.46 488.391C1402.46 488.614 1402.28 488.796 1402.05 488.796L1401.24 488.796 1400.95 488.796C1400.73 488.796 1400.55 488.614 1400.55 488.391 1400.55 488.168 1400.73 487.986 1400.95 487.986ZM1405.47 486.368 1406.1 486.368 1406.91 486.368 1407.72 486.368 1407.31 486.772 1407.31 486.586C1407.31 486.362 1407.49 486.182 1407.72 486.182 1407.94 486.182 1408.12 486.362 1408.12 486.586L1408.12 486.772C1408.12 486.996 1407.94 487.177 1407.72 487.177L1406.91 487.177 1406.1 487.177 1405.47 487.177C1405.25 487.177 1405.07 486.996 1405.07 486.772 1405.07 486.549 1405.25 486.368 1405.47 486.368ZM1409.99 485.546 1410.67 484.867C1410.74 484.792 1410.85 484.749 1410.95 484.749L1411.76 484.749 1412.43 484.749C1412.64 484.749 1412.83 484.931 1412.83 485.154 1412.83 485.377 1412.64 485.559 1412.43 485.559L1411.76 485.559 1410.95 485.559 1411.24 485.44 1410.56 486.118C1410.4 486.276 1410.14 486.276 1409.99 486.118 1409.83 485.959 1409.83 485.703 1409.99 485.546ZM1415.32 483.94 1415.81 483.94 1415.4 484.345 1415.4 483.535C1415.4 483.312 1415.58 483.131 1415.81 483.131L1416.62 483.131 1416.94 483.131C1417.17 483.131 1417.35 483.312 1417.35 483.535 1417.35 483.759 1417.17 483.94 1416.94 483.94L1416.62 483.94 1415.81 483.94 1416.21 483.535 1416.21 484.345C1416.21 484.568 1416.03 484.749 1415.81 484.749L1415.32 484.749C1415.1 484.749 1414.92 484.568 1414.92 484.345 1414.92 484.121 1415.1 483.94 1415.32 483.94ZM1419.85 482.322 1419.85 482.322 1420.66 482.322 1421.47 482.322 1421.07 482.726 1421.07 481.927C1421.07 481.703 1421.25 481.522 1421.47 481.522 1421.7 481.522 1421.88 481.703 1421.88 481.927L1421.88 482.726C1421.88 482.95 1421.7 483.131 1421.47 483.131L1420.66 483.131 1419.85 483.131 1419.85 483.131C1419.62 483.131 1419.44 482.95 1419.44 482.726 1419.44 482.503 1419.62 482.322 1419.85 482.322ZM1424.18 481.066 1424.43 480.821C1424.5 480.746 1424.6 480.703 1424.71 480.703L1425.52 480.703 1426.33 480.703 1426.05 480.821 1426.37 480.493C1426.53 480.336 1426.78 480.336 1426.94 480.493 1427.1 480.651 1427.1 480.908 1426.94 481.066L1426.61 481.394C1426.54 481.469 1426.43 481.512 1426.33 481.512L1425.52 481.512 1424.71 481.512 1424.99 481.394 1424.75 481.638C1424.6 481.795 1424.34 481.795 1424.18 481.638 1424.02 481.48 1424.02 481.223 1424.18 481.066ZM1429.37 479.921 1430.09 479.203C1430.16 479.127 1430.27 479.084 1430.37 479.084L1431.18 479.084 1431.79 479.084C1432.01 479.084 1432.2 479.266 1432.2 479.489 1432.2 479.712 1432.01 479.894 1431.79 479.894L1431.18 479.894 1430.37 479.894 1430.66 479.776 1429.95 480.493C1429.78 480.651 1429.52 480.651 1429.37 480.493 1429.21 480.336 1429.21 480.079 1429.37 479.921ZM1434.32 478.204 1434.95 477.584C1435.02 477.509 1435.12 477.466 1435.23 477.466L1436.04 477.466 1436.78 477.466C1437 477.466 1437.19 477.647 1437.19 477.871 1437.19 478.094 1437 478.275 1436.78 478.275L1436.04 478.275 1435.23 478.275 1435.51 478.157 1434.9 478.777C1434.74 478.935 1434.49 478.935 1434.32 478.777 1434.17 478.618 1434.17 478.363 1434.32 478.204ZM1439.21 476.657 1439.28 476.657 1440.09 476.657 1440.9 476.657 1440.49 477.061 1440.49 476.319C1440.49 476.096 1440.67 475.915 1440.9 475.915 1441.12 475.915 1441.3 476.096 1441.3 476.319L1441.3 477.061C1441.3 477.285 1441.12 477.466 1440.9 477.466L1440.09 477.466 1439.28 477.466 1439.21 477.466C1438.99 477.466 1438.81 477.285 1438.81 477.061 1438.81 476.838 1438.99 476.657 1439.21 476.657ZM1442.92 475.51 1442.92 475.443C1442.92 475.219 1443.1 475.038 1443.32 475.038L1444.13 475.038 1444.94 475.038 1445.69 475.038C1445.9 475.038 1446.09 475.219 1446.09 475.443 1446.09 475.666 1445.9 475.847 1445.69 475.847L1444.94 475.847 1444.13 475.847 1443.32 475.847 1443.73 475.443 1443.73 475.51C1443.73 475.733 1443.55 475.915 1443.32 475.915 1443.1 475.915 1442.92 475.733 1442.92 475.51ZM1448.18 474.06 1448.7 473.538C1448.78 473.462 1448.88 473.42 1448.99 473.42L1449.8 473.42 1450.61 473.42 1450.68 473.42C1450.9 473.42 1451.08 473.601 1451.08 473.824 1451.08 474.048 1450.9 474.229 1450.68 474.229L1450.61 474.229 1449.8 474.229 1448.99 474.229 1449.27 474.111 1448.75 474.632C1448.59 474.79 1448.34 474.79 1448.18 474.632 1448.02 474.474 1448.02 474.218 1448.18 474.06ZM1453.58 472.61 1453.84 472.61 1453.56 472.729 1454.37 471.919C1454.44 471.844 1454.55 471.801 1454.65 471.801L1455.46 471.801 1455.67 471.801C1455.9 471.801 1456.08 471.982 1456.08 472.206 1456.08 472.429 1455.9 472.61 1455.67 472.61L1455.46 472.61 1454.65 472.61 1454.94 472.492 1454.13 473.301C1454.05 473.377 1453.95 473.42 1453.84 473.42L1453.58 473.42C1453.36 473.42 1453.17 473.238 1453.17 473.015 1453.17 472.792 1453.36 472.61 1453.58 472.61ZM1458.1 470.992 1458.7 470.992 1459.51 470.992 1459.22 471.11 1459.95 470.39C1460.1 470.231 1460.36 470.231 1460.51 470.39 1460.67 470.548 1460.67 470.803 1460.51 470.962L1459.79 471.683C1459.72 471.758 1459.61 471.801 1459.51 471.801L1458.7 471.801 1458.1 471.801C1457.87 471.801 1457.7 471.62 1457.7 471.396 1457.7 471.173 1457.87 470.992 1458.1 470.992ZM1462.34 469.903 1462.34 469.778C1462.34 469.555 1462.52 469.373 1462.75 469.373L1463.55 469.373 1464.36 469.373 1465.05 469.373C1465.27 469.373 1465.46 469.555 1465.46 469.778 1465.46 470.001 1465.27 470.183 1465.05 470.183L1464.36 470.183 1463.55 470.183 1462.75 470.183 1463.15 469.778 1463.15 469.903C1463.15 470.126 1462.97 470.307 1462.75 470.307 1462.52 470.307 1462.34 470.126 1462.34 469.903ZM1467.56 468.435 1468.13 467.873C1468.2 467.798 1468.3 467.755 1468.41 467.755L1469.22 467.755 1470.03 467.755 1469.75 467.874 1469.75 467.863C1469.91 467.705 1470.17 467.705 1470.33 467.863 1470.48 468.021 1470.48 468.278 1470.33 468.435L1470.31 468.445C1470.24 468.521 1470.13 468.564 1470.03 468.564L1469.22 468.564 1468.41 468.564 1468.69 468.446 1468.14 469.007C1467.97 469.166 1467.72 469.166 1467.56 469.007 1467.41 468.85 1467.41 468.594 1467.56 468.435ZM1472.94 466.945 1473.27 466.945 1472.98 467.064 1473.79 466.254C1473.86 466.179 1473.97 466.136 1474.07 466.136L1474.88 466.136 1475.04 466.136C1475.26 466.136 1475.44 466.318 1475.44 466.541 1475.44 466.764 1475.26 466.945 1475.04 466.945L1474.88 466.945 1474.07 466.945 1474.36 466.827 1473.55 467.637C1473.48 467.712 1473.37 467.755 1473.27 467.755L1472.94 467.755C1472.72 467.755 1472.54 467.573 1472.54 467.35 1472.54 467.127 1472.72 466.945 1472.94 466.945ZM1477.47 465.327 1478.12 465.327 1478.93 465.327 1478.53 465.732 1478.53 464.922C1478.53 464.699 1478.7 464.518 1478.93 464.518L1479.08 464.518C1479.3 464.518 1479.49 464.699 1479.49 464.922 1479.49 465.146 1479.3 465.327 1479.08 465.327L1478.93 465.327 1479.34 464.922 1479.34 465.732C1479.34 465.955 1479.16 466.136 1478.93 466.136L1478.12 466.136 1477.47 466.136C1477.24 466.136 1477.06 465.955 1477.06 465.732 1477.06 465.508 1477.24 465.327 1477.47 465.327ZM1481.75 463.956 1481.88 463.827C1481.96 463.751 1482.06 463.708 1482.17 463.708L1482.98 463.708 1483.79 463.708 1484.41 463.708C1484.64 463.708 1484.81 463.89 1484.81 464.113 1484.81 464.336 1484.64 464.518 1484.41 464.518L1483.79 464.518 1482.98 464.518 1482.17 464.518 1482.45 464.4 1482.32 464.528C1482.17 464.686 1481.91 464.686 1481.75 464.528 1481.59 464.37 1481.59 464.114 1481.75 463.956ZM1486.94 462.812 1487.55 462.208C1487.62 462.133 1487.73 462.09 1487.83 462.09L1488.64 462.09 1489.41 462.09C1489.63 462.09 1489.82 462.271 1489.82 462.495 1489.82 462.718 1489.63 462.899 1489.41 462.899L1488.64 462.899 1487.83 462.899 1488.12 462.781 1487.52 463.384C1487.35 463.542 1487.1 463.542 1486.94 463.384 1486.79 463.225 1486.79 462.97 1486.94 462.812ZM1492.31 461.281 1492.69 461.281 1492.28 461.685 1492.28 460.876C1492.28 460.653 1492.46 460.471 1492.69 460.471L1493.5 460.471 1493.93 460.471C1494.15 460.471 1494.33 460.653 1494.33 460.876 1494.33 461.099 1494.15 461.281 1493.93 461.281L1493.5 461.281 1492.69 461.281 1493.09 460.876 1493.09 461.685C1493.09 461.909 1492.91 462.09 1492.69 462.09L1492.31 462.09C1492.09 462.09 1491.9 461.909 1491.9 461.685 1491.9 461.462 1492.09 461.281 1492.31 461.281ZM1496.35 459.662 1496.73 459.662 1497.54 459.662C1497.77 459.662 1497.95 459.843 1497.95 460.067 1497.95 460.29 1497.77 460.471 1497.54 460.471L1496.73 460.471 1496.35 460.471C1496.14 460.471 1495.95 460.29 1495.95 460.067 1495.95 459.843 1496.14 459.662 1496.35 459.662Z" fill="#000000" fill-rule="nonzero" fill-opacity="1" transform="matrix(1.00186 0 0 1 -1240.48 -305.902)"/><text fill="#000000" fill-opacity="1" font-family="Arial,Arial_MSFontService,sans-serif" font-style="normal" font-variant="normal" font-weight="400" font-stretch="normal" font-size="11" text-anchor="start" direction="ltr" writing-mode="lr-tb" unicode-bidi="normal" text-decoration="none" transform="matrix(0.810773 0 0 0.809264 19.6126 40)">-8.0</text><text fill="#000000" fill-opacity="1" font-family="Arial,Arial_MSFontService,sans-serif" font-style="normal" font-variant="normal" font-weight="400" font-stretch="normal" font-size="11" text-anchor="start" direction="ltr" writing-mode="lr-tb" unicode-bidi="normal" text-decoration="none" transform="matrix(0.810773 0 0 0.809264 19.6126 71)">-7.0</text><text fill="#000000" fill-opacity="1" font-family="Arial,Arial_MSFontService,sans-serif" font-style="normal" font-variant="normal" font-weight="400" font-stretch="normal" font-size="11" text-anchor="start" direction="ltr" writing-mode="lr-tb" unicode-bidi="normal" text-decoration="none" transform="matrix(0.810773 0 0 0.809264 19.6126 103)">-6.0</text><text fill="#000000" fill-opacity="1" font-family="Arial,Arial_MSFontService,sans-serif" font-style="normal" font-variant="normal" font-weight="400" font-stretch="normal" font-size="11" text-anchor="start" direction="ltr" writing-mode="lr-tb" unicode-bidi="normal" text-decoration="none" transform="matrix(0.810773 0 0 0.809264 19.6126 134)">-5.0</text><text fill="#000000" fill-opacity="1" font-family="Arial,Arial_MSFontService,sans-serif" font-style="normal" font-variant="normal" font-weight="400" font-stretch="normal" font-size="11" text-anchor="start" direction="ltr" writing-mode="lr-tb" unicode-bidi="normal" text-decoration="none" transform="matrix(0.810773 0 0 0.809264 19.6126 165)">-4.0</text><text fill="#000000" fill-opacity="1" font-family="Arial,Arial_MSFontService,sans-serif" font-style="normal" font-variant="normal" font-weight="400" font-stretch="normal" font-size="11" text-anchor="start" direction="ltr" writing-mode="lr-tb" unicode-bidi="normal" text-decoration="none" transform="matrix(0.810773 0 0 0.809264 19.6126 197)">-3.0</text><text fill="#000000" fill-opacity="1" font-family="Arial,Arial_MSFontService,sans-serif" font-style="normal" font-variant="normal" font-weight="400" font-stretch="normal" font-size="11" text-anchor="start" direction="ltr" writing-mode="lr-tb" unicode-bidi="normal" text-decoration="none" transform="matrix(0.810773 0 0 0.809264 19.6126 227)">-2.0</text><text fill="#000000" fill-opacity="1" font-family="Arial,Arial_MSFontService,sans-serif" font-style="normal" font-variant="normal" font-weight="400" font-stretch="normal" font-size="11" text-anchor="start" direction="ltr" writing-mode="lr-tb" unicode-bidi="normal" text-decoration="none" transform="matrix(0.810773 0 0 0.809264 19.6126 259)">-1.0</text><text fill="#000000" fill-opacity="1" font-family="Arial,Arial_MSFontService,sans-serif" font-style="normal" font-variant="normal" font-weight="400" font-stretch="normal" font-size="11" text-anchor="start" direction="ltr" writing-mode="lr-tb" unicode-bidi="normal" text-decoration="none" transform="matrix(0.810773 0 0 0.809264 22.58 290)">0.0</text><text fill="#000000" fill-opacity="1" font-family="Arial,Arial_MSFontService,sans-serif" font-style="normal" font-variant="normal" font-weight="400" font-stretch="normal" font-size="11" text-anchor="start" direction="ltr" writing-mode="lr-tb" unicode-bidi="normal" text-decoration="none" transform="matrix(0.810773 0 0 0.809264 37.6847 29)">100</text><text fill="#000000" fill-opacity="1" font-family="Arial,Arial_MSFontService,sans-serif" font-style="normal" font-variant="normal" font-weight="400" font-stretch="normal" font-size="11" text-anchor="start" direction="ltr" writing-mode="lr-tb" unicode-bidi="normal" text-decoration="none" transform="matrix(0.810773 0 0 0.809264 265.082 29)">1000</text><path d="M1292.8 553.941 1423.9 553.941 1423.9 591.977 1292.8 591.977Z" stroke="#000000" stroke-width="0.606948" stroke-linecap="butt" stroke-linejoin="round" stroke-miterlimit="10" stroke-opacity="1" fill="none" fill-rule="nonzero" transform="matrix(1.00186 0 0 1 -1240.48 -305.902)"/><path d="M1310.6 557.988 1313.03 562.843 1308.18 562.843Z" stroke="#000000" stroke-width="0.606948" stroke-linecap="butt" stroke-linejoin="round" stroke-miterlimit="10" stroke-opacity="1" fill="#E8E8E8" fill-rule="nonzero" fill-opacity="1" transform="matrix(1.00186 0 0 1 -1240.48 -305.902)"/><text fill="#000000" fill-opacity="1" font-family="Arial,Arial_MSFontService,sans-serif" font-style="normal" font-variant="normal" font-weight="400" font-stretch="normal" font-size="11" text-anchor="start" direction="ltr" writing-mode="lr-tb" unicode-bidi="normal" text-decoration="none" transform="matrix(0.810773 0 0 0.809264 76.2938 257)">Yamaguchi et al., 1984</text><path d="M1312.63 573.364C1312.63 574.481 1311.72 575.387 1310.6 575.387 1309.49 575.387 1308.58 574.481 1308.58 573.364 1308.58 572.246 1309.49 571.341 1310.6 571.341 1311.72 571.341 1312.63 572.246 1312.63 573.364Z" stroke="#000000" stroke-width="0.606948" stroke-linecap="butt" stroke-linejoin="round" stroke-miterlimit="10" stroke-opacity="1" fill="#AEAEAE" fill-rule="nonzero" fill-opacity="1" transform="matrix(1.00186 0 0 1 -1240.48 -305.902)"/><text fill="#000000" fill-opacity="1" font-family="Arial,Arial_MSFontService,sans-serif" font-style="normal" font-variant="normal" font-weight="400" font-stretch="normal" font-size="11" text-anchor="start" direction="ltr" writing-mode="lr-tb" unicode-bidi="normal" text-decoration="none" transform="matrix(0.810773 0 0 0.809264 76.2938 270)">Li et al., 2022</text><path d="M1310.6 583.075 1313.03 585.503 1310.6 587.931 1308.18 585.503Z" stroke="#000000" stroke-width="0.606948" stroke-linecap="butt" stroke-linejoin="round" stroke-miterlimit="10" stroke-opacity="1" fill="#7F7F7F" fill-rule="nonzero" fill-opacity="1" transform="matrix(1.00186 0 0 1 -1240.48 -305.902)"/><text fill="#000000" fill-opacity="1" font-family="Arial,Arial_MSFontService,sans-serif" font-style="normal" font-variant="normal" font-weight="400" font-stretch="normal" font-size="11" text-anchor="start" direction="ltr" writing-mode="lr-tb" unicode-bidi="normal" text-decoration="none" transform="matrix(0.810773 0 0 0.809264 76.2938 282)">Muraro and Jommi, 2021</text><text fill="#000000" fill-opacity="1" font-family="Arial,Arial_MSFontService,sans-serif" font-style="normal" font-variant="normal" font-weight="400" font-stretch="normal" font-size="11" text-anchor="start" direction="ltr" writing-mode="lr-tb" unicode-bidi="normal" text-decoration="none" transform="matrix(0.810773 0 0 0.809264 120.594 15)">Ignition loss </text><text fill="#000000" fill-opacity="1" font-family="Cambria Math,Cambria Math_MSFontService,sans-serif" font-style="normal" font-variant="normal" font-weight="400" font-stretch="normal" font-size="11" text-anchor="start" direction="ltr" writing-mode="lr-tb" unicode-bidi="normal" text-decoration="none" transform="matrix(0.810773 0 0 0.809264 170.181 15)">𝐿</text><text fill="#000000" fill-opacity="1" font-family="Cambria Math,Cambria Math_MSFontService,sans-serif" font-style="normal" font-variant="normal" font-weight="400" font-stretch="normal" font-size="8" text-anchor="start" direction="ltr" writing-mode="lr-tb" unicode-bidi="normal" text-decoration="none" transform="matrix(0.810773 0 0 0.809264 174.924 16)">𝑖𝑔</text><text fill="#000000" fill-opacity="1" font-family="Arial,Arial_MSFontService,sans-serif" font-style="normal" font-variant="normal" font-weight="400" font-stretch="normal" font-size="11" text-anchor="start" direction="ltr" writing-mode="lr-tb" unicode-bidi="normal" text-decoration="none" transform="matrix(0.810773 0 0 0.809264 181.978 15)">: </text><text fill="#000000" fill-opacity="1" font-family="Arial,Arial_MSFontService,sans-serif" font-style="normal" font-variant="normal" font-weight="400" font-stretch="normal" font-size="11" text-anchor="start" direction="ltr" writing-mode="lr-tb" unicode-bidi="normal" text-decoration="none" transform="matrix(0.810773 0 0 0.809264 186.932 15)">%</text><text fill="#000000" fill-opacity="1" font-family="Cambria Math,Cambria Math_MSFontService,sans-serif" font-style="normal" font-variant="normal" font-weight="400" font-stretch="normal" font-size="11" text-anchor="start" direction="ltr" writing-mode="lr-tb" unicode-bidi="normal" text-decoration="none" transform="matrix(-1.48937e-16 -0.809264 0.810773 -1.48659e-16 13.2237 187)">𝛿𝑞</text><text fill="#000000" fill-opacity="1" font-family="Cambria Math,Cambria Math_MSFontService,sans-serif" font-style="normal" font-variant="normal" font-weight="400" font-stretch="normal" font-size="11" text-anchor="start" direction="ltr" writing-mode="lr-tb" unicode-bidi="normal" text-decoration="none" transform="matrix(-1.48937e-16 -0.809264 0.810773 -1.48659e-16 13.2237 172)">𝛿</text><text fill="#000000" fill-opacity="1" font-family="Cambria Math,Cambria Math_MSFontService,sans-serif" font-style="normal" font-variant="normal" font-weight="400" font-stretch="normal" font-size="11" text-anchor="start" direction="ltr" writing-mode="lr-tb" unicode-bidi="normal" text-decoration="none" transform="matrix(-1.48937e-16 -0.809264 0.810773 -1.48659e-16 13.2237 168)">𝑝</text><text fill="#000000" fill-opacity="1" font-family="Cambria Math,Cambria Math_MSFontService,sans-serif" font-style="normal" font-variant="normal" font-weight="400" font-stretch="normal" font-size="8" text-anchor="start" direction="ltr" writing-mode="lr-tb" unicode-bidi="normal" text-decoration="none" transform="matrix(-1.48937e-16 -0.809264 0.810773 -1.48659e-16 9.9563 162)">′</text><g><g><path d="M4.57266-6.22004 1.01712 1.86905 0.343384 1.86905 3.90762-6.22004Z" fill="#000000" fill-rule="nonzero" fill-opacity="1" transform="matrix(-1.8404e-16 -1 1.00186 -1.83697e-16 12.8589 177.229)"/></g></g><g><g><path d="M1.743 1.86905 1.07362 1.86905 1.07362-6.22004 1.743-6.22004Z" fill="#000000" fill-rule="nonzero" fill-opacity="1" transform="matrix(-1.8404e-16 -1 1.00186 -1.83697e-16 12.8589 159.425)"/></g></g><text fill="#000000" fill-opacity="1" font-family="Cambria Math,Cambria Math_MSFontService,sans-serif" font-style="normal" font-variant="normal" font-weight="400" font-stretch="normal" font-size="8" text-anchor="start" direction="ltr" writing-mode="lr-tb" unicode-bidi="normal" text-decoration="none" transform="matrix(-1.48937e-16 -0.809264 0.810773 -1.48659e-16 15.048 156)">𝑈𝑇𝐶</text><text fill="#000000" fill-opacity="1" font-family="Aptos Narrow,Aptos Narrow_MSFontService,sans-serif" font-style="normal" font-variant="normal" font-weight="400" font-stretch="semi-condensed" font-size="11" text-anchor="start" direction="ltr" writing-mode="lr-tb" unicode-bidi="normal" text-decoration="none" transform="matrix(-1.48937e-16 -0.809264 0.810773 -1.48659e-16 13.2237 143)"> </text><text fill="#000000" fill-opacity="1" font-family="Arial,Arial_MSFontService,sans-serif" font-style="normal" font-variant="normal" font-weight="400" font-stretch="normal" font-size="11" text-anchor="start" direction="ltr" writing-mode="lr-tb" unicode-bidi="normal" text-decoration="none" transform="matrix(0.810773 0 0 0.809264 79.4558 159)">Regression line</text><path d="M1470.03 362.955 1470.03 371.302" stroke="#000000" stroke-width="0.809264" stroke-linecap="square" stroke-linejoin="miter" stroke-miterlimit="8" stroke-dasharray="2.42779 0.809264" stroke-opacity="1" fill="none" fill-rule="evenodd" transform="matrix(1.00186 0 0 1 -1240.48 -305.902)"/><text fill="#000000" fill-opacity="1" font-family="Cambria Math,Cambria Math_MSFontService,sans-serif" font-style="normal" font-variant="normal" font-weight="400" font-stretch="normal" font-size="11" text-anchor="start" direction="ltr" writing-mode="lr-tb" unicode-bidi="normal" text-decoration="none" transform="matrix(0.810773 0 0 0.809264 143.41 206)">𝛿𝑞</text><text fill="#000000" fill-opacity="1" font-family="Cambria Math,Cambria Math_MSFontService,sans-serif" font-style="normal" font-variant="normal" font-weight="400" font-stretch="normal" font-size="11" text-anchor="start" direction="ltr" writing-mode="lr-tb" unicode-bidi="normal" text-decoration="none" transform="matrix(0.810773 0 0 0.809264 141.845 219)">𝛿</text><text fill="#000000" fill-opacity="1" font-family="Cambria Math,Cambria Math_MSFontService,sans-serif" font-style="normal" font-variant="normal" font-weight="400" font-stretch="normal" font-size="11" text-anchor="start" direction="ltr" writing-mode="lr-tb" unicode-bidi="normal" text-decoration="none" transform="matrix(0.810773 0 0 0.809264 146.985 219)">𝑝</text><text fill="#000000" fill-opacity="1" font-family="Cambria Math,Cambria Math_MSFontService,sans-serif" font-style="normal" font-variant="normal" font-weight="400" font-stretch="normal" font-size="8" text-anchor="start" direction="ltr" writing-mode="lr-tb" unicode-bidi="normal" text-decoration="none" transform="matrix(0.810773 0 0 0.809264 152.158 216)">′</text><path d="M1379.58 515.928 1392.53 515.928 1392.53 516.737 1379.58 516.737Z" fill="#000000" fill-rule="evenodd" fill-opacity="1" transform="matrix(1.00186 0 0 1 -1240.48 -305.902)"/><g><g><path d="M1.85602 8.68891 1.07362 8.68891 1.07362-13.7745 1.85602-13.7745Z" fill="#000000" fill-rule="nonzero" fill-opacity="1" transform="matrix(1.00186 0 0 1 154.842 212.837)"/></g></g><text fill="#000000" fill-opacity="1" font-family="Cambria Math,Cambria Math_MSFontService,sans-serif" font-style="normal" font-variant="normal" font-weight="400" font-stretch="normal" font-size="8" text-anchor="start" direction="ltr" writing-mode="lr-tb" unicode-bidi="normal" text-decoration="none" transform="matrix(0.810773 0 0 0.809264 157.777 223)">𝑈𝑇𝐶</text><text fill="#000000" fill-opacity="1" font-family="Aptos Narrow,Aptos Narrow_MSFontService,sans-serif" font-style="normal" font-variant="normal" font-weight="400" font-stretch="semi-condensed" font-size="10" text-anchor="start" direction="ltr" writing-mode="lr-tb" unicode-bidi="normal" text-decoration="none" transform="matrix(0.810773 0 0 0.809264 172.573 213)"> </text><text fill="#000000" fill-opacity="1" font-family="Cambria Math,Cambria Math_MSFontService,sans-serif" font-style="normal" font-variant="normal" font-weight="400" font-stretch="normal" font-size="10" text-anchor="start" direction="ltr" writing-mode="lr-tb" unicode-bidi="normal" text-decoration="none" transform="matrix(0.810773 0 0 0.809264 176.343 213)">=</text><text fill="#000000" fill-opacity="1" font-family="Cambria Math,Cambria Math_MSFontService,sans-serif" font-style="normal" font-variant="normal" font-weight="400" font-stretch="normal" font-size="10" text-anchor="start" direction="ltr" writing-mode="lr-tb" unicode-bidi="normal" text-decoration="none" transform="matrix(0.810773 0 0 0.809264 184.654 213)">−</text><text fill="#000000" fill-opacity="1" font-family="Cambria Math,Cambria Math_MSFontService,sans-serif" font-style="normal" font-variant="normal" font-weight="400" font-stretch="normal" font-size="10" text-anchor="start" direction="ltr" writing-mode="lr-tb" unicode-bidi="normal" text-decoration="none" transform="matrix(0.810773 0 0 0.809264 190.71 213)">0</text><text fill="#000000" fill-opacity="1" font-family="Cambria Math,Cambria Math_MSFontService,sans-serif" font-style="normal" font-variant="normal" font-weight="400" font-stretch="normal" font-size="10" text-anchor="start" direction="ltr" writing-mode="lr-tb" unicode-bidi="normal" text-decoration="none" transform="matrix(0.810773 0 0 0.809264 195.202 213)">.</text><text fill="#000000" fill-opacity="1" font-family="Cambria Math,Cambria Math_MSFontService,sans-serif" font-style="normal" font-variant="normal" font-weight="400" font-stretch="normal" font-size="10" text-anchor="start" direction="ltr" writing-mode="lr-tb" unicode-bidi="normal" text-decoration="none" transform="matrix(0.810773 0 0 0.809264 196.864 213)">94</text><text fill="#000000" fill-opacity="1" font-family="Cambria Math,Cambria Math_MSFontService,sans-serif" font-style="normal" font-variant="normal" font-weight="400" font-stretch="normal" font-size="10" text-anchor="start" direction="ltr" writing-mode="lr-tb" unicode-bidi="normal" text-decoration="none" transform="matrix(0.810773 0 0 0.809264 205.839 213)">ln</text><text fill="#000000" fill-opacity="1" font-family="Cambria Math,Cambria Math_MSFontService,sans-serif" font-style="normal" font-variant="normal" font-weight="400" font-stretch="normal" font-size="10" text-anchor="start" direction="ltr" writing-mode="lr-tb" unicode-bidi="normal" text-decoration="none" transform="matrix(0.810773 0 0 0.809264 212.569 213)">⁡</text><text fill="#000000" fill-opacity="1" font-family="Cambria Math,Cambria Math_MSFontService,sans-serif" font-style="normal" font-variant="normal" font-weight="400" font-stretch="normal" font-size="10" text-anchor="start" direction="ltr" writing-mode="lr-tb" unicode-bidi="normal" text-decoration="none" transform="matrix(0.810773 0 0 0.809264 212.569 213)">(</text><text fill="#000000" fill-opacity="1" font-family="Cambria Math,Cambria Math_MSFontService,sans-serif" font-style="normal" font-variant="normal" font-weight="400" font-stretch="normal" font-size="10" text-anchor="start" direction="ltr" writing-mode="lr-tb" unicode-bidi="normal" text-decoration="none" transform="matrix(0.810773 0 0 0.809264 215.933 213)">𝑤</text><text fill="#000000" fill-opacity="1" font-family="Cambria Math,Cambria Math_MSFontService,sans-serif" font-style="normal" font-variant="normal" font-weight="400" font-stretch="normal" font-size="7" text-anchor="start" direction="ltr" writing-mode="lr-tb" unicode-bidi="normal" text-decoration="none" transform="matrix(0.810773 0 0 0.809264 221.357 214)">𝑛</text><text fill="#000000" fill-opacity="1" font-family="Cambria Math,Cambria Math_MSFontService,sans-serif" font-style="normal" font-variant="normal" font-weight="400" font-stretch="normal" font-size="10" text-anchor="start" direction="ltr" writing-mode="lr-tb" unicode-bidi="normal" text-decoration="none" transform="matrix(0.810773 0 0 0.809264 225.679 213)">)</text><text fill="#000000" fill-opacity="1" font-family="Cambria Math,Cambria Math_MSFontService,sans-serif" font-style="normal" font-variant="normal" font-weight="400" font-stretch="normal" font-size="10" text-anchor="start" direction="ltr" writing-mode="lr-tb" unicode-bidi="normal" text-decoration="none" transform="matrix(0.810773 0 0 0.809264 230.843 213)">+</text><text fill="#000000" fill-opacity="1" font-family="Cambria Math,Cambria Math_MSFontService,sans-serif" font-style="normal" font-variant="normal" font-weight="400" font-stretch="normal" font-size="10" text-anchor="start" direction="ltr" writing-mode="lr-tb" unicode-bidi="normal" text-decoration="none" transform="matrix(0.810773 0 0 0.809264 238.7 213)">2</text><text fill="#000000" fill-opacity="1" font-family="Cambria Math,Cambria Math_MSFontService,sans-serif" font-style="normal" font-variant="normal" font-weight="400" font-stretch="normal" font-size="10" text-anchor="start" direction="ltr" writing-mode="lr-tb" unicode-bidi="normal" text-decoration="none" transform="matrix(0.810773 0 0 0.809264 243.183 213)">.</text><text fill="#000000" fill-opacity="1" font-family="Cambria Math,Cambria Math_MSFontService,sans-serif" font-style="normal" font-variant="normal" font-weight="400" font-stretch="normal" font-size="10" text-anchor="start" direction="ltr" writing-mode="lr-tb" unicode-bidi="normal" text-decoration="none" transform="matrix(0.810773 0 0 0.809264 244.845 213)">07</text><text fill="#000000" fill-opacity="1" font-family="Cambria Math,Cambria Math_MSFontService,sans-serif" font-style="normal" font-variant="normal" font-weight="400" font-stretch="normal" font-size="10" text-anchor="start" direction="ltr" writing-mode="lr-tb" unicode-bidi="normal" text-decoration="none" transform="matrix(0.810773 0 0 0.809264 108.303 175)">𝑅</text><text fill="#000000" fill-opacity="1" font-family="Cambria Math,Cambria Math_MSFontService,sans-serif" font-style="normal" font-variant="normal" font-weight="400" font-stretch="normal" font-size="7" text-anchor="start" direction="ltr" writing-mode="lr-tb" unicode-bidi="normal" text-decoration="none" transform="matrix(0.810773 0 0 0.809264 113.703 172)">2</text><text fill="#000000" fill-opacity="1" font-family="Cambria Math,Cambria Math_MSFontService,sans-serif" font-style="normal" font-variant="normal" font-weight="400" font-stretch="normal" font-size="10" text-anchor="start" direction="ltr" writing-mode="lr-tb" unicode-bidi="normal" text-decoration="none" transform="matrix(0.810773 0 0 0.809264 119.719 175)">=</text><text fill="#000000" fill-opacity="1" font-family="Cambria Math,Cambria Math_MSFontService,sans-serif" font-style="normal" font-variant="normal" font-weight="400" font-stretch="normal" font-size="10" text-anchor="start" direction="ltr" writing-mode="lr-tb" unicode-bidi="normal" text-decoration="none" transform="matrix(0.810773 0 0 0.809264 125.775 175)"> </text><text fill="#000000" fill-opacity="1" font-family="Arial,Arial_MSFontService,sans-serif" font-style="normal" font-variant="normal" font-weight="400" font-stretch="normal" font-size="10" text-anchor="start" direction="ltr" writing-mode="lr-tb" unicode-bidi="normal" text-decoration="none" transform="matrix(0.810773 0 0 0.809264 127.559 175)">0.61</text><text fill="#000000" fill-opacity="1" font-family="Arial,Arial_MSFontService,sans-serif" font-style="normal" font-variant="normal" font-weight="400" font-stretch="normal" font-size="11" text-anchor="start" direction="ltr" writing-mode="lr-tb" unicode-bidi="normal" text-decoration="none" transform="matrix(0.810773 0 0 0.809264 54.5651 53)">(a)</text><text fill="#000000" fill-opacity="1" font-family="Arial,Arial_MSFontService,sans-serif" font-style="normal" font-variant="normal" font-weight="400" font-stretch="normal" font-size="11" text-anchor="start" direction="ltr" writing-mode="lr-tb" unicode-bidi="normal" text-decoration="none" transform="matrix(0.810773 0 0 0.809264 202.985 53)">Reconstituted</text><path d="M1328.41 474.634 1328.41 510.099" stroke="#000000" stroke-width="0.809264" stroke-linecap="square" stroke-linejoin="miter" stroke-miterlimit="8" stroke-dasharray="2.42779 0.809264" stroke-opacity="1" fill="none" fill-rule="evenodd" transform="matrix(1.00186 0 0 1 -1240.48 -305.902)"/></g></g></g></g></g></g></g></svg>