<svg width="256" height="246" xmlns="http://www.w3.org/2000/svg" xmlns:xlink="http://www.w3.org/1999/xlink" xml:space="preserve" overflow="hidden"><defs><clipPath id="clip0"><rect x="0" y="0" width="256" height="246"/></clipPath><clipPath id="clip1"><rect x="0" y="0" width="256" height="246"/></clipPath><clipPath id="clip2"><rect x="2" y="-93" width="9" height="396"/></clipPath><clipPath id="clip3"><rect x="2" y="-93" width="9" height="396"/></clipPath></defs><g clip-path="url(#clip0)"><g clip-path="url(#clip1)"><path d="M1650.7 32.087 1906.68 32.087 1906.68 278.087 1650.7 278.087Z" fill="#FFFFFF" fill-rule="nonzero" fill-opacity="1" transform="matrix(1.00007 0 0 1 -1650.81 -32.087)"/><path d="M0 0 5.6145e-05 215.339" stroke="#000000" stroke-width="0.713043" stroke-linecap="butt" stroke-linejoin="round" stroke-miterlimit="10" stroke-opacity="1" fill="none" fill-rule="evenodd" transform="matrix(1.00007 0 0 -1 28.8802 220.33)"/><path d="M1679.57 252.417 1681 252.417M1679.57 246.713 1681 246.713M1679.57 241.365 1681 241.365M1679.57 236.017 1681 236.017M1679.57 230.67 1681 230.67M1679.57 225.322 1681 225.322M1679.57 219.974 1681 219.974M1679.57 214.626 1681 214.626M1679.57 209.278 1681 209.278M1679.57 203.93 1681 203.93M1679.57 198.583 1681 198.583M1679.57 193.235 1681 193.235M1679.57 187.53 1681 187.53M1679.57 182.183 1681 182.183M1679.57 176.835 1681 176.835M1679.57 171.487 1681 171.487M1679.57 166.139 1681 166.139M1679.57 160.791 1681 160.791M1679.57 155.443 1681 155.443M1679.57 150.096 1681 150.096M1679.57 144.748 1681 144.748M1679.57 139.4 1681 139.4M1679.57 134.052 1681 134.052M1679.57 128.348 1681 128.348M1679.57 123 1681 123M1679.57 117.652 1681 117.652M1679.57 112.304 1681 112.304M1679.57 106.957 1681 106.957M1679.57 101.609 1681 101.609M1679.57 96.2609 1681 96.2609M1679.57 90.913 1681 90.913M1679.57 85.5652 1681 85.5652M1679.57 80.2174 1681 80.2174M1679.57 74.8696 1681 74.8696M1679.57 69.1652 1681 69.1652M1679.57 63.8174 1681 63.8174M1679.57 58.4696 1681 58.4696M1679.57 53.1217 1681 53.1217M1679.57 47.7739 1681 47.7739M1679.57 42.4261 1681 42.4261M1679.57 37.0783 1681 37.0783M1679.57 252.417 1681.71 252.417M1679.57 225.322 1681.71 225.322M1679.57 198.583 1681.71 198.583M1679.57 171.487 1681.71 171.487M1679.57 144.748 1681.71 144.748M1679.57 117.652 1681.71 117.652M1679.57 90.913 1681.71 90.913M1679.57 63.8174 1681.71 63.8174M1679.57 37.0783 1681.71 37.0783" stroke="#000000" stroke-width="0.713043" stroke-linecap="butt" stroke-linejoin="round" stroke-miterlimit="10" stroke-opacity="1" fill="none" fill-rule="nonzero" transform="matrix(1.00007 0 0 1 -1650.81 -32.087)"/><path d="M1679.57 252.417 1893.84 252.417" stroke="#000000" stroke-width="0.713043" stroke-linecap="butt" stroke-linejoin="round" stroke-miterlimit="10" stroke-opacity="1" fill="none" fill-rule="evenodd" transform="matrix(1.00007 0 0 1 -1650.81 -32.087)"/><path d="M1679.57 250.635 1679.57 252.417M1690.27 250.635 1690.27 252.417M1700.97 250.635 1700.97 252.417M1711.66 250.635 1711.66 252.417M1722.36 250.635 1722.36 252.417M1733.05 250.635 1733.05 252.417M1743.75 250.635 1743.75 252.417M1754.44 250.635 1754.44 252.417M1765.14 250.635 1765.14 252.417M1775.83 250.635 1775.83 252.417M1786.89 250.635 1786.89 252.417M1797.58 250.635 1797.58 252.417M1808.28 250.635 1808.28 252.417M1818.97 250.635 1818.97 252.417M1829.67 250.635 1829.67 252.417M1840.37 250.635 1840.37 252.417M1851.06 250.635 1851.06 252.417M1861.76 250.635 1861.76 252.417M1872.45 250.635 1872.45 252.417M1883.15 250.635 1883.15 252.417M1893.84 250.635 1893.84 252.417M1679.57 249.922 1679.57 252.417M1733.05 249.922 1733.05 252.417M1786.89 249.922 1786.89 252.417M1840.37 249.922 1840.37 252.417M1893.84 249.922 1893.84 252.417" stroke="#000000" stroke-width="0.713043" stroke-linecap="butt" stroke-linejoin="round" stroke-miterlimit="10" stroke-opacity="1" fill="none" fill-rule="nonzero" transform="matrix(1.00007 0 0 1 -1650.81 -32.087)"/><path d="M1786.89 247.07 1789.03 224.252 1798.65 198.583 1800.43 170.774 1811.13 144.035 1830.38 117.296 1853.56 90.5565 1876.73 62.7478" stroke="#000000" stroke-width="0.713043" stroke-linecap="round" stroke-linejoin="round" stroke-miterlimit="10" stroke-opacity="1" fill="none" fill-rule="nonzero" transform="matrix(1.00007 0 0 1 -1650.81 -32.087)"/><path d="M1789.39 247.228C1789.39 248.607 1788.27 249.724 1786.89 249.724 1785.51 249.724 1784.39 248.607 1784.39 247.228 1784.39 245.85 1785.51 244.733 1786.89 244.733 1788.27 244.733 1789.39 245.85 1789.39 247.228Z" stroke="#000000" stroke-width="0.534783" stroke-linecap="butt" stroke-linejoin="round" stroke-miterlimit="10" stroke-opacity="1" fill="#595959" fill-rule="nonzero" fill-opacity="1" transform="matrix(1.00007 0 0 1 -1650.81 -32.087)"/><path d="M1791.53 224.411C1791.53 225.789 1790.41 226.906 1789.03 226.906 1787.65 226.906 1786.53 225.789 1786.53 224.411 1786.53 223.033 1787.65 221.915 1789.03 221.915 1790.41 221.915 1791.53 223.033 1791.53 224.411Z" stroke="#000000" stroke-width="0.534783" stroke-linecap="butt" stroke-linejoin="round" stroke-miterlimit="10" stroke-opacity="1" fill="#595959" fill-rule="nonzero" fill-opacity="1" transform="matrix(1.00007 0 0 1 -1650.81 -32.087)"/><path d="M1801.15 198.741C1801.15 200.12 1800.03 201.237 1798.66 201.237 1797.28 201.237 1796.16 200.12 1796.16 198.741 1796.16 197.363 1797.28 196.246 1798.66 196.246 1800.03 196.246 1801.15 197.363 1801.15 198.741Z" stroke="#000000" stroke-width="0.534783" stroke-linecap="butt" stroke-linejoin="round" stroke-miterlimit="10" stroke-opacity="1" fill="#595959" fill-rule="nonzero" fill-opacity="1" transform="matrix(1.00007 0 0 1 -1650.81 -32.087)"/><path d="M1802.93 170.933C1802.93 172.311 1801.81 173.428 1800.44 173.428 1799.06 173.428 1797.94 172.311 1797.94 170.933 1797.94 169.554 1799.06 168.437 1800.44 168.437 1801.81 168.437 1802.93 169.554 1802.93 170.933Z" stroke="#000000" stroke-width="0.534783" stroke-linecap="butt" stroke-linejoin="round" stroke-miterlimit="10" stroke-opacity="1" fill="#595959" fill-rule="nonzero" fill-opacity="1" transform="matrix(1.00007 0 0 1 -1650.81 -32.087)"/><path d="M1813.63 144.193C1813.63 145.572 1812.51 146.689 1811.13 146.689 1809.75 146.689 1808.64 145.572 1808.64 144.193 1808.64 142.815 1809.75 141.698 1811.13 141.698 1812.51 141.698 1813.63 142.815 1813.63 144.193Z" stroke="#000000" stroke-width="0.534783" stroke-linecap="butt" stroke-linejoin="round" stroke-miterlimit="10" stroke-opacity="1" fill="#595959" fill-rule="nonzero" fill-opacity="1" transform="matrix(1.00007 0 0 1 -1650.81 -32.087)"/><path d="M1832.88 117.454C1832.88 118.833 1831.76 119.95 1830.39 119.95 1829.01 119.95 1827.89 118.833 1827.89 117.454 1827.89 116.076 1829.01 114.959 1830.39 114.959 1831.76 114.959 1832.88 116.076 1832.88 117.454Z" stroke="#000000" stroke-width="0.534783" stroke-linecap="butt" stroke-linejoin="round" stroke-miterlimit="10" stroke-opacity="1" fill="#595959" fill-rule="nonzero" fill-opacity="1" transform="matrix(1.00007 0 0 1 -1650.81 -32.087)"/><path d="M1856.06 90.7152C1856.06 92.0935 1854.94 93.2108 1853.56 93.2108 1852.18 93.2108 1851.06 92.0935 1851.06 90.7152 1851.06 89.3369 1852.18 88.2195 1853.56 88.2195 1854.94 88.2195 1856.06 89.3369 1856.06 90.7152Z" stroke="#000000" stroke-width="0.534783" stroke-linecap="butt" stroke-linejoin="round" stroke-miterlimit="10" stroke-opacity="1" fill="#595959" fill-rule="nonzero" fill-opacity="1" transform="matrix(1.00007 0 0 1 -1650.81 -32.087)"/><path d="M1879.23 62.9065C1879.23 64.2848 1878.11 65.4021 1876.73 65.4021 1875.35 65.4021 1874.24 64.2848 1874.24 62.9065 1874.24 61.5282 1875.35 60.4108 1876.73 60.4108 1878.11 60.4108 1879.23 61.5282 1879.23 62.9065Z" stroke="#000000" stroke-width="0.534783" stroke-linecap="butt" stroke-linejoin="round" stroke-miterlimit="10" stroke-opacity="1" fill="#595959" fill-rule="nonzero" fill-opacity="1" transform="matrix(1.00007 0 0 1 -1650.81 -32.087)"/><path d="M1786.17 247.07 1784.03 224.965 1789.03 198.583 1796.51 170.774 1807.57 144.035 1822.18 117.296 1836.44 90.5565 1854.27 63.1043" stroke="#000000" stroke-width="0.713043" stroke-linecap="round" stroke-linejoin="round" stroke-miterlimit="10" stroke-opacity="1" fill="none" fill-rule="nonzero" transform="matrix(1.00007 0 0 1 -1650.81 -32.087)"/><path d="M1783.68 244.733 1788.67 244.733 1788.67 249.724 1783.68 249.724Z" stroke="#000000" stroke-width="0.534783" stroke-linecap="butt" stroke-linejoin="round" stroke-miterlimit="10" stroke-opacity="1" fill="#747474" fill-rule="nonzero" fill-opacity="1" transform="matrix(1.00007 0 0 1 -1650.81 -32.087)"/><path d="M1781.54 222.628 1786.53 222.628 1786.53 227.62 1781.54 227.62Z" stroke="#000000" stroke-width="0.534783" stroke-linecap="butt" stroke-linejoin="round" stroke-miterlimit="10" stroke-opacity="1" fill="#747474" fill-rule="nonzero" fill-opacity="1" transform="matrix(1.00007 0 0 1 -1650.81 -32.087)"/><path d="M1786.53 196.246 1791.53 196.246 1791.53 201.237 1786.53 201.237Z" stroke="#000000" stroke-width="0.534783" stroke-linecap="butt" stroke-linejoin="round" stroke-miterlimit="10" stroke-opacity="1" fill="#747474" fill-rule="nonzero" fill-opacity="1" transform="matrix(1.00007 0 0 1 -1650.81 -32.087)"/><path d="M1794.02 168.437 1799.01 168.437 1799.01 173.428 1794.02 173.428Z" stroke="#000000" stroke-width="0.534783" stroke-linecap="butt" stroke-linejoin="round" stroke-miterlimit="10" stroke-opacity="1" fill="#747474" fill-rule="nonzero" fill-opacity="1" transform="matrix(1.00007 0 0 1 -1650.81 -32.087)"/><path d="M1805.07 141.698 1810.06 141.698 1810.06 146.689 1805.07 146.689Z" stroke="#000000" stroke-width="0.534783" stroke-linecap="butt" stroke-linejoin="round" stroke-miterlimit="10" stroke-opacity="1" fill="#747474" fill-rule="nonzero" fill-opacity="1" transform="matrix(1.00007 0 0 1 -1650.81 -32.087)"/><path d="M1819.69 114.959 1824.68 114.959 1824.68 119.95 1819.69 119.95Z" stroke="#000000" stroke-width="0.534783" stroke-linecap="butt" stroke-linejoin="round" stroke-miterlimit="10" stroke-opacity="1" fill="#747474" fill-rule="nonzero" fill-opacity="1" transform="matrix(1.00007 0 0 1 -1650.81 -32.087)"/><path d="M1833.95 88.2195 1838.94 88.2195 1838.94 93.2108 1833.95 93.2108Z" stroke="#000000" stroke-width="0.534783" stroke-linecap="butt" stroke-linejoin="round" stroke-miterlimit="10" stroke-opacity="1" fill="#747474" fill-rule="nonzero" fill-opacity="1" transform="matrix(1.00007 0 0 1 -1650.81 -32.087)"/><path d="M1851.78 60.7673 1856.77 60.7673 1856.77 65.7587 1851.78 65.7587Z" stroke="#000000" stroke-width="0.534783" stroke-linecap="butt" stroke-linejoin="round" stroke-miterlimit="10" stroke-opacity="1" fill="#747474" fill-rule="nonzero" fill-opacity="1" transform="matrix(1.00007 0 0 1 -1650.81 -32.087)"/><path d="M1786.17 247.07 1792.59 198.583 1794.73 170.774 1797.58 144.035 1808.99 117.296 1827.17 89.8435 1845 63.8174" stroke="#000000" stroke-width="0.713043" stroke-linecap="round" stroke-linejoin="round" stroke-miterlimit="10" stroke-opacity="1" fill="none" fill-rule="nonzero" transform="matrix(1.00007 0 0 1 -1650.81 -32.087)"/><path d="M1786.18 244.733 1788.67 249.724 1783.68 249.724Z" stroke="#000000" stroke-width="0.534783" stroke-linecap="butt" stroke-linejoin="round" stroke-miterlimit="10" stroke-opacity="1" fill="#E8E8E8" fill-rule="nonzero" fill-opacity="1" transform="matrix(1.00007 0 0 1 -1650.81 -32.087)"/><path d="M1792.59 196.246 1795.09 201.237 1790.1 201.237Z" stroke="#000000" stroke-width="0.534783" stroke-linecap="butt" stroke-linejoin="round" stroke-miterlimit="10" stroke-opacity="1" fill="#E8E8E8" fill-rule="nonzero" fill-opacity="1" transform="matrix(1.00007 0 0 1 -1650.81 -32.087)"/><path d="M1794.73 168.437 1797.23 173.428 1792.24 173.428Z" stroke="#000000" stroke-width="0.534783" stroke-linecap="butt" stroke-linejoin="round" stroke-miterlimit="10" stroke-opacity="1" fill="#E8E8E8" fill-rule="nonzero" fill-opacity="1" transform="matrix(1.00007 0 0 1 -1650.81 -32.087)"/><path d="M1797.59 141.698 1800.08 146.689 1795.09 146.689Z" stroke="#000000" stroke-width="0.534783" stroke-linecap="butt" stroke-linejoin="round" stroke-miterlimit="10" stroke-opacity="1" fill="#E8E8E8" fill-rule="nonzero" fill-opacity="1" transform="matrix(1.00007 0 0 1 -1650.81 -32.087)"/><path d="M1808.99 114.959 1811.49 119.95 1806.5 119.95Z" stroke="#000000" stroke-width="0.534783" stroke-linecap="butt" stroke-linejoin="round" stroke-miterlimit="10" stroke-opacity="1" fill="#E8E8E8" fill-rule="nonzero" fill-opacity="1" transform="matrix(1.00007 0 0 1 -1650.81 -32.087)"/><path d="M1827.18 87.5065 1829.67 92.4978 1824.68 92.4978Z" stroke="#000000" stroke-width="0.534783" stroke-linecap="butt" stroke-linejoin="round" stroke-miterlimit="10" stroke-opacity="1" fill="#E8E8E8" fill-rule="nonzero" fill-opacity="1" transform="matrix(1.00007 0 0 1 -1650.81 -32.087)"/><path d="M1845 61.4804 1847.5 66.4717 1842.51 66.4717Z" stroke="#000000" stroke-width="0.534783" stroke-linecap="butt" stroke-linejoin="round" stroke-miterlimit="10" stroke-opacity="1" fill="#E8E8E8" fill-rule="nonzero" fill-opacity="1" transform="matrix(1.00007 0 0 1 -1650.81 -32.087)"/><path d="M1786.89 248.139 1780.11 225.322 1774.77 198.583 1769.77 171.843 1775.83 144.391 1779.04 117.652 1790.45 90.913 1800.79 63.1043" stroke="#000000" stroke-width="0.713043" stroke-linecap="round" stroke-linejoin="round" stroke-miterlimit="10" stroke-opacity="1" fill="none" fill-rule="nonzero" transform="matrix(1.00007 0 0 1 -1650.81 -32.087)"/><path d="M1784.39 245.802 1789.39 245.802 1789.39 250.793 1784.39 250.793Z" stroke="#E8E8E8" stroke-width="0.534783" stroke-linecap="butt" stroke-linejoin="round" stroke-miterlimit="10" stroke-opacity="1" fill="#E8E8E8" fill-rule="nonzero" fill-opacity="1" transform="matrix(1.00007 0 0 1 -1650.81 -32.087)"/><path d="M1777.62 222.985 1782.61 222.985 1782.61 227.976 1777.62 227.976Z" stroke="#E8E8E8" stroke-width="0.534783" stroke-linecap="butt" stroke-linejoin="round" stroke-miterlimit="10" stroke-opacity="1" fill="#E8E8E8" fill-rule="nonzero" fill-opacity="1" transform="matrix(1.00007 0 0 1 -1650.81 -32.087)"/><path d="M1772.27 196.246 1777.26 196.246 1777.26 201.237 1772.27 201.237Z" stroke="#E8E8E8" stroke-width="0.534783" stroke-linecap="butt" stroke-linejoin="round" stroke-miterlimit="10" stroke-opacity="1" fill="#E8E8E8" fill-rule="nonzero" fill-opacity="1" transform="matrix(1.00007 0 0 1 -1650.81 -32.087)"/><path d="M1767.28 169.506 1772.27 169.506 1772.27 174.498 1767.28 174.498Z" stroke="#E8E8E8" stroke-width="0.534783" stroke-linecap="butt" stroke-linejoin="round" stroke-miterlimit="10" stroke-opacity="1" fill="#E8E8E8" fill-rule="nonzero" fill-opacity="1" transform="matrix(1.00007 0 0 1 -1650.81 -32.087)"/><path d="M1773.34 142.054 1778.33 142.054 1778.33 147.046 1773.34 147.046Z" stroke="#E8E8E8" stroke-width="0.534783" stroke-linecap="butt" stroke-linejoin="round" stroke-miterlimit="10" stroke-opacity="1" fill="#E8E8E8" fill-rule="nonzero" fill-opacity="1" transform="matrix(1.00007 0 0 1 -1650.81 -32.087)"/><path d="M1776.55 115.315 1781.54 115.315 1781.54 120.306 1776.55 120.306Z" stroke="#E8E8E8" stroke-width="0.534783" stroke-linecap="butt" stroke-linejoin="round" stroke-miterlimit="10" stroke-opacity="1" fill="#E8E8E8" fill-rule="nonzero" fill-opacity="1" transform="matrix(1.00007 0 0 1 -1650.81 -32.087)"/><path d="M1787.96 88.576 1792.95 88.576 1792.95 93.5673 1787.96 93.5673Z" stroke="#E8E8E8" stroke-width="0.534783" stroke-linecap="butt" stroke-linejoin="round" stroke-miterlimit="10" stroke-opacity="1" fill="#E8E8E8" fill-rule="nonzero" fill-opacity="1" transform="matrix(1.00007 0 0 1 -1650.81 -32.087)"/><path d="M1798.3 60.7673 1803.29 60.7673 1803.29 65.7587 1798.3 65.7587Z" stroke="#E8E8E8" stroke-width="0.534783" stroke-linecap="butt" stroke-linejoin="round" stroke-miterlimit="10" stroke-opacity="1" fill="#E8E8E8" fill-rule="nonzero" fill-opacity="1" transform="matrix(1.00007 0 0 1 -1650.81 -32.087)"/><path d="M1789.39 250.793 1784.39 245.802M1784.39 250.793 1789.39 245.802" stroke="#000000" stroke-width="0.534783" stroke-linecap="butt" stroke-linejoin="round" stroke-miterlimit="10" stroke-opacity="1" fill="#E8E8E8" fill-rule="nonzero" fill-opacity="1" transform="matrix(1.00007 0 0 1 -1650.81 -32.087)"/><path d="M1782.61 227.976 1777.62 222.985M1777.62 227.976 1782.61 222.985" stroke="#000000" stroke-width="0.534783" stroke-linecap="butt" stroke-linejoin="round" stroke-miterlimit="10" stroke-opacity="1" fill="#E8E8E8" fill-rule="nonzero" fill-opacity="1" transform="matrix(1.00007 0 0 1 -1650.81 -32.087)"/><path d="M1777.26 201.237 1772.27 196.246M1772.27 201.237 1777.26 196.246" stroke="#000000" stroke-width="0.534783" stroke-linecap="butt" stroke-linejoin="round" stroke-miterlimit="10" stroke-opacity="1" fill="#E8E8E8" fill-rule="nonzero" fill-opacity="1" transform="matrix(1.00007 0 0 1 -1650.81 -32.087)"/><path d="M1772.27 174.498 1767.28 169.506M1767.28 174.498 1772.27 169.506" stroke="#000000" stroke-width="0.534783" stroke-linecap="butt" stroke-linejoin="round" stroke-miterlimit="10" stroke-opacity="1" fill="#E8E8E8" fill-rule="nonzero" fill-opacity="1" transform="matrix(1.00007 0 0 1 -1650.81 -32.087)"/><path d="M1778.33 147.046 1773.34 142.054M1773.34 147.046 1778.33 142.054" stroke="#000000" stroke-width="0.534783" stroke-linecap="butt" stroke-linejoin="round" stroke-miterlimit="10" stroke-opacity="1" fill="#E8E8E8" fill-rule="nonzero" fill-opacity="1" transform="matrix(1.00007 0 0 1 -1650.81 -32.087)"/><path d="M1781.54 120.306 1776.55 115.315M1776.55 120.306 1781.54 115.315" stroke="#000000" stroke-width="0.534783" stroke-linecap="butt" stroke-linejoin="round" stroke-miterlimit="10" stroke-opacity="1" fill="#E8E8E8" fill-rule="nonzero" fill-opacity="1" transform="matrix(1.00007 0 0 1 -1650.81 -32.087)"/><path d="M1792.95 93.5673 1787.96 88.576M1787.96 93.5673 1792.95 88.576" stroke="#000000" stroke-width="0.534783" stroke-linecap="butt" stroke-linejoin="round" stroke-miterlimit="10" stroke-opacity="1" fill="#E8E8E8" fill-rule="nonzero" fill-opacity="1" transform="matrix(1.00007 0 0 1 -1650.81 -32.087)"/><path d="M1803.29 65.7587 1798.3 60.7673M1798.3 65.7587 1803.29 60.7673" stroke="#000000" stroke-width="0.534783" stroke-linecap="butt" stroke-linejoin="round" stroke-miterlimit="10" stroke-opacity="1" fill="#E8E8E8" fill-rule="nonzero" fill-opacity="1" transform="matrix(1.00007 0 0 1 -1650.81 -32.087)"/><path d="M0 0 22.8174 26.7391" stroke="#000000" stroke-width="0.534783" stroke-linecap="round" stroke-linejoin="round" stroke-miterlimit="10" stroke-opacity="1" fill="none" fill-rule="evenodd" transform="matrix(1.00007 0 0 -1 71.6657 59.1826)"/><path d="M1786.89 248.139 1758.01 226.035 1721.29 198.583 1698.47 173.27 1701.32 144.391 1710.59 118.722 1722.36 91.2696" stroke="#000000" stroke-width="0.534783" stroke-linecap="round" stroke-linejoin="round" stroke-miterlimit="10" stroke-opacity="1" fill="none" fill-rule="nonzero" transform="matrix(1.00007 0 0 1 -1650.81 -32.087)"/><path d="M1784.39 245.802 1789.39 245.802 1789.39 250.793 1784.39 250.793Z" stroke="#000000" stroke-width="0.534783" stroke-linecap="butt" stroke-linejoin="round" stroke-miterlimit="10" stroke-opacity="1" fill="#E8E8E8" fill-rule="nonzero" fill-opacity="1" transform="matrix(1.00007 0 0 1 -1650.81 -32.087)"/><path d="M1755.52 223.698 1760.51 223.698 1760.51 228.689 1755.52 228.689Z" stroke="#000000" stroke-width="0.534783" stroke-linecap="butt" stroke-linejoin="round" stroke-miterlimit="10" stroke-opacity="1" fill="#E8E8E8" fill-rule="nonzero" fill-opacity="1" transform="matrix(1.00007 0 0 1 -1650.81 -32.087)"/><path d="M1718.79 196.246 1723.79 196.246 1723.79 201.237 1718.79 201.237Z" stroke="#000000" stroke-width="0.534783" stroke-linecap="butt" stroke-linejoin="round" stroke-miterlimit="10" stroke-opacity="1" fill="#E8E8E8" fill-rule="nonzero" fill-opacity="1" transform="matrix(1.00007 0 0 1 -1650.81 -32.087)"/><path d="M1695.98 170.933 1700.97 170.933 1700.97 175.924 1695.98 175.924Z" stroke="#000000" stroke-width="0.534783" stroke-linecap="butt" stroke-linejoin="round" stroke-miterlimit="10" stroke-opacity="1" fill="#E8E8E8" fill-rule="nonzero" fill-opacity="1" transform="matrix(1.00007 0 0 1 -1650.81 -32.087)"/><path d="M1698.83 142.054 1703.82 142.054 1703.82 147.046 1698.83 147.046Z" stroke="#000000" stroke-width="0.534783" stroke-linecap="butt" stroke-linejoin="round" stroke-miterlimit="10" stroke-opacity="1" fill="#E8E8E8" fill-rule="nonzero" fill-opacity="1" transform="matrix(1.00007 0 0 1 -1650.81 -32.087)"/><path d="M1708.1 116.385 1713.09 116.385 1713.09 121.376 1708.1 121.376Z" stroke="#000000" stroke-width="0.534783" stroke-linecap="butt" stroke-linejoin="round" stroke-miterlimit="10" stroke-opacity="1" fill="#E8E8E8" fill-rule="nonzero" fill-opacity="1" transform="matrix(1.00007 0 0 1 -1650.81 -32.087)"/><path d="M1719.86 88.9326 1724.86 88.9326 1724.86 93.9239 1719.86 93.9239Z" stroke="#000000" stroke-width="0.534783" stroke-linecap="butt" stroke-linejoin="round" stroke-miterlimit="10" stroke-opacity="1" fill="#E8E8E8" fill-rule="nonzero" fill-opacity="1" transform="matrix(1.00007 0 0 1 -1650.81 -32.087)"/><path d="M1742.68 61.6783 1747.67 61.6783 1747.67 66.6696 1742.68 66.6696Z" stroke="#000000" stroke-width="0.534783" stroke-linecap="butt" stroke-linejoin="round" stroke-miterlimit="10" stroke-opacity="1" fill="#E8E8E8" fill-rule="nonzero" fill-opacity="1" transform="matrix(1.00007 0 0 1 -1650.81 -32.087)"/><text fill="#000000" fill-opacity="1" font-family="Arial,Arial_MSFontService,sans-serif" font-style="normal" font-variant="normal" font-weight="400" font-stretch="normal" font-size="22" text-anchor="start" direction="ltr" writing-mode="lr-tb" unicode-bidi="normal" text-decoration="none" transform="matrix(0.356546 0 0 0.356522 13.9588 223)">20</text><text fill="#000000" fill-opacity="1" font-family="Arial,Arial_MSFontService,sans-serif" font-style="normal" font-variant="normal" font-weight="400" font-stretch="normal" font-size="22" text-anchor="start" direction="ltr" writing-mode="lr-tb" unicode-bidi="normal" text-decoration="none" transform="matrix(0.356546 0 0 0.356522 13.9588 196)">30</text><text fill="#000000" fill-opacity="1" font-family="Arial,Arial_MSFontService,sans-serif" font-style="normal" font-variant="normal" font-weight="400" font-stretch="normal" font-size="22" text-anchor="start" direction="ltr" writing-mode="lr-tb" unicode-bidi="normal" text-decoration="none" transform="matrix(0.356546 0 0 0.356522 13.9588 169)">40</text><text fill="#000000" fill-opacity="1" font-family="Arial,Arial_MSFontService,sans-serif" font-style="normal" font-variant="normal" font-weight="400" font-stretch="normal" font-size="22" text-anchor="start" direction="ltr" writing-mode="lr-tb" unicode-bidi="normal" text-decoration="none" transform="matrix(0.356546 0 0 0.356522 13.9588 142)">50</text><text fill="#000000" fill-opacity="1" font-family="Arial,Arial_MSFontService,sans-serif" font-style="normal" font-variant="normal" font-weight="400" font-stretch="normal" font-size="22" text-anchor="start" direction="ltr" writing-mode="lr-tb" unicode-bidi="normal" text-decoration="none" transform="matrix(0.356546 0 0 0.356522 13.9588 115)">60</text><text fill="#000000" fill-opacity="1" font-family="Arial,Arial_MSFontService,sans-serif" font-style="normal" font-variant="normal" font-weight="400" font-stretch="normal" font-size="22" text-anchor="start" direction="ltr" writing-mode="lr-tb" unicode-bidi="normal" text-decoration="none" transform="matrix(0.356546 0 0 0.356522 13.9588 88)">70</text><text fill="#000000" fill-opacity="1" font-family="Arial,Arial_MSFontService,sans-serif" font-style="normal" font-variant="normal" font-weight="400" font-stretch="normal" font-size="22" text-anchor="start" direction="ltr" writing-mode="lr-tb" unicode-bidi="normal" text-decoration="none" transform="matrix(0.356546 0 0 0.356522 13.9588 61)">80</text><text fill="#000000" fill-opacity="1" font-family="Arial,Arial_MSFontService,sans-serif" font-style="normal" font-variant="normal" font-weight="400" font-stretch="normal" font-size="22" text-anchor="start" direction="ltr" writing-mode="lr-tb" unicode-bidi="normal" text-decoration="none" transform="matrix(0.356546 0 0 0.356522 13.9588 35)">90</text><text fill="#000000" fill-opacity="1" font-family="Arial,Arial_MSFontService,sans-serif" font-style="normal" font-variant="normal" font-weight="400" font-stretch="normal" font-size="22" text-anchor="start" direction="ltr" writing-mode="lr-tb" unicode-bidi="normal" text-decoration="none" transform="matrix(0.356546 0 0 0.356522 9.79432 7)">100</text><text fill="#000000" fill-opacity="1" font-family="Arial,Arial_MSFontService,sans-serif" font-style="normal" font-variant="normal" font-weight="400" font-stretch="normal" font-size="22" text-anchor="start" direction="ltr" writing-mode="lr-tb" unicode-bidi="normal" text-decoration="none" transform="matrix(0.356546 0 0 0.356522 20.1983 232)">-0.01</text><text fill="#000000" fill-opacity="1" font-family="Arial,Arial_MSFontService,sans-serif" font-style="normal" font-variant="normal" font-weight="400" font-stretch="normal" font-size="22" text-anchor="start" direction="ltr" writing-mode="lr-tb" unicode-bidi="normal" text-decoration="none" transform="matrix(0.356546 0 0 0.356522 71.7656 232)">-0.005</text><text fill="#000000" fill-opacity="1" font-family="Arial,Arial_MSFontService,sans-serif" font-style="normal" font-variant="normal" font-weight="400" font-stretch="normal" font-size="22" text-anchor="start" direction="ltr" writing-mode="lr-tb" unicode-bidi="normal" text-decoration="none" transform="matrix(0.356546 0 0 0.356522 133.947 232)">0</text><text fill="#000000" fill-opacity="1" font-family="Arial,Arial_MSFontService,sans-serif" font-style="normal" font-variant="normal" font-weight="400" font-stretch="normal" font-size="22" text-anchor="start" direction="ltr" writing-mode="lr-tb" unicode-bidi="normal" text-decoration="none" transform="matrix(0.356546 0 0 0.356522 180.309 232)">0.005</text><text fill="#000000" fill-opacity="1" font-family="Arial,Arial_MSFontService,sans-serif" font-style="normal" font-variant="normal" font-weight="400" font-stretch="normal" font-size="22" text-anchor="start" direction="ltr" writing-mode="lr-tb" unicode-bidi="normal" text-decoration="none" transform="matrix(0.356546 0 0 0.356522 236.041 232)">0.01</text><text fill="#000000" fill-opacity="1" font-family="Arial,Arial_MSFontService,sans-serif" font-style="normal" font-variant="normal" font-weight="400" font-stretch="normal" font-size="22" text-anchor="start" direction="ltr" writing-mode="lr-tb" unicode-bidi="normal" text-decoration="none" transform="matrix(0.356546 0 0 0.356522 89.2185 240)">Thermal volumetric strain</text><text fill="#000000" fill-opacity="1" font-family="Arial,Arial_MSFontService,sans-serif" font-style="normal" font-variant="normal" font-weight="400" font-stretch="normal" font-size="22" text-anchor="start" direction="ltr" writing-mode="lr-tb" unicode-bidi="normal" text-decoration="none" transform="matrix(0.356546 0 0 0.356522 177.289 240)">:</text><text fill="#000000" fill-opacity="1" font-family="Arial,Arial_MSFontService,sans-serif" font-style="normal" font-variant="normal" font-weight="400" font-stretch="normal" font-size="22" text-anchor="start" direction="ltr" writing-mode="lr-tb" unicode-bidi="normal" text-decoration="none" transform="matrix(0.356546 0 0 0.356522 181.646 240)">-</text><g clip-path="url(#clip2)"><text fill="#000000" fill-opacity="1" font-family="Arial,Arial_MSFontService,sans-serif" font-style="normal" font-variant="normal" font-weight="400" font-stretch="normal" font-size="22" text-anchor="start" direction="ltr" writing-mode="lr-tb" unicode-bidi="normal" text-decoration="none" transform="matrix(-6.54964e-17 -0.356522 0.356546 -6.5492e-17 8.8673 133)">Temperature</text></g><g clip-path="url(#clip3)"><text fill="#000000" fill-opacity="1" font-family="Arial,Arial_MSFontService,sans-serif" font-style="normal" font-variant="normal" font-weight="400" font-stretch="normal" font-size="22" text-anchor="start" direction="ltr" writing-mode="lr-tb" unicode-bidi="normal" text-decoration="none" transform="matrix(-6.54964e-17 -0.356522 0.356546 -6.5492e-17 8.8673 88)">: </text></g><g><text fill="#000000" fill-opacity="1" font-family="Cambria Math,Cambria Math_MSFontService,sans-serif" font-style="normal" font-variant="normal" font-weight="400" font-stretch="normal" font-size="22" text-anchor="start" direction="ltr" writing-mode="lr-tb" unicode-bidi="normal" text-decoration="none" transform="matrix(-6.54964e-17 -0.356522 0.356546 -6.5492e-17 8.8673 84)">℃</text></g><path d="M1688.13 231.739 1736.26 231.739 1736.26 246 1688.13 246Z" stroke="#000000" stroke-width="0.713043" stroke-linecap="butt" stroke-linejoin="miter" stroke-miterlimit="8" stroke-opacity="1" fill="none" fill-rule="nonzero" transform="matrix(1.00007 0 0 1 -1650.81 -32.087)"/><text fill="#000000" fill-opacity="1" font-family="Arial,Arial_MSFontService,sans-serif" font-style="normal" font-variant="normal" font-weight="400" font-stretch="normal" font-size="22" text-anchor="start" direction="ltr" writing-mode="lr-tb" unicode-bidi="normal" text-decoration="none" transform="matrix(0.356546 0 0 0.356522 43.3774 210)">Kaolin</text><text fill="#000000" fill-opacity="1" font-family="Arial,Arial_MSFontService,sans-serif" font-style="normal" font-variant="normal" font-weight="400" font-stretch="normal" font-size="22" text-anchor="start" direction="ltr" writing-mode="lr-tb" unicode-bidi="normal" text-decoration="none" transform="matrix(0.356546 0 0 0.356522 66.2748 210)">clay</text><text fill="#000000" fill-opacity="1" font-family="Arial,Arial_MSFontService,sans-serif" font-style="normal" font-variant="normal" font-weight="400" font-stretch="normal" font-size="22" text-anchor="start" direction="ltr" writing-mode="lr-tb" unicode-bidi="normal" text-decoration="none" transform="matrix(0.356546 0 0 0.356522 196.817 11)">Compression</text><text fill="#000000" fill-opacity="1" font-family="Arial,Arial_MSFontService,sans-serif" font-style="normal" font-variant="normal" font-weight="400" font-stretch="normal" font-size="22" text-anchor="start" direction="ltr" writing-mode="lr-tb" unicode-bidi="normal" text-decoration="none" transform="matrix(0.356546 0 0 0.356522 39.0275 12)">Expansion</text><text fill="#000000" fill-opacity="1" font-family="Arial,Arial_MSFontService,sans-serif" font-style="normal" font-variant="normal" font-weight="400" font-stretch="normal" font-size="22" text-anchor="start" direction="ltr" writing-mode="lr-tb" unicode-bidi="normal" text-decoration="none" transform="matrix(0.356546 0 0 0.356522 224.103 25)">1</text><text fill="#000000" fill-opacity="1" font-family="Arial,Arial_MSFontService,sans-serif" font-style="normal" font-variant="normal" font-weight="400" font-stretch="normal" font-size="22" text-anchor="start" direction="ltr" writing-mode="lr-tb" unicode-bidi="normal" text-decoration="none" transform="matrix(0.356546 0 0 0.356522 201.752 25)">1.5</text><text fill="#000000" fill-opacity="1" font-family="Arial,Arial_MSFontService,sans-serif" font-style="normal" font-variant="normal" font-weight="400" font-stretch="normal" font-size="22" text-anchor="start" direction="ltr" writing-mode="lr-tb" unicode-bidi="normal" text-decoration="none" transform="matrix(0.356546 0 0 0.356522 187.347 25)">2.0</text><text fill="#000000" fill-opacity="1" font-family="Arial,Arial_MSFontService,sans-serif" font-style="normal" font-variant="normal" font-weight="400" font-stretch="normal" font-size="22" text-anchor="start" direction="ltr" writing-mode="lr-tb" unicode-bidi="normal" text-decoration="none" transform="matrix(0.356546 0 0 0.356522 149.361 25)">6.0</text><text fill="#000000" fill-opacity="1" font-family="Arial,Arial_MSFontService,sans-serif" font-style="normal" font-variant="normal" font-weight="400" font-stretch="normal" font-size="22" text-anchor="start" direction="ltr" writing-mode="lr-tb" unicode-bidi="normal" text-decoration="none" transform="matrix(0.356546 0 0 0.356522 93.9178 25)">12.0</text><text fill="#000000" fill-opacity="1" font-family="Arial,Arial_MSFontService,sans-serif" font-style="normal" font-variant="normal" font-weight="400" font-stretch="normal" font-size="22" text-anchor="start" direction="ltr" writing-mode="lr-tb" unicode-bidi="normal" text-decoration="none" transform="matrix(0.356546 0 0 0.356522 73.4948 25)">OCR</text><path d="M0 0 5.6145e-05 216.198" stroke="#000000" stroke-width="0.713043" stroke-linecap="butt" stroke-linejoin="miter" stroke-miterlimit="8" stroke-dasharray="2.85217 2.13913" stroke-opacity="1" fill="none" fill-rule="evenodd" transform="matrix(1.00007 0 0 -1 135.844 219.05)"/><path d="M3.52381e-07-0.356522 2.85217-0.356519 2.85217 0.356525-3.52381e-07 0.356522ZM4.9913-0.356517 7.84348-0.356514 7.84348 0.356529 4.9913 0.356525ZM9.98261-0.356512 12.8348-0.356509 12.8348 0.356536 9.98261 0.356532ZM14.9739-0.356507 17.8261-0.356504 17.8261 0.35654 14.9739 0.356536ZM19.9652-0.356502 22.8174-0.356499 22.8174 0.356543 19.9652 0.356543ZM24.9565-0.356497 27.8087-0.356494 27.8087 0.35655 24.9565 0.356547ZM29.9478-0.356492 32.8-0.356489 32.8 0.356554 29.9478 0.35655ZM34.9391-0.356487 37.7913-0.356484 37.7913 0.356557 34.9391 0.356557ZM39.9304-0.356482 42.7826-0.356479 42.7826 0.356565 39.9304 0.356561ZM44.9217-0.356477 47.7739-0.356475 47.7739 0.356568 44.9217 0.356565ZM49.913-0.356473 52.7652-0.35647 52.7652 0.356575 49.913 0.356572ZM52.5267-2.13908 56.805 5.6145e-05 52.5267 2.13918Z" fill="#000000" fill-rule="nonzero" fill-opacity="1" transform="matrix(-1.00007 0 0 1 134.535 8.91304)"/><path d="M1786.53 40.6435 1789.38 40.6435 1789.38 41.3565 1786.53 41.3565ZM1791.52 40.6435 1794.37 40.6435 1794.37 41.3565 1791.52 41.3565ZM1796.51 40.6435 1799.37 40.6435 1799.37 41.3565 1796.51 41.3565ZM1801.5 40.6435 1804.36 40.6435 1804.36 41.3565 1801.5 41.3565ZM1806.5 40.6435 1809.35 40.6435 1809.35 41.3565 1806.5 41.3565ZM1811.49 40.6435 1814.34 40.6435 1814.34 41.3565 1811.49 41.3565ZM1816.48 40.6435 1819.33 40.6435 1819.33 41.3565 1816.48 41.3565ZM1821.47 40.6435 1824.32 40.6435 1824.32 41.3565 1821.47 41.3565ZM1826.46 40.6435 1829.31 40.6435 1829.31 41.3565 1826.46 41.3565ZM1831.45 40.6435 1834.3 40.6435 1834.3 41.3565 1831.45 41.3565ZM1836.44 40.6435 1839.3 40.6435 1839.3 41.3565 1836.44 41.3565ZM1840.48 38.8609 1844.75 41 1840.48 43.1391Z" fill="#000000" fill-rule="nonzero" fill-opacity="1" transform="matrix(1.00007 0 0 1 -1650.81 -32.087)"/></g></g></svg>