<svg width="328" height="628" xmlns="http://www.w3.org/2000/svg" xmlns:xlink="http://www.w3.org/1999/xlink" xml:space="preserve" overflow="hidden"><g><g><g><g><g><path d="M0.426531-2.23264e-07 0.426595 124.059-0.426466 124.059-0.426531 2.23264e-07ZM1.70619 123.205 6.717e-05 128.323-1.70606 123.205Z" fill="#000000" fill-rule="nonzero" fill-opacity="1" transform="matrix(1.00085 0 0 -1 74.2794 605.609)"/><path d="M74.2163 126.893C74.2163 89.7911 104.484 59.7143 141.821 59.7143 179.159 59.7143 209.427 89.7911 209.427 126.893 209.427 126.902 209.427 126.911 209.427 126.92L141.821 126.893Z" stroke="#7F7F7F" stroke-width="0.853061" stroke-linecap="square" stroke-linejoin="miter" stroke-miterlimit="8" stroke-dasharray="2.55918 0.853061" stroke-opacity="1" fill="none" fill-rule="evenodd" transform="matrix(1.00085 0 0 1 -11.0992 0)"/><path d="M204.535 90.9419 167.2 60.1408" stroke="#7F7F7F" stroke-width="0.853061" stroke-linecap="butt" stroke-linejoin="miter" stroke-miterlimit="8" stroke-opacity="1" fill="none" fill-rule="evenodd" transform="matrix(1.00085 0 0 1 -11.0992 0)"/><path d="M0 0 67.2553 6.717e-05" stroke="#7F7F7F" stroke-width="0.853061" stroke-linecap="butt" stroke-linejoin="miter" stroke-miterlimit="8" stroke-opacity="1" fill="none" fill-rule="evenodd" transform="matrix(-1.00085 0 0 1 173.609 49.9041)"/><path d="M0 0 109.506 111.635" stroke="#000000" stroke-width="0.853061" stroke-linecap="butt" stroke-linejoin="miter" stroke-miterlimit="8" stroke-opacity="1" fill="none" fill-rule="evenodd" transform="matrix(1.00085 0 0 -1 64.0339 126.137)"/><path d="M192.579 126.04C191.824 104.464 191.07 82.8873 184.175 70.2338 177.279 57.5799 164.242 53.8486 151.205 50.1173" stroke="#E97132" stroke-width="1.27959" stroke-linecap="butt" stroke-linejoin="miter" stroke-miterlimit="8" stroke-opacity="1" fill="none" fill-rule="evenodd" transform="matrix(1.00085 0 0 1 -11.0992 0)"/><path d="M0.426531-1.173e-06 0.426586 20.1594-0.426475 20.1594-0.426531 1.173e-06ZM2.55923 19.3063 6.717e-05 24.4247-2.55913 19.3063Z" fill="#A02B93" fill-rule="nonzero" fill-opacity="1" transform="matrix(1.00085 0 0 -1 138.74 49.1636)"/><path d="M0.426531-2.73475e-07 0.426595 100.498-0.426466 100.498-0.426531 2.73475e-07ZM1.70619 99.6448 6.717e-05 104.763-1.70606 99.6448Z" fill="#000000" fill-rule="nonzero" fill-opacity="1" transform="matrix(1.00085 0 0 -1 63.1802 138.459)"/><path d="M58.8612 126.68 286.742 126.68 286.742 127.533 58.8612 127.533ZM285.888 125.4 291.006 127.106 285.888 128.812Z" fill="#000000" fill-rule="nonzero" fill-opacity="1" transform="matrix(1.00085 0 0 1 -11.0992 0)"/><text fill="#000000" fill-opacity="1" font-family="Cambria Math,Cambria Math_MSFontService,sans-serif" font-style="normal" font-variant="normal" font-weight="400" font-stretch="normal" font-size="22" text-anchor="start" direction="ltr" writing-mode="lr-tb" unicode-bidi="normal" text-decoration="none" transform="matrix(0.426893 0 0 0.426531 60.3981 28)">𝑞</text><text fill="#000000" fill-opacity="1" font-family="Cambria Math,Cambria Math_MSFontService,sans-serif" font-style="normal" font-variant="normal" font-weight="400" font-stretch="normal" font-size="22" text-anchor="start" direction="ltr" writing-mode="lr-tb" unicode-bidi="normal" text-decoration="none" transform="matrix(0.426893 0 0 0.426531 285.608 131)">𝑝</text><text fill="#000000" fill-opacity="1" font-family="Cambria Math,Cambria Math_MSFontService,sans-serif" font-style="normal" font-variant="normal" font-weight="400" font-stretch="normal" font-size="16" text-anchor="start" direction="ltr" writing-mode="lr-tb" unicode-bidi="normal" text-decoration="none" transform="matrix(0.426893 0 0 0.426531 291.042 127)">′</text><text fill="#000000" fill-opacity="1" font-family="Cambria Math,Cambria Math_MSFontService,sans-serif" font-style="normal" font-variant="normal" font-weight="400" font-stretch="normal" font-size="22" text-anchor="start" direction="ltr" writing-mode="lr-tb" unicode-bidi="normal" text-decoration="none" transform="matrix(0.426893 0 0 0.426531 57.5396 290)">𝜀</text><text fill="#000000" fill-opacity="1" font-family="Cambria Math,Cambria Math_MSFontService,sans-serif" font-style="normal" font-variant="normal" font-weight="400" font-stretch="normal" font-size="16" text-anchor="start" direction="ltr" writing-mode="lr-tb" unicode-bidi="normal" text-decoration="none" transform="matrix(0.426893 0 0 0.426531 61.6421 292)">nv</text><text fill="#000000" fill-opacity="1" font-family="Cambria Math,Cambria Math_MSFontService,sans-serif" font-style="normal" font-variant="normal" font-weight="400" font-stretch="normal" font-size="16" text-anchor="start" direction="ltr" writing-mode="lr-tb" unicode-bidi="normal" text-decoration="none" transform="matrix(0.426893 0 0 0.426531 62.3379 285)">vp</text><path d="M59.2878 188.527 287.168 188.527 287.168 189.38 59.2878 189.38ZM286.315 187.247 291.433 188.953 286.315 190.659Z" fill="#000000" fill-rule="nonzero" fill-opacity="1" transform="matrix(1.00085 0 0 1 -11.0992 0)"/><path d="M75.0694 179.569 75.0694 270.236 74.2163 270.236 74.2163 179.569ZM76.349 269.383 74.6429 274.501 72.9367 269.383Z" fill="#000000" fill-rule="nonzero" fill-opacity="1" transform="matrix(1.00085 0 0 1 -11.0992 0)"/><text fill="#000000" fill-opacity="1" font-family="Cambria Math,Cambria Math_MSFontService,sans-serif" font-style="normal" font-variant="normal" font-weight="400" font-stretch="normal" font-size="22" text-anchor="start" direction="ltr" writing-mode="lr-tb" unicode-bidi="normal" text-decoration="none" transform="matrix(0.426893 0 0 0.426531 284.919 192)">ln</text><text fill="#000000" fill-opacity="1" font-family="Cambria Math,Cambria Math_MSFontService,sans-serif" font-style="normal" font-variant="normal" font-weight="400" font-stretch="normal" font-size="22" text-anchor="start" direction="ltr" writing-mode="lr-tb" unicode-bidi="normal" text-decoration="none" transform="matrix(0.426893 0 0 0.426531 292.389 192)"> </text><text fill="#000000" fill-opacity="1" font-family="Cambria Math,Cambria Math_MSFontService,sans-serif" font-style="normal" font-variant="normal" font-weight="400" font-stretch="normal" font-size="22" text-anchor="start" direction="ltr" writing-mode="lr-tb" unicode-bidi="normal" text-decoration="none" transform="matrix(0.426893 0 0 0.426531 294.31 192)">𝑝</text><text fill="#000000" fill-opacity="1" font-family="Cambria Math,Cambria Math_MSFontService,sans-serif" font-style="normal" font-variant="normal" font-weight="400" font-stretch="normal" font-size="16" text-anchor="start" direction="ltr" writing-mode="lr-tb" unicode-bidi="normal" text-decoration="none" transform="matrix(0.426893 0 0 0.426531 299.04 194)">𝐸</text><text fill="#000000" fill-opacity="1" font-family="Cambria Math,Cambria Math_MSFontService,sans-serif" font-style="normal" font-variant="normal" font-weight="400" font-stretch="normal" font-size="16" text-anchor="start" direction="ltr" writing-mode="lr-tb" unicode-bidi="normal" text-decoration="none" transform="matrix(0.426893 0 0 0.426531 299.527 188)">′</text><path d="M177.437 188.953 177.437 212.233" stroke="#00B050" stroke-width="0.853061" stroke-linecap="square" stroke-linejoin="miter" stroke-miterlimit="8" stroke-dasharray="2.55918 0.853061" stroke-opacity="1" fill="none" fill-rule="evenodd" transform="matrix(1.00085 0 0 1 -11.0992 0)"/><path d="M193.218 188.953 193.218 221.616" stroke="#00B050" stroke-width="0.853061" stroke-linecap="square" stroke-linejoin="miter" stroke-miterlimit="8" stroke-dasharray="2.55918 0.853061" stroke-opacity="1" fill="none" fill-rule="evenodd" transform="matrix(1.00085 0 0 1 -11.0992 0)"/><path d="M176.584 195.778 188.158 195.778 188.158 196.631 176.584 196.631ZM187.305 193.645 192.424 196.204 187.305 198.763Z" fill="#00B050" fill-rule="nonzero" fill-opacity="1" transform="matrix(1.00085 0 0 1 -11.0992 0)"/><path d="M138.196 188.953 276.93 270.742" stroke="#000000" stroke-width="0.853061" stroke-linecap="butt" stroke-linejoin="miter" stroke-miterlimit="8" stroke-opacity="1" fill="none" fill-rule="evenodd" transform="matrix(1.00085 0 0 1 -11.0992 0)"/><text fill="#A02B93" fill-opacity="1" font-family="Cambria Math,Cambria Math_MSFontService,sans-serif" font-style="normal" font-variant="normal" font-weight="400" font-stretch="normal" font-size="18" text-anchor="start" direction="ltr" writing-mode="lr-tb" unicode-bidi="normal" text-decoration="none" transform="matrix(0.426893 0 0 0.426531 179.404 241)">𝑑</text><text fill="#A02B93" fill-opacity="1" font-family="Cambria Math,Cambria Math_MSFontService,sans-serif" font-style="normal" font-variant="normal" font-weight="400" font-stretch="normal" font-size="18" text-anchor="start" direction="ltr" writing-mode="lr-tb" unicode-bidi="normal" text-decoration="none" transform="matrix(0.426893 0 0 0.426531 183.887 241)">𝜀</text><text fill="#A02B93" fill-opacity="1" font-family="Cambria Math,Cambria Math_MSFontService,sans-serif" font-style="normal" font-variant="normal" font-weight="400" font-stretch="normal" font-size="14" text-anchor="start" direction="ltr" writing-mode="lr-tb" unicode-bidi="normal" text-decoration="none" transform="matrix(0.426893 0 0 0.426531 187.272 243)">𝑣</text><text fill="#A02B93" fill-opacity="1" font-family="Cambria Math,Cambria Math_MSFontService,sans-serif" font-style="normal" font-variant="normal" font-weight="400" font-stretch="normal" font-size="14" text-anchor="start" direction="ltr" writing-mode="lr-tb" unicode-bidi="normal" text-decoration="none" transform="matrix(0.426893 0 0 0.426531 187.84 237)">p</text><text fill="#A02B93" fill-opacity="1" font-family="Cambria Math,Cambria Math_MSFontService,sans-serif" font-style="normal" font-variant="normal" font-weight="400" font-stretch="normal" font-size="18" text-anchor="start" direction="ltr" writing-mode="lr-tb" unicode-bidi="normal" text-decoration="none" transform="matrix(0.426893 0 0 0.426531 193.816 241)">=</text><text fill="#A02B93" fill-opacity="1" font-family="Cambria Math,Cambria Math_MSFontService,sans-serif" font-style="normal" font-variant="normal" font-weight="400" font-stretch="normal" font-size="18" text-anchor="start" direction="ltr" writing-mode="lr-tb" unicode-bidi="normal" text-decoration="none" transform="matrix(0.426893 0 0 0.426531 201.714 241)">0</text><path d="M74.2163 126.893C74.2163 94.5025 100.57 68.2449 133.078 68.2449 165.586 68.2449 191.939 94.5025 191.939 126.893 191.939 127.031 191.938 127.17 191.938 127.308L133.078 126.893Z" stroke="#7F7F7F" stroke-width="0.853061" stroke-linecap="butt" stroke-linejoin="miter" stroke-miterlimit="8" stroke-dasharray="3.41224 2.55918" stroke-opacity="1" fill="none" fill-rule="evenodd" transform="matrix(1.00085 0 0 1 -11.0992 0)"/><path d="M74.2163 126.68C74.2163 84.2778 108.686 49.9041 151.205 49.9041 193.725 49.9041 228.194 84.2778 228.194 126.68 228.194 126.69 228.194 126.7 228.194 126.711L151.205 126.68Z" stroke="#7F7F7F" stroke-width="0.853061" stroke-linecap="butt" stroke-linejoin="miter" stroke-miterlimit="8" stroke-opacity="1" fill="none" fill-rule="evenodd" transform="matrix(1.00085 0 0 1 -11.0992 0)"/><path d="M1.27848e-06-0.639796 29.3489-0.639736 29.3488 0.639856-1.27848e-06 0.639796ZM28.4958-2.55913 33.6142 6.717e-05 28.4958 2.55924Z" fill="#00B050" fill-rule="nonzero" fill-opacity="1" transform="matrix(1.00085 0 0 -1 183.777 127.319)"/><text fill="#A02B93" fill-opacity="1" font-family="Cambria Math,Cambria Math_MSFontService,sans-serif" font-style="normal" font-variant="normal" font-weight="400" font-stretch="normal" font-size="18" text-anchor="start" direction="ltr" writing-mode="lr-tb" unicode-bidi="normal" text-decoration="none" transform="matrix(0.426893 0 0 0.426531 132.535 20)">𝑑</text><text fill="#A02B93" fill-opacity="1" font-family="Cambria Math,Cambria Math_MSFontService,sans-serif" font-style="normal" font-variant="normal" font-weight="400" font-stretch="normal" font-size="18" text-anchor="start" direction="ltr" writing-mode="lr-tb" unicode-bidi="normal" text-decoration="none" transform="matrix(0.426893 0 0 0.426531 137.018 20)">𝜀</text><text fill="#A02B93" fill-opacity="1" font-family="Cambria Math,Cambria Math_MSFontService,sans-serif" font-style="normal" font-variant="normal" font-weight="400" font-stretch="normal" font-size="14" text-anchor="start" direction="ltr" writing-mode="lr-tb" unicode-bidi="normal" text-decoration="none" transform="matrix(0.426893 0 0 0.426531 140.403 22)">𝑑</text><text fill="#A02B93" fill-opacity="1" font-family="Cambria Math,Cambria Math_MSFontService,sans-serif" font-style="normal" font-variant="normal" font-weight="400" font-stretch="normal" font-size="14" text-anchor="start" direction="ltr" writing-mode="lr-tb" unicode-bidi="normal" text-decoration="none" transform="matrix(0.426893 0 0 0.426531 140.971 15)">p</text><text fill="#000000" fill-opacity="1" font-family="Arial,Arial_MSFontService,sans-serif" font-style="normal" font-variant="normal" font-weight="400" font-stretch="normal" font-size="18" text-anchor="start" direction="ltr" writing-mode="lr-tb" unicode-bidi="normal" text-decoration="none" transform="matrix(0.426893 0 0 0.426531 173.803 11)">CSL</text><text fill="#E59EDD" fill-opacity="1" font-family="Cambria Math,Cambria Math_MSFontService,sans-serif" font-style="normal" font-variant="normal" font-weight="400" font-stretch="normal" font-size="18" text-anchor="start" direction="ltr" writing-mode="lr-tb" unicode-bidi="normal" text-decoration="none" transform="matrix(0.426893 0 0 0.426531 158.434 241)">𝑑</text><text fill="#E59EDD" fill-opacity="1" font-family="Cambria Math,Cambria Math_MSFontService,sans-serif" font-style="normal" font-variant="normal" font-weight="400" font-stretch="normal" font-size="18" text-anchor="start" direction="ltr" writing-mode="lr-tb" unicode-bidi="normal" text-decoration="none" transform="matrix(0.426893 0 0 0.426531 162.916 241)">𝜀</text><text fill="#E59EDD" fill-opacity="1" font-family="Cambria Math,Cambria Math_MSFontService,sans-serif" font-style="normal" font-variant="normal" font-weight="400" font-stretch="normal" font-size="14" text-anchor="start" direction="ltr" writing-mode="lr-tb" unicode-bidi="normal" text-decoration="none" transform="matrix(0.426893 0 0 0.426531 166.302 244)">𝑣</text><text fill="#E59EDD" fill-opacity="1" font-family="Cambria Math,Cambria Math_MSFontService,sans-serif" font-style="normal" font-variant="normal" font-weight="400" font-stretch="normal" font-size="14" text-anchor="start" direction="ltr" writing-mode="lr-tb" unicode-bidi="normal" text-decoration="none" transform="matrix(0.426893 0 0 0.426531 166.869 238)">p</text><path d="M187.247 217.957 187.247 227.999 186.394 227.999 186.394 217.957ZM189.38 227.146 186.82 232.264 184.261 227.146Z" fill="#E59EDD" fill-rule="nonzero" fill-opacity="1" transform="matrix(1.00085 0 0 1 -11.0992 0)"/><text fill="#00B050" fill-opacity="1" font-family="Cambria Math,Cambria Math_MSFontService,sans-serif" font-style="normal" font-variant="normal" font-weight="400" font-stretch="normal" font-size="18" text-anchor="start" direction="ltr" writing-mode="lr-tb" unicode-bidi="normal" text-decoration="none" transform="matrix(0.426893 0 0 0.426531 207.632 138)">𝑝</text><text fill="#00B050" fill-opacity="1" font-family="Cambria Math,Cambria Math_MSFontService,sans-serif" font-style="normal" font-variant="normal" font-weight="400" font-stretch="normal" font-size="14" text-anchor="start" direction="ltr" writing-mode="lr-tb" unicode-bidi="normal" text-decoration="none" transform="matrix(0.426893 0 0 0.426531 211.658 139)">𝑦𝑙𝑑</text><text fill="#00B050" fill-opacity="1" font-family="Cambria Math,Cambria Math_MSFontService,sans-serif" font-style="normal" font-variant="normal" font-weight="400" font-stretch="normal" font-size="14" text-anchor="start" direction="ltr" writing-mode="lr-tb" unicode-bidi="normal" text-decoration="none" transform="matrix(0.426893 0 0 0.426531 212.072 135)">′</text><text fill="#00B050" fill-opacity="1" font-family="Cambria Math,Cambria Math_MSFontService,sans-serif" font-style="normal" font-variant="normal" font-weight="400" font-stretch="normal" font-size="18" text-anchor="start" direction="ltr" writing-mode="lr-tb" unicode-bidi="normal" text-decoration="none" transform="matrix(0.426893 0 0 0.426531 100.159 150)">𝑝</text><text fill="#00B050" fill-opacity="1" font-family="Cambria Math,Cambria Math_MSFontService,sans-serif" font-style="normal" font-variant="normal" font-weight="400" font-stretch="normal" font-size="14" text-anchor="start" direction="ltr" writing-mode="lr-tb" unicode-bidi="normal" text-decoration="none" transform="matrix(0.426893 0 0 0.426531 104.185 152)">𝑦𝑙𝑑0</text><text fill="#00B050" fill-opacity="1" font-family="Cambria Math,Cambria Math_MSFontService,sans-serif" font-style="normal" font-variant="normal" font-weight="400" font-stretch="normal" font-size="14" text-anchor="start" direction="ltr" writing-mode="lr-tb" unicode-bidi="normal" text-decoration="none" transform="matrix(0.426893 0 0 0.426531 104.599 147)">′</text><text fill="#00B050" fill-opacity="1" font-family="Cambria Math,Cambria Math_MSFontService,sans-serif" font-style="normal" font-variant="normal" font-weight="400" font-stretch="normal" font-size="18" text-anchor="start" direction="ltr" writing-mode="lr-tb" unicode-bidi="normal" text-decoration="none" transform="matrix(0.426893 0 0 0.426531 157.6 183)">𝑝</text><text fill="#00B050" fill-opacity="1" font-family="Cambria Math,Cambria Math_MSFontService,sans-serif" font-style="normal" font-variant="normal" font-weight="400" font-stretch="normal" font-size="14" text-anchor="start" direction="ltr" writing-mode="lr-tb" unicode-bidi="normal" text-decoration="none" transform="matrix(0.426893 0 0 0.426531 161.626 185)">𝑦𝑙𝑑0</text><text fill="#00B050" fill-opacity="1" font-family="Cambria Math,Cambria Math_MSFontService,sans-serif" font-style="normal" font-variant="normal" font-weight="400" font-stretch="normal" font-size="14" text-anchor="start" direction="ltr" writing-mode="lr-tb" unicode-bidi="normal" text-decoration="none" transform="matrix(0.426893 0 0 0.426531 162.04 180)">′</text><text fill="#00B050" fill-opacity="1" font-family="Cambria Math,Cambria Math_MSFontService,sans-serif" font-style="normal" font-variant="normal" font-weight="400" font-stretch="normal" font-size="18" text-anchor="start" direction="ltr" writing-mode="lr-tb" unicode-bidi="normal" text-decoration="none" transform="matrix(0.426893 0 0 0.426531 183.234 183)">𝑝</text><text fill="#00B050" fill-opacity="1" font-family="Cambria Math,Cambria Math_MSFontService,sans-serif" font-style="normal" font-variant="normal" font-weight="400" font-stretch="normal" font-size="14" text-anchor="start" direction="ltr" writing-mode="lr-tb" unicode-bidi="normal" text-decoration="none" transform="matrix(0.426893 0 0 0.426531 187.259 185)">𝑦𝑙𝑑</text><text fill="#00B050" fill-opacity="1" font-family="Cambria Math,Cambria Math_MSFontService,sans-serif" font-style="normal" font-variant="normal" font-weight="400" font-stretch="normal" font-size="14" text-anchor="start" direction="ltr" writing-mode="lr-tb" unicode-bidi="normal" text-decoration="none" transform="matrix(0.426893 0 0 0.426531 187.673 180)">′</text><path d="M197.484 96.8224 316.486 96.8224 316.486 121.561 197.484 121.561Z" fill="#FFFFFF" fill-rule="nonzero" fill-opacity="1" transform="matrix(1.00085 0 0 1 -11.0992 0)"/><text fill="#E97132" fill-opacity="1" font-family="Arial,Arial_MSFontService,sans-serif" font-style="normal" font-variant="normal" font-weight="400" font-stretch="normal" font-size="18" text-anchor="start" direction="ltr" writing-mode="lr-tb" unicode-bidi="normal" text-decoration="none" transform="matrix(0.426893 0 0 0.426531 192.874 107)">Effective stress path:</text><text fill="#E97132" fill-opacity="1" font-family="Arial,Arial_MSFontService,sans-serif" font-style="normal" font-variant="normal" font-weight="400" font-stretch="normal" font-size="18" text-anchor="start" direction="ltr" writing-mode="lr-tb" unicode-bidi="normal" text-decoration="none" transform="matrix(0.426893 0 0 0.426531 192.874 117)">Undrained triaxial compression</text><path d="M208.573 212.839 222.536 212.839" stroke="#000000" stroke-width="0.853061" stroke-linecap="butt" stroke-linejoin="miter" stroke-miterlimit="8" stroke-opacity="1" fill="none" fill-rule="evenodd" transform="matrix(1.00085 0 0 1 -11.0992 0)"/><path d="M0 0 9.29359 12.3694" stroke="#000000" stroke-width="0.853061" stroke-linecap="butt" stroke-linejoin="miter" stroke-miterlimit="8" stroke-opacity="1" fill="none" fill-rule="evenodd" transform="matrix(-1.00085 0 0 1 197.561 212.839)"/><text fill="#000000" fill-opacity="1" font-family="Arial,Arial_MSFontService,sans-serif" font-style="normal" font-variant="normal" font-weight="400" font-stretch="normal" font-size="18" text-anchor="start" direction="ltr" writing-mode="lr-tb" unicode-bidi="normal" text-decoration="none" transform="matrix(0.426893 0 0 0.426531 215.356 216)">Volumetric hardening path:</text><text fill="#000000" fill-opacity="1" font-family="Arial,Arial_MSFontService,sans-serif" font-style="normal" font-variant="normal" font-weight="400" font-stretch="normal" font-size="18" text-anchor="start" direction="ltr" writing-mode="lr-tb" unicode-bidi="normal" text-decoration="none" transform="matrix(0.426893 0 0 0.426531 215.356 225)">Slope of </text><text fill="#000000" fill-opacity="1" font-family="Cambria Math,Cambria Math_MSFontService,sans-serif" font-style="normal" font-variant="normal" font-weight="400" font-stretch="normal" font-size="18" text-anchor="start" direction="ltr" writing-mode="lr-tb" unicode-bidi="normal" text-decoration="none" transform="matrix(0.426893 0 0 0.426531 245.665 225)">𝜆</text><text fill="#000000" fill-opacity="1" font-family="Cambria Math,Cambria Math_MSFontService,sans-serif" font-style="normal" font-variant="normal" font-weight="400" font-stretch="normal" font-size="14" text-anchor="start" direction="ltr" writing-mode="lr-tb" unicode-bidi="normal" text-decoration="none" transform="matrix(0.426893 0 0 0.426531 249.503 222)">∗</text><text fill="#000000" fill-opacity="1" font-family="Cambria Math,Cambria Math_MSFontService,sans-serif" font-style="normal" font-variant="normal" font-weight="400" font-stretch="normal" font-size="18" text-anchor="start" direction="ltr" writing-mode="lr-tb" unicode-bidi="normal" text-decoration="none" transform="matrix(0.426893 0 0 0.426531 254.199 225)">−</text><text fill="#000000" fill-opacity="1" font-family="Cambria Math,Cambria Math_MSFontService,sans-serif" font-style="normal" font-variant="normal" font-weight="400" font-stretch="normal" font-size="18" text-anchor="start" direction="ltr" writing-mode="lr-tb" unicode-bidi="normal" text-decoration="none" transform="matrix(0.426893 0 0 0.426531 261.669 225)">𝜅</text><text fill="#000000" fill-opacity="1" font-family="Cambria Math,Cambria Math_MSFontService,sans-serif" font-style="normal" font-variant="normal" font-weight="400" font-stretch="normal" font-size="14" text-anchor="start" direction="ltr" writing-mode="lr-tb" unicode-bidi="normal" text-decoration="none" transform="matrix(0.426893 0 0 0.426531 266.186 222)">∗</text><path d="M177.01 142.035 279.804 142.035 279.804 157.816 177.01 157.816Z" fill="#FFFFFF" fill-rule="nonzero" fill-opacity="1" transform="matrix(1.00085 0 0 1 -11.0992 0)"/><text fill="#00B050" fill-opacity="1" font-family="Arial,Arial_MSFontService,sans-serif" font-style="normal" font-variant="normal" font-weight="400" font-stretch="normal" font-size="18" text-anchor="start" direction="ltr" writing-mode="lr-tb" unicode-bidi="normal" text-decoration="none" transform="matrix(0.426893 0 0 0.426531 172.23 153)">Expansion of yield surface</text><path d="M205.161 45.2122 315.633 45.2122 315.633 70.3775 205.161 70.3775Z" fill="#FFFFFF" fill-rule="nonzero" fill-opacity="1" transform="matrix(1.00085 0 0 1 -11.0992 0)"/><text fill="#D86ECC" fill-opacity="1" font-family="Cambria Math,Cambria Math_MSFontService,sans-serif" font-style="normal" font-variant="normal" font-weight="400" font-stretch="normal" font-size="18" text-anchor="start" direction="ltr" writing-mode="lr-tb" unicode-bidi="normal" text-decoration="none" transform="matrix(0.426893 0 0 0.426531 200.54 56)">𝑂</text><text fill="#D86ECC" fill-opacity="1" font-family="Cambria Math,Cambria Math_MSFontService,sans-serif" font-style="normal" font-variant="normal" font-weight="400" font-stretch="normal" font-size="18" text-anchor="start" direction="ltr" writing-mode="lr-tb" unicode-bidi="normal" text-decoration="none" transform="matrix(0.426893 0 0 0.426531 205.957 56)">~</text><text fill="#D86ECC" fill-opacity="1" font-family="Cambria Math,Cambria Math_MSFontService,sans-serif" font-style="normal" font-variant="normal" font-weight="400" font-stretch="normal" font-size="18" text-anchor="start" direction="ltr" writing-mode="lr-tb" unicode-bidi="normal" text-decoration="none" transform="matrix(0.426893 0 0 0.426531 211.4 56)">𝐵</text><text fill="#D86ECC" fill-opacity="1" font-family="Arial,Arial_MSFontService,sans-serif" font-style="normal" font-variant="normal" font-weight="400" font-stretch="normal" font-size="18" text-anchor="start" direction="ltr" writing-mode="lr-tb" unicode-bidi="normal" text-decoration="none" transform="matrix(0.426893 0 0 0.426531 216.621 56)">:</text><text fill="#D86ECC" fill-opacity="1" font-family="Arial,Arial_MSFontService,sans-serif" font-style="normal" font-variant="normal" font-weight="400" font-stretch="normal" font-size="18" text-anchor="start" direction="ltr" writing-mode="lr-tb" unicode-bidi="normal" text-decoration="none" transform="matrix(0.426893 0 0 0.426531 200.54 66)">Elasto</text><text fill="#D86ECC" fill-opacity="1" font-family="Arial,Arial_MSFontService,sans-serif" font-style="normal" font-variant="normal" font-weight="400" font-stretch="normal" font-size="18" text-anchor="start" direction="ltr" writing-mode="lr-tb" unicode-bidi="normal" text-decoration="none" transform="matrix(0.426893 0 0 0.426531 221.884 66)">-</text><text fill="#D86ECC" fill-opacity="1" font-family="Arial,Arial_MSFontService,sans-serif" font-style="normal" font-variant="normal" font-weight="400" font-stretch="normal" font-size="18" text-anchor="start" direction="ltr" writing-mode="lr-tb" unicode-bidi="normal" text-decoration="none" transform="matrix(0.426893 0 0 0.426531 224.446 66)">plastic deformation</text><path d="M184.261 18.3408 298.998 18.3408 298.998 43.5061 184.261 43.5061Z" fill="#FFFFFF" fill-rule="nonzero" fill-opacity="1" transform="matrix(1.00085 0 0 1 -11.0992 0)"/><text fill="#A02B93" fill-opacity="1" font-family="Cambria Math,Cambria Math_MSFontService,sans-serif" font-style="normal" font-variant="normal" font-weight="400" font-stretch="normal" font-size="18" text-anchor="start" direction="ltr" writing-mode="lr-tb" unicode-bidi="normal" text-decoration="none" transform="matrix(0.426893 0 0 0.426531 179.641 29)">𝐵</text><text fill="#A02B93" fill-opacity="1" font-family="Arial,Arial_MSFontService,sans-serif" font-style="normal" font-variant="normal" font-weight="400" font-stretch="normal" font-size="18" text-anchor="start" direction="ltr" writing-mode="lr-tb" unicode-bidi="normal" text-decoration="none" transform="matrix(0.426893 0 0 0.426531 184.862 29)">: Rigid</text><text fill="#A02B93" fill-opacity="1" font-family="Arial,Arial_MSFontService,sans-serif" font-style="normal" font-variant="normal" font-weight="400" font-stretch="normal" font-size="18" text-anchor="start" direction="ltr" writing-mode="lr-tb" unicode-bidi="normal" text-decoration="none" transform="matrix(0.426893 0 0 0.426531 206.633 29)">-</text><text fill="#A02B93" fill-opacity="1" font-family="Arial,Arial_MSFontService,sans-serif" font-style="normal" font-variant="normal" font-weight="400" font-stretch="normal" font-size="18" text-anchor="start" direction="ltr" writing-mode="lr-tb" unicode-bidi="normal" text-decoration="none" transform="matrix(0.426893 0 0 0.426531 209.195 29)">plastic deformation</text><text fill="#A02B93" fill-opacity="1" font-family="Arial,Arial_MSFontService,sans-serif" font-style="normal" font-variant="normal" font-weight="400" font-stretch="normal" font-size="18" text-anchor="start" direction="ltr" writing-mode="lr-tb" unicode-bidi="normal" text-decoration="none" transform="matrix(0.426893 0 0 0.426531 188.179 39)">(No volume change)</text><text fill="#000000" fill-opacity="1" font-family="Cambria Math,Cambria Math_MSFontService,sans-serif" font-style="normal" font-variant="normal" font-weight="400" font-stretch="normal" font-size="22" text-anchor="start" direction="ltr" writing-mode="lr-tb" unicode-bidi="normal" text-decoration="none" transform="matrix(0.426893 0 0 0.426531 57.2754 437)">𝜀</text><text fill="#000000" fill-opacity="1" font-family="Cambria Math,Cambria Math_MSFontService,sans-serif" font-style="normal" font-variant="normal" font-weight="400" font-stretch="normal" font-size="16" text-anchor="start" direction="ltr" writing-mode="lr-tb" unicode-bidi="normal" text-decoration="none" transform="matrix(0.426893 0 0 0.426531 61.3778 438)">nv</text><path d="M58.8612 334.4 286.742 334.4 286.742 335.253 58.8612 335.253ZM285.888 333.12 291.006 334.827 285.888 336.533Z" fill="#000000" fill-rule="nonzero" fill-opacity="1" transform="matrix(1.00085 0 0 1 -11.0992 0)"/><path d="M74.6429 325.443 74.6429 416.11 73.7898 416.11 73.7898 325.443ZM75.9224 415.257 74.2163 420.375 72.5102 415.257Z" fill="#000000" fill-rule="nonzero" fill-opacity="1" transform="matrix(1.00085 0 0 1 -11.0992 0)"/><path d="M137.769 334.827 276.504 416.615" stroke="#000000" stroke-width="0.853061" stroke-linecap="butt" stroke-linejoin="miter" stroke-miterlimit="8" stroke-opacity="1" fill="none" fill-rule="evenodd" transform="matrix(1.00085 0 0 1 -11.0992 0)"/><text fill="#000000" fill-opacity="1" font-family="Arial,Arial_MSFontService,sans-serif" font-style="normal" font-variant="normal" font-weight="400" font-stretch="normal" font-size="18" text-anchor="start" direction="ltr" writing-mode="lr-tb" unicode-bidi="normal" text-decoration="none" transform="matrix(0.426893 0 0 0.426531 271.703 425)">ICL</text><text fill="#000000" fill-opacity="1" font-family="Arial,Arial_MSFontService,sans-serif" font-style="normal" font-variant="normal" font-weight="400" font-stretch="normal" font-size="22" text-anchor="start" direction="ltr" writing-mode="lr-tb" unicode-bidi="normal" text-decoration="none" transform="matrix(0.426893 0 0 0.426531 120.693 165)">(a) Effective stress plane</text><text fill="#000000" fill-opacity="1" font-family="Arial,Arial_MSFontService,sans-serif" font-style="normal" font-variant="normal" font-weight="400" font-stretch="normal" font-size="22" text-anchor="start" direction="ltr" writing-mode="lr-tb" unicode-bidi="normal" text-decoration="none" transform="matrix(0.426893 0 0 0.426531 70.898 311)">(b) Hypothetical equivalent isotropic compression plane</text><text fill="#000000" fill-opacity="1" font-family="Arial,Arial_MSFontService,sans-serif" font-style="normal" font-variant="normal" font-weight="400" font-stretch="normal" font-size="22" text-anchor="start" direction="ltr" writing-mode="lr-tb" unicode-bidi="normal" text-decoration="none" transform="matrix(0.426893 0 0 0.426531 110.818 450)">(c) Observed compressive state</text><path d="M179.798 207.787 188.951 213.591 188.495 214.311 179.341 208.507ZM189.373 211.333 192.325 216.235 186.632 215.655Z" fill="#7F7F7F" fill-rule="nonzero" fill-opacity="1" transform="matrix(1.00085 0 0 1 -11.0992 0)"/><path d="M141.608 366.39 216.447 382.421" stroke="#7F7F7F" stroke-width="0.853061" stroke-linecap="butt" stroke-linejoin="miter" stroke-miterlimit="8" stroke-dasharray="3.41224 2.55918" stroke-opacity="1" fill="none" fill-rule="evenodd" transform="matrix(1.00085 0 0 1 -11.0992 0)"/><path d="M144.381 383.238 217.36 383.238" stroke="#E97132" stroke-width="1.27959" stroke-linecap="butt" stroke-linejoin="miter" stroke-miterlimit="8" stroke-opacity="1" fill="none" fill-rule="evenodd" transform="matrix(1.00085 0 0 1 -11.0992 0)"/><path d="M140.329 382.385C140.329 381.56 141.092 380.892 142.035 380.892 142.977 380.892 143.741 381.56 143.741 382.385 143.741 383.209 142.977 383.878 142.035 383.878 141.092 383.878 140.329 383.209 140.329 382.385Z" stroke="#7F7F7F" stroke-width="0.853061" stroke-linecap="butt" stroke-linejoin="miter" stroke-miterlimit="8" stroke-opacity="1" fill="#FFFFFF" fill-rule="evenodd" fill-opacity="1" transform="matrix(1.00085 0 0 1 -11.0992 0)"/><path d="M191.331 372.294 153.383 364.663 153.551 363.827 191.499 371.458ZM153.799 366.922 149.286 363.404 154.808 361.904Z" fill="#7F7F7F" fill-rule="nonzero" fill-opacity="1" transform="matrix(1.00085 0 0 1 -11.0992 0)"/><text fill="#000000" fill-opacity="1" font-family="Arial,Arial_MSFontService,sans-serif" font-style="normal" font-variant="normal" font-weight="400" font-stretch="normal" font-size="18" text-anchor="start" direction="ltr" writing-mode="lr-tb" unicode-bidi="normal" text-decoration="none" transform="matrix(0.426893 0 0 0.426531 192.253 426)">CSL</text><path d="M6.0244e-07-0.426531 43.2916-0.42647 43.2916 0.42659-6.0244e-07 0.426531ZM42.4383-2.55912 47.5569 6.717e-05 42.4383 2.55924Z" fill="#E97132" fill-rule="nonzero" fill-opacity="1" transform="matrix(-1.00085 0 0 1 200.425 387.716)"/><text fill="#7F7F7F" fill-opacity="1" font-family="Arial,Arial_MSFontService,sans-serif" font-style="normal" font-variant="normal" font-weight="400" font-stretch="normal" font-size="18" text-anchor="start" direction="ltr" writing-mode="lr-tb" unicode-bidi="normal" text-decoration="none" transform="matrix(0.426893 0 0 0.426531 182.042 362)">Elastic response</text><text fill="#E97132" fill-opacity="1" font-family="Arial,Arial_MSFontService,sans-serif" font-style="normal" font-variant="normal" font-weight="400" font-stretch="normal" font-size="18" text-anchor="start" direction="ltr" writing-mode="lr-tb" unicode-bidi="normal" text-decoration="none" transform="matrix(0.426893 0 0 0.426531 166.571 400)">Total response</text><path d="M11.5163 364.684 141.608 364.684 141.608 389.422 11.5163 389.422Z" fill="#FFFFFF" fill-rule="nonzero" fill-opacity="1" transform="matrix(1.00085 0 0 1 -11.0992 0)"/><text fill="#A02B93" fill-opacity="1" font-family="Arial,Arial_MSFontService,sans-serif" font-style="normal" font-variant="normal" font-weight="400" font-stretch="normal" font-size="18" text-anchor="start" direction="ltr" writing-mode="lr-tb" unicode-bidi="normal" text-decoration="none" transform="matrix(0.426893 0 0 0.426531 6.57599 375)">Plastic volumetric strain</text><text fill="#A02B93" fill-opacity="1" font-family="Arial,Arial_MSFontService,sans-serif" font-style="normal" font-variant="normal" font-weight="400" font-stretch="normal" font-size="18" text-anchor="start" direction="ltr" writing-mode="lr-tb" unicode-bidi="normal" text-decoration="none" transform="matrix(0.426893 0 0 0.426531 6.57599 385)">to ensure the undrained condition</text><path d="M76.7755 344.21 198.78 416.136" stroke="#000000" stroke-width="0.853061" stroke-linecap="butt" stroke-linejoin="miter" stroke-miterlimit="8" stroke-opacity="1" fill="none" fill-rule="evenodd" transform="matrix(1.00085 0 0 1 -11.0992 0)"/><path d="M0.426552 4.26531 0.426599 12.5589-0.426464 12.5589-0.426508 4.26531ZM-2.55916 5.11837 0 0 2.55921 5.11837Z" fill="#A02B93" fill-rule="nonzero" fill-opacity="1" transform="matrix(1.00085 0 0 -1 130.629 380.228)"/><path d="M201.962 501.387 236.152 501.387" stroke="#E97132" stroke-width="1.27959" stroke-linecap="butt" stroke-linejoin="miter" stroke-miterlimit="8" stroke-opacity="1" fill="none" fill-rule="evenodd" transform="matrix(1.00085 0 0 1 -11.0992 0)"/><text fill="#000000" fill-opacity="1" font-family="Cambria Math,Cambria Math_MSFontService,sans-serif" font-style="normal" font-variant="normal" font-weight="400" font-stretch="normal" font-size="22" text-anchor="start" direction="ltr" writing-mode="lr-tb" unicode-bidi="normal" text-decoration="none" transform="matrix(0.426893 0 0 0.426531 256.531 601)">𝜀</text><text fill="#000000" fill-opacity="1" font-family="Cambria Math,Cambria Math_MSFontService,sans-serif" font-style="normal" font-variant="normal" font-weight="400" font-stretch="normal" font-size="16" text-anchor="start" direction="ltr" writing-mode="lr-tb" unicode-bidi="normal" text-decoration="none" transform="matrix(0.426893 0 0 0.426531 260.428 603)">𝑛𝑑</text><text fill="#000000" fill-opacity="1" font-family="Cambria Math,Cambria Math_MSFontService,sans-serif" font-style="normal" font-variant="normal" font-weight="400" font-stretch="normal" font-size="22" text-anchor="start" direction="ltr" writing-mode="lr-tb" unicode-bidi="normal" text-decoration="none" transform="matrix(0.426893 0 0 0.426531 78.1026 594)">𝑂</text><path d="M197.91 500.96C197.91 499.898 198.77 499.041 199.83 499.041 200.89 499.041 201.749 499.898 201.749 500.96 201.749 502.022 200.89 502.88 199.83 502.88 198.77 502.88 197.91 502.022 197.91 500.96Z" stroke="#000000" stroke-width="0.853061" stroke-linecap="butt" stroke-linejoin="miter" stroke-miterlimit="8" stroke-opacity="1" fill="#AEAEAE" fill-rule="evenodd" fill-opacity="1" transform="matrix(1.00085 0 0 1 -11.0992 0)"/><text fill="#000000" fill-opacity="1" font-family="Cambria Math,Cambria Math_MSFontService,sans-serif" font-style="normal" font-variant="normal" font-weight="400" font-stretch="normal" font-size="22" text-anchor="start" direction="ltr" writing-mode="lr-tb" unicode-bidi="normal" text-decoration="none" transform="matrix(0.426893 0 0 0.426531 90.8983 508)">𝐴</text><text fill="#000000" fill-opacity="1" font-family="Cambria Math,Cambria Math_MSFontService,sans-serif" font-style="normal" font-variant="normal" font-weight="400" font-stretch="normal" font-size="22" text-anchor="start" direction="ltr" writing-mode="lr-tb" unicode-bidi="normal" text-decoration="none" transform="matrix(0.426893 0 0 0.426531 187.648 495)">𝐵</text><text fill="#000000" fill-opacity="1" font-family="Arial,Arial_MSFontService,sans-serif" font-style="normal" font-variant="normal" font-weight="400" font-stretch="normal" font-size="22" text-anchor="start" direction="ltr" writing-mode="lr-tb" unicode-bidi="normal" text-decoration="none" transform="matrix(0.426893 0 0 0.426531 117.397 620)">(d) Observed deviatoric state</text><path d="M0.414737-0.099606 1.21159 3.21829 0.382112 3.4175-0.414737 0.099606ZM1.80922 5.70672 2.60607 9.02462 1.7766 9.22381 0.979749 5.90591ZM3.20371 11.513 4.00056 14.8309 3.17108 15.0301 2.37424 11.7122ZM4.59821 17.3194 5.39506 20.6373 4.56558 20.8365 3.76872 17.5186ZM5.99267 23.1257 6.24402 24.1722 5.41455 24.3714 5.1632 23.3249ZM7.28902 23.0439 7.62219 31.7371 3.97113 23.8408Z" fill="#E97132" fill-rule="nonzero" fill-opacity="1" transform="matrix(1.00085 0 0 -1 83.671 567.887)"/><path d="M66.9653 582.214 277.281 582.214 277.281 583.067 66.9653 583.067ZM276.427 580.935 281.546 582.641 276.427 584.347Z" fill="#000000" fill-rule="nonzero" fill-opacity="1" transform="matrix(1.00085 0 0 1 -11.0992 0)"/><path d="M85.5194 582.854C86.9632 555.467 88.4066 528.083 107.174 514.503 125.941 500.926 160.753 501.69 198.123 501.387" stroke="#E97132" stroke-width="1.27959" stroke-linecap="butt" stroke-linejoin="miter" stroke-miterlimit="8" stroke-opacity="1" fill="none" fill-rule="evenodd" transform="matrix(1.00085 0 0 1 -11.0992 0)"/><path d="M83.6 582.428C83.6 581.365 84.3639 580.508 85.3061 580.508 86.2483 580.508 87.0122 581.365 87.0122 582.428 87.0122 583.49 86.2483 584.347 85.3061 584.347 84.3639 584.347 83.6 583.49 83.6 582.428Z" stroke="#000000" stroke-width="0.853061" stroke-linecap="butt" stroke-linejoin="miter" stroke-miterlimit="8" stroke-opacity="1" fill="#AEAEAE" fill-rule="evenodd" fill-opacity="1" transform="matrix(1.00085 0 0 1 -11.0992 0)"/><path d="M104.927 515.675C104.927 514.733 105.69 513.969 106.633 513.969 107.575 513.969 108.339 514.733 108.339 515.675 108.339 516.618 107.575 517.382 106.633 517.382 105.69 517.382 104.927 516.618 104.927 515.675Z" stroke="#000000" stroke-width="0.853061" stroke-linecap="butt" stroke-linejoin="miter" stroke-miterlimit="8" stroke-opacity="1" fill="#AEAEAE" fill-rule="evenodd" fill-opacity="1" transform="matrix(1.00085 0 0 1 -11.0992 0)"/><path d="M190.233 126.253C190.233 125.311 191.092 124.547 192.152 124.547 193.212 124.547 194.071 125.311 194.071 126.253 194.071 127.195 193.212 127.959 192.152 127.959 191.092 127.959 190.233 127.195 190.233 126.253Z" stroke="#000000" stroke-width="0.853061" stroke-linecap="butt" stroke-linejoin="miter" stroke-miterlimit="8" stroke-opacity="1" fill="#AEAEAE" fill-rule="evenodd" fill-opacity="1" transform="matrix(1.00085 0 0 1 -11.0992 0)"/><path d="M185.114 77.202C185.114 76.2598 185.878 75.4959 186.82 75.4959 187.763 75.4959 188.527 76.2598 188.527 77.202 188.527 78.1442 187.763 78.9082 186.82 78.9082 185.878 78.9082 185.114 78.1442 185.114 77.202Z" stroke="#000000" stroke-width="0.853061" stroke-linecap="butt" stroke-linejoin="miter" stroke-miterlimit="8" stroke-opacity="1" fill="#AEAEAE" fill-rule="evenodd" fill-opacity="1" transform="matrix(1.00085 0 0 1 -11.0992 0)"/><path d="M148.006 49.6908C148.006 48.6309 148.866 47.7714 149.926 47.7714 150.985 47.7714 151.845 48.6309 151.845 49.6908 151.845 50.7507 150.985 51.6102 149.926 51.6102 148.866 51.6102 148.006 50.7507 148.006 49.6908Z" stroke="#000000" stroke-width="0.853061" stroke-linecap="butt" stroke-linejoin="miter" stroke-miterlimit="8" stroke-opacity="1" fill="#AEAEAE" fill-rule="evenodd" fill-opacity="1" transform="matrix(1.00085 0 0 1 -11.0992 0)"/><text fill="#000000" fill-opacity="1" font-family="Cambria Math,Cambria Math_MSFontService,sans-serif" font-style="normal" font-variant="normal" font-weight="400" font-stretch="normal" font-size="22" text-anchor="start" direction="ltr" writing-mode="lr-tb" unicode-bidi="normal" text-decoration="none" transform="matrix(0.426893 0 0 0.426531 168.987 123)">𝑂</text><text fill="#000000" fill-opacity="1" font-family="Cambria Math,Cambria Math_MSFontService,sans-serif" font-style="normal" font-variant="normal" font-weight="400" font-stretch="normal" font-size="22" text-anchor="start" direction="ltr" writing-mode="lr-tb" unicode-bidi="normal" text-decoration="none" transform="matrix(0.426893 0 0 0.426531 161.22 81)">𝐴</text><text fill="#000000" fill-opacity="1" font-family="Cambria Math,Cambria Math_MSFontService,sans-serif" font-style="normal" font-variant="normal" font-weight="400" font-stretch="normal" font-size="22" text-anchor="start" direction="ltr" writing-mode="lr-tb" unicode-bidi="normal" text-decoration="none" transform="matrix(0.426893 0 0 0.426531 128.862 46)">𝐵</text><path d="M155.257 383.024C155.257 382.082 156.021 381.318 156.963 381.318 157.905 381.318 158.669 382.082 158.669 383.024 158.669 383.967 157.905 384.731 156.963 384.731 156.021 384.731 155.257 383.967 155.257 383.024Z" stroke="#000000" stroke-width="0.853061" stroke-linecap="butt" stroke-linejoin="miter" stroke-miterlimit="8" stroke-opacity="1" fill="#AEAEAE" fill-rule="evenodd" fill-opacity="1" transform="matrix(1.00085 0 0 1 -11.0992 0)"/><path d="M140.329 383.024C140.329 382.082 141.188 381.318 142.248 381.318 143.308 381.318 144.167 382.082 144.167 383.024 144.167 383.967 143.308 384.731 142.248 384.731 141.188 384.731 140.329 383.967 140.329 383.024Z" stroke="#000000" stroke-width="0.853061" stroke-linecap="butt" stroke-linejoin="miter" stroke-miterlimit="8" stroke-opacity="1" fill="#AEAEAE" fill-rule="evenodd" fill-opacity="1" transform="matrix(1.00085 0 0 1 -11.0992 0)"/><path d="M217.104 383.024C217.104 382.082 217.868 381.318 218.81 381.318 219.752 381.318 220.516 382.082 220.516 383.024 220.516 383.967 219.752 384.731 218.81 384.731 217.868 384.731 217.104 383.967 217.104 383.024Z" stroke="#000000" stroke-width="0.853061" stroke-linecap="butt" stroke-linejoin="miter" stroke-miterlimit="8" stroke-opacity="1" fill="#AEAEAE" fill-rule="evenodd" fill-opacity="1" transform="matrix(1.00085 0 0 1 -11.0992 0)"/><text fill="#000000" fill-opacity="1" font-family="Cambria Math,Cambria Math_MSFontService,sans-serif" font-style="normal" font-variant="normal" font-weight="400" font-stretch="normal" font-size="22" text-anchor="start" direction="ltr" writing-mode="lr-tb" unicode-bidi="normal" text-decoration="none" transform="matrix(0.426893 0 0 0.426531 211.335 381)">𝑂</text><text fill="#000000" fill-opacity="1" font-family="Cambria Math,Cambria Math_MSFontService,sans-serif" font-style="normal" font-variant="normal" font-weight="400" font-stretch="normal" font-size="22" text-anchor="start" direction="ltr" writing-mode="lr-tb" unicode-bidi="normal" text-decoration="none" transform="matrix(0.426893 0 0 0.426531 143.311 379)">𝐴</text><text fill="#000000" fill-opacity="1" font-family="Cambria Math,Cambria Math_MSFontService,sans-serif" font-style="normal" font-variant="normal" font-weight="400" font-stretch="normal" font-size="22" text-anchor="start" direction="ltr" writing-mode="lr-tb" unicode-bidi="normal" text-decoration="none" transform="matrix(0.426893 0 0 0.426531 124.845 395)">𝐵</text><path d="M174.878 211.772C174.878 210.713 175.641 209.853 176.584 209.853 177.526 209.853 178.29 210.713 178.29 211.772 178.29 212.832 177.526 213.692 176.584 213.692 175.641 213.692 174.878 212.832 174.878 211.772Z" stroke="#000000" stroke-width="0.853061" stroke-linecap="butt" stroke-linejoin="miter" stroke-miterlimit="8" stroke-opacity="1" fill="#AEAEAE" fill-rule="evenodd" fill-opacity="1" transform="matrix(1.00085 0 0 1 -11.0992 0)"/><path d="M185.114 217.744C185.114 216.684 185.878 215.824 186.82 215.824 187.763 215.824 188.527 216.684 188.527 217.744 188.527 218.804 187.763 219.663 186.82 219.663 185.878 219.663 185.114 218.804 185.114 217.744Z" stroke="#000000" stroke-width="0.853061" stroke-linecap="butt" stroke-linejoin="miter" stroke-miterlimit="8" stroke-opacity="1" fill="#AEAEAE" fill-rule="evenodd" fill-opacity="1" transform="matrix(1.00085 0 0 1 -11.0992 0)"/><path d="M191.939 221.156C191.939 220.096 192.703 219.237 193.645 219.237 194.587 219.237 195.351 220.096 195.351 221.156 195.351 222.216 194.587 223.076 193.645 223.076 192.703 223.076 191.939 222.216 191.939 221.156Z" stroke="#000000" stroke-width="0.853061" stroke-linecap="butt" stroke-linejoin="miter" stroke-miterlimit="8" stroke-opacity="1" fill="#AEAEAE" fill-rule="evenodd" fill-opacity="1" transform="matrix(1.00085 0 0 1 -11.0992 0)"/><text fill="#000000" fill-opacity="1" font-family="Cambria Math,Cambria Math_MSFontService,sans-serif" font-style="normal" font-variant="normal" font-weight="400" font-stretch="normal" font-size="22" text-anchor="start" direction="ltr" writing-mode="lr-tb" unicode-bidi="normal" text-decoration="none" transform="matrix(0.426893 0 0 0.426531 151.415 217)">𝑂</text><text fill="#000000" fill-opacity="1" font-family="Cambria Math,Cambria Math_MSFontService,sans-serif" font-style="normal" font-variant="normal" font-weight="400" font-stretch="normal" font-size="22" text-anchor="start" direction="ltr" writing-mode="lr-tb" unicode-bidi="normal" text-decoration="none" transform="matrix(0.426893 0 0 0.426531 166.519 225)">𝐴</text><text fill="#000000" fill-opacity="1" font-family="Cambria Math,Cambria Math_MSFontService,sans-serif" font-style="normal" font-variant="normal" font-weight="400" font-stretch="normal" font-size="22" text-anchor="start" direction="ltr" writing-mode="lr-tb" unicode-bidi="normal" text-decoration="none" transform="matrix(0.426893 0 0 0.426531 185 216)">𝐵</text><text fill="#000000" fill-opacity="1" font-family="Cambria Math,Cambria Math_MSFontService,sans-serif" font-style="normal" font-variant="normal" font-weight="400" font-stretch="normal" font-size="22" text-anchor="start" direction="ltr" writing-mode="lr-tb" unicode-bidi="normal" text-decoration="none" transform="matrix(0.426893 0 0 0.426531 284.142 338)">ln</text><text fill="#000000" fill-opacity="1" font-family="Cambria Math,Cambria Math_MSFontService,sans-serif" font-style="normal" font-variant="normal" font-weight="400" font-stretch="normal" font-size="22" text-anchor="start" direction="ltr" writing-mode="lr-tb" unicode-bidi="normal" text-decoration="none" transform="matrix(0.426893 0 0 0.426531 291.612 338)"> </text><text fill="#000000" fill-opacity="1" font-family="Cambria Math,Cambria Math_MSFontService,sans-serif" font-style="normal" font-variant="normal" font-weight="400" font-stretch="normal" font-size="22" text-anchor="start" direction="ltr" writing-mode="lr-tb" unicode-bidi="normal" text-decoration="none" transform="matrix(0.426893 0 0 0.426531 293.533 338)">𝑝</text><text fill="#000000" fill-opacity="1" font-family="Cambria Math,Cambria Math_MSFontService,sans-serif" font-style="normal" font-variant="normal" font-weight="400" font-stretch="normal" font-size="16" text-anchor="start" direction="ltr" writing-mode="lr-tb" unicode-bidi="normal" text-decoration="none" transform="matrix(0.426893 0 0 0.426531 298.75 334)">′</text><path d="M188.539 76.349 199.358 76.6667 199.334 77.5198 188.514 77.202ZM198.568 74.5102 203.609 77.2187 198.418 79.6264Z" fill="#E59EDD" fill-rule="nonzero" fill-opacity="1" transform="matrix(1.00085 0 0 1 -11.0992 0)"/></g></g></g></g></g></svg>