<svg width="561" height="457" xmlns="http://www.w3.org/2000/svg" xmlns:xlink="http://www.w3.org/1999/xlink" xml:space="preserve" overflow="hidden"><g><g><path d="M271.309 368.602C310.645 370.169 349.98 371.737 380.466 386.84 410.951 401.944 432.586 430.584 454.22 459.224" stroke="#E97132" stroke-width="1.11192" stroke-linecap="butt" stroke-linejoin="miter" stroke-miterlimit="8" stroke-opacity="1" fill="none" fill-rule="evenodd" transform="matrix(1.00106 0 0 1 -91.2738 -63.3796)"/><path d="M418.639 156.781C418.639 108.574 457.842 69.4951 506.203 69.4951 554.563 69.4951 593.766 108.574 593.766 156.781 593.766 204.988 554.563 244.067 506.203 244.067 457.842 244.067 418.639 204.988 418.639 156.781Z" stroke="#F2AA84" stroke-width="1.11192" stroke-linecap="square" stroke-linejoin="miter" stroke-miterlimit="8" stroke-dasharray="3.33577 1.11192" stroke-opacity="1" fill="none" fill-rule="evenodd" transform="matrix(1.00106 0 0 1 -91.2738 -63.3796)"/><path d="M0 0 71.545 56.092" stroke="#AEAEAE" stroke-width="1.11192" stroke-linecap="square" stroke-linejoin="miter" stroke-miterlimit="8" stroke-dasharray="3.33577 1.11192" stroke-opacity="1" fill="none" fill-rule="evenodd" transform="matrix(1.00106 0 0 -1 89.6042 131.147)"/><path d="M91.7336 246.847 343.374 246.847 343.374 247.959 91.7336 247.959ZM342.261 245.179 353.381 247.403 342.261 249.627Z" fill="#000000" fill-rule="nonzero" fill-opacity="1" transform="matrix(1.00106 0 0 1 -91.2738 -63.3796)"/><path d="M226.276 155.947C226.276 154.258 227.645 152.889 229.334 152.889 231.023 152.889 232.392 154.258 232.392 155.947 232.392 157.636 231.023 159.005 229.334 159.005 227.645 159.005 226.276 157.636 226.276 155.947Z" stroke="#042433" stroke-width="1.11192" stroke-linecap="butt" stroke-linejoin="miter" stroke-miterlimit="8" stroke-opacity="1" fill="#FFFFFF" fill-rule="evenodd" fill-opacity="1" transform="matrix(1.00106 0 0 1 -91.2738 -63.3796)"/><path d="M0.555961-2.65253e-07 0.556044 173.5-0.555878 173.5-0.555961 2.65253e-07ZM2.22393 172.389 8.75527e-05 183.508-2.22376 172.389Z" fill="#000000" fill-rule="nonzero" fill-opacity="1" transform="matrix(1.00106 0 0 -1 25.0446 197.963)"/><text fill="#000000" fill-opacity="1" font-family="Arial,Arial_MSFontService,sans-serif" font-style="normal" font-variant="normal" font-weight="400" font-stretch="normal" font-size="22" text-anchor="start" direction="ltr" writing-mode="lr-tb" unicode-bidi="normal" text-decoration="none" transform="matrix(-1.02236e-16 -0.555961 0.556548 -1.02128e-16 15.452 102)">Deviator stress </text><text fill="#000000" fill-opacity="1" font-family="Cambria Math,Cambria Math_MSFontService,sans-serif" font-style="normal" font-variant="normal" font-weight="400" font-stretch="normal" font-size="22" text-anchor="start" direction="ltr" writing-mode="lr-tb" unicode-bidi="normal" text-decoration="none" transform="matrix(-1.02236e-16 -0.555961 0.556548 -1.02128e-16 15.452 21)">𝑞</text><text fill="#000000" fill-opacity="1" font-family="Arial,Arial_MSFontService,sans-serif" font-style="normal" font-variant="normal" font-weight="400" font-stretch="normal" font-size="22" text-anchor="start" direction="ltr" writing-mode="lr-tb" unicode-bidi="normal" text-decoration="none" transform="matrix(0.556548 0 0 0.555961 89.5518 201)">Effective mean principal stress  </text><text fill="#000000" fill-opacity="1" font-family="Cambria Math,Cambria Math_MSFontService,sans-serif" font-style="normal" font-variant="normal" font-weight="400" font-stretch="normal" font-size="22" text-anchor="start" direction="ltr" writing-mode="lr-tb" unicode-bidi="normal" text-decoration="none" transform="matrix(0.556548 0 0 0.555961 254.707 201)">𝑝′</text><path d="M229.056 159.005C224.884 176.28 220.712 193.555 215.245 206.62 209.778 219.685 203.016 228.54 196.254 237.395" stroke="#AEAEAE" stroke-width="1.11192" stroke-linecap="square" stroke-linejoin="miter" stroke-miterlimit="8" stroke-dasharray="3.33577 1.11192" stroke-opacity="1" fill="none" fill-rule="evenodd" transform="matrix(1.00106 0 0 1 -91.2738 -63.3796)"/><path d="M0.541067-0.127825 6.65858 25.7667 5.57646 26.0224-0.541067 0.127825ZM8.02613 24.3011 8.41836 35.6338 3.69761 25.3237Z" fill="#595959" fill-rule="nonzero" fill-opacity="1" transform="matrix(-1.00106 0 0 1 138.103 95.6253)"/><text fill="#000000" fill-opacity="1" font-family="Arial,Arial_MSFontService,sans-serif" font-style="normal" font-variant="normal" font-weight="400" font-stretch="normal" font-size="18" text-anchor="start" direction="ltr" writing-mode="lr-tb" unicode-bidi="normal" text-decoration="none" transform="matrix(0.556548 0 0 0.555961 132.386 64)">Local stress origin </text><text fill="#000000" fill-opacity="1" font-family="Cambria Math,Cambria Math_MSFontService,sans-serif" font-style="normal" font-variant="normal" font-weight="400" font-stretch="normal" font-size="18" text-anchor="start" direction="ltr" writing-mode="lr-tb" unicode-bidi="normal" text-decoration="none" transform="matrix(0.556548 0 0 0.555961 215.868 64)">(</text><text fill="#000000" fill-opacity="1" font-family="Cambria Math,Cambria Math_MSFontService,sans-serif" font-style="normal" font-variant="normal" font-weight="400" font-stretch="normal" font-size="18" text-anchor="start" direction="ltr" writing-mode="lr-tb" unicode-bidi="normal" text-decoration="none" transform="matrix(0.556548 0 0 0.555961 220.042 64)">𝑝</text><text fill="#000000" fill-opacity="1" font-family="Cambria Math,Cambria Math_MSFontService,sans-serif" font-style="normal" font-variant="normal" font-weight="400" font-stretch="normal" font-size="14" text-anchor="start" direction="ltr" writing-mode="lr-tb" unicode-bidi="normal" text-decoration="none" transform="matrix(0.556548 0 0 0.555961 225.218 67)">𝑜</text><text fill="#000000" fill-opacity="1" font-family="Cambria Math,Cambria Math_MSFontService,sans-serif" font-style="normal" font-variant="normal" font-weight="400" font-stretch="normal" font-size="14" text-anchor="start" direction="ltr" writing-mode="lr-tb" unicode-bidi="normal" text-decoration="none" transform="matrix(0.556548 0 0 0.555961 225.83 61)">′</text><text fill="#000000" fill-opacity="1" font-family="Cambria Math,Cambria Math_MSFontService,sans-serif" font-style="normal" font-variant="normal" font-weight="400" font-stretch="normal" font-size="18" text-anchor="start" direction="ltr" writing-mode="lr-tb" unicode-bidi="normal" text-decoration="none" transform="matrix(0.556548 0 0 0.555961 230.11 64)">,</text><text fill="#000000" fill-opacity="1" font-family="Cambria Math,Cambria Math_MSFontService,sans-serif" font-style="normal" font-variant="normal" font-weight="400" font-stretch="normal" font-size="18" text-anchor="start" direction="ltr" writing-mode="lr-tb" unicode-bidi="normal" text-decoration="none" transform="matrix(0.556548 0 0 0.555961 233.867 64)">𝑞</text><text fill="#000000" fill-opacity="1" font-family="Cambria Math,Cambria Math_MSFontService,sans-serif" font-style="normal" font-variant="normal" font-weight="400" font-stretch="normal" font-size="14" text-anchor="start" direction="ltr" writing-mode="lr-tb" unicode-bidi="normal" text-decoration="none" transform="matrix(0.556548 0 0 0.555961 239.098 67)">𝑜</text><text fill="#000000" fill-opacity="1" font-family="Cambria Math,Cambria Math_MSFontService,sans-serif" font-style="normal" font-variant="normal" font-weight="400" font-stretch="normal" font-size="18" text-anchor="start" direction="ltr" writing-mode="lr-tb" unicode-bidi="normal" text-decoration="none" transform="matrix(0.556548 0 0 0.555961 243.99 64)">)</text><text fill="#000000" fill-opacity="1" font-family="Arial,Arial_MSFontService,sans-serif" font-style="normal" font-variant="normal" font-weight="400" font-stretch="normal" font-size="18" text-anchor="start" direction="ltr" writing-mode="lr-tb" unicode-bidi="normal" text-decoration="none" transform="matrix(0.556548 0 0 0.555961 110.391 25)">Effective stress</text><text fill="#000000" fill-opacity="1" font-family="Arial,Arial_MSFontService,sans-serif" font-style="normal" font-variant="normal" font-weight="400" font-stretch="normal" font-size="18" text-anchor="start" direction="ltr" writing-mode="lr-tb" unicode-bidi="normal" text-decoration="none" transform="matrix(0.556548 0 0 0.555961 110.391 37)">increment vector at step </text><text fill="#000000" fill-opacity="1" font-family="Arial,Arial_MSFontService,sans-serif" font-style="italic" font-variant="normal" font-weight="400" font-stretch="normal" font-size="18" text-anchor="start" direction="ltr" writing-mode="lr-tb" unicode-bidi="normal" text-decoration="none" transform="matrix(0.556548 0 0 0.555961 220.031 37)">i</text><text fill="#000000" fill-opacity="1" font-family="Arial,Arial_MSFontService,sans-serif" font-style="normal" font-variant="normal" font-weight="400" font-stretch="normal" font-size="18" text-anchor="start" direction="ltr" writing-mode="lr-tb" unicode-bidi="normal" text-decoration="none" transform="matrix(0.556548 0 0 0.555961 222.257 37)">-</text><text fill="#000000" fill-opacity="1" font-family="Arial,Arial_MSFontService,sans-serif" font-style="normal" font-variant="normal" font-weight="400" font-stretch="normal" font-size="18" text-anchor="start" direction="ltr" writing-mode="lr-tb" unicode-bidi="normal" text-decoration="none" transform="matrix(0.556548 0 0 0.555961 225.596 37)">1:</text><text fill="#000000" fill-opacity="1" font-family="Cambria Math,Cambria Math_MSFontService,sans-serif" font-style="normal" font-variant="normal" font-weight="400" font-stretch="normal" font-size="18" text-anchor="start" direction="ltr" writing-mode="lr-tb" unicode-bidi="normal" text-decoration="none" transform="matrix(0.556548 0 0 0.555961 110.391 48)">Δ</text><text fill="#000000" fill-opacity="1" font-family="Cambria Math,Cambria Math_MSFontService,sans-serif" font-style="normal" font-variant="normal" font-weight="400" font-stretch="normal" font-size="18" text-anchor="start" direction="ltr" writing-mode="lr-tb" unicode-bidi="normal" text-decoration="none" transform="matrix(0.556548 0 0 0.555961 116.374 48)">𝑠</text><text fill="#000000" fill-opacity="1" font-family="Cambria Math,Cambria Math_MSFontService,sans-serif" font-style="normal" font-variant="normal" font-weight="400" font-stretch="normal" font-size="14" text-anchor="start" direction="ltr" writing-mode="lr-tb" unicode-bidi="normal" text-decoration="none" transform="matrix(0.556548 0 0 0.555961 120.72 50)">𝑖</text><text fill="#000000" fill-opacity="1" font-family="Cambria Math,Cambria Math_MSFontService,sans-serif" font-style="normal" font-variant="normal" font-weight="400" font-stretch="normal" font-size="14" text-anchor="start" direction="ltr" writing-mode="lr-tb" unicode-bidi="normal" text-decoration="none" transform="matrix(0.556548 0 0 0.555961 123.475 50)">−</text><text fill="#000000" fill-opacity="1" font-family="Cambria Math,Cambria Math_MSFontService,sans-serif" font-style="normal" font-variant="normal" font-weight="400" font-stretch="normal" font-size="14" text-anchor="start" direction="ltr" writing-mode="lr-tb" unicode-bidi="normal" text-decoration="none" transform="matrix(0.556548 0 0 0.555961 128.762 50)">1</text><path d="M0 0 8.75527e-05 49.2603" stroke="#7F7F7F" stroke-width="1.11192" stroke-linecap="butt" stroke-linejoin="miter" stroke-miterlimit="8" stroke-dasharray="1.11192 1.11192" stroke-opacity="1" fill="none" fill-rule="evenodd" transform="matrix(1.00106 0 0 -1 120.771 105.968)"/><path d="M225.164 184.579 238.621 184.579" stroke="#7F7F7F" stroke-width="1.11192" stroke-linecap="butt" stroke-linejoin="miter" stroke-miterlimit="8" stroke-dasharray="1.11192 1.11192" stroke-opacity="1" fill="none" fill-rule="evenodd" transform="matrix(1.00106 0 0 1 -91.2738 -63.3796)"/><text fill="#000000" fill-opacity="1" font-family="Cambria Math,Cambria Math_MSFontService,sans-serif" font-style="normal" font-variant="normal" font-weight="400" font-stretch="normal" font-size="18" text-anchor="start" direction="ltr" writing-mode="lr-tb" unicode-bidi="normal" text-decoration="none" transform="matrix(0.556548 0 0 0.555961 149.691 123)">Δ</text><text fill="#000000" fill-opacity="1" font-family="Cambria Math,Cambria Math_MSFontService,sans-serif" font-style="normal" font-variant="normal" font-weight="400" font-stretch="normal" font-size="18" text-anchor="start" direction="ltr" writing-mode="lr-tb" unicode-bidi="normal" text-decoration="none" transform="matrix(0.556548 0 0 0.555961 155.674 123)">𝑠</text><text fill="#000000" fill-opacity="1" font-family="Cambria Math,Cambria Math_MSFontService,sans-serif" font-style="normal" font-variant="normal" font-weight="400" font-stretch="normal" font-size="14" text-anchor="start" direction="ltr" writing-mode="lr-tb" unicode-bidi="normal" text-decoration="none" transform="matrix(0.556548 0 0 0.555961 160.021 126)">𝑖</text><path d="M0.338485-0.441045 19.833 14.5203 19.156 15.4023-0.338485 0.441045ZM19.9663 12.5201 27.4333 21.054 17.2585 16.0485Z" fill="#595959" fill-rule="nonzero" fill-opacity="1" transform="matrix(1.00106 0 0 -1 108.527 116.124)"/><path d="M0 0 8.75527e-05 21.6303" stroke="#7F7F7F" stroke-width="1.11192" stroke-linecap="butt" stroke-linejoin="miter" stroke-miterlimit="8" stroke-dasharray="1.11192 1.11192" stroke-opacity="1" fill="none" fill-rule="evenodd" transform="matrix(1.00106 0 0 -1 138.024 89.4575)"/><path d="M239.464 148.912C243.702 153.993 243.02 161.556 237.941 165.802 234.971 168.286 230.986 169.182 227.243 168.206" stroke="#A02B93" stroke-width="1.11192" stroke-linecap="butt" stroke-linejoin="miter" stroke-miterlimit="8" stroke-opacity="1" fill="none" fill-rule="evenodd" transform="matrix(1.00106 0 0 1 -91.2738 -63.3796)"/><text fill="#A02B93" fill-opacity="1" font-family="Cambria Math,Cambria Math_MSFontService,sans-serif" font-style="normal" font-variant="normal" font-weight="400" font-stretch="normal" font-size="18" text-anchor="start" direction="ltr" writing-mode="lr-tb" unicode-bidi="normal" text-decoration="none" transform="matrix(0.556548 0 0 0.555961 154.32 103)">𝜃</text><text fill="#A02B93" fill-opacity="1" font-family="Cambria Math,Cambria Math_MSFontService,sans-serif" font-style="normal" font-variant="normal" font-weight="400" font-stretch="normal" font-size="18" text-anchor="start" direction="ltr" writing-mode="lr-tb" unicode-bidi="normal" text-decoration="none" transform="matrix(0.556548 0 0 0.555961 160.319 103)"> </text><text fill="#A02B93" fill-opacity="1" font-family="Cambria Math,Cambria Math_MSFontService,sans-serif" font-style="normal" font-variant="normal" font-weight="400" font-stretch="normal" font-size="18" text-anchor="start" direction="ltr" writing-mode="lr-tb" unicode-bidi="normal" text-decoration="none" transform="matrix(0.556548 0 0 0.555961 165.328 103)">≥</text><text fill="#A02B93" fill-opacity="1" font-family="Cambria Math,Cambria Math_MSFontService,sans-serif" font-style="normal" font-variant="normal" font-weight="400" font-stretch="normal" font-size="18" text-anchor="start" direction="ltr" writing-mode="lr-tb" unicode-bidi="normal" text-decoration="none" transform="matrix(0.556548 0 0 0.555961 175.624 103)">𝜃</text><text fill="#A02B93" fill-opacity="1" font-family="Cambria Math,Cambria Math_MSFontService,sans-serif" font-style="normal" font-variant="normal" font-weight="400" font-stretch="normal" font-size="14" text-anchor="start" direction="ltr" writing-mode="lr-tb" unicode-bidi="normal" text-decoration="none" transform="matrix(0.556548 0 0 0.555961 180.744 105)">𝑐</text><path d="M379.721 246.847 631.361 246.847 631.361 247.959 379.721 247.959ZM630.249 245.179 641.368 247.403 630.249 249.627Z" fill="#000000" fill-rule="nonzero" fill-opacity="1" transform="matrix(1.00106 0 0 1 -91.2738 -63.3796)"/><path d="M503.701 155.947C503.701 154.258 505.069 152.889 506.759 152.889 508.448 152.889 509.816 154.258 509.816 155.947 509.816 157.636 508.448 159.005 506.759 159.005 505.069 159.005 503.701 157.636 503.701 155.947Z" stroke="#042433" stroke-width="1.11192" stroke-linecap="butt" stroke-linejoin="miter" stroke-miterlimit="8" stroke-opacity="1" fill="#FFFFFF" fill-rule="evenodd" fill-opacity="1" transform="matrix(1.00106 0 0 1 -91.2738 -63.3796)"/><path d="M0.555961-2.65253e-07 0.556044 173.5-0.555878 173.5-0.555961 2.65253e-07ZM2.22393 172.389 8.75527e-05 183.508-2.22376 172.389Z" fill="#000000" fill-rule="nonzero" fill-opacity="1" transform="matrix(1.00106 0 0 -1 313.336 197.963)"/><text fill="#000000" fill-opacity="1" font-family="Arial,Arial_MSFontService,sans-serif" font-style="normal" font-variant="normal" font-weight="400" font-stretch="normal" font-size="22" text-anchor="start" direction="ltr" writing-mode="lr-tb" unicode-bidi="normal" text-decoration="none" transform="matrix(-1.02236e-16 -0.555961 0.556548 -1.02128e-16 304.199 105)">Stress ratio </text><text fill="#000000" fill-opacity="1" font-family="Cambria Math,Cambria Math_MSFontService,sans-serif" font-style="normal" font-variant="normal" font-weight="400" font-stretch="normal" font-size="22" text-anchor="start" direction="ltr" writing-mode="lr-tb" unicode-bidi="normal" text-decoration="none" transform="matrix(-1.02236e-16 -0.555961 0.556548 -1.02128e-16 304.199 43)">𝑞</text><text fill="#000000" fill-opacity="1" font-family="Cambria Math,Cambria Math_MSFontService,sans-serif" font-style="normal" font-variant="normal" font-weight="400" font-stretch="normal" font-size="22" text-anchor="start" direction="ltr" writing-mode="lr-tb" unicode-bidi="normal" text-decoration="none" transform="matrix(-1.02236e-16 -0.555961 0.556548 -1.02128e-16 304.199 36)">/</text><text fill="#000000" fill-opacity="1" font-family="Cambria Math,Cambria Math_MSFontService,sans-serif" font-style="normal" font-variant="normal" font-weight="400" font-stretch="normal" font-size="22" text-anchor="start" direction="ltr" writing-mode="lr-tb" unicode-bidi="normal" text-decoration="none" transform="matrix(-1.02236e-16 -0.555961 0.556548 -1.02128e-16 304.199 31)">𝑝</text><text fill="#000000" fill-opacity="1" font-family="Cambria Math,Cambria Math_MSFontService,sans-serif" font-style="normal" font-variant="normal" font-weight="400" font-stretch="normal" font-size="16" text-anchor="start" direction="ltr" writing-mode="lr-tb" unicode-bidi="normal" text-decoration="none" transform="matrix(-1.02236e-16 -0.555961 0.556548 -1.02128e-16 299.079 24)">′</text><text fill="#000000" fill-opacity="1" font-family="Arial,Arial_MSFontService,sans-serif" font-style="normal" font-variant="normal" font-weight="400" font-stretch="normal" font-size="22" text-anchor="start" direction="ltr" writing-mode="lr-tb" unicode-bidi="normal" text-decoration="none" transform="matrix(0.556548 0 0 0.555961 366.244 201)">Effective mean principal stress  </text><text fill="#000000" fill-opacity="1" font-family="Cambria Math,Cambria Math_MSFontService,sans-serif" font-style="normal" font-variant="normal" font-weight="400" font-stretch="normal" font-size="22" text-anchor="start" direction="ltr" writing-mode="lr-tb" unicode-bidi="normal" text-decoration="none" transform="matrix(0.556548 0 0 0.555961 531.397 201)">ln</text><text fill="#000000" fill-opacity="1" font-family="Cambria Math,Cambria Math_MSFontService,sans-serif" font-style="normal" font-variant="normal" font-weight="400" font-stretch="normal" font-size="22" text-anchor="start" direction="ltr" writing-mode="lr-tb" unicode-bidi="normal" text-decoration="none" transform="matrix(0.556548 0 0 0.555961 541.137 201)">𝑝</text><text fill="#000000" fill-opacity="1" font-family="Cambria Math,Cambria Math_MSFontService,sans-serif" font-style="normal" font-variant="normal" font-weight="400" font-stretch="normal" font-size="16" text-anchor="start" direction="ltr" writing-mode="lr-tb" unicode-bidi="normal" text-decoration="none" transform="matrix(0.556548 0 0 0.555961 547.938 197)">′</text><text fill="#000000" fill-opacity="1" font-family="Arial,Arial_MSFontService,sans-serif" font-style="normal" font-variant="normal" font-weight="400" font-stretch="normal" font-size="22" text-anchor="start" direction="ltr" writing-mode="lr-tb" unicode-bidi="normal" text-decoration="none" transform="matrix(0.556548 0 0 0.555961 486.924 215)">(logarithmic)</text><path d="M506.481 159.005C502.309 176.28 498.136 193.555 492.669 206.62 487.203 219.685 480.44 228.54 473.679 237.395" stroke="#AEAEAE" stroke-width="1.11192" stroke-linecap="square" stroke-linejoin="miter" stroke-miterlimit="8" stroke-dasharray="3.33577 1.11192" stroke-opacity="1" fill="none" fill-rule="evenodd" transform="matrix(1.00106 0 0 1 -91.2738 -63.3796)"/><text fill="#000000" fill-opacity="1" font-family="Cambria Math,Cambria Math_MSFontService,sans-serif" font-style="normal" font-variant="normal" font-weight="400" font-stretch="normal" font-size="18" text-anchor="start" direction="ltr" writing-mode="lr-tb" unicode-bidi="normal" text-decoration="none" transform="matrix(0.556548 0 0 0.555961 419.578 86)">(</text><text fill="#000000" fill-opacity="1" font-family="Cambria Math,Cambria Math_MSFontService,sans-serif" font-style="normal" font-variant="normal" font-weight="400" font-stretch="normal" font-size="18" text-anchor="start" direction="ltr" writing-mode="lr-tb" unicode-bidi="normal" text-decoration="none" transform="matrix(0.556548 0 0 0.555961 423.753 86)">𝑝</text><text fill="#000000" fill-opacity="1" font-family="Cambria Math,Cambria Math_MSFontService,sans-serif" font-style="normal" font-variant="normal" font-weight="400" font-stretch="normal" font-size="14" text-anchor="start" direction="ltr" writing-mode="lr-tb" unicode-bidi="normal" text-decoration="none" transform="matrix(0.556548 0 0 0.555961 428.928 88)">𝑜</text><text fill="#000000" fill-opacity="1" font-family="Cambria Math,Cambria Math_MSFontService,sans-serif" font-style="normal" font-variant="normal" font-weight="400" font-stretch="normal" font-size="14" text-anchor="start" direction="ltr" writing-mode="lr-tb" unicode-bidi="normal" text-decoration="none" transform="matrix(0.556548 0 0 0.555961 429.541 82)">′</text><text fill="#000000" fill-opacity="1" font-family="Cambria Math,Cambria Math_MSFontService,sans-serif" font-style="normal" font-variant="normal" font-weight="400" font-stretch="normal" font-size="18" text-anchor="start" direction="ltr" writing-mode="lr-tb" unicode-bidi="normal" text-decoration="none" transform="matrix(0.556548 0 0 0.555961 433.821 86)">,</text><text fill="#000000" fill-opacity="1" font-family="Cambria Math,Cambria Math_MSFontService,sans-serif" font-style="normal" font-variant="normal" font-weight="400" font-stretch="normal" font-size="18" text-anchor="start" direction="ltr" writing-mode="lr-tb" unicode-bidi="normal" text-decoration="none" transform="matrix(0.556548 0 0 0.555961 437.577 86)">𝑞</text><text fill="#000000" fill-opacity="1" font-family="Cambria Math,Cambria Math_MSFontService,sans-serif" font-style="normal" font-variant="normal" font-weight="400" font-stretch="normal" font-size="14" text-anchor="start" direction="ltr" writing-mode="lr-tb" unicode-bidi="normal" text-decoration="none" transform="matrix(0.556548 0 0 0.555961 442.809 88)">𝑜</text><text fill="#000000" fill-opacity="1" font-family="Cambria Math,Cambria Math_MSFontService,sans-serif" font-style="normal" font-variant="normal" font-weight="400" font-stretch="normal" font-size="18" text-anchor="start" direction="ltr" writing-mode="lr-tb" unicode-bidi="normal" text-decoration="none" transform="matrix(0.556548 0 0 0.555961 447.701 86)">)</text><path d="M470.343 239.063 473.401 232.948 476.459 239.063Z" stroke="#042433" stroke-width="1.11192" stroke-linecap="butt" stroke-linejoin="miter" stroke-miterlimit="8" stroke-opacity="1" fill="#FFFFFF" fill-rule="evenodd" fill-opacity="1" transform="matrix(1.00106 0 0 1 -91.2738 -63.3796)"/><path d="M0 0 31.4916 76.9695" stroke="#E97132" stroke-width="1.11192" stroke-linecap="butt" stroke-linejoin="miter" stroke-miterlimit="8" stroke-opacity="1" fill="none" fill-rule="evenodd" transform="matrix(1.00106 0 0 -1 384.574 172.595)"/><path d="M502.589 198.478 647.139 198.478 647.139 231.28 502.589 231.28Z" fill="#FFFFFF" fill-rule="nonzero" fill-opacity="1" transform="matrix(1.00106 0 0 1 -91.2738 -63.3796)"/><text fill="#000000" fill-opacity="1" font-family="Arial,Arial_MSFontService,sans-serif" font-style="normal" font-variant="normal" font-weight="400" font-stretch="normal" font-size="18" text-anchor="start" direction="ltr" writing-mode="lr-tb" unicode-bidi="normal" text-decoration="none" transform="matrix(0.556548 0 0 0.555961 419.866 149)">Current effective stress state</text><text fill="#000000" fill-opacity="1" font-family="Cambria Math,Cambria Math_MSFontService,sans-serif" font-style="normal" font-variant="normal" font-weight="400" font-stretch="normal" font-size="18" text-anchor="start" direction="ltr" writing-mode="lr-tb" unicode-bidi="normal" text-decoration="none" transform="matrix(0.556548 0 0 0.555961 419.866 160)">(</text><text fill="#000000" fill-opacity="1" font-family="Cambria Math,Cambria Math_MSFontService,sans-serif" font-style="normal" font-variant="normal" font-weight="400" font-stretch="normal" font-size="18" text-anchor="start" direction="ltr" writing-mode="lr-tb" unicode-bidi="normal" text-decoration="none" transform="matrix(0.556548 0 0 0.555961 424.04 160)">𝑝</text><text fill="#000000" fill-opacity="1" font-family="Cambria Math,Cambria Math_MSFontService,sans-serif" font-style="normal" font-variant="normal" font-weight="400" font-stretch="normal" font-size="14" text-anchor="start" direction="ltr" writing-mode="lr-tb" unicode-bidi="normal" text-decoration="none" transform="matrix(0.556548 0 0 0.555961 429.828 156)">′</text><text fill="#000000" fill-opacity="1" font-family="Cambria Math,Cambria Math_MSFontService,sans-serif" font-style="normal" font-variant="normal" font-weight="400" font-stretch="normal" font-size="18" text-anchor="start" direction="ltr" writing-mode="lr-tb" unicode-bidi="normal" text-decoration="none" transform="matrix(0.556548 0 0 0.555961 436.385 160)">,</text><text fill="#000000" fill-opacity="1" font-family="Cambria Math,Cambria Math_MSFontService,sans-serif" font-style="normal" font-variant="normal" font-weight="400" font-stretch="normal" font-size="18" text-anchor="start" direction="ltr" writing-mode="lr-tb" unicode-bidi="normal" text-decoration="none" transform="matrix(0.556548 0 0 0.555961 440.141 160)">𝑞</text><text fill="#000000" fill-opacity="1" font-family="Cambria Math,Cambria Math_MSFontService,sans-serif" font-style="normal" font-variant="normal" font-weight="400" font-stretch="normal" font-size="18" text-anchor="start" direction="ltr" writing-mode="lr-tb" unicode-bidi="normal" text-decoration="none" transform="matrix(0.556548 0 0 0.555961 452.664 160)">)</text><text fill="#E97132" fill-opacity="1" font-family="Arial,Arial_MSFontService,sans-serif" font-style="normal" font-variant="normal" font-weight="400" font-stretch="normal" font-size="18" text-anchor="start" direction="ltr" writing-mode="lr-tb" unicode-bidi="normal" text-decoration="none" transform="matrix(0.556548 0 0 0.555961 367.278 40)">Local stress distance:</text><text fill="#E97132" fill-opacity="1" font-family="Cambria Math,Cambria Math_MSFontService,sans-serif" font-style="normal" font-variant="normal" font-weight="400" font-stretch="normal" font-size="18" text-anchor="start" direction="ltr" writing-mode="lr-tb" unicode-bidi="normal" text-decoration="none" transform="matrix(0.556548 0 0 0.555961 463.561 40)">𝜉</text><path d="M0 0 26.3463 22.0598" stroke="#7F7F7F" stroke-width="1.11192" stroke-linecap="butt" stroke-linejoin="miter" stroke-miterlimit="8" stroke-dasharray="1.11192 1.11192" stroke-opacity="1" fill="none" fill-rule="evenodd" transform="matrix(1.00106 0 0 -1 385.688 173.281)"/><path d="M228.5 323.013 480.14 323.013 480.14 324.125 228.5 324.125ZM479.028 321.345 490.147 323.569 479.028 325.793Z" fill="#000000" fill-rule="nonzero" fill-opacity="1" transform="matrix(1.00106 0 0 1 -91.2738 -63.3796)"/><text fill="#000000" fill-opacity="1" font-family="Arial,Arial_MSFontService,sans-serif" font-style="normal" font-variant="normal" font-weight="400" font-stretch="normal" font-size="22" text-anchor="start" direction="ltr" writing-mode="lr-tb" unicode-bidi="normal" text-decoration="none" transform="matrix(0.556548 0 0 0.555961 214.976 251)">Effective mean principal stress  </text><text fill="#000000" fill-opacity="1" font-family="Cambria Math,Cambria Math_MSFontService,sans-serif" font-style="normal" font-variant="normal" font-weight="400" font-stretch="normal" font-size="22" text-anchor="start" direction="ltr" writing-mode="lr-tb" unicode-bidi="normal" text-decoration="none" transform="matrix(0.556548 0 0 0.555961 380.132 251)">ln</text><text fill="#000000" fill-opacity="1" font-family="Cambria Math,Cambria Math_MSFontService,sans-serif" font-style="normal" font-variant="normal" font-weight="400" font-stretch="normal" font-size="22" text-anchor="start" direction="ltr" writing-mode="lr-tb" unicode-bidi="normal" text-decoration="none" transform="matrix(0.556548 0 0 0.555961 389.871 251)">𝑝</text><text fill="#000000" fill-opacity="1" font-family="Cambria Math,Cambria Math_MSFontService,sans-serif" font-style="normal" font-variant="normal" font-weight="400" font-stretch="normal" font-size="16" text-anchor="start" direction="ltr" writing-mode="lr-tb" unicode-bidi="normal" text-decoration="none" transform="matrix(0.556548 0 0 0.555961 396.672 247)">′</text><path d="M254.63 299.663 254.63 499.09 253.518 499.09 253.518 299.663ZM256.298 497.978 254.074 509.097 251.85 497.978Z" fill="#000000" fill-rule="nonzero" fill-opacity="1" transform="matrix(1.00106 0 0 1 -91.2738 -63.3796)"/><text fill="#000000" fill-opacity="1" font-family="Arial,Arial_MSFontService,sans-serif" font-style="normal" font-variant="normal" font-weight="400" font-stretch="normal" font-size="22" text-anchor="start" direction="ltr" writing-mode="lr-tb" unicode-bidi="normal" text-decoration="none" transform="matrix(-1.02236e-16 -0.555961 0.556548 -1.02128e-16 153.435 443)">Natural volumetric strain </text><text fill="#000000" fill-opacity="1" font-family="Cambria Math,Cambria Math_MSFontService,sans-serif" font-style="normal" font-variant="normal" font-weight="400" font-stretch="normal" font-size="22" text-anchor="start" direction="ltr" writing-mode="lr-tb" unicode-bidi="normal" text-decoration="none" transform="matrix(-1.02236e-16 -0.555961 0.556548 -1.02128e-16 153.435 313)">𝜀</text><text fill="#000000" fill-opacity="1" font-family="Cambria Math,Cambria Math_MSFontService,sans-serif" font-style="normal" font-variant="normal" font-weight="400" font-stretch="normal" font-size="16" text-anchor="start" direction="ltr" writing-mode="lr-tb" unicode-bidi="normal" text-decoration="none" transform="matrix(-1.02236e-16 -0.555961 0.556548 -1.02128e-16 155.823 308)">nv</text><path d="M354.703 325.237 456.82 462.082" stroke="#7F7F7F" stroke-width="1.11192" stroke-linecap="square" stroke-linejoin="miter" stroke-miterlimit="8" stroke-dasharray="3.33577 1.11192" stroke-opacity="1" fill="none" fill-rule="evenodd" transform="matrix(1.00106 0 0 1 -91.2738 -63.3796)"/><path d="M270.753 368.046 453.565 370.747" stroke="#7F7F7F" stroke-width="1.11192" stroke-linecap="square" stroke-linejoin="miter" stroke-miterlimit="8" stroke-dasharray="3.33577 1.11192" stroke-opacity="1" fill="none" fill-rule="evenodd" transform="matrix(1.00106 0 0 1 -91.2738 -63.3796)"/><path d="M271.309 368.046C302.257 369.39 333.204 370.733 353.96 373.05 374.716 375.367 385.28 378.656 395.844 381.945" stroke="#042433" stroke-width="1.11192" stroke-linecap="butt" stroke-linejoin="miter" stroke-miterlimit="8" stroke-opacity="1" fill="none" fill-rule="evenodd" transform="matrix(1.00106 0 0 1 -91.2738 -63.3796)"/><path d="M395.844 381.945C364.897 380.602 333.949 379.258 313.193 376.942 292.437 374.625 281.873 371.336 271.309 368.046" stroke="#042433" stroke-width="1.11192" stroke-linecap="butt" stroke-linejoin="miter" stroke-miterlimit="8" stroke-opacity="1" fill="none" fill-rule="evenodd" transform="matrix(1.00106 0 0 1 -91.2738 -63.3796)"/><path d="M318.01 352.479 453.493 403.413" stroke="#7F7F7F" stroke-width="1.11192" stroke-linecap="square" stroke-linejoin="miter" stroke-miterlimit="8" stroke-dasharray="3.33577 1.11192" stroke-opacity="1" fill="none" fill-rule="evenodd" transform="matrix(1.00106 0 0 1 -91.2738 -63.3796)"/><text fill="#404040" fill-opacity="1" font-family="Arial,Arial_MSFontService,sans-serif" font-style="normal" font-variant="normal" font-weight="400" font-stretch="normal" font-size="18" text-anchor="start" direction="ltr" writing-mode="lr-tb" unicode-bidi="normal" text-decoration="none" transform="matrix(0.556548 0 0 0.555961 324.319 418)">Normal compression line</text><text fill="#404040" fill-opacity="1" font-family="Arial,Arial_MSFontService,sans-serif" font-style="normal" font-variant="normal" font-weight="400" font-stretch="normal" font-size="18" text-anchor="start" direction="ltr" writing-mode="lr-tb" unicode-bidi="normal" text-decoration="none" transform="matrix(0.556548 0 0 0.555961 324.319 429)">Slope: </text><text fill="#404040" fill-opacity="1" font-family="Cambria Math,Cambria Math_MSFontService,sans-serif" font-style="normal" font-variant="normal" font-weight="400" font-stretch="normal" font-size="18" text-anchor="start" direction="ltr" writing-mode="lr-tb" unicode-bidi="normal" text-decoration="none" transform="matrix(0.556548 0 0 0.555961 355.485 429)">𝜆</text><text fill="#404040" fill-opacity="1" font-family="Cambria Math,Cambria Math_MSFontService,sans-serif" font-style="normal" font-variant="normal" font-weight="400" font-stretch="normal" font-size="14" text-anchor="start" direction="ltr" writing-mode="lr-tb" unicode-bidi="normal" text-decoration="none" transform="matrix(0.556548 0 0 0.555961 360.489 425)">∗</text><text fill="#404040" fill-opacity="1" font-family="Arial,Arial_MSFontService,sans-serif" font-style="normal" font-variant="normal" font-weight="400" font-stretch="normal" font-size="18" text-anchor="start" direction="ltr" writing-mode="lr-tb" unicode-bidi="normal" text-decoration="none" transform="matrix(0.556548 0 0 0.555961 301.616 292)">Initial tangent slope: </text><text fill="#404040" fill-opacity="1" font-family="Cambria Math,Cambria Math_MSFontService,sans-serif" font-style="normal" font-variant="normal" font-weight="400" font-stretch="normal" font-size="18" text-anchor="start" direction="ltr" writing-mode="lr-tb" unicode-bidi="normal" text-decoration="none" transform="matrix(0.556548 0 0 0.555961 393.446 292)">𝜅</text><text fill="#404040" fill-opacity="1" font-family="Cambria Math,Cambria Math_MSFontService,sans-serif" font-style="normal" font-variant="normal" font-weight="400" font-stretch="normal" font-size="14" text-anchor="start" direction="ltr" writing-mode="lr-tb" unicode-bidi="normal" text-decoration="none" transform="matrix(0.556548 0 0 0.555961 398.873 294)">0</text><text fill="#404040" fill-opacity="1" font-family="Cambria Math,Cambria Math_MSFontService,sans-serif" font-style="normal" font-variant="normal" font-weight="400" font-stretch="normal" font-size="14" text-anchor="start" direction="ltr" writing-mode="lr-tb" unicode-bidi="normal" text-decoration="none" transform="matrix(0.556548 0 0 0.555961 399.335 288)">∗</text><text fill="#404040" fill-opacity="1" font-family="Arial,Arial_MSFontService,sans-serif" font-style="normal" font-variant="normal" font-weight="400" font-stretch="normal" font-size="18" text-anchor="start" direction="ltr" writing-mode="lr-tb" unicode-bidi="normal" text-decoration="none" transform="matrix(0.556548 0 0 0.555961 342.735 324)">Maximum slope: </text><text fill="#404040" fill-opacity="1" font-family="Cambria Math,Cambria Math_MSFontService,sans-serif" font-style="normal" font-variant="normal" font-weight="400" font-stretch="normal" font-size="18" text-anchor="start" direction="ltr" writing-mode="lr-tb" unicode-bidi="normal" text-decoration="none" transform="matrix(0.556548 0 0 0.555961 418.426 324)">𝜅</text><text fill="#404040" fill-opacity="1" font-family="Cambria Math,Cambria Math_MSFontService,sans-serif" font-style="normal" font-variant="normal" font-weight="400" font-stretch="normal" font-size="14" text-anchor="start" direction="ltr" writing-mode="lr-tb" unicode-bidi="normal" text-decoration="none" transform="matrix(0.556548 0 0 0.555961 423.852 326)">𝑚𝑎𝑥</text><text fill="#404040" fill-opacity="1" font-family="Cambria Math,Cambria Math_MSFontService,sans-serif" font-style="normal" font-variant="normal" font-weight="400" font-stretch="normal" font-size="14" text-anchor="start" direction="ltr" writing-mode="lr-tb" unicode-bidi="normal" text-decoration="none" transform="matrix(0.556548 0 0 0.555961 424.314 320)">∗</text><path d="M401.96 359.707 401.96 369.812" stroke="#7F7F7F" stroke-width="1.11192" stroke-linecap="butt" stroke-linejoin="miter" stroke-miterlimit="8" stroke-opacity="1" fill="none" fill-rule="evenodd" transform="matrix(1.00106 0 0 1 -91.2738 -63.3796)"/><path d="M445.325 390.285 445.325 400.39" stroke="#7F7F7F" stroke-width="1.11192" stroke-linecap="butt" stroke-linejoin="miter" stroke-miterlimit="8" stroke-opacity="1" fill="none" fill-rule="evenodd" transform="matrix(1.00106 0 0 1 -91.2738 -63.3796)"/><path d="M445.325 449.217 445.325 467.456" stroke="#7F7F7F" stroke-width="1.11192" stroke-linecap="butt" stroke-linejoin="miter" stroke-miterlimit="8" stroke-opacity="1" fill="none" fill-rule="evenodd" transform="matrix(1.00106 0 0 1 -91.2738 -63.3796)"/><path d="M397.512 396.956 397.512 442.305" stroke="#E97132" stroke-width="1.11192" stroke-linecap="butt" stroke-linejoin="miter" stroke-miterlimit="8" stroke-opacity="1" fill="none" fill-rule="evenodd" transform="matrix(1.00106 0 0 1 -91.2738 -63.3796)"/><text fill="#E97132" fill-opacity="1" font-family="Arial,Arial_MSFontService,sans-serif" font-style="normal" font-variant="normal" font-weight="400" font-stretch="normal" font-size="18" text-anchor="start" direction="ltr" writing-mode="lr-tb" unicode-bidi="normal" text-decoration="none" transform="matrix(0.556548 0 0 0.555961 239.182 394)">Elasto</text><text fill="#E97132" fill-opacity="1" font-family="Arial,Arial_MSFontService,sans-serif" font-style="normal" font-variant="normal" font-weight="400" font-stretch="normal" font-size="18" text-anchor="start" direction="ltr" writing-mode="lr-tb" unicode-bidi="normal" text-decoration="none" transform="matrix(0.556548 0 0 0.555961 267.01 394)">-</text><text fill="#E97132" fill-opacity="1" font-family="Arial,Arial_MSFontService,sans-serif" font-style="normal" font-variant="normal" font-weight="400" font-stretch="normal" font-size="18" text-anchor="start" direction="ltr" writing-mode="lr-tb" unicode-bidi="normal" text-decoration="none" transform="matrix(0.556548 0 0 0.555961 270.349 394)">plasticity </text><text fill="#E97132" fill-opacity="1" font-family="Arial,Arial_MSFontService,sans-serif" font-style="normal" font-variant="normal" font-weight="400" font-stretch="normal" font-size="18" text-anchor="start" direction="ltr" writing-mode="lr-tb" unicode-bidi="normal" text-decoration="none" transform="matrix(0.556548 0 0 0.555961 311.534 394)">of soil</text><path d="M297.439 374.162 297.439 400.689" stroke="#000000" stroke-width="1.11192" stroke-linecap="butt" stroke-linejoin="miter" stroke-miterlimit="8" stroke-opacity="1" fill="none" fill-rule="evenodd" transform="matrix(1.00106 0 0 1 -91.2738 -63.3796)"/><text fill="#000000" fill-opacity="1" font-family="Arial,Arial_MSFontService,sans-serif" font-style="normal" font-variant="normal" font-weight="400" font-stretch="normal" font-size="18" text-anchor="start" direction="ltr" writing-mode="lr-tb" unicode-bidi="normal" text-decoration="none" transform="matrix(0.556548 0 0 0.555961 196.09 352)">Hysteresis elasticity:</text><text fill="#000000" fill-opacity="1" font-family="Arial,Arial_MSFontService,sans-serif" font-style="normal" font-variant="normal" font-weight="400" font-stretch="normal" font-size="18" text-anchor="start" direction="ltr" writing-mode="lr-tb" unicode-bidi="normal" text-decoration="none" transform="matrix(0.556548 0 0 0.555961 196.09 364)">Function of </text><text fill="#000000" fill-opacity="1" font-family="Cambria Math,Cambria Math_MSFontService,sans-serif" font-style="normal" font-variant="normal" font-weight="400" font-stretch="normal" font-size="18" text-anchor="start" direction="ltr" writing-mode="lr-tb" unicode-bidi="normal" text-decoration="none" transform="matrix(0.556548 0 0 0.555961 248.405 364)">𝜉</text><text fill="#000000" fill-opacity="1" font-family="Arial,Arial_MSFontService,sans-serif" font-style="normal" font-variant="normal" font-weight="400" font-stretch="normal" font-size="22" text-anchor="start" direction="ltr" writing-mode="lr-tb" unicode-bidi="normal" text-decoration="none" transform="matrix(0.556548 0 0 0.555961 37.9788 31)">(a)</text><text fill="#000000" fill-opacity="1" font-family="Arial,Arial_MSFontService,sans-serif" font-style="normal" font-variant="normal" font-weight="400" font-stretch="normal" font-size="22" text-anchor="start" direction="ltr" writing-mode="lr-tb" unicode-bidi="normal" text-decoration="none" transform="matrix(0.556548 0 0 0.555961 323.63 31)">(b)</text><text fill="#000000" fill-opacity="1" font-family="Arial,Arial_MSFontService,sans-serif" font-style="normal" font-variant="normal" font-weight="400" font-stretch="normal" font-size="22" text-anchor="start" direction="ltr" writing-mode="lr-tb" unicode-bidi="normal" text-decoration="none" transform="matrix(0.556548 0 0 0.555961 173.784 281)">(c)</text></g></g></svg>