<svg width="568" height="188" xmlns="http://www.w3.org/2000/svg" xmlns:xlink="http://www.w3.org/1999/xlink" xml:space="preserve" overflow="hidden"><g><g><g><g><g><path d="M421.367 33.387 367.915 176.474 367.915 33.387Z" fill="#D1D1D1" fill-rule="evenodd" fill-opacity="1" transform="matrix(1.00159 0 0 1 -15.8141 -4.44063)"/><path d="M16.529 176.18 276.865 176.18 276.865 176.933 16.529 176.933ZM276.112 175.048 283.65 176.556 276.112 178.064Z" fill="#000000" fill-rule="nonzero" fill-opacity="1" transform="matrix(1.00159 0 0 1 -15.8141 -4.44063)"/><path d="M0.376906-1.35097e-07 0.376962 158.811-0.376849 158.811-0.376906 1.35097e-07ZM1.50768 158.057 5.93552e-05 165.594-1.50757 158.057Z" fill="#000000" fill-rule="nonzero" fill-opacity="1" transform="matrix(1.00159 0 0 -1 9.63669 186.729)"/><text fill="#000000" fill-opacity="1" font-family="Cambria Math,Cambria Math_MSFontService,sans-serif" font-style="normal" font-variant="normal" font-weight="400" font-stretch="normal" font-size="64" text-anchor="start" direction="ltr" writing-mode="lr-tb" unicode-bidi="normal" text-decoration="none" transform="matrix(0.16473 0 0 0.164468 6.54109 13)">𝑞</text><path d="M23.6011 176.556C23.6011 175.648 24.3006 174.912 25.1636 174.912 26.0266 174.912 26.726 175.648 26.726 176.556 26.726 177.464 26.0266 178.201 25.1636 178.201 24.3006 178.201 23.6011 177.464 23.6011 176.556Z" stroke="#000000" stroke-width="0.753811" stroke-linecap="butt" stroke-linejoin="miter" stroke-miterlimit="8" stroke-opacity="1" fill="#AEAEAE" fill-rule="evenodd" fill-opacity="1" transform="matrix(1.00159 0 0 1 -15.8141 -4.44063)"/><path d="M0.366484-0.0880175 1.07062 2.84386 0.337654 3.01989-0.366484 0.0880175ZM1.59873 5.04277 2.30286 7.97464 1.5699 8.15067 0.865759 5.2188ZM2.83097 10.1735 3.53511 13.1054 2.80214 13.2815 2.098 10.3496ZM4.06321 15.3043 4.76735 18.2362 4.03438 18.4122 3.33024 15.4804ZM5.29545 20.4351 5.51757 21.3599 4.78458 21.5359 4.56249 20.6111ZM6.44097 20.3629 6.73539 28.0446 3.5091 21.067Z" fill="#E97132" fill-rule="nonzero" fill-opacity="1" transform="matrix(1.00159 0 0 -1 21.003 147.202)"/><text fill="#000000" fill-opacity="1" font-family="Cambria Math,Cambria Math_MSFontService,sans-serif" font-style="normal" font-variant="normal" font-weight="400" font-stretch="normal" font-size="64" text-anchor="start" direction="ltr" writing-mode="lr-tb" unicode-bidi="normal" text-decoration="none" transform="matrix(0.16473 0 0 0.164468 270.259 176)">𝜀</text><text fill="#000000" fill-opacity="1" font-family="Cambria Math,Cambria Math_MSFontService,sans-serif" font-style="normal" font-variant="normal" font-weight="400" font-stretch="normal" font-size="47" text-anchor="start" direction="ltr" writing-mode="lr-tb" unicode-bidi="normal" text-decoration="none" transform="matrix(0.16473 0 0 0.164468 274.888 179)">𝑛𝑑</text><path d="M25.9037 174.747C32.4105 138.006 38.9174 101.264 67.48 78.3482 96.0425 55.4324 146.661 46.3423 197.279 37.252" stroke="#F6C6AD" stroke-width="1.13072" stroke-linecap="butt" stroke-linejoin="miter" stroke-miterlimit="8" stroke-opacity="1" fill="none" fill-rule="evenodd" transform="matrix(1.00159 0 0 1 -15.8141 -4.44063)"/><text fill="#F2AA84" fill-opacity="1" font-family="Arial,Arial_MSFontService,sans-serif" font-style="normal" font-variant="normal" font-weight="400" font-stretch="normal" font-size="48" text-anchor="start" direction="ltr" writing-mode="lr-tb" unicode-bidi="normal" text-decoration="none" transform="matrix(0.16473 0 0 0.164468 56.8432 18)">Natural fibrous peat</text><text fill="#F2AA84" fill-opacity="1" font-family="Arial,Arial_MSFontService,sans-serif" font-style="normal" font-variant="normal" font-weight="400" font-stretch="normal" font-size="48" text-anchor="start" direction="ltr" writing-mode="lr-tb" unicode-bidi="normal" text-decoration="none" transform="matrix(0.16473 0 0 0.164468 56.8432 28)">(e.g., Oikawa and Miyagawa, 1980)</text><path d="M25.9037 176.556C27.213 147.752 28.5225 118.947 45.5449 104.666 62.5674 90.3843 94.1423 91.1882 128.038 90.8685" stroke="#E97132" stroke-width="1.13072" stroke-linecap="butt" stroke-linejoin="miter" stroke-miterlimit="8" stroke-opacity="1" fill="none" fill-rule="evenodd" transform="matrix(1.00159 0 0 1 -15.8141 -4.44063)"/><text fill="#E97132" fill-opacity="1" font-family="Arial,Arial_MSFontService,sans-serif" font-style="normal" font-variant="normal" font-weight="400" font-stretch="normal" font-size="48" text-anchor="start" direction="ltr" writing-mode="lr-tb" unicode-bidi="normal" text-decoration="none" transform="matrix(0.16473 0 0 0.164468 36.8229 112)">Reconstituted peat: </text><text fill="#E97132" fill-opacity="1" font-family="Arial,Arial_MSFontService,sans-serif" font-style="normal" font-variant="normal" font-weight="400" font-stretch="normal" font-size="48" text-anchor="start" direction="ltr" writing-mode="lr-tb" unicode-bidi="normal" text-decoration="none" transform="matrix(0.16473 0 0 0.164468 107.416 112)">Fibre</text><text fill="#E97132" fill-opacity="1" font-family="Arial,Arial_MSFontService,sans-serif" font-style="normal" font-variant="normal" font-weight="400" font-stretch="normal" font-size="48" text-anchor="start" direction="ltr" writing-mode="lr-tb" unicode-bidi="normal" text-decoration="none" transform="matrix(0.16473 0 0 0.164468 127.707 112)">network lost </text><text fill="#E97132" fill-opacity="1" font-family="Arial,Arial_MSFontService,sans-serif" font-style="normal" font-variant="normal" font-weight="400" font-stretch="normal" font-size="48" text-anchor="start" direction="ltr" writing-mode="lr-tb" unicode-bidi="normal" text-decoration="none" transform="matrix(0.16473 0 0 0.164468 36.8229 122)">(e.g., Muraro and </text><text fill="#E97132" fill-opacity="1" font-family="Arial,Arial_MSFontService,sans-serif" font-style="normal" font-variant="normal" font-weight="400" font-stretch="normal" font-size="48" text-anchor="start" direction="ltr" writing-mode="lr-tb" unicode-bidi="normal" text-decoration="none" transform="matrix(0.16473 0 0 0.164468 99.8663 122)">Jommi</text><text fill="#E97132" fill-opacity="1" font-family="Arial,Arial_MSFontService,sans-serif" font-style="normal" font-variant="normal" font-weight="400" font-stretch="normal" font-size="48" text-anchor="start" direction="ltr" writing-mode="lr-tb" unicode-bidi="normal" text-decoration="none" transform="matrix(0.16473 0 0 0.164468 123.272 122)">, 2021)</text><path d="M123.81 58.6192 123.81 82.0493 123.056 82.0493 123.056 58.6192ZM121.172 59.3729 123.433 54.85 125.695 59.3729ZM125.695 81.2955 123.433 85.8184 121.172 81.2955Z" fill="#0E2841" fill-rule="nonzero" fill-opacity="1" transform="matrix(1.00159 0 0 1 -15.8141 -4.44063)"/><text fill="#000000" fill-opacity="1" font-family="Arial,Arial_MSFontService,sans-serif" font-style="normal" font-variant="normal" font-weight="400" font-stretch="normal" font-size="50" text-anchor="start" direction="ltr" writing-mode="lr-tb" unicode-bidi="normal" text-decoration="none" transform="matrix(0.16473 0 0 0.164468 131.049 68)">Fibres</text><text fill="#000000" fill-opacity="1" font-family="Arial,Arial_MSFontService,sans-serif" font-style="normal" font-variant="normal" font-weight="400" font-stretch="normal" font-size="50" text-anchor="start" direction="ltr" writing-mode="lr-tb" unicode-bidi="normal" text-decoration="none" transform="matrix(0.16473 0 0 0.164468 156.436 68)">enable large deformation unless they rupture.</text><text fill="#000000" fill-opacity="1" font-family="Arial,Arial_MSFontService,sans-serif" font-style="normal" font-variant="normal" font-weight="400" font-stretch="normal" font-size="50" text-anchor="start" direction="ltr" writing-mode="lr-tb" unicode-bidi="normal" text-decoration="none" transform="matrix(0.16473 0 0 0.164468 135.579 78)">→ enhances end restraint </text><text fill="#000000" fill-opacity="1" font-family="Arial,Arial_MSFontService,sans-serif" font-style="normal" font-variant="normal" font-weight="400" font-stretch="normal" font-size="50" text-anchor="start" direction="ltr" writing-mode="lr-tb" unicode-bidi="normal" text-decoration="none" transform="matrix(0.16473 0 0 0.164468 137.844 88)">→ induces </text><text fill="#000000" fill-opacity="1" font-family="Arial,Arial_MSFontService,sans-serif" font-style="italic" font-variant="normal" font-weight="400" font-stretch="normal" font-size="50" text-anchor="start" direction="ltr" writing-mode="lr-tb" unicode-bidi="normal" text-decoration="none" transform="matrix(0.16473 0 0 0.164468 179.369 88)">local </text><text fill="#000000" fill-opacity="1" font-family="Arial,Arial_MSFontService,sans-serif" font-style="italic" font-variant="normal" font-weight="400" font-stretch="normal" font-size="50" text-anchor="start" direction="ltr" writing-mode="lr-tb" unicode-bidi="normal" text-decoration="none" transform="matrix(0.16473 0 0 0.164468 198.811 88)">volumetric </text><text fill="#000000" fill-opacity="1" font-family="Arial,Arial_MSFontService,sans-serif" font-style="italic" font-variant="normal" font-weight="400" font-stretch="normal" font-size="50" text-anchor="start" direction="ltr" writing-mode="lr-tb" unicode-bidi="normal" text-decoration="none" transform="matrix(0.16473 0 0 0.164468 238.921 88)">hardening</text><text fill="#000000" fill-opacity="1" font-family="Arial,Arial_MSFontService,sans-serif" font-style="normal" font-variant="normal" font-weight="700" font-stretch="normal" font-size="55" text-anchor="start" direction="ltr" writing-mode="lr-tb" unicode-bidi="normal" text-decoration="none" transform="matrix(0.16473 0 0 0.164468 116.337 56)">Effect of </text><text fill="#000000" fill-opacity="1" font-family="Arial,Arial_MSFontService,sans-serif" font-style="italic" font-variant="normal" font-weight="700" font-stretch="normal" font-size="55" text-anchor="start" direction="ltr" writing-mode="lr-tb" unicode-bidi="normal" text-decoration="none" transform="matrix(0.16473 0 0 0.164468 155.126 56)">fibres</text><text fill="#000000" fill-opacity="1" font-family="Arial,Arial_MSFontService,sans-serif" font-style="normal" font-variant="normal" font-weight="700" font-stretch="normal" font-size="55" text-anchor="start" direction="ltr" writing-mode="lr-tb" unicode-bidi="normal" text-decoration="none" transform="matrix(0.16473 0 0 0.164468 179.758 56)">:</text><path d="M122.446 90.704C122.446 89.7957 123.183 89.0594 124.091 89.0594 124.999 89.0594 125.736 89.7957 125.736 90.704 125.736 91.6124 124.999 92.3487 124.091 92.3487 123.183 92.3487 122.446 91.6124 122.446 90.704Z" stroke="#000000" stroke-width="0.753811" stroke-linecap="butt" stroke-linejoin="miter" stroke-miterlimit="8" stroke-opacity="1" fill="#AEAEAE" fill-rule="evenodd" fill-opacity="1" transform="matrix(1.00159 0 0 1 -15.8141 -4.44063)"/><path d="M130.816 91.2871 138.079 92.8382 143.505 94.0046 148.87 95.1675 154.156 96.3259 159.343 97.4788 164.411 98.6247 169.338 99.7626 174.107 100.892 178.698 102.01 183.087 103.117 187.26 104.212 189.258 104.755 191.192 105.294 193.064 105.829 194.868 106.36 196.603 106.888 198.266 107.412 199.853 107.931 201.365 108.446 202.799 108.957 204.154 109.464 205.437 109.967 206.646 110.466 207.785 110.961 208.859 111.452 209.869 111.94 210.818 112.426 212.534 113.386 214.035 114.337 215.336 115.279 216.459 116.213 217.423 117.141 218.246 118.062 218.946 118.977 219.545 119.885 220.06 120.787 220.514 121.682 221.306 123.443 220.619 123.752 219.829 121.999 219.836 122.015 219.392 121.136 219.402 121.152 218.897 120.27 218.908 120.29 218.325 119.403 218.341 119.424 217.657 118.531 217.675 118.553 216.871 117.653 216.89 117.674 215.946 116.766 215.968 116.784 214.864 115.867 214.884 115.882 213.603 114.955 213.621 114.968 212.139 114.029 212.157 114.039 210.456 113.087 210.468 113.094 209.529 112.613 209.537 112.617 208.535 112.132 208.542 112.136 207.476 111.647 207.483 111.651 206.35 111.158 206.355 111.161 205.152 110.665 205.157 110.667 203.883 110.167 203.888 110.169 202.537 109.664 202.542 109.666 201.115 109.157 201.12 109.159 199.613 108.645 199.618 108.647 198.033 108.129 198.037 108.13 196.378 107.608 196.381 107.609 194.651 107.082 194.654 107.083 192.852 106.552 192.855 106.553 190.987 106.019 190.99 106.019 189.056 105.481 189.059 105.482 187.062 104.94 187.066 104.941 182.898 103.847 182.901 103.848 178.513 102.741 178.517 102.742 173.93 101.624 173.933 101.625 169.165 100.496 169.168 100.497 164.242 99.3593 164.244 99.3597 159.178 98.2141 159.179 98.2145 153.995 97.0622 148.711 95.9042 143.346 94.7416 137.922 93.5753 130.659 92.0242ZM131.002 94.0247 127.051 90.8685 131.947 89.6015Z" fill="#7F7F7F" fill-rule="nonzero" fill-opacity="1" transform="matrix(1.00159 0 0 1 -15.8141 -4.44063)"/><text fill="#000000" fill-opacity="1" font-family="Arial,Arial_MSFontService,sans-serif" font-style="normal" font-variant="normal" font-weight="700" font-stretch="normal" font-size="55" text-anchor="start" direction="ltr" writing-mode="lr-tb" unicode-bidi="normal" text-decoration="none" transform="matrix(0.16473 0 0 0.164468 186.573 133)">Without </text><text fill="#000000" fill-opacity="1" font-family="Arial,Arial_MSFontService,sans-serif" font-style="normal" font-variant="normal" font-weight="700" font-stretch="normal" font-size="55" text-anchor="start" direction="ltr" writing-mode="lr-tb" unicode-bidi="normal" text-decoration="none" transform="matrix(0.16473 0 0 0.164468 222.922 133)">fibres</text><text fill="#000000" fill-opacity="1" font-family="Arial,Arial_MSFontService,sans-serif" font-style="normal" font-variant="normal" font-weight="700" font-stretch="normal" font-size="55" text-anchor="start" direction="ltr" writing-mode="lr-tb" unicode-bidi="normal" text-decoration="none" transform="matrix(0.16473 0 0 0.164468 247.554 133)">…</text><text fill="#000000" fill-opacity="1" font-family="Arial,Arial_MSFontService,sans-serif" font-style="normal" font-variant="normal" font-weight="400" font-stretch="normal" font-size="50" text-anchor="start" direction="ltr" writing-mode="lr-tb" unicode-bidi="normal" text-decoration="none" transform="matrix(0.16473 0 0 0.164468 191.668 144)">Deformation limited</text><text fill="#000000" fill-opacity="1" font-family="Arial,Arial_MSFontService,sans-serif" font-style="normal" font-variant="normal" font-weight="400" font-stretch="normal" font-size="50" text-anchor="start" direction="ltr" writing-mode="lr-tb" unicode-bidi="normal" text-decoration="none" transform="matrix(0.16473 0 0 0.164468 195.633 154)">→ less end restraint</text><text fill="#000000" fill-opacity="1" font-family="Arial,Arial_MSFontService,sans-serif" font-style="normal" font-variant="normal" font-weight="400" font-stretch="normal" font-size="50" text-anchor="start" direction="ltr" writing-mode="lr-tb" unicode-bidi="normal" text-decoration="none" transform="matrix(0.16473 0 0 0.164468 197.898 164)">→ reduced volumetric hardening.</text><path d="M130.012 136.755 167.182 136.755 167.182 173.925 130.012 173.925Z" stroke="#000000" stroke-width="0.753811" stroke-linecap="butt" stroke-linejoin="miter" stroke-miterlimit="8" stroke-dasharray="3.01524 2.26143" stroke-opacity="1" fill="none" fill-rule="nonzero" transform="matrix(1.00159 0 0 1 -15.8141 -4.44063)"/><path d="M125.736 142.511 171.622 142.511 171.622 173.925 125.736 173.925Z" stroke="#000000" stroke-width="0.753811" stroke-linecap="butt" stroke-linejoin="miter" stroke-miterlimit="8" stroke-opacity="1" fill="none" fill-rule="nonzero" transform="matrix(1.00159 0 0 1 -15.8141 -4.44063)"/><path d="M247.606 20.4763 255.156 33.1779" stroke="#404040" stroke-width="0.753811" stroke-linecap="butt" stroke-linejoin="miter" stroke-miterlimit="8" stroke-opacity="1" fill="none" fill-rule="evenodd" transform="matrix(1.00159 0 0 1 -15.8141 -4.44063)"/><path d="M210.108 44.1596 247.287 44.1596" stroke="#404040" stroke-width="0.753811" stroke-linecap="butt" stroke-linejoin="miter" stroke-miterlimit="8" stroke-opacity="1" fill="none" fill-rule="evenodd" transform="matrix(1.00159 0 0 1 -15.8141 -4.44063)"/><path d="M210.108 20.6407 247.873 20.6407" stroke="#404040" stroke-width="0.753811" stroke-linecap="butt" stroke-linejoin="miter" stroke-miterlimit="8" stroke-opacity="1" fill="none" fill-rule="evenodd" transform="matrix(1.00159 0 0 1 -15.8141 -4.44063)"/><path d="M210.108 6.9899 247.277 6.9899 247.277 44.1596 210.108 44.1596Z" stroke="#000000" stroke-width="0.753811" stroke-linecap="butt" stroke-linejoin="miter" stroke-miterlimit="8" stroke-dasharray="3.01524 2.26143" stroke-opacity="1" fill="none" fill-rule="nonzero" transform="matrix(1.00159 0 0 1 -15.8141 -4.44063)"/><path d="M0 0 7.25552 11.2675" stroke="#404040" stroke-width="0.753811" stroke-linecap="butt" stroke-linejoin="miter" stroke-miterlimit="8" stroke-opacity="1" fill="none" fill-rule="evenodd" transform="matrix(1.00159 0 0 -1 232.516 39.967)"/><path d="M0 0 7.8413 12.6358" stroke="#404040" stroke-width="0.753811" stroke-linecap="butt" stroke-linejoin="miter" stroke-miterlimit="8" stroke-opacity="1" fill="none" fill-rule="evenodd" transform="matrix(-1.00159 0 0 1 194.74 16.3646)"/><path d="M210.22 44.1815 202.378 33.1403" stroke="#404040" stroke-width="0.753811" stroke-linecap="butt" stroke-linejoin="miter" stroke-miterlimit="8" stroke-opacity="1" fill="none" fill-rule="evenodd" transform="matrix(1.00159 0 0 1 -15.8141 -4.44063)"/><path d="M349.412 176.673 552.683 176.673 552.683 177.426 349.412 177.426ZM551.93 175.542 559.467 177.05 551.93 178.558Z" fill="#000000" fill-rule="nonzero" fill-opacity="1" transform="matrix(1.00159 0 0 1 -15.8141 -4.44063)"/><path d="M0.376906-1.35506e-07 0.376962 158.311-0.376849 158.311-0.376906 1.35506e-07ZM1.50768 157.557 5.93552e-05 165.095-1.50757 157.557Z" fill="#000000" fill-rule="nonzero" fill-opacity="1" transform="matrix(1.00159 0 0 -1 352.439 186.722)"/><text fill="#000000" fill-opacity="1" font-family="Cambria Math,Cambria Math_MSFontService,sans-serif" font-style="normal" font-variant="normal" font-weight="400" font-stretch="normal" font-size="50" text-anchor="start" direction="ltr" writing-mode="lr-tb" unicode-bidi="normal" text-decoration="none" transform="matrix(0.16473 0 0 0.164468 349.931 16)">𝑞</text><text fill="#000000" fill-opacity="1" font-family="Cambria Math,Cambria Math_MSFontService,sans-serif" font-style="normal" font-variant="normal" font-weight="400" font-stretch="normal" font-size="50" text-anchor="start" direction="ltr" writing-mode="lr-tb" unicode-bidi="normal" text-decoration="none" transform="matrix(0.16473 0 0 0.164468 552.878 175)">𝑝′</text><path d="M0 0 94.6766 139.896" stroke="#7F7F7F" stroke-width="0.753811" stroke-linecap="square" stroke-linejoin="miter" stroke-miterlimit="8" stroke-dasharray="2.26143 0.753811" stroke-opacity="1" fill="none" fill-rule="evenodd" transform="matrix(1.00159 0 0 -1 352.11 172.708)"/><path d="M0 0 53.9216 143.698" stroke="#7F7F7F" stroke-width="1.13072" stroke-linecap="butt" stroke-linejoin="miter" stroke-miterlimit="8" stroke-opacity="1" fill="none" fill-rule="evenodd" transform="matrix(1.00159 0 0 -1 352.439 172.726)"/><path d="M442.642 177.543C442.734 161.701 442.827 145.859 437.101 135.744 431.376 125.629 419.834 121.242 408.292 116.854" stroke="#E97132" stroke-width="1.13072" stroke-linecap="butt" stroke-linejoin="miter" stroke-miterlimit="8" stroke-opacity="1" fill="none" fill-rule="evenodd" transform="matrix(1.00159 0 0 1 -15.8141 -4.44063)"/><path d="M434.527 166.167 442.067 167.675 434.527 169.183Z" fill="#E97132" fill-rule="nonzero" fill-opacity="1" transform="matrix(1.00159 0 0 1 -15.8141 -4.44063)"/><text fill="#E97132" fill-opacity="1" font-family="Arial,Arial_MSFontService,sans-serif" font-style="normal" font-variant="normal" font-weight="400" font-stretch="normal" font-size="48" text-anchor="start" direction="ltr" writing-mode="lr-tb" unicode-bidi="normal" text-decoration="none" transform="matrix(0.16473 0 0 0.164468 365.033 166)">Reconstituted</text><path d="M9.5167e-07-0.376906 3.01524-0.376898 3.01524 0.376913-9.5167e-07 0.376906ZM5.27667-0.376893 8.29193-0.376885 8.29193 0.376926 5.27667 0.376919ZM10.5534-0.376878 13.5686-0.376872 13.5686 0.376939 10.5534 0.376932ZM15.83-0.376865 16.7231-0.376863 16.7231 0.376947 15.83 0.376946ZM15.9693-1.50758 23.5074 5.93552e-05 15.9693 1.50766Z" fill="#F6C6AD" fill-rule="nonzero" fill-opacity="1" transform="matrix(-1.00159 0 0 1 434.793 104.519)"/><text fill="#F2AA84" fill-opacity="1" font-family="Arial,Arial_MSFontService,sans-serif" font-style="normal" font-variant="normal" font-weight="400" font-stretch="normal" font-size="48" text-anchor="start" direction="ltr" writing-mode="lr-tb" unicode-bidi="normal" text-decoration="none" transform="matrix(0.16473 0 0 0.164468 440.331 106)">Natural</text><path d="M406.482 117.43C406.482 116.567 407.181 115.868 408.045 115.868 408.908 115.868 409.607 116.567 409.607 117.43 409.607 118.293 408.908 118.993 408.045 118.993 407.181 118.993 406.482 118.293 406.482 117.43Z" stroke="#000000" stroke-width="0.753811" stroke-linecap="butt" stroke-linejoin="miter" stroke-miterlimit="8" stroke-opacity="1" fill="#AEAEAE" fill-rule="evenodd" fill-opacity="1" transform="matrix(1.00159 0 0 1 -15.8141 -4.44063)"/><path d="M439.869 70.9679 454.402 70.9679" stroke="#7F7F7F" stroke-width="0.753811" stroke-linecap="square" stroke-linejoin="miter" stroke-miterlimit="8" stroke-dasharray="2.26143 0.753811" stroke-opacity="1" fill="none" fill-rule="evenodd" transform="matrix(1.00159 0 0 1 -15.8141 -4.44063)"/><path d="M0 0 5.93552e-05 21.5659" stroke="#7F7F7F" stroke-width="0.753811" stroke-linecap="square" stroke-linejoin="miter" stroke-miterlimit="8" stroke-dasharray="2.26143 0.753811" stroke-opacity="1" fill="none" fill-rule="evenodd" transform="matrix(1.00159 0 0 -1 439.252 65.89)"/><text fill="#404040" fill-opacity="1" font-family="Arial,Arial_MSFontService,sans-serif" font-style="normal" font-variant="normal" font-weight="400" font-stretch="normal" font-size="48" text-anchor="start" direction="ltr" writing-mode="lr-tb" unicode-bidi="normal" text-decoration="none" transform="matrix(0.16473 0 0 0.164468 429.706 76)">1</text><text fill="#404040" fill-opacity="1" font-family="Arial,Arial_MSFontService,sans-serif" font-style="italic" font-variant="normal" font-weight="400" font-stretch="normal" font-size="48" text-anchor="start" direction="ltr" writing-mode="lr-tb" unicode-bidi="normal" text-decoration="none" transform="matrix(0.16473 0 0 0.164468 443.43 59)">M</text><path d="M0 0 5.93552e-05 26.3764" stroke="#7F7F7F" stroke-width="0.753811" stroke-linecap="butt" stroke-linejoin="miter" stroke-miterlimit="8" stroke-opacity="1" fill="none" fill-rule="evenodd" transform="matrix(1.00159 0 0 -1 405.812 57.3786)"/><path d="M443.159 176.392C439.098 152.589 435.037 128.786 429.237 113.33 423.436 97.8739 411.448 91.5367 408.354 83.654 405.26 75.7713 407.968 70.9026 410.675 66.0339" stroke="#F6C6AD" stroke-width="1.13072" stroke-linecap="butt" stroke-linejoin="miter" stroke-miterlimit="8" stroke-opacity="1" fill="none" fill-rule="evenodd" transform="matrix(1.00159 0 0 1 -15.8141 -4.44063)"/><path d="M0 0 11.8858 5.93552e-05" stroke="#7F7F7F" stroke-width="0.753811" stroke-linecap="butt" stroke-linejoin="miter" stroke-miterlimit="8" stroke-opacity="1" fill="none" fill-rule="evenodd" transform="matrix(-1.00159 0 0 1 406.351 57.3171)"/><text fill="#404040" fill-opacity="1" font-family="Arial,Arial_MSFontService,sans-serif" font-style="normal" font-variant="normal" font-weight="400" font-stretch="normal" font-size="48" text-anchor="start" direction="ltr" writing-mode="lr-tb" unicode-bidi="normal" text-decoration="none" transform="matrix(0.16473 0 0 0.164468 399.177 70)">1</text><text fill="#404040" fill-opacity="1" font-family="Arial,Arial_MSFontService,sans-serif" font-style="normal" font-variant="normal" font-weight="400" font-stretch="normal" font-size="48" text-anchor="start" direction="ltr" writing-mode="lr-tb" unicode-bidi="normal" text-decoration="none" transform="matrix(0.16473 0 0 0.164468 409.222 50)">3</text><text fill="#404040" fill-opacity="1" font-family="Arial,Arial_MSFontService,sans-serif" font-style="italic" font-variant="normal" font-weight="400" font-stretch="normal" font-size="48" text-anchor="start" direction="ltr" writing-mode="lr-tb" unicode-bidi="normal" text-decoration="none" transform="matrix(0.16473 0 0 0.164468 395.719 16)">Tension cut</text><text fill="#404040" fill-opacity="1" font-family="Arial,Arial_MSFontService,sans-serif" font-style="italic" font-variant="normal" font-weight="400" font-stretch="normal" font-size="48" text-anchor="start" direction="ltr" writing-mode="lr-tb" unicode-bidi="normal" text-decoration="none" transform="matrix(0.16473 0 0 0.164468 436.773 16)">-</text><text fill="#404040" fill-opacity="1" font-family="Arial,Arial_MSFontService,sans-serif" font-style="italic" font-variant="normal" font-weight="400" font-stretch="normal" font-size="48" text-anchor="start" direction="ltr" writing-mode="lr-tb" unicode-bidi="normal" text-decoration="none" transform="matrix(0.16473 0 0 0.164468 439.415 16)">off </text><text fill="#404040" fill-opacity="1" font-family="Arial,Arial_MSFontService,sans-serif" font-style="normal" font-variant="normal" font-weight="400" font-stretch="normal" font-size="48" text-anchor="start" direction="ltr" writing-mode="lr-tb" unicode-bidi="normal" text-decoration="none" transform="matrix(0.16473 0 0 0.164468 450.363 16)">line</text><text fill="#404040" fill-opacity="1" font-family="Arial,Arial_MSFontService,sans-serif" font-style="normal" font-variant="normal" font-weight="400" font-stretch="normal" font-size="48" text-anchor="start" direction="ltr" writing-mode="lr-tb" unicode-bidi="normal" text-decoration="none" transform="matrix(0.16473 0 0 0.164468 395.719 26)">(</text><text fill="#404040" fill-opacity="1" font-family="Cambria Math,Cambria Math_MSFontService,sans-serif" font-style="normal" font-variant="normal" font-weight="400" font-stretch="normal" font-size="48" text-anchor="start" direction="ltr" writing-mode="lr-tb" unicode-bidi="normal" text-decoration="none" transform="matrix(0.16473 0 0 0.164468 398.363 26)">𝜎</text><text fill="#404040" fill-opacity="1" font-family="Cambria Math,Cambria Math_MSFontService,sans-serif" font-style="normal" font-variant="normal" font-weight="400" font-stretch="normal" font-size="35" text-anchor="start" direction="ltr" writing-mode="lr-tb" unicode-bidi="normal" text-decoration="none" transform="matrix(0.16473 0 0 0.164468 402.443 28)">𝑟</text><text fill="#404040" fill-opacity="1" font-family="Cambria Math,Cambria Math_MSFontService,sans-serif" font-style="normal" font-variant="normal" font-weight="400" font-stretch="normal" font-size="35" text-anchor="start" direction="ltr" writing-mode="lr-tb" unicode-bidi="normal" text-decoration="none" transform="matrix(0.16473 0 0 0.164468 403.451 23)">′</text><text fill="#404040" fill-opacity="1" font-family="Cambria Math,Cambria Math_MSFontService,sans-serif" font-style="normal" font-variant="normal" font-weight="400" font-stretch="normal" font-size="48" text-anchor="start" direction="ltr" writing-mode="lr-tb" unicode-bidi="normal" text-decoration="none" transform="matrix(0.16473 0 0 0.164468 408.177 26)">=</text><text fill="#404040" fill-opacity="1" font-family="Cambria Math,Cambria Math_MSFontService,sans-serif" font-style="normal" font-variant="normal" font-weight="400" font-stretch="normal" font-size="48" text-anchor="start" direction="ltr" writing-mode="lr-tb" unicode-bidi="normal" text-decoration="none" transform="matrix(0.16473 0 0 0.164468 416.323 26)">0</text><text fill="#404040" fill-opacity="1" font-family="Arial,Arial_MSFontService,sans-serif" font-style="normal" font-variant="normal" font-weight="400" font-stretch="normal" font-size="48" text-anchor="start" direction="ltr" writing-mode="lr-tb" unicode-bidi="normal" text-decoration="none" transform="matrix(0.16473 0 0 0.164468 420.759 26)">)</text><text fill="#000000" fill-opacity="1" font-family="Arial,Arial_MSFontService,sans-serif" font-style="italic" font-variant="normal" font-weight="400" font-stretch="normal" font-size="41" text-anchor="start" direction="ltr" writing-mode="lr-tb" unicode-bidi="normal" text-decoration="none" transform="matrix(0.16473 0 0 0.164468 356.544 37)">Tensile region</text><text fill="#000000" fill-opacity="1" font-family="Arial,Arial_MSFontService,sans-serif" font-style="normal" font-variant="normal" font-weight="400" font-stretch="normal" font-size="41" text-anchor="start" direction="ltr" writing-mode="lr-tb" unicode-bidi="normal" text-decoration="none" transform="matrix(0.16473 0 0 0.164468 356.544 45)">(</text><text fill="#000000" fill-opacity="1" font-family="Cambria Math,Cambria Math_MSFontService,sans-serif" font-style="normal" font-variant="normal" font-weight="400" font-stretch="normal" font-size="41" text-anchor="start" direction="ltr" writing-mode="lr-tb" unicode-bidi="normal" text-decoration="none" transform="matrix(0.16473 0 0 0.164468 358.81 45)">𝜎</text><text fill="#000000" fill-opacity="1" font-family="Cambria Math,Cambria Math_MSFontService,sans-serif" font-style="normal" font-variant="normal" font-weight="400" font-stretch="normal" font-size="30" text-anchor="start" direction="ltr" writing-mode="lr-tb" unicode-bidi="normal" text-decoration="none" transform="matrix(0.16473 0 0 0.164468 362.308 46)">𝑟</text><text fill="#000000" fill-opacity="1" font-family="Cambria Math,Cambria Math_MSFontService,sans-serif" font-style="normal" font-variant="normal" font-weight="400" font-stretch="normal" font-size="30" text-anchor="start" direction="ltr" writing-mode="lr-tb" unicode-bidi="normal" text-decoration="none" transform="matrix(0.16473 0 0 0.164468 363.173 42)">′</text><text fill="#000000" fill-opacity="1" font-family="Cambria Math,Cambria Math_MSFontService,sans-serif" font-style="normal" font-variant="normal" font-weight="400" font-stretch="normal" font-size="41" text-anchor="start" direction="ltr" writing-mode="lr-tb" unicode-bidi="normal" text-decoration="none" transform="matrix(0.16473 0 0 0.164468 367.28 45)">&lt;</text><text fill="#000000" fill-opacity="1" font-family="Cambria Math,Cambria Math_MSFontService,sans-serif" font-style="normal" font-variant="normal" font-weight="400" font-stretch="normal" font-size="41" text-anchor="start" direction="ltr" writing-mode="lr-tb" unicode-bidi="normal" text-decoration="none" transform="matrix(0.16473 0 0 0.164468 374.264 45)">0</text><text fill="#000000" fill-opacity="1" font-family="Arial,Arial_MSFontService,sans-serif" font-style="normal" font-variant="normal" font-weight="400" font-stretch="normal" font-size="41" text-anchor="start" direction="ltr" writing-mode="lr-tb" unicode-bidi="normal" text-decoration="none" transform="matrix(0.16473 0 0 0.164468 378.04 45)">)</text></g></g></g></g></g></svg>