<svg width="388" height="237" xmlns="http://www.w3.org/2000/svg" xmlns:xlink="http://www.w3.org/1999/xlink" xml:space="preserve" overflow="hidden"><g><g><g><path d="M0 0 182.842 169.061" stroke="#7F7F7F" stroke-width="1.54078" stroke-linecap="square" stroke-linejoin="miter" stroke-miterlimit="8" stroke-dasharray="4.62234 1.54078" stroke-opacity="1" fill="none" fill-rule="evenodd" transform="matrix(1.00105 0 0 -1 31.1283 216.292)"/><path d="M130.77 295.494 256.498 295.494 256.498 321.715 130.77 321.715Z" fill="#FFFFFF" fill-rule="nonzero" fill-opacity="1" transform="matrix(1.00105 0 0 1 -101.63 -147.915)"/><text fill="#000000" fill-opacity="1" font-family="Arial,Arial_MSFontService,sans-serif" font-style="normal" font-variant="normal" font-weight="400" font-stretch="normal" font-size="37" text-anchor="start" direction="ltr" writing-mode="lr-tb" unicode-bidi="normal" text-decoration="none" transform="matrix(0.336522 0 0 0.33617 40.4163 165)">Local stress origin</text><path d="M0.770391-4.93945e-07 0.770506 181.517-0.770274 181.517-0.770391 4.93945e-07ZM3.08168 179.976 0.000121321 189.221-3.08144 179.976Z" fill="#000000" fill-rule="nonzero" fill-opacity="1" transform="matrix(1.00105 0 0 -1 31.1283 222.333)"/><path d="M102.364 363.471 440.259 363.471 440.259 365.01 102.364 365.01ZM438.719 361.158 447.964 364.24 438.719 367.323Z" fill="#000000" fill-rule="nonzero" fill-opacity="1" transform="matrix(1.00105 0 0 1 -101.63 -147.915)"/><text fill="#000000" fill-opacity="1" font-family="Cambria Math,Cambria Math_MSFontService,sans-serif" font-style="normal" font-variant="normal" font-weight="400" font-stretch="normal" font-size="50" text-anchor="start" direction="ltr" writing-mode="lr-tb" unicode-bidi="normal" text-decoration="none" transform="matrix(0.336522 0 0 0.33617 25.9906 23)">𝑞</text><text fill="#000000" fill-opacity="1" font-family="Cambria Math,Cambria Math_MSFontService,sans-serif" font-style="normal" font-variant="normal" font-weight="400" font-stretch="normal" font-size="50" text-anchor="start" direction="ltr" writing-mode="lr-tb" unicode-bidi="normal" text-decoration="none" transform="matrix(0.336522 0 0 0.33617 356.801 222)">𝑝</text><text fill="#000000" fill-opacity="1" font-family="Cambria Math,Cambria Math_MSFontService,sans-serif" font-style="normal" font-variant="normal" font-weight="400" font-stretch="normal" font-size="37" text-anchor="start" direction="ltr" writing-mode="lr-tb" unicode-bidi="normal" text-decoration="none" transform="matrix(0.336522 0 0 0.33617 366.617 216)">′</text><path d="M275.491 311.798C275.491 305.114 281.135 299.696 288.098 299.696 295.06 299.696 300.704 305.114 300.704 311.798 300.704 318.482 295.06 323.9 288.098 323.9 281.135 323.9 275.491 318.482 275.491 311.798Z" stroke="#7F7F7F" stroke-width="1.54078" stroke-linecap="butt" stroke-linejoin="miter" stroke-miterlimit="8" stroke-opacity="1" fill="none" fill-rule="evenodd" transform="matrix(1.00105 0 0 1 -101.63 -147.915)"/><path d="M284.904 310.957C284.904 309.194 286.334 307.764 288.098 307.764 289.862 307.764 291.292 309.194 291.292 310.957 291.292 312.721 289.862 314.151 288.098 314.151 286.334 314.151 284.904 312.721 284.904 310.957Z" stroke="#000000" stroke-width="1.54078" stroke-linecap="butt" stroke-linejoin="miter" stroke-miterlimit="8" stroke-opacity="1" fill="#AEAEAE" fill-rule="evenodd" fill-opacity="1" transform="matrix(1.00105 0 0 1 -101.63 -147.915)"/><path d="M223.446 268.75C251.37 234.76 298.891 232.274 329.586 263.196 350.972 284.741 359.299 317.964 350.995 348.632" stroke="#000000" stroke-width="1.54078" stroke-linecap="butt" stroke-linejoin="miter" stroke-miterlimit="8" stroke-opacity="1" fill="none" fill-rule="evenodd" transform="matrix(1.00105 0 0 1 -101.63 -147.915)"/><text fill="#404040" fill-opacity="1" font-family="Arial,Arial_MSFontService,sans-serif" font-style="normal" font-variant="normal" font-weight="400" font-stretch="normal" font-size="41" text-anchor="start" direction="ltr" writing-mode="lr-tb" unicode-bidi="normal" text-decoration="none" transform="matrix(0.336522 0 0 0.33617 210.837 42)">CSL</text><path d="M245.572 310.453 284.261 310.454" stroke="#000000" stroke-width="1.54078" stroke-linecap="butt" stroke-linejoin="miter" stroke-miterlimit="8" stroke-opacity="1" fill="none" fill-rule="evenodd" transform="matrix(1.00105 0 0 1 -101.63 -147.915)"/><path d="M350.794 308.772 379.072 308.772" stroke="#000000" stroke-width="1.54078" stroke-linecap="butt" stroke-linejoin="miter" stroke-miterlimit="8" stroke-opacity="1" fill="none" fill-rule="evenodd" transform="matrix(1.00105 0 0 1 -101.63 -147.915)"/><path d="M145.226 318.689 255.826 318.689 255.826 344.911 145.226 344.911Z" fill="#FFFFFF" fill-rule="nonzero" fill-opacity="1" transform="matrix(1.00105 0 0 1 -101.63 -147.915)"/><text fill="#7F7F7F" fill-opacity="1" font-family="Arial,Arial_MSFontService,sans-serif" font-style="normal" font-variant="normal" font-weight="400" font-stretch="normal" font-size="37" text-anchor="start" direction="ltr" writing-mode="lr-tb" unicode-bidi="normal" text-decoration="none" transform="matrix(0.336522 0 0 0.33617 54.7605 188)">Y</text><text fill="#7F7F7F" fill-opacity="1" font-family="Arial,Arial_MSFontService,sans-serif" font-style="normal" font-variant="normal" font-weight="400" font-stretch="normal" font-size="24" text-anchor="start" direction="ltr" writing-mode="lr-tb" unicode-bidi="normal" text-decoration="none" transform="matrix(0.336522 0 0 0.33617 63.0507 191)">1</text><text fill="#7F7F7F" fill-opacity="1" font-family="Arial,Arial_MSFontService,sans-serif" font-style="normal" font-variant="normal" font-weight="400" font-stretch="normal" font-size="37" text-anchor="start" direction="ltr" writing-mode="lr-tb" unicode-bidi="normal" text-decoration="none" transform="matrix(0.336522 0 0 0.33617 67.6779 188)">: Elastic</text><text fill="#7F7F7F" fill-opacity="1" font-family="Arial,Arial_MSFontService,sans-serif" font-style="normal" font-variant="normal" font-weight="400" font-stretch="normal" font-size="37" text-anchor="start" direction="ltr" writing-mode="lr-tb" unicode-bidi="normal" text-decoration="none" transform="matrix(0.336522 0 0 0.33617 114.528 188)">limi</text><text fill="#7F7F7F" fill-opacity="1" font-family="Arial,Arial_MSFontService,sans-serif" font-style="normal" font-variant="normal" font-weight="400" font-stretch="normal" font-size="37" text-anchor="start" direction="ltr" writing-mode="lr-tb" unicode-bidi="normal" text-decoration="none" transform="matrix(0.336522 0 0 0.33617 132.844 188)">t</text><path d="M0 0 7.99931 11.5492" stroke="#7F7F7F" stroke-width="1.54078" stroke-linecap="butt" stroke-linejoin="miter" stroke-miterlimit="8" stroke-opacity="1" fill="none" fill-rule="evenodd" transform="matrix(1.00105 0 0 -1 140.498 182.492)"/><path d="M150.94 341.885 284.4 341.885 284.4 382.898 150.94 382.898Z" fill="#FFFFFF" fill-rule="nonzero" fill-opacity="1" transform="matrix(1.00105 0 0 1 -101.63 -147.915)"/><text fill="#404040" fill-opacity="1" font-family="Arial,Arial_MSFontService,sans-serif" font-style="normal" font-variant="normal" font-weight="400" font-stretch="normal" font-size="37" text-anchor="start" direction="ltr" writing-mode="lr-tb" unicode-bidi="normal" text-decoration="none" transform="matrix(0.336522 0 0 0.33617 60.5988 212)">Y</text><text fill="#404040" fill-opacity="1" font-family="Arial,Arial_MSFontService,sans-serif" font-style="normal" font-variant="normal" font-weight="400" font-stretch="normal" font-size="24" text-anchor="start" direction="ltr" writing-mode="lr-tb" unicode-bidi="normal" text-decoration="none" transform="matrix(0.336522 0 0 0.33617 68.889 214)">2</text><text fill="#404040" fill-opacity="1" font-family="Arial,Arial_MSFontService,sans-serif" font-style="normal" font-variant="normal" font-weight="400" font-stretch="normal" font-size="37" text-anchor="start" direction="ltr" writing-mode="lr-tb" unicode-bidi="normal" text-decoration="none" transform="matrix(0.336522 0 0 0.33617 73.5162 212)">: Significant </text><text fill="#404040" fill-opacity="1" font-family="Arial,Arial_MSFontService,sans-serif" font-style="normal" font-variant="normal" font-weight="400" font-stretch="normal" font-size="37" text-anchor="start" direction="ltr" writing-mode="lr-tb" unicode-bidi="normal" text-decoration="none" transform="matrix(0.336522 0 0 0.33617 81.4211 227)">plastic yielding</text><path d="M255.994 352.138 284.272 352.138" stroke="#595959" stroke-width="1.54078" stroke-linecap="butt" stroke-linejoin="miter" stroke-miterlimit="8" stroke-opacity="1" fill="none" fill-rule="evenodd" transform="matrix(1.00105 0 0 1 -101.63 -147.915)"/><path d="M263.726 317.513C263.726 297.461 276.067 281.206 291.292 281.206 306.516 281.206 318.857 297.461 318.857 317.513 318.857 337.565 306.516 353.819 291.292 353.819 276.067 353.819 263.726 337.565 263.726 317.513Z" stroke="#404040" stroke-width="1.54078" stroke-linecap="butt" stroke-linejoin="miter" stroke-miterlimit="8" stroke-opacity="1" fill="none" fill-rule="evenodd" transform="matrix(1.00105 0 0 1 -101.63 -147.915)"/><path d="M368.106 296.166 486.774 296.166 486.774 337.179 368.106 337.179Z" fill="#FFFFFF" fill-rule="nonzero" fill-opacity="1" transform="matrix(1.00105 0 0 1 -101.63 -147.915)"/><text fill="#000000" fill-opacity="1" font-family="Arial,Arial_MSFontService,sans-serif" font-style="normal" font-variant="normal" font-weight="400" font-stretch="normal" font-size="37" text-anchor="start" direction="ltr" writing-mode="lr-tb" unicode-bidi="normal" text-decoration="none" transform="matrix(0.336522 0 0 0.33617 277.93 166)">Y</text><text fill="#000000" fill-opacity="1" font-family="Arial,Arial_MSFontService,sans-serif" font-style="normal" font-variant="normal" font-weight="400" font-stretch="normal" font-size="24" text-anchor="start" direction="ltr" writing-mode="lr-tb" unicode-bidi="normal" text-decoration="none" transform="matrix(0.336522 0 0 0.33617 286.222 169)">3</text><text fill="#000000" fill-opacity="1" font-family="Arial,Arial_MSFontService,sans-serif" font-style="normal" font-variant="normal" font-weight="400" font-stretch="normal" font-size="37" text-anchor="start" direction="ltr" writing-mode="lr-tb" unicode-bidi="normal" text-decoration="none" transform="matrix(0.336522 0 0 0.33617 290.849 166)">: Large scale</text><text fill="#000000" fill-opacity="1" font-family="Arial,Arial_MSFontService,sans-serif" font-style="normal" font-variant="normal" font-weight="400" font-stretch="normal" font-size="37" text-anchor="start" direction="ltr" writing-mode="lr-tb" unicode-bidi="normal" text-decoration="none" transform="matrix(0.336522 0 0 0.33617 298.754 181)">yielding</text><path d="M249.27 318.857 277.549 318.857" stroke="#7F7F7F" stroke-width="1.54078" stroke-linecap="butt" stroke-linejoin="miter" stroke-miterlimit="8" stroke-opacity="1" fill="none" fill-rule="evenodd" transform="matrix(1.00105 0 0 1 -101.63 -147.915)"/><path d="M288.602 274.819 321.258 297.504" stroke="#7F7F7F" stroke-width="1.54078" stroke-linecap="butt" stroke-linejoin="miter" stroke-miterlimit="8" stroke-opacity="1" fill="none" fill-rule="evenodd" transform="matrix(1.00105 0 0 1 -101.63 -147.915)"/><path d="M309.109 241.874 354.394 287.69" stroke="#7F7F7F" stroke-width="1.54078" stroke-linecap="butt" stroke-linejoin="miter" stroke-miterlimit="8" stroke-opacity="1" fill="none" fill-rule="evenodd" transform="matrix(1.00105 0 0 1 -101.63 -147.915)"/><path d="M287.255 307.392 290.29 301.875 293.471 296.361 296.933 290.87 298.819 288.132 300.826 285.409 302.973 282.7 305.278 280.007 307.758 277.334 310.43 274.682 313.31 272.053 316.417 269.451 319.766 266.877 323.375 264.333 327.253 261.822 331.388 259.342 335.763 256.892 340.359 254.468 345.163 252.069 350.155 249.692 355.318 247.336 360.633 244.997 366.089 242.675 371.663 240.366 383.1 235.783 393.709 231.669 394.267 233.105 383.661 237.219 383.671 237.215 372.241 241.794 372.248 241.791 366.681 244.097 366.688 244.094 361.242 246.413 361.252 246.409 355.944 248.744 355.95 248.739 350.8 251.091 350.81 251.086 345.832 253.457 345.845 253.451 341.055 255.843 341.072 255.835 336.49 258.25 336.506 258.241 332.151 260.681 332.171 260.669 328.057 263.137 328.079 263.122 324.225 265.618 324.25 265.601 320.667 268.127 320.692 268.108 317.369 270.663 317.394 270.643 314.312 273.224 314.337 273.203 311.48 275.809 311.504 275.787 308.855 278.416 308.877 278.393 306.418 281.044 306.439 281.021 304.153 283.69 304.172 283.668 302.042 286.355 302.058 286.333 300.067 289.036 300.081 289.016 298.211 291.732 298.228 291.706 294.782 297.17 294.798 297.144 291.628 302.639 291.636 302.625 288.605 308.135ZM391.443 230.062 406.934 227.419 393.652 235.816Z" fill="#E97132" fill-rule="nonzero" fill-opacity="1" transform="matrix(1.00105 0 0 1 -101.63 -147.915)"/></g></g></g></svg>