<svg width="314" height="253" xmlns="http://www.w3.org/2000/svg" xmlns:xlink="http://www.w3.org/1999/xlink" xml:space="preserve" overflow="hidden"><g><g><path d="M872.781 371.594 933.281 371.594 933.281 429.344 872.781 429.344Z" stroke="#042433" stroke-width="2.0625" stroke-linecap="butt" stroke-linejoin="miter" stroke-miterlimit="8" stroke-opacity="1" fill="#A6CAEC" fill-rule="nonzero" fill-opacity="1" transform="matrix(1.00159 0 0 1 -829.07 -309.375)"/><path d="M904.062 337.219 904.062 364.651 902 364.651 902 337.219ZM907.156 363.276 903.031 371.526 898.906 363.276Z" fill="#156082" fill-rule="nonzero" fill-opacity="1" transform="matrix(1.00159 0 0 1 -829.07 -309.375)"/><path d="M904.062 429.344 904.062 488.181 902 488.181 902 429.344ZM907.156 486.806 903.031 495.056 898.906 486.806Z" fill="#156082" fill-rule="nonzero" fill-opacity="1" transform="matrix(1.00159 0 0 1 -829.07 -309.375)"/><path d="M997.906 371.594 1058.41 371.594 1058.41 429.344 997.906 429.344Z" stroke="#042433" stroke-width="2.0625" stroke-linecap="square" stroke-linejoin="miter" stroke-miterlimit="8" stroke-dasharray="6.1875 2.0625" stroke-opacity="1" fill="none" fill-rule="nonzero" transform="matrix(1.00159 0 0 1 -829.07 -309.375)"/><path d="M1029.19 337.219 1029.19 364.651 1027.12 364.651 1027.12 337.219ZM1032.28 363.276 1028.16 371.526 1024.03 363.276Z" fill="#156082" fill-rule="nonzero" fill-opacity="1" transform="matrix(1.00159 0 0 1 -829.07 -309.375)"/><path d="M1029.19 429.344 1029.19 488.181 1027.12 488.181 1027.12 429.344ZM1032.28 486.806 1028.16 495.056 1024.03 486.806Z" fill="#156082" fill-rule="nonzero" fill-opacity="1" transform="matrix(1.00159 0 0 1 -829.07 -309.375)"/><path d="M997.906 394.969 1058.41 394.969 1058.41 429.344 997.906 429.344Z" stroke="#042433" stroke-width="2.0625" stroke-linecap="butt" stroke-linejoin="miter" stroke-miterlimit="8" stroke-opacity="1" fill="#A6CAEC" fill-rule="nonzero" fill-opacity="1" transform="matrix(1.00159 0 0 1 -829.07 -309.375)"/><text fill="#000000" fill-opacity="1" font-family="Arial,Arial_MSFontService,sans-serif" font-style="italic" font-variant="normal" font-weight="400" font-stretch="normal" font-size="22" text-anchor="start" direction="ltr" writing-mode="lr-tb" unicode-bidi="normal" text-decoration="none" transform="matrix(0.688596 0 0 0.6875 60.6378 239)">t =</text><text fill="#000000" fill-opacity="1" font-family="Arial,Arial_MSFontService,sans-serif" font-style="italic" font-variant="normal" font-weight="400" font-stretch="normal" font-size="22" text-anchor="start" direction="ltr" writing-mode="lr-tb" unicode-bidi="normal" text-decoration="none" transform="matrix(0.688596 0 0 0.6875 81.8121 239)">t</text><text fill="#000000" fill-opacity="1" font-family="Arial,Arial_MSFontService,sans-serif" font-style="italic" font-variant="normal" font-weight="400" font-stretch="normal" font-size="14" text-anchor="start" direction="ltr" writing-mode="lr-tb" unicode-bidi="normal" text-decoration="none" transform="matrix(0.688596 0 0 0.6875 85.9437 242)">0</text><text fill="#000000" fill-opacity="1" font-family="Arial,Arial_MSFontService,sans-serif" font-style="italic" font-variant="normal" font-weight="400" font-stretch="normal" font-size="22" text-anchor="start" direction="ltr" writing-mode="lr-tb" unicode-bidi="normal" text-decoration="none" transform="matrix(0.688596 0 0 0.6875 170.813 239)">t =</text><text fill="#000000" fill-opacity="1" font-family="Arial,Arial_MSFontService,sans-serif" font-style="italic" font-variant="normal" font-weight="400" font-stretch="normal" font-size="22" text-anchor="start" direction="ltr" writing-mode="lr-tb" unicode-bidi="normal" text-decoration="none" transform="matrix(0.688596 0 0 0.6875 191.988 239)">t</text><text fill="#000000" fill-opacity="1" font-family="Arial,Arial_MSFontService,sans-serif" font-style="italic" font-variant="normal" font-weight="400" font-stretch="normal" font-size="14" text-anchor="start" direction="ltr" writing-mode="lr-tb" unicode-bidi="normal" text-decoration="none" transform="matrix(0.688596 0 0 0.6875 196.119 242)">0</text><text fill="#000000" fill-opacity="1" font-family="Arial,Arial_MSFontService,sans-serif" font-style="italic" font-variant="normal" font-weight="400" font-stretch="normal" font-size="22" text-anchor="start" direction="ltr" writing-mode="lr-tb" unicode-bidi="normal" text-decoration="none" transform="matrix(0.688596 0 0 0.6875 205.932 239)">+</text><text fill="#000000" fill-opacity="1" font-family="Arial,Arial_MSFontService,sans-serif" font-style="italic" font-variant="normal" font-weight="400" font-stretch="normal" font-size="22" text-anchor="start" direction="ltr" writing-mode="lr-tb" unicode-bidi="normal" text-decoration="none" transform="matrix(0.688596 0 0 0.6875 218.843 239)">d</text><text fill="#000000" fill-opacity="1" font-family="Arial,Arial_MSFontService,sans-serif" font-style="italic" font-variant="normal" font-weight="400" font-stretch="normal" font-size="22" text-anchor="start" direction="ltr" writing-mode="lr-tb" unicode-bidi="normal" text-decoration="none" transform="matrix(0.688596 0 0 0.6875 227.278 239)">t</text><path d="M879.656 420.75 926.434 420.75 926.434 422.812 879.656 422.812ZM881.031 425.906 872.781 421.781 881.031 417.656ZM925.059 417.656 933.309 421.781 925.059 425.906Z" fill="#000000" fill-rule="nonzero" fill-opacity="1" transform="matrix(1.00159 0 0 1 -829.07 -309.375)"/><text fill="#000000" fill-opacity="1" font-family="Arial,Arial_MSFontService,sans-serif" font-style="italic" font-variant="normal" font-weight="400" font-stretch="normal" font-size="22" text-anchor="start" direction="ltr" writing-mode="lr-tb" unicode-bidi="normal" text-decoration="none" transform="matrix(0.688596 0 0 0.6875 69.6584 107)">A</text><text fill="#000000" fill-opacity="1" font-family="Arial,Arial_MSFontService,sans-serif" font-style="italic" font-variant="normal" font-weight="400" font-stretch="normal" font-size="22" text-anchor="start" direction="ltr" writing-mode="lr-tb" unicode-bidi="normal" text-decoration="none" transform="matrix(0.688596 0 0 0.6875 203.418 78)">dV</text><path d="M860.75 378.469 860.75 423.25 858.688 423.25 858.688 378.469ZM855.594 379.844 859.719 371.594 863.844 379.844ZM863.844 421.875 859.719 430.125 855.594 421.875Z" fill="#000000" fill-rule="nonzero" fill-opacity="1" transform="matrix(1.00159 0 0 1 -829.07 -309.375)"/><text fill="#000000" fill-opacity="1" font-family="Arial,Arial_MSFontService,sans-serif" font-style="italic" font-variant="normal" font-weight="400" font-stretch="normal" font-size="22" text-anchor="start" direction="ltr" writing-mode="lr-tb" unicode-bidi="normal" text-decoration="none" transform="matrix(0.688596 0 0 0.6875 9.92268 96)">d</text><text fill="#000000" fill-opacity="1" font-family="Arial,Arial_MSFontService,sans-serif" font-style="italic" font-variant="normal" font-weight="400" font-stretch="normal" font-size="22" text-anchor="start" direction="ltr" writing-mode="lr-tb" unicode-bidi="normal" text-decoration="none" transform="matrix(0.688596 0 0 0.6875 18.0137 96)">z</text><text fill="#156082" fill-opacity="1" font-family="Arial,Arial_MSFontService,sans-serif" font-style="italic" font-variant="normal" font-weight="400" font-stretch="normal" font-size="22" text-anchor="start" direction="ltr" writing-mode="lr-tb" unicode-bidi="normal" text-decoration="none" transform="matrix(0.688596 0 0 0.6875 65.4029 19)">Q</text><text fill="#156082" fill-opacity="1" font-family="Arial,Arial_MSFontService,sans-serif" font-style="italic" font-variant="normal" font-weight="400" font-stretch="normal" font-size="14" text-anchor="start" direction="ltr" writing-mode="lr-tb" unicode-bidi="normal" text-decoration="none" transform="matrix(0.688596 0 0 0.6875 76.5926 22)">in</text><text fill="#156082" fill-opacity="1" font-family="Arial,Arial_MSFontService,sans-serif" font-style="italic" font-variant="normal" font-weight="400" font-stretch="normal" font-size="22" text-anchor="start" direction="ltr" writing-mode="lr-tb" unicode-bidi="normal" text-decoration="none" transform="matrix(0.688596 0 0 0.6875 65.4029 206)">Q</text><text fill="#156082" fill-opacity="1" font-family="Arial,Arial_MSFontService,sans-serif" font-style="italic" font-variant="normal" font-weight="400" font-stretch="normal" font-size="14" text-anchor="start" direction="ltr" writing-mode="lr-tb" unicode-bidi="normal" text-decoration="none" transform="matrix(0.688596 0 0 0.6875 76.5926 208)">ou</text><text fill="#156082" fill-opacity="1" font-family="Arial,Arial_MSFontService,sans-serif" font-style="italic" font-variant="normal" font-weight="400" font-stretch="normal" font-size="14" text-anchor="start" direction="ltr" writing-mode="lr-tb" unicode-bidi="normal" text-decoration="none" transform="matrix(0.688596 0 0 0.6875 87.2658 208)">t</text><text fill="#156082" fill-opacity="1" font-family="Arial,Arial_MSFontService,sans-serif" font-style="italic" font-variant="normal" font-weight="400" font-stretch="normal" font-size="22" text-anchor="start" direction="ltr" writing-mode="lr-tb" unicode-bidi="normal" text-decoration="none" transform="matrix(0.688596 0 0 0.6875 196.36 206)">Q</text><text fill="#156082" fill-opacity="1" font-family="Arial,Arial_MSFontService,sans-serif" font-style="italic" font-variant="normal" font-weight="400" font-stretch="normal" font-size="14" text-anchor="start" direction="ltr" writing-mode="lr-tb" unicode-bidi="normal" text-decoration="none" transform="matrix(0.688596 0 0 0.6875 207.55 208)">ou</text><text fill="#156082" fill-opacity="1" font-family="Arial,Arial_MSFontService,sans-serif" font-style="italic" font-variant="normal" font-weight="400" font-stretch="normal" font-size="14" text-anchor="start" direction="ltr" writing-mode="lr-tb" unicode-bidi="normal" text-decoration="none" transform="matrix(0.688596 0 0 0.6875 218.223 208)">t</text><text fill="#156082" fill-opacity="1" font-family="Arial,Arial_MSFontService,sans-serif" font-style="italic" font-variant="normal" font-weight="400" font-stretch="normal" font-size="22" text-anchor="start" direction="ltr" writing-mode="lr-tb" unicode-bidi="normal" text-decoration="none" transform="matrix(0.688596 0 0 0.6875 190.624 19)">Q</text><text fill="#156082" fill-opacity="1" font-family="Arial,Arial_MSFontService,sans-serif" font-style="italic" font-variant="normal" font-weight="400" font-stretch="normal" font-size="14" text-anchor="start" direction="ltr" writing-mode="lr-tb" unicode-bidi="normal" text-decoration="none" transform="matrix(0.688596 0 0 0.6875 201.814 22)">in</text><text fill="#000000" fill-opacity="1" font-family="Arial,Arial_MSFontService,sans-serif" font-style="italic" font-variant="normal" font-weight="400" font-stretch="normal" font-size="22" text-anchor="start" direction="ltr" writing-mode="lr-tb" unicode-bidi="normal" text-decoration="none" transform="matrix(0.688596 0 0 0.6875 206.861 107)">V*</text><text fill="#000000" fill-opacity="1" font-family="Arial,Arial_MSFontService,sans-serif" font-style="italic" font-variant="normal" font-weight="400" font-stretch="normal" font-size="22" text-anchor="start" direction="ltr" writing-mode="lr-tb" unicode-bidi="normal" text-decoration="none" transform="matrix(0.688596 0 0 0.6875 242.358 107)">*V = Adz </text></g></g></svg>