<svg width="292" height="281" xmlns="http://www.w3.org/2000/svg" xmlns:xlink="http://www.w3.org/1999/xlink" xml:space="preserve" overflow="hidden"><defs><clipPath id="clip0"><rect x="0" y="0" width="292" height="281"/></clipPath><clipPath id="clip1"><rect x="0" y="0" width="292" height="281"/></clipPath></defs><g clip-path="url(#clip0)"><g clip-path="url(#clip1)"><path d="M417.856 194.352 708.978 194.352 708.978 475.352 417.856 475.352Z" fill="#FFFFFF" fill-rule="nonzero" fill-opacity="1" transform="matrix(1.00162 0 0 1 -418.533 -194.352)"/><path d="M459.156 368.863 685.089 368.863M459.156 326.349 685.089 326.349M459.156 296.386 685.089 296.386M459.156 272.902 685.089 272.902M459.156 253.872 685.089 253.872M459.156 237.676 685.089 237.676M459.156 223.504 685.089 223.504M459.156 210.952 685.089 210.952M459.156 200.02 685.089 200.02" stroke="#AEAEAE" stroke-width="0.607349" stroke-linecap="butt" stroke-linejoin="round" stroke-miterlimit="10" stroke-dasharray="2.4294 1.82205" stroke-opacity="1" fill="none" fill-rule="nonzero" transform="matrix(1.00162 0 0 1 -418.533 -194.352)"/><path d="M459.156 200.02 459.156 441.745M504.504 200.02 504.504 441.745M549.448 200.02 549.448 441.745M594.797 200.02 594.797 441.745M639.741 200.02 639.741 441.745M685.089 200.02 685.089 441.745" stroke="#AEAEAE" stroke-width="0.607349" stroke-linecap="butt" stroke-linejoin="round" stroke-miterlimit="10" stroke-dasharray="2.4294 1.82205" stroke-opacity="1" fill="none" fill-rule="nonzero" transform="matrix(1.00162 0 0 1 -418.533 -194.352)"/><path d="M0 0 6.37635e-05 241.725" stroke="#000000" stroke-width="0.607349" stroke-linecap="butt" stroke-linejoin="round" stroke-miterlimit="10" stroke-opacity="1" fill="none" fill-rule="evenodd" transform="matrix(1.00162 0 0 -1 41.3667 247.393)"/><path d="M459.156 441.745 461.18 441.745M459.156 368.863 461.18 368.863M459.156 326.349 461.18 326.349M459.156 296.386 461.18 296.386M459.156 272.902 461.18 272.902M459.156 253.872 461.18 253.872M459.156 237.676 461.18 237.676M459.156 223.504 461.18 223.504M459.156 210.952 461.18 210.952M459.156 200.02 461.18 200.02M459.156 441.745 461.99 441.745M459.156 200.02 461.99 200.02" stroke="#000000" stroke-width="0.607349" stroke-linecap="butt" stroke-linejoin="round" stroke-miterlimit="10" stroke-opacity="1" fill="none" fill-rule="nonzero" transform="matrix(1.00162 0 0 1 -418.533 -194.352)"/><path d="M459.156 441.745 685.089 441.745" stroke="#000000" stroke-width="0.607349" stroke-linecap="butt" stroke-linejoin="round" stroke-miterlimit="10" stroke-opacity="1" fill="none" fill-rule="evenodd" transform="matrix(1.00162 0 0 1 -418.533 -194.352)"/><path d="M459.156 439.72 459.156 441.745M472.922 439.72 472.922 441.745M481.02 439.72 481.02 441.745M486.284 439.72 486.284 441.745M490.738 439.72 490.738 441.745M494.382 439.72 494.382 441.745M497.621 439.72 497.621 441.745M500.05 439.72 500.05 441.745M502.48 439.72 502.48 441.745M504.504 439.72 504.504 441.745M517.866 439.72 517.866 441.745M525.964 439.72 525.964 441.745M531.633 439.72 531.633 441.745M536.086 439.72 536.086 441.745M539.731 439.72 539.731 441.745M542.565 439.72 542.565 441.745M544.994 439.72 544.994 441.745M547.424 439.72 547.424 441.745M549.448 439.72 549.448 441.745M563.215 439.72 563.215 441.745M570.908 439.72 570.908 441.745M576.576 439.72 576.576 441.745M581.03 439.72 581.03 441.745M584.674 439.72 584.674 441.745M587.509 439.72 587.509 441.745M590.343 439.72 590.343 441.745M592.772 439.72 592.772 441.745M594.797 439.72 594.797 441.745M608.159 439.72 608.159 441.745M616.257 439.72 616.257 441.745M621.925 439.72 621.925 441.745M626.379 439.72 626.379 441.745M629.618 439.72 629.618 441.745M632.857 439.72 632.857 441.745M635.287 439.72 635.287 441.745M637.716 439.72 637.716 441.745M639.741 439.72 639.741 441.745M653.507 439.72 653.507 441.745M661.2 439.72 661.2 441.745M666.869 439.72 666.869 441.745M671.323 439.72 671.323 441.745M674.967 439.72 674.967 441.745M677.801 439.72 677.801 441.745M680.635 439.72 680.635 441.745M682.66 439.72 682.66 441.745M685.089 439.72 685.089 441.745M459.156 438.911 459.156 441.745M504.504 438.911 504.504 441.745M549.448 438.911 549.448 441.745M594.797 438.911 594.797 441.745M639.741 438.911 639.741 441.745M685.089 438.911 685.089 441.745" stroke="#000000" stroke-width="0.607349" stroke-linecap="butt" stroke-linejoin="round" stroke-miterlimit="10" stroke-opacity="1" fill="none" fill-rule="nonzero" transform="matrix(1.00162 0 0 1 -418.533 -194.352)"/><path d="M556.331 248.608 562 248.608 562 254.277 556.331 254.277Z" stroke="#000000" stroke-width="0.607349" stroke-linecap="butt" stroke-linejoin="round" stroke-miterlimit="10" stroke-opacity="1" fill="#404040" fill-rule="nonzero" fill-opacity="1" transform="matrix(1.00162 0 0 1 -418.533 -194.352)"/><path d="M599.656 238.891 605.324 238.891 605.324 244.559 599.656 244.559Z" stroke="#000000" stroke-width="0.607349" stroke-linecap="butt" stroke-linejoin="round" stroke-miterlimit="10" stroke-opacity="1" fill="#404040" fill-rule="nonzero" fill-opacity="1" transform="matrix(1.00162 0 0 1 -418.533 -194.352)"/><path d="M636.906 222.695 642.575 222.695 642.575 228.363 636.906 228.363Z" stroke="#000000" stroke-width="0.607349" stroke-linecap="butt" stroke-linejoin="round" stroke-miterlimit="10" stroke-opacity="1" fill="#404040" fill-rule="nonzero" fill-opacity="1" transform="matrix(1.00162 0 0 1 -418.533 -194.352)"/><path d="M488.308 292.742 491.143 298.411 485.474 298.411Z" stroke="#042433" stroke-width="0.607349" stroke-linecap="butt" stroke-linejoin="round" stroke-miterlimit="10" stroke-opacity="1" fill="#AEAEAE" fill-rule="nonzero" fill-opacity="1" transform="matrix(1.00162 0 0 1 -418.533 -194.352)"/><path d="M495.597 295.171 498.431 300.84 492.762 300.84Z" stroke="#042433" stroke-width="0.607349" stroke-linecap="butt" stroke-linejoin="round" stroke-miterlimit="10" stroke-opacity="1" fill="#AEAEAE" fill-rule="nonzero" fill-opacity="1" transform="matrix(1.00162 0 0 1 -418.533 -194.352)"/><path d="M502.885 281.81 505.719 287.478 500.05 287.478Z" stroke="#042433" stroke-width="0.607349" stroke-linecap="butt" stroke-linejoin="round" stroke-miterlimit="10" stroke-opacity="1" fill="#AEAEAE" fill-rule="nonzero" fill-opacity="1" transform="matrix(1.00162 0 0 1 -418.533 -194.352)"/><path d="M526.369 276.951 529.203 282.62 523.535 282.62Z" stroke="#042433" stroke-width="0.607349" stroke-linecap="butt" stroke-linejoin="round" stroke-miterlimit="10" stroke-opacity="1" fill="#AEAEAE" fill-rule="nonzero" fill-opacity="1" transform="matrix(1.00162 0 0 1 -418.533 -194.352)"/><path d="M525.964 269.663 528.798 275.331 523.13 275.331Z" stroke="#042433" stroke-width="0.607349" stroke-linecap="butt" stroke-linejoin="round" stroke-miterlimit="10" stroke-opacity="1" fill="#AEAEAE" fill-rule="nonzero" fill-opacity="1" transform="matrix(1.00162 0 0 1 -418.533 -194.352)"/><path d="M550.663 275.331 553.497 281 547.829 281Z" stroke="#042433" stroke-width="0.607349" stroke-linecap="butt" stroke-linejoin="round" stroke-miterlimit="10" stroke-opacity="1" fill="#AEAEAE" fill-rule="nonzero" fill-opacity="1" transform="matrix(1.00162 0 0 1 -418.533 -194.352)"/><path d="M551.878 264.399 554.712 270.068 549.043 270.068Z" stroke="#042433" stroke-width="0.607349" stroke-linecap="butt" stroke-linejoin="round" stroke-miterlimit="10" stroke-opacity="1" fill="#AEAEAE" fill-rule="nonzero" fill-opacity="1" transform="matrix(1.00162 0 0 1 -418.533 -194.352)"/><path d="M575.362 269.258 578.196 274.927 572.527 274.927Z" stroke="#042433" stroke-width="0.607349" stroke-linecap="butt" stroke-linejoin="round" stroke-miterlimit="10" stroke-opacity="1" fill="#AEAEAE" fill-rule="nonzero" fill-opacity="1" transform="matrix(1.00162 0 0 1 -418.533 -194.352)"/><path d="M598.846 259.945 601.68 265.614 596.012 265.614Z" stroke="#042433" stroke-width="0.607349" stroke-linecap="butt" stroke-linejoin="round" stroke-miterlimit="10" stroke-opacity="1" fill="#AEAEAE" fill-rule="nonzero" fill-opacity="1" transform="matrix(1.00162 0 0 1 -418.533 -194.352)"/><path d="M595.202 253.467 598.036 259.135 592.367 259.135Z" stroke="#042433" stroke-width="0.607349" stroke-linecap="butt" stroke-linejoin="round" stroke-miterlimit="10" stroke-opacity="1" fill="#AEAEAE" fill-rule="nonzero" fill-opacity="1" transform="matrix(1.00162 0 0 1 -418.533 -194.352)"/><path d="M630.833 251.847 633.667 257.516 627.999 257.516Z" stroke="#042433" stroke-width="0.607349" stroke-linecap="butt" stroke-linejoin="round" stroke-miterlimit="10" stroke-opacity="1" fill="#AEAEAE" fill-rule="nonzero" fill-opacity="1" transform="matrix(1.00162 0 0 1 -418.533 -194.352)"/><path d="M642.575 246.179 645.409 251.847 639.741 251.847Z" stroke="#042433" stroke-width="0.607349" stroke-linecap="butt" stroke-linejoin="round" stroke-miterlimit="10" stroke-opacity="1" fill="#AEAEAE" fill-rule="nonzero" fill-opacity="1" transform="matrix(1.00162 0 0 1 -418.533 -194.352)"/><path d="M562 281C562 282.565 560.733 283.834 559.166 283.834 557.599 283.834 556.331 282.565 556.331 281 556.331 279.435 557.599 278.166 559.166 278.166 560.733 278.166 562 279.435 562 281Z" stroke="#000000" stroke-width="0.607349" stroke-linecap="butt" stroke-linejoin="round" stroke-miterlimit="10" stroke-opacity="1" fill="#FFFFFF" fill-rule="nonzero" fill-opacity="1" transform="matrix(1.00162 0 0 1 -418.533 -194.352)"/><path d="M605.729 276.546C605.729 278.111 604.462 279.38 602.895 279.38 601.328 279.38 600.061 278.111 600.061 276.546 600.061 274.981 601.328 273.712 602.895 273.712 604.462 273.712 605.729 274.981 605.729 276.546Z" stroke="#000000" stroke-width="0.607349" stroke-linecap="butt" stroke-linejoin="round" stroke-miterlimit="10" stroke-opacity="1" fill="#FFFFFF" fill-rule="nonzero" fill-opacity="1" transform="matrix(1.00162 0 0 1 -418.533 -194.352)"/><path d="M644.195 253.872C644.195 255.437 642.927 256.706 641.36 256.706 639.793 256.706 638.526 255.437 638.526 253.872 638.526 252.306 639.793 251.037 641.36 251.037 642.927 251.037 644.195 252.306 644.195 253.872Z" stroke="#000000" stroke-width="0.607349" stroke-linecap="butt" stroke-linejoin="round" stroke-miterlimit="10" stroke-opacity="1" fill="#FFFFFF" fill-rule="nonzero" fill-opacity="1" transform="matrix(1.00162 0 0 1 -418.533 -194.352)"/><text fill="#000000" fill-opacity="1" font-family="Arial,Arial_MSFontService,sans-serif" font-style="normal" font-variant="normal" font-weight="400" font-stretch="normal" font-size="22" text-anchor="start" direction="ltr" writing-mode="lr-tb" unicode-bidi="normal" text-decoration="none" transform="matrix(0.405556 0 0 0.404899 23.8953 250)">10</text><text fill="#000000" fill-opacity="1" font-family="Arial,Arial_MSFontService,sans-serif" font-style="normal" font-variant="normal" font-weight="400" font-stretch="normal" font-size="22" text-anchor="start" direction="ltr" writing-mode="lr-tb" unicode-bidi="normal" text-decoration="none" transform="matrix(0.405556 0 0 0.404899 18.9313 9)">100</text><text fill="#000000" fill-opacity="1" font-family="Arial,Arial_MSFontService,sans-serif" font-style="normal" font-variant="normal" font-weight="400" font-stretch="normal" font-size="22" text-anchor="start" direction="ltr" writing-mode="lr-tb" unicode-bidi="normal" text-decoration="none" transform="matrix(0.405556 0 0 0.404899 28.3564 261)">1.E-09</text><text fill="#000000" fill-opacity="1" font-family="Arial,Arial_MSFontService,sans-serif" font-style="normal" font-variant="normal" font-weight="400" font-stretch="normal" font-size="22" text-anchor="start" direction="ltr" writing-mode="lr-tb" unicode-bidi="normal" text-decoration="none" transform="matrix(0.405556 0 0 0.404899 73.5556 261)">1.E-08</text><text fill="#000000" fill-opacity="1" font-family="Arial,Arial_MSFontService,sans-serif" font-style="normal" font-variant="normal" font-weight="400" font-stretch="normal" font-size="22" text-anchor="start" direction="ltr" writing-mode="lr-tb" unicode-bidi="normal" text-decoration="none" transform="matrix(0.405556 0 0 0.404899 118.755 261)">1.E-07</text><text fill="#000000" fill-opacity="1" font-family="Arial,Arial_MSFontService,sans-serif" font-style="normal" font-variant="normal" font-weight="400" font-stretch="normal" font-size="22" text-anchor="start" direction="ltr" writing-mode="lr-tb" unicode-bidi="normal" text-decoration="none" transform="matrix(0.405556 0 0 0.404899 163.954 261)">1.E-06</text><text fill="#000000" fill-opacity="1" font-family="Arial,Arial_MSFontService,sans-serif" font-style="normal" font-variant="normal" font-weight="400" font-stretch="normal" font-size="22" text-anchor="start" direction="ltr" writing-mode="lr-tb" unicode-bidi="normal" text-decoration="none" transform="matrix(0.405556 0 0 0.404899 209.153 261)">1.E-05</text><text fill="#000000" fill-opacity="1" font-family="Arial,Arial_MSFontService,sans-serif" font-style="normal" font-variant="normal" font-weight="400" font-stretch="normal" font-size="22" text-anchor="start" direction="ltr" writing-mode="lr-tb" unicode-bidi="normal" text-decoration="none" transform="matrix(0.405556 0 0 0.404899 254.352 261)">1.E-04</text><text fill="#000000" fill-opacity="1" font-family="Arial,Arial_MSFontService,sans-serif" font-style="normal" font-variant="normal" font-weight="400" font-stretch="normal" font-size="22" text-anchor="start" direction="ltr" writing-mode="lr-tb" unicode-bidi="normal" text-decoration="none" transform="matrix(2.48331e-17 -0.404899 0.405556 2.47929e-17 14.3486 170)">Initial yield stress: kPa</text><text fill="#000000" fill-opacity="1" font-family="Arial,Arial_MSFontService,sans-serif" font-style="normal" font-variant="normal" font-weight="400" font-stretch="normal" font-size="22" text-anchor="start" direction="ltr" writing-mode="lr-tb" unicode-bidi="normal" text-decoration="none" transform="matrix(0.405556 0 0 0.404899 101.685 273)">Volumetric strain rate: /sec</text><path d="M0 0 185.305 60.5365" stroke="#000000" stroke-width="0.809798" stroke-linecap="butt" stroke-linejoin="miter" stroke-miterlimit="8" stroke-opacity="1" fill="none" fill-rule="evenodd" transform="matrix(-1.00162 0 0 1 243.195 25.1037)"/><path d="M469.683 379.391 551.473 379.391 551.473 436.481 469.683 436.481Z" stroke="#000000" stroke-width="0.809798" stroke-linecap="butt" stroke-linejoin="miter" stroke-miterlimit="8" stroke-opacity="1" fill="#FFFFFF" fill-rule="nonzero" fill-opacity="1" transform="matrix(1.00162 0 0 1 -418.533 -194.352)"/><text fill="#000000" fill-opacity="1" font-family="Arial,Arial_MSFontService,sans-serif" font-style="normal" font-variant="normal" font-weight="400" font-stretch="normal" font-size="22" text-anchor="start" direction="ltr" writing-mode="lr-tb" unicode-bidi="normal" text-decoration="none" transform="matrix(0.405556 0 0 0.404899 59.1259 198)">Berthierville clay</text><path d="M483.045 399.231 489.118 399.231 489.118 404.899 483.045 404.899Z" stroke="#042433" stroke-width="0.607349" stroke-linecap="butt" stroke-linejoin="miter" stroke-miterlimit="8" stroke-opacity="1" fill="#262626" fill-rule="nonzero" fill-opacity="1" transform="matrix(1.00162 0 0 1 -418.533 -194.352)"/><text fill="#000000" fill-opacity="1" font-family="Arial,Arial_MSFontService,sans-serif" font-style="italic" font-variant="normal" font-weight="400" font-stretch="normal" font-size="22" text-anchor="start" direction="ltr" writing-mode="lr-tb" unicode-bidi="normal" text-decoration="none" transform="matrix(0.405556 0 0 0.404899 84.1284 210)">T </text><text fill="#000000" fill-opacity="1" font-family="Arial,Arial_MSFontService,sans-serif" font-style="normal" font-variant="normal" font-weight="400" font-stretch="normal" font-size="22" text-anchor="start" direction="ltr" writing-mode="lr-tb" unicode-bidi="normal" text-decoration="none" transform="matrix(0.405556 0 0 0.404899 92.0571 210)">= 5 </text><text fill="#000000" fill-opacity="1" font-family="Cambria Math,Cambria Math_MSFontService,sans-serif" font-style="normal" font-variant="normal" font-weight="400" font-stretch="normal" font-size="22" text-anchor="start" direction="ltr" writing-mode="lr-tb" unicode-bidi="normal" text-decoration="none" transform="matrix(0.405556 0 0 0.404899 107.188 210)">℃</text><path d="M0 0 185.305 60.5365" stroke="#747474" stroke-width="0.809798" stroke-linecap="butt" stroke-linejoin="miter" stroke-miterlimit="8" stroke-opacity="1" fill="none" fill-rule="evenodd" transform="matrix(-1.00162 0 0 1 243.195 43.7291)"/><path d="M0 0 185.305 60.5365" stroke="#AEAEAE" stroke-width="0.809798" stroke-linecap="butt" stroke-linejoin="miter" stroke-miterlimit="8" stroke-opacity="1" fill="none" fill-rule="evenodd" transform="matrix(-1.00162 0 0 1 243.195 57.0908)"/><path d="M483.045 417.046 486.081 410.973 489.118 417.046Z" stroke="#042433" stroke-width="0.607349" stroke-linecap="butt" stroke-linejoin="miter" stroke-miterlimit="8" stroke-opacity="1" fill="#AEAEAE" fill-rule="evenodd" fill-opacity="1" transform="matrix(1.00162 0 0 1 -418.533 -194.352)"/><text fill="#000000" fill-opacity="1" font-family="Arial,Arial_MSFontService,sans-serif" font-style="italic" font-variant="normal" font-weight="400" font-stretch="normal" font-size="22" text-anchor="start" direction="ltr" writing-mode="lr-tb" unicode-bidi="normal" text-decoration="none" transform="matrix(0.405556 0 0 0.404899 84.1284 222)">T </text><text fill="#000000" fill-opacity="1" font-family="Arial,Arial_MSFontService,sans-serif" font-style="normal" font-variant="normal" font-weight="400" font-stretch="normal" font-size="22" text-anchor="start" direction="ltr" writing-mode="lr-tb" unicode-bidi="normal" text-decoration="none" transform="matrix(0.405556 0 0 0.404899 92.0571 222)">= 20 </text><text fill="#000000" fill-opacity="1" font-family="Cambria Math,Cambria Math_MSFontService,sans-serif" font-style="normal" font-variant="normal" font-weight="400" font-stretch="normal" font-size="22" text-anchor="start" direction="ltr" writing-mode="lr-tb" unicode-bidi="normal" text-decoration="none" transform="matrix(0.405556 0 0 0.404899 112.152 222)">℃</text><path d="M483.045 425.954C483.045 424.387 484.405 423.12 486.081 423.12 487.758 423.12 489.118 424.387 489.118 425.954 489.118 427.521 487.758 428.788 486.081 428.788 484.405 428.788 483.045 427.521 483.045 425.954Z" stroke="#042433" stroke-width="0.607349" stroke-linecap="butt" stroke-linejoin="miter" stroke-miterlimit="8" stroke-opacity="1" fill="#FFFFFF" fill-rule="evenodd" fill-opacity="1" transform="matrix(1.00162 0 0 1 -418.533 -194.352)"/><text fill="#000000" fill-opacity="1" font-family="Arial,Arial_MSFontService,sans-serif" font-style="italic" font-variant="normal" font-weight="400" font-stretch="normal" font-size="22" text-anchor="start" direction="ltr" writing-mode="lr-tb" unicode-bidi="normal" text-decoration="none" transform="matrix(0.405556 0 0 0.404899 84.1284 234)">T </text><text fill="#000000" fill-opacity="1" font-family="Arial,Arial_MSFontService,sans-serif" font-style="normal" font-variant="normal" font-weight="400" font-stretch="normal" font-size="22" text-anchor="start" direction="ltr" writing-mode="lr-tb" unicode-bidi="normal" text-decoration="none" transform="matrix(0.405556 0 0 0.404899 92.0571 234)">= 35 </text><text fill="#000000" fill-opacity="1" font-family="Cambria Math,Cambria Math_MSFontService,sans-serif" font-style="normal" font-variant="normal" font-weight="400" font-stretch="normal" font-size="22" text-anchor="start" direction="ltr" writing-mode="lr-tb" unicode-bidi="normal" text-decoration="none" transform="matrix(0.405556 0 0 0.404899 112.152 234)">℃</text></g></g></svg>