<svg width="588" height="272" xmlns="http://www.w3.org/2000/svg" xmlns:xlink="http://www.w3.org/1999/xlink" xml:space="preserve" overflow="hidden"><g><g><path d="M40.8421 208.842 191.637 208.842 191.637 209.684 40.8421 209.684ZM190.795 207.579 199.216 209.263 190.795 210.947Z" fill="#000000" fill-rule="nonzero" fill-opacity="1" transform="matrix(1.00323 0 0 1 -32.1034 -55.5789)"/><path d="M237.895 208.842 388.69 208.842 388.69 209.684 237.895 209.684ZM387.848 207.579 396.269 209.263 387.848 210.947Z" fill="#000000" fill-rule="nonzero" fill-opacity="1" transform="matrix(1.00323 0 0 1 -32.1034 -55.5789)"/><path d="M0.421053-2.00888e-07 0.421115 131.399-0.42099 131.399-0.421053 2.00888e-07ZM1.68427 130.557 6.63075e-05 138.978-1.68415 130.557Z" fill="#000000" fill-rule="nonzero" fill-opacity="1" transform="matrix(1.00323 0 0 -1 216.698 164.662)"/><path d="M122.526 209.684C122.526 208.056 123.846 206.737 125.474 206.737 127.101 206.737 128.421 208.056 128.421 209.684 128.421 211.312 127.101 212.632 125.474 212.632 123.846 212.632 122.526 211.312 122.526 209.684Z" stroke="#042433" stroke-width="0.842105" stroke-linecap="butt" stroke-linejoin="miter" stroke-miterlimit="8" stroke-opacity="1" fill="#FFFFFF" fill-rule="evenodd" fill-opacity="1" transform="matrix(1.00323 0 0 1 -32.1034 -55.5789)"/><text fill="#000000" fill-opacity="1" font-family="Arial,Arial_MSFontService,sans-serif" font-style="normal" font-variant="normal" font-weight="400" font-stretch="normal" font-size="12" text-anchor="start" direction="ltr" writing-mode="lr-tb" unicode-bidi="normal" text-decoration="none" transform="matrix(0.844828 0 0 0.842105 18.5542 191)">(</text><text fill="#000000" fill-opacity="1" font-family="Arial,Arial_MSFontService,sans-serif" font-style="normal" font-variant="normal" font-weight="400" font-stretch="normal" font-size="12" text-anchor="start" direction="ltr" writing-mode="lr-tb" unicode-bidi="normal" text-decoration="none" transform="matrix(0.844828 0 0 0.842105 21.9335 191)">i</text><text fill="#000000" fill-opacity="1" font-family="Arial,Arial_MSFontService,sans-serif" font-style="normal" font-variant="normal" font-weight="400" font-stretch="normal" font-size="12" text-anchor="start" direction="ltr" writing-mode="lr-tb" unicode-bidi="normal" text-decoration="none" transform="matrix(0.844828 0 0 0.842105 24.1512 191)">) Undrained triaxial compression</text><text fill="#000000" fill-opacity="1" font-family="Arial,Arial_MSFontService,sans-serif" font-style="normal" font-variant="normal" font-weight="400" font-stretch="normal" font-size="11" text-anchor="start" direction="ltr" writing-mode="lr-tb" unicode-bidi="normal" text-decoration="none" transform="matrix(-1.55192e-16 -0.842105 0.844828 -1.54692e-16 209.224 91)">Deviator stress </text><text fill="#000000" fill-opacity="1" font-family="Cambria Math,Cambria Math_MSFontService,sans-serif" font-style="normal" font-variant="normal" font-weight="400" font-stretch="normal" font-size="11" text-anchor="start" direction="ltr" writing-mode="lr-tb" unicode-bidi="normal" text-decoration="none" transform="matrix(-1.55192e-16 -0.842105 0.844828 -1.54692e-16 209.224 29)">𝑞</text><text fill="#000000" fill-opacity="1" font-family="Arial,Arial_MSFontService,sans-serif" font-style="normal" font-variant="normal" font-weight="400" font-stretch="normal" font-size="11" text-anchor="start" direction="ltr" writing-mode="lr-tb" unicode-bidi="normal" text-decoration="none" transform="matrix(0.844828 0 0 0.842105 230.905 167)">Effective mean principal stress  </text><text fill="#000000" fill-opacity="1" font-family="Cambria Math,Cambria Math_MSFontService,sans-serif" font-style="normal" font-variant="normal" font-weight="400" font-stretch="normal" font-size="11" text-anchor="start" direction="ltr" writing-mode="lr-tb" unicode-bidi="normal" text-decoration="none" transform="matrix(0.844828 0 0 0.842105 356.256 167)">𝑝′</text><path d="M0.421053-2.00888e-07 0.421115 131.399-0.42099 131.399-0.421053 2.00888e-07ZM1.68427 130.557 6.63075e-05 138.978-1.68415 130.557Z" fill="#000000" fill-rule="nonzero" fill-opacity="1" transform="matrix(1.00323 0 0 -1 19.0086 164.662)"/><text fill="#000000" fill-opacity="1" font-family="Arial,Arial_MSFontService,sans-serif" font-style="normal" font-variant="normal" font-weight="400" font-stretch="normal" font-size="11" text-anchor="start" direction="ltr" writing-mode="lr-tb" unicode-bidi="normal" text-decoration="none" transform="matrix(-1.55192e-16 -0.842105 0.844828 -1.54692e-16 11.7585 91)">Deviator stress </text><text fill="#000000" fill-opacity="1" font-family="Cambria Math,Cambria Math_MSFontService,sans-serif" font-style="normal" font-variant="normal" font-weight="400" font-stretch="normal" font-size="11" text-anchor="start" direction="ltr" writing-mode="lr-tb" unicode-bidi="normal" text-decoration="none" transform="matrix(-1.55192e-16 -0.842105 0.844828 -1.54692e-16 11.7585 29)">𝑞</text><text fill="#000000" fill-opacity="1" font-family="Arial,Arial_MSFontService,sans-serif" font-style="normal" font-variant="normal" font-weight="400" font-stretch="normal" font-size="11" text-anchor="start" direction="ltr" writing-mode="lr-tb" unicode-bidi="normal" text-decoration="none" transform="matrix(0.844828 0 0 0.842105 33.4392 167)">Effective mean principal stress  </text><text fill="#000000" fill-opacity="1" font-family="Cambria Math,Cambria Math_MSFontService,sans-serif" font-style="normal" font-variant="normal" font-weight="400" font-stretch="normal" font-size="11" text-anchor="start" direction="ltr" writing-mode="lr-tb" unicode-bidi="normal" text-decoration="none" transform="matrix(0.844828 0 0 0.842105 158.79 167)">𝑝′</text><path d="M0 0 6.63075e-05 85.4787" stroke="#7F7F7F" stroke-width="0.842105" stroke-linecap="butt" stroke-linejoin="miter" stroke-miterlimit="8" stroke-opacity="1" fill="none" fill-rule="evenodd" transform="matrix(1.00323 0 0 -1 93.3534 150.742)"/><path d="M123.377 207.194 86.3158 120.842" stroke="#404040" stroke-width="0.842105" stroke-linecap="butt" stroke-linejoin="miter" stroke-miterlimit="8" stroke-opacity="1" fill="none" fill-rule="evenodd" transform="matrix(1.00323 0 0 1 -32.1034 -55.5789)"/><path d="M0 0 26.5215 85.2867" stroke="#404040" stroke-width="0.842105" stroke-linecap="butt" stroke-linejoin="miter" stroke-miterlimit="8" stroke-opacity="1" fill="none" fill-rule="evenodd" transform="matrix(1.00323 0 0 -1 95.0431 150.55)"/><path d="M133.474 111.158 150.984 111.158 150.984 112 133.474 112ZM150.141 109.895 158.563 111.579 150.141 113.263Z" fill="#404040" fill-rule="nonzero" fill-opacity="1" transform="matrix(1.00323 0 0 1 -32.1034 -55.5789)"/><text fill="#000000" fill-opacity="1" font-family="Cambria Math,Cambria Math_MSFontService,sans-serif" font-style="normal" font-variant="normal" font-weight="400" font-stretch="normal" font-size="9" text-anchor="start" direction="ltr" writing-mode="lr-tb" unicode-bidi="normal" text-decoration="none" transform="matrix(0.844828 0 0 0.842105 83.6802 33)">𝛼</text><text fill="#000000" fill-opacity="1" font-family="Cambria Math,Cambria Math_MSFontService,sans-serif" font-style="normal" font-variant="normal" font-weight="400" font-stretch="normal" font-size="9" text-anchor="start" direction="ltr" writing-mode="lr-tb" unicode-bidi="normal" text-decoration="none" transform="matrix(0.844828 0 0 0.842105 90.5613 33)">=</text><text fill="#000000" fill-opacity="1" font-family="Cambria Math,Cambria Math_MSFontService,sans-serif" font-style="normal" font-variant="normal" font-weight="400" font-stretch="normal" font-size="9" text-anchor="start" direction="ltr" writing-mode="lr-tb" unicode-bidi="normal" text-decoration="none" transform="matrix(0.844828 0 0 0.842105 98.3759 33)">1</text><path d="M0 0 6.63075e-05 22.8673" stroke="#7F7F7F" stroke-width="0.842105" stroke-linecap="square" stroke-linejoin="miter" stroke-miterlimit="8" stroke-dasharray="2.52632 0.842105" stroke-opacity="1" fill="none" fill-rule="evenodd" transform="matrix(1.00323 0 0 -1 93.3534 65.3937)"/><text fill="#000000" fill-opacity="1" font-family="Cambria Math,Cambria Math_MSFontService,sans-serif" font-style="normal" font-variant="normal" font-weight="400" font-stretch="normal" font-size="9" text-anchor="start" direction="ltr" writing-mode="lr-tb" unicode-bidi="normal" text-decoration="none" transform="matrix(0.844828 0 0 0.842105 57.8462 44)">𝛼</text><text fill="#000000" fill-opacity="1" font-family="Cambria Math,Cambria Math_MSFontService,sans-serif" font-style="normal" font-variant="normal" font-weight="400" font-stretch="normal" font-size="9" text-anchor="start" direction="ltr" writing-mode="lr-tb" unicode-bidi="normal" text-decoration="none" transform="matrix(0.844828 0 0 0.842105 64.7273 44)">&gt;</text><text fill="#000000" fill-opacity="1" font-family="Cambria Math,Cambria Math_MSFontService,sans-serif" font-style="normal" font-variant="normal" font-weight="400" font-stretch="normal" font-size="9" text-anchor="start" direction="ltr" writing-mode="lr-tb" unicode-bidi="normal" text-decoration="none" transform="matrix(0.844828 0 0 0.842105 72.542 44)">1</text><path d="M6.28445e-07-0.421053 36.8466-0.420998 36.8466 0.421107-6.28445e-07 0.421053ZM36.0045-1.68416 44.4255 6.63075e-05 36.0045 1.68426Z" fill="#404040" fill-rule="nonzero" fill-opacity="1" transform="matrix(-1.00323 0 0 1 88.9223 56)"/><text fill="#000000" fill-opacity="1" font-family="Cambria Math,Cambria Math_MSFontService,sans-serif" font-style="normal" font-variant="normal" font-weight="400" font-stretch="normal" font-size="9" text-anchor="start" direction="ltr" writing-mode="lr-tb" unicode-bidi="normal" text-decoration="none" transform="matrix(0.844828 0 0 0.842105 104.975 44)">𝛼</text><text fill="#000000" fill-opacity="1" font-family="Cambria Math,Cambria Math_MSFontService,sans-serif" font-style="normal" font-variant="normal" font-weight="400" font-stretch="normal" font-size="9" text-anchor="start" direction="ltr" writing-mode="lr-tb" unicode-bidi="normal" text-decoration="none" transform="matrix(0.844828 0 0 0.842105 111.856 44)">&lt;</text><text fill="#000000" fill-opacity="1" font-family="Cambria Math,Cambria Math_MSFontService,sans-serif" font-style="normal" font-variant="normal" font-weight="400" font-stretch="normal" font-size="9" text-anchor="start" direction="ltr" writing-mode="lr-tb" unicode-bidi="normal" text-decoration="none" transform="matrix(0.844828 0 0 0.842105 119.671 44)">1</text><path d="M0 0 103.762 112.486" stroke="#7F7F7F" stroke-width="0.842105" stroke-linecap="butt" stroke-linejoin="miter" stroke-miterlimit="8" stroke-dasharray="0.842105 0.842105" stroke-opacity="1" fill="none" fill-rule="evenodd" transform="matrix(1.00323 0 0 -1 216.698 155.012)"/><path d="M0 0 24.7805 72.668" stroke="#595959" stroke-width="0.842105" stroke-linecap="butt" stroke-linejoin="miter" stroke-miterlimit="8" stroke-opacity="1" fill="none" fill-rule="evenodd" transform="matrix(1.00323 0 0 -1 296.112 115.194)"/><path d="M122.052 189.346 121.044 187.029 121.816 186.693 122.824 189.009ZM120.708 186.257 119.699 183.941 120.472 183.604 121.48 185.921ZM119.363 183.169 118.355 180.852 119.127 180.516 120.136 182.833ZM118.019 180.08 117.011 177.764 117.782 177.427 118.791 179.744ZM116.674 176.992 115.666 174.675 116.438 174.339 117.446 176.656ZM115.33 173.903 114.321 171.587 115.093 171.251 116.101 173.567ZM113.985 170.815 112.976 168.499 113.748 168.163 114.757 170.479ZM112.64 167.726 111.631 165.411 112.403 165.075 113.412 167.39ZM111.295 164.638 110.287 162.322 111.059 161.986 112.067 164.302ZM109.95 161.549 108.942 159.234 109.715 158.898 110.723 161.213ZM108.606 158.461 107.597 156.145 108.37 155.809 109.378 158.125ZM107.261 155.373 106.253 153.057 107.025 152.721 108.034 155.037ZM105.917 152.285 104.908 149.968 105.68 149.632 106.689 151.949ZM104.572 149.197 103.564 146.88 104.336 146.544 105.344 148.86ZM103.227 146.108 102.219 143.792 102.991 143.455 103.999 145.772ZM101.883 143.02 100.874 140.703 101.646 140.367 102.655 142.684ZM100.538 139.931 99.5293 137.615 100.301 137.278 101.31 139.595ZM99.1933 136.843 98.1844 134.526 98.9566 134.19 99.9655 136.507ZM97.8484 133.754 96.8404 131.438 97.6126 131.102 98.6206 133.418ZM96.5044 130.666 95.6918 128.801 96.464 128.465 97.2758 130.33ZM94.8699 130.077 93.0526 121.684 97.9587 128.733Z" fill="#7F7F7F" fill-rule="nonzero" fill-opacity="1" transform="matrix(1.00323 0 0 1 -32.1034 -55.5789)"/><path d="M0.399223-0.133816 1.20211 2.26152 0.403671 2.52915-0.399223 0.133816ZM1.46975 3.05997 2.27264 5.4553 1.4742 5.72293 0.671302 3.3276ZM2.54027 6.25374 3.34317 8.64909 2.54472 8.91672 1.74183 6.52138ZM3.6108 9.44749 4.41369 11.8429 3.61524 12.1105 2.81235 9.7152ZM4.68132 12.6413 5.48422 15.0366 4.68577 15.3043 3.88288 12.909ZM5.75185 15.8351 6.55474 18.2304 5.75629 18.498 4.9534 16.1027ZM6.82237 19.0289 7.62526 21.4242 6.82682 21.6919 6.02392 19.2965ZM7.89289 22.2227 8.69583 24.618 7.89735 24.8856 7.09445 22.4903ZM8.96345 25.4164 9.76632 27.8118 8.96783 28.0794 8.16498 25.684ZM10.0339 28.6102 10.8368 31.0056 10.0384 31.2732 9.23554 28.8778ZM11.1045 31.804 11.9074 34.1993 11.1089 34.4669 10.306 32.0717ZM12.175 34.9978 12.9779 37.3931 12.1795 37.6607 11.3766 35.2654ZM13.2456 38.1916 14.0484 40.5869 13.2499 40.8546 12.4471 38.4592ZM14.316 41.3853 15.1189 43.7807 14.3205 44.0483 13.5176 41.653ZM15.3866 44.5791 16.1336 46.8078 15.3352 47.0755 14.5881 44.8467ZM17.0637 45.6079 18.1431 54.1276 13.8699 46.6784Z" fill="#595959" fill-rule="nonzero" fill-opacity="1" transform="matrix(-1.00323 0 0 1 309.245 61.0526)"/><text fill="#000000" fill-opacity="1" font-family="Cambria Math,Cambria Math_MSFontService,sans-serif" font-style="normal" font-variant="normal" font-weight="400" font-stretch="normal" font-size="10" text-anchor="start" direction="ltr" writing-mode="lr-tb" unicode-bidi="normal" text-decoration="none" transform="matrix(0.844828 0 0 0.842105 46.166 124)">−</text><text fill="#000000" fill-opacity="1" font-family="Cambria Math,Cambria Math_MSFontService,sans-serif" font-style="normal" font-variant="normal" font-weight="400" font-stretch="normal" font-size="10" text-anchor="start" direction="ltr" writing-mode="lr-tb" unicode-bidi="normal" text-decoration="none" transform="matrix(0.844828 0 0 0.842105 53.9084 124)">𝐽</text><text fill="#000000" fill-opacity="1" font-family="Cambria Math,Cambria Math_MSFontService,sans-serif" font-style="normal" font-variant="normal" font-weight="400" font-stretch="normal" font-size="7" text-anchor="start" direction="ltr" writing-mode="lr-tb" unicode-bidi="normal" text-decoration="none" transform="matrix(0.844828 0 0 0.842105 57.3469 120)">∗</text><text fill="#000000" fill-opacity="1" font-family="Cambria Math,Cambria Math_MSFontService,sans-serif" font-style="normal" font-variant="normal" font-weight="400" font-stretch="normal" font-size="10" text-anchor="start" direction="ltr" writing-mode="lr-tb" unicode-bidi="normal" text-decoration="none" transform="matrix(0.844828 0 0 0.842105 65.3305 124)">𝐾</text><text fill="#000000" fill-opacity="1" font-family="Cambria Math,Cambria Math_MSFontService,sans-serif" font-style="normal" font-variant="normal" font-weight="400" font-stretch="normal" font-size="7" text-anchor="start" direction="ltr" writing-mode="lr-tb" unicode-bidi="normal" text-decoration="none" transform="matrix(0.844828 0 0 0.842105 71.6878 120)">∗</text><path d="M4.32566-5.88404 0.962173 1.76809 0.324835 1.76809 3.69655-5.88404Z" fill="#000000" fill-rule="nonzero" fill-opacity="1" transform="matrix(1.00323 0 0 1 60.6544 122.947)"/><text fill="#000000" fill-opacity="1" font-family="Arial,Arial_MSFontService,sans-serif" font-style="normal" font-variant="normal" font-weight="400" font-stretch="normal" font-size="10" text-anchor="start" direction="ltr" writing-mode="lr-tb" unicode-bidi="normal" text-decoration="none" transform="matrix(0.844828 0 0 0.842105 42.9655 110)">Slope:</text><text fill="#404040" fill-opacity="1" font-family="Arial,Arial_MSFontService,sans-serif" font-style="normal" font-variant="normal" font-weight="400" font-stretch="normal" font-size="10" text-anchor="start" direction="ltr" writing-mode="lr-tb" unicode-bidi="normal" text-decoration="none" transform="matrix(0.844828 0 0 0.842105 273.47 46)">Loading</text><text fill="#404040" fill-opacity="1" font-family="Arial,Arial_MSFontService,sans-serif" font-style="normal" font-variant="normal" font-weight="400" font-stretch="normal" font-size="10" text-anchor="start" direction="ltr" writing-mode="lr-tb" unicode-bidi="normal" text-decoration="none" transform="matrix(0.844828 0 0 0.842105 272.602 125)">Unloading</text><text fill="#000000" fill-opacity="1" font-family="Arial,Arial_MSFontService,sans-serif" font-style="normal" font-variant="normal" font-weight="400" font-stretch="normal" font-size="12" text-anchor="start" direction="ltr" writing-mode="lr-tb" unicode-bidi="normal" text-decoration="none" transform="matrix(0.844828 0 0 0.842105 226.364 191)">(ii) Triaxial K0 consolidation</text><text fill="#000000" fill-opacity="1" font-family="Cambria Math,Cambria Math_MSFontService,sans-serif" font-style="normal" font-variant="normal" font-weight="400" font-stretch="normal" font-size="10" text-anchor="start" direction="ltr" writing-mode="lr-tb" unicode-bidi="normal" text-decoration="none" transform="matrix(0.844828 0 0 0.842105 316.795 98)">3</text><path d="M419.359 146.568C420.16 146.78 420.775 147.235 421.203 147.936 421.632 148.636 421.847 149.481 421.847 150.471 421.847 151.463 421.633 152.308 421.205 153.005 420.778 153.703 420.163 154.157 419.359 154.369L419.261 154.052C419.894 153.841 420.365 153.424 420.673 152.802 420.981 152.179 421.135 151.389 421.135 150.429 421.135 149.503 420.982 148.733 420.675 148.12 420.368 147.508 419.892 147.096 419.248 146.885ZM355.634 146.568 355.745 146.885C355.103 147.096 354.628 147.508 354.32 148.12 354.011 148.733 353.857 149.503 353.857 150.429 353.857 151.389 354.011 152.179 354.32 152.802 354.628 153.424 355.099 153.841 355.732 154.052L355.634 154.369C354.83 154.157 354.215 153.703 353.787 153.005 353.36 152.308 353.146 151.463 353.146 150.471 353.146 149.481 353.36 148.636 353.789 147.936 354.218 147.235 354.833 146.78 355.634 146.568Z" fill="#000000" fill-rule="evenodd" fill-opacity="1" transform="matrix(1.00323 0 0 1 -32.1034 -55.5789)"/><text fill="#000000" fill-opacity="1" font-family="Cambria Math,Cambria Math_MSFontService,sans-serif" font-style="normal" font-variant="normal" font-weight="400" font-stretch="normal" font-size="10" text-anchor="start" direction="ltr" writing-mode="lr-tb" unicode-bidi="normal" text-decoration="none" transform="matrix(0.844828 0 0 0.842105 324.948 98)">1</text><text fill="#000000" fill-opacity="1" font-family="Cambria Math,Cambria Math_MSFontService,sans-serif" font-style="normal" font-variant="normal" font-weight="400" font-stretch="normal" font-size="10" text-anchor="start" direction="ltr" writing-mode="lr-tb" unicode-bidi="normal" text-decoration="none" transform="matrix(0.844828 0 0 0.842105 331.47 98)">−</text><text fill="#000000" fill-opacity="1" font-family="Cambria Math,Cambria Math_MSFontService,sans-serif" font-style="normal" font-variant="normal" font-weight="400" font-stretch="normal" font-size="10" text-anchor="start" direction="ltr" writing-mode="lr-tb" unicode-bidi="normal" text-decoration="none" transform="matrix(0.844828 0 0 0.842105 339.682 98)">𝜈</text><text fill="#000000" fill-opacity="1" font-family="Cambria Math,Cambria Math_MSFontService,sans-serif" font-style="normal" font-variant="normal" font-weight="400" font-stretch="normal" font-size="7" text-anchor="start" direction="ltr" writing-mode="lr-tb" unicode-bidi="normal" text-decoration="none" transform="matrix(0.844828 0 0 0.842105 343.847 99)">vh</text><text fill="#000000" fill-opacity="1" font-family="Cambria Math,Cambria Math_MSFontService,sans-serif" font-style="normal" font-variant="normal" font-weight="400" font-stretch="normal" font-size="10" text-anchor="start" direction="ltr" writing-mode="lr-tb" unicode-bidi="normal" text-decoration="none" transform="matrix(0.844828 0 0 0.842105 351.589 98)">𝛼</text><text fill="#000000" fill-opacity="1" font-family="Cambria Math,Cambria Math_MSFontService,sans-serif" font-style="normal" font-variant="normal" font-weight="400" font-stretch="normal" font-size="7" text-anchor="start" direction="ltr" writing-mode="lr-tb" unicode-bidi="normal" text-decoration="none" transform="matrix(0.844828 0 0 0.842105 357.081 94)">2</text><text fill="#000000" fill-opacity="1" font-family="Cambria Math,Cambria Math_MSFontService,sans-serif" font-style="normal" font-variant="normal" font-weight="400" font-stretch="normal" font-size="10" text-anchor="start" direction="ltr" writing-mode="lr-tb" unicode-bidi="normal" text-decoration="none" transform="matrix(0.844828 0 0 0.842105 362.897 98)">−</text><text fill="#000000" fill-opacity="1" font-family="Cambria Math,Cambria Math_MSFontService,sans-serif" font-style="normal" font-variant="normal" font-weight="400" font-stretch="normal" font-size="10" text-anchor="start" direction="ltr" writing-mode="lr-tb" unicode-bidi="normal" text-decoration="none" transform="matrix(0.844828 0 0 0.842105 371.109 98)">𝜈</text><text fill="#000000" fill-opacity="1" font-family="Cambria Math,Cambria Math_MSFontService,sans-serif" font-style="normal" font-variant="normal" font-weight="400" font-stretch="normal" font-size="7" text-anchor="start" direction="ltr" writing-mode="lr-tb" unicode-bidi="normal" text-decoration="none" transform="matrix(0.844828 0 0 0.842105 375.274 99)">vh</text><text fill="#000000" fill-opacity="1" font-family="Cambria Math,Cambria Math_MSFontService,sans-serif" font-style="normal" font-variant="normal" font-weight="400" font-stretch="normal" font-size="10" text-anchor="start" direction="ltr" writing-mode="lr-tb" unicode-bidi="normal" text-decoration="none" transform="matrix(0.844828 0 0 0.842105 383.017 98)">𝛼</text><text fill="#000000" fill-opacity="1" font-family="Cambria Math,Cambria Math_MSFontService,sans-serif" font-style="normal" font-variant="normal" font-weight="400" font-stretch="normal" font-size="10" text-anchor="start" direction="ltr" writing-mode="lr-tb" unicode-bidi="normal" text-decoration="none" transform="matrix(0.844828 0 0 0.842105 320.301 109)">2</text><text fill="#000000" fill-opacity="1" font-family="Cambria Math,Cambria Math_MSFontService,sans-serif" font-style="normal" font-variant="normal" font-weight="400" font-stretch="normal" font-size="10" text-anchor="start" direction="ltr" writing-mode="lr-tb" unicode-bidi="normal" text-decoration="none" transform="matrix(0.844828 0 0 0.842105 324.948 109)">𝜈</text><text fill="#000000" fill-opacity="1" font-family="Cambria Math,Cambria Math_MSFontService,sans-serif" font-style="normal" font-variant="normal" font-weight="400" font-stretch="normal" font-size="7" text-anchor="start" direction="ltr" writing-mode="lr-tb" unicode-bidi="normal" text-decoration="none" transform="matrix(0.844828 0 0 0.842105 329.113 111)">vh</text><text fill="#000000" fill-opacity="1" font-family="Cambria Math,Cambria Math_MSFontService,sans-serif" font-style="normal" font-variant="normal" font-weight="400" font-stretch="normal" font-size="10" text-anchor="start" direction="ltr" writing-mode="lr-tb" unicode-bidi="normal" text-decoration="none" transform="matrix(0.844828 0 0 0.842105 336.856 109)">𝛼</text><text fill="#000000" fill-opacity="1" font-family="Cambria Math,Cambria Math_MSFontService,sans-serif" font-style="normal" font-variant="normal" font-weight="400" font-stretch="normal" font-size="7" text-anchor="start" direction="ltr" writing-mode="lr-tb" unicode-bidi="normal" text-decoration="none" transform="matrix(0.844828 0 0 0.842105 342.347 107)">2</text><text fill="#000000" fill-opacity="1" font-family="Cambria Math,Cambria Math_MSFontService,sans-serif" font-style="normal" font-variant="normal" font-weight="400" font-stretch="normal" font-size="10" text-anchor="start" direction="ltr" writing-mode="lr-tb" unicode-bidi="normal" text-decoration="none" transform="matrix(0.844828 0 0 0.842105 348.164 109)">−</text><text fill="#000000" fill-opacity="1" font-family="Cambria Math,Cambria Math_MSFontService,sans-serif" font-style="normal" font-variant="normal" font-weight="400" font-stretch="normal" font-size="10" text-anchor="start" direction="ltr" writing-mode="lr-tb" unicode-bidi="normal" text-decoration="none" transform="matrix(0.844828 0 0 0.842105 356.375 109)">𝜈</text><text fill="#000000" fill-opacity="1" font-family="Cambria Math,Cambria Math_MSFontService,sans-serif" font-style="normal" font-variant="normal" font-weight="400" font-stretch="normal" font-size="7" text-anchor="start" direction="ltr" writing-mode="lr-tb" unicode-bidi="normal" text-decoration="none" transform="matrix(0.844828 0 0 0.842105 360.54 111)">vh</text><text fill="#000000" fill-opacity="1" font-family="Cambria Math,Cambria Math_MSFontService,sans-serif" font-style="normal" font-variant="normal" font-weight="400" font-stretch="normal" font-size="10" text-anchor="start" direction="ltr" writing-mode="lr-tb" unicode-bidi="normal" text-decoration="none" transform="matrix(0.844828 0 0 0.842105 368.283 109)">𝛼</text><text fill="#000000" fill-opacity="1" font-family="Cambria Math,Cambria Math_MSFontService,sans-serif" font-style="normal" font-variant="normal" font-weight="400" font-stretch="normal" font-size="10" text-anchor="start" direction="ltr" writing-mode="lr-tb" unicode-bidi="normal" text-decoration="none" transform="matrix(0.844828 0 0 0.842105 375.485 109)">+</text><text fill="#000000" fill-opacity="1" font-family="Cambria Math,Cambria Math_MSFontService,sans-serif" font-style="normal" font-variant="normal" font-weight="400" font-stretch="normal" font-size="10" text-anchor="start" direction="ltr" writing-mode="lr-tb" unicode-bidi="normal" text-decoration="none" transform="matrix(0.844828 0 0 0.842105 383.697 109)">1</text><path d="M347.812 156.721 366.549 156.721 385.286 156.721 404.023 156.721 422.76 156.721 422.76 157.563 404.023 157.563 385.286 157.563 366.549 157.563 347.812 157.563Z" fill="#000000" fill-rule="evenodd" fill-opacity="1" transform="matrix(1.00323 0 0 1 -32.1034 -55.5789)"/><text fill="#000000" fill-opacity="1" font-family="Arial,Arial_MSFontService,sans-serif" font-style="normal" font-variant="normal" font-weight="400" font-stretch="normal" font-size="10" text-anchor="start" direction="ltr" writing-mode="lr-tb" unicode-bidi="normal" text-decoration="none" transform="matrix(0.844828 0 0 0.842105 326.464 82)">Slope:</text><path d="M0.30987-0.285072 2.0203 1.57415 1.40056 2.14429-0.30987 0.285072ZM2.59044 2.19389 4.30088 4.05311 3.68114 4.62325 1.9707 2.76403ZM4.87101 4.67285 6.58145 6.53207 5.96171 7.10221 4.25128 5.24299ZM7.15159 7.15181 8.86206 9.01103 8.24228 9.58114 6.53185 7.72195ZM9.43217 9.63074 11.1426 11.49 10.5229 12.0601 8.81246 10.2009ZM11.7128 12.1097 13.4232 13.9689 12.8035 14.5391 11.093 12.6799ZM13.9933 14.5887 15.7037 16.4479 15.084 17.018 13.3736 15.1588ZM16.2739 17.0676 17.9843 18.9269 17.3645 19.497 15.6541 17.6378ZM18.5544 19.5466 20.2649 21.4058 19.6451 21.976 17.9347 20.1168ZM20.835 22.0256 22.5454 23.8848 21.9257 24.4549 20.2153 22.5957ZM23.1156 24.5045 24.826 26.3638 24.2063 26.9339 22.4958 25.0747ZM25.3962 26.9835 27.1066 28.8427 26.4869 29.4129 24.7764 27.5537ZM27.6767 29.4625 29.3872 31.3217 28.7674 31.8918 27.057 30.0326ZM29.9573 31.9414 31.6678 33.8007 31.048 34.3708 29.3376 32.5116ZM32.2379 34.4204 33.9483 36.2796 33.3286 36.8498 31.6182 34.9906ZM34.5185 36.8994 36.2289 38.7586 35.6092 39.3287 33.8987 37.4695ZM36.7991 39.3783 38.5095 41.2376 37.8898 41.8077 36.1793 39.9485ZM39.0797 41.8573 40.7901 43.7165 40.1704 44.2867 38.4599 42.4274ZM41.3602 44.3363 43.0707 46.1955 42.4509 46.7656 40.7405 44.9064ZM43.6408 46.8152 45.3512 48.6744 44.7315 49.2445 43.0211 47.3853ZM45.9213 49.2941 47.6317 51.1533 47.012 51.7235 45.3016 49.8643ZM48.2019 51.7731 49.9123 53.6323 49.2926 54.2024 47.5821 52.3432ZM50.4825 54.252 52.1929 56.1112 51.5732 56.6814 49.8627 54.8222ZM52.763 56.731 54.4735 58.5902 53.8537 59.1604 52.1433 57.3011ZM55.0436 59.21 56.7541 61.0692 56.1343 61.6393 54.4239 59.7801ZM57.3242 61.6889 59.0346 63.5481 58.4149 64.1183 56.7045 62.2591ZM59.6048 64.1679 61.3152 66.0271 60.6955 66.5973 58.985 64.738ZM61.8854 66.6469 62.6424 67.4697 62.0227 68.0399 61.2656 67.217ZM63.0019 65.9948 67.4637 73.3325 60.5229 68.2754Z" fill="#595959" fill-rule="nonzero" fill-opacity="1" transform="matrix(1.00323 0 0 -1 247.112 115.859)"/><path d="M444.211 84.2105 602.013 84.2105 602.013 85.0526 444.211 85.0526ZM601.172 82.9475 609.593 84.6316 601.172 86.3158Z" fill="#000000" fill-rule="nonzero" fill-opacity="1" transform="matrix(1.00323 0 0 1 -32.1034 -55.5789)"/><text fill="#000000" fill-opacity="1" font-family="Arial,Arial_MSFontService,sans-serif" font-style="normal" font-variant="normal" font-weight="400" font-stretch="normal" font-size="11" text-anchor="start" direction="ltr" writing-mode="lr-tb" unicode-bidi="normal" text-decoration="none" transform="matrix(0.844828 0 0 0.842105 500.529 11)">(natural logarithmic)</text><text fill="#000000" fill-opacity="1" font-family="Arial,Arial_MSFontService,sans-serif" font-style="normal" font-variant="normal" font-weight="400" font-stretch="normal" font-size="11" text-anchor="start" direction="ltr" writing-mode="lr-tb" unicode-bidi="normal" text-decoration="none" transform="matrix(0.844828 0 0 0.842105 448.429 22)">Effective mean principal stress </text><text fill="#000000" fill-opacity="1" font-family="Cambria Math,Cambria Math_MSFontService,sans-serif" font-style="normal" font-variant="normal" font-weight="400" font-stretch="normal" font-size="11" text-anchor="start" direction="ltr" writing-mode="lr-tb" unicode-bidi="normal" text-decoration="none" transform="matrix(0.844828 0 0 0.842105 571.351 22)">𝑝</text><text fill="#000000" fill-opacity="1" font-family="Cambria Math,Cambria Math_MSFontService,sans-serif" font-style="normal" font-variant="normal" font-weight="400" font-stretch="normal" font-size="8" text-anchor="start" direction="ltr" writing-mode="lr-tb" unicode-bidi="normal" text-decoration="none" transform="matrix(0.844828 0 0 0.842105 576.513 19)">′</text><path d="M456.421 66.9474 456.421 220.171 455.579 220.171 455.579 66.9474ZM457.684 219.329 456 227.75 454.316 219.329Z" fill="#000000" fill-rule="nonzero" fill-opacity="1" transform="matrix(1.00323 0 0 1 -32.1034 -55.5789)"/><text fill="#000000" fill-opacity="1" font-family="Arial,Arial_MSFontService,sans-serif" font-style="normal" font-variant="normal" font-weight="400" font-stretch="normal" font-size="11" text-anchor="start" direction="ltr" writing-mode="lr-tb" unicode-bidi="normal" text-decoration="none" transform="matrix(-1.55192e-16 -0.842105 0.844828 -1.54692e-16 418.45 171)">Natural volumetric strain </text><text fill="#000000" fill-opacity="1" font-family="Cambria Math,Cambria Math_MSFontService,sans-serif" font-style="normal" font-variant="normal" font-weight="400" font-stretch="normal" font-size="11" text-anchor="start" direction="ltr" writing-mode="lr-tb" unicode-bidi="normal" text-decoration="none" transform="matrix(-1.55192e-16 -0.842105 0.844828 -1.54692e-16 418.45 73)">𝜀</text><text fill="#000000" fill-opacity="1" font-family="Cambria Math,Cambria Math_MSFontService,sans-serif" font-style="normal" font-variant="normal" font-weight="400" font-stretch="normal" font-size="8" text-anchor="start" direction="ltr" writing-mode="lr-tb" unicode-bidi="normal" text-decoration="none" transform="matrix(-1.55192e-16 -0.842105 0.844828 -1.54692e-16 420.262 69)">𝑣</text><text fill="#000000" fill-opacity="1" font-family="Cambria Math,Cambria Math_MSFontService,sans-serif" font-style="normal" font-variant="normal" font-weight="400" font-stretch="normal" font-size="11" text-anchor="start" direction="ltr" writing-mode="lr-tb" unicode-bidi="normal" text-decoration="none" transform="matrix(-1.55192e-16 -0.842105 0.844828 -1.54692e-16 418.45 65)">′</text><path d="M456 106.526 536.219 126.395" stroke="#595959" stroke-width="0.842105" stroke-linecap="butt" stroke-linejoin="miter" stroke-miterlimit="8" stroke-opacity="1" fill="none" fill-rule="evenodd" transform="matrix(1.00323 0 0 1 -32.1034 -55.5789)"/><path d="M536 126.737 596.117 227.8" stroke="#595959" stroke-width="0.842105" stroke-linecap="square" stroke-linejoin="miter" stroke-miterlimit="8" stroke-dasharray="2.52632 0.842105" stroke-opacity="1" fill="none" fill-rule="evenodd" transform="matrix(1.00323 0 0 1 -32.1034 -55.5789)"/><path d="M532.632 127.158C532.632 125.53 533.951 124.211 535.579 124.211 537.207 124.211 538.526 125.53 538.526 127.158 538.526 128.786 537.207 130.105 535.579 130.105 533.951 130.105 532.632 128.786 532.632 127.158Z" stroke="#042433" stroke-width="0.842105" stroke-linecap="butt" stroke-linejoin="miter" stroke-miterlimit="8" stroke-opacity="1" fill="#FFFFFF" fill-rule="evenodd" fill-opacity="1" transform="matrix(1.00323 0 0 1 -32.1034 -55.5789)"/><text fill="#404040" fill-opacity="1" font-family="Arial,Arial_MSFontService,sans-serif" font-style="normal" font-variant="normal" font-weight="400" font-stretch="normal" font-size="9" text-anchor="start" direction="ltr" writing-mode="lr-tb" unicode-bidi="normal" text-decoration="none" transform="matrix(0.844828 0 0 0.842105 510.887 69)">Yield point</text><text fill="#000000" fill-opacity="1" font-family="Arial,Arial_MSFontService,sans-serif" font-style="normal" font-variant="normal" font-weight="400" font-stretch="normal" font-size="10" text-anchor="start" direction="ltr" writing-mode="lr-tb" unicode-bidi="normal" text-decoration="none" transform="matrix(0.844828 0 0 0.842105 443.519 43)">Slope:</text><text fill="#000000" fill-opacity="1" font-family="Arial,Arial_MSFontService,sans-serif" font-style="normal" font-variant="normal" font-weight="400" font-stretch="normal" font-size="12" text-anchor="start" direction="ltr" writing-mode="lr-tb" unicode-bidi="normal" text-decoration="none" transform="matrix(0.844828 0 0 0.842105 439.704 191)">(iii) Isotropic compression</text><text fill="#000000" fill-opacity="1" font-family="Cambria Math,Cambria Math_MSFontService,sans-serif" font-style="normal" font-variant="normal" font-weight="400" font-stretch="normal" font-size="10" text-anchor="start" direction="ltr" writing-mode="lr-tb" unicode-bidi="normal" text-decoration="none" transform="matrix(0.844828 0 0 0.842105 561.578 93)">𝜆</text><text fill="#000000" fill-opacity="1" font-family="Cambria Math,Cambria Math_MSFontService,sans-serif" font-style="normal" font-variant="normal" font-weight="400" font-stretch="normal" font-size="7" text-anchor="start" direction="ltr" writing-mode="lr-tb" unicode-bidi="normal" text-decoration="none" transform="matrix(0.844828 0 0 0.842105 565.785 90)">∗</text><text fill="#000000" fill-opacity="1" font-family="Arial,Arial_MSFontService,sans-serif" font-style="normal" font-variant="normal" font-weight="400" font-stretch="normal" font-size="10" text-anchor="start" direction="ltr" writing-mode="lr-tb" unicode-bidi="normal" text-decoration="none" transform="matrix(0.844828 0 0 0.842105 533.754 93)">Slope:</text><text fill="#000000" fill-opacity="1" font-family="Cambria Math,Cambria Math_MSFontService,sans-serif" font-style="normal" font-variant="normal" font-weight="400" font-stretch="normal" font-size="10" text-anchor="start" direction="ltr" writing-mode="lr-tb" unicode-bidi="normal" text-decoration="none" transform="matrix(0.844828 0 0 0.842105 472.505 42)">𝜅</text><text fill="#000000" fill-opacity="1" font-family="Cambria Math,Cambria Math_MSFontService,sans-serif" font-style="normal" font-variant="normal" font-weight="400" font-stretch="normal" font-size="7" text-anchor="start" direction="ltr" writing-mode="lr-tb" unicode-bidi="normal" text-decoration="none" transform="matrix(0.844828 0 0 0.842105 477.439 39)">∗</text><path d="M126.737 296.842 312 296.842 312 327.158 126.737 327.158Z" stroke="#595959" stroke-width="0.842105" stroke-linecap="butt" stroke-linejoin="miter" stroke-miterlimit="8" stroke-opacity="1" fill="none" fill-rule="nonzero" transform="matrix(1.00323 0 0 1 -32.1034 -55.5789)"/><path d="M139.789 276.211 295.579 276.211 295.579 306.526 139.789 306.526Z" fill="#FFFFFF" fill-rule="nonzero" fill-opacity="1" transform="matrix(1.00323 0 0 1 -32.1034 -55.5789)"/><text fill="#000000" fill-opacity="1" font-family="Arial,Arial_MSFontService,sans-serif" font-style="normal" font-variant="normal" font-weight="400" font-stretch="normal" font-size="12" text-anchor="start" direction="ltr" writing-mode="lr-tb" unicode-bidi="normal" text-decoration="none" transform="matrix(0.844828 0 0 0.842105 126.532 234)">Dimensionless parameters</text><text fill="#000000" fill-opacity="1" font-family="Arial,Arial_MSFontService,sans-serif" font-style="normal" font-variant="normal" font-weight="400" font-stretch="normal" font-size="12" text-anchor="start" direction="ltr" writing-mode="lr-tb" unicode-bidi="normal" text-decoration="none" transform="matrix(0.844828 0 0 0.842105 114.704 246)">(Anisotropy &amp; Poisson coupling)</text><text fill="#000000" fill-opacity="1" font-family="Cambria Math,Cambria Math_MSFontService,sans-serif" font-style="normal" font-variant="normal" font-weight="400" font-stretch="normal" font-size="14" text-anchor="start" direction="ltr" writing-mode="lr-tb" unicode-bidi="normal" text-decoration="none" transform="matrix(0.844828 0 0 0.842105 170.844 261)">𝜈</text><text fill="#000000" fill-opacity="1" font-family="Cambria Math,Cambria Math_MSFontService,sans-serif" font-style="normal" font-variant="normal" font-weight="400" font-stretch="normal" font-size="10" text-anchor="start" direction="ltr" writing-mode="lr-tb" unicode-bidi="normal" text-decoration="none" transform="matrix(0.844828 0 0 0.842105 176.631 264)">vh</text><text fill="#000000" fill-opacity="1" font-family="Yu Gothic,Yu Gothic_MSFontService,sans-serif" font-style="normal" font-variant="normal" font-weight="400" font-stretch="normal" font-size="14" text-anchor="start" direction="ltr" writing-mode="lr-tb" unicode-bidi="normal" text-decoration="none" transform="matrix(0.844828 0 0 0.842105 187.47 261)">, </text><text fill="#000000" fill-opacity="1" font-family="Cambria Math,Cambria Math_MSFontService,sans-serif" font-style="normal" font-variant="normal" font-weight="400" font-stretch="normal" font-size="14" text-anchor="start" direction="ltr" writing-mode="lr-tb" unicode-bidi="normal" text-decoration="none" transform="matrix(0.844828 0 0 0.842105 193.912 261)">𝛼</text><path d="M312 311.579 469.884 311.579 469.884 312.421 312 312.421ZM469.042 309.474 474.094 312 469.042 314.526Z" fill="#000000" fill-rule="nonzero" fill-opacity="1" transform="matrix(1.00323 0 0 1 -32.1034 -55.5789)"/><path d="M474.526 296.842 594.947 296.842 594.947 327.158 474.526 327.158Z" stroke="#595959" stroke-width="0.842105" stroke-linecap="butt" stroke-linejoin="miter" stroke-miterlimit="8" stroke-opacity="1" fill="none" fill-rule="nonzero" transform="matrix(1.00323 0 0 1 -32.1034 -55.5789)"/><path d="M0.421046-0.00241352 0.533504 19.6162-0.308588 19.6211-0.421046 0.00241352ZM2.6339 18.762 0.136594 23.8291-2.41864 18.791Z" fill="#000000" fill-rule="nonzero" fill-opacity="1" transform="matrix(-1.00323 0 0 1 504.921 206.737)"/><path d="M495.158 285.474 573.474 285.474 573.474 304 495.158 304Z" fill="#FFFFFF" fill-rule="nonzero" fill-opacity="1" transform="matrix(1.00323 0 0 1 -32.1034 -55.5789)"/><text fill="#000000" fill-opacity="1" font-family="Arial,Arial_MSFontService,sans-serif" font-style="normal" font-variant="normal" font-weight="400" font-stretch="normal" font-size="12" text-anchor="start" direction="ltr" writing-mode="lr-tb" unicode-bidi="normal" text-decoration="none" transform="matrix(0.844828 0 0 0.842105 471.454 243)">Stiffness scale</text><text fill="#000000" fill-opacity="1" font-family="Cambria Math,Cambria Math_MSFontService,sans-serif" font-style="normal" font-variant="normal" font-weight="400" font-stretch="normal" font-size="14" text-anchor="start" direction="ltr" writing-mode="lr-tb" unicode-bidi="normal" text-decoration="none" transform="matrix(0.844828 0 0 0.842105 497.461 261)">𝐸</text><text fill="#000000" fill-opacity="1" font-family="Cambria Math,Cambria Math_MSFontService,sans-serif" font-style="normal" font-variant="normal" font-weight="400" font-stretch="normal" font-size="10" text-anchor="start" direction="ltr" writing-mode="lr-tb" unicode-bidi="normal" text-decoration="none" transform="matrix(0.844828 0 0 0.842105 504.219 264)">v</text><path d="M396.211 255.579C396.211 258.835 390.883 261.474 384.311 261.474L229.662 261.474C223.09 261.474 217.763 264.113 217.763 267.368 217.763 264.113 212.435 261.474 205.863 261.474L52.7417 261.474C46.1698 261.474 40.8421 258.835 40.8421 255.579" stroke="#000000" stroke-width="0.842105" stroke-linecap="butt" stroke-linejoin="miter" stroke-miterlimit="8" stroke-opacity="1" fill="none" fill-rule="evenodd" transform="matrix(1.00323 0 0 1 -32.1034 -55.5789)"/><path d="M218.105 266.524 218.145 272.428 217.303 272.434 217.263 266.529ZM220.245 271.571 217.752 276.641 215.192 271.605Z" fill="#000000" fill-rule="nonzero" fill-opacity="1" transform="matrix(1.00323 0 0 1 -32.1034 -55.5789)"/><text fill="#404040" fill-opacity="1" font-family="Yu Gothic,Yu Gothic_MSFontService,sans-serif" font-style="normal" font-variant="normal" font-weight="400" font-stretch="normal" font-size="14" text-anchor="start" direction="ltr" writing-mode="lr-tb" unicode-bidi="normal" text-decoration="none" transform="matrix(0.844828 0 0 0.842105 166.241 220)">①</text><text fill="#404040" fill-opacity="1" font-family="Yu Gothic,Yu Gothic_MSFontService,sans-serif" font-style="normal" font-variant="normal" font-weight="400" font-stretch="normal" font-size="14" text-anchor="start" direction="ltr" writing-mode="lr-tb" unicode-bidi="normal" text-decoration="none" transform="matrix(0.844828 0 0 0.842105 356.542 250)">②</text><text fill="#404040" fill-opacity="1" font-family="Yu Gothic,Yu Gothic_MSFontService,sans-serif" font-style="normal" font-variant="normal" font-weight="400" font-stretch="normal" font-size="14" text-anchor="start" direction="ltr" writing-mode="lr-tb" unicode-bidi="normal" text-decoration="none" transform="matrix(0.844828 0 0 0.842105 484.439 222)">②</text><path d="M481.263 100.632 481.263 112.987" stroke="#000000" stroke-width="0.842105" stroke-linecap="butt" stroke-linejoin="miter" stroke-miterlimit="8" stroke-opacity="1" fill="none" fill-rule="evenodd" transform="matrix(1.00323 0 0 1 -32.1034 -55.5789)"/><path d="M571.368 154.526 571.368 185.265" stroke="#000000" stroke-width="0.842105" stroke-linecap="butt" stroke-linejoin="miter" stroke-miterlimit="8" stroke-opacity="1" fill="none" fill-rule="evenodd" transform="matrix(1.00323 0 0 1 -32.1034 -55.5789)"/><path d="M339.789 134.316 354.072 134.316" stroke="#000000" stroke-width="0.842105" stroke-linecap="butt" stroke-linejoin="miter" stroke-miterlimit="8" stroke-opacity="1" fill="none" fill-rule="evenodd" transform="matrix(1.00323 0 0 1 -32.1034 -55.5789)"/><path d="M0 0 6.63075e-05 29.1921" stroke="#000000" stroke-width="0.842105" stroke-linecap="butt" stroke-linejoin="miter" stroke-miterlimit="8" stroke-opacity="1" fill="none" fill-rule="evenodd" transform="matrix(1.00323 0 0 -1 55.3362 97.824)"/><text fill="#000000" fill-opacity="1" font-family="Cambria Math,Cambria Math_MSFontService,sans-serif" font-style="normal" font-variant="normal" font-weight="400" font-stretch="normal" font-size="10" text-anchor="start" direction="ltr" writing-mode="lr-tb" unicode-bidi="normal" text-decoration="none" transform="matrix(0.844828 0 0 0.842105 438.836 80)">𝜅</text><text fill="#000000" fill-opacity="1" font-family="Cambria Math,Cambria Math_MSFontService,sans-serif" font-style="normal" font-variant="normal" font-weight="400" font-stretch="normal" font-size="7" text-anchor="start" direction="ltr" writing-mode="lr-tb" unicode-bidi="normal" text-decoration="none" transform="matrix(0.844828 0 0 0.842105 443.768 77)">∗</text><text fill="#000000" fill-opacity="1" font-family="Cambria Math,Cambria Math_MSFontService,sans-serif" font-style="normal" font-variant="normal" font-weight="400" font-stretch="normal" font-size="10" text-anchor="start" direction="ltr" writing-mode="lr-tb" unicode-bidi="normal" text-decoration="none" transform="matrix(0.844828 0 0 0.842105 451.752 80)">𝑝</text><text fill="#000000" fill-opacity="1" font-family="Cambria Math,Cambria Math_MSFontService,sans-serif" font-style="normal" font-variant="normal" font-weight="400" font-stretch="normal" font-size="7" text-anchor="start" direction="ltr" writing-mode="lr-tb" unicode-bidi="normal" text-decoration="none" transform="matrix(0.844828 0 0 0.842105 456.691 77)">′</text><path d="M4.32566-5.88404 0.962173 1.76809 0.324835 1.76809 3.69655-5.88404Z" fill="#000000" fill-rule="nonzero" fill-opacity="1" transform="matrix(1.00323 0 0 1 447.077 79.1579)"/><text fill="#000000" fill-opacity="1" font-family="Cambria Math,Cambria Math_MSFontService,sans-serif" font-style="normal" font-variant="normal" font-weight="400" font-stretch="normal" font-size="10" text-anchor="start" direction="ltr" writing-mode="lr-tb" unicode-bidi="normal" text-decoration="none" transform="matrix(0.844828 0 0 0.842105 461.607 80)">=</text><text fill="#000000" fill-opacity="1" font-family="Cambria Math,Cambria Math_MSFontService,sans-serif" font-style="normal" font-variant="normal" font-weight="400" font-stretch="normal" font-size="10" text-anchor="start" direction="ltr" writing-mode="lr-tb" unicode-bidi="normal" text-decoration="none" transform="matrix(0.844828 0 0 0.842105 470.292 80)">1</text><text fill="#000000" fill-opacity="1" font-family="Cambria Math,Cambria Math_MSFontService,sans-serif" font-style="normal" font-variant="normal" font-weight="400" font-stretch="normal" font-size="10" text-anchor="start" direction="ltr" writing-mode="lr-tb" unicode-bidi="normal" text-decoration="none" transform="matrix(0.844828 0 0 0.842105 479.615 80)">𝐾</text><text fill="#000000" fill-opacity="1" font-family="Cambria Math,Cambria Math_MSFontService,sans-serif" font-style="normal" font-variant="normal" font-weight="400" font-stretch="normal" font-size="7" text-anchor="start" direction="ltr" writing-mode="lr-tb" unicode-bidi="normal" text-decoration="none" transform="matrix(0.844828 0 0 0.842105 485.972 77)">∗</text><path d="M4.32566-5.88404 0.962173 1.76809 0.324835 1.76809 3.69655-5.88404Z" fill="#000000" fill-rule="nonzero" fill-opacity="1" transform="matrix(1.00323 0 0 1 474.938 79.1579)"/></g></g></svg>