<svg width="469" height="290" xmlns="http://www.w3.org/2000/svg" xmlns:xlink="http://www.w3.org/1999/xlink" xml:space="preserve" overflow="hidden"><g><g><path d="M708.089 362.5C708.089 315.709 746.244 277.777 793.314 277.777 840.384 277.777 878.539 315.709 878.539 362.5 878.539 362.51 878.539 362.523 878.539 362.533L793.314 362.5Z" stroke="#AEAEAE" stroke-width="1.53483" stroke-linecap="butt" stroke-linejoin="miter" stroke-miterlimit="8" stroke-opacity="1" fill="none" fill-rule="evenodd" transform="matrix(1.00181 0 0 1 -678.004 -147.344)"/><path d="M708.759 362.835C708.759 301.248 758.836 251.322 820.606 251.322 882.377 251.322 932.454 301.248 932.454 362.835 932.454 362.852 932.454 362.865 932.454 362.882L820.606 362.835Z" stroke="#747474" stroke-width="1.53483" stroke-linecap="butt" stroke-linejoin="miter" stroke-miterlimit="8" stroke-dasharray="6.13933 4.6045" stroke-opacity="1" fill="none" fill-rule="evenodd" transform="matrix(1.00181 0 0 1 -678.004 -147.344)"/><path d="M708.424 362.835C708.424 332.874 732.863 308.585 763.008 308.585 793.153 308.585 817.592 332.874 817.592 362.835 817.592 362.842 817.592 362.848 817.592 362.858L763.008 362.835Z" stroke="#D1D1D1" stroke-width="1.53483" stroke-linecap="butt" stroke-linejoin="miter" stroke-miterlimit="8" stroke-dasharray="6.13933 4.6045" stroke-opacity="1" fill="none" fill-rule="evenodd" transform="matrix(1.00181 0 0 1 -678.004 -147.344)"/><path d="M708.424 362.835C708.424 286.638 770.493 224.867 847.061 224.867 923.63 224.867 985.699 286.638 985.699 362.835 985.699 362.855 985.699 362.872 985.699 362.892L847.061 362.835Z" stroke="#000000" stroke-width="1.53483" stroke-linecap="butt" stroke-linejoin="miter" stroke-miterlimit="8" stroke-opacity="1" fill="none" fill-rule="evenodd" transform="matrix(1.00181 0 0 1 -678.004 -147.344)"/><path d="M0 0 182.136 168.409" stroke="#7F7F7F" stroke-width="1.53483" stroke-linecap="square" stroke-linejoin="miter" stroke-miterlimit="8" stroke-dasharray="4.6045 1.53483" stroke-opacity="1" fill="none" fill-rule="evenodd" transform="matrix(1.00181 0 0 -1 31.0318 215.457)"/><path d="M0.767418-4.92039e-07 0.767532 180.817-0.767301 180.817-0.767418 4.92039e-07ZM3.06978 179.282 0.000120853 188.491-3.06955 179.282Z" fill="#000000" fill-rule="nonzero" fill-opacity="1" transform="matrix(1.00181 0 0 -1 31.0318 221.475)"/><text fill="#000000" fill-opacity="1" font-family="Cambria Math,Cambria Math_MSFontService,sans-serif" font-style="normal" font-variant="normal" font-weight="400" font-stretch="normal" font-size="50" text-anchor="start" direction="ltr" writing-mode="lr-tb" unicode-bidi="normal" text-decoration="none" transform="matrix(0.335479 0 0 0.334873 26.0701 23)">𝑞</text><text fill="#000000" fill-opacity="1" font-family="Cambria Math,Cambria Math_MSFontService,sans-serif" font-style="normal" font-variant="normal" font-weight="400" font-stretch="normal" font-size="50" text-anchor="start" direction="ltr" writing-mode="lr-tb" unicode-bidi="normal" text-decoration="none" transform="matrix(0.335479 0 0 0.334873 355.853 221)">𝑝</text><text fill="#000000" fill-opacity="1" font-family="Cambria Math,Cambria Math_MSFontService,sans-serif" font-style="normal" font-variant="normal" font-weight="400" font-stretch="normal" font-size="37" text-anchor="start" direction="ltr" writing-mode="lr-tb" unicode-bidi="normal" text-decoration="none" transform="matrix(0.335479 0 0 0.334873 365.642 215)">′</text><text fill="#404040" fill-opacity="1" font-family="Arial,Arial_MSFontService,sans-serif" font-style="normal" font-variant="normal" font-weight="400" font-stretch="normal" font-size="41" text-anchor="start" direction="ltr" writing-mode="lr-tb" unicode-bidi="normal" text-decoration="none" transform="matrix(0.335479 0 0 0.334873 210.342 42)">CSL</text><text fill="#000000" fill-opacity="1" font-family="Arial,Arial_MSFontService,sans-serif" font-style="normal" font-variant="normal" font-weight="400" font-stretch="normal" font-size="37" text-anchor="start" direction="ltr" writing-mode="lr-tb" unicode-bidi="normal" text-decoration="none" transform="matrix(0.335479 0 0 0.334873 317.102 206)">(Y</text><text fill="#000000" fill-opacity="1" font-family="Arial,Arial_MSFontService,sans-serif" font-style="normal" font-variant="normal" font-weight="400" font-stretch="normal" font-size="24" text-anchor="start" direction="ltr" writing-mode="lr-tb" unicode-bidi="normal" text-decoration="none" transform="matrix(0.335479 0 0 0.334873 329.404 209)">3</text><text fill="#000000" fill-opacity="1" font-family="Arial,Arial_MSFontService,sans-serif" font-style="normal" font-variant="normal" font-weight="400" font-stretch="normal" font-size="37" text-anchor="start" direction="ltr" writing-mode="lr-tb" unicode-bidi="normal" text-decoration="none" transform="matrix(0.335479 0 0 0.334873 334.017 206)">)</text><path d="M804.532 333.199C804.532 331.442 805.956 330.017 807.714 330.017 809.472 330.017 810.895 331.442 810.895 333.199 810.895 334.957 809.472 336.38 807.714 336.38 805.956 336.38 804.532 334.957 804.532 333.199Z" stroke="#000000" stroke-width="1.53483" stroke-linecap="butt" stroke-linejoin="miter" stroke-miterlimit="8" stroke-opacity="1" fill="#AEAEAE" fill-rule="evenodd" fill-opacity="1" transform="matrix(1.00181 0 0 1 -678.004 -147.344)"/><path d="M807.322 329.492 811.96 324.548 816.815 319.609 819.401 317.141 822.113 314.682 824.99 312.233 828.054 309.795 831.329 307.371 834.845 304.962 838.626 302.572 842.698 300.202 847.088 297.854 851.82 295.529 856.92 293.23 862.415 290.957 868.326 288.713 874.628 286.497 881.299 284.306 888.311 282.138 895.638 279.991 903.253 277.864 911.133 275.755 919.25 273.661 927.578 271.582 936.091 269.514 944.76 267.457 953.561 265.409 971.45 261.333 976.071 260.296 976.406 261.793 971.788 262.83 971.788 262.83 953.902 266.905 953.906 266.905 945.109 268.952 945.112 268.951 936.445 271.007 936.449 271.006 927.943 273.073 927.946 273.071 919.625 275.149 919.632 275.148 911.521 277.24 911.528 277.238 903.655 279.346 903.661 279.344 896.057 281.468 896.063 281.466 888.746 283.609 888.756 283.606 881.757 285.77 881.771 285.766 875.114 287.953 875.13 287.948 868.845 290.158 868.862 290.152 862.971 292.388 862.991 292.38 857.516 294.643 857.539 294.634 852.459 296.923 852.483 296.912 847.774 299.225 847.798 299.213 843.435 301.549 843.458 301.535 839.409 303.892 839.436 303.877 835.679 306.252 835.702 306.237 832.21 308.629 832.233 308.613 828.978 311.021 828.998 311.004 825.958 313.426 825.978 313.41 823.118 315.843 823.135 315.828 820.435 318.272 820.452 318.258 817.884 320.711 817.904 320.694 813.058 325.618 813.072 325.605 808.44 330.542ZM974.069 258.386 989.717 258.02 975.415 264.376Z" fill="#E97132" fill-rule="nonzero" fill-opacity="1" transform="matrix(1.00181 0 0 1 -678.004 -147.344)"/><text fill="#7F7F7F" fill-opacity="1" font-family="Arial,Arial_MSFontService,sans-serif" font-style="normal" font-variant="normal" font-weight="400" font-stretch="normal" font-size="37" text-anchor="start" direction="ltr" writing-mode="lr-tb" unicode-bidi="normal" text-decoration="none" transform="matrix(0.335479 0 0 0.334873 173.205 207)">(Y</text><text fill="#7F7F7F" fill-opacity="1" font-family="Arial,Arial_MSFontService,sans-serif" font-style="normal" font-variant="normal" font-weight="400" font-stretch="normal" font-size="24" text-anchor="start" direction="ltr" writing-mode="lr-tb" unicode-bidi="normal" text-decoration="none" transform="matrix(0.335479 0 0 0.334873 185.507 209)">2</text><text fill="#7F7F7F" fill-opacity="1" font-family="Arial,Arial_MSFontService,sans-serif" font-style="normal" font-variant="normal" font-weight="400" font-stretch="normal" font-size="37" text-anchor="start" direction="ltr" writing-mode="lr-tb" unicode-bidi="normal" text-decoration="none" transform="matrix(0.335479 0 0 0.334873 190.119 207)">)</text><path d="M677.615 362.068 1014.21 362.068 1014.21 363.602 677.615 363.602ZM1012.67 359.764 1021.88 362.835 1012.67 365.906Z" fill="#000000" fill-rule="nonzero" fill-opacity="1" transform="matrix(1.00181 0 0 1 -678.004 -147.344)"/><path d="M875.86 343.747 890.039 343.747" stroke="#000000" stroke-width="1.53483" stroke-linecap="butt" stroke-linejoin="miter" stroke-miterlimit="8" stroke-opacity="1" fill="none" fill-rule="evenodd" transform="matrix(1.00181 0 0 1 -678.004 -147.344)"/><path d="M889.925 344.082 913.604 386.373" stroke="#000000" stroke-width="1.53483" stroke-linecap="butt" stroke-linejoin="miter" stroke-miterlimit="8" stroke-opacity="1" fill="none" fill-rule="evenodd" transform="matrix(1.00181 0 0 1 -678.004 -147.344)"/><path d="M942.835 268.066C942.835 266.216 944.258 264.717 946.016 264.717 947.774 264.717 949.198 266.216 949.198 268.066 949.198 269.915 947.774 271.415 946.016 271.415 944.258 271.415 942.835 269.915 942.835 268.066Z" stroke="#000000" stroke-width="1.53483" stroke-linecap="butt" stroke-linejoin="miter" stroke-miterlimit="8" stroke-opacity="1" fill="#AEAEAE" fill-rule="evenodd" fill-opacity="1" transform="matrix(1.00181 0 0 1 -678.004 -147.344)"/><path d="M799.342 377.067 1143.59 377.067 1143.59 435 799.342 435Z" fill="#FFFFFF" fill-rule="nonzero" fill-opacity="1" transform="matrix(1.00181 0 0 1 -678.004 -147.344)"/><text fill="#000000" fill-opacity="1" font-family="Arial,Arial_MSFontService,sans-serif" font-style="normal" font-variant="normal" font-weight="400" font-stretch="normal" font-size="41" text-anchor="start" direction="ltr" writing-mode="lr-tb" unicode-bidi="normal" text-decoration="none" transform="matrix(0.335479 0 0 0.334873 133.789 249)">Subloading surface:</text><text fill="#000000" fill-opacity="1" font-family="Arial,Arial_MSFontService,sans-serif" font-style="normal" font-variant="normal" font-weight="400" font-stretch="normal" font-size="37" text-anchor="start" direction="ltr" writing-mode="lr-tb" unicode-bidi="normal" text-decoration="none" transform="matrix(0.335479 0 0 0.334873 140.71 264)">continuously </text><text fill="#000000" fill-opacity="1" font-family="Arial,Arial_MSFontService,sans-serif" font-style="normal" font-variant="normal" font-weight="400" font-stretch="normal" font-size="37" text-anchor="start" direction="ltr" writing-mode="lr-tb" unicode-bidi="normal" text-decoration="none" transform="matrix(0.335479 0 0 0.334873 212.976 264)">approaching the normal yield </text><text fill="#000000" fill-opacity="1" font-family="Arial,Arial_MSFontService,sans-serif" font-style="normal" font-variant="normal" font-weight="400" font-stretch="normal" font-size="37" text-anchor="start" direction="ltr" writing-mode="lr-tb" unicode-bidi="normal" text-decoration="none" transform="matrix(0.335479 0 0 0.334873 375.388 264)">surface</text><text fill="#000000" fill-opacity="1" font-family="Arial,Arial_MSFontService,sans-serif" font-style="normal" font-variant="normal" font-weight="400" font-stretch="normal" font-size="37" text-anchor="start" direction="ltr" writing-mode="lr-tb" unicode-bidi="normal" text-decoration="none" transform="matrix(0.335479 0 0 0.334873 144.169 279)">during plastic loading</text><text fill="#000000" fill-opacity="1" font-family="Arial,Arial_MSFontService,sans-serif" font-style="normal" font-variant="normal" font-weight="400" font-stretch="normal" font-size="41" text-anchor="start" direction="ltr" writing-mode="lr-tb" unicode-bidi="normal" text-decoration="none" transform="matrix(0.335479 0 0 0.334873 234.574 83)">(Normal) Yield surface</text></g></g></svg>