<svg width="348" height="258" xmlns="http://www.w3.org/2000/svg" xmlns:xlink="http://www.w3.org/1999/xlink" xml:space="preserve" overflow="hidden"><g><g><g><g><g><path d="M0 0 54.9597 9.85292e-05" stroke="#7F7F7F" stroke-width="1.25132" stroke-linecap="butt" stroke-linejoin="miter" stroke-miterlimit="8" stroke-dasharray="5.00528 3.75397" stroke-opacity="1" fill="none" fill-rule="evenodd" transform="matrix(-1.00157 0 0 1 295.814 172.41)"/><path d="M65.9333 66.6727 349.122 66.6729 349.122 67.9242 65.9333 67.9242ZM347.869 64.796 360.384 67.2984 347.869 69.8012Z" fill="#000000" fill-rule="nonzero" fill-opacity="1" transform="matrix(1.00157 0 0 1 -65.0796 -21.0222)"/><text fill="#000000" fill-opacity="1" font-family="Cambria Math,Cambria Math_MSFontService,sans-serif" font-style="normal" font-variant="normal" font-weight="400" font-stretch="normal" font-size="48" text-anchor="start" direction="ltr" writing-mode="lr-tb" unicode-bidi="normal" text-decoration="none" transform="matrix(0.273444 0 0 0.273016 308.286 49)">ln</text><text fill="#000000" fill-opacity="1" font-family="Cambria Math,Cambria Math_MSFontService,sans-serif" font-style="normal" font-variant="normal" font-weight="400" font-stretch="normal" font-size="48" text-anchor="start" direction="ltr" writing-mode="lr-tb" unicode-bidi="normal" text-decoration="none" transform="matrix(0.273444 0 0 0.273016 319.254 49)">𝜎</text><text fill="#000000" fill-opacity="1" font-family="Cambria Math,Cambria Math_MSFontService,sans-serif" font-style="normal" font-variant="normal" font-weight="400" font-stretch="normal" font-size="35" text-anchor="start" direction="ltr" writing-mode="lr-tb" unicode-bidi="normal" text-decoration="none" transform="matrix(0.273444 0 0 0.273016 326.027 51)">𝑧</text><text fill="#000000" fill-opacity="1" font-family="Cambria Math,Cambria Math_MSFontService,sans-serif" font-style="normal" font-variant="normal" font-weight="400" font-stretch="normal" font-size="35" text-anchor="start" direction="ltr" writing-mode="lr-tb" unicode-bidi="normal" text-decoration="none" transform="matrix(0.273444 0 0 0.273016 327.7 44)">′</text><path d="M95.4988 32.6254 95.4988 246.252 94.2475 246.252 94.2473 32.6254ZM97.3758 245.001 94.873 257.514 92.3706 245.001Z" fill="#000000" fill-rule="nonzero" fill-opacity="1" transform="matrix(1.00157 0 0 1 -65.0796 -21.0222)"/><text fill="#000000" fill-opacity="1" font-family="Cambria Math,Cambria Math_MSFontService,sans-serif" font-style="normal" font-variant="normal" font-weight="400" font-stretch="normal" font-size="48" text-anchor="start" direction="ltr" writing-mode="lr-tb" unicode-bidi="normal" text-decoration="none" transform="matrix(0.273444 0 0 0.273016 20.3934 250)">𝜀</text><text fill="#000000" fill-opacity="1" font-family="Cambria Math,Cambria Math_MSFontService,sans-serif" font-style="normal" font-variant="normal" font-weight="400" font-stretch="normal" font-size="35" text-anchor="start" direction="ltr" writing-mode="lr-tb" unicode-bidi="normal" text-decoration="none" transform="matrix(0.273444 0 0 0.273016 26.1147 252)">𝑛𝑣</text><path d="M258.41 102.517 338.856 251.778" stroke="#7F7F7F" stroke-width="1.25132" stroke-linecap="butt" stroke-linejoin="miter" stroke-miterlimit="8" stroke-opacity="1" fill="none" fill-rule="evenodd" transform="matrix(1.00157 0 0 1 -65.0796 -21.0222)"/><path d="M161.762 178.143C196.635 179.674 231.507 181.204 254.896 183.843 278.285 186.483 290.189 190.23 302.092 193.978" stroke="#E97132" stroke-width="1.87698" stroke-linecap="butt" stroke-linejoin="miter" stroke-miterlimit="8" stroke-opacity="1" fill="none" fill-rule="evenodd" transform="matrix(1.00157 0 0 1 -65.0796 -21.0222)"/><path d="M305.095 193.978C270.155 192.447 235.214 190.916 211.78 188.277 188.346 185.638 176.419 181.891 164.492 178.143" stroke="#E97132" stroke-width="1.87698" stroke-linecap="butt" stroke-linejoin="miter" stroke-miterlimit="8" stroke-opacity="1" fill="none" fill-rule="evenodd" transform="matrix(1.00157 0 0 1 -65.0796 -21.0222)"/><path d="M132.276 91.3238 251.883 99.3606" stroke="#7F7F7F" stroke-width="1.25132" stroke-linecap="butt" stroke-linejoin="miter" stroke-miterlimit="8" stroke-dasharray="5.00528 3.75397" stroke-opacity="1" fill="none" fill-rule="evenodd" transform="matrix(1.00157 0 0 1 -65.0796 -21.0222)"/><path d="M301.724 202.434 187.034 194.85 187.117 193.601 301.808 201.186ZM188.159 196.805 183.33 193.978 188.49 191.811Z" fill="#000000" fill-rule="nonzero" fill-opacity="1" transform="matrix(1.00157 0 0 1 -65.0796 -21.0222)"/><text fill="#000000" fill-opacity="1" font-family="Arial,Arial_MSFontService,sans-serif" font-style="normal" font-variant="normal" font-weight="400" font-stretch="normal" font-size="41" text-anchor="start" direction="ltr" writing-mode="lr-tb" unicode-bidi="normal" text-decoration="none" transform="matrix(0.273444 0 0 0.273016 79.9574 101)">1. Loading</text><path d="M132.847 99.1621 145.275 99.6508 157.623 100.266 169.8 101.134 175.802 101.703 181.727 102.382 187.567 103.189 193.311 104.137 198.947 105.245 204.466 106.528 209.856 108.001 215.106 109.681 220.205 111.584 225.142 113.726 229.908 116.117 234.507 118.746 238.951 121.596 243.25 124.651 247.415 127.895 251.457 131.311 255.388 134.884 259.217 138.598 262.958 142.437 266.622 146.386 273.753 154.542 280.704 162.947 283.642 166.597 282.667 167.381 279.732 163.735 279.738 163.741 272.794 155.346 272.805 155.359 265.686 147.217 265.698 147.231 262.046 143.293 262.056 143.304 258.327 139.478 258.34 139.49 254.524 135.79 254.538 135.803 250.624 132.245 250.641 132.26 246.616 128.859 246.636 128.874 242.491 125.647 242.513 125.663 238.238 122.625 238.263 122.641 233.845 119.808 233.872 119.825 229.301 117.212 229.331 117.228 224.597 114.852 224.628 114.867 219.722 112.738 219.752 112.751 214.682 110.858 214.71 110.868 209.487 109.197 209.513 109.204 204.147 107.738 204.171 107.744 198.674 106.466 198.695 106.471 193.078 105.367 193.097 105.37 187.371 104.424 187.387 104.427 181.563 103.623 181.577 103.625 175.665 102.947 175.678 102.948 169.689 102.38 169.704 102.382 157.541 101.515 157.554 101.515 145.216 100.901 145.223 100.901 132.798 100.413ZM284.319 164.445 287.076 171.863 280.42 167.583Z" fill="#000000" fill-rule="nonzero" fill-opacity="1" transform="matrix(1.00157 0 0 1 -65.0796 -21.0222)"/><text fill="#000000" fill-opacity="1" font-family="Arial,Arial_MSFontService,sans-serif" font-style="normal" font-variant="normal" font-weight="400" font-stretch="normal" font-size="41" text-anchor="start" direction="ltr" writing-mode="lr-tb" unicode-bidi="normal" text-decoration="none" transform="matrix(0.273444 0 0 0.273016 126.122 191)">2. Unloading</text><text fill="#000000" fill-opacity="1" font-family="Arial,Arial_MSFontService,sans-serif" font-style="normal" font-variant="normal" font-weight="400" font-stretch="normal" font-size="41" text-anchor="start" direction="ltr" writing-mode="lr-tb" unicode-bidi="normal" text-decoration="none" transform="matrix(0.273444 0 0 0.273016 126.122 142)">3. Reloading</text><path d="M253.222 99.5143C253.222 97.554 254.811 95.9651 256.771 95.9651 258.732 95.9651 260.321 97.554 260.321 99.5143 260.321 101.475 258.732 103.063 256.771 103.063 254.811 103.063 253.222 101.475 253.222 99.5143Z" stroke="#042433" stroke-width="1.25132" stroke-linecap="butt" stroke-linejoin="miter" stroke-miterlimit="8" stroke-opacity="1" fill="#AEAEAE" fill-rule="evenodd" fill-opacity="1" transform="matrix(1.00157 0 0 1 -65.0796 -21.0222)"/><path d="M303.73 193.432C303.73 191.471 305.319 189.883 307.279 189.883 309.24 189.883 310.829 191.471 310.829 193.432 310.829 195.392 309.24 196.981 307.279 196.981 305.319 196.981 303.73 195.392 303.73 193.432Z" stroke="#042433" stroke-width="1.25132" stroke-linecap="butt" stroke-linejoin="miter" stroke-miterlimit="8" stroke-opacity="1" fill="#AEAEAE" fill-rule="evenodd" fill-opacity="1" transform="matrix(1.00157 0 0 1 -65.0796 -21.0222)"/><path d="M0 0 9.85292e-05 29.0552" stroke="#7F7F7F" stroke-width="1.25132" stroke-linecap="butt" stroke-linejoin="miter" stroke-miterlimit="8" stroke-dasharray="5.00528 3.75397" stroke-opacity="1" fill="none" fill-rule="evenodd" transform="matrix(1.00157 0 0 -1 192.641 75.3314)"/><path d="M307.348 189.735 307.279 67.2984" stroke="#7F7F7F" stroke-width="1.25132" stroke-linecap="butt" stroke-linejoin="miter" stroke-miterlimit="8" stroke-dasharray="5.00528 3.75397" stroke-opacity="1" fill="none" fill-rule="evenodd" transform="matrix(1.00157 0 0 1 -65.0796 -21.0222)"/><path d="M0 0 98.8648 9.85292e-05" stroke="#7F7F7F" stroke-width="1.25132" stroke-linecap="butt" stroke-linejoin="miter" stroke-miterlimit="8" stroke-dasharray="5.00528 3.75397" stroke-opacity="1" fill="none" fill-rule="evenodd" transform="matrix(-1.00157 0 0 1 294.668 78.7651)"/><text fill="#000000" fill-opacity="1" font-family="Arial,Arial_MSFontService,sans-serif" font-style="normal" font-variant="normal" font-weight="400" font-stretch="normal" font-size="41" text-anchor="start" direction="ltr" writing-mode="lr-tb" unicode-bidi="normal" text-decoration="none" transform="matrix(0.273444 0 0 0.273016 254.136 115)">Irrecoverable</text><text fill="#000000" fill-opacity="1" font-family="Arial,Arial_MSFontService,sans-serif" font-style="normal" font-variant="normal" font-weight="400" font-stretch="normal" font-size="41" text-anchor="start" direction="ltr" writing-mode="lr-tb" unicode-bidi="normal" text-decoration="none" transform="matrix(0.273444 0 0 0.273016 254.136 129)">volumetric strain</text><path d="M265.781 58.2092 291.232 58.2094 291.232 59.4607 265.781 59.4607ZM289.981 56.3325 297.489 58.8349 289.981 61.3377Z" fill="#7F7F7F" fill-rule="nonzero" fill-opacity="1" transform="matrix(1.00157 0 0 1 -65.0796 -21.0222)"/><text fill="#000000" fill-opacity="1" font-family="Arial,Arial_MSFontService,sans-serif" font-style="normal" font-variant="normal" font-weight="400" font-stretch="normal" font-size="41" text-anchor="start" direction="ltr" writing-mode="lr-tb" unicode-bidi="normal" text-decoration="none" transform="matrix(0.273444 0 0 0.273016 198.66 16)">Evolution of</text><text fill="#000000" fill-opacity="1" font-family="Arial,Arial_MSFontService,sans-serif" font-style="normal" font-variant="normal" font-weight="400" font-stretch="normal" font-size="41" text-anchor="start" direction="ltr" writing-mode="lr-tb" unicode-bidi="normal" text-decoration="none" transform="matrix(0.273444 0 0 0.273016 198.66 30)">yield stress </text><text fill="#000000" fill-opacity="1" font-family="Cambria Math,Cambria Math_MSFontService,sans-serif" font-style="normal" font-variant="normal" font-weight="400" font-stretch="normal" font-size="41" text-anchor="start" direction="ltr" writing-mode="lr-tb" unicode-bidi="normal" text-decoration="none" transform="matrix(0.273444 0 0 0.273016 258.191 30)">𝜎</text><text fill="#000000" fill-opacity="1" font-family="Cambria Math,Cambria Math_MSFontService,sans-serif" font-style="normal" font-variant="normal" font-weight="400" font-stretch="normal" font-size="30" text-anchor="start" direction="ltr" writing-mode="lr-tb" unicode-bidi="normal" text-decoration="none" transform="matrix(0.273444 0 0 0.273016 263.999 32)">yld</text><text fill="#000000" fill-opacity="1" font-family="Cambria Math,Cambria Math_MSFontService,sans-serif" font-style="normal" font-variant="normal" font-weight="400" font-stretch="normal" font-size="30" text-anchor="start" direction="ltr" writing-mode="lr-tb" unicode-bidi="normal" text-decoration="none" transform="matrix(0.273444 0 0 0.273016 265.434 25)">′</text><path d="M314.184 104.975 314.184 171.859 312.934 171.859 312.934 104.975ZM316.062 170.607 313.559 178.115 311.055 170.607Z" fill="#7F7F7F" fill-rule="nonzero" fill-opacity="1" transform="matrix(1.00157 0 0 1 -65.0796 -21.0222)"/><path d="M119.171 91.5968C153.399 93.0302 178.472 94.9454 215.884 97.4164 244.775 100.714 250.204 102.939 261.193 114.756 267.837 123.4 298.663 176.278 305.095 190.702" stroke="#E97132" stroke-width="1.87698" stroke-linecap="butt" stroke-linejoin="miter" stroke-miterlimit="8" stroke-opacity="1" fill="none" fill-rule="evenodd" transform="matrix(1.00157 0 0 1 -65.0796 -21.0222)"/><path d="M166.72 166.325 272.378 173.683 272.292 174.931 166.633 167.573ZM271.261 171.724 276.079 174.568 270.913 176.717Z" fill="#000000" fill-rule="nonzero" fill-opacity="1" transform="matrix(1.00157 0 0 1 -65.0796 -21.0222)"/><text fill="#404040" fill-opacity="1" font-family="Arial,Arial_MSFontService,sans-serif" font-style="normal" font-variant="normal" font-weight="400" font-stretch="normal" font-size="41" text-anchor="start" direction="ltr" writing-mode="lr-tb" unicode-bidi="normal" text-decoration="none" transform="matrix(0.273444 0 0 0.273016 96.4698 226)">1</text><text fill="#404040" fill-opacity="1" font-family="Arial,Arial_MSFontService,sans-serif" font-style="normal" font-variant="normal" font-weight="400" font-stretch="normal" font-size="41" text-anchor="start" direction="ltr" writing-mode="lr-tb" unicode-bidi="normal" text-decoration="none" transform="matrix(0.273444 0 0 0.273016 102.736 226)">-</text><text fill="#404040" fill-opacity="1" font-family="Arial,Arial_MSFontService,sans-serif" font-style="normal" font-variant="normal" font-weight="400" font-stretch="normal" font-size="41" text-anchor="start" direction="ltr" writing-mode="lr-tb" unicode-bidi="normal" text-decoration="none" transform="matrix(0.273444 0 0 0.273016 106.496 226)">D </text><text fill="#404040" fill-opacity="1" font-family="Arial,Arial_MSFontService,sans-serif" font-style="normal" font-variant="normal" font-weight="400" font-stretch="normal" font-size="41" text-anchor="start" direction="ltr" writing-mode="lr-tb" unicode-bidi="normal" text-decoration="none" transform="matrix(0.273444 0 0 0.273016 117.776 226)">c</text><text fill="#404040" fill-opacity="1" font-family="Arial,Arial_MSFontService,sans-serif" font-style="normal" font-variant="normal" font-weight="400" font-stretch="normal" font-size="41" text-anchor="start" direction="ltr" writing-mode="lr-tb" unicode-bidi="normal" text-decoration="none" transform="matrix(0.273444 0 0 0.273016 123.416 226)">ompression </text><text fill="#404040" fill-opacity="1" font-family="Arial,Arial_MSFontService,sans-serif" font-style="normal" font-variant="normal" font-weight="400" font-stretch="normal" font-size="41" text-anchor="start" direction="ltr" writing-mode="lr-tb" unicode-bidi="normal" text-decoration="none" transform="matrix(0.273444 0 0 0.273016 184.826 226)">Line</text><text fill="#404040" fill-opacity="1" font-family="Arial,Arial_MSFontService,sans-serif" font-style="normal" font-variant="normal" font-weight="400" font-stretch="normal" font-size="41" text-anchor="start" direction="ltr" writing-mode="lr-tb" unicode-bidi="normal" text-decoration="none" transform="matrix(0.273444 0 0 0.273016 96.4698 240)">Slope</text><text fill="#404040" fill-opacity="1" font-family="Arial,Arial_MSFontService,sans-serif" font-style="normal" font-variant="normal" font-weight="400" font-stretch="normal" font-size="41" text-anchor="start" direction="ltr" writing-mode="lr-tb" unicode-bidi="normal" text-decoration="none" transform="matrix(0.273444 0 0 0.273016 125.295 240)">: </text><text fill="#404040" fill-opacity="1" font-family="Cambria Math,Cambria Math_MSFontService,sans-serif" font-style="normal" font-variant="normal" font-weight="400" font-stretch="normal" font-size="41" text-anchor="start" direction="ltr" writing-mode="lr-tb" unicode-bidi="normal" text-decoration="none" transform="matrix(0.273444 0 0 0.273016 131.562 240)">𝜆</text><text fill="#404040" fill-opacity="1" font-family="Cambria Math,Cambria Math_MSFontService,sans-serif" font-style="normal" font-variant="normal" font-weight="400" font-stretch="normal" font-size="30" text-anchor="start" direction="ltr" writing-mode="lr-tb" unicode-bidi="normal" text-decoration="none" transform="matrix(0.273444 0 0 0.273016 137.195 236)">∗</text><path d="M0 0 40.6652 9.85292e-05" stroke="#7F7F7F" stroke-width="1.25132" stroke-linecap="butt" stroke-linejoin="miter" stroke-miterlimit="8" stroke-opacity="1" fill="none" fill-rule="evenodd" transform="matrix(-1.00157 0 0 1 269.465 220.46)"/><path d="M0 0 193.715 9.85292e-05" stroke="#7F7F7F" stroke-width="1.25132" stroke-linecap="butt" stroke-linejoin="miter" stroke-miterlimit="8" stroke-dasharray="5.00528 3.75397" stroke-opacity="1" fill="none" fill-rule="evenodd" transform="matrix(-1.00157 0 0 1 295.877 156.848)"/></g></g></g></g></g></svg>