<svg width="376" height="172" xmlns="http://www.w3.org/2000/svg" xmlns:xlink="http://www.w3.org/1999/xlink" xml:space="preserve" overflow="hidden"><g><g><g><g><g><path d="M0 0 250.257 111.916" stroke="#000000" stroke-width="1.0492" stroke-linecap="butt" stroke-linejoin="miter" stroke-miterlimit="8" stroke-opacity="1" fill="none" fill-rule="evenodd" transform="matrix(-1.00132 0 0 1 270.186 29.8735)"/><path d="M61.7816 228.513C59.6985 208.653 97.9805 188.361 147.287 183.189 196.594 178.016 238.253 189.923 240.336 209.783 242.419 229.644 204.138 249.935 154.831 255.108 105.525 260.279 63.865 248.373 61.7816 228.513Z" stroke="#404040" stroke-width="1.0492" stroke-linecap="butt" stroke-linejoin="miter" stroke-miterlimit="8" stroke-dasharray="4.19678 3.14759" stroke-opacity="1" fill="none" fill-rule="evenodd" transform="matrix(1.00132 0 0 1 -44.0098 -94.3133)"/><path d="M62.0577 232.301C53.4951 209.733 91.9774 174.203 148.011 152.944 204.044 131.685 256.408 132.748 264.972 155.317 273.536 177.886 235.053 213.416 179.019 234.675 122.986 255.935 70.6205 254.872 62.0577 232.301Z" stroke="#000000" stroke-width="1.0492" stroke-linecap="butt" stroke-linejoin="miter" stroke-miterlimit="8" stroke-opacity="1" fill="none" fill-rule="evenodd" transform="matrix(1.00132 0 0 1 -44.0098 -94.3133)"/><path d="M0.524599-3.36353e-07 0.524677 123.605-0.524519 123.605-0.524599 3.36353e-07ZM2.09847 122.555 8.26138e-05 128.85-2.09831 122.555Z" fill="#000000" fill-rule="nonzero" fill-opacity="1" transform="matrix(1.00132 0 0 -1 19.8273 154.832)"/><path d="M44.9819 234.916 325.257 234.916 325.257 235.964 44.9819 235.964ZM324.206 233.341 330.502 235.44 324.206 237.539Z" fill="#000000" fill-rule="nonzero" fill-opacity="1" transform="matrix(1.00132 0 0 1 -44.0098 -94.3133)"/><text fill="#000000" fill-opacity="1" font-family="Cambria Math,Cambria Math_MSFontService,sans-serif" font-style="normal" font-variant="normal" font-weight="400" font-stretch="normal" font-size="50" text-anchor="start" direction="ltr" writing-mode="lr-tb" unicode-bidi="normal" text-decoration="none" transform="matrix(0.229218 0 0 0.228916 16.3263 19)">𝑞</text><text fill="#000000" fill-opacity="1" font-family="Cambria Math,Cambria Math_MSFontService,sans-serif" font-style="normal" font-variant="normal" font-weight="400" font-stretch="normal" font-size="50" text-anchor="start" direction="ltr" writing-mode="lr-tb" unicode-bidi="normal" text-decoration="none" transform="matrix(0.229218 0 0 0.228916 293.447 145)">𝑝</text><text fill="#000000" fill-opacity="1" font-family="Cambria Math,Cambria Math_MSFontService,sans-serif" font-style="normal" font-variant="normal" font-weight="400" font-stretch="normal" font-size="37" text-anchor="start" direction="ltr" writing-mode="lr-tb" unicode-bidi="normal" text-decoration="none" transform="matrix(0.229218 0 0 0.228916 300.133 141)">′</text><path d="M64.2108 234.867C64.2108 218.495 99.9283 205.223 143.988 205.223 188.048 205.223 223.765 218.495 223.765 234.867 223.765 251.24 188.048 264.512 143.988 264.512 99.9283 264.512 64.2108 251.24 64.2108 234.867Z" stroke="#D1D1D1" stroke-width="1.0492" stroke-linecap="square" stroke-linejoin="miter" stroke-miterlimit="8" stroke-dasharray="3.14759 1.0492" stroke-opacity="1" fill="none" fill-rule="evenodd" transform="matrix(1.00132 0 0 1 -44.0098 -94.3133)"/><path d="M272.066 187.825 272.201 187.825" stroke="#000000" stroke-width="1.0492" stroke-linecap="butt" stroke-linejoin="miter" stroke-miterlimit="8" stroke-dasharray="1.0492 1.0492" stroke-opacity="1" fill="none" fill-rule="evenodd" transform="matrix(1.00132 0 0 1 -44.0098 -94.3133)"/><text fill="#000000" fill-opacity="1" font-family="Arial,Arial_MSFontService,sans-serif" font-style="normal" font-variant="normal" font-weight="400" font-stretch="normal" font-size="46" text-anchor="start" direction="ltr" writing-mode="lr-tb" unicode-bidi="normal" text-decoration="none" transform="matrix(0.229218 0 0 0.228916 238.469 15)">Induced</text><text fill="#000000" fill-opacity="1" font-family="Arial,Arial_MSFontService,sans-serif" font-style="normal" font-variant="normal" font-weight="400" font-stretch="normal" font-size="46" text-anchor="start" direction="ltr" writing-mode="lr-tb" unicode-bidi="normal" text-decoration="none" transform="matrix(0.229218 0 0 0.228916 275.501 15)">-</text><text fill="#000000" fill-opacity="1" font-family="Arial,Arial_MSFontService,sans-serif" font-style="normal" font-variant="normal" font-weight="400" font-stretch="normal" font-size="46" text-anchor="start" direction="ltr" writing-mode="lr-tb" unicode-bidi="normal" text-decoration="none" transform="matrix(0.229218 0 0 0.228916 279.047 15)">anisotropy axis:</text><text fill="#000000" fill-opacity="1" font-family="Arial,Arial_MSFontService,sans-serif" font-style="normal" font-variant="normal" font-weight="400" font-stretch="normal" font-size="41" text-anchor="start" direction="ltr" writing-mode="lr-tb" unicode-bidi="normal" text-decoration="none" transform="matrix(0.229218 0 0 0.228916 238.469 26)">Slope</text><text fill="#000000" fill-opacity="1" font-family="Arial,Arial_MSFontService,sans-serif" font-style="italic" font-variant="normal" font-weight="400" font-stretch="normal" font-size="41" text-anchor="start" direction="ltr" writing-mode="lr-tb" unicode-bidi="normal" text-decoration="none" transform="matrix(0.229218 0 0 0.228916 265.257 26)">β </text><path d="M0 0 279.238 42.3235" stroke="#404040" stroke-width="1.0492" stroke-linecap="butt" stroke-linejoin="miter" stroke-miterlimit="8" stroke-dasharray="4.19678 3.14759" stroke-opacity="1" fill="none" fill-rule="evenodd" transform="matrix(-1.00132 0 0 1 300.58 98.3193)"/><path d="M96.8178 234.227 101.755 228.723 106.817 223.198 109.434 220.421 112.127 217.634 114.912 214.834 117.803 212.019 120.815 209.187 123.964 206.338 127.264 203.468 130.73 200.576 134.378 197.661 138.221 194.72 142.276 191.751 146.556 188.753 151.072 185.724 155.812 182.667 160.762 179.583 165.906 176.474 171.23 173.342 176.719 170.188 182.358 167.015 188.131 163.825 194.024 160.619 200.022 157.4 206.109 154.169 212.272 150.928 224.759 144.427 228.98 142.245 229.701 143.644 225.486 145.823 213.001 152.323 213.003 152.322 206.843 155.561 206.846 155.56 200.761 158.789 200.765 158.788 194.77 162.005 194.774 162.003 188.885 165.206 188.89 165.204 183.121 168.391 183.127 168.389 177.494 171.558 177.5 171.555 172.018 174.704 172.025 174.7 166.708 177.828 166.716 177.823 161.581 180.927 161.59 180.921 156.65 183.999 156.66 183.993 151.931 187.043 151.943 187.035 147.44 190.055 147.453 190.046 143.186 193.035 143.199 193.026 139.158 195.985 139.171 195.974 135.341 198.906 135.354 198.895 131.719 201.801 131.732 201.79 128.278 204.671 128.291 204.661 125.002 207.521 125.014 207.51 121.877 210.349 121.888 210.339 118.886 213.161 118.896 213.151 116.014 215.957 116.023 215.948 113.247 218.74 113.255 218.731 110.569 221.511 110.576 221.504 107.966 224.274 107.973 224.266 102.918 229.783 102.924 229.776 97.9894 235.28ZM227.445 141.562 237.729 138.608 229.371 145.29Z" fill="#E97132" fill-rule="nonzero" fill-opacity="1" transform="matrix(1.00132 0 0 1 -44.0098 -94.3133)"/><text fill="#E97132" fill-opacity="1" font-family="Arial,Arial_MSFontService,sans-serif" font-style="normal" font-variant="normal" font-weight="400" font-stretch="normal" font-size="41" text-anchor="start" direction="ltr" writing-mode="lr-tb" unicode-bidi="normal" text-decoration="none" transform="matrix(0.229218 0 0 0.228916 116.566 35)">Effective stress path</text><path d="M0.524599-5.64772e-07 0.524675 71.4915-0.524521 71.4915-0.524599 5.64772e-07ZM2.09847 70.4422 8.26138e-05 76.7373-2.09832 70.4422Z" fill="#000000" fill-rule="nonzero" fill-opacity="1" transform="matrix(1.00132 0 0 -1 245.836 129.502)"/><text fill="#000000" fill-opacity="1" font-family="Arial,Arial_MSFontService,sans-serif" font-style="normal" font-variant="normal" font-weight="400" font-stretch="normal" font-size="41" text-anchor="start" direction="ltr" writing-mode="lr-tb" unicode-bidi="normal" text-decoration="none" transform="matrix(0.229218 0 0 0.228916 259.901 63)">Evolution of fabric </text><text fill="#000000" fill-opacity="1" font-family="Arial,Arial_MSFontService,sans-serif" font-style="normal" font-variant="normal" font-weight="400" font-stretch="normal" font-size="41" text-anchor="start" direction="ltr" writing-mode="lr-tb" unicode-bidi="normal" text-decoration="none" transform="matrix(0.229218 0 0 0.228916 259.901 75)">orientation due to</text><text fill="#000000" fill-opacity="1" font-family="Arial,Arial_MSFontService,sans-serif" font-style="normal" font-variant="normal" font-weight="400" font-stretch="normal" font-size="41" text-anchor="start" direction="ltr" writing-mode="lr-tb" unicode-bidi="normal" text-decoration="none" transform="matrix(0.229218 0 0 0.228916 259.901 86)">plastic deviatoric strain</text></g></g></g></g></g></svg>