<svg width="408" height="210" xmlns="http://www.w3.org/2000/svg" xmlns:xlink="http://www.w3.org/1999/xlink" xml:space="preserve" overflow="hidden"><g><g><g><g><g><g><g><path d="M472.216 96.1408 791.322 96.141 791.322 97.1005 472.216 97.1005ZM790.361 94.7016 799.958 96.6208 790.361 98.5398Z" fill="#000000" fill-rule="nonzero" fill-opacity="1" transform="matrix(1 0 0 1.00305 -468.134 -73.92)"/><text fill="#000000" fill-opacity="1" font-family="Cambria Math,Cambria Math_MSFontService,sans-serif" font-style="normal" font-variant="normal" font-weight="400" font-stretch="normal" font-size="73" text-anchor="start" direction="ltr" writing-mode="lr-tb" unicode-bidi="normal" text-decoration="none" transform="matrix(0.209362 0 0 0.21 351.008 32)">ln</text><text fill="#000000" fill-opacity="1" font-family="Cambria Math,Cambria Math_MSFontService,sans-serif" font-style="normal" font-variant="normal" font-weight="400" font-stretch="normal" font-size="73" text-anchor="start" direction="ltr" writing-mode="lr-tb" unicode-bidi="normal" text-decoration="none" transform="matrix(0.209362 0 0 0.21 363.723 32)">𝜎</text><text fill="#000000" fill-opacity="1" font-family="Cambria Math,Cambria Math_MSFontService,sans-serif" font-style="normal" font-variant="normal" font-weight="400" font-stretch="normal" font-size="54" text-anchor="start" direction="ltr" writing-mode="lr-tb" unicode-bidi="normal" text-decoration="none" transform="matrix(0.209362 0 0 0.21 371.668 35)">𝑧</text><text fill="#000000" fill-opacity="1" font-family="Cambria Math,Cambria Math_MSFontService,sans-serif" font-style="normal" font-variant="normal" font-weight="400" font-stretch="normal" font-size="54" text-anchor="start" direction="ltr" writing-mode="lr-tb" unicode-bidi="normal" text-decoration="none" transform="matrix(0.209362 0 0 0.21 373.617 26)">′</text><path d="M494.679 74.6376 494.679 248.856 493.72 248.856 493.72 74.6376ZM496.119 247.897 494.199 257.492 492.279 247.897Z" fill="#000000" fill-rule="nonzero" fill-opacity="1" transform="matrix(1 0 0 1.00305 -468.134 -73.92)"/><text fill="#000000" fill-opacity="1" font-family="Cambria Math,Cambria Math_MSFontService,sans-serif" font-style="normal" font-variant="normal" font-weight="400" font-stretch="normal" font-size="73" text-anchor="start" direction="ltr" writing-mode="lr-tb" unicode-bidi="normal" text-decoration="none" transform="matrix(0.209362 0 0 0.21 15.2918 203)">𝜀</text><text fill="#000000" fill-opacity="1" font-family="Cambria Math,Cambria Math_MSFontService,sans-serif" font-style="normal" font-variant="normal" font-weight="400" font-stretch="normal" font-size="54" text-anchor="start" direction="ltr" writing-mode="lr-tb" unicode-bidi="normal" text-decoration="none" transform="matrix(0.209362 0 0 0.21 21.9809 206)">𝑛𝑣</text><path d="M556.589 97.8768 760.02 192.058" stroke="#7F7F7F" stroke-width="0.959576" stroke-linecap="square" stroke-linejoin="miter" stroke-miterlimit="8" stroke-dasharray="2.87873 0.959576" stroke-opacity="1" fill="none" fill-rule="evenodd" transform="matrix(1 0 0 1.00305 -468.134 -73.92)"/><text fill="#000000" fill-opacity="1" font-family="Cambria Math,Cambria Math_MSFontService,sans-serif" font-style="normal" font-variant="normal" font-weight="400" font-stretch="normal" font-size="55" text-anchor="start" direction="ltr" writing-mode="lr-tb" unicode-bidi="normal" text-decoration="none" transform="matrix(0.209362 0 0 0.21 306.148 122)">𝜀</text><path d="M-1.61928-6.49402C-1.79921-6.49402-1.94914-6.5568-2.06909-6.68236-2.18903-6.80793-2.24901-6.96629-2.24901-7.15746-2.24901-7.34863-2.18903-7.50699-2.06909-7.63257-1.94914-7.75814-1.79921-7.82091-1.61928-7.82093-1.44311-7.82091-1.29505-7.75814-1.17511-7.63257-1.05516-7.50699-0.995186-7.34863-0.995186-7.15746-0.995186-6.96629-1.05516-6.80793-1.17511-6.68236-1.29505-6.5568-1.44311-6.49402-1.61928-6.49402Z" fill="#000000" fill-rule="nonzero" fill-opacity="1" transform="matrix(1 0 0 1.00305 311.68 121.8)"/><text fill="#000000" fill-opacity="1" font-family="Cambria Math,Cambria Math_MSFontService,sans-serif" font-style="normal" font-variant="normal" font-weight="400" font-stretch="normal" font-size="40" text-anchor="start" direction="ltr" writing-mode="lr-tb" unicode-bidi="normal" text-decoration="none" transform="matrix(0.209362 0 0 0.21 311.223 124)">𝑛𝑣</text><text fill="#000000" fill-opacity="1" font-family="Cambria Math,Cambria Math_MSFontService,sans-serif" font-style="normal" font-variant="normal" font-weight="400" font-stretch="normal" font-size="40" text-anchor="start" direction="ltr" writing-mode="lr-tb" unicode-bidi="normal" text-decoration="none" transform="matrix(0.209362 0 0 0.21 322.229 126)">𝑟𝑒𝑓</text><text fill="#000000" fill-opacity="1" font-family="Arial,Arial_MSFontService,sans-serif" font-style="normal" font-variant="normal" font-weight="400" font-stretch="normal" font-size="55" text-anchor="start" direction="ltr" writing-mode="lr-tb" unicode-bidi="normal" text-decoration="none" transform="matrix(0.209362 0 0 0.21 306.148 147)">0.1</text><text fill="#000000" fill-opacity="1" font-family="Cambria Math,Cambria Math_MSFontService,sans-serif" font-style="normal" font-variant="normal" font-weight="400" font-stretch="normal" font-size="55" text-anchor="start" direction="ltr" writing-mode="lr-tb" unicode-bidi="normal" text-decoration="none" transform="matrix(0.209362 0 0 0.21 322.099 147)">𝜀</text><path d="M-1.61928-6.49402C-1.79921-6.49402-1.94914-6.5568-2.06909-6.68236-2.18903-6.80793-2.24901-6.96629-2.24901-7.15746-2.24901-7.34863-2.18903-7.50699-2.06909-7.63257-1.94914-7.75814-1.79921-7.82091-1.61928-7.82093-1.44311-7.82091-1.29505-7.75814-1.17511-7.63257-1.05516-7.50699-0.995186-7.34863-0.995186-7.15746-0.995186-6.96629-1.05516-6.80793-1.17511-6.68236-1.29505-6.5568-1.44311-6.49402-1.61928-6.49402Z" fill="#000000" fill-rule="nonzero" fill-opacity="1" transform="matrix(1 0 0 1.00305 327.633 147)"/><text fill="#000000" fill-opacity="1" font-family="Cambria Math,Cambria Math_MSFontService,sans-serif" font-style="normal" font-variant="normal" font-weight="400" font-stretch="normal" font-size="40" text-anchor="start" direction="ltr" writing-mode="lr-tb" unicode-bidi="normal" text-decoration="none" transform="matrix(0.209362 0 0 0.21 327.176 149)">𝑛𝑣</text><text fill="#000000" fill-opacity="1" font-family="Cambria Math,Cambria Math_MSFontService,sans-serif" font-style="normal" font-variant="normal" font-weight="400" font-stretch="normal" font-size="40" text-anchor="start" direction="ltr" writing-mode="lr-tb" unicode-bidi="normal" text-decoration="none" transform="matrix(0.209362 0 0 0.21 338.183 151)">𝑟𝑒𝑓</text><text fill="#000000" fill-opacity="1" font-family="Arial,Arial_MSFontService,sans-serif" font-style="normal" font-variant="normal" font-weight="400" font-stretch="normal" font-size="55" text-anchor="start" direction="ltr" writing-mode="lr-tb" unicode-bidi="normal" text-decoration="none" transform="matrix(0.209362 0 0 0.21 306.148 171)">0.01</text><text fill="#000000" fill-opacity="1" font-family="Cambria Math,Cambria Math_MSFontService,sans-serif" font-style="normal" font-variant="normal" font-weight="400" font-stretch="normal" font-size="55" text-anchor="start" direction="ltr" writing-mode="lr-tb" unicode-bidi="normal" text-decoration="none" transform="matrix(0.209362 0 0 0.21 328.458 171)">𝜀</text><path d="M-1.61928-6.49402C-1.79921-6.49402-1.94914-6.5568-2.06909-6.68236-2.18903-6.80793-2.24901-6.96629-2.24901-7.15746-2.24901-7.34863-2.18903-7.50699-2.06909-7.63257-1.94914-7.75814-1.79921-7.82091-1.61928-7.82093-1.44311-7.82091-1.29505-7.75814-1.17511-7.63257-1.05516-7.50699-0.995186-7.34863-0.995186-7.15746-0.995186-6.96629-1.05516-6.80793-1.17511-6.68236-1.29505-6.5568-1.44311-6.49402-1.61928-6.49402Z" fill="#000000" fill-rule="nonzero" fill-opacity="1" transform="matrix(1 0 0 1.00305 333.989 170.73)"/><text fill="#000000" fill-opacity="1" font-family="Cambria Math,Cambria Math_MSFontService,sans-serif" font-style="normal" font-variant="normal" font-weight="400" font-stretch="normal" font-size="40" text-anchor="start" direction="ltr" writing-mode="lr-tb" unicode-bidi="normal" text-decoration="none" transform="matrix(0.209362 0 0 0.21 333.533 173)">𝑛𝑣</text><text fill="#000000" fill-opacity="1" font-family="Cambria Math,Cambria Math_MSFontService,sans-serif" font-style="normal" font-variant="normal" font-weight="400" font-stretch="normal" font-size="40" text-anchor="start" direction="ltr" writing-mode="lr-tb" unicode-bidi="normal" text-decoration="none" transform="matrix(0.209362 0 0 0.21 344.541 175)">𝑟𝑒𝑓</text><path d="M2.08287e-06-0.479789 12.6067-0.479734 12.6067 0.479843-2.08287e-06 0.479789ZM11.6472-2.87869 17.4046 7.55571e-05 11.6471 2.87877Z" fill="#7F7F7F" fill-rule="nonzero" fill-opacity="1" transform="matrix(-1 0 0 1.00305 152.966 44.835)"/><text fill="#404040" fill-opacity="1" font-family="Arial,Arial_MSFontService,sans-serif" font-style="normal" font-variant="normal" font-weight="400" font-stretch="normal" font-size="55" text-anchor="start" direction="ltr" writing-mode="lr-tb" unicode-bidi="normal" text-decoration="none" transform="matrix(0.209362 0 0 0.21 159.417 49)">Classic isotach</text><path d="M520.37 103.739 760.192 214.768" stroke="#7F7F7F" stroke-width="0.959576" stroke-linecap="square" stroke-linejoin="miter" stroke-miterlimit="8" stroke-dasharray="2.87873 0.959576" stroke-opacity="1" fill="none" fill-rule="evenodd" transform="matrix(1 0 0 1.00305 -468.134 -73.92)"/><path d="M512.414 121.535 760.167 236.236" stroke="#7F7F7F" stroke-width="0.959576" stroke-linecap="square" stroke-linejoin="miter" stroke-miterlimit="8" stroke-dasharray="2.87873 0.959576" stroke-opacity="1" fill="none" fill-rule="evenodd" transform="matrix(1 0 0 1.00305 -468.134 -73.92)"/><text fill="#404040" fill-opacity="1" font-family="Arial,Arial_MSFontService,sans-serif" font-style="normal" font-variant="normal" font-weight="400" font-stretch="normal" font-size="55" text-anchor="start" direction="ltr" writing-mode="lr-tb" unicode-bidi="normal" text-decoration="none" transform="matrix(0.209362 0 0 0.21 43.0176 118)">Point of reloading</text><text fill="#404040" fill-opacity="1" font-family="Arial,Arial_MSFontService,sans-serif" font-style="normal" font-variant="normal" font-weight="400" font-stretch="normal" font-size="55" text-anchor="start" direction="ltr" writing-mode="lr-tb" unicode-bidi="normal" text-decoration="none" transform="matrix(0.209362 0 0 0.21 43.0176 132)">(i.e., local stress origin)</text><path d="M0.479789-3.11686e-06 0.479833 6.83287-0.479743 6.83287-0.479789 3.11686e-06ZM2.87877 5.87328 7.55571e-05 11.6307-2.87869 5.8733Z" fill="#7F7F7F" fill-rule="nonzero" fill-opacity="1" transform="matrix(1 0 0 -1.00305 50.3516 103.961)"/><path d="M521.626 160.685C584.715 163.231 647.804 165.777 684.895 169.755 721.987 173.733 733.082 179.143 744.178 184.553" stroke="#F2AA84" stroke-width="1.43936" stroke-linecap="butt" stroke-linejoin="miter" stroke-miterlimit="8" stroke-opacity="1" fill="none" fill-rule="evenodd" transform="matrix(1 0 0 1.00305 -468.134 -73.92)"/><path d="M520.788 161.104C545.192 161.806 569.595 162.508 591.09 166.556 612.585 170.604 631.17 177.997 649.755 185.39" stroke="#F2AA84" stroke-width="1.43936" stroke-linecap="butt" stroke-linejoin="miter" stroke-miterlimit="8" stroke-opacity="1" fill="none" fill-rule="evenodd" transform="matrix(1 0 0 1.00305 -468.134 -73.92)"/><path d="M521.835 160.685C567.828 164.011 613.818 167.337 642.851 171.454 671.883 175.572 683.953 180.481 696.024 185.39" stroke="#F2AA84" stroke-width="1.43936" stroke-linecap="butt" stroke-linejoin="miter" stroke-miterlimit="8" stroke-opacity="1" fill="none" fill-rule="evenodd" transform="matrix(1 0 0 1.00305 -468.134 -73.92)"/><path d="M649.755 185.39 759.677 236.28" stroke="#F2AA84" stroke-width="1.43936" stroke-linecap="butt" stroke-linejoin="miter" stroke-miterlimit="8" stroke-opacity="1" fill="none" fill-rule="evenodd" transform="matrix(1 0 0 1.00305 -468.134 -73.92)"/><path d="M696.024 185.39 760.267 215.132" stroke="#F2AA84" stroke-width="1.43936" stroke-linecap="butt" stroke-linejoin="miter" stroke-miterlimit="8" stroke-opacity="1" fill="none" fill-rule="evenodd" transform="matrix(1 0 0 1.00305 -468.134 -73.92)"/><path d="M744.178 184.553 760.282 192.122" stroke="#F2AA84" stroke-width="1.43936" stroke-linecap="butt" stroke-linejoin="miter" stroke-miterlimit="8" stroke-opacity="1" fill="none" fill-rule="evenodd" transform="matrix(1 0 0 1.00305 -468.134 -73.92)"/><text fill="#E97132" fill-opacity="1" font-family="Arial,Arial_MSFontService,sans-serif" font-style="italic" font-variant="normal" font-weight="400" font-stretch="normal" font-size="55" text-anchor="start" direction="ltr" writing-mode="lr-tb" unicode-bidi="normal" text-decoration="none" transform="matrix(0.209362 0 0 0.21 205.035 177)">Reload</text><text fill="#E97132" fill-opacity="1" font-family="Arial,Arial_MSFontService,sans-serif" font-style="normal" font-variant="normal" font-weight="400" font-stretch="normal" font-size="55" text-anchor="start" direction="ltr" writing-mode="lr-tb" unicode-bidi="normal" text-decoration="none" transform="matrix(0.209362 0 0 0.21 244.497 177)">isotach</text><path d="M0.479789-4.16072e-06 0.479822 3.91493-0.479753 3.91493-0.479789 4.16072e-06ZM2.87875 2.95531 7.55571e-05 8.71279-2.87871 2.95538Z" fill="#E97132" fill-rule="nonzero" fill-opacity="1" transform="matrix(1 0 0 -1.00305 265.785 162.985)"/><path d="M538.19 154.972 669.264 162.087 669.211 163.046 538.14 155.93ZM668.435 159.64 674.029 162.827 668.123 165.389Z" fill="#000000" fill-rule="nonzero" fill-opacity="1" transform="matrix(1 0 0 1.00305 -468.134 -73.92)"/><path d="M515.554 161.523C515.554 160.02 516.773 158.801 518.276 158.801 519.779 158.801 520.998 160.02 520.998 161.523 520.998 163.026 519.779 164.245 518.276 164.245 516.773 164.245 515.554 163.026 515.554 161.523Z" stroke="#000000" stroke-width="0.959576" stroke-linecap="butt" stroke-linejoin="miter" stroke-miterlimit="8" stroke-opacity="1" fill="#D1D1D1" fill-rule="evenodd" fill-opacity="1" transform="matrix(1 0 0 1.00305 -468.134 -73.92)"/></g></g></g></g></g></g></g></svg>