<svg width="414" height="189" xmlns="http://www.w3.org/2000/svg" xmlns:xlink="http://www.w3.org/1999/xlink" xml:space="preserve" overflow="hidden"><defs><clipPath id="clip0"><rect x="27" y="4" width="172" height="164"/></clipPath><clipPath id="clip1"><rect x="2" y="-137" width="7" height="434"/></clipPath><clipPath id="clip2"><rect x="2" y="-137" width="7" height="434"/></clipPath><clipPath id="clip3"><rect x="2" y="-137" width="7" height="434"/></clipPath><clipPath id="clip4"><rect x="2" y="-137" width="7" height="434"/></clipPath><clipPath id="clip5"><rect x="208" y="-51" width="8" height="265"/></clipPath><clipPath id="clip6"><rect x="208" y="-51" width="8" height="265"/></clipPath><clipPath id="clip7"><rect x="208" y="-51" width="8" height="265"/></clipPath><clipPath id="clip8"><rect x="208" y="-51" width="8" height="265"/></clipPath></defs><g><g><path d="M225.479 4.30851 433.149 4.30851 433.149 191.298 225.479 191.298Z" fill="#FFFFFF" fill-rule="nonzero" fill-opacity="1" transform="matrix(1.00093 0 0 1 -225.4 -4.02128)"/><path d="M0 0 4.52336e-05 163.723" stroke="#000000" stroke-width="0.574468" stroke-linecap="butt" stroke-linejoin="round" stroke-miterlimit="10" stroke-opacity="1" fill="none" fill-rule="evenodd" transform="matrix(1.00093 0 0 -1 27.025 167.745)"/><path d="M252.191 171.766 253.628 171.766M252.191 168.606 253.628 168.606M252.191 165.16 253.628 165.16M252.191 162 253.628 162M252.191 158.84 253.628 158.84M252.191 155.394 253.628 155.394M252.191 152.234 253.628 152.234M252.191 148.787 253.628 148.787M252.191 145.628 253.628 145.628M252.191 142.468 253.628 142.468M252.191 139.021 253.628 139.021M252.191 135.862 253.628 135.862M252.191 132.415 253.628 132.415M252.191 129.255 253.628 129.255M252.191 126.096 253.628 126.096M252.191 122.649 253.628 122.649M252.191 119.489 253.628 119.489M252.191 116.043 253.628 116.043M252.191 112.883 253.628 112.883M252.191 109.723 253.628 109.723M252.191 106.277 253.628 106.277M252.191 103.117 253.628 103.117M252.191 99.6702 253.628 99.6702M252.191 96.5106 253.628 96.5106M252.191 93.3511 253.628 93.3511M252.191 89.9043 253.628 89.9043M252.191 86.7447 253.628 86.7447M252.191 83.2979 253.628 83.2979M252.191 80.1383 253.628 80.1383M252.191 76.9787 253.628 76.9787M252.191 73.5319 253.628 73.5319M252.191 70.3723 253.628 70.3723M252.191 66.9255 253.628 66.9255M252.191 63.766 253.628 63.766M252.191 60.6064 253.628 60.6064M252.191 57.1596 253.628 57.1596M252.191 54 253.628 54M252.191 50.5532 253.628 50.5532M252.191 47.3936 253.628 47.3936M252.191 44.234 253.628 44.234M252.191 40.7872 253.628 40.7872M252.191 37.6277 253.628 37.6277M252.191 34.1809 253.628 34.1809M252.191 31.0213 253.628 31.0213M252.191 27.8617 253.628 27.8617M252.191 24.4149 253.628 24.4149M252.191 21.2553 253.628 21.2553M252.191 17.8085 253.628 17.8085M252.191 14.6489 253.628 14.6489M252.191 11.4894 253.628 11.4894M252.191 8.04255 253.628 8.04255M252.191 171.766 254.202 171.766M252.191 155.394 254.202 155.394M252.191 139.021 254.202 139.021M252.191 122.649 254.202 122.649M252.191 106.277 254.202 106.277M252.191 89.9043 254.202 89.9043M252.191 73.5319 254.202 73.5319M252.191 57.1596 254.202 57.1596M252.191 40.7872 254.202 40.7872M252.191 24.4149 254.202 24.4149M252.191 8.04255 254.202 8.04255" stroke="#000000" stroke-width="0.574468" stroke-linecap="butt" stroke-linejoin="round" stroke-miterlimit="10" stroke-opacity="1" fill="none" fill-rule="nonzero" transform="matrix(1.00093 0 0 1 -225.4 -4.02128)"/><path d="M252.191 171.766 423.096 171.766" stroke="#000000" stroke-width="0.574468" stroke-linecap="butt" stroke-linejoin="round" stroke-miterlimit="10" stroke-opacity="1" fill="none" fill-rule="evenodd" transform="matrix(1.00093 0 0 1 -225.4 -4.02128)"/><path d="M252.191 170.33 252.191 171.766M259.085 170.33 259.085 171.766M265.979 170.33 265.979 171.766M272.872 170.33 272.872 171.766M279.766 170.33 279.766 171.766M286.372 170.33 286.372 171.766M293.266 170.33 293.266 171.766M300.16 170.33 300.16 171.766M307.053 170.33 307.053 171.766M313.66 170.33 313.66 171.766M320.553 170.33 320.553 171.766M327.447 170.33 327.447 171.766M334.34 170.33 334.34 171.766M341.234 170.33 341.234 171.766M347.84 170.33 347.84 171.766M354.734 170.33 354.734 171.766M361.628 170.33 361.628 171.766M368.521 170.33 368.521 171.766M375.128 170.33 375.128 171.766M382.021 170.33 382.021 171.766M388.915 170.33 388.915 171.766M395.809 170.33 395.809 171.766M402.415 170.33 402.415 171.766M409.309 170.33 409.309 171.766M416.202 170.33 416.202 171.766M423.096 170.33 423.096 171.766M252.191 169.755 252.191 171.766M286.372 169.755 286.372 171.766M320.553 169.755 320.553 171.766M354.734 169.755 354.734 171.766M388.915 169.755 388.915 171.766M423.096 169.755 423.096 171.766" stroke="#000000" stroke-width="0.574468" stroke-linecap="butt" stroke-linejoin="round" stroke-miterlimit="10" stroke-opacity="1" fill="none" fill-rule="nonzero" transform="matrix(1.00093 0 0 1 -225.4 -4.02128)"/><g clip-path="url(#clip0)"><path d="M252.017 171.538 253.385 170.49C253.51 170.393 253.691 170.417 253.787 170.543 253.884 170.669 253.86 170.849 253.734 170.946L252.366 171.994C252.24 172.091 252.06 172.067 251.963 171.941 251.867 171.815 251.891 171.634 252.017 171.538ZM255.209 169.092 256.576 168.043C256.702 167.947 256.883 167.971 256.979 168.097 257.076 168.223 257.052 168.403 256.926 168.5L255.558 169.548C255.432 169.644 255.252 169.621 255.155 169.495 255.059 169.369 255.083 169.188 255.209 169.092ZM258.4 166.646 259.768 165.597C259.894 165.501 260.074 165.525 260.171 165.651 260.267 165.777 260.244 165.957 260.118 166.053L258.75 167.102C258.624 167.198 258.443 167.174 258.347 167.048 258.25 166.923 258.274 166.742 258.4 166.646ZM261.592 164.2 262.96 163.151C263.086 163.055 263.266 163.079 263.363 163.205 263.459 163.33 263.435 163.511 263.309 163.607L261.941 164.655C261.816 164.752 261.635 164.728 261.539 164.602 261.442 164.477 261.466 164.296 261.592 164.2ZM264.784 161.754 266.152 160.705C266.277 160.609 266.458 160.632 266.554 160.759 266.651 160.884 266.627 161.065 266.501 161.161L265.133 162.209C265.007 162.306 264.827 162.282 264.73 162.156 264.634 162.03 264.658 161.85 264.784 161.754ZM267.976 159.307 269.343 158.259C269.469 158.163 269.65 158.186 269.746 158.312 269.843 158.438 269.819 158.618 269.693 158.715L268.325 159.763C268.199 159.86 268.019 159.836 267.922 159.71 267.826 159.584 267.849 159.404 267.976 159.307ZM271.167 156.861 272.535 155.813C272.661 155.716 272.841 155.74 272.938 155.866 273.034 155.992 273.01 156.172 272.885 156.269L271.517 157.317C271.391 157.414 271.21 157.39 271.114 157.264 271.017 157.138 271.041 156.958 271.167 156.861ZM274.359 154.415 275.727 153.367C275.853 153.27 276.033 153.294 276.13 153.42 276.226 153.546 276.202 153.726 276.076 153.823L274.708 154.871C274.583 154.968 274.402 154.944 274.306 154.818 274.209 154.692 274.233 154.512 274.359 154.415ZM277.551 151.969 278.919 150.921C279.044 150.824 279.225 150.848 279.321 150.974 279.418 151.1 279.394 151.28 279.268 151.377L277.9 152.425C277.774 152.522 277.594 152.498 277.497 152.372 277.401 152.246 277.425 152.065 277.551 151.969ZM280.743 149.523 282.11 148.475C282.236 148.378 282.417 148.402 282.513 148.528 282.61 148.654 282.586 148.834 282.46 148.931L281.092 149.979C280.966 150.075 280.786 150.052 280.689 149.926 280.593 149.8 280.616 149.619 280.743 149.523ZM283.934 147.077 285.302 146.029C285.428 145.932 285.608 145.956 285.705 146.082 285.801 146.208 285.777 146.388 285.651 146.484L284.284 147.533C284.158 147.629 283.977 147.606 283.881 147.479 283.784 147.354 283.808 147.173 283.934 147.077ZM287.126 144.631 288.495 143.582C288.618 143.486 288.799 143.51 288.897 143.636 288.992 143.761 288.969 143.942 288.843 144.038L287.475 145.087C287.349 145.183 287.169 145.159 287.073 145.033 286.976 144.908 287 144.727 287.126 144.631ZM290.319 142.185 291.686 141.136C291.813 141.04 291.991 141.064 292.088 141.19 292.186 141.315 292.16 141.496 292.034 141.592L290.666 142.64C290.54 142.737 290.362 142.713 290.264 142.587 290.167 142.461 290.193 142.281 290.319 142.185ZM293.51 139.738 294.877 138.69C295.004 138.594 295.185 138.617 295.279 138.744 295.377 138.869 295.351 139.05 295.228 139.146L293.858 140.194C293.734 140.291 293.553 140.267 293.456 140.141 293.361 140.015 293.384 139.835 293.51 139.738ZM296.701 137.292 298.069 136.244C298.195 136.147 298.376 136.171 298.471 136.297 298.568 136.423 298.545 136.604 298.419 136.7L297.052 137.748C296.925 137.845 296.744 137.821 296.647 137.695 296.552 137.569 296.575 137.389 296.701 137.292ZM299.892 134.846 301.26 133.798C301.386 133.701 301.567 133.725 301.665 133.851 301.759 133.977 301.736 134.157 301.61 134.254L300.243 135.302C300.116 135.399 299.936 135.375 299.841 135.249 299.743 135.123 299.766 134.943 299.892 134.846ZM303.084 132.4 304.454 131.352C304.577 131.255 304.758 131.279 304.856 131.405 304.951 131.531 304.928 131.711 304.801 131.808L303.434 132.856C303.308 132.953 303.127 132.929 303.032 132.803 302.934 132.677 302.96 132.497 303.084 132.4ZM306.278 129.954 307.645 128.906C307.771 128.809 307.949 128.833 308.047 128.959 308.145 129.085 308.119 129.265 307.992 129.362L306.625 130.41C306.499 130.507 306.321 130.483 306.223 130.357 306.125 130.231 306.151 130.051 306.278 129.954ZM309.469 127.508 310.836 126.46C310.962 126.363 311.143 126.387 311.238 126.513 311.336 126.639 311.31 126.819 311.186 126.916L309.816 127.964C309.693 128.06 309.512 128.037 309.414 127.911 309.319 127.785 309.342 127.605 309.469 127.508ZM312.66 125.062 314.027 124.014C314.154 123.917 314.335 123.941 314.429 124.067 314.527 124.193 314.504 124.373 314.378 124.469L313.01 125.518C312.884 125.614 312.703 125.59 312.605 125.464 312.511 125.339 312.534 125.158 312.66 125.062ZM315.851 122.616 317.218 121.567C317.345 121.471 317.526 121.495 317.623 121.621 317.718 121.746 317.695 121.927 317.569 122.023L316.202 123.072C316.075 123.168 315.894 123.144 315.799 123.018 315.702 122.893 315.725 122.712 315.851 122.616ZM319.042 120.17 320.412 119.121C320.536 119.025 320.717 119.049 320.815 119.175 320.909 119.3 320.886 119.481 320.76 119.577L319.393 120.626C319.266 120.722 319.085 120.698 318.991 120.572 318.893 120.446 318.919 120.266 319.042 120.17ZM322.236 117.723 323.604 116.675C323.73 116.579 323.908 116.603 324.006 116.728 324.103 116.854 324.078 117.035 323.951 117.131L322.584 118.18C322.458 118.276 322.279 118.252 322.182 118.126 322.084 118 322.11 117.82 322.236 117.723ZM325.428 115.277 326.795 114.229C326.921 114.133 327.102 114.157 327.197 114.282 327.295 114.408 327.269 114.589 327.145 114.685L325.775 115.733C325.652 115.83 325.471 115.806 325.373 115.68 325.278 115.554 325.301 115.374 325.428 115.277ZM328.619 112.831 329.986 111.783C330.112 111.686 330.293 111.71 330.388 111.836 330.486 111.962 330.463 112.142 330.336 112.239L328.969 113.287C328.843 113.384 328.662 113.36 328.564 113.234 328.469 113.108 328.492 112.928 328.619 112.831ZM331.81 110.385 333.177 109.337C333.303 109.24 333.484 109.264 333.582 109.39 333.677 109.516 333.654 109.696 333.528 109.793L332.16 110.841C332.034 110.938 331.853 110.914 331.758 110.788 331.661 110.662 331.684 110.482 331.81 110.385ZM335.001 107.939 336.371 106.891C336.495 106.794 336.676 106.818 336.773 106.944 336.868 107.07 336.845 107.25 336.719 107.347L335.352 108.395C335.225 108.491 335.044 108.468 334.949 108.342 334.852 108.216 334.878 108.036 335.001 107.939ZM338.195 105.493 339.562 104.445C339.689 104.348 339.867 104.372 339.964 104.498 340.062 104.624 340.036 104.804 339.91 104.901L338.543 105.949C338.416 106.045 338.238 106.022 338.141 105.896 338.043 105.77 338.069 105.59 338.195 105.493ZM341.386 103.047 342.754 101.999C342.88 101.902 343.061 101.926 343.156 102.052 343.253 102.178 343.227 102.358 343.104 102.455L341.734 103.503C341.61 103.599 341.429 103.575 341.332 103.45 341.237 103.324 341.26 103.143 341.386 103.047ZM344.577 100.601 345.945 99.5524C346.071 99.4559 346.252 99.4798 346.347 99.6056 346.444 99.7317 346.422 99.9121 346.295 100.008L344.928 101.057C344.801 101.153 344.621 101.129 344.523 101.004 344.428 100.877 344.451 100.697 344.577 100.601ZM347.769 98.1548 349.136 97.1064C349.262 97.0098 349.443 97.0337 349.541 97.1595 349.636 97.2856 349.613 97.4657 349.486 97.5622L348.119 98.6106C347.993 98.7071 347.812 98.6833 347.717 98.5575 347.619 98.4314 347.642 98.2513 347.769 98.1548ZM350.96 95.7087 352.33 94.6603C352.453 94.5638 352.634 94.5876 352.732 94.7134 352.827 94.8395 352.804 95.0196 352.677 95.1161L351.31 96.1645C351.184 96.261 351.003 96.2372 350.908 96.1114 350.81 95.9853 350.836 95.8052 350.96 95.7087ZM354.154 93.2626 355.521 92.2142C355.647 92.1177 355.826 92.1415 355.923 92.2673 356.021 92.3934 355.995 92.5735 355.869 92.67L354.501 93.7184C354.375 93.8149 354.197 93.7911 354.099 93.6653 354.002 93.5392 354.027 93.3588 354.154 93.2626ZM357.345 90.8162 358.712 89.7681C358.839 89.6716 359.02 89.6954 359.114 89.8212 359.212 89.9473 359.186 90.1274 359.063 90.2239L357.693 91.2723C357.569 91.3689 357.388 91.345 357.29 91.2189 357.196 91.0931 357.219 90.9127 357.345 90.8162ZM360.536 88.3701 361.903 87.322C362.03 87.2255 362.211 87.2493 362.306 87.3752 362.403 87.501 362.38 87.6813 362.254 87.7779L360.887 88.8263C360.76 88.9228 360.579 88.8989 360.482 88.7728 360.387 88.647 360.41 88.4666 360.536 88.3701ZM363.727 85.9241 365.095 84.8759C365.221 84.7794 365.402 84.8033 365.5 84.9291 365.594 85.0549 365.571 85.2353 365.445 85.3318L364.078 86.3802C363.951 86.4767 363.77 86.4529 363.676 86.3268 363.578 86.2009 363.601 86.0206 363.727 85.9241ZM366.919 83.478 368.289 82.4298C368.412 82.3333 368.593 82.3572 368.691 82.483 368.786 82.6088 368.763 82.7892 368.636 82.8857L367.269 83.9341C367.143 84.0306 366.962 84.0068 366.867 83.8807 366.769 83.7549 366.795 83.5745 366.919 83.478ZM370.113 81.0319 371.48 79.9835C371.606 79.887 371.784 79.9108 371.882 80.0369 371.98 80.1627 371.954 80.3431 371.827 80.4396L370.46 81.488C370.334 81.5845 370.156 81.5607 370.058 81.4346 369.96 81.3088 369.986 81.1284 370.113 81.0319ZM373.304 78.5858 374.671 77.5374C374.797 77.4409 374.978 77.4647 375.073 77.5908 375.171 77.7166 375.145 77.897 375.021 77.9935L373.651 79.0419C373.528 79.1381 373.347 79.1143 373.249 78.9885 373.154 78.8627 373.177 78.6823 373.304 78.5858ZM376.495 76.1397 377.862 75.0913C377.988 74.9948 378.169 75.0186 378.264 75.1447 378.362 75.2705 378.339 75.4509 378.213 75.5474L376.845 76.5956C376.719 76.6921 376.538 76.6682 376.44 76.5424 376.346 76.4166 376.368 76.2362 376.495 76.1397ZM379.686 73.6936 381.053 72.6452C381.18 72.5487 381.361 72.5726 381.458 72.6986 381.553 72.8245 381.53 73.0048 381.404 73.1013L380.036 74.1495C379.91 74.246 379.729 74.2221 379.634 74.0963 379.537 73.9705 379.56 73.7901 379.686 73.6936ZM382.877 71.2475 384.247 70.1991C384.371 70.1026 384.552 70.1265 384.649 70.2526 384.744 70.3784 384.721 70.5588 384.595 70.6553L383.228 71.7034C383.101 71.7999 382.92 71.776 382.826 71.6502 382.728 71.5244 382.754 71.344 382.877 71.2475ZM386.071 68.8015 387.439 67.7531C387.565 67.6565 387.743 67.6804 387.841 67.8062 387.938 67.9323 387.912 68.1127 387.786 68.2089L386.419 69.2573C386.292 69.3538 386.114 69.33 386.017 69.2042 385.919 69.0781 385.945 68.898 386.071 68.8015ZM389.262 66.3554 390.63 65.307C390.756 65.2105 390.937 65.2343 391.032 65.3601 391.129 65.4862 391.104 65.6663 390.98 65.7628L389.61 66.8112C389.486 66.9077 389.306 66.8839 389.208 66.7581 389.113 66.632 389.136 66.4519 389.262 66.3554ZM392.454 63.9093 393.821 62.8609C393.947 62.7644 394.128 62.7882 394.223 62.914 394.321 63.0401 394.298 63.2202 394.171 63.3167L392.804 64.3651C392.678 64.4616 392.497 64.4378 392.399 64.312 392.304 64.1859 392.327 64.0058 392.454 63.9093ZM395.645 61.4632 397.012 60.4148C397.138 60.3183 397.319 60.3421 397.417 60.4679 397.512 60.594 397.489 60.7741 397.362 60.8706L395.995 61.919C395.869 62.0156 395.688 61.9917 395.593 61.8659 395.495 61.7398 395.518 61.5597 395.645 61.4632ZM398.836 59.0171 400.206 57.9687C400.33 57.8722 400.511 57.896 400.608 58.0219 400.703 58.1479 400.68 58.328 400.554 58.4246L399.186 59.473C399.06 59.5695 398.879 59.5456 398.784 59.4198 398.687 59.2937 398.712 59.1133 398.836 59.0171ZM402.03 56.5707 403.397 55.5226C403.524 55.4261 403.702 55.45 403.799 55.5758 403.897 55.7016 403.871 55.882 403.745 55.9785L402.378 57.0269C402.251 57.1234 402.073 57.0995 401.975 56.9734 401.878 56.8476 401.904 56.6673 402.03 56.5707ZM405.221 54.1247 406.588 53.0765C406.715 52.98 406.896 53.0039 406.991 53.1297 407.088 53.2555 407.062 53.4359 406.939 53.5324L405.569 54.5808C405.445 54.6773 405.264 54.6535 405.167 54.5274 405.072 54.4016 405.095 54.2212 405.221 54.1247ZM408.412 51.6786 409.78 50.6305C409.906 50.5339 410.087 50.5578 410.182 50.6836 410.279 50.8094 410.256 50.9898 410.13 51.0863L408.763 52.1347C408.636 52.2312 408.455 52.2074 408.358 52.0813 408.263 51.9555 408.286 51.7751 408.412 51.6786ZM411.604 49.2325 412.971 48.1841C413.097 48.0879 413.278 48.1117 413.376 48.2375 413.471 48.3633 413.448 48.5437 413.321 48.6402L411.954 49.6886C411.828 49.7851 411.647 49.7613 411.552 49.6352 411.454 49.5094 411.477 49.329 411.604 49.2325ZM414.795 46.7864 416.165 45.738C416.288 45.6415 416.469 45.6653 416.567 45.7914 416.662 45.9172 416.639 46.0976 416.512 46.1941L415.145 47.2425C415.019 47.3388 414.838 47.3149 414.743 47.1891 414.645 47.0633 414.668 46.8829 414.795 46.7864ZM417.989 44.3403 419.356 43.2919C419.482 43.1954 419.66 43.2192 419.758 43.3453 419.856 43.4711 419.83 43.6515 419.703 43.748L418.336 44.7962C418.21 44.8927 418.032 44.8688 417.934 44.743 417.836 44.6172 417.862 44.4368 417.989 44.3403ZM421.18 41.8942 422.547 40.8458C422.674 40.7493 422.854 40.7732 422.949 40.8993 423.047 41.0251 423.021 41.2054 422.898 41.302L421.527 42.3501C421.404 42.4466 421.223 42.4227 421.125 42.2969 421.031 42.1711 421.053 41.9907 421.18 41.8942Z" fill="#000000" fill-rule="nonzero" fill-opacity="1" transform="matrix(1.00093 0 0 1 -225.4 -4.02128)"/></g><path d="M266.963 159.525C266.963 160.636 266.063 161.536 264.953 161.536 263.842 161.536 262.942 160.636 262.942 159.525 262.942 158.415 263.842 157.515 264.953 157.515 266.063 157.515 266.963 158.415 266.963 159.525Z" stroke="#000000" stroke-width="0.430851" stroke-linecap="butt" stroke-linejoin="round" stroke-miterlimit="10" stroke-opacity="1" fill="#D1D1D1" fill-rule="nonzero" fill-opacity="1" transform="matrix(1.00093 0 0 1 -225.4 -4.02128)"/><path d="M278.453 151.195C278.453 152.306 277.553 153.206 276.442 153.206 275.332 153.206 274.431 152.306 274.431 151.195 274.431 150.085 275.332 149.185 276.442 149.185 277.553 149.185 278.453 150.085 278.453 151.195Z" stroke="#000000" stroke-width="0.430851" stroke-linecap="butt" stroke-linejoin="round" stroke-miterlimit="10" stroke-opacity="1" fill="#D1D1D1" fill-rule="nonzero" fill-opacity="1" transform="matrix(1.00093 0 0 1 -225.4 -4.02128)"/><path d="M301.145 133.961C301.145 135.072 300.243 135.972 299.134 135.972 298.023 135.972 297.124 135.072 297.124 133.961 297.124 132.851 298.023 131.951 299.134 131.951 300.243 131.951 301.145 132.851 301.145 133.961Z" stroke="#000000" stroke-width="0.430851" stroke-linecap="butt" stroke-linejoin="round" stroke-miterlimit="10" stroke-opacity="1" fill="#D1D1D1" fill-rule="nonzero" fill-opacity="1" transform="matrix(1.00093 0 0 1 -225.4 -4.02128)"/><path d="M346.815 103.227C346.815 104.338 345.913 105.238 344.804 105.238 343.693 105.238 342.794 104.338 342.794 103.227 342.794 102.117 343.693 101.217 344.804 101.217 345.913 101.217 346.815 102.117 346.815 103.227Z" stroke="#000000" stroke-width="0.430851" stroke-linecap="butt" stroke-linejoin="round" stroke-miterlimit="10" stroke-opacity="1" fill="#D1D1D1" fill-rule="nonzero" fill-opacity="1" transform="matrix(1.00093 0 0 1 -225.4 -4.02128)"/><path d="M369.219 87.7167C369.219 88.8271 368.317 89.7273 367.209 89.7273 366.097 89.7273 365.198 88.8271 365.198 87.7167 365.198 86.6062 366.097 85.706 367.209 85.706 368.317 85.706 369.219 86.6062 369.219 87.7167Z" stroke="#000000" stroke-width="0.430851" stroke-linecap="butt" stroke-linejoin="round" stroke-miterlimit="10" stroke-opacity="1" fill="#D1D1D1" fill-rule="nonzero" fill-opacity="1" transform="matrix(1.00093 0 0 1 -225.4 -4.02128)"/><path d="M394.783 64.1635C394.783 65.2739 393.881 66.1741 392.772 66.1741 391.661 66.1741 390.762 65.2739 390.762 64.1635 390.762 63.053 391.661 62.1529 392.772 62.1529 393.881 62.1529 394.783 63.053 394.783 64.1635Z" stroke="#000000" stroke-width="0.430851" stroke-linecap="butt" stroke-linejoin="round" stroke-miterlimit="10" stroke-opacity="1" fill="#D1D1D1" fill-rule="nonzero" fill-opacity="1" transform="matrix(1.00093 0 0 1 -225.4 -4.02128)"/><text fill="#000000" fill-opacity="1" font-family="Arial,Arial_MSFontService,sans-serif" font-style="normal" font-variant="normal" font-weight="400" font-stretch="normal" font-size="22" text-anchor="start" direction="ltr" writing-mode="lr-tb" unicode-bidi="normal" text-decoration="none" transform="matrix(0.2875 0 0 0.287234 18.5903 170)">0</text><text fill="#000000" fill-opacity="1" font-family="Arial,Arial_MSFontService,sans-serif" font-style="normal" font-variant="normal" font-weight="400" font-stretch="normal" font-size="22" text-anchor="start" direction="ltr" writing-mode="lr-tb" unicode-bidi="normal" text-decoration="none" transform="matrix(0.2875 0 0 0.287234 11.8743 154)">100</text><text fill="#000000" fill-opacity="1" font-family="Arial,Arial_MSFontService,sans-serif" font-style="normal" font-variant="normal" font-weight="400" font-stretch="normal" font-size="22" text-anchor="start" direction="ltr" writing-mode="lr-tb" unicode-bidi="normal" text-decoration="none" transform="matrix(0.2875 0 0 0.287234 11.8743 137)">200</text><text fill="#000000" fill-opacity="1" font-family="Arial,Arial_MSFontService,sans-serif" font-style="normal" font-variant="normal" font-weight="400" font-stretch="normal" font-size="22" text-anchor="start" direction="ltr" writing-mode="lr-tb" unicode-bidi="normal" text-decoration="none" transform="matrix(0.2875 0 0 0.287234 11.8743 121)">300</text><text fill="#000000" fill-opacity="1" font-family="Arial,Arial_MSFontService,sans-serif" font-style="normal" font-variant="normal" font-weight="400" font-stretch="normal" font-size="22" text-anchor="start" direction="ltr" writing-mode="lr-tb" unicode-bidi="normal" text-decoration="none" transform="matrix(0.2875 0 0 0.287234 11.8743 104)">400</text><text fill="#000000" fill-opacity="1" font-family="Arial,Arial_MSFontService,sans-serif" font-style="normal" font-variant="normal" font-weight="400" font-stretch="normal" font-size="22" text-anchor="start" direction="ltr" writing-mode="lr-tb" unicode-bidi="normal" text-decoration="none" transform="matrix(0.2875 0 0 0.287234 11.8743 88)">500</text><text fill="#000000" fill-opacity="1" font-family="Arial,Arial_MSFontService,sans-serif" font-style="normal" font-variant="normal" font-weight="400" font-stretch="normal" font-size="22" text-anchor="start" direction="ltr" writing-mode="lr-tb" unicode-bidi="normal" text-decoration="none" transform="matrix(0.2875 0 0 0.287234 11.8743 72)">600</text><text fill="#000000" fill-opacity="1" font-family="Arial,Arial_MSFontService,sans-serif" font-style="normal" font-variant="normal" font-weight="400" font-stretch="normal" font-size="22" text-anchor="start" direction="ltr" writing-mode="lr-tb" unicode-bidi="normal" text-decoration="none" transform="matrix(0.2875 0 0 0.287234 11.8743 55)">700</text><text fill="#000000" fill-opacity="1" font-family="Arial,Arial_MSFontService,sans-serif" font-style="normal" font-variant="normal" font-weight="400" font-stretch="normal" font-size="22" text-anchor="start" direction="ltr" writing-mode="lr-tb" unicode-bidi="normal" text-decoration="none" transform="matrix(0.2875 0 0 0.287234 11.8743 39)">800</text><text fill="#000000" fill-opacity="1" font-family="Arial,Arial_MSFontService,sans-serif" font-style="normal" font-variant="normal" font-weight="400" font-stretch="normal" font-size="22" text-anchor="start" direction="ltr" writing-mode="lr-tb" unicode-bidi="normal" text-decoration="none" transform="matrix(0.2875 0 0 0.287234 11.8743 22)">900</text><text fill="#000000" fill-opacity="1" font-family="Arial,Arial_MSFontService,sans-serif" font-style="normal" font-variant="normal" font-weight="400" font-stretch="normal" font-size="22" text-anchor="start" direction="ltr" writing-mode="lr-tb" unicode-bidi="normal" text-decoration="none" transform="matrix(0.2875 0 0 0.287234 8.51632 6)">1000</text><text fill="#000000" fill-opacity="1" font-family="Arial,Arial_MSFontService,sans-serif" font-style="normal" font-variant="normal" font-weight="400" font-stretch="normal" font-size="22" text-anchor="start" direction="ltr" writing-mode="lr-tb" unicode-bidi="normal" text-decoration="none" transform="matrix(0.2875 0 0 0.287234 25.4633 177)">0</text><text fill="#000000" fill-opacity="1" font-family="Arial,Arial_MSFontService,sans-serif" font-style="normal" font-variant="normal" font-weight="400" font-stretch="normal" font-size="22" text-anchor="start" direction="ltr" writing-mode="lr-tb" unicode-bidi="normal" text-decoration="none" transform="matrix(0.2875 0 0 0.287234 56.2839 177)">200</text><text fill="#000000" fill-opacity="1" font-family="Arial,Arial_MSFontService,sans-serif" font-style="normal" font-variant="normal" font-weight="400" font-stretch="normal" font-size="22" text-anchor="start" direction="ltr" writing-mode="lr-tb" unicode-bidi="normal" text-decoration="none" transform="matrix(0.2875 0 0 0.287234 90.4619 177)">400</text><text fill="#000000" fill-opacity="1" font-family="Arial,Arial_MSFontService,sans-serif" font-style="normal" font-variant="normal" font-weight="400" font-stretch="normal" font-size="22" text-anchor="start" direction="ltr" writing-mode="lr-tb" unicode-bidi="normal" text-decoration="none" transform="matrix(0.2875 0 0 0.287234 124.64 177)">600</text><text fill="#000000" fill-opacity="1" font-family="Arial,Arial_MSFontService,sans-serif" font-style="normal" font-variant="normal" font-weight="400" font-stretch="normal" font-size="22" text-anchor="start" direction="ltr" writing-mode="lr-tb" unicode-bidi="normal" text-decoration="none" transform="matrix(0.2875 0 0 0.287234 158.818 177)">800</text><text fill="#000000" fill-opacity="1" font-family="Arial,Arial_MSFontService,sans-serif" font-style="normal" font-variant="normal" font-weight="400" font-stretch="normal" font-size="22" text-anchor="start" direction="ltr" writing-mode="lr-tb" unicode-bidi="normal" text-decoration="none" transform="matrix(0.2875 0 0 0.287234 191.32 177)">1000</text><text fill="#000000" fill-opacity="1" font-family="Arial,Arial_MSFontService,sans-serif" font-style="normal" font-variant="normal" font-weight="400" font-stretch="normal" font-size="22" text-anchor="start" direction="ltr" writing-mode="lr-tb" unicode-bidi="normal" text-decoration="none" transform="matrix(0.2875 0 0 0.287234 58.4749 183)">Mean</text><text fill="#000000" fill-opacity="1" font-family="Arial,Arial_MSFontService,sans-serif" font-style="normal" font-variant="normal" font-weight="400" font-stretch="normal" font-size="22" text-anchor="start" direction="ltr" writing-mode="lr-tb" unicode-bidi="normal" text-decoration="none" transform="matrix(0.2875 0 0 0.287234 76.0581 183)">effective principal stress </text><text fill="#000000" fill-opacity="1" font-family="Arial,Arial_MSFontService,sans-serif" font-style="italic" font-variant="normal" font-weight="400" font-stretch="normal" font-size="22" text-anchor="start" direction="ltr" writing-mode="lr-tb" unicode-bidi="normal" text-decoration="none" transform="matrix(0.2875 0 0 0.287234 145.32 183)">p' </text><text fill="#000000" fill-opacity="1" font-family="Arial,Arial_MSFontService,sans-serif" font-style="normal" font-variant="normal" font-weight="400" font-stretch="normal" font-size="22" text-anchor="start" direction="ltr" writing-mode="lr-tb" unicode-bidi="normal" text-decoration="none" transform="matrix(0.2875 0 0 0.287234 151.803 183)">:</text><text fill="#000000" fill-opacity="1" font-family="Arial,Arial_MSFontService,sans-serif" font-style="normal" font-variant="normal" font-weight="400" font-stretch="normal" font-size="22" text-anchor="start" direction="ltr" writing-mode="lr-tb" unicode-bidi="normal" text-decoration="none" transform="matrix(0.2875 0 0 0.287234 153.559 183)">kPa</text><g clip-path="url(#clip1)"><text fill="#000000" fill-opacity="1" font-family="Arial,Arial_MSFontService,sans-serif" font-style="normal" font-variant="normal" font-weight="400" font-stretch="normal" font-size="22" text-anchor="start" direction="ltr" writing-mode="lr-tb" unicode-bidi="normal" text-decoration="none" transform="matrix(-5.28129e-17 -0.287234 0.2875 -5.2764e-17 7.66533 111)">Deviator</text></g><g clip-path="url(#clip2)"><text fill="#000000" fill-opacity="1" font-family="Arial,Arial_MSFontService,sans-serif" font-style="normal" font-variant="normal" font-weight="400" font-stretch="normal" font-size="22" text-anchor="start" direction="ltr" writing-mode="lr-tb" unicode-bidi="normal" text-decoration="none" transform="matrix(-5.28129e-17 -0.287234 0.2875 -5.2764e-17 7.66533 86)">stress </text></g><g clip-path="url(#clip3)"><text fill="#000000" fill-opacity="1" font-family="Arial,Arial_MSFontService,sans-serif" font-style="italic" font-variant="normal" font-weight="400" font-stretch="normal" font-size="22" text-anchor="start" direction="ltr" writing-mode="lr-tb" unicode-bidi="normal" text-decoration="none" transform="matrix(-5.28129e-17 -0.287234 0.2875 -5.2764e-17 7.66533 67)">q</text></g><g clip-path="url(#clip4)"><text fill="#000000" fill-opacity="1" font-family="Arial,Arial_MSFontService,sans-serif" font-style="normal" font-variant="normal" font-weight="400" font-stretch="normal" font-size="22" text-anchor="start" direction="ltr" writing-mode="lr-tb" unicode-bidi="normal" text-decoration="none" transform="matrix(-5.28129e-17 -0.287234 0.2875 -5.2764e-17 7.66533 64)">: kPa</text></g><path d="M377.713 138.447 422.521 138.447 422.521 167.457 377.713 167.457Z" stroke="#000000" stroke-width="0.574468" stroke-linecap="butt" stroke-linejoin="miter" stroke-miterlimit="8" stroke-opacity="1" fill="none" fill-rule="nonzero" transform="matrix(1.00093 0 0 1 -225.4 -4.02128)"/><text fill="#000000" fill-opacity="1" font-family="Arial,Arial_MSFontService,sans-serif" font-style="normal" font-variant="normal" font-weight="400" font-stretch="normal" font-size="22" text-anchor="start" direction="ltr" writing-mode="lr-tb" unicode-bidi="normal" text-decoration="none" transform="matrix(0.2875 0 0 0.287234 160.802 142)">Kaolin</text><text fill="#000000" fill-opacity="1" font-family="Arial,Arial_MSFontService,sans-serif" font-style="normal" font-variant="normal" font-weight="400" font-stretch="normal" font-size="22" text-anchor="start" direction="ltr" writing-mode="lr-tb" unicode-bidi="normal" text-decoration="none" transform="matrix(0.2875 0 0 0.287234 179.265 142)">clay</text><path d="M393.999 42.018 403.311 51.1245 402.909 51.5352 393.597 42.4288ZM403.906 49.6961 405.164 53.3382 401.496 52.1605Z" fill="#000000" fill-rule="nonzero" fill-opacity="1" transform="matrix(1.00093 0 0 1 -225.4 -4.02128)"/><path d="M0 0 50.0187 4.52336e-05" stroke="#000000" stroke-width="0.574468" stroke-linecap="butt" stroke-linejoin="miter" stroke-miterlimit="8" stroke-opacity="1" fill="none" fill-rule="evenodd" transform="matrix(-1.00093 0 0 1 168.803 38.2021)"/><text fill="#000000" fill-opacity="1" font-family="Arial,Arial_MSFontService,sans-serif" font-style="italic" font-variant="normal" font-weight="400" font-stretch="normal" font-size="22" text-anchor="start" direction="ltr" writing-mode="lr-tb" unicode-bidi="normal" text-decoration="none" transform="matrix(0.2875 0 0 0.287234 173.46 150)">T</text><text fill="#000000" fill-opacity="1" font-family="Arial,Arial_MSFontService,sans-serif" font-style="normal" font-variant="normal" font-weight="400" font-stretch="normal" font-size="22" text-anchor="start" direction="ltr" writing-mode="lr-tb" unicode-bidi="normal" text-decoration="none" transform="matrix(0.2875 0 0 0.287234 178.825 150)">= 22</text><text fill="#000000" fill-opacity="1" font-family="Cambria Math,Cambria Math_MSFontService,sans-serif" font-style="normal" font-variant="normal" font-weight="400" font-stretch="normal" font-size="22" text-anchor="start" direction="ltr" writing-mode="lr-tb" unicode-bidi="normal" text-decoration="none" transform="matrix(0.2875 0 0 0.287234 190.742 150)">℃</text><path d="M0 0 13.0662 4.52336e-05" stroke="#000000" stroke-width="0.574468" stroke-linecap="butt" stroke-linejoin="miter" stroke-miterlimit="8" stroke-dasharray="2.29787 1.7234" stroke-opacity="1" fill="none" fill-rule="evenodd" transform="matrix(-1.00093 0 0 1 170.916 147.926)"/><path d="M387.479 161.426C387.479 160.315 388.378 159.415 389.489 159.415 390.601 159.415 391.5 160.315 391.5 161.426 391.5 162.536 390.601 163.436 389.489 163.436 388.378 163.436 387.479 162.536 387.479 161.426Z" stroke="#000000" stroke-width="0.430851" stroke-linecap="butt" stroke-linejoin="miter" stroke-miterlimit="8" stroke-opacity="1" fill="#D1D1D1" fill-rule="evenodd" fill-opacity="1" transform="matrix(1.00093 0 0 1 -225.4 -4.02128)"/><text fill="#000000" fill-opacity="1" font-family="Arial,Arial_MSFontService,sans-serif" font-style="italic" font-variant="normal" font-weight="400" font-stretch="normal" font-size="22" text-anchor="start" direction="ltr" writing-mode="lr-tb" unicode-bidi="normal" text-decoration="none" transform="matrix(0.2875 0 0 0.287234 173.46 159)">T</text><text fill="#000000" fill-opacity="1" font-family="Arial,Arial_MSFontService,sans-serif" font-style="normal" font-variant="normal" font-weight="400" font-stretch="normal" font-size="22" text-anchor="start" direction="ltr" writing-mode="lr-tb" unicode-bidi="normal" text-decoration="none" transform="matrix(0.2875 0 0 0.287234 178.825 159)">= 90</text><text fill="#000000" fill-opacity="1" font-family="Cambria Math,Cambria Math_MSFontService,sans-serif" font-style="normal" font-variant="normal" font-weight="400" font-stretch="normal" font-size="22" text-anchor="start" direction="ltr" writing-mode="lr-tb" unicode-bidi="normal" text-decoration="none" transform="matrix(0.2875 0 0 0.287234 190.742 159)">℃</text><text fill="#000000" fill-opacity="1" font-family="Arial,Arial_MSFontService,sans-serif" font-style="normal" font-variant="normal" font-weight="400" font-stretch="normal" font-size="22" text-anchor="start" direction="ltr" writing-mode="lr-tb" unicode-bidi="normal" text-decoration="none" transform="matrix(0.2875 0 0 0.287234 41.7531 42)">Critical state stress ratio</text><text fill="#000000" fill-opacity="1" font-family="Arial,Arial_MSFontService,sans-serif" font-style="normal" font-variant="normal" font-weight="400" font-stretch="normal" font-size="22" text-anchor="start" direction="ltr" writing-mode="lr-tb" unicode-bidi="normal" text-decoration="none" transform="matrix(0.2875 0 0 0.287234 41.7531 49)">determined by dtrain triaxial compression</text><text fill="#000000" fill-opacity="1" font-family="Arial,Arial_MSFontService,sans-serif" font-style="normal" font-variant="normal" font-weight="400" font-stretch="normal" font-size="22" text-anchor="start" direction="ltr" writing-mode="lr-tb" unicode-bidi="normal" text-decoration="none" transform="matrix(0.2875 0 0 0.287234 182.307 12)">(a)</text><path d="M431.426 5.74468 638.808 5.74468 638.808 192.734 431.426 192.734Z" fill="#FFFFFF" fill-rule="nonzero" fill-opacity="1" transform="matrix(1.00093 0 0 1 -225.4 -4.02128)"/><path d="M0 0 4.52336e-05 163.723" stroke="#000000" stroke-width="0.574468" stroke-linecap="butt" stroke-linejoin="round" stroke-miterlimit="10" stroke-opacity="1" fill="none" fill-rule="evenodd" transform="matrix(1.00093 0 0 -1 234.312 169.181)"/><path d="M459.287 173.202 460.723 173.202M459.287 167.745 460.723 167.745M459.287 162.287 460.723 162.287M459.287 156.83 460.723 156.83M459.287 151.372 460.723 151.372M459.287 145.915 460.723 145.915M459.287 140.457 460.723 140.457M459.287 135 460.723 135M459.287 129.543 460.723 129.543M459.287 124.085 460.723 124.085M459.287 118.628 460.723 118.628M459.287 113.17 460.723 113.17M459.287 107.713 460.723 107.713M459.287 102.255 460.723 102.255M459.287 96.7979 460.723 96.7979M459.287 91.3404 460.723 91.3404M459.287 85.883 460.723 85.883M459.287 80.4255 460.723 80.4255M459.287 74.9681 460.723 74.9681M459.287 69.5106 460.723 69.5106M459.287 64.0532 460.723 64.0532M459.287 58.5957 460.723 58.5957M459.287 53.1383 460.723 53.1383M459.287 47.6809 460.723 47.6809M459.287 42.2234 460.723 42.2234M459.287 36.766 460.723 36.766M459.287 31.3085 460.723 31.3085M459.287 25.8511 460.723 25.8511M459.287 20.3936 460.723 20.3936M459.287 14.9362 460.723 14.9362M459.287 9.47872 460.723 9.47872M459.287 173.202 461.298 173.202M459.287 145.915 461.298 145.915M459.287 118.628 461.298 118.628M459.287 91.3404 461.298 91.3404M459.287 64.0532 461.298 64.0532M459.287 36.766 461.298 36.766M459.287 9.47872 461.298 9.47872" stroke="#000000" stroke-width="0.574468" stroke-linecap="butt" stroke-linejoin="round" stroke-miterlimit="10" stroke-opacity="1" fill="none" fill-rule="nonzero" transform="matrix(1.00093 0 0 1 -225.4 -4.02128)"/><path d="M459.287 173.202 628.755 173.202" stroke="#000000" stroke-width="0.574468" stroke-linecap="butt" stroke-linejoin="round" stroke-miterlimit="10" stroke-opacity="1" fill="none" fill-rule="evenodd" transform="matrix(1.00093 0 0 1 -225.4 -4.02128)"/><path d="M459.287 171.766 459.287 173.202M484.851 171.766 484.851 173.202M499.787 171.766 499.787 173.202M510.415 171.766 510.415 173.202M518.457 171.766 518.457 173.202M525.351 171.766 525.351 173.202M530.809 171.766 530.809 173.202M535.691 171.766 535.691 173.202M540.287 171.766 540.287 173.202M544.021 171.766 544.021 173.202M569.585 171.766 569.585 173.202M584.521 171.766 584.521 173.202M595.149 171.766 595.149 173.202M603.191 171.766 603.191 173.202M610.085 171.766 610.085 173.202M615.543 171.766 615.543 173.202M620.426 171.766 620.426 173.202M624.734 171.766 624.734 173.202M628.755 171.766 628.755 173.202M459.287 171.479 459.287 173.202M544.021 171.479 544.021 173.202M628.755 171.479 628.755 173.202" stroke="#000000" stroke-width="0.574468" stroke-linecap="butt" stroke-linejoin="round" stroke-miterlimit="10" stroke-opacity="1" fill="none" fill-rule="nonzero" transform="matrix(1.00093 0 0 1 -225.4 -4.02128)"/><path d="M530.834 45.9574 534.856 45.9574 534.856 49.9787 530.834 49.9787Z" stroke="#000000" stroke-width="0.430851" stroke-linecap="butt" stroke-linejoin="round" stroke-miterlimit="10" stroke-opacity="1" fill="#404040" fill-rule="nonzero" fill-opacity="1" transform="matrix(1.00093 0 0 1 -225.4 -4.02128)"/><path d="M554.675 43.6596 558.696 43.6596 558.696 47.6809 554.675 47.6809Z" stroke="#000000" stroke-width="0.430851" stroke-linecap="butt" stroke-linejoin="round" stroke-miterlimit="10" stroke-opacity="1" fill="#404040" fill-rule="nonzero" fill-opacity="1" transform="matrix(1.00093 0 0 1 -225.4 -4.02128)"/><path d="M565.59 58.3085 569.611 58.3085 569.611 62.3298 565.59 62.3298Z" stroke="#000000" stroke-width="0.430851" stroke-linecap="butt" stroke-linejoin="round" stroke-miterlimit="10" stroke-opacity="1" fill="#404040" fill-rule="nonzero" fill-opacity="1" transform="matrix(1.00093 0 0 1 -225.4 -4.02128)"/><path d="M579.951 64.6277 583.973 64.6277 583.973 68.6489 579.951 68.6489Z" stroke="#000000" stroke-width="0.430851" stroke-linecap="butt" stroke-linejoin="round" stroke-miterlimit="10" stroke-opacity="1" fill="#404040" fill-rule="nonzero" fill-opacity="1" transform="matrix(1.00093 0 0 1 -225.4 -4.02128)"/><path d="M592.59 70.6596 596.611 70.6596 596.611 74.6808 592.59 74.6808Z" stroke="#000000" stroke-width="0.430851" stroke-linecap="butt" stroke-linejoin="round" stroke-miterlimit="10" stroke-opacity="1" fill="#404040" fill-rule="nonzero" fill-opacity="1" transform="matrix(1.00093 0 0 1 -225.4 -4.02128)"/><path d="M591.154 82.1489 595.175 82.1489 595.175 86.1702 591.154 86.1702Z" stroke="#000000" stroke-width="0.430851" stroke-linecap="butt" stroke-linejoin="round" stroke-miterlimit="10" stroke-opacity="1" fill="#404040" fill-rule="nonzero" fill-opacity="1" transform="matrix(1.00093 0 0 1 -225.4 -4.02128)"/><path d="M603.792 105.989 607.813 105.989 607.813 110.011 603.792 110.011Z" stroke="#000000" stroke-width="0.430851" stroke-linecap="butt" stroke-linejoin="round" stroke-miterlimit="10" stroke-opacity="1" fill="#404040" fill-rule="nonzero" fill-opacity="1" transform="matrix(1.00093 0 0 1 -225.4 -4.02128)"/><path d="M610.111 122.362 614.132 122.362 614.132 126.383 610.111 126.383Z" stroke="#000000" stroke-width="0.430851" stroke-linecap="butt" stroke-linejoin="round" stroke-miterlimit="10" stroke-opacity="1" fill="#404040" fill-rule="nonzero" fill-opacity="1" transform="matrix(1.00093 0 0 1 -225.4 -4.02128)"/><path d="M615.856 125.521 619.877 125.521 619.877 129.543 615.856 129.543Z" stroke="#000000" stroke-width="0.430851" stroke-linecap="butt" stroke-linejoin="round" stroke-miterlimit="10" stroke-opacity="1" fill="#404040" fill-rule="nonzero" fill-opacity="1" transform="matrix(1.00093 0 0 1 -225.4 -4.02128)"/><path d="M617.579 131.553 621.6 131.553 621.6 135.574 617.579 135.574Z" stroke="#000000" stroke-width="0.430851" stroke-linecap="butt" stroke-linejoin="round" stroke-miterlimit="10" stroke-opacity="1" fill="#404040" fill-rule="nonzero" fill-opacity="1" transform="matrix(1.00093 0 0 1 -225.4 -4.02128)"/><path d="M618.728 145.915 622.749 145.915 622.749 149.936 618.728 149.936Z" stroke="#000000" stroke-width="0.430851" stroke-linecap="butt" stroke-linejoin="round" stroke-miterlimit="10" stroke-opacity="1" fill="#404040" fill-rule="nonzero" fill-opacity="1" transform="matrix(1.00093 0 0 1 -225.4 -4.02128)"/><path d="M534.856 47.9681C534.856 49.0785 533.954 49.9787 532.845 49.9787 531.733 49.9787 530.834 49.0785 530.834 47.9681 530.834 46.8576 531.733 45.9574 532.845 45.9574 533.954 45.9574 534.856 46.8576 534.856 47.9681Z" stroke="#000000" stroke-width="0.430851" stroke-linecap="butt" stroke-linejoin="round" stroke-miterlimit="10" stroke-opacity="1" fill="#D1D1D1" fill-rule="nonzero" fill-opacity="1" transform="matrix(1.00093 0 0 1 -225.4 -4.02128)"/><path d="M558.696 49.117C558.696 50.2275 557.794 51.1277 556.685 51.1277 555.574 51.1277 554.675 50.2275 554.675 49.117 554.675 48.0066 555.574 47.1064 556.685 47.1064 557.794 47.1064 558.696 48.0066 558.696 49.117Z" stroke="#000000" stroke-width="0.430851" stroke-linecap="butt" stroke-linejoin="round" stroke-miterlimit="10" stroke-opacity="1" fill="#D1D1D1" fill-rule="nonzero" fill-opacity="1" transform="matrix(1.00093 0 0 1 -225.4 -4.02128)"/><path d="M583.973 85.0213C583.973 86.1317 583.071 87.0319 581.962 87.0319 580.85 87.0319 579.951 86.1317 579.951 85.0213 579.951 83.9108 580.85 83.0106 581.962 83.0106 583.071 83.0106 583.973 83.9108 583.973 85.0213Z" stroke="#000000" stroke-width="0.430851" stroke-linecap="butt" stroke-linejoin="round" stroke-miterlimit="10" stroke-opacity="1" fill="#D1D1D1" fill-rule="nonzero" fill-opacity="1" transform="matrix(1.00093 0 0 1 -225.4 -4.02128)"/><path d="M599.483 100.532C599.483 101.642 598.581 102.543 597.473 102.543 596.361 102.543 595.462 101.642 595.462 100.532 595.462 99.4215 596.361 98.5213 597.473 98.5213 598.581 98.5213 599.483 99.4215 599.483 100.532Z" stroke="#000000" stroke-width="0.430851" stroke-linecap="butt" stroke-linejoin="round" stroke-miterlimit="10" stroke-opacity="1" fill="#D1D1D1" fill-rule="nonzero" fill-opacity="1" transform="matrix(1.00093 0 0 1 -225.4 -4.02128)"/><path d="M608.962 121.787C608.962 122.898 608.06 123.798 606.951 123.798 605.84 123.798 604.941 122.898 604.941 121.787 604.941 120.677 605.84 119.777 606.951 119.777 608.06 119.777 608.962 120.677 608.962 121.787Z" stroke="#000000" stroke-width="0.430851" stroke-linecap="butt" stroke-linejoin="round" stroke-miterlimit="10" stroke-opacity="1" fill="#D1D1D1" fill-rule="nonzero" fill-opacity="1" transform="matrix(1.00093 0 0 1 -225.4 -4.02128)"/><path d="M616.143 118.053C616.143 119.164 615.241 120.064 614.132 120.064 613.021 120.064 612.122 119.164 612.122 118.053 612.122 116.943 613.021 116.043 614.132 116.043 615.241 116.043 616.143 116.943 616.143 118.053Z" stroke="#000000" stroke-width="0.430851" stroke-linecap="butt" stroke-linejoin="round" stroke-miterlimit="10" stroke-opacity="1" fill="#D1D1D1" fill-rule="nonzero" fill-opacity="1" transform="matrix(1.00093 0 0 1 -225.4 -4.02128)"/><path d="M622.175 164.011C622.175 165.121 621.273 166.021 620.164 166.021 619.053 166.021 618.154 165.121 618.154 164.011 618.154 162.9 619.053 162 620.164 162 621.273 162 622.175 162.9 622.175 164.011Z" stroke="#000000" stroke-width="0.430851" stroke-linecap="butt" stroke-linejoin="round" stroke-miterlimit="10" stroke-opacity="1" fill="#D1D1D1" fill-rule="nonzero" fill-opacity="1" transform="matrix(1.00093 0 0 1 -225.4 -4.02128)"/><path d="M532.819 24.1277 533.106 24.4149 533.394 24.4149 533.681 24.7021 533.681 24.9894 533.968 25.2766 534.255 25.5638 534.543 25.8511 534.543 26.1383 534.83 26.4255 535.117 26.7128 535.404 27 535.691 27.2872 535.691 27.5745 535.979 27.5745 536.266 27.8617 536.553 28.1489 536.553 28.4362 536.84 28.7234 537.128 29.0106 537.415 29.2979 537.702 29.5851 537.702 29.8723 537.989 30.1596 538.277 30.4468 538.564 30.4468 538.564 30.734 538.851 31.0213 539.138 31.3085 539.426 31.5957 539.713 31.883 539.713 32.1702 540 32.4574 540.287 32.7447 540.574 33.0319 540.574 33.3191 540.862 33.6064 541.149 33.6064 541.436 33.8936 541.723 34.1809 541.723 34.4681 542.011 34.7553 542.298 35.0426 542.585 35.3298 542.585 35.617 542.872 35.9043 543.16 36.1915 543.447 36.4787 543.734 36.766 544.021 37.0532 544.309 37.3404 544.596 37.6277 544.596 37.9149 544.883 38.2021 545.17 38.4894 545.457 38.7766 545.745 39.0638 545.745 39.3511 546.032 39.6383 546.319 39.9255 546.606 39.9255 546.606 40.2128 546.894 40.5 547.181 40.7872 547.468 41.0745 547.755 41.3617 547.755 41.6489 548.043 41.9362 548.33 42.2234 548.617 42.5106 548.617 42.7979 548.904 42.7979 549.191 43.0851 549.479 43.3723 549.766 43.6596 549.766 43.9468 550.053 44.234 550.34 44.5213 550.628 44.8085 550.628 45.0957 550.915 45.383 551.202 45.6702 551.489 45.9574 551.777 45.9574 551.777 46.2447 552.064 46.5319 552.351 46.8191 552.638 47.1064 552.638 47.3936 552.926 47.6809 553.213 47.9681 553.5 48.2553 553.787 48.5426 553.787 48.8298 554.074 49.117 554.362 49.117 554.649 49.4043 554.649 49.6915 554.936 49.9787 555.223 50.266 555.511 50.5532 555.798 50.8404 555.798 51.1277 556.085 51.4149 556.372 51.7021 556.66 51.9894 556.66 52.2766 556.947 52.2766 557.234 52.5638 557.521 52.8511 557.808 53.1383 557.808 53.4255 558.096 53.7128 558.383 54 558.67 54.2872 558.67 54.5745 558.957 54.8617 559.245 55.1489 559.532 55.1489 559.819 55.4362 559.819 55.7234 560.106 56.0106 560.394 56.2979 560.681 56.5851 560.681 56.8723 560.968 57.1596 561.255 57.4468 561.543 57.734 561.83 58.0213 561.83 58.3085 562.117 58.3085 562.404 58.5957 562.691 58.883 562.691 59.1702 562.979 59.4574 563.266 59.7447 563.553 60.0319 563.84 60.3191 563.84 60.6064 564.128 60.8936 564.415 61.1809 564.702 61.4681 564.989 61.7553 565.277 62.0426 565.564 62.3298 565.851 62.617 565.851 62.9043 566.138 63.1915 566.426 63.4787 566.713 63.766 566.713 64.0532 567 64.3404 567.287 64.6277 567.574 64.6277 567.862 64.9149 567.862 65.2021 568.149 65.4894 568.436 65.7766 568.723 66.0638 568.723 66.3511 569.011 66.6383 569.298 66.9255 569.585 67.2128 569.872 67.5 570.16 67.7872 570.447 68.0745 570.734 68.3617 570.734 68.6489 571.021 68.9362 571.308 69.2234 571.596 69.5106 571.883 69.7979 571.883 70.0851 572.17 70.3723 572.457 70.6596 572.745 70.6596 572.745 70.9468 573.032 71.234 573.319 71.5213 573.606 71.8085 573.894 72.0957 573.894 72.383 574.181 72.6702 574.468 72.9574 574.755 73.2447 574.755 73.5319 575.043 73.8191 575.33 73.8191 575.617 74.1064 575.904 74.3936 575.904 74.6808 576.191 74.9681 576.479 75.2553 576.766 75.5425 576.766 75.8298 577.053 76.117 577.34 76.4043 577.628 76.6915 577.915 76.9787 578.202 77.266 578.489 77.5532 578.777 77.8404 578.777 78.1277 579.064 78.4149 579.351 78.7021 579.638 78.9894 579.926 79.2766 579.926 79.5638 580.213 79.8511 580.5 80.1383 580.787 80.1383 580.787 80.4255 581.074 80.7128 581.362 81 581.649 81.2872 581.936 81.5745 581.936 81.8617 582.223 82.1489 582.511 82.4362 582.798 82.7234 582.798 83.0106 583.085 83.0106 583.372 83.2979 583.66 83.5851 583.947 83.8723 583.947 84.1596 584.234 84.4468 584.521 84.734 584.808 85.0213 584.808 85.3085 585.096 85.5957 585.383 85.883 585.67 86.1702 585.957 86.1702 585.957 86.4574 586.245 86.7447 586.532 87.0319 586.819 87.3191 586.819 87.6064 587.106 87.8936 587.394 88.1808 587.681 88.4681 587.968 88.7553 587.968 89.0425 588.255 89.3298 588.543 89.3298 588.83 89.617 588.83 89.9043 589.117 90.1915 589.404 90.4787 589.691 90.766 589.979 91.0532 589.979 91.3404 590.266 91.6277 590.553 91.9149 590.84 92.2021 590.84 92.4894 591.128 92.4894 591.415 92.7766 591.702 93.0638 591.989 93.3511 591.989 93.6383 592.277 93.9255 592.564 94.2128 592.851 94.5 592.851 94.7872 593.138 95.0745 593.426 95.3617 593.713 95.3617 594 95.6489 594 95.9362 594.287 96.2234 594.574 96.5106 594.862 96.7979 594.862 97.0851 595.149 97.3723 595.436 97.6596 595.723 97.9468 596.011 98.234 596.011 98.5213 596.298 98.5213 596.585 98.8085 596.872 99.0957 596.872 99.383 597.16 99.6702 597.447 99.9574 597.734 100.245 598.021 100.532 598.021 100.819 598.308 101.106 598.596 101.394 598.883 101.681 599.17 101.968 599.457 102.255 599.745 102.543 600.032 102.83 600.032 103.117 600.319 103.404 600.606 103.691 600.894 103.979 600.894 104.266 601.181 104.553 601.468 104.84 601.755 104.84 602.043 105.128 602.043 105.415 602.33 105.702 602.617 105.989 602.904 106.277 602.904 106.564 603.191 106.851 603.479 107.138 603.766 107.426 604.053 107.713 604.34 108 604.628 108.287 604.915 108.574 604.915 108.862 605.202 109.149 605.489 109.436 605.777 109.723 606.064 110.011 606.064 110.298 606.351 110.585 606.638 110.872 606.926 110.872 606.926 111.16 607.213 111.447 607.5 111.734 607.787 112.021 608.074 112.309 608.074 112.596 608.362 112.883 608.649 113.17 608.936 113.457 608.936 113.745 609.223 114.032 609.511 114.032 609.798 114.319 610.085 114.606 610.085 114.894 610.372 115.181 610.66 115.468 610.947 115.755 610.947 116.043 611.234 116.33 611.521 116.617 611.808 116.904 612.096 117.191 612.383 117.479 612.67 117.766 612.957 118.053 612.957 118.34 613.245 118.628 613.532 118.915 613.819 119.202 614.106 119.489 614.106 119.777 614.394 120.064 614.681 120.064 614.968 120.351 614.968 120.638 615.255 120.926 615.543 121.213 615.83 121.5 616.117 121.787 616.117 122.074 616.404 122.362 616.691 122.649 616.979 122.936 616.979 123.223 617.266 123.223 617.553 123.511 617.84 123.798 618.128 124.085 618.128 124.372 618.415 124.66 618.702 124.947 618.989 125.234 618.989 125.521 619.277 125.809 619.564 126.096 619.851 126.383 620.138 126.383 620.138 126.67 620.426 126.957 620.713 127.245" stroke="#000000" stroke-width="0.574468" stroke-linecap="round" stroke-linejoin="round" stroke-miterlimit="10" stroke-opacity="1" fill="none" fill-rule="nonzero" transform="matrix(1.00093 0 0 1 -225.4 -4.02128)"/><path d="M532.819 32.7447 533.106 33.0319 533.394 33.0319 533.394 33.3191 533.681 33.6064 533.968 33.8936 534.255 34.1809 534.543 34.4681 534.543 34.7553 534.83 35.0426 535.117 35.3298 535.404 35.617 535.404 35.9043 535.691 36.1915 535.979 36.4787 536.266 36.766 536.553 36.766 536.553 37.0532 536.84 37.3404 537.128 37.6277 537.415 37.9149 537.415 38.2021 537.702 38.4894 537.989 38.7766 538.277 39.0638 538.564 39.3511 538.564 39.6383 538.851 39.9255 539.138 40.2128 539.426 40.5 539.426 40.7872 539.713 40.7872 540 41.0745 540.287 41.3617 540.287 41.6489 540.574 41.9362 540.862 42.2234 541.149 42.5106 541.436 42.7979 541.436 43.0851 541.723 43.3723 542.011 43.6596 542.298 43.9468 542.298 44.234 542.585 44.5213 542.872 44.8085 543.16 44.8085 543.447 45.0957 543.447 45.383 543.734 45.6702 544.021 45.9574 544.309 46.2447 544.309 46.5319 544.596 46.8191 544.883 47.1064 545.17 47.3936 545.457 47.6809 545.457 47.9681 545.745 48.2553 546.032 48.5426 546.319 48.8298 546.606 49.117 546.894 49.4043 547.181 49.6915 547.181 49.9787 547.468 50.266 547.755 50.5532 548.043 50.8404 548.33 51.1277 548.33 51.4149 548.617 51.7021 548.904 51.9894 549.191 52.2766 549.191 52.5638 549.479 52.8511 549.766 52.8511 550.053 53.1383 550.34 53.4255 550.34 53.7128 550.628 54 550.915 54.2872 551.202 54.5745 551.202 54.8617 551.489 55.1489 551.777 55.4362 552.064 55.7234 552.351 56.0106 552.351 56.2979 552.638 56.5851 552.926 56.8723 553.213 56.8723 553.213 57.1596 553.5 57.4468 553.787 57.734 554.074 58.0213 554.074 58.3085 554.362 58.5957 554.649 58.883 554.936 59.1702 555.223 59.4574 555.223 59.7447 555.511 60.0319 555.798 60.3191 556.085 60.6064 556.085 60.8936 556.372 60.8936 556.66 61.1809 556.947 61.4681 557.234 61.7553 557.234 62.0426 557.521 62.3298 557.808 62.617 558.096 62.9043 558.096 63.1915 558.383 63.4787 558.67 63.766 558.957 64.0532 559.245 64.3404 559.245 64.6277 559.532 64.9149 559.819 64.9149 560.106 65.2021 560.106 65.4894 560.394 65.7766 560.681 66.0638 560.968 66.3511 561.255 66.6383 561.255 66.9255 561.543 67.2128 561.83 67.5 562.117 67.7872 562.117 68.0745 562.404 68.3617 562.691 68.6489 562.979 68.9362 563.266 69.2234 563.553 69.5106 563.84 69.7979 564.128 70.0851 564.128 70.3723 564.415 70.6596 564.702 70.9468 564.989 71.234 564.989 71.5213 565.277 71.8085 565.564 72.0957 565.851 72.383 566.138 72.6702 566.138 72.9574 566.426 72.9574 566.713 73.2447 567 73.5319 567 73.8191 567.287 74.1064 567.574 74.3936 567.862 74.6808 568.149 74.9681 568.149 75.2553 568.436 75.5425 568.723 75.8298 569.011 76.117 569.011 76.4043 569.298 76.6915 569.585 76.9787 569.872 76.9787 569.872 77.266 570.16 77.5532 570.447 77.8404 570.734 78.1277 571.021 78.4149 571.021 78.7021 571.308 78.9894 571.596 79.2766 571.883 79.5638 571.883 79.8511 572.17 80.1383 572.457 80.4255 572.745 80.7128 573.032 81 573.319 81.2872 573.606 81.5745 573.894 81.8617 573.894 82.1489 574.181 82.4362 574.468 82.7234 574.755 83.0106 575.043 83.2979 575.043 83.5851 575.33 83.8723 575.617 84.1596 575.904 84.4468 575.904 84.734 576.191 85.0213 576.479 85.0213 576.766 85.3085 576.766 85.5957 577.053 85.883 577.34 86.1702 577.628 86.4574 577.915 86.7447 577.915 87.0319 578.202 87.3191 578.489 87.6064 578.777 87.8936 578.777 88.1808 579.064 88.4681 579.351 88.7553 579.638 89.0425 579.926 89.0425 579.926 89.3298 580.213 89.617 580.5 89.9043 580.787 90.1915 580.787 90.4787 581.074 90.766 581.362 91.0532 581.649 91.3404 581.936 91.6277 581.936 91.9149 582.223 92.2021 582.511 92.4894 582.798 92.7766 582.798 93.0638 583.085 93.0638 583.372 93.3511 583.66 93.6383 583.66 93.9255 583.947 94.2128 584.234 94.5 584.521 94.7872 584.808 95.0745 584.808 95.3617 585.096 95.6489 585.383 95.9362 585.67 96.2234 585.67 96.5106 585.957 96.7979 586.245 97.0851 586.532 97.0851 586.819 97.3723 586.819 97.6596 587.106 97.9468 587.394 98.234 587.681 98.5213 587.681 98.8085 587.968 99.0957 588.255 99.383 588.543 99.6702 588.83 99.9574 588.83 100.245 589.117 100.532 589.404 100.819 589.691 100.819 589.691 101.106 589.979 101.394 590.266 101.681 590.553 101.968 590.553 102.255 590.84 102.543 591.128 102.83 591.415 103.117 591.702 103.404 591.702 103.691 591.989 103.979 592.277 104.266 592.564 104.553 592.564 104.84 592.851 104.84 593.138 105.128 593.426 105.415 593.713 105.702 593.713 105.989 594 106.277 594.287 106.564 594.574 106.851 594.574 107.138 594.862 107.426 595.149 107.713 595.436 108 595.723 108.287 595.723 108.574 596.011 108.862 596.298 108.862 596.585 109.149 596.585 109.436 596.872 109.723 597.16 110.011 597.447 110.298 597.447 110.585 597.734 110.872 598.021 111.16 598.308 111.447 598.596 111.734 598.596 112.021 598.883 112.309 599.17 112.596 599.457 112.883 599.745 113.17 600.032 113.457 600.319 113.745 600.606 114.032 600.606 114.319 600.894 114.606 601.181 114.894 601.468 115.181 601.468 115.468 601.755 115.755 602.043 116.043 602.33 116.33 602.617 116.617 602.617 116.904 602.904 116.904 603.191 117.191 603.479 117.479 603.479 117.766 603.766 118.053 604.053 118.34 604.34 118.628 604.34 118.915 604.628 119.202 604.915 119.489 605.202 119.777 605.489 120.064 605.489 120.351 605.777 120.638 606.064 120.926 606.351 120.926 606.351 121.213 606.638 121.5 606.926 121.787 607.213 122.074 607.5 122.362 607.5 122.649 607.787 122.936 608.074 123.223 608.362 123.511 608.362 123.798 608.649 124.085 608.936 124.372 609.223 124.66 609.511 124.947 609.798 125.234 610.085 125.521 610.372 125.809 610.372 126.096 610.66 126.383 610.947 126.67 611.234 126.957 611.234 127.245 611.521 127.532 611.808 127.819 612.096 128.106 612.383 128.394 612.383 128.681 612.67 128.968 612.957 128.968 613.245 129.255 613.245 129.543 613.532 129.83 613.819 130.117 614.106 130.404 614.394 130.691 614.394 130.979 614.681 131.266 614.968 131.553 615.255 131.84 615.255 132.128 615.543 132.415 615.83 132.702 616.117 132.989 616.404 132.989 616.404 133.277 616.691 133.564 616.979 133.851 617.266 134.138 617.266 134.426 617.553 134.713 617.84 135 618.128 135.287 618.128 135.574 618.415 135.862 618.702 136.149 618.989 136.436 619.277 136.723 619.277 137.011 619.564 137.011 619.851 137.298 620.138 137.585 620.138 137.872" stroke="#AEAEAE" stroke-width="0.574468" stroke-linecap="round" stroke-linejoin="round" stroke-miterlimit="10" stroke-opacity="1" fill="none" fill-rule="nonzero" transform="matrix(1.00093 0 0 1 -225.4 -4.02128)"/><text fill="#000000" fill-opacity="1" font-family="Arial,Arial_MSFontService,sans-serif" font-style="normal" font-variant="normal" font-weight="400" font-stretch="normal" font-size="22" text-anchor="start" direction="ltr" writing-mode="lr-tb" unicode-bidi="normal" text-decoration="none" transform="matrix(0.2875 0 0 0.287234 215.743 171)">0.50</text><text fill="#000000" fill-opacity="1" font-family="Arial,Arial_MSFontService,sans-serif" font-style="normal" font-variant="normal" font-weight="400" font-stretch="normal" font-size="22" text-anchor="start" direction="ltr" writing-mode="lr-tb" unicode-bidi="normal" text-decoration="none" transform="matrix(0.2875 0 0 0.287234 215.743 144)">0.55</text><text fill="#000000" fill-opacity="1" font-family="Arial,Arial_MSFontService,sans-serif" font-style="normal" font-variant="normal" font-weight="400" font-stretch="normal" font-size="22" text-anchor="start" direction="ltr" writing-mode="lr-tb" unicode-bidi="normal" text-decoration="none" transform="matrix(0.2875 0 0 0.287234 215.743 117)">0.60</text><text fill="#000000" fill-opacity="1" font-family="Arial,Arial_MSFontService,sans-serif" font-style="normal" font-variant="normal" font-weight="400" font-stretch="normal" font-size="22" text-anchor="start" direction="ltr" writing-mode="lr-tb" unicode-bidi="normal" text-decoration="none" transform="matrix(0.2875 0 0 0.287234 215.743 89)">0.65</text><text fill="#000000" fill-opacity="1" font-family="Arial,Arial_MSFontService,sans-serif" font-style="normal" font-variant="normal" font-weight="400" font-stretch="normal" font-size="22" text-anchor="start" direction="ltr" writing-mode="lr-tb" unicode-bidi="normal" text-decoration="none" transform="matrix(0.2875 0 0 0.287234 215.743 62)">0.70</text><text fill="#000000" fill-opacity="1" font-family="Arial,Arial_MSFontService,sans-serif" font-style="normal" font-variant="normal" font-weight="400" font-stretch="normal" font-size="22" text-anchor="start" direction="ltr" writing-mode="lr-tb" unicode-bidi="normal" text-decoration="none" transform="matrix(0.2875 0 0 0.287234 215.743 35)">0.75</text><text fill="#000000" fill-opacity="1" font-family="Arial,Arial_MSFontService,sans-serif" font-style="normal" font-variant="normal" font-weight="400" font-stretch="normal" font-size="22" text-anchor="start" direction="ltr" writing-mode="lr-tb" unicode-bidi="normal" text-decoration="none" transform="matrix(0.2875 0 0 0.287234 215.743 7)">0.80</text><text fill="#000000" fill-opacity="1" font-family="Arial,Arial_MSFontService,sans-serif" font-style="normal" font-variant="normal" font-weight="400" font-stretch="normal" font-size="22" text-anchor="start" direction="ltr" writing-mode="lr-tb" unicode-bidi="normal" text-decoration="none" transform="matrix(0.2875 0 0 0.287234 231.006 179)">10</text><text fill="#000000" fill-opacity="1" font-family="Arial,Arial_MSFontService,sans-serif" font-style="normal" font-variant="normal" font-weight="400" font-stretch="normal" font-size="22" text-anchor="start" direction="ltr" writing-mode="lr-tb" unicode-bidi="normal" text-decoration="none" transform="matrix(0.2875 0 0 0.287234 314.102 179)">100</text><text fill="#000000" fill-opacity="1" font-family="Arial,Arial_MSFontService,sans-serif" font-style="normal" font-variant="normal" font-weight="400" font-stretch="normal" font-size="22" text-anchor="start" direction="ltr" writing-mode="lr-tb" unicode-bidi="normal" text-decoration="none" transform="matrix(0.2875 0 0 0.287234 397.198 179)">1000</text><text fill="#000000" fill-opacity="1" font-family="Arial,Arial_MSFontService,sans-serif" font-style="normal" font-variant="normal" font-weight="400" font-stretch="normal" font-size="22" text-anchor="start" direction="ltr" writing-mode="lr-tb" unicode-bidi="normal" text-decoration="none" transform="matrix(0.2875 0 0 0.287234 266.671 185)">Mean</text><text fill="#000000" fill-opacity="1" font-family="Arial,Arial_MSFontService,sans-serif" font-style="normal" font-variant="normal" font-weight="400" font-stretch="normal" font-size="22" text-anchor="start" direction="ltr" writing-mode="lr-tb" unicode-bidi="normal" text-decoration="none" transform="matrix(0.2875 0 0 0.287234 284.254 185)">e</text><text fill="#000000" fill-opacity="1" font-family="Arial,Arial_MSFontService,sans-serif" font-style="normal" font-variant="normal" font-weight="400" font-stretch="normal" font-size="22" text-anchor="start" direction="ltr" writing-mode="lr-tb" unicode-bidi="normal" text-decoration="none" transform="matrix(0.2875 0 0 0.287234 287.773 185)">ffective</text><text fill="#000000" fill-opacity="1" font-family="Arial,Arial_MSFontService,sans-serif" font-style="normal" font-variant="normal" font-weight="400" font-stretch="normal" font-size="22" text-anchor="start" direction="ltr" writing-mode="lr-tb" unicode-bidi="normal" text-decoration="none" transform="matrix(0.2875 0 0 0.287234 309.569 185)">principal stress </text><text fill="#000000" fill-opacity="1" font-family="Arial,Arial_MSFontService,sans-serif" font-style="italic" font-variant="normal" font-weight="400" font-stretch="normal" font-size="22" text-anchor="start" direction="ltr" writing-mode="lr-tb" unicode-bidi="normal" text-decoration="none" transform="matrix(0.2875 0 0 0.287234 353.516 185)">p'</text><text fill="#000000" fill-opacity="1" font-family="Arial,Arial_MSFontService,sans-serif" font-style="normal" font-variant="normal" font-weight="400" font-stretch="normal" font-size="22" text-anchor="start" direction="ltr" writing-mode="lr-tb" unicode-bidi="normal" text-decoration="none" transform="matrix(0.2875 0 0 0.287234 361.755 185)">:</text><text fill="#000000" fill-opacity="1" font-family="Arial,Arial_MSFontService,sans-serif" font-style="normal" font-variant="normal" font-weight="400" font-stretch="normal" font-size="22" text-anchor="start" direction="ltr" writing-mode="lr-tb" unicode-bidi="normal" text-decoration="none" transform="matrix(0.2875 0 0 0.287234 363.512 185)">kPa</text><g clip-path="url(#clip5)"><text fill="#000000" fill-opacity="1" font-family="Arial,Arial_MSFontService,sans-serif" font-style="normal" font-variant="normal" font-weight="400" font-stretch="normal" font-size="22" text-anchor="start" direction="ltr" writing-mode="lr-tb" unicode-bidi="normal" text-decoration="none" transform="matrix(-5.28129e-17 -0.287234 0.2875 -5.2764e-17 213.702 100)">Void ratio </text></g><g clip-path="url(#clip6)"><text fill="#000000" fill-opacity="1" font-family="Arial,Arial_MSFontService,sans-serif" font-style="italic" font-variant="normal" font-weight="400" font-stretch="normal" font-size="22" text-anchor="start" direction="ltr" writing-mode="lr-tb" unicode-bidi="normal" text-decoration="none" transform="matrix(-5.28129e-17 -0.287234 0.2875 -5.2764e-17 213.702 72)">e</text></g><g clip-path="url(#clip7)"><text fill="#000000" fill-opacity="1" font-family="Arial,Arial_MSFontService,sans-serif" font-style="normal" font-variant="normal" font-weight="400" font-stretch="normal" font-size="22" text-anchor="start" direction="ltr" writing-mode="lr-tb" unicode-bidi="normal" text-decoration="none" transform="matrix(-5.28129e-17 -0.287234 0.2875 -5.2764e-17 213.702 68)">: </text></g><g clip-path="url(#clip8)"><text fill="#000000" fill-opacity="1" font-family="Arial,Arial_MSFontService,sans-serif" font-style="normal" font-variant="normal" font-weight="400" font-stretch="normal" font-size="22" text-anchor="start" direction="ltr" writing-mode="lr-tb" unicode-bidi="normal" text-decoration="none" transform="matrix(-5.28129e-17 -0.287234 0.2875 -5.2764e-17 213.702 65)">-</text></g><path d="M466.468 139.883 522.191 139.883 522.191 169.468 466.468 169.468Z" stroke="#000000" stroke-width="0.574468" stroke-linecap="butt" stroke-linejoin="miter" stroke-miterlimit="8" stroke-opacity="1" fill="none" fill-rule="nonzero" transform="matrix(1.00093 0 0 1 -225.4 -4.02128)"/><text fill="#000000" fill-opacity="1" font-family="Arial,Arial_MSFontService,sans-serif" font-style="normal" font-variant="normal" font-weight="400" font-stretch="normal" font-size="22" text-anchor="start" direction="ltr" writing-mode="lr-tb" unicode-bidi="normal" text-decoration="none" transform="matrix(0.2875 0 0 0.287234 253.21 145)">Kaolin</text><text fill="#000000" fill-opacity="1" font-family="Arial,Arial_MSFontService,sans-serif" font-style="normal" font-variant="normal" font-weight="400" font-stretch="normal" font-size="22" text-anchor="start" direction="ltr" writing-mode="lr-tb" unicode-bidi="normal" text-decoration="none" transform="matrix(0.2875 0 0 0.287234 271.673 145)">clay</text><path d="M471.351 163.436C471.351 162.326 472.316 161.426 473.505 161.426 474.694 161.426 475.66 162.326 475.66 163.436 475.66 164.547 474.694 165.447 473.505 165.447 472.316 165.447 471.351 164.547 471.351 163.436Z" stroke="#000000" stroke-width="0.430851" stroke-linecap="butt" stroke-linejoin="miter" stroke-miterlimit="8" stroke-opacity="1" fill="#D1D1D1" fill-rule="evenodd" fill-opacity="1" transform="matrix(1.00093 0 0 1 -225.4 -4.02128)"/><text fill="#000000" fill-opacity="1" font-family="Arial,Arial_MSFontService,sans-serif" font-style="italic" font-variant="normal" font-weight="400" font-stretch="normal" font-size="22" text-anchor="start" direction="ltr" writing-mode="lr-tb" unicode-bidi="normal" text-decoration="none" transform="matrix(0.2875 0 0 0.287234 269.551 161)">T</text><text fill="#000000" fill-opacity="1" font-family="Arial,Arial_MSFontService,sans-serif" font-style="normal" font-variant="normal" font-weight="400" font-stretch="normal" font-size="22" text-anchor="start" direction="ltr" writing-mode="lr-tb" unicode-bidi="normal" text-decoration="none" transform="matrix(0.2875 0 0 0.287234 274.916 161)">= 90</text><text fill="#000000" fill-opacity="1" font-family="Cambria Math,Cambria Math_MSFontService,sans-serif" font-style="normal" font-variant="normal" font-weight="400" font-stretch="normal" font-size="22" text-anchor="start" direction="ltr" writing-mode="lr-tb" unicode-bidi="normal" text-decoration="none" transform="matrix(0.2875 0 0 0.287234 286.833 161)">℃</text><path d="M471.351 152.234 475.66 152.234 475.66 156.255 471.351 156.255Z" stroke="#000000" stroke-width="0.430851" stroke-linecap="butt" stroke-linejoin="miter" stroke-miterlimit="8" stroke-opacity="1" fill="#000000" fill-rule="nonzero" fill-opacity="1" transform="matrix(1.00093 0 0 1 -225.4 -4.02128)"/><text fill="#000000" fill-opacity="1" font-family="Arial,Arial_MSFontService,sans-serif" font-style="italic" font-variant="normal" font-weight="400" font-stretch="normal" font-size="22" text-anchor="start" direction="ltr" writing-mode="lr-tb" unicode-bidi="normal" text-decoration="none" transform="matrix(0.2875 0 0 0.287234 269.551 153)">T</text><text fill="#000000" fill-opacity="1" font-family="Arial,Arial_MSFontService,sans-serif" font-style="normal" font-variant="normal" font-weight="400" font-stretch="normal" font-size="22" text-anchor="start" direction="ltr" writing-mode="lr-tb" unicode-bidi="normal" text-decoration="none" transform="matrix(0.2875 0 0 0.287234 274.916 153)">= 22</text><text fill="#000000" fill-opacity="1" font-family="Cambria Math,Cambria Math_MSFontService,sans-serif" font-style="normal" font-variant="normal" font-weight="400" font-stretch="normal" font-size="22" text-anchor="start" direction="ltr" writing-mode="lr-tb" unicode-bidi="normal" text-decoration="none" transform="matrix(0.2875 0 0 0.287234 286.833 153)">℃</text><text fill="#000000" fill-opacity="1" font-family="Arial,Arial_MSFontService,sans-serif" font-style="normal" font-variant="normal" font-weight="400" font-stretch="normal" font-size="22" text-anchor="start" direction="ltr" writing-mode="lr-tb" unicode-bidi="normal" text-decoration="none" transform="matrix(0.2875 0 0 0.287234 287.785 82)">Critical state line</text><text fill="#000000" fill-opacity="1" font-family="Arial,Arial_MSFontService,sans-serif" font-style="normal" font-variant="normal" font-weight="400" font-stretch="normal" font-size="22" text-anchor="start" direction="ltr" writing-mode="lr-tb" unicode-bidi="normal" text-decoration="none" transform="matrix(0.2875 0 0 0.287234 287.785 89)">(Regression line)</text><path d="M0 0 7.08825 4.52336e-05" stroke="#000000" stroke-width="0.574468" stroke-linecap="butt" stroke-linejoin="miter" stroke-miterlimit="8" stroke-opacity="1" fill="none" fill-rule="evenodd" transform="matrix(-1.00093 0 0 1 264.695 150.511)"/><path d="M0 0 7.08825 4.52336e-05" stroke="#AEAEAE" stroke-width="0.574468" stroke-linecap="butt" stroke-linejoin="miter" stroke-miterlimit="8" stroke-opacity="1" fill="none" fill-rule="evenodd" transform="matrix(-1.00093 0 0 1 264.695 159.415)"/><path d="M0.21658-0.18867 17.1965 19.3032 16.7634 19.6806-0.21658 0.18867ZM17.9021 17.9267 18.8667 21.6577 15.3031 20.1908Z" fill="#000000" fill-rule="nonzero" fill-opacity="1" transform="matrix(1.00093 0 0 -1 314.812 73.3599)"/><path d="M0.216565-0.188687 8.80329 9.66669 8.37014 10.0441-0.216565 0.188687ZM9.50874 8.29012 10.4736 12.021 6.90996 10.5544Z" fill="#7F7F7F" fill-rule="nonzero" fill-opacity="1" transform="matrix(1.00093 0 0 -1 324.875 73.2019)"/><text fill="#595959" fill-opacity="1" font-family="Cambria Math,Cambria Math_MSFontService,sans-serif" font-style="normal" font-variant="normal" font-weight="400" font-stretch="normal" font-size="22" text-anchor="start" direction="ltr" writing-mode="lr-tb" unicode-bidi="normal" text-decoration="none" transform="matrix(0.2875 0 0 0.287234 347.263 117)">𝑅</text><text fill="#595959" fill-opacity="1" font-family="Cambria Math,Cambria Math_MSFontService,sans-serif" font-style="normal" font-variant="normal" font-weight="400" font-stretch="normal" font-size="16" text-anchor="start" direction="ltr" writing-mode="lr-tb" unicode-bidi="normal" text-decoration="none" transform="matrix(0.2875 0 0 0.287234 351.288 115)">2</text><text fill="#595959" fill-opacity="1" font-family="Cambria Math,Cambria Math_MSFontService,sans-serif" font-style="normal" font-variant="normal" font-weight="400" font-stretch="normal" font-size="22" text-anchor="start" direction="ltr" writing-mode="lr-tb" unicode-bidi="normal" text-decoration="none" transform="matrix(0.2875 0 0 0.287234 355.764 117)">=</text><text fill="#595959" fill-opacity="1" font-family="Cambria Math,Cambria Math_MSFontService,sans-serif" font-style="normal" font-variant="normal" font-weight="400" font-stretch="normal" font-size="22" text-anchor="start" direction="ltr" writing-mode="lr-tb" unicode-bidi="normal" text-decoration="none" transform="matrix(0.2875 0 0 0.287234 361.951 117)">0</text><text fill="#595959" fill-opacity="1" font-family="Cambria Math,Cambria Math_MSFontService,sans-serif" font-style="normal" font-variant="normal" font-weight="400" font-stretch="normal" font-size="22" text-anchor="start" direction="ltr" writing-mode="lr-tb" unicode-bidi="normal" text-decoration="none" transform="matrix(0.2875 0 0 0.287234 365.295 117)">.</text><text fill="#595959" fill-opacity="1" font-family="Cambria Math,Cambria Math_MSFontService,sans-serif" font-style="normal" font-variant="normal" font-weight="400" font-stretch="normal" font-size="22" text-anchor="start" direction="ltr" writing-mode="lr-tb" unicode-bidi="normal" text-decoration="none" transform="matrix(0.2875 0 0 0.287234 366.534 117)">87</text><text fill="#000000" fill-opacity="1" font-family="Cambria Math,Cambria Math_MSFontService,sans-serif" font-style="normal" font-variant="normal" font-weight="400" font-stretch="normal" font-size="22" text-anchor="start" direction="ltr" writing-mode="lr-tb" unicode-bidi="normal" text-decoration="none" transform="matrix(0.2875 0 0 0.287234 316.589 24)">𝑅</text><text fill="#000000" fill-opacity="1" font-family="Cambria Math,Cambria Math_MSFontService,sans-serif" font-style="normal" font-variant="normal" font-weight="400" font-stretch="normal" font-size="16" text-anchor="start" direction="ltr" writing-mode="lr-tb" unicode-bidi="normal" text-decoration="none" transform="matrix(0.2875 0 0 0.287234 320.614 22)">2</text><text fill="#000000" fill-opacity="1" font-family="Cambria Math,Cambria Math_MSFontService,sans-serif" font-style="normal" font-variant="normal" font-weight="400" font-stretch="normal" font-size="22" text-anchor="start" direction="ltr" writing-mode="lr-tb" unicode-bidi="normal" text-decoration="none" transform="matrix(0.2875 0 0 0.287234 325.091 24)">=</text><text fill="#000000" fill-opacity="1" font-family="Cambria Math,Cambria Math_MSFontService,sans-serif" font-style="normal" font-variant="normal" font-weight="400" font-stretch="normal" font-size="22" text-anchor="start" direction="ltr" writing-mode="lr-tb" unicode-bidi="normal" text-decoration="none" transform="matrix(0.2875 0 0 0.287234 330.731 24)">0</text><text fill="#000000" fill-opacity="1" font-family="Cambria Math,Cambria Math_MSFontService,sans-serif" font-style="normal" font-variant="normal" font-weight="400" font-stretch="normal" font-size="22" text-anchor="start" direction="ltr" writing-mode="lr-tb" unicode-bidi="normal" text-decoration="none" transform="matrix(0.2875 0 0 0.287234 334.075 24)">.</text><text fill="#000000" fill-opacity="1" font-family="Cambria Math,Cambria Math_MSFontService,sans-serif" font-style="normal" font-variant="normal" font-weight="400" font-stretch="normal" font-size="22" text-anchor="start" direction="ltr" writing-mode="lr-tb" unicode-bidi="normal" text-decoration="none" transform="matrix(0.2875 0 0 0.287234 335.314 24)">85</text><text fill="#000000" fill-opacity="1" font-family="Arial,Arial_MSFontService,sans-serif" font-style="normal" font-variant="normal" font-weight="400" font-stretch="normal" font-size="22" text-anchor="start" direction="ltr" writing-mode="lr-tb" unicode-bidi="normal" text-decoration="none" transform="matrix(0.2875 0 0 0.287234 394.7 12)">(b)</text></g></g></svg>