<svg width="289" height="284" xmlns="http://www.w3.org/2000/svg" xmlns:xlink="http://www.w3.org/1999/xlink" xml:space="preserve" overflow="hidden"><defs><clipPath id="clip0"><rect x="0" y="0" width="289" height="284"/></clipPath><clipPath id="clip1"><rect x="0" y="0" width="289" height="284"/></clipPath><clipPath id="clip2"><rect x="0" y="0" width="289" height="283"/></clipPath><clipPath id="clip3"><rect x="0" y="0" width="289" height="283"/></clipPath><clipPath id="clip4"><rect x="0" y="0" width="289" height="283"/></clipPath><clipPath id="clip5"><rect x="0" y="0" width="289" height="283"/></clipPath><clipPath id="clip6"><rect x="0" y="0" width="289" height="283"/></clipPath></defs><g clip-path="url(#clip0)"><g clip-path="url(#clip1)"><g clip-path="url(#clip2)"><g clip-path="url(#clip3)"><g clip-path="url(#clip4)"><g clip-path="url(#clip5)"><g clip-path="url(#clip6)"><path d="M1291.54 765.623 1578.55 765.623 1578.55 1048.62 1291.54 1048.62Z" fill="#FFFFFF" fill-rule="nonzero" fill-opacity="1" transform="matrix(1.00413 0 0 1 -1296.07 -765.623)"/><path d="M0 0 6.3126e-05 246.924" stroke="#000000" stroke-width="0.601275" stroke-linecap="butt" stroke-linejoin="round" stroke-miterlimit="10" stroke-opacity="1" fill="none" fill-rule="evenodd" transform="matrix(1.00413 0 0 -1 44.6783 255.341)"/><path d="M1335.23 1020.96 1337.64 1020.96M1335.23 1014.55 1337.64 1014.55M1335.23 1008.14 1337.64 1008.14M1335.23 1002.53 1337.64 1002.53M1335.23 996.112 1337.64 996.112M1335.23 989.698 1337.64 989.698M1335.23 984.086 1337.64 984.086M1335.23 977.673 1337.64 977.673M1335.23 971.259 1337.64 971.259M1335.23 965.647 1337.64 965.647M1335.23 959.234 1337.64 959.234M1335.23 952.82 1337.64 952.82M1335.23 946.406 1337.64 946.406M1335.23 940.795 1337.64 940.795M1335.23 934.381 1337.64 934.381M1335.23 927.967 1337.64 927.967M1335.23 922.356 1337.64 922.356M1335.23 915.942 1337.64 915.942M1335.23 909.528 1337.64 909.528M1335.23 903.916 1337.64 903.916M1335.23 897.503 1337.64 897.503M1335.23 891.089 1337.64 891.089M1335.23 885.477 1337.64 885.477M1335.23 879.064 1337.64 879.064M1335.23 872.65 1337.64 872.65M1335.23 867.038 1337.64 867.038M1335.23 860.625 1337.64 860.625M1335.23 854.211 1337.64 854.211M1335.23 848.599 1337.64 848.599M1335.23 842.186 1337.64 842.186M1335.23 835.772 1337.64 835.772M1335.23 829.358 1337.64 829.358M1335.23 823.746 1337.64 823.746M1335.23 817.333 1337.64 817.333M1335.23 810.919 1337.64 810.919M1335.23 805.307 1337.64 805.307M1335.23 798.894 1337.64 798.894M1335.23 792.48 1337.64 792.48M1335.23 786.868 1337.64 786.868M1335.23 780.455 1337.64 780.455M1335.23 774.041 1337.64 774.041M1335.23 1020.96 1338.44 1020.96M1335.23 989.698 1338.44 989.698M1335.23 959.234 1338.44 959.234M1335.23 927.967 1338.44 927.967M1335.23 897.503 1338.44 897.503M1335.23 867.038 1338.44 867.038M1335.23 835.772 1338.44 835.772M1335.23 805.307 1338.44 805.307M1335.23 774.041 1338.44 774.041" stroke="#000000" stroke-width="0.601275" stroke-linecap="butt" stroke-linejoin="round" stroke-miterlimit="10" stroke-opacity="1" fill="none" fill-rule="nonzero" transform="matrix(1.00413 0 0 1 -1296.07 -765.623)"/><path d="M1335.23 1020.96 1560.51 1020.96" stroke="#000000" stroke-width="0.601275" stroke-linecap="butt" stroke-linejoin="round" stroke-miterlimit="10" stroke-opacity="1" fill="none" fill-rule="evenodd" transform="matrix(1.00413 0 0 1 -1296.07 -765.623)"/><path d="M1335.23 1018.56 1335.23 1020.96M1369.7 1018.56 1369.7 1020.96M1388.94 1018.56 1388.94 1020.96M1403.38 1018.56 1403.38 1020.96M1413.8 1018.56 1413.8 1020.96M1423.42 1018.56 1423.42 1020.96M1430.63 1018.56 1430.63 1020.96M1437.05 1018.56 1437.05 1020.96M1442.66 1018.56 1442.66 1020.96M1448.27 1018.56 1448.27 1020.96M1481.94 1018.56 1481.94 1020.96M1501.18 1018.56 1501.18 1020.96M1515.61 1018.56 1515.61 1020.96M1526.84 1018.56 1526.84 1020.96M1535.66 1018.56 1535.66 1020.96M1542.87 1018.56 1542.87 1020.96M1549.28 1018.56 1549.28 1020.96M1554.9 1018.56 1554.9 1020.96M1560.51 1018.56 1560.51 1020.96M1335.23 1017.76 1335.23 1020.96M1448.27 1017.76 1448.27 1020.96M1560.51 1017.76 1560.51 1020.96" stroke="#000000" stroke-width="0.601275" stroke-linecap="butt" stroke-linejoin="round" stroke-miterlimit="10" stroke-opacity="1" fill="none" fill-rule="nonzero" transform="matrix(1.00413 0 0 1 -1296.07 -765.623)"/><path d="M1394.2 968.565 1396.6 973.376 1391.79 973.376Z" stroke="#000000" stroke-width="0.601275" stroke-linecap="butt" stroke-linejoin="round" stroke-miterlimit="10" stroke-opacity="1" fill="#D1D1D1" fill-rule="nonzero" fill-opacity="1" transform="matrix(1.00413 0 0 1 -1296.07 -765.623)"/><path d="M1402.21 970.169 1404.62 974.979 1399.81 974.979Z" stroke="#000000" stroke-width="0.601275" stroke-linecap="butt" stroke-linejoin="round" stroke-miterlimit="10" stroke-opacity="1" fill="#D1D1D1" fill-rule="nonzero" fill-opacity="1" transform="matrix(1.00413 0 0 1 -1296.07 -765.623)"/><path d="M1404.62 960.548 1407.02 965.359 1402.21 965.359Z" stroke="#000000" stroke-width="0.601275" stroke-linecap="butt" stroke-linejoin="round" stroke-miterlimit="10" stroke-opacity="1" fill="#D1D1D1" fill-rule="nonzero" fill-opacity="1" transform="matrix(1.00413 0 0 1 -1296.07 -765.623)"/><path d="M1407.02 969.367 1409.43 974.177 1404.62 974.177Z" stroke="#000000" stroke-width="0.601275" stroke-linecap="butt" stroke-linejoin="round" stroke-miterlimit="10" stroke-opacity="1" fill="#D1D1D1" fill-rule="nonzero" fill-opacity="1" transform="matrix(1.00413 0 0 1 -1296.07 -765.623)"/><path d="M1412.64 954.135 1415.04 958.945 1410.23 958.945Z" stroke="#000000" stroke-width="0.601275" stroke-linecap="butt" stroke-linejoin="round" stroke-miterlimit="10" stroke-opacity="1" fill="#D1D1D1" fill-rule="nonzero" fill-opacity="1" transform="matrix(1.00413 0 0 1 -1296.07 -765.623)"/><path d="M1411.83 958.143 1414.24 962.954 1409.43 962.954Z" stroke="#000000" stroke-width="0.601275" stroke-linecap="butt" stroke-linejoin="round" stroke-miterlimit="10" stroke-opacity="1" fill="#D1D1D1" fill-rule="nonzero" fill-opacity="1" transform="matrix(1.00413 0 0 1 -1296.07 -765.623)"/><path d="M1419.85 946.118 1422.26 950.928 1417.45 950.928Z" stroke="#000000" stroke-width="0.601275" stroke-linecap="butt" stroke-linejoin="round" stroke-miterlimit="10" stroke-opacity="1" fill="#D1D1D1" fill-rule="nonzero" fill-opacity="1" transform="matrix(1.00413 0 0 1 -1296.07 -765.623)"/><path d="M1419.85 914.05 1422.26 918.86 1417.45 918.86Z" stroke="#000000" stroke-width="0.601275" stroke-linecap="butt" stroke-linejoin="round" stroke-miterlimit="10" stroke-opacity="1" fill="#D1D1D1" fill-rule="nonzero" fill-opacity="1" transform="matrix(1.00413 0 0 1 -1296.07 -765.623)"/><path d="M1427.07 946.118 1429.47 950.928 1424.66 950.928Z" stroke="#000000" stroke-width="0.601275" stroke-linecap="butt" stroke-linejoin="round" stroke-miterlimit="10" stroke-opacity="1" fill="#D1D1D1" fill-rule="nonzero" fill-opacity="1" transform="matrix(1.00413 0 0 1 -1296.07 -765.623)"/><path d="M1432.68 946.118 1435.08 950.928 1430.27 950.928Z" stroke="#000000" stroke-width="0.601275" stroke-linecap="butt" stroke-linejoin="round" stroke-miterlimit="10" stroke-opacity="1" fill="#D1D1D1" fill-rule="nonzero" fill-opacity="1" transform="matrix(1.00413 0 0 1 -1296.07 -765.623)"/><path d="M1439.89 897.214 1442.3 902.024 1437.49 902.024Z" stroke="#000000" stroke-width="0.601275" stroke-linecap="butt" stroke-linejoin="round" stroke-miterlimit="10" stroke-opacity="1" fill="#D1D1D1" fill-rule="nonzero" fill-opacity="1" transform="matrix(1.00413 0 0 1 -1296.07 -765.623)"/><path d="M1446.31 923.67 1448.71 928.481 1443.9 928.481Z" stroke="#000000" stroke-width="0.601275" stroke-linecap="butt" stroke-linejoin="round" stroke-miterlimit="10" stroke-opacity="1" fill="#D1D1D1" fill-rule="nonzero" fill-opacity="1" transform="matrix(1.00413 0 0 1 -1296.07 -765.623)"/><path d="M1451.92 902.826 1454.32 907.636 1449.51 907.636Z" stroke="#000000" stroke-width="0.601275" stroke-linecap="butt" stroke-linejoin="round" stroke-miterlimit="10" stroke-opacity="1" fill="#D1D1D1" fill-rule="nonzero" fill-opacity="1" transform="matrix(1.00413 0 0 1 -1296.07 -765.623)"/><path d="M1458.33 905.231 1460.74 910.041 1455.93 910.041Z" stroke="#000000" stroke-width="0.601275" stroke-linecap="butt" stroke-linejoin="round" stroke-miterlimit="10" stroke-opacity="1" fill="#D1D1D1" fill-rule="nonzero" fill-opacity="1" transform="matrix(1.00413 0 0 1 -1296.07 -765.623)"/><path d="M1461.54 845.104 1463.94 849.914 1459.13 849.914Z" stroke="#000000" stroke-width="0.601275" stroke-linecap="butt" stroke-linejoin="round" stroke-miterlimit="10" stroke-opacity="1" fill="#D1D1D1" fill-rule="nonzero" fill-opacity="1" transform="matrix(1.00413 0 0 1 -1296.07 -765.623)"/><path d="M1464.75 855.526 1467.15 860.336 1462.34 860.336Z" stroke="#000000" stroke-width="0.601275" stroke-linecap="butt" stroke-linejoin="round" stroke-miterlimit="10" stroke-opacity="1" fill="#D1D1D1" fill-rule="nonzero" fill-opacity="1" transform="matrix(1.00413 0 0 1 -1296.07 -765.623)"/><path d="M1469.56 870.758 1471.96 875.568 1467.15 875.568Z" stroke="#000000" stroke-width="0.601275" stroke-linecap="butt" stroke-linejoin="round" stroke-miterlimit="10" stroke-opacity="1" fill="#D1D1D1" fill-rule="nonzero" fill-opacity="1" transform="matrix(1.00413 0 0 1 -1296.07 -765.623)"/><path d="M1471.16 853.922 1473.56 858.733 1468.75 858.733Z" stroke="#000000" stroke-width="0.601275" stroke-linecap="butt" stroke-linejoin="round" stroke-miterlimit="10" stroke-opacity="1" fill="#D1D1D1" fill-rule="nonzero" fill-opacity="1" transform="matrix(1.00413 0 0 1 -1296.07 -765.623)"/><path d="M1481.58 881.982 1483.99 886.792 1479.18 886.792Z" stroke="#000000" stroke-width="0.601275" stroke-linecap="butt" stroke-linejoin="round" stroke-miterlimit="10" stroke-opacity="1" fill="#D1D1D1" fill-rule="nonzero" fill-opacity="1" transform="matrix(1.00413 0 0 1 -1296.07 -765.623)"/><path d="M1488.8 833.88 1491.2 838.69 1486.39 838.69Z" stroke="#000000" stroke-width="0.601275" stroke-linecap="butt" stroke-linejoin="round" stroke-miterlimit="10" stroke-opacity="1" fill="#D1D1D1" fill-rule="nonzero" fill-opacity="1" transform="matrix(1.00413 0 0 1 -1296.07 -765.623)"/><path d="M1487.99 868.353 1490.4 873.163 1485.59 873.163Z" stroke="#000000" stroke-width="0.601275" stroke-linecap="butt" stroke-linejoin="round" stroke-miterlimit="10" stroke-opacity="1" fill="#D1D1D1" fill-rule="nonzero" fill-opacity="1" transform="matrix(1.00413 0 0 1 -1296.07 -765.623)"/><path d="M1492 823.458 1494.41 828.268 1489.6 828.268Z" stroke="#000000" stroke-width="0.601275" stroke-linecap="butt" stroke-linejoin="round" stroke-miterlimit="10" stroke-opacity="1" fill="#D1D1D1" fill-rule="nonzero" fill-opacity="1" transform="matrix(1.00413 0 0 1 -1296.07 -765.623)"/><path d="M1496.01 788.983 1498.42 793.793 1493.61 793.793Z" stroke="#000000" stroke-width="0.601275" stroke-linecap="butt" stroke-linejoin="round" stroke-miterlimit="10" stroke-opacity="1" fill="#D1D1D1" fill-rule="nonzero" fill-opacity="1" transform="matrix(1.00413 0 0 1 -1296.07 -765.623)"/><path d="M1499.22 822.656 1501.62 827.466 1496.81 827.466Z" stroke="#000000" stroke-width="0.601275" stroke-linecap="butt" stroke-linejoin="round" stroke-miterlimit="10" stroke-opacity="1" fill="#D1D1D1" fill-rule="nonzero" fill-opacity="1" transform="matrix(1.00413 0 0 1 -1296.07 -765.623)"/><path d="M1500.02 844.302 1502.43 849.112 1497.62 849.112Z" stroke="#000000" stroke-width="0.601275" stroke-linecap="butt" stroke-linejoin="round" stroke-miterlimit="10" stroke-opacity="1" fill="#D1D1D1" fill-rule="nonzero" fill-opacity="1" transform="matrix(1.00413 0 0 1 -1296.07 -765.623)"/><path d="M1504.03 821.053 1506.43 825.863 1501.62 825.863Z" stroke="#000000" stroke-width="0.601275" stroke-linecap="butt" stroke-linejoin="round" stroke-miterlimit="10" stroke-opacity="1" fill="#D1D1D1" fill-rule="nonzero" fill-opacity="1" transform="matrix(1.00413 0 0 1 -1296.07 -765.623)"/><path d="M1509.64 812.234 1512.05 817.044 1507.24 817.044Z" stroke="#000000" stroke-width="0.601275" stroke-linecap="butt" stroke-linejoin="round" stroke-miterlimit="10" stroke-opacity="1" fill="#D1D1D1" fill-rule="nonzero" fill-opacity="1" transform="matrix(1.00413 0 0 1 -1296.07 -765.623)"/><path d="M1519.26 817.846 1521.67 822.656 1516.86 822.656Z" stroke="#000000" stroke-width="0.601275" stroke-linecap="butt" stroke-linejoin="round" stroke-miterlimit="10" stroke-opacity="1" fill="#D1D1D1" fill-rule="nonzero" fill-opacity="1" transform="matrix(1.00413 0 0 1 -1296.07 -765.623)"/><path d="M1372.55 974.979 1374.96 979.789 1370.14 979.789Z" stroke="#000000" stroke-width="0.601275" stroke-linecap="butt" stroke-linejoin="round" stroke-miterlimit="10" stroke-opacity="1" fill="#D1D1D1" fill-rule="nonzero" fill-opacity="1" transform="matrix(1.00413 0 0 1 -1296.07 -765.623)"/><path d="M1377.36 975.781 1379.77 980.591 1374.96 980.591Z" stroke="#000000" stroke-width="0.601275" stroke-linecap="butt" stroke-linejoin="round" stroke-miterlimit="10" stroke-opacity="1" fill="#D1D1D1" fill-rule="nonzero" fill-opacity="1" transform="matrix(1.00413 0 0 1 -1296.07 -765.623)"/><path d="M1386.18 979.789 1388.58 984.599 1383.77 984.599Z" stroke="#000000" stroke-width="0.601275" stroke-linecap="butt" stroke-linejoin="round" stroke-miterlimit="10" stroke-opacity="1" fill="#D1D1D1" fill-rule="nonzero" fill-opacity="1" transform="matrix(1.00413 0 0 1 -1296.07 -765.623)"/><path d="M1389.39 974.979 1391.79 979.789 1386.98 979.789Z" stroke="#000000" stroke-width="0.601275" stroke-linecap="butt" stroke-linejoin="round" stroke-miterlimit="10" stroke-opacity="1" fill="#D1D1D1" fill-rule="nonzero" fill-opacity="1" transform="matrix(1.00413 0 0 1 -1296.07 -765.623)"/><path d="M1389.39 970.971 1391.79 975.781 1386.98 975.781Z" stroke="#000000" stroke-width="0.601275" stroke-linecap="butt" stroke-linejoin="round" stroke-miterlimit="10" stroke-opacity="1" fill="#D1D1D1" fill-rule="nonzero" fill-opacity="1" transform="matrix(1.00413 0 0 1 -1296.07 -765.623)"/><path d="M1397.4 970.971 1399.81 975.781 1395 975.781Z" stroke="#000000" stroke-width="0.601275" stroke-linecap="butt" stroke-linejoin="round" stroke-miterlimit="10" stroke-opacity="1" fill="#D1D1D1" fill-rule="nonzero" fill-opacity="1" transform="matrix(1.00413 0 0 1 -1296.07 -765.623)"/><path d="M1394.2 962.954 1396.6 967.764 1391.79 967.764Z" stroke="#000000" stroke-width="0.601275" stroke-linecap="butt" stroke-linejoin="round" stroke-miterlimit="10" stroke-opacity="1" fill="#D1D1D1" fill-rule="nonzero" fill-opacity="1" transform="matrix(1.00413 0 0 1 -1296.07 -765.623)"/><path d="M1399.81 962.152 1402.21 966.962 1397.4 966.962Z" stroke="#000000" stroke-width="0.601275" stroke-linecap="butt" stroke-linejoin="round" stroke-miterlimit="10" stroke-opacity="1" fill="#D1D1D1" fill-rule="nonzero" fill-opacity="1" transform="matrix(1.00413 0 0 1 -1296.07 -765.623)"/><path d="M1399.01 958.945 1401.41 963.755 1396.6 963.755Z" stroke="#000000" stroke-width="0.601275" stroke-linecap="butt" stroke-linejoin="round" stroke-miterlimit="10" stroke-opacity="1" fill="#D1D1D1" fill-rule="nonzero" fill-opacity="1" transform="matrix(1.00413 0 0 1 -1296.07 -765.623)"/><path d="M1405.42 948.523 1407.82 953.333 1403.01 953.333Z" stroke="#000000" stroke-width="0.601275" stroke-linecap="butt" stroke-linejoin="round" stroke-miterlimit="10" stroke-opacity="1" fill="#D1D1D1" fill-rule="nonzero" fill-opacity="1" transform="matrix(1.00413 0 0 1 -1296.07 -765.623)"/><path d="M1412.64 950.126 1415.04 954.937 1410.23 954.937Z" stroke="#000000" stroke-width="0.601275" stroke-linecap="butt" stroke-linejoin="round" stroke-miterlimit="10" stroke-opacity="1" fill="#D1D1D1" fill-rule="nonzero" fill-opacity="1" transform="matrix(1.00413 0 0 1 -1296.07 -765.623)"/><path d="M1409.43 949.325 1411.83 954.135 1407.02 954.135Z" stroke="#000000" stroke-width="0.601275" stroke-linecap="butt" stroke-linejoin="round" stroke-miterlimit="10" stroke-opacity="1" fill="#D1D1D1" fill-rule="nonzero" fill-opacity="1" transform="matrix(1.00413 0 0 1 -1296.07 -765.623)"/><path d="M1408.63 943.713 1411.03 948.523 1406.22 948.523Z" stroke="#000000" stroke-width="0.601275" stroke-linecap="butt" stroke-linejoin="round" stroke-miterlimit="10" stroke-opacity="1" fill="#D1D1D1" fill-rule="nonzero" fill-opacity="1" transform="matrix(1.00413 0 0 1 -1296.07 -765.623)"/><path d="M1412.64 936.497 1415.04 941.308 1410.23 941.308Z" stroke="#000000" stroke-width="0.601275" stroke-linecap="butt" stroke-linejoin="round" stroke-miterlimit="10" stroke-opacity="1" fill="#D1D1D1" fill-rule="nonzero" fill-opacity="1" transform="matrix(1.00413 0 0 1 -1296.07 -765.623)"/><path d="M1416.64 930.886 1419.05 935.696 1414.24 935.696Z" stroke="#000000" stroke-width="0.601275" stroke-linecap="butt" stroke-linejoin="round" stroke-miterlimit="10" stroke-opacity="1" fill="#D1D1D1" fill-rule="nonzero" fill-opacity="1" transform="matrix(1.00413 0 0 1 -1296.07 -765.623)"/><path d="M1412.64 946.92 1415.04 951.73 1410.23 951.73Z" stroke="#000000" stroke-width="0.601275" stroke-linecap="butt" stroke-linejoin="round" stroke-miterlimit="10" stroke-opacity="1" fill="#D1D1D1" fill-rule="nonzero" fill-opacity="1" transform="matrix(1.00413 0 0 1 -1296.07 -765.623)"/><path d="M1415.84 939.704 1418.25 944.514 1413.44 944.514Z" stroke="#000000" stroke-width="0.601275" stroke-linecap="butt" stroke-linejoin="round" stroke-miterlimit="10" stroke-opacity="1" fill="#D1D1D1" fill-rule="nonzero" fill-opacity="1" transform="matrix(1.00413 0 0 1 -1296.07 -765.623)"/><path d="M1412.64 943.713 1415.04 948.523 1410.23 948.523Z" stroke="#000000" stroke-width="0.601275" stroke-linecap="butt" stroke-linejoin="round" stroke-miterlimit="10" stroke-opacity="1" fill="#D1D1D1" fill-rule="nonzero" fill-opacity="1" transform="matrix(1.00413 0 0 1 -1296.07 -765.623)"/><path d="M1419.05 943.713 1421.45 948.523 1416.64 948.523Z" stroke="#000000" stroke-width="0.601275" stroke-linecap="butt" stroke-linejoin="round" stroke-miterlimit="10" stroke-opacity="1" fill="#D1D1D1" fill-rule="nonzero" fill-opacity="1" transform="matrix(1.00413 0 0 1 -1296.07 -765.623)"/><path d="M1424.66 938.903 1427.07 943.713 1422.26 943.713Z" stroke="#000000" stroke-width="0.601275" stroke-linecap="butt" stroke-linejoin="round" stroke-miterlimit="10" stroke-opacity="1" fill="#D1D1D1" fill-rule="nonzero" fill-opacity="1" transform="matrix(1.00413 0 0 1 -1296.07 -765.623)"/><path d="M1423.86 934.092 1426.26 938.903 1421.45 938.903Z" stroke="#000000" stroke-width="0.601275" stroke-linecap="butt" stroke-linejoin="round" stroke-miterlimit="10" stroke-opacity="1" fill="#D1D1D1" fill-rule="nonzero" fill-opacity="1" transform="matrix(1.00413 0 0 1 -1296.07 -765.623)"/><path d="M1427.87 942.911 1430.27 947.721 1425.46 947.721Z" stroke="#000000" stroke-width="0.601275" stroke-linecap="butt" stroke-linejoin="round" stroke-miterlimit="10" stroke-opacity="1" fill="#D1D1D1" fill-rule="nonzero" fill-opacity="1" transform="matrix(1.00413 0 0 1 -1296.07 -765.623)"/><path d="M1423.86 945.316 1426.26 950.126 1421.45 950.126Z" stroke="#000000" stroke-width="0.601275" stroke-linecap="butt" stroke-linejoin="round" stroke-miterlimit="10" stroke-opacity="1" fill="#D1D1D1" fill-rule="nonzero" fill-opacity="1" transform="matrix(1.00413 0 0 1 -1296.07 -765.623)"/><path d="M1425.46 928.481 1427.87 933.291 1423.06 933.291Z" stroke="#000000" stroke-width="0.601275" stroke-linecap="butt" stroke-linejoin="round" stroke-miterlimit="10" stroke-opacity="1" fill="#D1D1D1" fill-rule="nonzero" fill-opacity="1" transform="matrix(1.00413 0 0 1 -1296.07 -765.623)"/><path d="M1430.27 930.886 1432.68 935.696 1427.87 935.696Z" stroke="#000000" stroke-width="0.601275" stroke-linecap="butt" stroke-linejoin="round" stroke-miterlimit="10" stroke-opacity="1" fill="#D1D1D1" fill-rule="nonzero" fill-opacity="1" transform="matrix(1.00413 0 0 1 -1296.07 -765.623)"/><path d="M1431.88 937.299 1434.28 942.109 1429.47 942.109Z" stroke="#000000" stroke-width="0.601275" stroke-linecap="butt" stroke-linejoin="round" stroke-miterlimit="10" stroke-opacity="1" fill="#D1D1D1" fill-rule="nonzero" fill-opacity="1" transform="matrix(1.00413 0 0 1 -1296.07 -765.623)"/><path d="M1433.48 931.687 1435.88 936.497 1431.07 936.497Z" stroke="#000000" stroke-width="0.601275" stroke-linecap="butt" stroke-linejoin="round" stroke-miterlimit="10" stroke-opacity="1" fill="#D1D1D1" fill-rule="nonzero" fill-opacity="1" transform="matrix(1.00413 0 0 1 -1296.07 -765.623)"/><path d="M1431.88 924.472 1434.28 929.282 1429.47 929.282Z" stroke="#000000" stroke-width="0.601275" stroke-linecap="butt" stroke-linejoin="round" stroke-miterlimit="10" stroke-opacity="1" fill="#D1D1D1" fill-rule="nonzero" fill-opacity="1" transform="matrix(1.00413 0 0 1 -1296.07 -765.623)"/><path d="M1436.69 924.472 1439.09 929.282 1434.28 929.282Z" stroke="#000000" stroke-width="0.601275" stroke-linecap="butt" stroke-linejoin="round" stroke-miterlimit="10" stroke-opacity="1" fill="#D1D1D1" fill-rule="nonzero" fill-opacity="1" transform="matrix(1.00413 0 0 1 -1296.07 -765.623)"/><path d="M1443.1 919.662 1445.5 924.472 1440.69 924.472Z" stroke="#000000" stroke-width="0.601275" stroke-linecap="butt" stroke-linejoin="round" stroke-miterlimit="10" stroke-opacity="1" fill="#D1D1D1" fill-rule="nonzero" fill-opacity="1" transform="matrix(1.00413 0 0 1 -1296.07 -765.623)"/><path d="M1443.1 910.041 1445.5 914.852 1440.69 914.852Z" stroke="#000000" stroke-width="0.601275" stroke-linecap="butt" stroke-linejoin="round" stroke-miterlimit="10" stroke-opacity="1" fill="#D1D1D1" fill-rule="nonzero" fill-opacity="1" transform="matrix(1.00413 0 0 1 -1296.07 -765.623)"/><path d="M1464.75 902.826 1467.15 907.636 1462.34 907.636Z" stroke="#000000" stroke-width="0.601275" stroke-linecap="butt" stroke-linejoin="round" stroke-miterlimit="10" stroke-opacity="1" fill="#D1D1D1" fill-rule="nonzero" fill-opacity="1" transform="matrix(1.00413 0 0 1 -1296.07 -765.623)"/><path d="M1467.95 906.033 1470.36 910.843 1465.55 910.843Z" stroke="#000000" stroke-width="0.601275" stroke-linecap="butt" stroke-linejoin="round" stroke-miterlimit="10" stroke-opacity="1" fill="#D1D1D1" fill-rule="nonzero" fill-opacity="1" transform="matrix(1.00413 0 0 1 -1296.07 -765.623)"/><path d="M1456.73 888.396 1459.13 893.206 1454.32 893.206Z" stroke="#000000" stroke-width="0.601275" stroke-linecap="butt" stroke-linejoin="round" stroke-miterlimit="10" stroke-opacity="1" fill="#D1D1D1" fill-rule="nonzero" fill-opacity="1" transform="matrix(1.00413 0 0 1 -1296.07 -765.623)"/><path d="M1449.51 877.172 1451.92 881.982 1447.11 881.982Z" stroke="#000000" stroke-width="0.601275" stroke-linecap="butt" stroke-linejoin="round" stroke-miterlimit="10" stroke-opacity="1" fill="#D1D1D1" fill-rule="nonzero" fill-opacity="1" transform="matrix(1.00413 0 0 1 -1296.07 -765.623)"/><path d="M1459.94 877.172 1462.34 881.982 1457.53 881.982Z" stroke="#000000" stroke-width="0.601275" stroke-linecap="butt" stroke-linejoin="round" stroke-miterlimit="10" stroke-opacity="1" fill="#D1D1D1" fill-rule="nonzero" fill-opacity="1" transform="matrix(1.00413 0 0 1 -1296.07 -765.623)"/><path d="M1467.15 873.965 1469.56 878.775 1464.75 878.775Z" stroke="#000000" stroke-width="0.601275" stroke-linecap="butt" stroke-linejoin="round" stroke-miterlimit="10" stroke-opacity="1" fill="#D1D1D1" fill-rule="nonzero" fill-opacity="1" transform="matrix(1.00413 0 0 1 -1296.07 -765.623)"/><path d="M1460.74 880.379 1463.14 885.189 1458.33 885.189Z" stroke="#000000" stroke-width="0.601275" stroke-linecap="butt" stroke-linejoin="round" stroke-miterlimit="10" stroke-opacity="1" fill="#D1D1D1" fill-rule="nonzero" fill-opacity="1" transform="matrix(1.00413 0 0 1 -1296.07 -765.623)"/><path d="M1465.55 880.379 1467.95 885.189 1463.14 885.189Z" stroke="#000000" stroke-width="0.601275" stroke-linecap="butt" stroke-linejoin="round" stroke-miterlimit="10" stroke-opacity="1" fill="#D1D1D1" fill-rule="nonzero" fill-opacity="1" transform="matrix(1.00413 0 0 1 -1296.07 -765.623)"/><path d="M1468.75 885.189 1471.16 889.999 1466.35 889.999Z" stroke="#000000" stroke-width="0.601275" stroke-linecap="butt" stroke-linejoin="round" stroke-miterlimit="10" stroke-opacity="1" fill="#D1D1D1" fill-rule="nonzero" fill-opacity="1" transform="matrix(1.00413 0 0 1 -1296.07 -765.623)"/><path d="M1481.58 903.628 1483.99 908.438 1479.18 908.438Z" stroke="#000000" stroke-width="0.601275" stroke-linecap="butt" stroke-linejoin="round" stroke-miterlimit="10" stroke-opacity="1" fill="#D1D1D1" fill-rule="nonzero" fill-opacity="1" transform="matrix(1.00413 0 0 1 -1296.07 -765.623)"/><path d="M1477.57 877.172 1479.98 881.982 1475.17 881.982Z" stroke="#000000" stroke-width="0.601275" stroke-linecap="butt" stroke-linejoin="round" stroke-miterlimit="10" stroke-opacity="1" fill="#D1D1D1" fill-rule="nonzero" fill-opacity="1" transform="matrix(1.00413 0 0 1 -1296.07 -765.623)"/><path d="M1480.78 874.767 1483.18 879.577 1478.37 879.577Z" stroke="#000000" stroke-width="0.601275" stroke-linecap="butt" stroke-linejoin="round" stroke-miterlimit="10" stroke-opacity="1" fill="#D1D1D1" fill-rule="nonzero" fill-opacity="1" transform="matrix(1.00413 0 0 1 -1296.07 -765.623)"/><path d="M1475.97 869.155 1478.37 873.965 1473.56 873.965Z" stroke="#000000" stroke-width="0.601275" stroke-linecap="butt" stroke-linejoin="round" stroke-miterlimit="10" stroke-opacity="1" fill="#D1D1D1" fill-rule="nonzero" fill-opacity="1" transform="matrix(1.00413 0 0 1 -1296.07 -765.623)"/><path d="M1487.99 859.534 1490.4 864.345 1485.59 864.345Z" stroke="#000000" stroke-width="0.601275" stroke-linecap="butt" stroke-linejoin="round" stroke-miterlimit="10" stroke-opacity="1" fill="#D1D1D1" fill-rule="nonzero" fill-opacity="1" transform="matrix(1.00413 0 0 1 -1296.07 -765.623)"/><path d="M1492 854.724 1494.41 859.534 1489.6 859.534Z" stroke="#000000" stroke-width="0.601275" stroke-linecap="butt" stroke-linejoin="round" stroke-miterlimit="10" stroke-opacity="1" fill="#D1D1D1" fill-rule="nonzero" fill-opacity="1" transform="matrix(1.00413 0 0 1 -1296.07 -765.623)"/><path d="M1496.81 854.724 1499.22 859.534 1494.41 859.534Z" stroke="#000000" stroke-width="0.601275" stroke-linecap="butt" stroke-linejoin="round" stroke-miterlimit="10" stroke-opacity="1" fill="#D1D1D1" fill-rule="nonzero" fill-opacity="1" transform="matrix(1.00413 0 0 1 -1296.07 -765.623)"/><path d="M1492 848.311 1494.41 853.121 1489.6 853.121Z" stroke="#000000" stroke-width="0.601275" stroke-linecap="butt" stroke-linejoin="round" stroke-miterlimit="10" stroke-opacity="1" fill="#D1D1D1" fill-rule="nonzero" fill-opacity="1" transform="matrix(1.00413 0 0 1 -1296.07 -765.623)"/><path d="M1500.82 837.888 1503.23 842.699 1498.42 842.699Z" stroke="#000000" stroke-width="0.601275" stroke-linecap="butt" stroke-linejoin="round" stroke-miterlimit="10" stroke-opacity="1" fill="#D1D1D1" fill-rule="nonzero" fill-opacity="1" transform="matrix(1.00413 0 0 1 -1296.07 -765.623)"/><path d="M1539.3 786.578 1541.71 791.388 1536.9 791.388Z" stroke="#000000" stroke-width="0.601275" stroke-linecap="butt" stroke-linejoin="round" stroke-miterlimit="10" stroke-opacity="1" fill="#D1D1D1" fill-rule="nonzero" fill-opacity="1" transform="matrix(1.00413 0 0 1 -1296.07 -765.623)"/><path d="M1553.73 795.397 1556.14 800.207 1551.33 800.207Z" stroke="#000000" stroke-width="0.601275" stroke-linecap="butt" stroke-linejoin="round" stroke-miterlimit="10" stroke-opacity="1" fill="#D1D1D1" fill-rule="nonzero" fill-opacity="1" transform="matrix(1.00413 0 0 1 -1296.07 -765.623)"/><path d="M1550.53 805.82 1552.93 810.631 1548.12 810.631Z" stroke="#000000" stroke-width="0.601275" stroke-linecap="butt" stroke-linejoin="round" stroke-miterlimit="10" stroke-opacity="1" fill="#D1D1D1" fill-rule="nonzero" fill-opacity="1" transform="matrix(1.00413 0 0 1 -1296.07 -765.623)"/><path d="M1540.91 849.914 1543.31 854.724 1538.5 854.724Z" stroke="#000000" stroke-width="0.601275" stroke-linecap="butt" stroke-linejoin="round" stroke-miterlimit="10" stroke-opacity="1" fill="#D1D1D1" fill-rule="nonzero" fill-opacity="1" transform="matrix(1.00413 0 0 1 -1296.07 -765.623)"/><path d="M1487.99 935.696 1490.4 940.506 1485.59 940.506Z" stroke="#000000" stroke-width="0.601275" stroke-linecap="butt" stroke-linejoin="round" stroke-miterlimit="10" stroke-opacity="1" fill="#D1D1D1" fill-rule="nonzero" fill-opacity="1" transform="matrix(1.00413 0 0 1 -1296.07 -765.623)"/><path d="M1372.91 994.508 1373.71 993.707 1374.51 993.707 1374.51 992.905 1375.32 992.103 1375.32 991.302 1376.12 991.302 1376.92 990.5 1376.92 989.698 1377.72 989.698 1377.72 988.897 1378.52 988.095 1379.32 988.095 1379.32 987.293 1380.13 986.491 1380.13 985.69 1380.93 985.69 1381.73 984.888 1381.73 984.086 1382.53 984.086 1383.33 983.285 1383.33 982.483 1384.13 982.483 1384.13 981.681 1384.94 980.88 1385.74 980.88 1385.74 980.078 1386.54 979.276 1386.54 978.474 1387.34 978.474 1388.14 977.673 1388.14 976.871 1388.94 976.871 1388.94 976.069 1389.75 975.268 1390.55 975.268 1390.55 974.466 1391.35 973.664 1391.35 972.863 1392.15 972.863 1392.95 972.061 1392.95 971.259 1393.75 971.259 1393.75 970.457 1394.56 969.656 1395.36 969.656 1395.36 968.854 1396.16 968.052 1396.96 967.251 1397.76 966.449 1397.76 965.647 1398.57 965.647 1398.57 964.846 1399.37 964.044 1400.17 964.044 1400.17 963.242 1400.97 962.44 1401.77 961.639 1402.57 960.837 1402.57 960.035 1403.38 960.035 1403.38 959.234 1404.18 958.432 1404.98 958.432 1404.98 957.63 1405.78 956.829 1406.58 956.829 1406.58 956.027 1407.38 955.225 1408.19 954.423 1408.99 953.622 1408.99 952.82 1409.79 952.82 1409.79 952.018 1410.59 951.217 1411.39 951.217 1411.39 950.415 1412.19 949.613 1413 948.812 1413.8 948.01 1413.8 947.208 1414.6 947.208 1414.6 946.406 1415.4 945.605 1416.2 945.605 1416.2 944.803 1417 944.001 1417.81 943.2 1418.61 942.398 1419.41 941.596 1419.41 940.795 1420.21 939.993 1421.01 939.993 1421.01 939.191 1421.81 938.39 1422.62 937.588 1423.42 936.786 1424.22 935.984 1424.22 935.183 1425.02 934.381 1425.82 934.381 1425.82 933.579 1426.62 932.778 1427.43 931.976 1428.23 931.174 1429.03 930.372 1429.83 929.571 1430.63 928.769 1430.63 927.967 1431.43 927.166 1432.24 927.166 1432.24 926.364 1433.04 925.562 1433.84 924.761 1434.64 923.959 1435.44 923.157 1435.44 922.356 1436.24 921.554 1437.05 921.554 1437.05 920.752 1437.85 919.95 1438.65 919.149 1439.45 918.347 1440.25 917.545 1440.25 916.744 1441.06 916.744 1441.86 915.942 1441.86 915.14 1442.66 914.339 1443.46 913.537 1444.26 912.735 1445.06 911.933 1445.06 911.132 1445.87 911.132 1446.67 910.33 1446.67 909.528 1447.47 908.727 1448.27 907.925 1449.07 907.123 1449.87 906.322 1450.68 905.52 1451.48 904.718 1451.48 903.916 1452.28 903.916 1453.08 903.115 1453.08 902.313 1453.88 901.511 1454.68 900.71 1455.49 899.908 1456.29 899.106 1456.29 898.305 1457.09 898.305 1457.89 897.503 1457.89 896.701 1458.69 895.899 1459.49 895.098 1460.3 894.296 1461.1 893.494 1461.1 892.693 1461.9 892.693 1462.7 891.891 1462.7 891.089 1463.5 890.288 1464.3 889.486 1465.11 888.684 1465.91 887.882 1465.91 887.081 1466.71 887.081 1467.51 886.279 1467.51 885.477 1468.31 885.477 1468.31 884.676 1469.11 883.874 1469.92 883.072 1470.72 882.271 1470.72 881.469 1471.52 881.469 1472.32 880.667 1472.32 879.865 1473.12 879.865 1473.92 879.064 1473.92 878.262 1474.73 877.46 1475.53 876.659 1476.33 875.857 1477.13 875.055 1477.13 874.254 1477.93 874.254 1478.74 873.452 1478.74 872.65 1479.54 872.65 1479.54 871.848 1480.34 871.047 1481.14 870.245 1481.94 869.443 1481.94 868.642 1482.74 868.642 1483.55 867.84 1483.55 867.038 1484.35 867.038 1484.35 866.237 1485.15 865.435 1485.95 864.633 1486.75 863.831 1486.75 863.03 1487.55 863.03 1488.36 862.228 1488.36 861.426 1489.16 861.426 1489.16 860.625 1489.96 859.823 1490.76 859.823 1490.76 859.021 1491.56 858.22 1491.56 857.418 1492.36 857.418 1493.17 856.616 1493.17 855.814 1493.97 855.814 1494.77 855.013 1494.77 854.211 1495.57 854.211 1495.57 853.409 1496.37 852.608 1497.17 851.806 1497.98 851.004 1497.98 850.203 1498.78 850.203 1499.58 849.401 1499.58 848.599 1500.38 848.599 1500.38 847.797 1501.18 846.996 1501.98 846.996 1501.98 846.194 1502.79 845.392 1502.79 844.591 1503.59 844.591 1504.39 843.789 1504.39 842.987 1505.19 842.987 1505.19 842.186 1505.99 841.384 1506.79 841.384 1506.79 840.582 1507.6 839.78 1507.6 838.979 1508.4 838.979 1509.2 838.177 1509.2 837.375 1510 837.375 1510 836.574 1510.8 835.772 1511.6 835.772 1511.6 834.97 1512.41 834.169 1513.21 833.367 1514.01 832.565 1514.01 831.763 1514.81 831.763 1514.81 830.962 1515.61 830.16 1516.42 830.16 1516.42 829.358 1517.22 828.557 1518.02 828.557 1518.02 827.755 1518.82 826.953 1518.82 826.152 1519.62 826.152 1520.42 825.35 1520.42 824.548 1521.23 824.548 1521.23 823.746 1522.03 822.945 1522.83 822.945 1522.83 822.143 1523.63 821.341 1524.43 820.54 1525.23 819.738 1525.23 818.936 1526.04 818.936 1526.04 818.135 1526.84 817.333 1527.64 817.333 1527.64 816.531 1528.44 815.729 1529.24 814.928 1530.04 814.126 1530.04 813.324 1530.85 813.324 1530.85 812.523 1531.65 811.721 1532.45 811.721 1532.45 810.919 1533.25 810.118 1534.05 809.316 1534.85 808.514 1534.85 807.712 1535.66 807.712 1535.66 806.911 1536.46 806.109 1537.26 806.109 1537.26 805.307 1538.06 804.506 1538.86 804.506 1538.86 803.704 1539.66 802.902 1540.47 802.101 1541.27 801.299 1541.27 800.497 1542.07 800.497 1542.07 799.695 1542.87 798.894 1543.67 798.894 1543.67 798.092 1544.47 797.29 1545.28 796.489 1546.08 795.687 1546.08 794.885 1546.88 794.885 1546.88 794.084 1547.68 793.282 1548.48 793.282 1548.48 792.48 1549.28 791.678 1550.09 790.877 1550.89 790.075 1551.69 789.273 1551.69 788.472 1552.49 787.67 1553.29 787.67 1553.29 786.868 1554.09 786.067" stroke="#000000" stroke-width="0.8017" stroke-linecap="round" stroke-linejoin="round" stroke-miterlimit="10" stroke-opacity="1" fill="none" fill-rule="nonzero" transform="matrix(1.00413 0 0 1 -1296.07 -765.623)"/><text fill="#000000" fill-opacity="1" font-family="Arial,Arial_MSFontService,sans-serif" font-style="normal" font-variant="normal" font-weight="400" font-stretch="normal" font-size="11" text-anchor="start" direction="ltr" writing-mode="lr-tb" unicode-bidi="normal" text-decoration="none" transform="matrix(0.805014 0 0 0.8017 17.7506 258)">0.00</text><text fill="#000000" fill-opacity="1" font-family="Arial,Arial_MSFontService,sans-serif" font-style="normal" font-variant="normal" font-weight="400" font-stretch="normal" font-size="11" text-anchor="start" direction="ltr" writing-mode="lr-tb" unicode-bidi="normal" text-decoration="none" transform="matrix(0.805014 0 0 0.8017 17.7506 227)">0.05</text><text fill="#000000" fill-opacity="1" font-family="Arial,Arial_MSFontService,sans-serif" font-style="normal" font-variant="normal" font-weight="400" font-stretch="normal" font-size="11" text-anchor="start" direction="ltr" writing-mode="lr-tb" unicode-bidi="normal" text-decoration="none" transform="matrix(0.805014 0 0 0.8017 17.7506 196)">0.10</text><text fill="#000000" fill-opacity="1" font-family="Arial,Arial_MSFontService,sans-serif" font-style="normal" font-variant="normal" font-weight="400" font-stretch="normal" font-size="11" text-anchor="start" direction="ltr" writing-mode="lr-tb" unicode-bidi="normal" text-decoration="none" transform="matrix(0.805014 0 0 0.8017 17.7506 165)">0.15</text><text fill="#000000" fill-opacity="1" font-family="Arial,Arial_MSFontService,sans-serif" font-style="normal" font-variant="normal" font-weight="400" font-stretch="normal" font-size="11" text-anchor="start" direction="ltr" writing-mode="lr-tb" unicode-bidi="normal" text-decoration="none" transform="matrix(0.805014 0 0 0.8017 17.7506 135)">0.20</text><text fill="#000000" fill-opacity="1" font-family="Arial,Arial_MSFontService,sans-serif" font-style="normal" font-variant="normal" font-weight="400" font-stretch="normal" font-size="11" text-anchor="start" direction="ltr" writing-mode="lr-tb" unicode-bidi="normal" text-decoration="none" transform="matrix(0.805014 0 0 0.8017 17.7506 103)">0.25</text><text fill="#000000" fill-opacity="1" font-family="Arial,Arial_MSFontService,sans-serif" font-style="normal" font-variant="normal" font-weight="400" font-stretch="normal" font-size="11" text-anchor="start" direction="ltr" writing-mode="lr-tb" unicode-bidi="normal" text-decoration="none" transform="matrix(0.805014 0 0 0.8017 17.7506 73)">0.30</text><text fill="#000000" fill-opacity="1" font-family="Arial,Arial_MSFontService,sans-serif" font-style="normal" font-variant="normal" font-weight="400" font-stretch="normal" font-size="11" text-anchor="start" direction="ltr" writing-mode="lr-tb" unicode-bidi="normal" text-decoration="none" transform="matrix(0.805014 0 0 0.8017 17.7506 42)">0.35</text><text fill="#000000" fill-opacity="1" font-family="Arial,Arial_MSFontService,sans-serif" font-style="normal" font-variant="normal" font-weight="400" font-stretch="normal" font-size="11" text-anchor="start" direction="ltr" writing-mode="lr-tb" unicode-bidi="normal" text-decoration="none" transform="matrix(0.805014 0 0 0.8017 17.7506 11)">0.40</text><text fill="#000000" fill-opacity="1" font-family="Arial,Arial_MSFontService,sans-serif" font-style="normal" font-variant="normal" font-weight="400" font-stretch="normal" font-size="11" text-anchor="start" direction="ltr" writing-mode="lr-tb" unicode-bidi="normal" text-decoration="none" transform="matrix(0.805014 0 0 0.8017 40.138 269)">10</text><text fill="#000000" fill-opacity="1" font-family="Arial,Arial_MSFontService,sans-serif" font-style="normal" font-variant="normal" font-weight="400" font-stretch="normal" font-size="11" text-anchor="start" direction="ltr" writing-mode="lr-tb" unicode-bidi="normal" text-decoration="none" transform="matrix(0.805014 0 0 0.8017 150.465 269)">100</text><text fill="#000000" fill-opacity="1" font-family="Arial,Arial_MSFontService,sans-serif" font-style="normal" font-variant="normal" font-weight="400" font-stretch="normal" font-size="11" text-anchor="start" direction="ltr" writing-mode="lr-tb" unicode-bidi="normal" text-decoration="none" transform="matrix(0.805014 0 0 0.8017 260.792 269)">1000</text><text fill="#000000" fill-opacity="1" font-family="Arial,Arial_MSFontService,sans-serif" font-style="normal" font-variant="normal" font-weight="400" font-stretch="normal" font-size="11" text-anchor="start" direction="ltr" writing-mode="lr-tb" unicode-bidi="normal" text-decoration="none" transform="matrix(0.805014 0 0 0.8017 109.369 280)">Natural water content: %</text><text fill="#000000" fill-opacity="1" font-family="Arial,Arial_MSFontService,sans-serif" font-style="normal" font-variant="normal" font-weight="400" font-stretch="normal" font-size="11" text-anchor="start" direction="ltr" writing-mode="lr-tb" unicode-bidi="normal" text-decoration="none" transform="matrix(0.805014 0 0 0.8017 57.6551 21)">Data after Matsuo (1986)</text><text fill="#000000" fill-opacity="1" font-family="Arial,Arial_MSFontService,sans-serif" font-style="normal" font-variant="normal" font-weight="400" font-stretch="normal" font-size="11" text-anchor="start" direction="ltr" writing-mode="lr-tb" unicode-bidi="normal" text-decoration="none" transform="matrix(-1.47879e-16 -0.8017 0.805014 -1.4727e-16 11.3909 177)">Compression index </text><text fill="#000000" fill-opacity="1" font-family="Cambria Math,Cambria Math_MSFontService,sans-serif" font-style="normal" font-variant="normal" font-weight="400" font-stretch="normal" font-size="11" text-anchor="start" direction="ltr" writing-mode="lr-tb" unicode-bidi="normal" text-decoration="none" transform="matrix(-1.47879e-16 -0.8017 0.805014 -1.4727e-16 11.3909 99)">𝜆</text><text fill="#000000" fill-opacity="1" font-family="Cambria Math,Cambria Math_MSFontService,sans-serif" font-style="normal" font-variant="normal" font-weight="400" font-stretch="normal" font-size="8" text-anchor="start" direction="ltr" writing-mode="lr-tb" unicode-bidi="normal" text-decoration="none" transform="matrix(-1.47879e-16 -0.8017 0.805014 -1.4727e-16 8.14674 95)">∗</text><text fill="#000000" fill-opacity="1" font-family="Arial,Arial_MSFontService,sans-serif" font-style="normal" font-variant="normal" font-weight="400" font-stretch="normal" font-size="11" text-anchor="start" direction="ltr" writing-mode="lr-tb" unicode-bidi="normal" text-decoration="none" transform="matrix(-1.47879e-16 -0.8017 0.805014 -1.4727e-16 11.3909 91)">: </text><text fill="#000000" fill-opacity="1" font-family="Arial,Arial_MSFontService,sans-serif" font-style="normal" font-variant="normal" font-weight="400" font-stretch="normal" font-size="11" text-anchor="start" direction="ltr" writing-mode="lr-tb" unicode-bidi="normal" text-decoration="none" transform="matrix(-1.47879e-16 -0.8017 0.805014 -1.4727e-16 11.3909 87)">-</text></g></g></g></g></g></g></g></svg>