<svg width="226" height="213" xmlns="http://www.w3.org/2000/svg" xmlns:xlink="http://www.w3.org/1999/xlink" xml:space="preserve" overflow="hidden"><defs><clipPath id="clip0"><rect x="0" y="0" width="226" height="213"/></clipPath><clipPath id="clip1"><rect x="0" y="0" width="226" height="213"/></clipPath><clipPath id="clip2"><rect x="2" y="-8" width="8" height="248"/></clipPath><clipPath id="clip3"><rect x="2" y="-8" width="8" height="248"/></clipPath><clipPath id="clip4"><rect x="2" y="-8" width="8" height="248"/></clipPath></defs><g clip-path="url(#clip0)"><g clip-path="url(#clip1)"><path d="M847.03 25.6676 1073.03 25.6676 1073.03 238.521 847.03 238.521Z" fill="#FFFFFF" fill-rule="nonzero" fill-opacity="1" transform="matrix(1 0 0 1.00069 -847.03 -25.6853)"/><path d="M0 0 4.92943e-05 186.873" stroke="#000000" stroke-width="0.626039" stroke-linecap="butt" stroke-linejoin="round" stroke-miterlimit="10" stroke-opacity="1" fill="none" fill-rule="evenodd" transform="matrix(1 0 0 -1.00069 30.3629 209.554)"/><path d="M877.393 235.078 878.958 235.078M877.393 229.756 878.958 229.756M877.393 224.435 878.958 224.435M877.393 218.801 878.958 218.801M877.393 213.479 878.958 213.479M877.393 208.158 878.958 208.158M877.393 202.837 878.958 202.837M877.393 197.515 878.958 197.515M877.393 192.194 878.958 192.194M877.393 186.873 878.958 186.873M877.393 181.551 878.958 181.551M877.393 176.23 878.958 176.23M877.393 170.909 878.958 170.909M877.393 165.587 878.958 165.587M877.393 160.266 878.958 160.266M877.393 154.945 878.958 154.945M877.393 149.623 878.958 149.623M877.393 144.302 878.958 144.302M877.393 138.981 878.958 138.981M877.393 133.659 878.958 133.659M877.393 128.338 878.958 128.338M877.393 123.017 878.958 123.017M877.393 117.695 878.958 117.695M877.393 112.374 878.958 112.374M877.393 107.053 878.958 107.053M877.393 101.731 878.958 101.731M877.393 96.41 878.958 96.41M877.393 91.0886 878.958 91.0886M877.393 85.7673 878.958 85.7673M877.393 80.446 878.958 80.446M877.393 75.1247 878.958 75.1247M877.393 69.8033 878.958 69.8033M877.393 64.482 878.958 64.482M877.393 59.1607 878.958 59.1607M877.393 53.5263 878.958 53.5263M877.393 48.205 878.958 48.205M877.393 235.078 879.584 235.078M877.393 208.158 879.584 208.158M877.393 181.551 879.584 181.551M877.393 154.945 879.584 154.945M877.393 128.338 879.584 128.338M877.393 101.731 879.584 101.731M877.393 75.1247 879.584 75.1247M877.393 48.205 879.584 48.205" stroke="#000000" stroke-width="0.626039" stroke-linecap="butt" stroke-linejoin="round" stroke-miterlimit="10" stroke-opacity="1" fill="none" fill-rule="nonzero" transform="matrix(1 0 0 1.00069 -847.03 -25.6853)"/><path d="M877.393 48.205 1062.07 48.205" stroke="#000000" stroke-width="0.626039" stroke-linecap="butt" stroke-linejoin="round" stroke-miterlimit="10" stroke-opacity="1" fill="none" fill-rule="evenodd" transform="matrix(1 0 0 1.00069 -847.03 -25.6853)"/><path d="M877.393 48.205 877.393 49.7701M896.174 48.205 896.174 49.7701M906.817 48.205 906.817 49.7701M914.643 48.205 914.643 49.7701M920.59 48.205 920.59 49.7701M925.285 48.205 925.285 49.7701M929.355 48.205 929.355 49.7701M933.111 48.205 933.111 49.7701M936.241 48.205 936.241 49.7701M939.058 48.205 939.058 49.7701M957.526 48.205 957.526 49.7701M968.482 48.205 968.482 49.7701M975.994 48.205 975.994 49.7701M981.942 48.205 981.942 49.7701M986.95 48.205 986.95 49.7701M991.019 48.205 991.019 49.7701M994.463 48.205 994.463 49.7701M997.593 48.205 997.593 49.7701M1000.41 48.205 1000.41 49.7701M1019.19 48.205 1019.19 49.7701M1029.83 48.205 1029.83 49.7701M1037.66 48.205 1037.66 49.7701M1043.61 48.205 1043.61 49.7701M1048.3 48.205 1048.3 49.7701M1052.37 48.205 1052.37 49.7701M1056.13 48.205 1056.13 49.7701M1059.26 48.205 1059.26 49.7701M1062.07 48.205 1062.07 49.7701M877.393 48.205 877.393 50.3961M939.058 48.205 939.058 50.3961M1000.41 48.205 1000.41 50.3961M1062.07 48.205 1062.07 50.3961" stroke="#000000" stroke-width="0.626039" stroke-linecap="butt" stroke-linejoin="round" stroke-miterlimit="10" stroke-opacity="1" fill="none" fill-rule="nonzero" transform="matrix(1 0 0 1.00069 -847.03 -25.6853)"/><path d="M922.9 56.5407C922.9 57.7508 921.92 58.7318 920.709 58.7318 919.501 58.7318 918.518 57.7508 918.518 56.5407 918.518 55.3306 919.501 54.3496 920.709 54.3496 921.92 54.3496 922.9 55.3306 922.9 56.5407Z" stroke="#000000" stroke-width="0.469529" stroke-linecap="butt" stroke-linejoin="round" stroke-miterlimit="10" stroke-opacity="1" fill="#595959" fill-rule="nonzero" fill-opacity="1" transform="matrix(1 0 0 1.00069 -847.03 -25.6853)"/><path d="M941.368 62.4881C941.368 63.6982 940.388 64.6792 939.177 64.6792 937.969 64.6792 936.986 63.6982 936.986 62.4881 936.986 61.2779 937.969 60.2969 939.177 60.2969 940.388 60.2969 941.368 61.2779 941.368 62.4881Z" stroke="#000000" stroke-width="0.469529" stroke-linecap="butt" stroke-linejoin="round" stroke-miterlimit="10" stroke-opacity="1" fill="#595959" fill-rule="nonzero" fill-opacity="1" transform="matrix(1 0 0 1.00069 -847.03 -25.6853)"/><path d="M959.836 76.2609C959.836 77.471 958.857 78.452 957.645 78.452 956.437 78.452 955.454 77.471 955.454 76.2609 955.454 75.0508 956.437 74.0698 957.645 74.0698 958.857 74.0698 959.836 75.0508 959.836 76.2609Z" stroke="#000000" stroke-width="0.469529" stroke-linecap="butt" stroke-linejoin="round" stroke-miterlimit="10" stroke-opacity="1" fill="#595959" fill-rule="nonzero" fill-opacity="1" transform="matrix(1 0 0 1.00069 -847.03 -25.6853)"/><path d="M978.305 100.05C978.305 101.261 977.325 102.242 976.113 102.242 974.905 102.242 973.922 101.261 973.922 100.05 973.922 98.8403 974.905 97.8593 976.113 97.8593 977.325 97.8593 978.305 98.8403 978.305 100.05Z" stroke="#000000" stroke-width="0.469529" stroke-linecap="butt" stroke-linejoin="round" stroke-miterlimit="10" stroke-opacity="1" fill="#595959" fill-rule="nonzero" fill-opacity="1" transform="matrix(1 0 0 1.00069 -847.03 -25.6853)"/><path d="M996.773 129.161C996.773 130.371 995.793 131.352 994.582 131.352 993.373 131.352 992.39 130.371 992.39 129.161 992.39 127.951 993.373 126.97 994.582 126.97 995.793 126.97 996.773 127.951 996.773 129.161Z" stroke="#000000" stroke-width="0.469529" stroke-linecap="butt" stroke-linejoin="round" stroke-miterlimit="10" stroke-opacity="1" fill="#595959" fill-rule="nonzero" fill-opacity="1" transform="matrix(1 0 0 1.00069 -847.03 -25.6853)"/><path d="M1015.55 158.272C1015.55 159.482 1014.57 160.463 1013.36 160.463 1012.15 160.463 1011.17 159.482 1011.17 158.272 1011.17 157.062 1012.15 156.081 1013.36 156.081 1014.57 156.081 1015.55 157.062 1015.55 158.272Z" stroke="#000000" stroke-width="0.469529" stroke-linecap="butt" stroke-linejoin="round" stroke-miterlimit="10" stroke-opacity="1" fill="#595959" fill-rule="nonzero" fill-opacity="1" transform="matrix(1 0 0 1.00069 -847.03 -25.6853)"/><path d="M1034.02 183.94C1034.02 185.15 1033.04 186.131 1031.83 186.131 1030.62 186.131 1029.64 185.15 1029.64 183.94 1029.64 182.729 1030.62 181.748 1031.83 181.748 1033.04 181.748 1034.02 182.729 1034.02 183.94Z" stroke="#000000" stroke-width="0.469529" stroke-linecap="butt" stroke-linejoin="round" stroke-miterlimit="10" stroke-opacity="1" fill="#595959" fill-rule="nonzero" fill-opacity="1" transform="matrix(1 0 0 1.00069 -847.03 -25.6853)"/><path d="M1052.49 203.973C1052.49 205.183 1051.51 206.164 1050.3 206.164 1049.09 206.164 1048.11 205.183 1048.11 203.973 1048.11 202.763 1049.09 201.782 1050.3 201.782 1051.51 201.782 1052.49 202.763 1052.49 203.973Z" stroke="#000000" stroke-width="0.469529" stroke-linecap="butt" stroke-linejoin="round" stroke-miterlimit="10" stroke-opacity="1" fill="#595959" fill-rule="nonzero" fill-opacity="1" transform="matrix(1 0 0 1.00069 -847.03 -25.6853)"/><path d="M918.518 59.6709 922.9 59.6709 922.9 64.0532 918.518 64.0532Z" stroke="#000000" stroke-width="0.469529" stroke-linecap="butt" stroke-linejoin="round" stroke-miterlimit="10" stroke-opacity="1" fill="#747474" fill-rule="nonzero" fill-opacity="1" transform="matrix(1 0 0 1.00069 -847.03 -25.6853)"/><path d="M936.986 65.9313 941.368 65.9313 941.368 70.3135 936.986 70.3135Z" stroke="#000000" stroke-width="0.469529" stroke-linecap="butt" stroke-linejoin="round" stroke-miterlimit="10" stroke-opacity="1" fill="#747474" fill-rule="nonzero" fill-opacity="1" transform="matrix(1 0 0 1.00069 -847.03 -25.6853)"/><path d="M955.454 83.4604 959.836 83.4604 959.836 87.8426 955.454 87.8426Z" stroke="#000000" stroke-width="0.469529" stroke-linecap="butt" stroke-linejoin="round" stroke-miterlimit="10" stroke-opacity="1" fill="#747474" fill-rule="nonzero" fill-opacity="1" transform="matrix(1 0 0 1.00069 -847.03 -25.6853)"/><path d="M973.922 108.189 978.305 108.189 978.305 112.571 973.922 112.571Z" stroke="#000000" stroke-width="0.469529" stroke-linecap="butt" stroke-linejoin="round" stroke-miterlimit="10" stroke-opacity="1" fill="#747474" fill-rule="nonzero" fill-opacity="1" transform="matrix(1 0 0 1.00069 -847.03 -25.6853)"/><path d="M992.39 136.987 996.773 136.987 996.773 141.369 992.39 141.369Z" stroke="#000000" stroke-width="0.469529" stroke-linecap="butt" stroke-linejoin="round" stroke-miterlimit="10" stroke-opacity="1" fill="#747474" fill-rule="nonzero" fill-opacity="1" transform="matrix(1 0 0 1.00069 -847.03 -25.6853)"/><path d="M1011.17 162.341 1015.55 162.341 1015.55 166.724 1011.17 166.724Z" stroke="#000000" stroke-width="0.469529" stroke-linecap="butt" stroke-linejoin="round" stroke-miterlimit="10" stroke-opacity="1" fill="#747474" fill-rule="nonzero" fill-opacity="1" transform="matrix(1 0 0 1.00069 -847.03 -25.6853)"/><path d="M1029.64 183.94 1034.02 183.94 1034.02 188.322 1029.64 188.322Z" stroke="#000000" stroke-width="0.469529" stroke-linecap="butt" stroke-linejoin="round" stroke-miterlimit="10" stroke-opacity="1" fill="#747474" fill-rule="nonzero" fill-opacity="1" transform="matrix(1 0 0 1.00069 -847.03 -25.6853)"/><path d="M1048.11 199.591 1052.49 199.591 1052.49 203.973 1048.11 203.973Z" stroke="#000000" stroke-width="0.469529" stroke-linecap="butt" stroke-linejoin="round" stroke-miterlimit="10" stroke-opacity="1" fill="#747474" fill-rule="nonzero" fill-opacity="1" transform="matrix(1 0 0 1.00069 -847.03 -25.6853)"/><path d="M920.709 64.0532 922.9 68.4354 918.518 68.4354Z" stroke="#000000" stroke-width="0.469529" stroke-linecap="butt" stroke-linejoin="round" stroke-miterlimit="10" stroke-opacity="1" fill="#E8E8E8" fill-rule="nonzero" fill-opacity="1" transform="matrix(1 0 0 1.00069 -847.03 -25.6853)"/><path d="M939.177 74.6958 941.368 79.0781 936.986 79.0781Z" stroke="#000000" stroke-width="0.469529" stroke-linecap="butt" stroke-linejoin="round" stroke-miterlimit="10" stroke-opacity="1" fill="#E8E8E8" fill-rule="nonzero" fill-opacity="1" transform="matrix(1 0 0 1.00069 -847.03 -25.6853)"/><path d="M957.645 94.7291 959.836 99.1113 955.454 99.1113Z" stroke="#000000" stroke-width="0.469529" stroke-linecap="butt" stroke-linejoin="round" stroke-miterlimit="10" stroke-opacity="1" fill="#E8E8E8" fill-rule="nonzero" fill-opacity="1" transform="matrix(1 0 0 1.00069 -847.03 -25.6853)"/><path d="M976.113 120.71 978.305 125.092 973.922 125.092Z" stroke="#000000" stroke-width="0.469529" stroke-linecap="butt" stroke-linejoin="round" stroke-miterlimit="10" stroke-opacity="1" fill="#E8E8E8" fill-rule="nonzero" fill-opacity="1" transform="matrix(1 0 0 1.00069 -847.03 -25.6853)"/><path d="M994.582 147.003 996.773 151.386 992.39 151.386Z" stroke="#000000" stroke-width="0.469529" stroke-linecap="butt" stroke-linejoin="round" stroke-miterlimit="10" stroke-opacity="1" fill="#E8E8E8" fill-rule="nonzero" fill-opacity="1" transform="matrix(1 0 0 1.00069 -847.03 -25.6853)"/><path d="M1013.36 171.419 1015.55 175.801 1011.17 175.801Z" stroke="#000000" stroke-width="0.469529" stroke-linecap="butt" stroke-linejoin="round" stroke-miterlimit="10" stroke-opacity="1" fill="#E8E8E8" fill-rule="nonzero" fill-opacity="1" transform="matrix(1 0 0 1.00069 -847.03 -25.6853)"/><path d="M1031.83 192.704 1034.02 197.086 1029.64 197.086Z" stroke="#000000" stroke-width="0.469529" stroke-linecap="butt" stroke-linejoin="round" stroke-miterlimit="10" stroke-opacity="1" fill="#E8E8E8" fill-rule="nonzero" fill-opacity="1" transform="matrix(1 0 0 1.00069 -847.03 -25.6853)"/><path d="M1050.3 208.355 1052.49 212.737 1048.11 212.737Z" stroke="#000000" stroke-width="0.469529" stroke-linecap="butt" stroke-linejoin="round" stroke-miterlimit="10" stroke-opacity="1" fill="#E8E8E8" fill-rule="nonzero" fill-opacity="1" transform="matrix(1 0 0 1.00069 -847.03 -25.6853)"/><path d="M918.518 65.9313 922.9 65.9313 922.9 70.3135 918.518 70.3135Z" stroke="#000000" stroke-width="0.469529" stroke-linecap="butt" stroke-linejoin="round" stroke-miterlimit="10" stroke-opacity="1" fill="#FFFFFF" fill-rule="nonzero" fill-opacity="1" transform="matrix(1 0 0 1.00069 -847.03 -25.6853)"/><path d="M936.986 84.7124 941.368 84.7124 941.368 89.0947 936.986 89.0947Z" stroke="#000000" stroke-width="0.469529" stroke-linecap="butt" stroke-linejoin="round" stroke-miterlimit="10" stroke-opacity="1" fill="#FFFFFF" fill-rule="nonzero" fill-opacity="1" transform="matrix(1 0 0 1.00069 -847.03 -25.6853)"/><path d="M955.454 105.059 959.836 105.059 959.836 109.441 955.454 109.441Z" stroke="#000000" stroke-width="0.469529" stroke-linecap="butt" stroke-linejoin="round" stroke-miterlimit="10" stroke-opacity="1" fill="#FFFFFF" fill-rule="nonzero" fill-opacity="1" transform="matrix(1 0 0 1.00069 -847.03 -25.6853)"/><path d="M973.922 131.978 978.305 131.978 978.305 136.361 973.922 136.361Z" stroke="#000000" stroke-width="0.469529" stroke-linecap="butt" stroke-linejoin="round" stroke-miterlimit="10" stroke-opacity="1" fill="#FFFFFF" fill-rule="nonzero" fill-opacity="1" transform="matrix(1 0 0 1.00069 -847.03 -25.6853)"/><path d="M992.39 157.333 996.773 157.333 996.773 161.715 992.39 161.715Z" stroke="#000000" stroke-width="0.469529" stroke-linecap="butt" stroke-linejoin="round" stroke-miterlimit="10" stroke-opacity="1" fill="#FFFFFF" fill-rule="nonzero" fill-opacity="1" transform="matrix(1 0 0 1.00069 -847.03 -25.6853)"/><path d="M1011.17 181.435 1015.55 181.435 1015.55 185.818 1011.17 185.818Z" stroke="#000000" stroke-width="0.469529" stroke-linecap="butt" stroke-linejoin="round" stroke-miterlimit="10" stroke-opacity="1" fill="#FFFFFF" fill-rule="nonzero" fill-opacity="1" transform="matrix(1 0 0 1.00069 -847.03 -25.6853)"/><path d="M1029.64 197.086 1034.02 197.086 1034.02 201.469 1029.64 201.469Z" stroke="#000000" stroke-width="0.469529" stroke-linecap="butt" stroke-linejoin="round" stroke-miterlimit="10" stroke-opacity="1" fill="#FFFFFF" fill-rule="nonzero" fill-opacity="1" transform="matrix(1 0 0 1.00069 -847.03 -25.6853)"/><path d="M1048.11 207.103 1052.49 207.103 1052.49 211.485 1048.11 211.485Z" stroke="#000000" stroke-width="0.469529" stroke-linecap="butt" stroke-linejoin="round" stroke-miterlimit="10" stroke-opacity="1" fill="#FFFFFF" fill-rule="nonzero" fill-opacity="1" transform="matrix(1 0 0 1.00069 -847.03 -25.6853)"/><text fill="#000000" fill-opacity="1" font-family="Arial,Arial_MSFontService,sans-serif" font-style="normal" font-variant="normal" font-weight="400" font-stretch="normal" font-size="22" text-anchor="start" direction="ltr" writing-mode="lr-tb" unicode-bidi="normal" text-decoration="none" transform="matrix(0.313019 0 0 0.313235 10.2044 212)">0.00</text><text fill="#000000" fill-opacity="1" font-family="Arial,Arial_MSFontService,sans-serif" font-style="normal" font-variant="normal" font-weight="400" font-stretch="normal" font-size="22" text-anchor="start" direction="ltr" writing-mode="lr-tb" unicode-bidi="normal" text-decoration="none" transform="matrix(0.313019 0 0 0.313235 10.2044 185)">1.00</text><text fill="#000000" fill-opacity="1" font-family="Arial,Arial_MSFontService,sans-serif" font-style="normal" font-variant="normal" font-weight="400" font-stretch="normal" font-size="22" text-anchor="start" direction="ltr" writing-mode="lr-tb" unicode-bidi="normal" text-decoration="none" transform="matrix(0.313019 0 0 0.313235 10.2044 158)">2.00</text><text fill="#000000" fill-opacity="1" font-family="Arial,Arial_MSFontService,sans-serif" font-style="normal" font-variant="normal" font-weight="400" font-stretch="normal" font-size="22" text-anchor="start" direction="ltr" writing-mode="lr-tb" unicode-bidi="normal" text-decoration="none" transform="matrix(0.313019 0 0 0.313235 10.2044 132)">3.00</text><text fill="#000000" fill-opacity="1" font-family="Arial,Arial_MSFontService,sans-serif" font-style="normal" font-variant="normal" font-weight="400" font-stretch="normal" font-size="22" text-anchor="start" direction="ltr" writing-mode="lr-tb" unicode-bidi="normal" text-decoration="none" transform="matrix(0.313019 0 0 0.313235 10.2044 105)">4.00</text><text fill="#000000" fill-opacity="1" font-family="Arial,Arial_MSFontService,sans-serif" font-style="normal" font-variant="normal" font-weight="400" font-stretch="normal" font-size="22" text-anchor="start" direction="ltr" writing-mode="lr-tb" unicode-bidi="normal" text-decoration="none" transform="matrix(0.313019 0 0 0.313235 10.2044 78)">5.00</text><text fill="#000000" fill-opacity="1" font-family="Arial,Arial_MSFontService,sans-serif" font-style="normal" font-variant="normal" font-weight="400" font-stretch="normal" font-size="22" text-anchor="start" direction="ltr" writing-mode="lr-tb" unicode-bidi="normal" text-decoration="none" transform="matrix(0.313019 0 0 0.313235 10.2044 52)">6.00</text><text fill="#000000" fill-opacity="1" font-family="Arial,Arial_MSFontService,sans-serif" font-style="normal" font-variant="normal" font-weight="400" font-stretch="normal" font-size="22" text-anchor="start" direction="ltr" writing-mode="lr-tb" unicode-bidi="normal" text-decoration="none" transform="matrix(0.313019 0 0 0.313235 10.2044 25)">7.00</text><text fill="#000000" fill-opacity="1" font-family="Arial,Arial_MSFontService,sans-serif" font-style="normal" font-variant="normal" font-weight="400" font-stretch="normal" font-size="22" text-anchor="start" direction="ltr" writing-mode="lr-tb" unicode-bidi="normal" text-decoration="none" transform="matrix(0.313019 0 0 0.313235 28.6475 17)">1</text><text fill="#000000" fill-opacity="1" font-family="Arial,Arial_MSFontService,sans-serif" font-style="normal" font-variant="normal" font-weight="400" font-stretch="normal" font-size="22" text-anchor="start" direction="ltr" writing-mode="lr-tb" unicode-bidi="normal" text-decoration="none" transform="matrix(0.313019 0 0 0.313235 88.3372 17)">10</text><text fill="#000000" fill-opacity="1" font-family="Arial,Arial_MSFontService,sans-serif" font-style="normal" font-variant="normal" font-weight="400" font-stretch="normal" font-size="22" text-anchor="start" direction="ltr" writing-mode="lr-tb" unicode-bidi="normal" text-decoration="none" transform="matrix(0.313019 0 0 0.313235 148.024 17)">100</text><text fill="#000000" fill-opacity="1" font-family="Arial,Arial_MSFontService,sans-serif" font-style="normal" font-variant="normal" font-weight="400" font-stretch="normal" font-size="22" text-anchor="start" direction="ltr" writing-mode="lr-tb" unicode-bidi="normal" text-decoration="none" transform="matrix(0.313019 0 0 0.313235 207.71 17)">1000</text><text fill="#000000" fill-opacity="1" font-family="Arial,Arial_MSFontService,sans-serif" font-style="normal" font-variant="normal" font-weight="400" font-stretch="normal" font-size="22" text-anchor="start" direction="ltr" writing-mode="lr-tb" unicode-bidi="normal" text-decoration="none" transform="matrix(0.313019 0 0 0.313235 81.2442 8)">Effective</text><text fill="#000000" fill-opacity="1" font-family="Arial,Arial_MSFontService,sans-serif" font-style="normal" font-variant="normal" font-weight="400" font-stretch="normal" font-size="22" text-anchor="start" direction="ltr" writing-mode="lr-tb" unicode-bidi="normal" text-decoration="none" transform="matrix(0.313019 0 0 0.313235 109.566 8)">vertical stress:</text><text fill="#000000" fill-opacity="1" font-family="Arial,Arial_MSFontService,sans-serif" font-style="normal" font-variant="normal" font-weight="400" font-stretch="normal" font-size="22" text-anchor="start" direction="ltr" writing-mode="lr-tb" unicode-bidi="normal" text-decoration="none" transform="matrix(0.313019 0 0 0.313235 155.489 8)">kPa</text><g clip-path="url(#clip2)"><text fill="#000000" fill-opacity="1" font-family="Arial,Arial_MSFontService,sans-serif" font-style="normal" font-variant="normal" font-weight="400" font-stretch="normal" font-size="22" text-anchor="start" direction="ltr" writing-mode="lr-tb" unicode-bidi="normal" text-decoration="none" transform="matrix(-5.75007e-17 -0.313235 0.313019 -5.75404e-17 8.11972 134)">Void ratio</text></g><g clip-path="url(#clip3)"><text fill="#000000" fill-opacity="1" font-family="Arial,Arial_MSFontService,sans-serif" font-style="normal" font-variant="normal" font-weight="400" font-stretch="normal" font-size="22" text-anchor="start" direction="ltr" writing-mode="lr-tb" unicode-bidi="normal" text-decoration="none" transform="matrix(-5.75007e-17 -0.313235 0.313019 -5.75404e-17 8.11972 105)">: </text></g><g clip-path="url(#clip4)"><text fill="#000000" fill-opacity="1" font-family="Arial,Arial_MSFontService,sans-serif" font-style="normal" font-variant="normal" font-weight="400" font-stretch="normal" font-size="22" text-anchor="start" direction="ltr" writing-mode="lr-tb" unicode-bidi="normal" text-decoration="none" transform="matrix(-5.75007e-17 -0.313235 0.313019 -5.75404e-17 8.11972 101)">-</text></g><text fill="#000000" fill-opacity="1" font-family="Arial,Arial_MSFontService,sans-serif" font-style="normal" font-variant="normal" font-weight="400" font-stretch="normal" font-size="22" text-anchor="start" direction="ltr" writing-mode="lr-tb" unicode-bidi="normal" text-decoration="none" transform="matrix(0.313019 0 0 0.313235 67.6779 80)">Isotherms</text><text fill="#000000" fill-opacity="1" font-family="Arial,Arial_MSFontService,sans-serif" font-style="normal" font-variant="normal" font-weight="400" font-stretch="normal" font-size="20" text-anchor="start" direction="ltr" writing-mode="lr-tb" unicode-bidi="normal" text-decoration="none" transform="matrix(0.313019 0 0 0.313235 139.153 53)">20 </text><text fill="#000000" fill-opacity="1" font-family="Cambria Math,Cambria Math_MSFontService,sans-serif" font-style="normal" font-variant="normal" font-weight="400" font-stretch="normal" font-size="20" text-anchor="start" direction="ltr" writing-mode="lr-tb" unicode-bidi="normal" text-decoration="none" transform="matrix(0.313019 0 0 0.313235 147.855 53)">℃</text><text fill="#595959" fill-opacity="1" font-family="Arial,Arial_MSFontService,sans-serif" font-style="normal" font-variant="normal" font-weight="400" font-stretch="normal" font-size="20" text-anchor="start" direction="ltr" writing-mode="lr-tb" unicode-bidi="normal" text-decoration="none" transform="matrix(0.313019 0 0 0.313235 162.57 77)">40</text><text fill="#595959" fill-opacity="1" font-family="Cambria Math,Cambria Math_MSFontService,sans-serif" font-style="normal" font-variant="normal" font-weight="400" font-stretch="normal" font-size="20" text-anchor="start" direction="ltr" writing-mode="lr-tb" unicode-bidi="normal" text-decoration="none" transform="matrix(0.313019 0 0 0.313235 171.272 77)">℃</text><path d="M885.219 205.028 951.266 205.028 951.266 232.886 885.219 232.886Z" stroke="#000000" stroke-width="0.626039" stroke-linecap="butt" stroke-linejoin="miter" stroke-miterlimit="8" stroke-opacity="1" fill="none" fill-rule="nonzero" transform="matrix(1 0 0 1.00069 -847.03 -25.6853)"/><text fill="#000000" fill-opacity="1" font-family="Arial,Arial_MSFontService,sans-serif" font-style="normal" font-variant="normal" font-weight="400" font-stretch="normal" font-size="22" text-anchor="start" direction="ltr" writing-mode="lr-tb" unicode-bidi="normal" text-decoration="none" transform="matrix(0.313019 0 0 0.313235 55.7957 188)">Akita peat</text><text fill="#7F7F7F" fill-opacity="1" font-family="Arial,Arial_MSFontService,sans-serif" font-style="normal" font-variant="normal" font-weight="400" font-stretch="normal" font-size="20" text-anchor="start" direction="ltr" writing-mode="lr-tb" unicode-bidi="normal" text-decoration="none" transform="matrix(0.313019 0 0 0.313235 93.43 101)">60</text><text fill="#7F7F7F" fill-opacity="1" font-family="Cambria Math,Cambria Math_MSFontService,sans-serif" font-style="normal" font-variant="normal" font-weight="400" font-stretch="normal" font-size="20" text-anchor="start" direction="ltr" writing-mode="lr-tb" unicode-bidi="normal" text-decoration="none" transform="matrix(0.313019 0 0 0.313235 102.132 101)">℃</text><path d="M0.165958-0.265404 11.2387 6.65839 10.9068 7.18921-0.165958 0.265404ZM11.2058 5.53027 13.7268 8.5834 9.87808 7.65351Z" fill="#000000" fill-rule="nonzero" fill-opacity="1" transform="matrix(-1 0 0 1.00069 136.116 55.1294)"/><path d="M0.165978-0.265391 21.4243 13.0297 21.0923 13.5605-0.165978 0.265391ZM21.3914 11.9016 23.9122 14.9549 20.0636 14.0247Z" fill="#7F7F7F" fill-rule="nonzero" fill-opacity="1" transform="matrix(-1 0 0 1.00069 157.571 78.3088)"/><path d="M0.166015-0.265368 9.07637 5.30897 8.74432 5.83972-0.166015 0.265368ZM9.04366 4.18084 11.564 7.2345 7.71555 6.30377Z" fill="#AEAEAE" fill-rule="nonzero" fill-opacity="1" transform="matrix(1 0 0 -1.00069 110.809 95.8851)"/><path d="M955.648 82.6371 1017.83 173.187" stroke="#404040" stroke-width="0.626039" stroke-linecap="butt" stroke-linejoin="miter" stroke-miterlimit="8" stroke-dasharray="2.50416 1.87812" stroke-opacity="1" fill="none" fill-rule="evenodd" transform="matrix(1 0 0 1.00069 -847.03 -25.6853)"/><path d="M955.648 93.2798 1017.83 183.828" stroke="#747474" stroke-width="0.626039" stroke-linecap="butt" stroke-linejoin="miter" stroke-miterlimit="8" stroke-dasharray="2.50416 1.87812" stroke-opacity="1" fill="none" fill-rule="evenodd" transform="matrix(1 0 0 1.00069 -847.03 -25.6853)"/><path d="M955.648 103.296 1017.83 193.846" stroke="#AEAEAE" stroke-width="0.626039" stroke-linecap="butt" stroke-linejoin="miter" stroke-miterlimit="8" stroke-dasharray="2.50416 1.87812" stroke-opacity="1" fill="none" fill-rule="evenodd" transform="matrix(1 0 0 1.00069 -847.03 -25.6853)"/><path d="M955.648 72.6205 1017.83 163.168" stroke="#000000" stroke-width="0.626039" stroke-linecap="butt" stroke-linejoin="miter" stroke-miterlimit="8" stroke-dasharray="2.50416 1.87812" stroke-opacity="1" fill="none" fill-rule="evenodd" transform="matrix(1 0 0 1.00069 -847.03 -25.6853)"/><text fill="#000000" fill-opacity="1" font-family="Cambria Math,Cambria Math_MSFontService,sans-serif" font-style="normal" font-variant="normal" font-weight="400" font-stretch="normal" font-size="22" text-anchor="start" direction="ltr" writing-mode="lr-tb" unicode-bidi="normal" text-decoration="none" transform="matrix(0.313019 0 0 0.313235 45.8479 196)">𝑤</text><text fill="#000000" fill-opacity="1" font-family="Cambria Math,Cambria Math_MSFontService,sans-serif" font-style="normal" font-variant="normal" font-weight="400" font-stretch="normal" font-size="16" text-anchor="start" direction="ltr" writing-mode="lr-tb" unicode-bidi="normal" text-decoration="none" transform="matrix(0.313019 0 0 0.313235 50.2866 197)">𝑛</text><text fill="#000000" fill-opacity="1" font-family="Arial,Arial_MSFontService,sans-serif" font-style="normal" font-variant="normal" font-weight="400" font-stretch="normal" font-size="22" text-anchor="start" direction="ltr" writing-mode="lr-tb" unicode-bidi="normal" text-decoration="none" transform="matrix(0.313019 0 0 0.313235 55.5829 196)">= 509 </text><text fill="#000000" fill-opacity="1" font-family="Arial,Arial_MSFontService,sans-serif" font-style="normal" font-variant="normal" font-weight="400" font-stretch="normal" font-size="22" text-anchor="start" direction="ltr" writing-mode="lr-tb" unicode-bidi="normal" text-decoration="none" transform="matrix(0.313019 0 0 0.313235 74.0385 196)">-</text><text fill="#000000" fill-opacity="1" font-family="Arial,Arial_MSFontService,sans-serif" font-style="normal" font-variant="normal" font-weight="400" font-stretch="normal" font-size="22" text-anchor="start" direction="ltr" writing-mode="lr-tb" unicode-bidi="normal" text-decoration="none" transform="matrix(0.313019 0 0 0.313235 78.0514 196)">577 %</text><path d="M0.166007-0.265373 17.0515 10.2976 16.7195 10.8283-0.166007 0.265373ZM17.0188 9.16947 19.5393 12.223 15.6908 11.2924Z" fill="#D1D1D1" fill-rule="nonzero" fill-opacity="1" transform="matrix(1 0 0 -1.00069 105.175 115.599)"/><text fill="#AEAEAE" fill-opacity="1" font-family="Arial,Arial_MSFontService,sans-serif" font-style="normal" font-variant="normal" font-weight="400" font-stretch="normal" font-size="20" text-anchor="start" direction="ltr" writing-mode="lr-tb" unicode-bidi="normal" text-decoration="none" transform="matrix(0.313019 0 0 0.313235 89.3076 122)">80</text><text fill="#AEAEAE" fill-opacity="1" font-family="Cambria Math,Cambria Math_MSFontService,sans-serif" font-style="normal" font-variant="normal" font-weight="400" font-stretch="normal" font-size="20" text-anchor="start" direction="ltr" writing-mode="lr-tb" unicode-bidi="normal" text-decoration="none" transform="matrix(0.313019 0 0 0.313235 98.0095 122)">℃</text><text fill="#000000" fill-opacity="1" font-family="Cambria Math,Cambria Math_MSFontService,sans-serif" font-style="normal" font-variant="normal" font-weight="400" font-stretch="normal" font-size="22" text-anchor="start" direction="ltr" writing-mode="lr-tb" unicode-bidi="normal" text-decoration="none" transform="matrix(0.313019 0 0 0.313235 45.3815 204)">𝐿</text><text fill="#000000" fill-opacity="1" font-family="Cambria Math,Cambria Math_MSFontService,sans-serif" font-style="normal" font-variant="normal" font-weight="400" font-stretch="normal" font-size="16" text-anchor="start" direction="ltr" writing-mode="lr-tb" unicode-bidi="normal" text-decoration="none" transform="matrix(0.313019 0 0 0.313235 48.878 205)">𝑖𝑔</text><text fill="#000000" fill-opacity="1" font-family="Arial,Arial_MSFontService,sans-serif" font-style="normal" font-variant="normal" font-weight="400" font-stretch="normal" font-size="22" text-anchor="start" direction="ltr" writing-mode="lr-tb" unicode-bidi="normal" text-decoration="none" transform="matrix(0.313019 0 0 0.313235 55.9053 204)">= 50.3 </text><text fill="#000000" fill-opacity="1" font-family="Arial,Arial_MSFontService,sans-serif" font-style="normal" font-variant="normal" font-weight="400" font-stretch="normal" font-size="22" text-anchor="start" direction="ltr" writing-mode="lr-tb" unicode-bidi="normal" text-decoration="none" transform="matrix(0.313019 0 0 0.313235 76.1858 204)">-</text><text fill="#000000" fill-opacity="1" font-family="Arial,Arial_MSFontService,sans-serif" font-style="normal" font-variant="normal" font-weight="400" font-stretch="normal" font-size="22" text-anchor="start" direction="ltr" writing-mode="lr-tb" unicode-bidi="normal" text-decoration="none" transform="matrix(0.313019 0 0 0.313235 80.1987 204)">51.9 %</text><path d="M985.385 167.778 1003.91 167.778" stroke="#000000" stroke-width="0.626039" stroke-linecap="butt" stroke-linejoin="miter" stroke-miterlimit="8" stroke-opacity="1" fill="none" fill-rule="evenodd" transform="matrix(1 0 0 1.00069 -847.03 -25.6853)"/><path d="M0 0 5.43737 10.4437" stroke="#000000" stroke-width="0.626039" stroke-linecap="butt" stroke-linejoin="miter" stroke-miterlimit="8" stroke-opacity="1" fill="none" fill-rule="evenodd" transform="matrix(1 0 0 -1.00069 133.033 152.66)"/><text fill="#000000" fill-opacity="1" font-family="Cambria Math,Cambria Math_MSFontService,sans-serif" font-style="normal" font-variant="normal" font-weight="400" font-stretch="normal" font-size="22" text-anchor="start" direction="ltr" writing-mode="lr-tb" unicode-bidi="normal" text-decoration="none" transform="matrix(0.313019 0 0 0.313235 121.527 160)">𝐶</text><text fill="#000000" fill-opacity="1" font-family="Cambria Math,Cambria Math_MSFontService,sans-serif" font-style="normal" font-variant="normal" font-weight="400" font-stretch="normal" font-size="16" text-anchor="start" direction="ltr" writing-mode="lr-tb" unicode-bidi="normal" text-decoration="none" transform="matrix(0.313019 0 0 0.313235 124.892 162)">𝛽</text><text fill="#000000" fill-opacity="1" font-family="Cambria Math,Cambria Math_MSFontService,sans-serif" font-style="normal" font-variant="normal" font-weight="400" font-stretch="normal" font-size="22" text-anchor="start" direction="ltr" writing-mode="lr-tb" unicode-bidi="normal" text-decoration="none" transform="matrix(0.313019 0 0 0.313235 128.776 160)">∆</text><text fill="#000000" fill-opacity="1" font-family="Cambria Math,Cambria Math_MSFontService,sans-serif" font-style="normal" font-variant="normal" font-weight="400" font-stretch="normal" font-size="22" text-anchor="start" direction="ltr" writing-mode="lr-tb" unicode-bidi="normal" text-decoration="none" transform="matrix(0.313019 0 0 0.313235 132.88 160)">𝑇</text><path d="M1004.17 159.014 1004.17 171.439 1003.54 171.439 1003.54 159.014ZM1001.98 159.64 1003.85 153.38 1005.73 159.64ZM1005.73 170.813 1003.85 177.074 1001.98 170.813Z" fill="#000000" fill-rule="nonzero" fill-opacity="1" transform="matrix(1 0 0 1.00069 -847.03 -25.6853)"/></g></g></svg>