<svg width="1962" height="926" xmlns="http://www.w3.org/2000/svg" xmlns:xlink="http://www.w3.org/1999/xlink" xml:space="preserve" overflow="hidden"><defs><clipPath id="clip0"><rect x="1883" y="876" width="718" height="794"/></clipPath><clipPath id="clip1"><rect x="2702" y="781" width="986" height="913"/></clipPath><clipPath id="clip2"><rect x="2702" y="781" width="986" height="913"/></clipPath><clipPath id="clip3"><rect x="2702" y="781" width="986" height="913"/></clipPath><clipPath id="clip4"><rect x="2702" y="781" width="986" height="913"/></clipPath><clipPath id="clip5"><rect x="2702" y="781" width="986" height="913"/></clipPath><clipPath id="clip6"><rect x="2702" y="781" width="986" height="913"/></clipPath></defs><g transform="translate(-1727 -774)"><g><g><g><g><g><g><path d="M855.588 167.455 1797.52 167.455 1797.52 1088.45 855.588 1088.45Z" fill="#FFFFFF" fill-rule="nonzero" fill-opacity="1" transform="matrix(1.00007 0 0 1 873.35 609.545)"/><path d="M1011.27 268.189 1011.27 1060.98" stroke="#000000" stroke-width="1.96236" stroke-linecap="butt" stroke-linejoin="round" stroke-miterlimit="10" stroke-opacity="1" fill="none" fill-rule="evenodd" transform="matrix(1.00007 0 0 1 873.35 609.545)"/><path d="M1011.27 268.189 1019.12 268.189M1011.27 294.354 1019.12 294.354M1011.27 320.519 1019.12 320.519M1011.27 346.683 1019.12 346.683M1011.27 372.848 1019.12 372.848M1011.27 399.013 1019.12 399.013M1011.27 425.178 1019.12 425.178M1011.27 451.342 1019.12 451.342M1011.27 477.507 1019.12 477.507M1011.27 506.288 1019.12 506.288M1011.27 532.453 1019.12 532.453M1011.27 558.618 1019.12 558.618M1011.27 584.783 1019.12 584.783M1011.27 610.948 1019.12 610.948M1011.27 637.112 1019.12 637.112M1011.27 663.277 1019.12 663.277M1011.27 689.442 1019.12 689.442M1011.27 715.607 1019.12 715.607M1011.27 741.771 1019.12 741.771M1011.27 770.553 1019.12 770.553M1011.27 796.718 1019.12 796.718M1011.27 822.882 1019.12 822.882M1011.27 849.047 1019.12 849.047M1011.27 875.212 1019.12 875.212M1011.27 901.377 1019.12 901.377M1011.27 927.541 1019.12 927.541M1011.27 953.706 1019.12 953.706M1011.27 979.871 1019.12 979.871M1011.27 1008.65 1019.12 1008.65M1011.27 1034.82 1019.12 1034.82M1011.27 1060.98 1019.12 1060.98M1011.27 268.189 1019.12 268.189M1011.27 532.453 1019.12 532.453M1011.27 796.718 1019.12 796.718M1011.27 1060.98 1019.12 1060.98" stroke="#000000" stroke-width="1.96236" stroke-linecap="butt" stroke-linejoin="round" stroke-miterlimit="10" stroke-opacity="1" fill="none" fill-rule="nonzero" transform="matrix(1.00007 0 0 1 873.35 609.545)"/><path d="M1011.27 268.189 1725.57 268.189" stroke="#000000" stroke-width="1.96236" stroke-linecap="butt" stroke-linejoin="round" stroke-miterlimit="10" stroke-opacity="1" fill="none" fill-rule="evenodd" transform="matrix(1.00007 0 0 1 873.35 609.545)"/><path d="M1011.27 268.189 1011.27 273.422M1118.54 268.189 1118.54 273.422M1181.34 268.189 1181.34 273.422M1225.82 268.189 1225.82 273.422M1262.45 268.189 1262.45 273.422M1288.62 268.189 1288.62 273.422M1312.16 268.189 1312.16 273.422M1333.1 268.189 1333.1 273.422M1351.41 268.189 1351.41 273.422M1369.73 268.189 1369.73 273.422M1477 268.189 1477 273.422M1539.8 268.189 1539.8 273.422M1584.28 268.189 1584.28 273.422M1618.29 268.189 1618.29 273.422M1647.07 268.189 1647.07 273.422M1670.62 268.189 1670.62 273.422M1691.55 268.189 1691.55 273.422M1709.87 268.189 1709.87 273.422M1725.57 268.189 1725.57 273.422M1011.27 268.189 1011.27 276.038M1369.73 268.189 1369.73 276.038M1725.57 268.189 1725.57 276.038" stroke="#000000" stroke-width="1.96236" stroke-linecap="butt" stroke-linejoin="round" stroke-miterlimit="10" stroke-opacity="1" fill="none" fill-rule="nonzero" transform="matrix(1.00007 0 0 1 873.35 609.545)"/><g clip-path="url(#clip0)"><path d="M969.405 351.916C971.951 353.701 974.497 355.488 977.043 357.272 979.588 359.057 982.137 360.867 984.683 362.628 987.229 364.386 989.774 366.1 992.32 367.827 994.866 369.554 997.412 371.273 999.958 372.987 1002.51 374.701 1005.05 376.357 1007.6 378.107 1010.14 379.86 1012.69 381.749 1015.24 383.502 1017.78 385.255 1020.33 386.943 1022.88 388.625 1025.42 390.305 1027.97 391.941 1030.51 393.589 1032.92 395.148 1034.28 396.132 1038.15 398.516 1042.24 401.03 1051 406.033 1055.05 408.686 1058.97 411.253 1060.03 412.718 1062.45 414.427 1064.96 416.19 1067.55 417.65 1070.09 419.272 1072.64 420.895 1075.19 422.511 1077.73 424.16 1080.28 425.808 1082.82 427.514 1085.37 429.163 1087.92 430.811 1090.46 432.446 1093.01 434.05 1095.56 435.654 1098.1 437.19 1100.65 438.781 1103.19 440.369 1105.74 442.025 1108.29 443.59 1110.83 445.152 1113.38 446.638 1115.93 448.163 1118.47 449.686 1121.02 451.206 1123.56 452.737 1126.11 454.268 1128.66 455.856 1131.2 457.35 1133.75 458.841 1136.29 460.236 1138.84 461.688 1141.39 463.143 1143.93 464.595 1146.48 466.068 1149.03 467.538 1151.57 469.059 1154.12 470.524 1156.66 471.989 1159.21 473.423 1161.76 474.862 1164.3 476.304 1166.85 477.748 1169.4 479.163 1171.94 480.576 1174.49 481.979 1177.03 483.347 1179.58 484.716 1182.12 486.019 1184.67 487.371 1187.22 488.727 1189.76 490.116 1192.31 491.477 1194.86 492.84 1197.4 494.221 1199.95 495.543 1202.49 496.867 1205.04 498.149 1207.59 499.412 1210.13 500.676 1212.68 501.864 1215.23 503.128 1217.77 504.392 1220.32 505.818 1222.86 506.998 1225.41 508.178 1227.96 509.161 1230.5 510.203 1233.05 511.244 1235.6 512.196 1238.14 513.251 1240.69 514.308 1243.23 515.462 1245.78 516.535 1248.33 517.61 1250.87 518.659 1253.42 519.703 1255.96 520.745 1258.51 521.838 1261.06 522.791 1263.6 523.74 1266.15 524.483 1268.7 525.41 1271.24 526.336 1273.79 527.43 1276.33 528.343 1278.88 529.253 1281.43 530.023 1283.97 530.883 1286.52 531.742 1289.07 532.663 1291.61 533.503 1294.16 534.342 1296.7 535.099 1299.25 535.925 1301.79 536.752 1304.34 537.621 1306.89 538.466 1309.43 539.314 1311.98 540.141 1314.53 541.007 1317.07 541.875 1319.62 542.767 1322.16 543.665 1324.71 544.565 1327.26 545.504 1329.8 546.402 1332.35 547.302 1334.9 548.176 1337.44 549.06 1339.98 549.944 1341.27 550.374 1345.08 551.718 1348.9 553.068 1356.54 555.831 1360.36 557.153 1364.16 558.469 1365.46 558.793 1368 559.654 1370.54 560.52 1373.09 561.48 1375.63 562.352 1378.18 563.226 1380.73 564.013 1383.27 564.892 1385.82 565.774 1388.36 566.745 1390.91 567.629 1393.46 568.516 1396 569.343 1398.55 570.209 1401.1 571.078 1403.64 571.962 1406.19 572.828 1408.74 573.697 1411.28 574.55 1413.83 575.411 1416.37 576.269 1418.92 577.13 1421.46 577.99 1424.01 578.849 1426.56 579.704 1429.1 580.57 1431.65 581.436 1434.2 582.323 1436.74 583.189 1439.29 584.055 1441.83 584.903 1444.38 585.769 1446.93 586.635 1449.47 587.528 1452.02 588.388 1454.57 589.249 1457.11 590.068 1459.66 590.929 1462.2 591.79 1464.75 592.624 1467.29 593.548 1469.84 594.474 1472.39 595.555 1474.93 596.481 1477.48 597.405 1480.03 598.213 1482.57 599.1 1485.12 599.985 1487.67 600.924 1490.21 601.798 1492.76 602.669 1495.3 603.472 1497.85 604.338 1500.4 605.204 1502.94 606.11 1505.49 606.997 1508.03 607.884 1510.58 608.776 1513.13 609.655 1515.67 610.534 1518.22 611.408 1520.77 612.274 1523.31 613.14 1525.86 613.993 1528.41 614.854 1530.95 615.715 1533.5 616.437 1536.04 617.434 1538.59 618.431 1541.8 618.347 1543.68 620.835 1545.56 623.324 1546.45 627.994 1547.33 632.369 1548.21 636.741 1548.59 643.682 1548.96 647.073 1549.27 649.896 1549.79 650.527 1549.54 652.722 1549.24 655.36 1547.49 659.554 1547.15 662.898 1546.81 666.244 1547.41 669.258 1547.5 672.791 1547.59 676.32 1547.56 680.852 1547.67 684.078 1547.79 687.302 1548.08 688.932 1548.19 692.14 1548.31 695.347 1548.22 699.594 1548.37 703.32 1548.51 707.048 1548.83 710.648 1549.06 714.503 1549.3 718.354 1549.53 722.386 1549.76 726.434 1549.99 730.484 1550.19 735.123 1550.45 738.797 1550.71 742.47 1551.06 745.306 1551.32 748.472 1551.58 751.638 1551.67 754.242 1552.01 757.79 1552.36 761.338 1552.94 765.631 1553.4 769.76 1553.87 773.886 1554.33 778.483 1554.79 782.552 1555.26 786.618 1555.67 790.252 1556.18 794.161 1556.69 798.073 1557.31 802.186 1557.85 806.009 1558.38 809.834 1558.79 813.434 1559.37 817.105 1559.97 820.773 1560.59 824.397 1561.39 828.026 1562.19 831.655 1563.18 835.287 1564.16 838.885 1565.15 842.482 1566.19 846.033 1567.29 849.615 1568.39 853.194 1569.6 856.794 1570.76 860.363 1571.92 863.932 1573.02 867.53 1574.24 871.028 1575.45 874.526 1576.43 877.875 1578.05 881.35 1579.68 884.822 1581.7 889.173 1583.96 891.866 1586.21 894.556 1587.78 895.649 1591.6 897.494 1595.41 899.338 1603.05 901.599 1606.87 902.928 1610.67 904.252 1611.98 904.605 1614.51 905.469 1617.06 906.335 1619.6 907.24 1622.15 908.127 1624.69 909.014 1627.24 909.898 1629.79 910.786 1632.33 911.672 1634.88 912.544 1637.43 913.444 1639.97 914.344 1642.63 915.336 1645.06 916.181 1647.49 917.026 1649.06 917.499 1652.01 918.522 1654.96 919.543 1659.18 921.047 1662.77 922.308" stroke="#000000" stroke-width="2.61648" stroke-linecap="round" stroke-linejoin="round" stroke-miterlimit="10" stroke-opacity="1" fill="none" fill-rule="nonzero" transform="matrix(1.00007 0 0 1 873.35 609.545)"/></g><text fill="#000000" fill-opacity="1" font-family="Arial,Arial_MSFontService,sans-serif" font-style="normal" font-variant="normal" font-weight="400" font-stretch="normal" font-size="11" text-anchor="start" direction="ltr" writing-mode="lr-tb" unicode-bidi="normal" text-decoration="none" transform="matrix(2.61667 0 0 2.61648 1780.04 884)">0.005</text><text fill="#000000" fill-opacity="1" font-family="Arial,Arial_MSFontService,sans-serif" font-style="normal" font-variant="normal" font-weight="400" font-stretch="normal" font-size="11" text-anchor="start" direction="ltr" writing-mode="lr-tb" unicode-bidi="normal" text-decoration="none" transform="matrix(2.61667 0 0 2.61648 1780.04 1149)">0.015</text><text fill="#000000" fill-opacity="1" font-family="Arial,Arial_MSFontService,sans-serif" font-style="normal" font-variant="normal" font-weight="400" font-stretch="normal" font-size="11" text-anchor="start" direction="ltr" writing-mode="lr-tb" unicode-bidi="normal" text-decoration="none" transform="matrix(2.61667 0 0 2.61648 1780.04 1415)">0.025</text><text fill="#000000" fill-opacity="1" font-family="Arial,Arial_MSFontService,sans-serif" font-style="normal" font-variant="normal" font-weight="400" font-stretch="normal" font-size="11" text-anchor="start" direction="ltr" writing-mode="lr-tb" unicode-bidi="normal" text-decoration="none" transform="matrix(2.61667 0 0 2.61648 1780.04 1680)">0.035</text><text fill="#000000" fill-opacity="1" font-family="Arial,Arial_MSFontService,sans-serif" font-style="normal" font-variant="normal" font-weight="400" font-stretch="normal" font-size="11" text-anchor="start" direction="ltr" writing-mode="lr-tb" unicode-bidi="normal" text-decoration="none" transform="matrix(2.61667 0 0 2.61648 1844.81 850)">10000</text><text fill="#000000" fill-opacity="1" font-family="Arial,Arial_MSFontService,sans-serif" font-style="normal" font-variant="normal" font-weight="400" font-stretch="normal" font-size="11" text-anchor="start" direction="ltr" writing-mode="lr-tb" unicode-bidi="normal" text-decoration="none" transform="matrix(2.61667 0 0 2.61648 2194.21 850)">100000</text><text fill="#000000" fill-opacity="1" font-family="Arial,Arial_MSFontService,sans-serif" font-style="normal" font-variant="normal" font-weight="400" font-stretch="normal" font-size="11" text-anchor="start" direction="ltr" writing-mode="lr-tb" unicode-bidi="normal" text-decoration="none" transform="matrix(2.61667 0 0 2.61648 2543.61 850)">1000000</text><text fill="#000000" fill-opacity="1" font-family="Arial,Arial_MSFontService,sans-serif" font-style="normal" font-variant="normal" font-weight="400" font-stretch="normal" font-size="11" text-anchor="start" direction="ltr" writing-mode="lr-tb" unicode-bidi="normal" text-decoration="none" transform="matrix(1.60225e-16 -2.61648 2.61667 1.60213e-16 1765.28 1402)">Engineering strain: </text><text fill="#000000" fill-opacity="1" font-family="Arial,Arial_MSFontService,sans-serif" font-style="normal" font-variant="normal" font-weight="400" font-stretch="normal" font-size="11" text-anchor="start" direction="ltr" writing-mode="lr-tb" unicode-bidi="normal" text-decoration="none" transform="matrix(1.60225e-16 -2.61648 2.61667 1.60213e-16 1765.28 1154)">-</text><text fill="#000000" fill-opacity="1" font-family="Arial,Arial_MSFontService,sans-serif" font-style="normal" font-variant="normal" font-weight="400" font-stretch="normal" font-size="11" text-anchor="start" direction="ltr" writing-mode="lr-tb" unicode-bidi="normal" text-decoration="none" transform="matrix(2.61667 0 0 2.61648 2128.65 814)">Elapsed time: sec</text><path d="M1616.04 648.081 1042.67 448.726" stroke="#000000" stroke-width="2.61648" stroke-linecap="butt" stroke-linejoin="miter" stroke-miterlimit="8" stroke-dasharray="10.4659 7.84943" stroke-opacity="1" fill="none" fill-rule="evenodd" transform="matrix(1.00007 0 0 1 873.35 609.545)"/><text fill="#000000" fill-opacity="1" font-family="Arial,Arial_MSFontService,sans-serif" font-style="normal" font-variant="normal" font-weight="400" font-stretch="normal" font-size="11" text-anchor="start" direction="ltr" writing-mode="lr-tb" unicode-bidi="normal" text-decoration="none" transform="matrix(2.61667 0 0 2.61648 1913.31 916)">Primary</text><text fill="#000000" fill-opacity="1" font-family="Arial,Arial_MSFontService,sans-serif" font-style="normal" font-variant="normal" font-weight="400" font-stretch="normal" font-size="11" text-anchor="start" direction="ltr" writing-mode="lr-tb" unicode-bidi="normal" text-decoration="none" transform="matrix(2.61667 0 0 2.61648 1913.31 950)">consolidation</text><path d="M1228.44 499.747 1325.23 499.747 1325.23 502.364 1228.44 502.364ZM1322.61 493.206 1338.31 501.056 1322.61 508.905Z" fill="#000000" fill-rule="nonzero" fill-opacity="1" transform="matrix(1.00007 0 0 1 873.35 609.545)"/><path d="M0 0 0.000206022 93.9106" stroke="#000000" stroke-width="2.61648" stroke-linecap="butt" stroke-linejoin="miter" stroke-miterlimit="8" stroke-opacity="1" fill="none" fill-rule="evenodd" transform="matrix(1.00007 0 0 -1 2099.26 1126.02)"/><path d="M3.02156e-06-1.30824 76.1183-1.30806 76.1183 1.30841-3.02156e-06 1.30824ZM73.5018-7.84928 89.2007 0.000206022 73.5018 7.84959Z" fill="#000000" fill-rule="nonzero" fill-opacity="1" transform="matrix(-1.00007 0 0 1 2099.5 1032.11)"/><text fill="#000000" fill-opacity="1" font-family="Arial,Arial_MSFontService,sans-serif" font-style="normal" font-variant="normal" font-weight="400" font-stretch="normal" font-size="11" text-anchor="start" direction="ltr" writing-mode="lr-tb" unicode-bidi="normal" text-decoration="none" transform="matrix(2.61667 0 0 2.61648 2119.08 1060)">Secondary</text><text fill="#000000" fill-opacity="1" font-family="Arial,Arial_MSFontService,sans-serif" font-style="normal" font-variant="normal" font-weight="400" font-stretch="normal" font-size="11" text-anchor="start" direction="ltr" writing-mode="lr-tb" unicode-bidi="normal" text-decoration="none" transform="matrix(2.61667 0 0 2.61648 2119.08 1094)">consolidation</text><text fill="#000000" fill-opacity="1" font-family="Arial,Arial_MSFontService,sans-serif" font-style="normal" font-variant="normal" font-weight="400" font-stretch="normal" font-size="11" text-anchor="start" direction="ltr" writing-mode="lr-tb" unicode-bidi="normal" text-decoration="none" transform="matrix(2.61667 0 0 2.61648 2398.6 1135)">24 to 50 </text><text fill="#000000" fill-opacity="1" font-family="Cambria Math,Cambria Math_MSFontService,sans-serif" font-style="normal" font-variant="normal" font-weight="400" font-stretch="normal" font-size="11" text-anchor="start" direction="ltr" writing-mode="lr-tb" unicode-bidi="normal" text-decoration="none" transform="matrix(2.61667 0 0 2.61648 2510.64 1135)">℃</text><path d="M1548.95 545.536 1548.95 592.745 1546.34 592.745 1546.34 545.536ZM1555.5 590.128 1547.65 605.827 1539.8 590.128Z" fill="#000000" fill-rule="nonzero" fill-opacity="1" transform="matrix(1.00007 0 0 1 873.35 609.545)"/><path d="M1.30824-4.07234e-06 1.3084 53.1022-1.30807 53.1022-1.30824 4.07234e-06ZM7.84959 50.4857 0.000206022 66.1846-7.84928 50.4857Z" fill="#000000" fill-rule="nonzero" fill-opacity="1" transform="matrix(1.00007 0 0 -1 2452.51 1582.34)"/><text fill="#000000" fill-opacity="1" font-family="Arial,Arial_MSFontService,sans-serif" font-style="normal" font-variant="normal" font-weight="400" font-stretch="normal" font-size="11" text-anchor="start" direction="ltr" writing-mode="lr-tb" unicode-bidi="normal" text-decoration="none" transform="matrix(2.61667 0 0 2.61648 2427.68 1620)">50 to 24 </text><text fill="#000000" fill-opacity="1" font-family="Cambria Math,Cambria Math_MSFontService,sans-serif" font-style="normal" font-variant="normal" font-weight="400" font-stretch="normal" font-size="11" text-anchor="start" direction="ltr" writing-mode="lr-tb" unicode-bidi="normal" text-decoration="none" transform="matrix(2.61667 0 0 2.61648 2539.72 1620)">℃</text><text fill="#000000" fill-opacity="1" font-family="Cambria Math,Cambria Math_MSFontService,sans-serif" font-style="normal" font-variant="normal" font-weight="400" font-stretch="normal" font-size="11" text-anchor="start" direction="ltr" writing-mode="lr-tb" unicode-bidi="normal" text-decoration="none" transform="matrix(2.61667 0 0 2.61648 1929.14 992)">𝜎</text><text fill="#000000" fill-opacity="1" font-family="Cambria Math,Cambria Math_MSFontService,sans-serif" font-style="normal" font-variant="normal" font-weight="400" font-stretch="normal" font-size="8" text-anchor="start" direction="ltr" writing-mode="lr-tb" unicode-bidi="normal" text-decoration="none" transform="matrix(2.61667 0 0 2.61648 1944.01 997)">𝑧</text><text fill="#000000" fill-opacity="1" font-family="Arial,Arial_MSFontService,sans-serif" font-style="normal" font-variant="normal" font-weight="400" font-stretch="normal" font-size="11" text-anchor="start" direction="ltr" writing-mode="lr-tb" unicode-bidi="normal" text-decoration="none" transform="matrix(2.61667 0 0 2.61648 1956.78 992)">: 1241 to 1441 kPa</text><text fill="#000000" fill-opacity="1" font-family="Arial,Arial_MSFontService,sans-serif" font-style="normal" font-variant="normal" font-weight="400" font-stretch="normal" font-size="11" text-anchor="start" direction="ltr" writing-mode="lr-tb" unicode-bidi="normal" text-decoration="none" transform="matrix(2.61667 0 0 2.61648 2549.13 934)">(a)</text><path d="M1058.37 1006.04 1152.56 1006.04 1152.56 1055.75 1058.37 1055.75Z" stroke="#000000" stroke-width="2.61648" stroke-linecap="butt" stroke-linejoin="miter" stroke-miterlimit="8" stroke-opacity="1" fill="none" fill-rule="nonzero" transform="matrix(1.00007 0 0 1 873.35 609.545)"/><text fill="#000000" fill-opacity="1" font-family="Arial,Arial_MSFontService,sans-serif" font-style="normal" font-variant="normal" font-weight="400" font-stretch="normal" font-size="11" text-anchor="start" direction="ltr" writing-mode="lr-tb" unicode-bidi="normal" text-decoration="none" transform="matrix(2.61667 0 0 2.61648 1951.31 1651)">Illite</text></g></g></g></g></g><g clip-path="url(#clip1)"><g clip-path="url(#clip2)"><g clip-path="url(#clip3)"><g clip-path="url(#clip4)"><g clip-path="url(#clip5)"><path d="M1148.7 1300.42 2132.14 1300.42 2132.14 2210.71 1148.7 2210.71Z" fill="#FFFFFF" fill-rule="nonzero" fill-opacity="1" transform="matrix(1.00057 0 0 1 1553.64 -516.706)"/><path d="M0 0 0.000213323 799.214" stroke="#000000" stroke-width="2.7092" stroke-linecap="butt" stroke-linejoin="round" stroke-miterlimit="10" stroke-opacity="1" fill="none" fill-rule="evenodd" transform="matrix(1.00057 0 0 -1 2834.47 1679.1)"/><path d="M1280.1 2195.81 1288.22 2195.81M1280.1 2179.55 1288.22 2179.55M1280.1 2163.3 1288.22 2163.3M1280.1 2147.04 1288.22 2147.04M1280.1 2130.78 1288.22 2130.78M1280.1 2114.53 1288.22 2114.53M1280.1 2098.27 1288.22 2098.27M1280.1 2082.02 1288.22 2082.02M1280.1 2068.47 1288.22 2068.47M1280.1 2052.22 1288.22 2052.22M1280.1 2035.96 1288.22 2035.96M1280.1 2019.71 1288.22 2019.71M1280.1 2003.45 1288.22 2003.45M1280.1 1987.2 1288.22 1987.2M1280.1 1970.94 1288.22 1970.94M1280.1 1954.69 1288.22 1954.69M1280.1 1938.43 1288.22 1938.43M1280.1 1924.89 1288.22 1924.89M1280.1 1908.63 1288.22 1908.63M1280.1 1892.38 1288.22 1892.38M1280.1 1876.12 1288.22 1876.12M1280.1 1859.86 1288.22 1859.86M1280.1 1843.61 1288.22 1843.61M1280.1 1827.35 1288.22 1827.35M1280.1 1811.1 1288.22 1811.1M1280.1 1794.84 1288.22 1794.84M1280.1 1781.3 1288.22 1781.3M1280.1 1765.04 1288.22 1765.04M1280.1 1748.79 1288.22 1748.79M1280.1 1732.53 1288.22 1732.53M1280.1 1716.28 1288.22 1716.28M1280.1 1700.02 1288.22 1700.02M1280.1 1683.77 1288.22 1683.77M1280.1 1667.51 1288.22 1667.51M1280.1 1651.26 1288.22 1651.26M1280.1 1635 1288.22 1635M1280.1 1621.46 1288.22 1621.46M1280.1 1605.2 1288.22 1605.2M1280.1 1588.95 1288.22 1588.95M1280.1 1572.69 1288.22 1572.69M1280.1 1556.43 1288.22 1556.43M1280.1 1540.18 1288.22 1540.18M1280.1 1523.92 1288.22 1523.92M1280.1 1507.67 1288.22 1507.67M1280.1 1491.41 1288.22 1491.41M1280.1 1477.87 1288.22 1477.87M1280.1 1461.61 1288.22 1461.61M1280.1 1445.36 1288.22 1445.36M1280.1 1429.1 1288.22 1429.1M1280.1 1412.85 1288.22 1412.85M1280.1 1396.59 1288.22 1396.59M1280.1 2195.81 1290.93 2195.81M1280.1 2114.53 1290.93 2114.53M1280.1 2035.96 1290.93 2035.96M1280.1 1954.69 1290.93 1954.69M1280.1 1876.12 1290.93 1876.12M1280.1 1794.84 1290.93 1794.84M1280.1 1716.28 1290.93 1716.28M1280.1 1635 1290.93 1635M1280.1 1556.43 1290.93 1556.43M1280.1 1477.87 1290.93 1477.87M1280.1 1396.59 1290.93 1396.59" stroke="#000000" stroke-width="2.7092" stroke-linecap="butt" stroke-linejoin="round" stroke-miterlimit="10" stroke-opacity="1" fill="none" fill-rule="nonzero" transform="matrix(1.00057 0 0 1 1553.64 -516.706)"/><path d="M1280.1 1396.59 2084.73 1396.59" stroke="#000000" stroke-width="2.7092" stroke-linecap="butt" stroke-linejoin="round" stroke-miterlimit="10" stroke-opacity="1" fill="none" fill-rule="evenodd" transform="matrix(1.00057 0 0 1 1553.64 -516.706)"/><path d="M1280.1 1396.59 1280.1 1402.01M1523.92 1396.59 1523.92 1402.01M1664.8 1396.59 1664.8 1402.01M1765.04 1396.59 1765.04 1402.01M1843.61 1396.59 1843.61 1402.01M1905.92 1396.59 1905.92 1402.01M1960.11 1396.59 1960.11 1402.01M2006.16 1396.59 2006.16 1402.01M2046.8 1396.59 2046.8 1402.01M2084.73 1396.59 2084.73 1402.01M1280.1 1396.59 1280.1 1404.72M2084.73 1396.59 2084.73 1404.72" stroke="#000000" stroke-width="2.7092" stroke-linecap="butt" stroke-linejoin="round" stroke-miterlimit="10" stroke-opacity="1" fill="none" fill-rule="nonzero" transform="matrix(1.00057 0 0 1 1553.64 -516.706)"/><path d="M1521.71 1406.32C1521.71 1410.81 1518.07 1414.45 1513.58 1414.45 1509.09 1414.45 1505.45 1410.81 1505.45 1406.32 1505.45 1401.83 1509.09 1398.2 1513.58 1398.2 1518.07 1398.2 1521.71 1401.83 1521.71 1406.32Z" stroke="#000000" stroke-width="2.0319" stroke-linecap="butt" stroke-linejoin="round" stroke-miterlimit="10" stroke-opacity="1" fill="#595959" fill-rule="nonzero" fill-opacity="1" transform="matrix(1.00057 0 0 1 1553.64 -516.706)"/><path d="M1597.57 1501.15C1597.57 1505.63 1593.93 1509.27 1589.44 1509.27 1584.95 1509.27 1581.31 1505.63 1581.31 1501.15 1581.31 1496.66 1584.95 1493.02 1589.44 1493.02 1593.93 1493.02 1597.57 1496.66 1597.57 1501.15Z" stroke="#000000" stroke-width="2.0319" stroke-linecap="butt" stroke-linejoin="round" stroke-miterlimit="10" stroke-opacity="1" fill="#595959" fill-rule="nonzero" fill-opacity="1" transform="matrix(1.00057 0 0 1 1553.64 -516.706)"/><path d="M1662.59 1623.06C1662.59 1627.55 1658.95 1631.19 1654.46 1631.19 1649.97 1631.19 1646.33 1627.55 1646.33 1623.06 1646.33 1618.57 1649.97 1614.93 1654.46 1614.93 1658.95 1614.93 1662.59 1618.57 1662.59 1623.06Z" stroke="#000000" stroke-width="2.0319" stroke-linecap="butt" stroke-linejoin="round" stroke-miterlimit="10" stroke-opacity="1" fill="#595959" fill-rule="nonzero" fill-opacity="1" transform="matrix(1.00057 0 0 1 1553.64 -516.706)"/><path d="M1743.86 1785.61C1743.86 1790.1 1740.22 1793.74 1735.73 1793.74 1731.25 1793.74 1727.61 1790.1 1727.61 1785.61 1727.61 1781.12 1731.25 1777.48 1735.73 1777.48 1740.22 1777.48 1743.86 1781.12 1743.86 1785.61Z" stroke="#000000" stroke-width="2.0319" stroke-linecap="butt" stroke-linejoin="round" stroke-miterlimit="10" stroke-opacity="1" fill="#595959" fill-rule="nonzero" fill-opacity="1" transform="matrix(1.00057 0 0 1 1553.64 -516.706)"/><path d="M1827.85 1948.16C1827.85 1952.65 1824.21 1956.29 1819.72 1956.29 1815.23 1956.29 1811.59 1952.65 1811.59 1948.16 1811.59 1943.67 1815.23 1940.04 1819.72 1940.04 1824.21 1940.04 1827.85 1943.67 1827.85 1948.16Z" stroke="#000000" stroke-width="2.0319" stroke-linecap="butt" stroke-linejoin="round" stroke-miterlimit="10" stroke-opacity="1" fill="#595959" fill-rule="nonzero" fill-opacity="1" transform="matrix(1.00057 0 0 1 1553.64 -516.706)"/><path d="M1903.71 2097.17C1903.71 2101.66 1900.07 2105.3 1895.58 2105.3 1891.09 2105.3 1887.45 2101.66 1887.45 2097.17 1887.45 2092.68 1891.09 2089.04 1895.58 2089.04 1900.07 2089.04 1903.71 2092.68 1903.71 2097.17Z" stroke="#000000" stroke-width="2.0319" stroke-linecap="butt" stroke-linejoin="round" stroke-miterlimit="10" stroke-opacity="1" fill="#595959" fill-rule="nonzero" fill-opacity="1" transform="matrix(1.00057 0 0 1 1553.64 -516.706)"/><path d="M1505.45 1511.98 1521.71 1511.98 1521.71 1528.24 1505.45 1528.24Z" stroke="#000000" stroke-width="2.0319" stroke-linecap="butt" stroke-linejoin="round" stroke-miterlimit="10" stroke-opacity="1" fill="#747474" fill-rule="nonzero" fill-opacity="1" transform="matrix(1.00057 0 0 1 1553.64 -516.706)"/><path d="M1581.31 1598.68 1597.57 1598.68 1597.57 1614.93 1581.31 1614.93Z" stroke="#000000" stroke-width="2.0319" stroke-linecap="butt" stroke-linejoin="round" stroke-miterlimit="10" stroke-opacity="1" fill="#747474" fill-rule="nonzero" fill-opacity="1" transform="matrix(1.00057 0 0 1 1553.64 -516.706)"/><path d="M1646.33 1720.59 1662.59 1720.59 1662.59 1736.85 1646.33 1736.85Z" stroke="#000000" stroke-width="2.0319" stroke-linecap="butt" stroke-linejoin="round" stroke-miterlimit="10" stroke-opacity="1" fill="#747474" fill-rule="nonzero" fill-opacity="1" transform="matrix(1.00057 0 0 1 1553.64 -516.706)"/><path d="M1727.61 1875.01 1743.86 1875.01 1743.86 1891.27 1727.61 1891.27Z" stroke="#000000" stroke-width="2.0319" stroke-linecap="butt" stroke-linejoin="round" stroke-miterlimit="10" stroke-opacity="1" fill="#747474" fill-rule="nonzero" fill-opacity="1" transform="matrix(1.00057 0 0 1 1553.64 -516.706)"/><path d="M1811.59 2026.73 1827.85 2026.73 1827.85 2042.98 1811.59 2042.98Z" stroke="#000000" stroke-width="2.0319" stroke-linecap="butt" stroke-linejoin="round" stroke-miterlimit="10" stroke-opacity="1" fill="#747474" fill-rule="nonzero" fill-opacity="1" transform="matrix(1.00057 0 0 1 1553.64 -516.706)"/><path d="M1887.45 2164.9 1903.71 2164.9 1903.71 2181.15 1887.45 2181.15Z" stroke="#000000" stroke-width="2.0319" stroke-linecap="butt" stroke-linejoin="round" stroke-miterlimit="10" stroke-opacity="1" fill="#747474" fill-rule="nonzero" fill-opacity="1" transform="matrix(1.00057 0 0 1 1553.64 -516.706)"/><path d="M1516.29 1571.58 1524.42 1587.84 1508.16 1587.84Z" stroke="#000000" stroke-width="2.0319" stroke-linecap="butt" stroke-linejoin="round" stroke-miterlimit="10" stroke-opacity="1" fill="#E8E8E8" fill-rule="nonzero" fill-opacity="1" transform="matrix(1.00057 0 0 1 1553.64 -516.706)"/><path d="M1592.15 1644.73 1600.27 1660.99 1584.02 1660.99Z" stroke="#000000" stroke-width="2.0319" stroke-linecap="butt" stroke-linejoin="round" stroke-miterlimit="10" stroke-opacity="1" fill="#E8E8E8" fill-rule="nonzero" fill-opacity="1" transform="matrix(1.00057 0 0 1 1553.64 -516.706)"/><path d="M1657.17 1755.81 1665.3 1772.07 1649.04 1772.07Z" stroke="#000000" stroke-width="2.0319" stroke-linecap="butt" stroke-linejoin="round" stroke-miterlimit="10" stroke-opacity="1" fill="#E8E8E8" fill-rule="nonzero" fill-opacity="1" transform="matrix(1.00057 0 0 1 1553.64 -516.706)"/><path d="M1738.44 1907.53 1746.57 1923.78 1730.32 1923.78Z" stroke="#000000" stroke-width="2.0319" stroke-linecap="butt" stroke-linejoin="round" stroke-miterlimit="10" stroke-opacity="1" fill="#E8E8E8" fill-rule="nonzero" fill-opacity="1" transform="matrix(1.00057 0 0 1 1553.64 -516.706)"/><path d="M1822.43 2053.82 1830.56 2070.08 1814.3 2070.08Z" stroke="#000000" stroke-width="2.0319" stroke-linecap="butt" stroke-linejoin="round" stroke-miterlimit="10" stroke-opacity="1" fill="#E8E8E8" fill-rule="nonzero" fill-opacity="1" transform="matrix(1.00057 0 0 1 1553.64 -516.706)"/><path d="M1898.29 2183.86 1906.41 2200.12 1890.16 2200.12Z" stroke="#000000" stroke-width="2.0319" stroke-linecap="butt" stroke-linejoin="round" stroke-miterlimit="10" stroke-opacity="1" fill="#E8E8E8" fill-rule="nonzero" fill-opacity="1" transform="matrix(1.00057 0 0 1 1553.64 -516.706)"/><g clip-path="url(#clip6)"><text fill="#000000" fill-opacity="1" font-family="Arial,Arial_MSFontService,sans-serif" font-style="normal" font-variant="normal" font-weight="400" font-stretch="normal" font-size="11" text-anchor="start" direction="ltr" writing-mode="lr-tb" unicode-bidi="normal" text-decoration="none" transform="matrix(2.71074 0 0 2.7092 2747.91 1689)">0.78</text></g><text fill="#000000" fill-opacity="1" font-family="Arial,Arial_MSFontService,sans-serif" font-style="normal" font-variant="normal" font-weight="400" font-stretch="normal" font-size="11" text-anchor="start" direction="ltr" writing-mode="lr-tb" unicode-bidi="normal" text-decoration="none" transform="matrix(2.71074 0 0 2.7092 2747.91 1607)">0.80</text><text fill="#000000" fill-opacity="1" font-family="Arial,Arial_MSFontService,sans-serif" font-style="normal" font-variant="normal" font-weight="400" font-stretch="normal" font-size="11" text-anchor="start" direction="ltr" writing-mode="lr-tb" unicode-bidi="normal" text-decoration="none" transform="matrix(2.71074 0 0 2.7092 2747.91 1529)">0.82</text><text fill="#000000" fill-opacity="1" font-family="Arial,Arial_MSFontService,sans-serif" font-style="normal" font-variant="normal" font-weight="400" font-stretch="normal" font-size="11" text-anchor="start" direction="ltr" writing-mode="lr-tb" unicode-bidi="normal" text-decoration="none" transform="matrix(2.71074 0 0 2.7092 2747.91 1447)">0.84</text><text fill="#000000" fill-opacity="1" font-family="Arial,Arial_MSFontService,sans-serif" font-style="normal" font-variant="normal" font-weight="400" font-stretch="normal" font-size="11" text-anchor="start" direction="ltr" writing-mode="lr-tb" unicode-bidi="normal" text-decoration="none" transform="matrix(2.71074 0 0 2.7092 2747.91 1369)">0.86</text><text fill="#000000" fill-opacity="1" font-family="Arial,Arial_MSFontService,sans-serif" font-style="normal" font-variant="normal" font-weight="400" font-stretch="normal" font-size="11" text-anchor="start" direction="ltr" writing-mode="lr-tb" unicode-bidi="normal" text-decoration="none" transform="matrix(2.71074 0 0 2.7092 2747.91 1290)">0.88</text><text fill="#000000" fill-opacity="1" font-family="Arial,Arial_MSFontService,sans-serif" font-style="normal" font-variant="normal" font-weight="400" font-stretch="normal" font-size="11" text-anchor="start" direction="ltr" writing-mode="lr-tb" unicode-bidi="normal" text-decoration="none" transform="matrix(2.71074 0 0 2.7092 2747.91 1209)">0.90</text><text fill="#000000" fill-opacity="1" font-family="Arial,Arial_MSFontService,sans-serif" font-style="normal" font-variant="normal" font-weight="400" font-stretch="normal" font-size="11" text-anchor="start" direction="ltr" writing-mode="lr-tb" unicode-bidi="normal" text-decoration="none" transform="matrix(2.71074 0 0 2.7092 2747.91 1130)">0.92</text><text fill="#000000" fill-opacity="1" font-family="Arial,Arial_MSFontService,sans-serif" font-style="normal" font-variant="normal" font-weight="400" font-stretch="normal" font-size="11" text-anchor="start" direction="ltr" writing-mode="lr-tb" unicode-bidi="normal" text-decoration="none" transform="matrix(2.71074 0 0 2.7092 2747.91 1049)">0.94</text><text fill="#000000" fill-opacity="1" font-family="Arial,Arial_MSFontService,sans-serif" font-style="normal" font-variant="normal" font-weight="400" font-stretch="normal" font-size="11" text-anchor="start" direction="ltr" writing-mode="lr-tb" unicode-bidi="normal" text-decoration="none" transform="matrix(2.71074 0 0 2.7092 2747.91 971)">0.96</text><text fill="#000000" fill-opacity="1" font-family="Arial,Arial_MSFontService,sans-serif" font-style="normal" font-variant="normal" font-weight="400" font-stretch="normal" font-size="11" text-anchor="start" direction="ltr" writing-mode="lr-tb" unicode-bidi="normal" text-decoration="none" transform="matrix(2.71074 0 0 2.7092 2747.91 889)">0.98</text><text fill="#000000" fill-opacity="1" font-family="Arial,Arial_MSFontService,sans-serif" font-style="normal" font-variant="normal" font-weight="400" font-stretch="normal" font-size="11" text-anchor="start" direction="ltr" writing-mode="lr-tb" unicode-bidi="normal" text-decoration="none" transform="matrix(2.71074 0 0 2.7092 2811.95 857)">100</text><text fill="#000000" fill-opacity="1" font-family="Arial,Arial_MSFontService,sans-serif" font-style="normal" font-variant="normal" font-weight="400" font-stretch="normal" font-size="11" text-anchor="start" direction="ltr" writing-mode="lr-tb" unicode-bidi="normal" text-decoration="none" transform="matrix(2.71074 0 0 2.7092 3607.69 857)">1000</text><path d="M1537.47 1402.01 1902.22 2110.93" stroke="#000000" stroke-width="2.7092" stroke-linecap="square" stroke-linejoin="miter" stroke-miterlimit="8" stroke-dasharray="8.1276 2.7092" stroke-opacity="1" fill="none" fill-rule="evenodd" transform="matrix(1.00057 0 0 1 1553.64 -516.706)"/><text fill="#000000" fill-opacity="1" font-family="Arial,Arial_MSFontService,sans-serif" font-style="normal" font-variant="normal" font-weight="400" font-stretch="normal" font-size="11" text-anchor="start" direction="ltr" writing-mode="lr-tb" unicode-bidi="normal" text-decoration="none" transform="matrix(2.71074 0 0 2.7092 3057.84 819)">Effective</text><text fill="#000000" fill-opacity="1" font-family="Arial,Arial_MSFontService,sans-serif" font-style="normal" font-variant="normal" font-weight="400" font-stretch="normal" font-size="11" text-anchor="start" direction="ltr" writing-mode="lr-tb" unicode-bidi="normal" text-decoration="none" transform="matrix(2.71074 0 0 2.7092 3180.47 819)">vertical stress:</text><text fill="#000000" fill-opacity="1" font-family="Arial,Arial_MSFontService,sans-serif" font-style="normal" font-variant="normal" font-weight="400" font-stretch="normal" font-size="11" text-anchor="start" direction="ltr" writing-mode="lr-tb" unicode-bidi="normal" text-decoration="none" transform="matrix(2.71074 0 0 2.7092 3379.32 819)">kPa</text><text fill="#000000" fill-opacity="1" font-family="Arial,Arial_MSFontService,sans-serif" font-style="normal" font-variant="normal" font-weight="400" font-stretch="normal" font-size="11" text-anchor="start" direction="ltr" writing-mode="lr-tb" unicode-bidi="normal" text-decoration="none" transform="matrix(-4.97956e-16 -2.7092 2.71074 -4.97672e-16 2738.29 1355)">Void ratio</text><text fill="#000000" fill-opacity="1" font-family="Arial,Arial_MSFontService,sans-serif" font-style="normal" font-variant="normal" font-weight="400" font-stretch="normal" font-size="11" text-anchor="start" direction="ltr" writing-mode="lr-tb" unicode-bidi="normal" text-decoration="none" transform="matrix(-4.97956e-16 -2.7092 2.71074 -4.97672e-16 2738.29 1231)">: </text><text fill="#000000" fill-opacity="1" font-family="Arial,Arial_MSFontService,sans-serif" font-style="normal" font-variant="normal" font-weight="400" font-stretch="normal" font-size="11" text-anchor="start" direction="ltr" writing-mode="lr-tb" unicode-bidi="normal" text-decoration="none" transform="matrix(-4.97956e-16 -2.7092 2.71074 -4.97672e-16 2738.29 1214)">-</text><text fill="#000000" fill-opacity="1" font-family="Arial,Arial_MSFontService,sans-serif" font-style="normal" font-variant="normal" font-weight="400" font-stretch="normal" font-size="11" text-anchor="start" direction="ltr" writing-mode="lr-tb" unicode-bidi="normal" text-decoration="none" transform="matrix(2.71074 0 0 2.7092 3188.12 984)">Isotherms</text><text fill="#000000" fill-opacity="1" font-family="Arial,Arial_MSFontService,sans-serif" font-style="normal" font-variant="normal" font-weight="400" font-stretch="normal" font-size="10" text-anchor="start" direction="ltr" writing-mode="lr-tb" unicode-bidi="normal" text-decoration="none" transform="matrix(2.71074 0 0 2.7092 3268.2 1030)">25</text><text fill="#000000" fill-opacity="1" font-family="Cambria Math,Cambria Math_MSFontService,sans-serif" font-style="normal" font-variant="normal" font-weight="400" font-stretch="normal" font-size="10" text-anchor="start" direction="ltr" writing-mode="lr-tb" unicode-bidi="normal" text-decoration="none" transform="matrix(2.71074 0 0 2.7092 3298.34 1030)">℃</text><text fill="#595959" fill-opacity="1" font-family="Arial,Arial_MSFontService,sans-serif" font-style="normal" font-variant="normal" font-weight="400" font-stretch="normal" font-size="10" text-anchor="start" direction="ltr" writing-mode="lr-tb" unicode-bidi="normal" text-decoration="none" transform="matrix(2.71074 0 0 2.7092 3305.82 1098)">38</text><text fill="#595959" fill-opacity="1" font-family="Cambria Math,Cambria Math_MSFontService,sans-serif" font-style="normal" font-variant="normal" font-weight="400" font-stretch="normal" font-size="10" text-anchor="start" direction="ltr" writing-mode="lr-tb" unicode-bidi="normal" text-decoration="none" transform="matrix(2.71074 0 0 2.7092 3335.96 1098)">℃</text><path d="M1315.32 2136.2 1415.56 2136.2 1415.56 2187.68 1315.32 2187.68Z" stroke="#000000" stroke-width="2.7092" stroke-linecap="butt" stroke-linejoin="miter" stroke-miterlimit="8" stroke-opacity="1" fill="none" fill-rule="nonzero" transform="matrix(1.00057 0 0 1 1553.64 -516.706)"/><text fill="#000000" fill-opacity="1" font-family="Arial,Arial_MSFontService,sans-serif" font-style="normal" font-variant="normal" font-weight="400" font-stretch="normal" font-size="11" text-anchor="start" direction="ltr" writing-mode="lr-tb" unicode-bidi="normal" text-decoration="none" transform="matrix(2.71074 0 0 2.7092 2891.97 1656)">Illite</text><path d="M1532.05 1504.96 1898.89 2182.73" stroke="#747474" stroke-width="2.7092" stroke-linecap="square" stroke-linejoin="miter" stroke-miterlimit="8" stroke-dasharray="8.1276 2.7092" stroke-opacity="1" fill="none" fill-rule="evenodd" transform="matrix(1.00057 0 0 1 1553.64 -516.706)"/><path d="M1537.47 1567.27 1898.01 2202.32" stroke="#AEAEAE" stroke-width="2.7092" stroke-linecap="square" stroke-linejoin="miter" stroke-miterlimit="8" stroke-dasharray="8.1276 2.7092" stroke-opacity="1" fill="none" fill-rule="evenodd" transform="matrix(1.00057 0 0 1 1553.64 -516.706)"/><text fill="#7F7F7F" fill-opacity="1" font-family="Arial,Arial_MSFontService,sans-serif" font-style="normal" font-variant="normal" font-weight="400" font-stretch="normal" font-size="10" text-anchor="start" direction="ltr" writing-mode="lr-tb" unicode-bidi="normal" text-decoration="none" transform="matrix(2.71074 0 0 2.7092 3047.73 1239)">51</text><text fill="#7F7F7F" fill-opacity="1" font-family="Cambria Math,Cambria Math_MSFontService,sans-serif" font-style="normal" font-variant="normal" font-weight="400" font-stretch="normal" font-size="10" text-anchor="start" direction="ltr" writing-mode="lr-tb" unicode-bidi="normal" text-decoration="none" transform="matrix(2.71074 0 0 2.7092 3077.88 1239)">℃</text><path d="M0.709322-1.15404 48.9124 28.4737 47.4936 30.7816-0.709322 1.15404ZM48.7323 23.5929 59.7433 36.721 43.0576 32.8252Z" fill="#000000" fill-rule="nonzero" fill-opacity="1" transform="matrix(-1.00057 0 0 1 3257.49 1039.73)"/><path d="M0.709409-1.15398 93.2433 55.7312 91.8245 58.0392-0.709409 1.15398ZM93.0637 50.8503 104.074 63.9791 87.3885 60.0822Z" fill="#7F7F7F" fill-rule="nonzero" fill-opacity="1" transform="matrix(-1.00057 0 0 1 3291 1093.91)"/><path d="M0.709528-1.15391 38.6451 22.1723 37.226 24.4802-0.709528 1.15391ZM38.4657 17.2915 49.4746 30.4216 32.7897 26.5228Z" fill="#AEAEAE" fill-rule="nonzero" fill-opacity="1" transform="matrix(1.00057 0 0 -1 3116.39 1219.16)"/><text fill="#000000" fill-opacity="1" font-family="Arial,Arial_MSFontService,sans-serif" font-style="normal" font-variant="normal" font-weight="400" font-stretch="normal" font-size="11" text-anchor="start" direction="ltr" writing-mode="lr-tb" unicode-bidi="normal" text-decoration="none" transform="matrix(2.71074 0 0 2.7092 3566.08 941)">(b)</text></g></g></g></g></g></g></g></svg>