<svg width="300" height="226" xmlns="http://www.w3.org/2000/svg" xmlns:xlink="http://www.w3.org/1999/xlink" xml:space="preserve" overflow="hidden"><g><g><g><g><g><path d="M95.1941 47.5297 95.1941 250.166 94.4148 250.166 94.4146 47.5297ZM94.8044 250.166 97.1426 247.049 94.8044 254.843 92.4661 247.049Z" fill="#000000" fill-rule="nonzero" fill-opacity="1" transform="matrix(1.00187 0 0 1 -74.963 -36.5613)"/><path d="M81.5403 56.4929 353.057 56.493 353.057 57.2724 81.5403 57.2724ZM353.057 56.8826 349.938 54.5444 357.733 56.8826 349.938 59.2208Z" fill="#000000" fill-rule="nonzero" fill-opacity="1" transform="matrix(1.00187 0 0 1 -74.963 -36.5613)"/><text fill="#000000" fill-opacity="1" font-family="Arial,Arial_MSFontService,sans-serif" font-style="normal" font-variant="normal" font-weight="400" font-stretch="normal" font-size="55" text-anchor="start" direction="ltr" writing-mode="lr-tb" unicode-bidi="normal" text-decoration="none" transform="matrix(-3.12965e-17 -0.170053 0.17037 -3.12382e-17 12.5801 215)">Natural volumetric strain</text><text fill="#000000" fill-opacity="1" font-family="Arial,Arial_MSFontService,sans-serif" font-style="normal" font-variant="normal" font-weight="400" font-stretch="normal" font-size="55" text-anchor="start" direction="ltr" writing-mode="lr-tb" unicode-bidi="normal" text-decoration="none" transform="matrix(0.17037 0 0 0.170053 140.544 12)">Effective vertical stress (log scale)</text><text fill="#000000" fill-opacity="1" font-family="Cambria Math,Cambria Math_MSFontService,sans-serif" font-style="normal" font-variant="normal" font-weight="400" font-stretch="normal" font-size="48" text-anchor="start" direction="ltr" writing-mode="lr-tb" unicode-bidi="normal" text-decoration="none" transform="matrix(0.17037 0 0 0.170053 132.661 46)">𝜀</text><path d="M-1.14786-4.60338C-1.2754-4.60338-1.38168-4.64788-1.4667-4.7369-1.55173-4.82591-1.59424-4.93818-1.59424-5.07367-1.59424-5.20919-1.55173-5.32146-1.4667-5.41046-1.38168-5.49947-1.2754-5.54399-1.14786-5.54399-1.02297-5.54399-0.918019-5.49947-0.832993-5.41046-0.747966-5.32146-0.705453-5.20919-0.705453-5.07367-0.705453-4.93818-0.747966-4.82591-0.832993-4.7369-0.918019-4.64788-1.02297-4.60338-1.14786-4.60338Z" fill="#000000" fill-rule="nonzero" fill-opacity="1" transform="matrix(1.00187 0 0 1 136.6 46.4244)"/><text fill="#000000" fill-opacity="1" font-family="Cambria Math,Cambria Math_MSFontService,sans-serif" font-style="normal" font-variant="normal" font-weight="400" font-stretch="normal" font-size="35" text-anchor="start" direction="ltr" writing-mode="lr-tb" unicode-bidi="normal" text-decoration="none" transform="matrix(0.17037 0 0 0.170053 136.225 48)">nv</text><text fill="#000000" fill-opacity="1" font-family="Cambria Math,Cambria Math_MSFontService,sans-serif" font-style="normal" font-variant="normal" font-weight="400" font-stretch="normal" font-size="35" text-anchor="start" direction="ltr" writing-mode="lr-tb" unicode-bidi="normal" text-decoration="none" transform="matrix(0.17037 0 0 0.170053 136.83 42)">vp</text><text fill="#000000" fill-opacity="1" font-family="Cambria Math,Cambria Math_MSFontService,sans-serif" font-style="normal" font-variant="normal" font-weight="400" font-stretch="normal" font-size="50" text-anchor="start" direction="ltr" writing-mode="lr-tb" unicode-bidi="normal" text-decoration="none" transform="matrix(0.17037 0 0 0.170053 251.63 140)">𝑇</text><text fill="#000000" fill-opacity="1" font-family="Cambria Math,Cambria Math_MSFontService,sans-serif" font-style="normal" font-variant="normal" font-weight="400" font-stretch="normal" font-size="37" text-anchor="start" direction="ltr" writing-mode="lr-tb" unicode-bidi="normal" text-decoration="none" transform="matrix(0.17037 0 0 0.170053 255.786 142)">L</text><text fill="#7F7F7F" fill-opacity="1" font-family="Cambria Math,Cambria Math_MSFontService,sans-serif" font-style="normal" font-variant="normal" font-weight="400" font-stretch="normal" font-size="50" text-anchor="start" direction="ltr" writing-mode="lr-tb" unicode-bidi="normal" text-decoration="none" transform="matrix(0.17037 0 0 0.170053 251.094 177)">𝑇</text><text fill="#7F7F7F" fill-opacity="1" font-family="Cambria Math,Cambria Math_MSFontService,sans-serif" font-style="normal" font-variant="normal" font-weight="400" font-stretch="normal" font-size="37" text-anchor="start" direction="ltr" writing-mode="lr-tb" unicode-bidi="normal" text-decoration="none" transform="matrix(0.17037 0 0 0.170053 255.247 179)">H</text><text fill="#000000" fill-opacity="1" font-family="Cambria Math,Cambria Math_MSFontService,sans-serif" font-style="normal" font-variant="normal" font-weight="400" font-stretch="normal" font-size="48" text-anchor="start" direction="ltr" writing-mode="lr-tb" unicode-bidi="normal" text-decoration="none" transform="matrix(0.17037 0 0 0.170053 228.932 114)">𝑇</text><text fill="#000000" fill-opacity="1" font-family="Cambria Math,Cambria Math_MSFontService,sans-serif" font-style="normal" font-variant="normal" font-weight="400" font-stretch="normal" font-size="35" text-anchor="start" direction="ltr" writing-mode="lr-tb" unicode-bidi="normal" text-decoration="none" transform="matrix(0.17037 0 0 0.170053 232.93 116)">H</text><text fill="#000000" fill-opacity="1" font-family="Cambria Math,Cambria Math_MSFontService,sans-serif" font-style="normal" font-variant="normal" font-weight="400" font-stretch="normal" font-size="48" text-anchor="start" direction="ltr" writing-mode="lr-tb" unicode-bidi="normal" text-decoration="none" transform="matrix(0.17037 0 0 0.170053 228.932 124)">&gt;</text><text fill="#000000" fill-opacity="1" font-family="Cambria Math,Cambria Math_MSFontService,sans-serif" font-style="normal" font-variant="normal" font-weight="400" font-stretch="normal" font-size="48" text-anchor="start" direction="ltr" writing-mode="lr-tb" unicode-bidi="normal" text-decoration="none" transform="matrix(0.17037 0 0 0.170053 237.357 124)">𝑇</text><text fill="#000000" fill-opacity="1" font-family="Cambria Math,Cambria Math_MSFontService,sans-serif" font-style="normal" font-variant="normal" font-weight="400" font-stretch="normal" font-size="35" text-anchor="start" direction="ltr" writing-mode="lr-tb" unicode-bidi="normal" text-decoration="none" transform="matrix(0.17037 0 0 0.170053 241.355 125)">L</text><text fill="#000000" fill-opacity="1" font-family="Cambria Math,Cambria Math_MSFontService,sans-serif" font-style="normal" font-variant="normal" font-weight="400" font-stretch="normal" font-size="50" text-anchor="start" direction="ltr" writing-mode="lr-tb" unicode-bidi="normal" text-decoration="none" transform="matrix(0.17037 0 0 0.170053 27.625 213)">𝜀</text><path d="M-1.19568-4.79518C-1.32854-4.79518-1.43925-4.84155-1.52782-4.93427-1.61639-5.027-1.66067-5.14392-1.66067-5.28508-1.66067-5.42625-1.61639-5.54317-1.52782-5.6359-1.43925-5.72862-1.32854-5.77499-1.19568-5.77499-1.0656-5.77499-0.956269-5.72862-0.867701-5.6359-0.779132-5.54317-0.734847-5.42625-0.734847-5.28508-0.734847-5.14392-0.779132-5.027-0.867701-4.93427-0.956269-4.84155-1.0656-4.79518-1.19568-4.79518Z" fill="#000000" fill-rule="nonzero" fill-opacity="1" transform="matrix(1.00187 0 0 1 31.7519 212.736)"/><text fill="#000000" fill-opacity="1" font-family="Cambria Math,Cambria Math_MSFontService,sans-serif" font-style="normal" font-variant="normal" font-weight="400" font-stretch="normal" font-size="37" text-anchor="start" direction="ltr" writing-mode="lr-tb" unicode-bidi="normal" text-decoration="none" transform="matrix(0.17037 0 0 0.170053 31.3771 215)">nv</text><text fill="#000000" fill-opacity="1" font-family="Cambria Math,Cambria Math_MSFontService,sans-serif" font-style="normal" font-variant="normal" font-weight="400" font-stretch="normal" font-size="37" text-anchor="start" direction="ltr" writing-mode="lr-tb" unicode-bidi="normal" text-decoration="none" transform="matrix(0.17037 0 0 0.170053 32.0136 208)">vp</text><text fill="#000000" fill-opacity="1" font-family="Arial,Arial_MSFontService,sans-serif" font-style="normal" font-variant="normal" font-weight="400" font-stretch="normal" font-size="50" text-anchor="start" direction="ltr" writing-mode="lr-tb" unicode-bidi="normal" text-decoration="none" transform="matrix(0.17037 0 0 0.170053 39.8847 213)">: Viscoplastic natural volumetric strain rate</text><text fill="#000000" fill-opacity="1" font-family="Cambria Math,Cambria Math_MSFontService,sans-serif" font-style="normal" font-variant="normal" font-weight="400" font-stretch="normal" font-size="50" text-anchor="start" direction="ltr" writing-mode="lr-tb" unicode-bidi="normal" text-decoration="none" transform="matrix(0.17037 0 0 0.170053 28.2771 203)">𝑇</text><text fill="#000000" fill-opacity="1" font-family="Arial,Arial_MSFontService,sans-serif" font-style="normal" font-variant="normal" font-weight="400" font-stretch="normal" font-size="50" text-anchor="start" direction="ltr" writing-mode="lr-tb" unicode-bidi="normal" text-decoration="none" transform="matrix(0.17037 0 0 0.170053 38.2253 203)">: Temperature</text><path d="M143.95 67.5959 316.907 166.052" stroke="#000000" stroke-width="0.779408" stroke-linecap="butt" stroke-linejoin="miter" stroke-miterlimit="8" stroke-opacity="1" fill="none" fill-rule="evenodd" transform="matrix(1.00187 0 0 1 -74.963 -36.5613)"/><path d="M130.005 67.4259 316.971 173.857" stroke="#000000" stroke-width="0.779408" stroke-linecap="butt" stroke-linejoin="miter" stroke-miterlimit="8" stroke-opacity="1" fill="none" fill-rule="evenodd" transform="matrix(1.00187 0 0 1 -74.963 -36.5613)"/><path d="M114.53 67.4259 316.982 182.672" stroke="#000000" stroke-width="0.779408" stroke-linecap="butt" stroke-linejoin="miter" stroke-miterlimit="8" stroke-opacity="1" fill="none" fill-rule="evenodd" transform="matrix(1.00187 0 0 1 -74.963 -36.5613)"/><path d="M113.85 86.1317 316.951 201.747" stroke="#AFABAB" stroke-width="0.779408" stroke-linecap="butt" stroke-linejoin="miter" stroke-miterlimit="8" stroke-opacity="1" fill="none" fill-rule="evenodd" transform="matrix(1.00187 0 0 1 -74.963 -36.5613)"/><path d="M114.53 103.137 316.982 218.383" stroke="#AFABAB" stroke-width="0.779408" stroke-linecap="butt" stroke-linejoin="miter" stroke-miterlimit="8" stroke-opacity="1" fill="none" fill-rule="evenodd" transform="matrix(1.00187 0 0 1 -74.963 -36.5613)"/><path d="M114.53 94.4643 316.982 209.711" stroke="#AFABAB" stroke-width="0.779408" stroke-linecap="butt" stroke-linejoin="miter" stroke-miterlimit="8" stroke-opacity="1" fill="none" fill-rule="evenodd" transform="matrix(1.00187 0 0 1 -74.963 -36.5613)"/><path d="M0 0 6.43755 10.3055" stroke="#000000" stroke-width="0.779408" stroke-linecap="square" stroke-linejoin="miter" stroke-miterlimit="8" stroke-dasharray="2.33822 0.779408" stroke-opacity="1" fill="none" fill-rule="evenodd" transform="matrix(1.00187 0 0 -1 109.974 54.6043)"/><path d="M0 0 8.99266 14.3959" stroke="#000000" stroke-width="0.779408" stroke-linecap="square" stroke-linejoin="miter" stroke-miterlimit="8" stroke-dasharray="2.33822 0.779408" stroke-opacity="1" fill="none" fill-rule="evenodd" transform="matrix(1.00187 0 0 -1 119.004 67.1972)"/><path d="M0 0 10.884 17.4236" stroke="#000000" stroke-width="0.779408" stroke-linecap="square" stroke-linejoin="miter" stroke-miterlimit="8" stroke-dasharray="2.33822 0.779408" stroke-opacity="1" fill="none" fill-rule="evenodd" transform="matrix(1.00187 0 0 -1 127.863 81.4484)"/><path d="M202.618 89.3627 217.963 89.3627" stroke="#000000" stroke-width="0.779408" stroke-linecap="square" stroke-linejoin="miter" stroke-miterlimit="8" stroke-dasharray="2.33822 0.779408" stroke-opacity="1" fill="none" fill-rule="evenodd" transform="matrix(1.00187 0 0 1 -74.963 -36.5613)"/><path d="M213.161 100.416 217.747 100.416" stroke="#000000" stroke-width="0.779408" stroke-linecap="square" stroke-linejoin="miter" stroke-miterlimit="8" stroke-dasharray="2.33822 0.779408" stroke-opacity="1" fill="none" fill-rule="evenodd" transform="matrix(1.00187 0 0 1 -74.963 -36.5613)"/><path d="M191.054 80.86 204.939 80.86" stroke="#000000" stroke-width="0.779408" stroke-linecap="square" stroke-linejoin="miter" stroke-miterlimit="8" stroke-dasharray="2.33822 0.779408" stroke-opacity="1" fill="none" fill-rule="evenodd" transform="matrix(1.00187 0 0 1 -74.963 -36.5613)"/><text fill="#000000" fill-opacity="1" font-family="Arial,Arial_MSFontService,sans-serif" font-style="normal" font-variant="normal" font-weight="400" font-stretch="normal" font-size="48" text-anchor="start" direction="ltr" writing-mode="lr-tb" unicode-bidi="normal" text-decoration="none" transform="matrix(0.17037 0 0 0.170053 146.634 56)">0.1</text><text fill="#000000" fill-opacity="1" font-family="Cambria Math,Cambria Math_MSFontService,sans-serif" font-style="normal" font-variant="normal" font-weight="400" font-stretch="normal" font-size="48" text-anchor="start" direction="ltr" writing-mode="lr-tb" unicode-bidi="normal" text-decoration="none" transform="matrix(0.17037 0 0 0.170053 158.054 56)">𝜀</text><path d="M-1.14786-4.60338C-1.2754-4.60338-1.38168-4.64788-1.4667-4.7369-1.55173-4.82591-1.59424-4.93818-1.59424-5.07367-1.59424-5.20919-1.55173-5.32146-1.4667-5.41046-1.38168-5.49947-1.2754-5.54399-1.14786-5.54399-1.02297-5.54399-0.918019-5.49947-0.832993-5.41046-0.747966-5.32146-0.705453-5.20919-0.705453-5.07367-0.705453-4.93818-0.747966-4.82591-0.832993-4.7369-0.918019-4.64788-1.02297-4.60338-1.14786-4.60338Z" fill="#000000" fill-rule="nonzero" fill-opacity="1" transform="matrix(1.00187 0 0 1 161.993 55.7773)"/><text fill="#000000" fill-opacity="1" font-family="Cambria Math,Cambria Math_MSFontService,sans-serif" font-style="normal" font-variant="normal" font-weight="400" font-stretch="normal" font-size="35" text-anchor="start" direction="ltr" writing-mode="lr-tb" unicode-bidi="normal" text-decoration="none" transform="matrix(0.17037 0 0 0.170053 161.618 58)">nv</text><text fill="#000000" fill-opacity="1" font-family="Cambria Math,Cambria Math_MSFontService,sans-serif" font-style="normal" font-variant="normal" font-weight="400" font-stretch="normal" font-size="35" text-anchor="start" direction="ltr" writing-mode="lr-tb" unicode-bidi="normal" text-decoration="none" transform="matrix(0.17037 0 0 0.170053 162.223 51)">vp</text><text fill="#000000" fill-opacity="1" font-family="Arial,Arial_MSFontService,sans-serif" font-style="normal" font-variant="normal" font-weight="400" font-stretch="normal" font-size="48" text-anchor="start" direction="ltr" writing-mode="lr-tb" unicode-bidi="normal" text-decoration="none" transform="matrix(0.17037 0 0 0.170053 150.388 67)">0.01</text><text fill="#000000" fill-opacity="1" font-family="Cambria Math,Cambria Math_MSFontService,sans-serif" font-style="normal" font-variant="normal" font-weight="400" font-stretch="normal" font-size="48" text-anchor="start" direction="ltr" writing-mode="lr-tb" unicode-bidi="normal" text-decoration="none" transform="matrix(0.17037 0 0 0.170053 166.396 67)">𝜀</text><path d="M-1.14786-4.60338C-1.2754-4.60338-1.38168-4.64788-1.4667-4.7369-1.55173-4.82591-1.59424-4.93818-1.59424-5.07367-1.59424-5.20919-1.55173-5.32146-1.4667-5.41046-1.38168-5.49947-1.2754-5.54399-1.14786-5.54399-1.02297-5.54399-0.918019-5.49947-0.832993-5.41046-0.747966-5.32146-0.705453-5.20919-0.705453-5.07367-0.705453-4.93818-0.747966-4.82591-0.832993-4.7369-0.918019-4.64788-1.02297-4.60338-1.14786-4.60338Z" fill="#000000" fill-rule="nonzero" fill-opacity="1" transform="matrix(1.00187 0 0 1 170.335 66.8307)"/><text fill="#000000" fill-opacity="1" font-family="Cambria Math,Cambria Math_MSFontService,sans-serif" font-style="normal" font-variant="normal" font-weight="400" font-stretch="normal" font-size="35" text-anchor="start" direction="ltr" writing-mode="lr-tb" unicode-bidi="normal" text-decoration="none" transform="matrix(0.17037 0 0 0.170053 169.96 69)">nv</text><text fill="#000000" fill-opacity="1" font-family="Cambria Math,Cambria Math_MSFontService,sans-serif" font-style="normal" font-variant="normal" font-weight="400" font-stretch="normal" font-size="35" text-anchor="start" direction="ltr" writing-mode="lr-tb" unicode-bidi="normal" text-decoration="none" transform="matrix(0.17037 0 0 0.170053 170.565 63)">vp</text><path d="M247.221 127.823 247.221 132.11 246.442 132.11 246.442 127.823ZM246.831 127.823 245.272 129.382 246.831 126.264 248.391 129.382ZM246.831 132.11 248.391 130.551 246.831 133.669 245.272 130.551Z" fill="#ED7D31" fill-rule="nonzero" fill-opacity="1" transform="matrix(1.00187 0 0 1 -74.963 -36.5613)"/><path d="M0 0 10.884 17.4236" stroke="#ED7D31" stroke-width="0.779408" stroke-linecap="butt" stroke-linejoin="miter" stroke-miterlimit="8" stroke-opacity="1" fill="none" fill-rule="evenodd" transform="matrix(1.00187 0 0 -1 172.33 94.5425)"/><text fill="#ED7D31" fill-opacity="1" font-family="Arial,Arial_MSFontService,sans-serif" font-style="normal" font-variant="normal" font-weight="400" font-stretch="normal" font-size="55" text-anchor="start" direction="ltr" writing-mode="lr-tb" unicode-bidi="normal" text-decoration="none" transform="matrix(0.17037 0 0 0.170053 190.61 77)">2.303</text><text fill="#ED7D31" fill-opacity="1" font-family="Cambria Math,Cambria Math_MSFontService,sans-serif" font-style="normal" font-variant="normal" font-weight="400" font-stretch="normal" font-size="55" text-anchor="start" direction="ltr" writing-mode="lr-tb" unicode-bidi="normal" text-decoration="none" transform="matrix(0.17037 0 0 0.170053 213.939 77)">𝜆</text><text fill="#ED7D31" fill-opacity="1" font-family="Cambria Math,Cambria Math_MSFontService,sans-serif" font-style="normal" font-variant="normal" font-weight="400" font-stretch="normal" font-size="40" text-anchor="start" direction="ltr" writing-mode="lr-tb" unicode-bidi="normal" text-decoration="none" transform="matrix(0.17037 0 0 0.170053 218.82 79)">𝛼</text><text fill="#ED7D31" fill-opacity="1" font-family="Cambria Math,Cambria Math_MSFontService,sans-serif" font-style="normal" font-variant="normal" font-weight="400" font-stretch="normal" font-size="40" text-anchor="start" direction="ltr" writing-mode="lr-tb" unicode-bidi="normal" text-decoration="none" transform="matrix(0.17037 0 0 0.170053 218.682 73)">∗</text><text fill="#ED7D31" fill-opacity="1" font-family="Cambria Math,Cambria Math_MSFontService,sans-serif" font-style="normal" font-variant="normal" font-weight="400" font-stretch="normal" font-size="55" text-anchor="start" direction="ltr" writing-mode="lr-tb" unicode-bidi="normal" text-decoration="none" transform="matrix(0.17037 0 0 0.170053 226.64 77)">log</text><path d="M362.62 104.982C363.569 105.232 364.302 105.879 364.816 106.923 365.331 107.967 365.588 109.203 365.588 110.631 365.588 112.059 365.331 113.295 364.816 114.34 364.302 115.384 363.569 116.031 362.62 116.28L362.505 115.906C363.243 115.629 363.801 115.025 364.18 114.095 364.559 113.165 364.748 112.012 364.748 110.636 364.748 109.257 364.559 108.101 364.18 107.17 363.801 106.238 363.243 105.634 362.505 105.357ZM316.912 104.982 317.026 105.357C316.289 105.634 315.732 106.238 315.352 107.17 314.973 108.101 314.785 109.257 314.785 110.636 314.785 112.012 314.973 113.165 315.352 114.095 315.732 115.025 316.289 115.629 317.026 115.906L316.912 116.28C315.961 116.031 315.23 115.384 314.715 114.34 314.201 113.295 313.943 112.059 313.943 110.631 313.943 109.203 314.201 107.967 314.715 106.923 315.23 105.879 315.961 105.232 316.912 104.982Z" fill="#ED7D31" fill-rule="evenodd" fill-opacity="1" transform="matrix(1.00187 0 0 1 -74.963 -36.5613)"/><text fill="#ED7D31" fill-opacity="1" font-family="Cambria Math,Cambria Math_MSFontService,sans-serif" font-style="normal" font-variant="normal" font-weight="400" font-stretch="normal" font-size="55" text-anchor="start" direction="ltr" writing-mode="lr-tb" unicode-bidi="normal" text-decoration="none" transform="matrix(0.17037 0 0 0.170053 242.952 77)">𝜀</text><path d="M-1.31525-5.27471C-1.46139-5.27471-1.58317-5.32571-1.6806-5.42769-1.77802-5.52969-1.82674-5.65832-1.82674-5.81359-1.82674-5.96887-1.77802-6.09749-1.6806-6.19949-1.58317-6.30149-1.46139-6.35247-1.31525-6.35249-1.17216-6.35247-1.0519-6.30149-0.95447-6.19949-0.857045-6.09749-0.808332-5.96887-0.808332-5.81359-0.808332-5.65832-0.857045-5.52969-0.95447-5.42769-1.0519-5.32571-1.17216-5.27471-1.31525-5.27471Z" fill="#ED7D31" fill-rule="nonzero" fill-opacity="1" transform="matrix(1.00187 0 0 1 247.454 76.6938)"/><text fill="#ED7D31" fill-opacity="1" font-family="Cambria Math,Cambria Math_MSFontService,sans-serif" font-style="normal" font-variant="normal" font-weight="400" font-stretch="normal" font-size="40" text-anchor="start" direction="ltr" writing-mode="lr-tb" unicode-bidi="normal" text-decoration="none" transform="matrix(0.17037 0 0 0.170053 247.083 79)">nv</text><text fill="#ED7D31" fill-opacity="1" font-family="Cambria Math,Cambria Math_MSFontService,sans-serif" font-style="normal" font-variant="normal" font-weight="400" font-stretch="normal" font-size="40" text-anchor="start" direction="ltr" writing-mode="lr-tb" unicode-bidi="normal" text-decoration="none" transform="matrix(0.17037 0 0 0.170053 247.775 72)">vp</text><text fill="#ED7D31" fill-opacity="1" font-family="Arial,Arial_MSFontService,sans-serif" font-style="normal" font-variant="normal" font-weight="400" font-stretch="normal" font-size="55" text-anchor="start" direction="ltr" writing-mode="lr-tb" unicode-bidi="normal" text-decoration="none" transform="matrix(0.17037 0 0 0.170053 261.529 77)">0.1</text><text fill="#ED7D31" fill-opacity="1" font-family="Cambria Math,Cambria Math_MSFontService,sans-serif" font-style="normal" font-variant="normal" font-weight="400" font-stretch="normal" font-size="55" text-anchor="start" direction="ltr" writing-mode="lr-tb" unicode-bidi="normal" text-decoration="none" transform="matrix(0.17037 0 0 0.170053 274.511 77)">𝜀</text><path d="M-1.31525-5.27471C-1.46139-5.27471-1.58317-5.32571-1.6806-5.42769-1.77802-5.52969-1.82674-5.65832-1.82674-5.81359-1.82674-5.96887-1.77802-6.09749-1.6806-6.19949-1.58317-6.30149-1.46139-6.35247-1.31525-6.35249-1.17216-6.35247-1.0519-6.30149-0.95447-6.19949-0.857045-6.09749-0.808332-5.96887-0.808332-5.81359-0.808332-5.65832-0.857045-5.52969-0.95447-5.42769-1.0519-5.32571-1.17216-5.27471-1.31525-5.27471Z" fill="#ED7D31" fill-rule="nonzero" fill-opacity="1" transform="matrix(1.00187 0 0 1 279.012 76.6938)"/><text fill="#ED7D31" fill-opacity="1" font-family="Cambria Math,Cambria Math_MSFontService,sans-serif" font-style="normal" font-variant="normal" font-weight="400" font-stretch="normal" font-size="40" text-anchor="start" direction="ltr" writing-mode="lr-tb" unicode-bidi="normal" text-decoration="none" transform="matrix(0.17037 0 0 0.170053 278.642 79)">nv</text><text fill="#ED7D31" fill-opacity="1" font-family="Cambria Math,Cambria Math_MSFontService,sans-serif" font-style="normal" font-variant="normal" font-weight="400" font-stretch="normal" font-size="40" text-anchor="start" direction="ltr" writing-mode="lr-tb" unicode-bidi="normal" text-decoration="none" transform="matrix(0.17037 0 0 0.170053 279.332 72)">vp</text><path d="M4.92762-7.94631 0.899669 2.6031 0.228342 2.6031 4.26543-7.94631Z" fill="#ED7D31" fill-rule="nonzero" fill-opacity="1" transform="matrix(1.00187 0 0 1 256.363 76.6938)"/><text fill="#ED7D31" fill-opacity="1" font-family="Arial,Arial_MSFontService,sans-serif" font-style="normal" font-variant="normal" font-weight="400" font-stretch="normal" font-size="55" text-anchor="start" direction="ltr" writing-mode="lr-tb" unicode-bidi="normal" text-decoration="none" transform="matrix(0.17037 0 0 0.170053 190.61 89)">= 2.303</text><text fill="#ED7D31" fill-opacity="1" font-family="Cambria Math,Cambria Math_MSFontService,sans-serif" font-style="normal" font-variant="normal" font-weight="400" font-stretch="normal" font-size="55" text-anchor="start" direction="ltr" writing-mode="lr-tb" unicode-bidi="normal" text-decoration="none" transform="matrix(0.17037 0 0 0.170053 222.04 89)">𝜆</text><text fill="#ED7D31" fill-opacity="1" font-family="Cambria Math,Cambria Math_MSFontService,sans-serif" font-style="normal" font-variant="normal" font-weight="400" font-stretch="normal" font-size="40" text-anchor="start" direction="ltr" writing-mode="lr-tb" unicode-bidi="normal" text-decoration="none" transform="matrix(0.17037 0 0 0.170053 226.921 91)">𝛼</text><text fill="#ED7D31" fill-opacity="1" font-family="Cambria Math,Cambria Math_MSFontService,sans-serif" font-style="normal" font-variant="normal" font-weight="400" font-stretch="normal" font-size="40" text-anchor="start" direction="ltr" writing-mode="lr-tb" unicode-bidi="normal" text-decoration="none" transform="matrix(0.17037 0 0 0.170053 226.785 85)">∗</text><text fill="#000000" fill-opacity="1" font-family="Cambria Math,Cambria Math_MSFontService,sans-serif" font-style="normal" font-variant="normal" font-weight="400" font-stretch="normal" font-size="50" text-anchor="start" direction="ltr" writing-mode="lr-tb" unicode-bidi="normal" text-decoration="none" transform="matrix(0.17037 0 0 0.170053 27.7354 175)">𝜆</text><text fill="#000000" fill-opacity="1" font-family="Cambria Math,Cambria Math_MSFontService,sans-serif" font-style="normal" font-variant="normal" font-weight="400" font-stretch="normal" font-size="37" text-anchor="start" direction="ltr" writing-mode="lr-tb" unicode-bidi="normal" text-decoration="none" transform="matrix(0.17037 0 0 0.170053 32.2254 177)">𝛼</text><text fill="#000000" fill-opacity="1" font-family="Cambria Math,Cambria Math_MSFontService,sans-serif" font-style="normal" font-variant="normal" font-weight="400" font-stretch="normal" font-size="37" text-anchor="start" direction="ltr" writing-mode="lr-tb" unicode-bidi="normal" text-decoration="none" transform="matrix(0.17037 0 0 0.170053 32.1005 172)">∗</text><text fill="#000000" fill-opacity="1" font-family="Arial,Arial_MSFontService,sans-serif" font-style="normal" font-variant="normal" font-weight="400" font-stretch="normal" font-size="50" text-anchor="start" direction="ltr" writing-mode="lr-tb" unicode-bidi="normal" text-decoration="none" transform="matrix(0.17037 0 0 0.170053 39.3079 175)">: Coefficient of secondary consolidation</text><text fill="#000000" fill-opacity="1" font-family="Cambria Math,Cambria Math_MSFontService,sans-serif" font-style="normal" font-variant="normal" font-weight="400" font-stretch="normal" font-size="50" text-anchor="start" direction="ltr" writing-mode="lr-tb" unicode-bidi="normal" text-decoration="none" transform="matrix(0.17037 0 0 0.170053 27.7354 185)">𝐶</text><text fill="#000000" fill-opacity="1" font-family="Cambria Math,Cambria Math_MSFontService,sans-serif" font-style="normal" font-variant="normal" font-weight="400" font-stretch="normal" font-size="37" text-anchor="start" direction="ltr" writing-mode="lr-tb" unicode-bidi="normal" text-decoration="none" transform="matrix(0.17037 0 0 0.170053 31.9795 187)">𝛽</text><text fill="#000000" fill-opacity="1" font-family="Cambria Math,Cambria Math_MSFontService,sans-serif" font-style="normal" font-variant="normal" font-weight="400" font-stretch="normal" font-size="37" text-anchor="start" direction="ltr" writing-mode="lr-tb" unicode-bidi="normal" text-decoration="none" transform="matrix(0.17037 0 0 0.170053 33.4124 181)">∗</text><text fill="#000000" fill-opacity="1" font-family="Arial,Arial_MSFontService,sans-serif" font-style="normal" font-variant="normal" font-weight="400" font-stretch="normal" font-size="50" text-anchor="start" direction="ltr" writing-mode="lr-tb" unicode-bidi="normal" text-decoration="none" transform="matrix(0.17037 0 0 0.170053 39.1595 185)">: Coefficient of thermo</text><text fill="#000000" fill-opacity="1" font-family="Arial,Arial_MSFontService,sans-serif" font-style="normal" font-variant="normal" font-weight="400" font-stretch="normal" font-size="50" text-anchor="start" direction="ltr" writing-mode="lr-tb" unicode-bidi="normal" text-decoration="none" transform="matrix(0.17037 0 0 0.170053 122.907 185)">-</text><text fill="#000000" fill-opacity="1" font-family="Arial,Arial_MSFontService,sans-serif" font-style="normal" font-variant="normal" font-weight="400" font-stretch="normal" font-size="50" text-anchor="start" direction="ltr" writing-mode="lr-tb" unicode-bidi="normal" text-decoration="none" transform="matrix(0.17037 0 0 0.170053 125.738 185)">plastic compression</text><path d="M0 0 6.43755 10.3055" stroke="#7F7F7F" stroke-width="0.779408" stroke-linecap="square" stroke-linejoin="miter" stroke-miterlimit="8" stroke-dasharray="2.33822 0.779408" stroke-opacity="1" fill="none" fill-rule="evenodd" transform="matrix(1.00187 0 0 -1 66.1889 95.757)"/><path d="M0 0 13.2217 21.1659" stroke="#7F7F7F" stroke-width="0.779408" stroke-linecap="square" stroke-linejoin="miter" stroke-miterlimit="8" stroke-dasharray="2.33822 0.779408" stroke-opacity="1" fill="none" fill-rule="evenodd" transform="matrix(1.00187 0 0 -1 73.3444 105.087)"/><path d="M0 0 19.6819 31.5077" stroke="#7F7F7F" stroke-width="0.779408" stroke-linecap="square" stroke-linejoin="miter" stroke-miterlimit="8" stroke-dasharray="2.33822 0.779408" stroke-opacity="1" fill="none" fill-rule="evenodd" transform="matrix(1.00187 0 0 -1 83.0556 117.469)"/><path d="M140.889 141.569 147.927 141.569" stroke="#7F7F7F" stroke-width="0.779408" stroke-linecap="square" stroke-linejoin="miter" stroke-miterlimit="8" stroke-dasharray="2.33822 0.779408" stroke-opacity="1" fill="none" fill-rule="evenodd" transform="matrix(1.00187 0 0 1 -74.963 -36.5613)"/><path d="M143.95 153.983 157.732 153.983" stroke="#7F7F7F" stroke-width="0.779408" stroke-linecap="square" stroke-linejoin="miter" stroke-miterlimit="8" stroke-dasharray="2.33822 0.779408" stroke-opacity="1" fill="none" fill-rule="evenodd" transform="matrix(1.00187 0 0 1 -74.963 -36.5613)"/><path d="M135.277 132.216 140.839 132.216" stroke="#7F7F7F" stroke-width="0.779408" stroke-linecap="square" stroke-linejoin="miter" stroke-miterlimit="8" stroke-dasharray="2.33822 0.779408" stroke-opacity="1" fill="none" fill-rule="evenodd" transform="matrix(1.00187 0 0 1 -74.963 -36.5613)"/><text fill="#7F7F7F" fill-opacity="1" font-family="Cambria Math,Cambria Math_MSFontService,sans-serif" font-style="normal" font-variant="normal" font-weight="400" font-stretch="normal" font-size="48" text-anchor="start" direction="ltr" writing-mode="lr-tb" unicode-bidi="normal" text-decoration="none" transform="matrix(0.17037 0 0 0.170053 56.1413 120)">𝜀</text><path d="M-1.14786-4.60338C-1.2754-4.60338-1.38168-4.64788-1.4667-4.7369-1.55173-4.82591-1.59424-4.93818-1.59424-5.07367-1.59424-5.20919-1.55173-5.32146-1.4667-5.41046-1.38168-5.49947-1.2754-5.54399-1.14786-5.54399-1.02297-5.54399-0.918019-5.49947-0.832993-5.41046-0.747966-5.32146-0.705453-5.20919-0.705453-5.07367-0.705453-4.93818-0.747966-4.82591-0.832993-4.7369-0.918019-4.64788-1.02297-4.60338-1.14786-4.60338Z" fill="#7F7F7F" fill-rule="nonzero" fill-opacity="1" transform="matrix(1.00187 0 0 1 60.0808 120.227)"/><text fill="#7F7F7F" fill-opacity="1" font-family="Cambria Math,Cambria Math_MSFontService,sans-serif" font-style="normal" font-variant="normal" font-weight="400" font-stretch="normal" font-size="35" text-anchor="start" direction="ltr" writing-mode="lr-tb" unicode-bidi="normal" text-decoration="none" transform="matrix(0.17037 0 0 0.170053 59.706 122)">nv</text><text fill="#7F7F7F" fill-opacity="1" font-family="Cambria Math,Cambria Math_MSFontService,sans-serif" font-style="normal" font-variant="normal" font-weight="400" font-stretch="normal" font-size="35" text-anchor="start" direction="ltr" writing-mode="lr-tb" unicode-bidi="normal" text-decoration="none" transform="matrix(0.17037 0 0 0.170053 60.3111 116)">vp</text><text fill="#7F7F7F" fill-opacity="1" font-family="Arial,Arial_MSFontService,sans-serif" font-style="normal" font-variant="normal" font-weight="400" font-stretch="normal" font-size="48" text-anchor="start" direction="ltr" writing-mode="lr-tb" unicode-bidi="normal" text-decoration="none" transform="matrix(0.17037 0 0 0.170053 31.2054 96)">0.01</text><text fill="#7F7F7F" fill-opacity="1" font-family="Cambria Math,Cambria Math_MSFontService,sans-serif" font-style="normal" font-variant="normal" font-weight="400" font-stretch="normal" font-size="48" text-anchor="start" direction="ltr" writing-mode="lr-tb" unicode-bidi="normal" text-decoration="none" transform="matrix(0.17037 0 0 0.170053 47.2132 96)">𝜀</text><path d="M-1.14786-4.60338C-1.2754-4.60338-1.38168-4.64788-1.4667-4.7369-1.55173-4.82591-1.59424-4.93818-1.59424-5.07367-1.59424-5.20919-1.55173-5.32146-1.4667-5.41046-1.38168-5.49947-1.2754-5.54399-1.14786-5.54399-1.02297-5.54399-0.918019-5.49947-0.832993-5.41046-0.747966-5.32146-0.705453-5.20919-0.705453-5.07367-0.705453-4.93818-0.747966-4.82591-0.832993-4.7369-0.918019-4.64788-1.02297-4.60338-1.14786-4.60338Z" fill="#7F7F7F" fill-rule="nonzero" fill-opacity="1" transform="matrix(1.00187 0 0 1 51.1525 96.4199)"/><text fill="#7F7F7F" fill-opacity="1" font-family="Cambria Math,Cambria Math_MSFontService,sans-serif" font-style="normal" font-variant="normal" font-weight="400" font-stretch="normal" font-size="35" text-anchor="start" direction="ltr" writing-mode="lr-tb" unicode-bidi="normal" text-decoration="none" transform="matrix(0.17037 0 0 0.170053 50.7777 98)">nv</text><text fill="#7F7F7F" fill-opacity="1" font-family="Cambria Math,Cambria Math_MSFontService,sans-serif" font-style="normal" font-variant="normal" font-weight="400" font-stretch="normal" font-size="35" text-anchor="start" direction="ltr" writing-mode="lr-tb" unicode-bidi="normal" text-decoration="none" transform="matrix(0.17037 0 0 0.170053 51.383 92)">vp</text><text fill="#7F7F7F" fill-opacity="1" font-family="Arial,Arial_MSFontService,sans-serif" font-style="normal" font-variant="normal" font-weight="400" font-stretch="normal" font-size="48" text-anchor="start" direction="ltr" writing-mode="lr-tb" unicode-bidi="normal" text-decoration="none" transform="matrix(0.17037 0 0 0.170053 38.8047 108)">0.1</text><text fill="#7F7F7F" fill-opacity="1" font-family="Cambria Math,Cambria Math_MSFontService,sans-serif" font-style="normal" font-variant="normal" font-weight="400" font-stretch="normal" font-size="48" text-anchor="start" direction="ltr" writing-mode="lr-tb" unicode-bidi="normal" text-decoration="none" transform="matrix(0.17037 0 0 0.170053 50.2248 108)">𝜀</text><path d="M-1.14786-4.60338C-1.2754-4.60338-1.38168-4.64788-1.4667-4.7369-1.55173-4.82591-1.59424-4.93818-1.59424-5.07367-1.59424-5.20919-1.55173-5.32146-1.4667-5.41046-1.38168-5.49947-1.2754-5.54399-1.14786-5.54399-1.02297-5.54399-0.918019-5.49947-0.832993-5.41046-0.747966-5.32146-0.705453-5.20919-0.705453-5.07367-0.705453-4.93818-0.747966-4.82591-0.832993-4.7369-0.918019-4.64788-1.02297-4.60338-1.14786-4.60338Z" fill="#7F7F7F" fill-rule="nonzero" fill-opacity="1" transform="matrix(1.00187 0 0 1 54.1643 108.324)"/><text fill="#7F7F7F" fill-opacity="1" font-family="Cambria Math,Cambria Math_MSFontService,sans-serif" font-style="normal" font-variant="normal" font-weight="400" font-stretch="normal" font-size="35" text-anchor="start" direction="ltr" writing-mode="lr-tb" unicode-bidi="normal" text-decoration="none" transform="matrix(0.17037 0 0 0.170053 53.7895 110)">nv</text><text fill="#7F7F7F" fill-opacity="1" font-family="Cambria Math,Cambria Math_MSFontService,sans-serif" font-style="normal" font-variant="normal" font-weight="400" font-stretch="normal" font-size="35" text-anchor="start" direction="ltr" writing-mode="lr-tb" unicode-bidi="normal" text-decoration="none" transform="matrix(0.17037 0 0 0.170053 54.3947 104)">vp</text><path d="M231.066 126.633 231.066 158.841 230.287 158.841 230.287 126.633ZM230.676 126.633 229.117 128.191 230.676 125.074 232.236 128.191ZM230.676 158.841 232.236 157.282 230.676 160.399 229.117 157.282Z" fill="#ED7D31" fill-rule="nonzero" fill-opacity="1" transform="matrix(1.00187 0 0 1 -74.963 -36.5613)"/><path d="M0 0 20.3533 32.5823" stroke="#ED7D31" stroke-width="0.779408" stroke-linecap="butt" stroke-linejoin="miter" stroke-miterlimit="8" stroke-opacity="1" fill="none" fill-rule="evenodd" transform="matrix(1.00187 0 0 -1 135.359 138.1)"/><text fill="#ED7D31" fill-opacity="1" font-family="Cambria Math,Cambria Math_MSFontService,sans-serif" font-style="normal" font-variant="normal" font-weight="400" font-stretch="normal" font-size="55" text-anchor="start" direction="ltr" writing-mode="lr-tb" unicode-bidi="normal" text-decoration="none" transform="matrix(0.17037 0 0 0.170053 90.1968 148)">𝐶</text><text fill="#ED7D31" fill-opacity="1" font-family="Cambria Math,Cambria Math_MSFontService,sans-serif" font-style="normal" font-variant="normal" font-weight="400" font-stretch="normal" font-size="40" text-anchor="start" direction="ltr" writing-mode="lr-tb" unicode-bidi="normal" text-decoration="none" transform="matrix(0.17037 0 0 0.170053 94.7414 150)">𝛽</text><text fill="#ED7D31" fill-opacity="1" font-family="Cambria Math,Cambria Math_MSFontService,sans-serif" font-style="normal" font-variant="normal" font-weight="400" font-stretch="normal" font-size="40" text-anchor="start" direction="ltr" writing-mode="lr-tb" unicode-bidi="normal" text-decoration="none" transform="matrix(0.17037 0 0 0.170053 96.307 144)">∗</text><path d="M209.138 177.239C210.027 177.474 210.711 177.981 211.187 178.758 211.663 179.537 211.901 180.474 211.901 181.574 211.901 182.676 211.665 183.614 211.188 184.388 210.714 185.164 210.03 185.669 209.138 185.903L209.029 185.551C209.733 185.317 210.255 184.854 210.598 184.162 210.94 183.472 211.112 182.594 211.112 181.528 211.112 180.499 210.94 179.644 210.6 178.963 210.258 178.283 209.731 177.826 209.015 177.591ZM178.246 177.239 178.368 177.591C177.656 177.826 177.129 178.283 176.787 178.963 176.443 179.644 176.273 180.499 176.273 181.528 176.273 182.594 176.443 183.472 176.787 184.162 177.129 184.854 177.652 185.317 178.355 185.551L178.246 185.903C177.353 185.669 176.669 185.164 176.195 184.388 175.721 183.614 175.482 182.676 175.482 181.574 175.482 180.474 175.721 179.537 176.197 178.758 176.675 177.981 177.356 177.474 178.246 177.239Z" fill="#ED7D31" fill-rule="evenodd" fill-opacity="1" transform="matrix(1.00187 0 0 1 -74.963 -36.5613)"/><text fill="#ED7D31" fill-opacity="1" font-family="Cambria Math,Cambria Math_MSFontService,sans-serif" font-style="normal" font-variant="normal" font-weight="400" font-stretch="normal" font-size="55" text-anchor="start" direction="ltr" writing-mode="lr-tb" unicode-bidi="normal" text-decoration="none" transform="matrix(0.17037 0 0 0.170053 103.912 148)">𝑇</text><text fill="#ED7D31" fill-opacity="1" font-family="Cambria Math,Cambria Math_MSFontService,sans-serif" font-style="normal" font-variant="normal" font-weight="400" font-stretch="normal" font-size="40" text-anchor="start" direction="ltr" writing-mode="lr-tb" unicode-bidi="normal" text-decoration="none" transform="matrix(0.17037 0 0 0.170053 108.47 150)">H</text><text fill="#ED7D31" fill-opacity="1" font-family="Cambria Math,Cambria Math_MSFontService,sans-serif" font-style="normal" font-variant="normal" font-weight="400" font-stretch="normal" font-size="55" text-anchor="start" direction="ltr" writing-mode="lr-tb" unicode-bidi="normal" text-decoration="none" transform="matrix(0.17037 0 0 0.170053 116.114 148)">−</text><text fill="#ED7D31" fill-opacity="1" font-family="Cambria Math,Cambria Math_MSFontService,sans-serif" font-style="normal" font-variant="normal" font-weight="400" font-stretch="normal" font-size="55" text-anchor="start" direction="ltr" writing-mode="lr-tb" unicode-bidi="normal" text-decoration="none" transform="matrix(0.17037 0 0 0.170053 125.222 148)">𝑇</text><text fill="#ED7D31" fill-opacity="1" font-family="Cambria Math,Cambria Math_MSFontService,sans-serif" font-style="normal" font-variant="normal" font-weight="400" font-stretch="normal" font-size="40" text-anchor="start" direction="ltr" writing-mode="lr-tb" unicode-bidi="normal" text-decoration="none" transform="matrix(0.17037 0 0 0.170053 129.78 150)">L</text><path d="M0 0 24.4543 41.6675" stroke="#000000" stroke-width="0.779408" stroke-linecap="butt" stroke-linejoin="miter" stroke-miterlimit="8" stroke-opacity="1" fill="none" fill-rule="evenodd" transform="matrix(1.00187 0 0 -1 168.241 86.9865)"/><text fill="#000000" fill-opacity="1" font-family="Arial,Arial_MSFontService,sans-serif" font-style="normal" font-variant="normal" font-weight="400" font-stretch="normal" font-size="55" text-anchor="start" direction="ltr" writing-mode="lr-tb" unicode-bidi="normal" text-decoration="none" transform="matrix(0.17037 0 0 0.170053 205.003 48)">Slope of isotach: </text><text fill="#000000" fill-opacity="1" font-family="Cambria Math,Cambria Math_MSFontService,sans-serif" font-style="normal" font-variant="normal" font-weight="400" font-stretch="normal" font-size="55" text-anchor="start" direction="ltr" writing-mode="lr-tb" unicode-bidi="normal" text-decoration="none" transform="matrix(0.17037 0 0 0.170053 276.746 48)">𝜆</text><text fill="#000000" fill-opacity="1" font-family="Cambria Math,Cambria Math_MSFontService,sans-serif" font-style="normal" font-variant="normal" font-weight="400" font-stretch="normal" font-size="40" text-anchor="start" direction="ltr" writing-mode="lr-tb" unicode-bidi="normal" text-decoration="none" transform="matrix(0.17037 0 0 0.170053 281.489 44)">∗</text><path d="M0 0 7.14852 6.13707e-05" stroke="#000000" stroke-width="0.779408" stroke-linecap="butt" stroke-linejoin="miter" stroke-miterlimit="8" stroke-opacity="1" fill="none" fill-rule="evenodd" transform="matrix(1.00187 0 0 -1 192.774 44.9789)"/><text fill="#000000" fill-opacity="1" font-family="Cambria Math,Cambria Math_MSFontService,sans-serif" font-style="normal" font-variant="normal" font-weight="400" font-stretch="normal" font-size="50" text-anchor="start" direction="ltr" writing-mode="lr-tb" unicode-bidi="normal" text-decoration="none" transform="matrix(0.17037 0 0 0.170053 27.7354 166)">𝜆</text><text fill="#000000" fill-opacity="1" font-family="Cambria Math,Cambria Math_MSFontService,sans-serif" font-style="normal" font-variant="normal" font-weight="400" font-stretch="normal" font-size="37" text-anchor="start" direction="ltr" writing-mode="lr-tb" unicode-bidi="normal" text-decoration="none" transform="matrix(0.17037 0 0 0.170053 32.1005 163)">∗</text><text fill="#000000" fill-opacity="1" font-family="Arial,Arial_MSFontService,sans-serif" font-style="normal" font-variant="normal" font-weight="400" font-stretch="normal" font-size="50" text-anchor="start" direction="ltr" writing-mode="lr-tb" unicode-bidi="normal" text-decoration="none" transform="matrix(0.17037 0 0 0.170053 40.6822 166)">: Compression index</text></g></g></g></g></g></svg>